<?xml version="1.0" standalone="no"?>
<!DOCTYPE svg PUBLIC "-//W3C//DTD SVG 1.1//EN" "http://www.w3.org/Graphics/SVG/1.1/DTD/svg11.dtd" >
<svg xmlns="http://www.w3.org/2000/svg">
<metadata>
Created by FontPrep 20130207 at Tue Sep  8 17:39:37 2015
 By Marcos Dopico Castro
Copyright (c) 201332015 by Marcos Dopico // MaisTypes. All rights reserved.
</metadata>
<defs>
<font id="10f7cd190fb9042dbe2d35cdb48e9d6c" horiz-adv-x='1024' >
  <font-face 
    font-family="MaisGrotesk-LightItalic"
    font-weight="300"
    font-style="italic"
    font-stretch="normal"
    units-per-em="2048"
    panose-1="0 0 0 0 0 0 0 0 0 0"
    ascent="1536"
    descent="-512"
    x-height="1024"
    cap-height="1413"
    bbox="-483 -410 2363 1868"
    underline-thickness="102"
    underline-position="-102"
    unicode-range="U+0020-FB04"
  />
<missing-glyph horiz-adv-x="829" 
d="M539 735l151 -524l184 1051zM455 606l-320 -497h465zM356 1364l144 -498l321 498h-465zM418 735l-152 531l-186 -1059zM764 0h-827l258 1473h829z" />
    <glyph glyph-name="ellipsis" unicode="&#x2e;&#x2e;&#x2e;" horiz-adv-x="1146" 
d="M811 0l29 164h164l-29 -164h-164zM483 0l29 164h164l-29 -164h-164zM156 0l28 164h164l-29 -164h-163z" />
    <glyph glyph-name="ff" unicode="ff" horiz-adv-x="1196" 
d="M659 1446q33 0 76 -6l-16 -103q-39 6 -84 6q-147 0 -172 -135l-31 -184h475l31 184q43 238 319 238q33 0 76 -6l-16 -103q-41 6 -84 6q-147 0 -172 -135l-31 -184h209l-18 -102h-209l-164 -922h-123l164 922h-475l-164 -922h-123l164 922h-152l19 102h151l31 184
q43 238 319 238z" />
    <glyph glyph-name="fi" unicode="fi" horiz-adv-x="1048" 
d="M1069 1413l-29 -164h-122l28 164h123zM659 1446q33 0 76 -6l-16 -103q-39 6 -93 6t-103 -33q-48 -34 -60 -102l-31 -184h569l-182 -1024h-123l164 922h-446l-164 -922h-123l164 922h-152l19 102h151l31 184q43 238 319 238z" />
    <glyph glyph-name="fl" unicode="fl" horiz-adv-x="1116" 
d="M969 92h18l-18 -98q-33 -4 -64 -4q-209 0 -170 221l125 711h-446l-162 -922h-123l162 922h-152l19 102h151l33 184q41 238 317 238q33 0 78 -6l-18 -103q-39 6 -93 6t-102 -33q-47 -34 -59 -102l-33 -184h447l67 389h123l-211 -1204q-12 -73 16 -95t95 -22z" />
    <glyph glyph-name="ffi" unicode="ffi" horiz-adv-x="1646" 
d="M1516 1249l28 164h123l-29 -164h-122zM1243 1446q33 0 76 -6l-16 -103q-41 6 -84 6q-147 0 -172 -135l-31 -184h583l-182 -1024h-123l164 922h-461l-163 -922h-123l163 922h-460l-164 -922h-123l164 922h-152l19 102h151l31 184q43 238 319 238q33 0 76 -6l-16 -103
q-39 6 -84 6q-147 0 -172 -135l-31 -184h461l31 184q43 238 319 238z" />
    <glyph glyph-name="ffl" unicode="ffl" horiz-adv-x="1714" 
d="M1567 92h18l-18 -98q-33 -4 -64 -4q-209 0 -170 221l125 711h-461l-161 -922h-123l161 922h-460l-162 -922h-123l162 922h-152l19 102h151l33 184q41 238 317 238q33 0 78 -6l-18 -103q-39 6 -84 6q-145 0 -170 -135l-33 -184h461l33 184q41 238 317 238q31 0 78 -6
l-18 -103q-41 6 -84 6q-145 0 -170 -135l-33 -184h461l67 389h123l-211 -1204q-12 -73 16 -95t95 -22z" />
    <glyph glyph-name="ft" unicode="ft" 
d="M932 -10q-236 0 -178 323l106 609h-446l-162 -922h-123l162 922h-152l19 102h151l23 131q32 188 136 244q83 45 206 45q14 0 63 -4l-18 -99h-86q-143 0 -168 -124l-33 -193h447l47 270l131 41l-56 -311h232l-19 -102h-231l-123 -695q-10 -61 25 -98t88 -37t96 6l-16 -94
q-72 -14 -121 -14z" />
    <glyph glyph-name="fj" unicode="fj" horiz-adv-x="1007" 
d="M936 1249l29 164h122l-28 -164h-123zM538 -399q-76 0 -124 4l16 98h86q61 0 110 33q48 33 58 92l193 1094h-447l-162 -922h-123l162 922h-151l18 102h152l32 184q43 238 320 238q31 0 76 -6l-19 -103q-37 6 -91 6q-54 1 -102 -33t-61 -102l-32 -184h569l-209 -1182
q-23 -127 -109 -184t-162 -57z" />
    <glyph glyph-name="ffj" unicode="ffj" horiz-adv-x="1605" 
d="M1534 1249l29 164h123l-29 -164h-123zM1262 1446q29 0 75 -6l-18 -103q-37 6 -82 6q-147 0 -172 -135l-33 -184h584l-209 -1182q-23 -127 -109 -184t-154 -57t-132 14l16 94q43 -6 86 -6q94 0 129 51t60 183l172 985h-461l-162 -922h-123l162 922h-461l-162 -922h-123
l162 922h-151l18 102h152l32 184q43 238 320 238q31 0 76 -6l-19 -103q-37 6 -82 6q-147 0 -172 -135l-32 -184h460l33 184q43 238 320 238z" />
    <glyph glyph-name="fft" unicode="fft" horiz-adv-x="1816" 
d="M1243 1446q31 0 78 -6l-18 -103q-41 6 -84 6q-145 0 -170 -135l-33 -184h461l47 270l131 41l-56 -311h211l-18 -102h-211l-127 -717q-12 -71 22 -97t96 -26t116 12l-17 -94q-63 -20 -159 -20t-148 56q-51 56 -33 165l127 721h-461l-161 -922h-123l161 922h-460l-162 -922
h-123l162 922h-152l19 102h151l33 184q43 238 317 238q33 0 78 -6l-18 -103q-39 6 -84 6q-145 0 -170 -135l-33 -184h461l33 184q43 238 317 238z" />
    <glyph glyph-name=".notdef" horiz-adv-x="829" 
d="M539 735l151 -524l184 1051zM455 606l-320 -497h465zM356 1364l144 -498l321 498h-465zM418 735l-152 531l-186 -1059zM764 0h-827l258 1473h829z" />
    <glyph glyph-name=".null" horiz-adv-x="0" 
 />
    <glyph glyph-name="nonmarkingreturn" horiz-adv-x="681" 
 />
    <glyph glyph-name="space" unicode=" " horiz-adv-x="552" 
 />
    <glyph glyph-name="exclam" unicode="!" horiz-adv-x="630" 
d="M180 0l29 164h143l-28 -164h-144zM264 301l168 1133h143l-229 -1133h-82z" />
    <glyph glyph-name="quotedbl" unicode="&#x22;" horiz-adv-x="716" 
d="M483 881l97 553h122l-96 -553h-123zM217 881l96 553h123l-96 -553h-123z" />
    <glyph glyph-name="numbersign" unicode="#" horiz-adv-x="1226" 
d="M604 922l-205 -461h338l203 461h-336zM78 0l160 358h-156l18 103h183l202 461h-243l18 102h270l179 389h118l-178 -389h336l178 389h119l-178 -389h158l-19 -102h-184l-203 -461h246l-19 -103h-272l-162 -358h-117l160 358h-338l-159 -358h-117z" />
    <glyph glyph-name="dollar" unicode="$" horiz-adv-x="1361" 
d="M442 1069q-20 -123 48 -177t217 -87l94 524q-316 -20 -359 -260zM1079 375q24 144 -59 205q-45 33 -96 52t-138 40l-104 -590q350 12 397 293zM946 1579l-26 -147q391 -23 362 -375h-127q10 129 -47 197t-205 75l-96 -545l53 -12q190 -45 286 -131t64 -264
q-31 -177 -171 -283t-375 -114l-25 -144h-102l24 146q-217 14 -316 122t-83 287h127q-33 -283 291 -307l108 610q-207 39 -304 122q-98 83 -70 243t155 261t348 112l27 147h102z" />
    <glyph glyph-name="percent" unicode="%" horiz-adv-x="1574" 
d="M1289 827q313 0 239 -424t-389 -423q-309 0 -235 424t385 423zM1284 741q-137 0 -193 -99q-57 -99 -75 -214q-18 -116 -20 -190t36 -123q39 -49 123 -49q121 0 179 91t87 244q12 88 15 164q2 76 -38 126t-114 50zM549 1393q315 0 239 -424t-388 -424t-236 424t385 424z
M535 1307q-119 1 -179 -93t-88 -247q-12 -88 -14 -163t38 -124t122 -49q121 0 180 91t86 245q12 87 15 163t-37 126t-123 51zM1382 1458l70 -45l-1098 -1456l-69 43z" />
    <glyph glyph-name="ampersand" unicode="&#x26;" horiz-adv-x="1189" 
d="M641 678q-346 0 -399 -297q-4 -37 -8 -75q-7 -73 59 -138q66 -64 248 -66h274l100 576h-274zM508 0q-219 0 -324 95q-104 95 -71 278q25 141 115 235q91 94 233 121q-223 96 -187 320q27 145 143 255t341 109h217l-19 -102h-202q-164 0 -248 -75t-105 -194
q-45 -262 258 -262h275l37 205h123l-37 -205h176l-19 -102h-176l-118 -678h-412z" />
    <glyph glyph-name="quotesingle" unicode="'" horiz-adv-x="450" 
d="M217 881l96 553h123l-96 -553h-123z" />
    <glyph glyph-name="parenleft" unicode="(" horiz-adv-x="501" 
d="M662 1413q-281 -408 -366 -882t56 -879h-102q-164 403 -82 880q86 475 391 881h103z" />
    <glyph glyph-name="parenright" unicode=")" horiz-adv-x="501" 
d="M-66 -348q281 412 365 882t-57 879h102q166 -406 82 -880t-391 -881h-101z" />
    <glyph glyph-name="asterisk" unicode="*" horiz-adv-x="1001" 
d="M696 1434l-57 -226l223 86l15 -92l-230 -51l117 -172l-88 -57l-84 192l-152 -192l-67 57l176 172l-211 51l47 92l195 -86l20 226h96z" />
    <glyph glyph-name="plus" unicode="+" 
d="M674 985h102l-74 -422h420l-18 -102h-420l-74 -418h-102l74 418h-420l18 102h420z" />
    <glyph glyph-name="comma" unicode="," horiz-adv-x="399" 
d="M326 164l-29 -164q-43 -121 -158 -205h-61q93 78 106 205h-51l29 164h164z" />
    <glyph glyph-name="hyphen" unicode="-" horiz-adv-x="817" 
d="M743 512l-18 -102h-571l18 102h571z" />
    <glyph glyph-name="period" unicode="." horiz-adv-x="389" 
d="M104 0l29 164h164l-29 -164h-164z" />
    <glyph glyph-name="slash" unicode="/" horiz-adv-x="663" 
d="M838 1413l-762 -1413h-117l760 1413h119z" />
    <glyph glyph-name="zero" unicode="0" horiz-adv-x="1200" 
d="M784 1393q408 0 408 -463q0 -261 -91 -496q-50 -129 -123 -228q-74 -98 -188 -162t-255 -64q-408 0 -408 458q0 268 91 498q50 129 123 229t189 164t254 64zM766 1290q-113 0 -204 -56t-147 -145q-163 -259 -163 -655q0 -352 301 -352q141 0 247 84q105 84 159 219
q106 265 106 547q0 358 -299 358z" />
    <glyph glyph-name="one" unicode="1" horiz-adv-x="688" 
d="M297 1184q180 0 211 168h123l-240 -1352h-123l193 1081h-258l16 103h78z" />
    <glyph glyph-name="two" unicode="2" horiz-adv-x="1134" 
d="M730 1393q178 0 280 -81t102 -240t-131 -336q-103 -139 -432 -384q-121 -90 -342 -250h760l-17 -102h-909l18 113q431 318 558 421t183 161q138 143 167 250q14 56 14 124q0 221 -256 221q-285 0 -371 -309h-127q51 209 189 311t314 101z" />
    <glyph glyph-name="three" unicode="3" horiz-adv-x="1069" 
d="M186 346q-20 -264 292 -264q158 0 262 88q105 88 130 227q55 324 -286 324h-127l18 102l463 426h-629l19 103h768l-19 -103l-475 -426q229 0 331 -108q101 -109 64 -320q-29 -162 -170 -289q-141 -126 -360 -126t-320 94q-100 94 -84 272h123z" />
    <glyph glyph-name="four" unicode="4" horiz-adv-x="1079" 
d="M768 467l123 698l-684 -698h561zM807 0h-123l66 365h-705l18 102l861 885h123l-156 -885h170l-19 -102h-170z" />
    <glyph glyph-name="five" unicode="5" horiz-adv-x="1112" 
d="M684 866q204 0 295 -123q90 -123 55 -319q-34 -196 -188 -320t-344 -124t-298 92t-89 276h127q-16 -156 79 -216q79 -50 213 -50t242 96t132 248q26 152 -42 245t-214 93t-230 -64q-83 -64 -100 -102l-11 -18l-116 45l208 727h721l-18 -103h-619l-159 -530
q152 147 356 147z" />
    <glyph glyph-name="six" unicode="6" horiz-adv-x="1187" 
d="M580 82q168 0 278 126t111 304q0 123 -72 186q-72 64 -194 64q-121 0 -211 -50t-136 -123q-75 -121 -88 -198q-12 -135 66 -222t246 -87zM715 864q174 0 278 -87t105 -251q0 -221 -154 -384t-385 -162q-416 0 -416 434q0 256 95 506q51 133 126 236q74 103 190 170
t236 67q304 0 366 -230q15 -55 11 -106h-120q-2 233 -256 233q-412 0 -515 -692q154 266 439 266z" />
    <glyph glyph-name="seven" unicode="7" horiz-adv-x="997" 
d="M1073 1352l-18 -103l-774 -1249h-123l776 1249h-754l19 103h874z" />
    <glyph glyph-name="eight" unicode="8" horiz-adv-x="1196" 
d="M674 784q121 0 220 62t124 198q14 80 -10 134t-76 76q-51 22 -89 29t-79 7t-81 -7q-135 -24 -202 -104q-43 -54 -57 -135q-25 -136 52 -198t198 -62zM551 82q358 0 410 289q27 151 -65 231t-238 80t-267 -81t-147 -230q-14 -78 4 -135t50 -86q75 -68 253 -68zM532 -20
q-234 0 -341 102q-108 102 -74 289q43 252 338 358q-197 102 -158 315q25 145 144 247q120 101 341 101t304 -100q83 -102 59 -248q-39 -215 -268 -315q254 -104 210 -358q-33 -187 -177 -289t-378 -102z" />
    <glyph glyph-name="nine" unicode="9" horiz-adv-x="1183" 
d="M725 1292q-166 0 -278 -112t-111 -285q0 -119 74 -185t186 -67q112 0 188 32t120 76t88 114t44 120q8 129 -68 218q-77 89 -243 89zM600 541q-172 0 -278 91t-107 251q0 215 155 362t384 148q403 0 403 -447q0 -263 -93 -505q-50 -130 -123 -231t-187 -166
q-114 -64 -236 -64q-237 1 -318 115q-73 100 -65 214h121q2 -119 71 -173t177 -54t195 47t142 119q138 184 187 538q-156 -245 -428 -245z" />
    <glyph glyph-name="colon" unicode=":" horiz-adv-x="389" 
d="M256 860l29 164h164l-29 -164h-164zM104 0l29 164h164l-29 -164h-164z" />
    <glyph glyph-name="semicolon" unicode=";" horiz-adv-x="399" 
d="M276 860l29 164h164l-29 -164h-164zM326 164l-29 -164q-43 -121 -158 -205h-61q93 78 106 205h-51l29 164h164z" />
    <glyph glyph-name="less" unicode="&#x3c;" 
d="M1001 61l-806 385l22 132l944 387l-22 -123l-822 -330l705 -330z" />
    <glyph glyph-name="equal" unicode="=" horiz-adv-x="1208" 
d="M180 440l19 103h880l-18 -103h-881zM246 809l18 102h881l-19 -102h-880z" />
    <glyph glyph-name="greater" unicode="&#x3e;" 
d="M285 963l807 -385l-23 -132l-942 -387l20 123l824 330l-707 330z" />
    <glyph glyph-name="question" unicode="?" horiz-adv-x="1116" 
d="M385 0l29 164h143l-29 -164h-143zM726 1434q200 0 292 -96q90 -96 61 -257q-29 -160 -211 -299q-114 -86 -160 -135t-79 -126t-58 -220h-122q35 211 86 301t155 172t140 115t75 89t52 134t-37 149q-51 71 -205 71t-240 -91q-86 -90 -106 -199h-127q27 152 155 272
q129 120 329 120z" />
    <glyph glyph-name="at" unicode="@" horiz-adv-x="1998" 
d="M1307 1579q335 0 530 -201q94 -96 132 -248t5 -335q-51 -285 -218 -474t-408 -190q-232 0 -170 227q-46 -57 -142 -104t-221 -47t-193 85q-68 86 -40 234q59 322 299 496q127 92 270 92q190 0 238 -139l41 115h102l-256 -730q-49 -145 96 -145q102 0 190 51
q157 91 250 322q41 100 60 209q53 303 -106 499t-468 197q-190 0 -373 -80q-358 -157 -566 -514q-99 -172 -132 -352q-53 -301 92 -495t443 -193q229 0 436 125l-41 -115q-188 -96 -395 -96q-309 0 -496 189q-92 93 -131 243t-6 338q47 270 215 507t424 383t539 146z
M860 293q266 0 405 322q32 75 48 171t-22 168q-38 74 -150 74q-164 0 -291 -152t-158 -339q-45 -244 168 -244z" />
    <glyph glyph-name="A" unicode="A" horiz-adv-x="1290" 
d="M815 1303l-471 -871h633zM909 1413l277 -1413h-127l-64 330h-708l-183 -330h-124l776 1413h153z" />
    <glyph glyph-name="B" unicode="B" horiz-adv-x="1320" 
d="M829 780q150 0 238 91t88 241q0 102 -52 150t-179 49h-428l-95 -531h428zM711 102q172 0 271 98t99 251q0 115 -64 171q-65 56 -206 56h-428l-100 -576h428zM956 1413q150 0 238 -73t88 -217t-81 -246t-224 -148q231 -39 231 -280q0 -195 -137 -322t-364 -127h-566
l250 1413h565z" />
    <glyph glyph-name="C" unicode="C" horiz-adv-x="1441" 
d="M963 1434q253 0 379 -130t114 -331h-125q8 180 -93 269t-258 89q-292 0 -451 -159q-232 -232 -232 -617q0 -237 113 -355q114 -118 314 -118t337 113t196 282h123q-68 -215 -238 -356t-422 -141q-253 0 -402 145q-148 145 -148 430q0 337 189 597q93 128 249 205t355 77z
" />
    <glyph glyph-name="D" unicode="D" horiz-adv-x="1390" 
d="M819 1413q185 0 293 -50t172 -165q64 -114 65 -300q2 -363 -186 -617q-92 -127 -247 -204t-349 -77h-426l250 1413h428zM565 102q315 0 487 220t171 552q-1 224 -99 330t-344 107h-284l-213 -1209h282z" />
    <glyph glyph-name="E" unicode="E" horiz-adv-x="1179" 
d="M1264 1413l-19 -102h-747l-95 -531h627l-18 -102h-627l-102 -576h749l-18 -102h-873l250 1413h873z" />
    <glyph glyph-name="F" unicode="F" horiz-adv-x="1171" 
d="M1307 1413l-19 -102h-792l-97 -543h672l-18 -102h-672l-117 -666h-123l250 1413h916z" />
    <glyph glyph-name="G" unicode="G" horiz-adv-x="1546" 
d="M986 1331q-180 -1 -311 -69q-132 -68 -214 -182q-168 -234 -168 -537q0 -461 440 -461q469 0 588 530h-393l18 103h520l-127 -715h-94l27 268q-203 -289 -561 -288q-254 0 -400 140q-145 140 -145 416t142 514q142 239 382 332q131 52 283 52t274 -55q72 -32 123 -81
t86 -133t37 -192h-121q-6 164 -106 261t-280 97z" />
    <glyph glyph-name="H" unicode="H" horiz-adv-x="1429" 
d="M1411 1413l-250 -1413h-123l119 672h-774l-119 -672h-123l250 1413h123l-113 -639h775l112 639h123z" />
    <glyph glyph-name="I" unicode="I" horiz-adv-x="532" 
d="M264 0h-123l250 1413h123z" />
    <glyph glyph-name="J" unicode="J" horiz-adv-x="1189" 
d="M470 -20q-214 0 -316 96t-103 272q0 61 12 129h123q-12 -61 -12 -117q0 -279 297 -278q186 0 291 117q104 117 133 280l164 934h123l-158 -901q-44 -254 -192 -393t-362 -139z" />
    <glyph glyph-name="K" unicode="K" horiz-adv-x="1275" 
d="M1323 1413l-516 -491l385 -922h-133l-344 838l-367 -355l-84 -483h-123l250 1413h123l-137 -766l792 766h154z" />
    <glyph glyph-name="L" unicode="L" horiz-adv-x="1101" 
d="M283 102h712l-18 -102h-836l250 1413h123z" />
    <glyph glyph-name="M" unicode="M" horiz-adv-x="1765" 
d="M1571 1413h176l-250 -1413h-123l215 1221l-715 -1221h-122l-267 1262l-221 -1262h-123l250 1413h189l258 -1278z" />
    <glyph glyph-name="N" unicode="N" horiz-adv-x="1511" 
d="M1493 1413l-250 -1413h-141l-613 1268l-225 -1268h-123l250 1413h164l596 -1235l219 1235h123z" />
    <glyph glyph-name="O" unicode="O" horiz-adv-x="1548" 
d="M1503 877q0 -164 -53 -322q-54 -158 -152 -288t-254 -209t-344 -78q-250 0 -392 140t-142 417q0 167 53 325t151 287t252 207q155 78 343 78q254 0 396 -142t142 -415zM1376 886q0 214 -109 330q-109 115 -311 115t-358 -121t-230 -298q-74 -178 -75 -388
q0 -210 105 -326q106 -116 310 -116t360 118t232 295t76 391z" />
    <glyph glyph-name="P" unicode="P" horiz-adv-x="1257" 
d="M977 1413q139 0 230 -80q91 -81 91 -269t-129 -330t-338 -142h-462l-105 -592h-123l250 1413h586zM829 694q156 0 248 106t92 271q0 240 -231 240h-442l-109 -617h442z" />
    <glyph glyph-name="Q" unicode="Q" horiz-adv-x="1548" 
d="M1376 870q0 231 -109 346t-311 115t-358 -121t-230 -298q-74 -178 -75 -388q0 -210 105 -326t301 -116t345 100l-143 244l100 68l140 -234q113 111 174 274t61 336zM166 537q0 167 53 325t151 287t252 207q155 78 343 78q254 0 396 -142t142 -415q0 -203 -79 -395
t-226 -320l131 -219l-106 -64l-125 209q-178 -108 -413 -108t-377 140t-142 417z" />
    <glyph glyph-name="R" unicode="R" horiz-adv-x="1271" 
d="M829 743q152 1 244 97t92 264q0 109 -53 158t-182 49h-434l-99 -568h432zM969 1413q139 0 232 -72q93 -71 93 -237t-96 -295t-272 -156l180 -653h-127l-178 641h-422l-113 -641h-125l250 1413h578z" />
    <glyph glyph-name="S" unicode="S" horiz-adv-x="1296" 
d="M844 1434q236 0 326 -106t79 -271h-127q10 139 -57 207q-68 68 -234 68t-285 -68q-62 -36 -102 -98t-38 -126q1 -103 54 -148q53 -44 125 -64q73 -19 143 -33q255 -51 363 -132q93 -71 93 -208q0 -221 -172 -349t-420 -126q-248 0 -365 110t-98 301h127q-16 -149 72 -229
t279 -80t319 87q127 87 127 267q0 92 -56 134q-33 26 -55 41q-51 34 -282 83q-230 48 -308 120t-78 181q0 203 166 321q168 118 404 118z" />
    <glyph glyph-name="T" unicode="T" horiz-adv-x="1191" 
d="M1317 1413l-19 -102h-473l-231 -1311h-123l231 1311h-473l19 102h1069z" />
    <glyph glyph-name="U" unicode="U" horiz-adv-x="1404" 
d="M657 -20q-245 0 -350 99q-104 99 -104 269q0 49 10 115l168 950h123l-170 -971q-8 -41 -8 -88q0 -128 83 -200t259 -72t291 94q114 94 145 266l170 971h123l-168 -950q-37 -215 -182 -349t-390 -134z" />
    <glyph glyph-name="V" unicode="V" horiz-adv-x="1249" 
d="M1395 1413l-754 -1413h-154l-260 1413h123l234 -1315l684 1315h127z" />
    <glyph glyph-name="W" unicode="W" horiz-adv-x="1806" 
d="M1952 1413l-643 -1413h-123l-121 1245l-555 -1245h-137l-146 1413h121l123 -1266l563 1266h123l119 -1266l555 1266h121z" />
    <glyph glyph-name="X" unicode="X" horiz-adv-x="1193" 
d="M1305 1413l-568 -676l353 -737h-146l-297 647l-536 -647h-131l624 741l-319 672h145l260 -588l479 588h136z" />
    <glyph glyph-name="Y" unicode="Y" horiz-adv-x="1161" 
d="M455 0l104 594l-332 819h131l279 -719l530 719h140l-625 -819l-104 -594h-123z" />
    <glyph glyph-name="Z" unicode="Z" horiz-adv-x="1212" 
d="M1311 1413l-19 -102l-1116 -1209h909l-18 -102h-1049l19 102l1116 1209h-881l19 102h1020z" />
    <glyph glyph-name="bracketleft" unicode="[" horiz-adv-x="544" 
d="M35 -348l309 1761h340l-18 -102h-217l-275 -1557h217l-16 -102h-340z" />
    <glyph glyph-name="backslash" unicode="\" horiz-adv-x="655" 
d="M461 0l-262 1413h118l263 -1413h-119z" />
    <glyph glyph-name="bracketright" unicode="]" horiz-adv-x="544" 
d="M602 1413l-309 -1761h-338l16 102h215l275 1557h-217l18 102h340z" />
    <glyph glyph-name="asciicircum" unicode="^" horiz-adv-x="1353" 
d="M901 1411l328 -797h-144l-274 693l-518 -693h-131l604 797h135z" />
    <glyph glyph-name="underscore" unicode="_" horiz-adv-x="974" 
d="M-25 -250l17 103h973l-17 -103h-973z" />
    <glyph glyph-name="grave" unicode="`" horiz-adv-x="677" 
d="M334 1413h164l104 -266h-106z" />
    <glyph glyph-name="a" unicode="a" horiz-adv-x="1167" 
d="M489 82q117 0 203 53q150 92 205 315q23 91 23 181q0 145 -62 228t-195 83q-131 0 -231 -94q-186 -175 -186 -481q0 -152 63 -219q64 -66 180 -66zM117 358q0 376 249 581q126 105 285 105q115 0 197 -54t117 -154l55 188h102l-180 -1024h-104l18 186
q-156 -207 -387 -206q-160 0 -256 101t-96 277z" />
    <glyph glyph-name="b" unicode="b" horiz-adv-x="1167" 
d="M301 379q1 -137 65 -217t196 -80t232 93q185 174 185 470q0 297 -246 297q-141 0 -244 -91q-188 -168 -188 -472zM569 -20q-238 0 -315 206l-47 -186h-105l248 1413h123l-102 -577q152 209 385 208q158 0 254 -104t96 -315t-134 -420q-65 -101 -170 -163t-233 -62z" />
    <glyph glyph-name="c" unicode="c" horiz-adv-x="1134" 
d="M979 666v22q0 118 -66 186t-196 68q-213 0 -335 -165t-122 -355t82 -266q82 -74 218 -74t233 66q96 67 137 194h127q-53 -162 -183 -262t-330 -100q-198 0 -304 104t-107 309q0 264 161 458t435 193q183 0 277 -91t100 -248q0 -29 -2 -39h-125z" />
    <glyph glyph-name="d" unicode="d" horiz-adv-x="1167" 
d="M489 82q117 0 203 53q150 92 205 315q23 91 23 181q0 145 -62 228t-195 83q-131 0 -231 -94q-186 -175 -186 -481q0 -152 63 -219q64 -66 180 -66zM117 358q0 376 249 581q126 105 285 105q115 0 197 -54t117 -154l102 577h123l-248 -1413h-104l18 186
q-156 -207 -387 -206q-160 0 -256 101t-96 277z" />
    <glyph glyph-name="e" unicode="e" horiz-adv-x="1148" 
d="M983 662q1 120 -59 200t-210 80t-266 -100q-114 -100 -161 -260h690q6 37 6 80zM542 -20q-191 0 -300 101t-109 302q0 264 162 463t432 198q183 0 281 -103t98 -286q0 -66 -21 -176h-821q-8 -70 -8 -102q0 -141 73 -218t206 -77t233 62t143 157h129q-49 -131 -178 -226
t-320 -95z" />
    <glyph glyph-name="f" unicode="f" horiz-adv-x="598" 
d="M659 1446q33 0 76 -6l-16 -103q-39 6 -84 6q-147 0 -172 -135l-31 -184h209l-18 -102h-209l-164 -922h-123l164 922h-152l19 102h151l31 184q43 238 319 238z" />
    <glyph glyph-name="g" unicode="g" horiz-adv-x="1081" 
d="M713 942q-170 0 -255 -83t-85 -193t67 -153q68 -42 160 -42q137 0 241 77q103 77 103 210q0 184 -231 184zM174 -133q0 -174 299 -174q152 0 282 47q69 25 111 75t41 102q0 52 -14 84t-71 58q-57 25 -125 27q-67 2 -122 4l-131 2q-98 0 -184 -63t-86 -162zM1071 772
q0 -188 -138 -296t-327 -107q-129 0 -209 45q-43 -12 -77 -44t-33 -75q0 -59 77 -81q76 -22 186 -24t220 -12t188 -67q76 -57 76 -170q0 -171 -164 -261t-387 -90q-159 0 -288 52q-148 59 -148 220q0 88 77 168t189 105q-63 6 -109 46q-46 39 -46 101t52 110t124 67
q-88 72 -88 194q0 183 134 287t333 104q145 0 243 -55q66 115 218 115l-19 -103q-61 0 -90 -12t-49 -49q55 -61 55 -168z" />
    <glyph glyph-name="h" unicode="h" horiz-adv-x="1155" 
d="M793 1044q283 0 282 -272q0 -49 -12 -119l-115 -653h-123l113 637q10 66 10 111q0 96 -46 145t-152 49q-164 0 -282 -112t-149 -283l-96 -547h-123l250 1413h123l-106 -600q174 231 426 231z" />
    <glyph glyph-name="i" unicode="i" horiz-adv-x="450" 
d="M473 1413l-29 -164h-122l28 164h123zM223 0h-123l181 1024h122z" />
    <glyph glyph-name="j" unicode="j" horiz-adv-x="417" 
d="M346 1249l29 164h123l-29 -164h-123zM-62 -297q53 0 101 33q47 33 57 96l211 1192h123l-209 -1188q-43 -236 -317 -235q-25 0 -76 6l18 102q39 -6 92 -6z" />
    <glyph glyph-name="k" unicode="k" horiz-adv-x="1017" 
d="M473 1413l-168 -940l590 551h164l-426 -391l301 -633h-139l-254 547l-262 -238l-56 -309h-123l250 1413h123z" />
    <glyph glyph-name="l" unicode="l" horiz-adv-x="518" 
d="M371 92h18l-16 -98q-33 -4 -66 -4q-207 0 -168 221l211 1202h123l-213 -1204q-12 -73 16 -95t95 -22z" />
    <glyph glyph-name="m" unicode="m" horiz-adv-x="1716" 
d="M1409 1044q97 0 155 -42t73 -110q27 -121 5 -226l-116 -666h-123l113 639q55 303 -150 303q-129 0 -242 -102t-141 -271l-100 -569h-123l112 639q10 77 12 143t-37 113q-40 47 -124 47q-137 0 -246 -110t-137 -269l-100 -563h-123l180 1024h102l-24 -223q160 244 387 243
q129 0 190 -72t60 -177q157 249 397 249z" />
    <glyph glyph-name="n" unicode="n" horiz-adv-x="1155" 
d="M809 1044q283 0 283 -272q0 -43 -13 -119l-114 -653h-123l112 637q10 53 11 108q-1 105 -49 151t-158 46q-158 0 -275 -113t-143 -266l-100 -563h-123l180 1024h102l-24 -225q172 245 434 245z" />
    <glyph glyph-name="o" unicode="o" horiz-adv-x="1196" 
d="M741 1044q193 0 301 -105t109 -310q0 -262 -167 -456t-441 -193q-190 0 -299 105t-109 310q0 261 166 455t440 194zM735 942q-209 0 -341 -164t-132 -383q0 -157 78 -235t209 -78q211 0 343 165t132 380q0 145 -73 230t-216 85z" />
    <glyph glyph-name="p" unicode="p" horiz-adv-x="1167" 
d="M749 942q-161 0 -263 -115t-138 -311q-34 -196 26 -314q60 -120 224 -120t264 118t136 314t-26 312t-223 116zM602 -20q-112 0 -194 54t-117 154l-103 -577h-122l249 1413h105l-19 -186q152 207 385 206q188 0 286 -139t54 -390q-45 -251 -191 -393t-333 -142z" />
    <glyph glyph-name="q" unicode="q" horiz-adv-x="1167" 
d="M693 942q-161 0 -264 -116t-139 -312t23 -314t223 -118t268 121q103 121 138 315q36 194 -26 310q-62 114 -223 114zM688 1044q233 0 316 -206l47 186h104l-250 -1413h-123l103 577q-152 -209 -385 -208q-186 0 -284 142q-97 142 -52 393t190 390t334 139z" />
    <glyph glyph-name="r" unicode="r" horiz-adv-x="724" 
d="M752 932q-170 0 -279 -113t-141 -301l-92 -518h-123l180 1024h98l-20 -231q150 242 409 241q37 0 56 -2l-19 -106q-35 6 -69 6z" />
    <glyph glyph-name="s" unicode="s" horiz-adv-x="1019" 
d="M481 82q129 0 222 57t93 168t-96 140q-50 16 -148 28t-148 26q-133 36 -166 105q-20 43 -21 111q0 151 126 239t301 88t253 -84t78 -206v-21h-123v10q-4 95 -50 147t-164 52t-206 -48t-88 -159q0 -67 39 -100t104 -42q188 -26 226 -33q102 -19 157 -72q54 -53 56 -164
q0 -162 -129 -253t-317 -91t-277 78q-90 78 -90 208q0 23 2 35h123l-2 -29q0 -88 58 -139t187 -51z" />
    <glyph glyph-name="t" unicode="t" horiz-adv-x="673" 
d="M380 -20q-89 0 -140 42t-52 125q0 29 5 54l129 721h-156l16 102h156l49 270l129 41l-55 -311h211l-17 -102h-211l-127 -717q-4 -25 -4 -37q0 -86 121 -86q66 0 115 12l-17 -94q-63 -20 -152 -20z" />
    <glyph glyph-name="u" unicode="u" horiz-adv-x="1146" 
d="M434 -20q-196 0 -245 117t-15 274l115 653h123l-113 -637q-8 -71 -14 -139t40 -117t148 -49q160 0 278 112t146 271l98 559h123l-180 -1024h-102l24 225q-172 -245 -426 -245z" />
    <glyph glyph-name="v" unicode="v" horiz-adv-x="1013" 
d="M1118 1024l-600 -1024h-117l-235 1024h127l188 -907l512 907h125z" />
    <glyph glyph-name="w" unicode="w" horiz-adv-x="1435" 
d="M1540 1024l-498 -1024h-114l-94 893l-420 -893h-115l-133 1024h125l98 -879l404 879h125l100 -879l401 879h121z" />
    <glyph glyph-name="x" unicode="x" horiz-adv-x="942" 
d="M1040 1024l-448 -498l282 -526h-149l-225 442l-387 -442h-138l474 520l-275 504h152l209 -424l368 424h137z" />
    <glyph glyph-name="y" unicode="y" horiz-adv-x="931" 
d="M92 -399h-92l18 102h80q106 0 170 119l119 213l-205 989h131l158 -860l461 860h121l-682 -1235q-105 -188 -279 -188z" />
    <glyph glyph-name="z" unicode="z" horiz-adv-x="976" 
d="M1010 1024l-19 -102l-803 -820h699l-19 -102h-854l19 102l803 820h-637l18 102h793z" />
    <glyph glyph-name="braceleft" unicode="{" horiz-adv-x="671" 
d="M795 1413h16l-18 -102h-17q-80 -1 -126 -55t-70 -197l-54 -303q-16 -96 -41 -142t-79 -82q43 -38 51 -84t-11 -139l-73 -424q-11 -59 21 -95t108 -36h16l-16 -102h-17q-159 0 -205 73t-12 271l64 354q12 66 -23 99t-129 32l19 103q174 0 196 131l64 354q35 199 105 271
t231 73z" />
    <glyph glyph-name="bar" unicode="|" horiz-adv-x="614" 
d="M137 -348l309 1761h123l-309 -1761h-123z" />
    <glyph glyph-name="braceright" unicode="}" horiz-adv-x="671" 
d="M-29 -348h-16l16 102h17q74 0 120 36t56 95l74 424q16 95 41 141t77 82q-41 37 -49 84t10 140l54 303q25 143 -3 197t-108 55h-16l18 102h17q159 0 205 -73t12 -271l-64 -354q-12 -66 23 -99t129 -32l-19 -103q-173 0 -196 -131l-64 -354q-35 -200 -105 -272t-229 -72z
" />
    <glyph glyph-name="asciitilde" unicode="~" horiz-adv-x="1056" 
d="M433 512q-41 0 -65 -18t-29 -34t-9 -44h-103q13 78 65 138t140 60t168 -48t121 -48q78 0 94 96h103q-35 -199 -218 -198q-74 0 -150 48t-117 48z" />
    <glyph glyph-name="exclamdown" unicode="&#xa1;" horiz-adv-x="630" 
d="M145 -389l228 1112h82l-166 -1112h-144zM367 860l28 164h144l-29 -164h-143z" />
    <glyph glyph-name="cent" unicode="&#xa2;" horiz-adv-x="1124" 
d="M702 1147q-144 -1 -263 -105t-157 -329t45 -325t240 -101q270 0 371 260h127q-57 -145 -175 -247t-296 -114l-33 -186h-102l33 186q-195 16 -287 154t-50 376q42 237 183 376t340 155l31 166h102l-31 -166q174 -16 258 -124t74 -253h-127q8 131 -65 204q-74 73 -218 73z
" />
    <glyph glyph-name="sterling" unicode="&#xa3;" 
d="M805 1413q100 1 170 -25q71 -26 103 -64q58 -68 58 -194q-1 -45 -12 -100h-123q29 160 -29 220t-186 61q-254 0 -299 -242l-71 -410h397l-18 -102h-398l-55 -319q-10 -55 -37 -84t-72 -52h482q175 8 233 104q29 48 39 79t21 86h122q-37 -194 -142 -280q-44 -37 -120 -63
t-172 -28h-692l19 102q121 0 156 50t40 86l55 319h-170l19 102h170l72 410q25 131 131 237t309 107z" />
    <glyph glyph-name="currency" unicode="&#xa4;" 
d="M549 -27q-190 0 -318 121l-141 -121l-65 80l139 121q-94 152 -60 342t181 336l-99 119l95 80l98 -119q169 119 361 119t317 -119l141 119l66 -80l-142 -119q92 -147 60 -340q-37 -195 -181 -338l101 -121l-94 -80l-99 121q-170 -121 -360 -121zM571 96q170 0 315 121
q144 121 175 295q29 174 -73 295t-271 121t-313 -121t-176 -295t70 -295t273 -121z" />
    <glyph glyph-name="yen" unicode="&#xa5;" 
d="M1323 1413l-549 -733h295l-18 -102h-353l-34 -197h352l-19 -102h-352l-49 -279h-125l49 279h-360l18 102h361l34 197h-360l18 102h301l-286 733h139l274 -727l529 727h135z" />
    <glyph glyph-name="brokenbar" unicode="&#xa6;" horiz-adv-x="450" 
d="M55 -348l127 725h123l-127 -725h-123zM238 688l127 725h122l-127 -725h-122z" />
    <glyph glyph-name="section" unicode="&#xa7;" horiz-adv-x="1034" 
d="M852 662q15 89 -29 133t-158 61q-40 6 -110 14q-201 -20 -227 -174q-22 -118 105 -158q48 -15 134 -29q86 -15 117 -22q137 38 168 175zM695 1434q194 0 270 -89t67 -223h-123q4 94 -48 152t-180 57q-128 0 -195 -50t-78 -132q-15 -77 28 -116q43 -38 145 -53
q35 -5 101 -13q66 -9 120 -25q211 -64 179 -270q-33 -176 -190 -223q139 -61 106 -246q-15 -91 -69 -155t-129 -92q-129 -48 -263 -48q-223 0 -296 92t-48 229h127q-2 -25 -5 -55q-6 -59 47 -110q53 -52 206 -54q268 0 303 189q20 104 -58 146t-213 64q-136 23 -230 83
t-70 192q12 78 69 144t142 90q-68 20 -106 84t-23 149q20 115 120 199t294 84z" />
    <glyph glyph-name="dieresis" unicode="&#xa8;" horiz-adv-x="1024" 
d="M410 1249l28 164h144l-29 -164h-143zM676 1249l29 164h143l-29 -164h-143z" />
    <glyph glyph-name="copyright" unicode="&#xa9;" horiz-adv-x="1507" 
d="M1135 573q-33 -99 -99 -165q-116 -115 -276 -114t-238 107t-44 300t150 303q116 108 265 108t219 -72t66 -186h-74q4 78 -45 135t-176 57t-216 -92t-118 -254t29 -250t183 -90q126 0 202 62t102 151h70zM706 82q257 0 471 182t260 440t-105 440q-152 183 -408 183
t-471 -183t-260 -440t105 -440q151 -182 408 -182zM684 4q-289 0 -455 210q-165 210 -113 500t297 490t525 201q212 0 368 -119t201 -309q33 -127 9 -272q-53 -301 -298 -501t-534 -200z" />
    <glyph glyph-name="ordfeminine" unicode="&#xaa;" horiz-adv-x="724" 
d="M378 770q81 0 159 57t92 144l14 84l-143 -19q-124 -16 -186 -51t-73 -94t23 -90t114 -31zM535 1423q287 0 235 -293l-78 -438h-90l2 103q-111 -117 -264 -117q-117 0 -174 54t-41 151q35 201 389 239l143 17l7 28q27 164 -146 164q-160 0 -199 -131h-112q27 98 109 161
q84 62 219 62z" />
    <glyph glyph-name="guillemotleft" unicode="&#xab;" horiz-adv-x="1196" 
d="M1157 965l-405 -449l245 -455h-139l-240 455l400 449h139zM748 965l-406 -449l246 -455h-139l-240 455l399 449h140z" />
    <glyph glyph-name="logicalnot" unicode="&#xac;" 
d="M186 596l19 102h954l-92 -524h-123l74 422h-832z" />
    <glyph glyph-name="registered" unicode="&#xae;" horiz-adv-x="1507" 
d="M947 1403q290 0 454 -211t115 -490q-35 -202 -165 -364t-305 -249t-356 -87q-297 0 -462 210q-164 210 -112 500t296 490q244 201 535 201zM706 80q257 0 471 182t260 439t-105 441q-152 184 -408 183q-256 0 -471 -183q-215 -182 -260 -440t105 -440t408 -182zM928 1096
q105 0 162 -48q24 -22 38 -67t7 -87q-39 -235 -267 -235l170 -350h-82l-165 350h-164l-62 -350h-69l139 787h293zM893 725q141 0 168 147q21 116 -65 148q-30 10 -52 10h-252l-53 -305h254z" />
    <glyph glyph-name="macron" unicode="&#xaf;" horiz-adv-x="1024" 
d="M891 1352l-21 -117h-512l21 117h512z" />
    <glyph glyph-name="degree" unicode="&#xb0;" horiz-adv-x="843" 
d="M561 1407q78 0 123 -54t31 -132t-79 -132q-66 -55 -142 -55t-121 56t-31 132q14 77 78 131t141 54zM510 1120q41 0 76 30t43 72t-17 72q-26 30 -66 29q-40 0 -76 -30q-36 -29 -44 -71t18 -72t66 -30z" />
    <glyph glyph-name="plusminus" unicode="&#xb1;" 
d="M684 1120h102l-67 -377h377l-17 -102h-377l-67 -375h-103l68 375h-375l17 102h374zM983 102l-18 -102h-854l18 102h854z" />
    <glyph glyph-name="twosuperior" unicode="&#xb2;" horiz-adv-x="694" 
d="M511 1516q120 0 182 -65t43 -172t-128 -217t-379 -296h428l-14 -86h-559l16 94q309 213 411 313q101 101 115 179q30 163 -130 164q-150 0 -195 -170h-106q31 128 113 192t203 64z" />
    <glyph glyph-name="threesuperior" unicode="&#xb3;" horiz-adv-x="657" 
d="M203 899q-11 -141 159 -141q82 0 138 46q55 46 67 120q33 172 -151 172h-86l16 86l246 227h-350l16 86h473l-16 -86l-260 -227q121 0 182 -65t41 -179t-110 -190t-218 -76q-130 0 -196 58t-56 169h105z" />
    <glyph glyph-name="acute" unicode="&#xb4;" horiz-adv-x="888" 
d="M573 1413h164l-256 -266h-106z" />
    <glyph glyph-name="mu" unicode="&#xb5;" horiz-adv-x="1146" 
d="M507 82q144 0 260 108t144 265l101 569h123l-181 -1024h-102l20 205q-168 -225 -413 -225q-137 0 -201 77l-80 -446h-123l250 1413h123l-113 -637q-29 -165 9 -235t183 -70z" />
    <glyph glyph-name="paragraph" unicode="&#xb6;" horiz-adv-x="1388" 
d="M711 1407h553l-289 -1638h-123l272 1536h-307l-272 -1536h-123l156 880q-158 -1 -250 111t-64 268q27 156 158 268t289 111z" />
    <glyph glyph-name="periodcentered" unicode="&#xb7;" horiz-adv-x="389" 
d="M141 410l29 163h164l-29 -163h-164z" />
    <glyph glyph-name="cedilla" unicode="&#xb8;" horiz-adv-x="1024" 
d="M450 -410q-88 0 -159 41l18 107q57 -47 141 -47t93 51q6 37 -20 51q-25 14 -61 14t-89 -4l125 197h80l-64 -98q86 0 121 -44t23 -113t-66 -112t-142 -43z" />
    <glyph glyph-name="onesuperior" unicode="&#xb9;" horiz-adv-x="448" 
d="M246 1386q109 0 125 109h102l-143 -811h-103l111 616h-162l14 86h56z" />
    <glyph glyph-name="ordmasculine" unicode="&#xba;" horiz-adv-x="786" 
d="M574 1421q163 0 240 -97t45 -275t-142 -276q-111 -97 -274 -97t-241 98t-48 274q31 176 144 275q113 98 276 98zM556 1327q-110 0 -186 -72q-76 -73 -101 -207t27 -206t163 -72t187 72t99 207t-28 207t-161 71z" />
    <glyph glyph-name="guillemotright" unicode="&#xbb;" horiz-adv-x="1196" 
d="M944 516l-246 449h140l239 -449l-399 -455h-139zM535 516l-246 449h139l240 -449l-400 -455h-139z" />
    <glyph glyph-name="onequarter" unicode="&#xbc;" horiz-adv-x="1343" 
d="M1163 1458l70 -45l-1096 -1456l-69 43zM211 1386q109 0 125 109h102l-143 -811h-102l110 616h-162l15 86h55zM1124 299l64 358l-357 -358h293zM1174 0h-103l37 213h-412l17 86l501 512h103l-90 -512h108l-16 -86h-109z" />
    <glyph glyph-name="onehalf" unicode="&#xbd;" horiz-adv-x="1370" 
d="M1126 1458l70 -45l-1096 -1456l-69 43zM1066 836q120 0 182 -65t43 -172t-128 -217t-379 -296h428l-14 -86h-559l16 94q309 214 411 314t116 178q30 164 -131 164q-150 0 -195 -170h-106q32 128 114 192t202 64zM246 1386q109 0 125 109h102l-143 -811h-103l111 616h-162
l14 86h56z" />
    <glyph glyph-name="threequarters" unicode="&#xbe;" horiz-adv-x="1513" 
d="M1386 1458l70 -45l-1096 -1456l-69 43zM270 899q-12 -141 159 -141q83 0 138 46t68 120q33 172 -152 172h-86l17 86l245 227h-350l17 86h473l-17 -86l-260 -227q120 0 182 -65t42 -179t-110 -190q-89 -76 -219 -76t-196 58t-55 169h104zM1294 299l64 358l-357 -358h293z
M1343 0h-102l37 213h-412l17 86l501 512h103l-90 -512h108l-16 -86h-109z" />
    <glyph glyph-name="questiondown" unicode="&#xbf;" horiz-adv-x="1116" 
d="M778 1024l-28 -164h-144l29 164h143zM436 -410q-200 0 -290 96t-62 257q29 160 211 299q113 86 160 135t80 126t59 220h123q-37 -211 -88 -301t-155 -172t-140 -115q-37 -33 -76 -89t-49 -116q-16 -96 35 -167q50 -71 204 -71t240 91q86 90 107 199h127
q-27 -152 -156 -272q-130 -120 -330 -120z" />
    <glyph glyph-name="Agrave" unicode="&#xc0;" horiz-adv-x="1290" 
d="M643 1823h164l104 -267h-106zM815 1303l-471 -871h633zM909 1413l277 -1413h-127l-64 330h-708l-183 -330h-124l776 1413h153z" />
    <glyph glyph-name="Aacute" unicode="&#xc1;" horiz-adv-x="1290" 
d="M895 1823h164l-256 -267h-107zM815 1303l-471 -871h633zM909 1413l277 -1413h-127l-64 330h-708l-183 -330h-124l776 1413h153z" />
    <glyph glyph-name="Acircumflex" unicode="&#xc2;" horiz-adv-x="1290" 
d="M897 1823l160 -267h-99l-135 187l-200 -187h-99l254 267h119zM815 1303l-471 -871h633zM909 1413l277 -1413h-127l-64 330h-708l-183 -330h-124l776 1413h153z" />
    <glyph glyph-name="Atilde" unicode="&#xc3;" horiz-adv-x="1290" 
d="M795 1668q-51 62 -112 62q-61 1 -84 -36q-11 -20 -12 -24t-7 -25h-103q9 51 38 94q56 82 185 84q86 -1 137 -63t116 -62t84 43l11 22t7 21h102q-8 -46 -39 -92q-58 -86 -165 -86t-158 62zM815 1303l-471 -871h633zM909 1413l277 -1413h-127l-64 330h-708l-183 -330h-124
l776 1413h153z" />
    <glyph glyph-name="Adieresis" unicode="&#xc4;" horiz-adv-x="1290" 
d="M600 1659l29 164h143l-29 -164h-143zM866 1659l29 164h143l-28 -164h-144zM815 1303l-471 -871h633zM909 1413l277 -1413h-127l-64 330h-708l-183 -330h-124l776 1413h153z" />
    <glyph glyph-name="Aring" unicode="&#xc5;" horiz-adv-x="1290" 
d="M846 1868q70 0 110 -49t27 -119q-11 -70 -69 -119t-128 -49t-110 49t-29 119q13 70 71 119t128 49zM799 1610q37 0 69 26t37 65q7 39 -15 65t-59 26t-69 -27t-39 -65q-6 -38 16 -64q23 -26 60 -26zM815 1303l-471 -871h633zM909 1413l277 -1413h-127l-64 330h-708
l-183 -330h-124l776 1413h153z" />
    <glyph glyph-name="AE" unicode="&#xc6;" horiz-adv-x="2002" 
d="M1184 1237l-695 -805h551zM2087 1413l-19 -102h-749l-94 -531h628l-18 -102h-629l-100 -576h749l-18 -102h-872l57 330h-623l-286 -330h-133l1234 1413h873z" />
    <glyph glyph-name="Ccedilla" unicode="&#xc7;" horiz-adv-x="1441" 
d="M958 1434q274 0 400 -128q127 -128 115 -333h-125q8 176 -96 267t-302 91q-240 0 -406 -165q-166 -166 -215 -458t67 -459t360 -167q389 0 518 395h125q-70 -219 -229 -354t-406 -143l-51 -78q86 0 121 -44q36 -44 24 -112t-66 -112t-142 -44t-161 41l19 107
q57 -47 141 -47t92 51q6 37 -19 51q-26 14 -63 14t-86 -4l113 179q-266 18 -404 208t-79 526t270 528q211 190 485 190z" />
    <glyph glyph-name="Egrave" unicode="&#xc8;" horiz-adv-x="1179" 
d="M590 1823h164l104 -267h-106zM1264 1413l-19 -102h-747l-95 -531h627l-18 -102h-627l-102 -576h749l-18 -102h-873l250 1413h873z" />
    <glyph glyph-name="Eacute" unicode="&#xc9;" horiz-adv-x="1179" 
d="M913 1823h164l-256 -267h-106zM1264 1413l-19 -102h-747l-95 -531h627l-18 -102h-627l-102 -576h749l-18 -102h-873l250 1413h873z" />
    <glyph glyph-name="Ecircumflex" unicode="&#xca;" horiz-adv-x="1179" 
d="M913 1823l160 -267h-98l-135 187l-201 -187h-98l254 267h118zM1264 1413l-19 -102h-747l-95 -531h627l-18 -102h-627l-102 -576h749l-18 -102h-873l250 1413h873z" />
    <glyph glyph-name="Edieresis" unicode="&#xcb;" horiz-adv-x="1179" 
d="M635 1659l29 164h143l-29 -164h-143zM901 1659l29 164h143l-29 -164h-143zM1264 1413l-19 -102h-747l-95 -531h627l-18 -102h-627l-102 -576h749l-18 -102h-873l250 1413h873z" />
    <glyph glyph-name="Igrave" unicode="&#xcc;" horiz-adv-x="593" 
d="M199 1823h163l105 -267h-107zM264 0h-123l250 1413h123z" />
    <glyph glyph-name="Iacute" unicode="&#xcd;" horiz-adv-x="593" 
d="M561 1823h164l-256 -267h-107zM264 0h-123l250 1413h123z" />
    <glyph glyph-name="Icircumflex" unicode="&#xce;" horiz-adv-x="593" 
d="M565 1823l160 -267h-98l-135 187l-201 -187h-98l253 267h119zM264 0h-123l250 1413h123z" />
    <glyph glyph-name="Idieresis" unicode="&#xcf;" horiz-adv-x="593" 
d="M270 1659l29 164h143l-28 -164h-144zM537 1659l28 164h144l-29 -164h-143zM264 0h-123l250 1413h123z" />
    <glyph glyph-name="Eth" unicode="&#xd0;" horiz-adv-x="1357" 
d="M553 102q274 0 428 146t209 460q55 312 -46 457t-376 146h-285l-96 -541h297l-16 -102h-297l-101 -566h283zM807 1413q357 0 474 -234q88 -170 36 -472q-33 -183 -104 -319t-149 -209t-180 -115q-101 -42 -175 -52q-74 -12 -154 -12h-426l119 668h-152l17 102h151
l115 643h428z" />
    <glyph glyph-name="Ntilde" unicode="&#xd1;" horiz-adv-x="1511" 
d="M1092 1606q-68 0 -134 62q-95 89 -165 54q-17 -8 -29 -28t-13 -24t-8 -25h-102q9 51 38 94q56 82 185 84q88 -1 138 -63q49 -63 114 -62q65 0 85 43q11 22 14 31q3 10 4 12h102q-8 -46 -39 -92t-77 -66q-45 -20 -113 -20zM1493 1413l-250 -1413h-141l-613 1268
l-225 -1268h-123l250 1413h164l596 -1235l219 1235h123z" />
    <glyph glyph-name="Ograve" unicode="&#xd2;" horiz-adv-x="1548" 
d="M817 1823h164l104 -267h-106zM1503 877q0 -164 -53 -322q-54 -158 -152 -288t-254 -209t-344 -78q-250 0 -392 140t-142 417q0 167 53 325t151 287t252 207q155 78 343 78q254 0 396 -142t142 -415zM1376 886q0 214 -109 330q-109 115 -311 115t-358 -121t-230 -298
q-74 -178 -75 -388q0 -210 105 -326q106 -116 310 -116t360 118t232 295t76 391z" />
    <glyph glyph-name="Oacute" unicode="&#xd3;" horiz-adv-x="1548" 
d="M1030 1823h164l-256 -267h-107zM1503 877q0 -164 -53 -322q-54 -158 -152 -288t-254 -209t-344 -78q-250 0 -392 140t-142 417q0 167 53 325t151 287t252 207q155 78 343 78q254 0 396 -142t142 -415zM1376 886q0 214 -109 330q-109 115 -311 115t-358 -121t-230 -298
q-74 -178 -75 -388q0 -210 105 -326q106 -116 310 -116t360 118t232 295t76 391z" />
    <glyph glyph-name="Ocircumflex" unicode="&#xd4;" horiz-adv-x="1548" 
d="M1032 1823l160 -267h-98l-136 187l-200 -187h-99l254 267h119zM1503 877q0 -164 -53 -322q-54 -158 -152 -288t-254 -209t-344 -78q-250 0 -392 140t-142 417q0 167 53 325t151 287t252 207q155 78 343 78q254 0 396 -142t142 -415zM1376 886q0 214 -109 330
q-109 115 -311 115t-358 -121t-230 -298q-74 -178 -75 -388q0 -210 105 -326q106 -116 310 -116t360 118t232 295t76 391z" />
    <glyph glyph-name="Otilde" unicode="&#xd5;" horiz-adv-x="1548" 
d="M846 1823q88 -1 138 -63q49 -62 112 -62t84 38q20 38 20 48h103q-4 -23 -15 -46q-55 -132 -202 -132q-94 0 -146 62q-51 62 -112 62q-61 1 -84 -36q-11 -20 -12 -24t-7 -25h-102q9 51 38 94q57 82 185 84zM1503 877q0 -164 -53 -322q-54 -158 -152 -288t-254 -209
t-344 -78q-250 0 -392 140t-142 417q0 167 53 325t151 287t252 207q155 78 343 78q254 0 396 -142t142 -415zM1376 886q0 214 -109 330q-109 115 -311 115t-358 -121t-230 -298q-74 -178 -75 -388q0 -210 105 -326q106 -116 310 -116t360 118t232 295t76 391z" />
    <glyph glyph-name="Odieresis" unicode="&#xd6;" horiz-adv-x="1548" 
d="M743 1659l29 164h143l-28 -164h-144zM1010 1659l28 164h144l-29 -164h-143zM1503 877q0 -164 -53 -322q-54 -158 -152 -288t-254 -209t-344 -78q-250 0 -392 140t-142 417q0 167 53 325t151 287t252 207q155 78 343 78q254 0 396 -142t142 -415zM1376 886q0 214 -109 330
q-109 115 -311 115t-358 -121t-230 -298q-74 -178 -75 -388q0 -210 105 -326q106 -116 310 -116t360 118t232 295t76 391z" />
    <glyph glyph-name="multiply" unicode="&#xd7;" 
d="M328 807l84 72l243 -295l349 295l59 -72l-346 -295l239 -295l-84 -72l-243 293l-344 -293l-60 72l346 295z" />
    <glyph glyph-name="Oslash" unicode="&#xd8;" horiz-adv-x="1548" 
d="M725 82q258 0 420 162t213 454q53 293 -45 457l-877 -989q109 -84 289 -84zM946 1331q-254 0 -419 -169t-217 -463t59 -459l876 995q-104 96 -299 96zM707 -20q-213 0 -349 98l-125 -141l-79 63l133 147q-166 199 -105 549q62 350 276 544t507 194q215 0 360 -113
l135 154l80 -62l-143 -162q151 -197 89 -548t-274 -537t-505 -186z" />
    <glyph glyph-name="Ugrave" unicode="&#xd9;" horiz-adv-x="1404" 
d="M702 1823h164l105 -267h-107zM657 -20q-245 0 -350 99q-104 99 -104 269q0 49 10 115l168 950h123l-170 -971q-8 -41 -8 -88q0 -128 83 -200t259 -72t291 94q114 94 145 266l170 971h123l-168 -950q-37 -215 -182 -349t-390 -134z" />
    <glyph glyph-name="Uacute" unicode="&#xda;" horiz-adv-x="1404" 
d="M958 1823h164l-256 -267h-106zM657 -20q-245 0 -350 99q-104 99 -104 269q0 49 10 115l168 950h123l-170 -971q-8 -41 -8 -88q0 -128 83 -200t259 -72t291 94q114 94 145 266l170 971h123l-168 -950q-37 -215 -182 -349t-390 -134z" />
    <glyph glyph-name="Ucircumflex" unicode="&#xdb;" horiz-adv-x="1404" 
d="M963 1823l159 -267h-98l-135 187l-201 -187h-98l254 267h119zM657 -20q-245 0 -350 99q-104 99 -104 269q0 49 10 115l168 950h123l-170 -971q-8 -41 -8 -88q0 -128 83 -200t259 -72t291 94q114 94 145 266l170 971h123l-168 -950q-37 -215 -182 -349t-390 -134z" />
    <glyph glyph-name="Udieresis" unicode="&#xdc;" horiz-adv-x="1404" 
d="M670 1659l28 164h144l-29 -164h-143zM936 1659l29 164h143l-29 -164h-143zM657 -20q-245 0 -350 99q-104 99 -104 269q0 49 10 115l168 950h123l-170 -971q-8 -41 -8 -88q0 -128 83 -200t259 -72t291 94q114 94 145 266l170 971h123l-168 -950q-37 -215 -182 -349
t-390 -134z" />
    <glyph glyph-name="Yacute" unicode="&#xdd;" horiz-adv-x="1161" 
d="M809 1823h164l-256 -267h-107zM455 0l104 594l-332 819h131l279 -719l530 719h140l-625 -819l-104 -594h-123z" />
    <glyph glyph-name="Thorn" unicode="&#xde;" horiz-adv-x="1257" 
d="M750 438q270 0 319 264q43 266 -227 267h-408l-92 -531h408zM874 1071q160 0 256 -92q96 -91 64 -275t-160 -276q-129 -92 -289 -92h-421l-60 -336h-123l250 1413h123l-61 -342h421z" />
    <glyph glyph-name="germandbls" unicode="&#xdf;" horiz-adv-x="1165" 
d="M578 102q96 0 205 46q65 28 121 107t64 240q2 68 -16 112q-18 43 -38 60t-37 30q-16 13 -44 21q-27 8 -45 12q-32 9 -92 9h-43l19 103q179 0 240 93q30 46 40 77q49 153 -22 246q-55 73 -158 73t-170 -31q-130 -60 -153 -210l-193 -1090h-123l193 1090q20 114 118 222
q52 54 138 88t193 34t182 -36t103 -88q66 -122 38 -216q-41 -227 -191 -297q11 1 41 -9t50 -26q67 -57 81 -114q32 -134 6 -245q-35 -201 -175 -303t-351 -100h-199l19 102h199z" />
    <glyph glyph-name="agrave" unicode="&#xe0;" horiz-adv-x="1064" 
d="M547 1413h164l104 -266h-106zM489 82q117 0 203 53q150 92 205 315q23 91 23 181q0 145 -62 228t-195 83q-131 0 -231 -94q-186 -175 -186 -481q0 -152 63 -219q64 -66 180 -66zM117 358q0 376 249 581q126 105 285 105q115 0 197 -54t117 -154l55 188h102l-180 -1024
h-104l18 186q-156 -207 -387 -206q-160 0 -256 101t-96 277z" />
    <glyph glyph-name="aacute" unicode="&#xe1;" horiz-adv-x="1064" 
d="M815 1413h164l-256 -266h-107zM489 82q117 0 203 53q150 92 205 315q23 91 23 181q0 145 -62 228t-195 83q-131 0 -231 -94q-186 -175 -186 -481q0 -152 63 -219q64 -66 180 -66zM117 358q0 376 249 581q126 105 285 105q115 0 197 -54t117 -154l55 188h102l-180 -1024
h-104l18 186q-156 -207 -387 -206q-160 0 -256 101t-96 277z" />
    <glyph glyph-name="acircumflex" unicode="&#xe2;" horiz-adv-x="1064" 
d="M838 1413l159 -266h-98l-135 186l-201 -186h-98l254 266h119zM489 82q117 0 203 53q150 92 205 315q23 91 23 181q0 145 -62 228t-195 83q-131 0 -231 -94q-186 -175 -186 -481q0 -152 63 -219q64 -66 180 -66zM117 358q0 376 249 581q126 105 285 105q115 0 197 -54
t117 -154l55 188h102l-180 -1024h-104l18 186q-156 -207 -387 -206q-160 0 -256 101t-96 277z" />
    <glyph glyph-name="atilde" unicode="&#xe3;" horiz-adv-x="1064" 
d="M616 1413q87 0 137 -62t114 -62q64 -1 86 42l11 22t7 21h102q-4 -23 -14 -46q-55 -132 -202 -132q-94 0 -146 62q-52 63 -114 63q-61 0 -82 -37q-11 -20 -12 -24t-7 -25h-103q8 48 38 93q57 85 185 85zM489 82q117 0 203 53q150 92 205 315q23 91 23 181q0 145 -62 228
t-195 83q-131 0 -231 -94q-186 -175 -186 -481q0 -152 63 -219q64 -66 180 -66zM117 358q0 376 249 581q126 105 285 105q115 0 197 -54t117 -154l55 188h102l-180 -1024h-104l18 186q-156 -207 -387 -206q-160 0 -256 101t-96 277z" />
    <glyph glyph-name="adieresis" unicode="&#xe4;" horiz-adv-x="1064" 
d="M541 1249l28 164h144l-29 -164h-143zM807 1249l29 164h143l-29 -164h-143zM489 82q117 0 203 53q150 92 205 315q23 91 23 181q0 145 -62 228t-195 83q-131 0 -231 -94q-186 -175 -186 -481q0 -152 63 -219q64 -66 180 -66zM117 358q0 376 249 581q126 105 285 105
q115 0 197 -54t117 -154l55 188h102l-180 -1024h-104l18 186q-156 -207 -387 -206q-160 0 -256 101t-96 277z" />
    <glyph glyph-name="aring" unicode="&#xe5;" horiz-adv-x="1064" 
d="M764 1458q70 0 110 -49t27 -119q-11 -70 -69 -119t-128 -49t-110 49q-41 49 -29 119q13 70 71 119t128 49zM717 1200q37 0 69 27t37 65q6 38 -15 64q-22 26 -58 26t-70 -26q-33 -26 -39 -65q-5 -39 17 -65t59 -26zM489 82q117 0 203 53q150 92 205 315q23 91 23 181
q0 145 -62 228t-195 83q-131 0 -231 -94q-186 -175 -186 -481q0 -152 63 -219q64 -66 180 -66zM117 358q0 376 249 581q126 105 285 105q115 0 197 -54t117 -154l55 188h102l-180 -1024h-104l18 186q-156 -207 -387 -206q-160 0 -256 101t-96 277z" />
    <glyph glyph-name="ae" unicode="&#xe6;" horiz-adv-x="1869" 
d="M1425 942q-159 0 -267 -99t-150 -261h688q12 92 -3 168t-83 134t-185 58zM440 82q152 0 267 98t139 230l22 127l-231 -27q-349 -40 -383 -228q-18 -96 30 -148t156 -52zM424 -20q-166 0 -244 80t-55 214q51 283 530 338l230 27l8 37q47 266 -219 266q-242 0 -307 -209
h-125q49 145 161 229q113 83 285 82q272 0 318 -223q76 103 190 163t252 60q215 0 312 -139t57 -368l-11 -58h-819q-25 -185 51 -291t236 -106q117 0 216 54t142 165h129q-61 -162 -200 -242q-139 -79 -296 -79t-255 70t-131 194q-170 -264 -455 -264z" />
    <glyph glyph-name="ccedilla" unicode="&#xe7;" horiz-adv-x="1134" 
d="M710 942q-144 0 -263 -104t-157 -330t45 -326t240 -100q274 0 371 260h127q-57 -150 -179 -251t-306 -109l-51 -80q85 0 121 -44t24 -113t-66 -112t-142 -43q-89 0 -161 41l19 107q61 -47 142 -47t93 51q6 37 -20 51q-27 14 -64 14t-86 -4l111 179q-199 14 -293 151
t-50 384t201 387q158 140 366 140t305 -111t83 -267h-127q9 132 -65 204t-218 72z" />
    <glyph glyph-name="egrave" unicode="&#xe8;" horiz-adv-x="1148" 
d="M530 1413h164l105 -266h-107zM983 662q1 120 -59 200t-210 80t-266 -100q-114 -100 -161 -260h690q6 37 6 80zM542 -20q-191 0 -300 101t-109 302q0 264 162 463t432 198q183 0 281 -103t98 -286q0 -66 -21 -176h-821q-8 -70 -8 -102q0 -141 73 -218t206 -77t233 62
t143 157h129q-49 -131 -178 -226t-320 -95z" />
    <glyph glyph-name="eacute" unicode="&#xe9;" horiz-adv-x="1148" 
d="M754 1413h164l-256 -266h-107zM983 662q1 120 -59 200t-210 80t-266 -100q-114 -100 -161 -260h690q6 37 6 80zM542 -20q-191 0 -300 101t-109 302q0 264 162 463t432 198q183 0 281 -103t98 -286q0 -66 -21 -176h-821q-8 -70 -8 -102q0 -141 73 -218t206 -77t233 62
t143 157h129q-49 -131 -178 -226t-320 -95z" />
    <glyph glyph-name="ecircumflex" unicode="&#xea;" horiz-adv-x="1148" 
d="M770 1413l160 -266h-99l-135 186l-200 -186h-99l254 266h119zM983 662q1 120 -59 200t-210 80t-266 -100q-114 -100 -161 -260h690q6 37 6 80zM542 -20q-191 0 -300 101t-109 302q0 264 162 463t432 198q183 0 281 -103t98 -286q0 -66 -21 -176h-821q-8 -70 -8 -102
q0 -141 73 -218t206 -77t233 62t143 157h129q-49 -131 -178 -226t-320 -95z" />
    <glyph glyph-name="edieresis" unicode="&#xeb;" horiz-adv-x="1148" 
d="M475 1249l29 164h143l-29 -164h-143zM741 1249l29 164h143l-28 -164h-144zM983 662q1 120 -59 200t-210 80t-266 -100q-114 -100 -161 -260h690q6 37 6 80zM542 -20q-191 0 -300 101t-109 302q0 264 162 463t432 198q183 0 281 -103t98 -286q0 -66 -21 -176h-821
q-8 -70 -8 -102q0 -141 73 -218t206 -77t233 62t143 157h129q-49 -131 -178 -226t-320 -95z" />
    <glyph glyph-name="igrave" unicode="&#xec;" horiz-adv-x="450" 
d="M61 1413h164l105 -266h-107zM240 0h-123l182 1024h123z" />
    <glyph glyph-name="iacute" unicode="&#xed;" horiz-adv-x="450" 
d="M385 1413h164l-256 -266h-107zM240 0h-123l182 1024h123z" />
    <glyph glyph-name="icircumflex" unicode="&#xee;" horiz-adv-x="450" 
d="M375 1413l160 -266h-99l-135 186l-201 -186h-98l254 266h119zM240 0h-123l182 1024h123z" />
    <glyph glyph-name="idieresis" unicode="&#xef;" horiz-adv-x="450" 
d="M78 1249l28 164h144l-29 -164h-143zM344 1249l29 164h143l-29 -164h-143zM240 0h-123l182 1024h123z" />
    <glyph glyph-name="eth" unicode="&#xf0;" horiz-adv-x="1202" 
d="M528 76q137 0 241 76q103 76 157 186t78 254l8 39q-21 223 -177 292q-65 27 -145 27q-367 0 -442 -432q-78 -442 280 -442zM510 -27q-224 -1 -330 141t-60 400t203 397t377 140q113 1 212 -49t135 -171q16 147 -56 301t-233 232l-127 -197l-99 50l121 188q-86 25 -196 25
l30 100q100 0 224 -37l104 164l98 -49l-98 -154q133 -63 230 -178t120 -338q19 -179 -64 -457q-67 -225 -197 -355q-67 -67 -168 -110t-226 -43z" />
    <glyph glyph-name="ntilde" unicode="&#xf1;" horiz-adv-x="1155" 
d="M836 1196q-94 0 -146 62t-114 63q-62 0 -81 -37q-12 -23 -20 -49h-102q9 51 38 94q58 84 185 84q89 0 138 -62t118 -63q36 0 59 18t31 42t8 26h103q-4 -23 -15 -46q-55 -132 -202 -132zM809 1044q283 0 283 -272q0 -43 -13 -119l-114 -653h-123l112 637q10 53 11 108
q-1 105 -49 151t-158 46q-158 0 -275 -113t-143 -266l-100 -563h-123l180 1024h102l-24 -225q172 245 434 245z" />
    <glyph glyph-name="ograve" unicode="&#xf2;" horiz-adv-x="1196" 
d="M555 1413h164l104 -266h-106zM741 1044q193 0 301 -105t109 -310q0 -262 -167 -456t-441 -193q-190 0 -299 105t-109 310q0 261 166 455t440 194zM735 942q-209 0 -341 -164t-132 -383q0 -157 78 -235t209 -78q211 0 343 165t132 380q0 145 -73 230t-216 85z" />
    <glyph glyph-name="oacute" unicode="&#xf3;" horiz-adv-x="1196" 
d="M766 1413h164l-256 -266h-107zM741 1044q193 0 301 -105t109 -310q0 -262 -167 -456t-441 -193q-190 0 -299 105t-109 310q0 261 166 455t440 194zM735 942q-209 0 -341 -164t-132 -383q0 -157 78 -235t209 -78q211 0 343 165t132 380q0 145 -73 230t-216 85z" />
    <glyph glyph-name="ocircumflex" unicode="&#xf4;" horiz-adv-x="1196" 
d="M784 1413l160 -266h-98l-135 186l-201 -186h-98l254 266h118zM741 1044q193 0 301 -105t109 -310q0 -262 -167 -456t-441 -193q-190 0 -299 105t-109 310q0 261 166 455t440 194zM735 942q-209 0 -341 -164t-132 -383q0 -157 78 -235t209 -78q211 0 343 165t132 380
q0 145 -73 230t-216 85z" />
    <glyph glyph-name="otilde" unicode="&#xf5;" horiz-adv-x="1196" 
d="M594 1413q89 0 138 -62t118 -63q36 0 59 18t31 42t8 26h103q-8 -44 -53 -111q-46 -67 -178 -67q-68 0 -132 62q-92 87 -166 55q-31 -14 -49 -78h-102q9 51 38 94q58 84 185 84zM741 1044q193 0 301 -105t109 -310q0 -262 -167 -456t-441 -193q-190 0 -299 105t-109 310
q0 261 166 455t440 194zM735 942q-209 0 -341 -164t-132 -383q0 -157 78 -235t209 -78q211 0 343 165t132 380q0 145 -73 230t-216 85z" />
    <glyph glyph-name="odieresis" unicode="&#xf6;" horiz-adv-x="1196" 
d="M492 1249l28 164h144l-29 -164h-143zM758 1249l28 164h144l-29 -164h-143zM741 1044q193 0 301 -105t109 -310q0 -262 -167 -456t-441 -193q-190 0 -299 105t-109 310q0 261 166 455t440 194zM735 942q-209 0 -341 -164t-132 -383q0 -157 78 -235t209 -78q211 0 343 165
t132 380q0 145 -73 230t-216 85z" />
    <glyph glyph-name="divide" unicode="&#xf7;" 
d="M1092 563l-19 -102h-880l18 102h881zM508 133l29 164h143l-29 -164h-143zM612 727l29 164h143l-28 -164h-144z" />
    <glyph glyph-name="oslash" unicode="&#xf8;" horiz-adv-x="1196" 
d="M719 942q-176 0 -293 -115t-152 -307t25 -301l602 676q-76 47 -182 47zM567 82q176 0 293 114t151 312q34 197 -36 311l-606 -682q74 -55 198 -55zM735 1044q147 0 244 -59l94 105l84 -66l-96 -106q123 -138 78 -398t-204 -400t-386 -140q-160 0 -260 67l-101 -113
l-84 66l107 119q-109 141 -64 393q43 252 202 392t386 140z" />
    <glyph glyph-name="ugrave" unicode="&#xf9;" horiz-adv-x="1146" 
d="M481 1413h164l105 -266h-107zM434 -20q-196 0 -245 117t-15 274l115 653h123l-113 -637q-8 -71 -14 -139t40 -117t148 -49q160 0 278 112t146 271l98 559h123l-180 -1024h-102l24 225q-172 -245 -426 -245z" />
    <glyph glyph-name="uacute" unicode="&#xfa;" horiz-adv-x="1146" 
d="M760 1413h164l-256 -266h-107zM434 -20q-196 0 -245 117t-15 274l115 653h123l-113 -637q-8 -71 -14 -139t40 -117t148 -49q160 0 278 112t146 271l98 559h123l-180 -1024h-102l24 225q-172 -245 -426 -245z" />
    <glyph glyph-name="ucircumflex" unicode="&#xfb;" horiz-adv-x="1146" 
d="M752 1413l159 -266h-98l-135 186l-201 -186h-98l254 266h119zM434 -20q-196 0 -245 117t-15 274l115 653h123l-113 -637q-8 -71 -14 -139t40 -117t148 -49q160 0 278 112t146 271l98 559h123l-180 -1024h-102l24 225q-172 -245 -426 -245z" />
    <glyph glyph-name="udieresis" unicode="&#xfc;" horiz-adv-x="1146" 
d="M459 1249l28 164h144l-29 -164h-143zM725 1249l29 164h143l-29 -164h-143zM434 -20q-196 0 -245 117t-15 274l115 653h123l-113 -637q-8 -71 -14 -139t40 -117t148 -49q160 0 278 112t146 271l98 559h123l-180 -1024h-102l24 225q-172 -245 -426 -245z" />
    <glyph glyph-name="yacute" unicode="&#xfd;" horiz-adv-x="931" 
d="M637 1413h164l-256 -266h-107zM92 -399h-92l18 102h80q106 0 170 119l119 213l-205 989h131l158 -860l461 860h121l-682 -1235q-105 -188 -279 -188z" />
    <glyph glyph-name="thorn" unicode="&#xfe;" horiz-adv-x="1167" 
d="M579 82q163 0 266 117t138 313t-25 314q-60 116 -226 116q-165 0 -265 -119t-136 -314q-35 -195 25 -311t223 -116zM584 -20q-123 0 -201 58t-109 148l-102 -575h-123l318 1802h122l-102 -577q150 209 385 208q186 0 284 -142t52 -393q-45 -251 -190 -390t-334 -139z" />
    <glyph glyph-name="ydieresis" unicode="&#xff;" horiz-adv-x="931" 
d="M377 1249l29 164h143l-29 -164h-143zM643 1249l29 164h143l-29 -164h-143zM92 -399h-92l18 102h80q106 0 170 119l119 213l-205 989h131l158 -860l461 860h121l-682 -1235q-105 -188 -279 -188z" />
    <glyph glyph-name="dotlessi" unicode="&#x131;" horiz-adv-x="368" 
d="M199 0h-123l182 1024h123z" />
    <glyph glyph-name="Lslash" unicode="&#x141;" horiz-adv-x="1101" 
d="M283 102h712l-18 -102h-836l103 575l-195 -108l25 135l192 109l125 702h123l-111 -625l488 275l-25 -137l-487 -275z" />
    <glyph glyph-name="lslash" unicode="&#x142;" horiz-adv-x="557" 
d="M334 -14q-96 0 -154 65q-57 66 -39 176l72 412l-180 -94l20 117l183 96l114 655h121l-104 -588l211 111l-21 -119l-211 -110l-84 -480q-10 -59 26 -96t97 -37l45 2l-18 -104q-43 -6 -78 -6z" />
    <glyph glyph-name="OE" unicode="&#x152;" horiz-adv-x="2279" 
d="M940 1331q-248 0 -413 -168q-165 -167 -217 -463t56 -457t364 -161t417 164q162 164 214 466q51 302 -61 460t-360 159zM965 1434q174 0 301 -76t178 -211l47 266h872l-18 -102h-750l-94 -531h629l-19 -102h-628l-101 -576h750l-18 -102h-873l45 260q-211 -281 -579 -280
q-295 0 -440 188q-144 188 -84 534q61 346 275 540q214 192 507 192z" />
    <glyph glyph-name="oe" unicode="&#x153;" horiz-adv-x="2013" 
d="M1574 942q-162 0 -270 -97t-153 -263h688q20 150 -42 255t-223 105zM718 942q-175 0 -292 -115t-152 -315t41 -316q76 -114 252 -114t293 115t152 315t-42 316q-77 114 -252 114zM731 1044q160 0 260 -72t127 -208q72 133 195 207t278 73q215 0 311 -139t58 -368l-10 -58
h-817q-31 -201 53 -299t233 -98q111 0 213 53t144 166h129q-61 -160 -199 -241q-138 -82 -301 -80q-162 2 -257 78t-120 202q-164 -281 -479 -280q-227 0 -337 140t-65 392q43 252 202 392t382 140z" />
    <glyph glyph-name="Scaron" unicode="&#x160;" horiz-adv-x="1296" 
d="M813 1577l-119 266h99l94 -186l160 186h98l-213 -266h-119zM844 1434q236 0 326 -106t79 -271h-127q10 139 -57 207q-68 68 -234 68t-285 -68q-62 -36 -102 -98t-38 -126q1 -103 54 -148q53 -44 125 -64q73 -19 143 -33q255 -51 363 -132q93 -71 93 -208
q0 -221 -172 -349t-420 -126q-248 0 -365 110t-98 301h127q-16 -149 72 -229t279 -80t319 87q127 87 127 267q0 92 -56 134q-33 26 -55 41q-51 34 -282 83q-230 48 -308 120t-78 181q0 203 166 321q168 118 404 118z" />
    <glyph glyph-name="scaron" unicode="&#x161;" horiz-adv-x="1019" 
d="M635 1167l-119 267h98l95 -187l159 187h99l-213 -267h-119zM481 82q129 0 222 57t93 168t-96 140q-50 16 -148 28t-148 26q-133 36 -166 105q-20 43 -21 111q0 151 126 239t301 88t253 -84t78 -206v-21h-123v10q-4 95 -50 147t-164 52t-206 -48t-88 -159q0 -67 39 -100
t104 -42q188 -26 226 -33q102 -19 157 -72q54 -53 56 -164q0 -162 -129 -253t-317 -91t-277 78q-90 78 -90 208q0 23 2 35h123l-2 -29q0 -88 58 -139t187 -51z" />
    <glyph glyph-name="Ydieresis" unicode="&#x178;" horiz-adv-x="1161" 
d="M578 1659l28 164h144l-29 -164h-143zM844 1659l28 164h144l-29 -164h-143zM455 0l104 594l-332 819h131l279 -719l530 719h140l-625 -819l-104 -594h-123z" />
    <glyph glyph-name="Zcaron" unicode="&#x17d;" horiz-adv-x="1212" 
d="M745 1577l-118 266h98l94 -186l160 186h98l-213 -266h-119zM1311 1413l-19 -102l-1116 -1209h909l-18 -102h-1049l19 102l1116 1209h-881l19 102h1020z" />
    <glyph glyph-name="zcaron" unicode="&#x17e;" horiz-adv-x="976" 
d="M512 1167l-119 267h99l94 -187l159 187h99l-213 -267h-119zM1010 1024l-19 -102l-803 -820h699l-19 -102h-854l19 102l803 820h-637l18 102h793z" />
    <glyph glyph-name="florin" unicode="&#x192;" 
d="M137 -305q51 0 109 32q57 32 78 89l368 1044h-151l37 103h151q29 78 82 233q35 102 127 164t195 61q61 0 102 -20l-35 -98q-33 16 -85 16t-108 -32t-77 -91l-82 -233h233l-37 -103h-233q-350 -977 -369 -1044q-35 -100 -128 -162q-94 -62 -174 -62t-124 21l37 98
q33 -16 84 -16z" />
    <glyph glyph-name="circumflex" unicode="&#x2c6;" horiz-adv-x="1105" 
d="M748 1413l159 -266h-98l-135 186l-201 -186h-98l254 266h119z" />
    <glyph glyph-name="caron" unicode="&#x2c7;" horiz-adv-x="1024" 
d="M543 1167l-119 267h98l94 -187l160 187h98l-212 -267h-119z" />
    <glyph glyph-name="breve" unicode="&#x2d8;" horiz-adv-x="1024" 
d="M627 1313q47 1 78 29t36 71h86q-12 -78 -73 -132q-62 -54 -144 -54t-123 53t-28 133h84q-6 -43 15 -72q22 -28 69 -28z" />
    <glyph glyph-name="dotaccent" unicode="&#x2d9;" horiz-adv-x="368" 
d="M217 1270l29 164h143l-29 -164h-143z" />
    <glyph glyph-name="ring" unicode="&#x2da;" horiz-adv-x="1024" 
d="M655 1458q70 0 110 -49t28 -119q-11 -70 -69 -119t-128 -49t-111 49t-28 119q12 70 70 119t128 49zM608 1200q37 0 69 27t38 65t-16 64q-23 26 -59 26t-69 -26t-39 -65t16 -65t60 -26z" />
    <glyph glyph-name="ogonek" unicode="&#x2db;" horiz-adv-x="1024" 
d="M523 -348q48 0 93 31l25 -31q-55 -62 -147 -62t-143 50q-52 50 -36 136q15 88 91 148t174 76h102q-233 -57 -262 -215q-14 -73 20 -103t83 -30z" />
    <glyph glyph-name="tilde" unicode="&#x2dc;" horiz-adv-x="1024" 
d="M750 1196q-94 0 -146 62t-114 63q-62 0 -81 -37q-12 -23 -20 -49h-102q9 51 38 94q58 84 185 84q89 0 138 -62t118 -63q36 0 59 18t31 42t8 26h103q-4 -23 -15 -46q-55 -132 -202 -132z" />
    <glyph glyph-name="hungarumlaut" unicode="&#x2dd;" horiz-adv-x="991" 
 />
    <glyph glyph-name="pi" unicode="&#x3c0;" horiz-adv-x="1028" 
d="M1118 1024l-20 -109h-119l-162 -915h-121l162 915h-481l-162 -915h-121l162 915h-119l21 109h960z" />
    <glyph glyph-name="endash" unicode="&#x2013;" horiz-adv-x="1179" 
d="M133 414l19 102h974l-18 -102h-975z" />
    <glyph glyph-name="emdash" unicode="&#x2014;" horiz-adv-x="2185" 
d="M133 414l19 102h1980l-18 -102h-1981z" />
    <glyph glyph-name="quoteleft" unicode="&#x2018;" horiz-adv-x="389" 
d="M188 1044l29 164q43 121 158 205h61q-84 -70 -104 -184l-2 -21h51l-29 -164h-164z" />
    <glyph glyph-name="quoteright" unicode="&#x2019;" horiz-adv-x="399" 
d="M545 1413l-29 -164q-43 -121 -158 -205h-61q93 78 106 205h-51l29 164h164z" />
    <glyph glyph-name="quotesinglbase" unicode="&#x201a;" horiz-adv-x="399" 
d="M326 164l-29 -164q-43 -121 -158 -205h-61q93 78 106 205h-51l29 164h164z" />
    <glyph glyph-name="quotedblleft" unicode="&#x201c;" horiz-adv-x="696" 
d="M496 1044l28 164q43 121 158 205h61q-84 -70 -104 -184l-2 -21h51l-29 -164h-163zM188 1044l29 164q43 121 158 205h61q-84 -70 -104 -184l-2 -21h51l-29 -164h-164z" />
    <glyph glyph-name="quotedblright" unicode="&#x201d;" horiz-adv-x="706" 
d="M743 1413l-28 -164q-43 -121 -158 -205h-61q84 70 102 185l4 20h-51l29 164h163zM436 1413l-28 -164q-43 -121 -158 -205h-62q84 70 103 185l4 20h-51l28 164h164z" />
    <glyph glyph-name="quotedblbase" unicode="&#x201e;" horiz-adv-x="706" 
d="M633 164l-29 -164q-43 -121 -158 -205h-61q87 73 107 205h-52l29 164h164zM326 164l-29 -164q-43 -121 -158 -205h-61q93 78 106 205h-51l29 164h164z" />
    <glyph glyph-name="dagger" unicode="&#x2020;" horiz-adv-x="1021" 
d="M1075 1024l-18 -102h-369l-233 -1321h-123l233 1321h-366l18 102h367l67 383h123l-67 -383h368z" />
    <glyph glyph-name="daggerdbl" unicode="&#x2021;" horiz-adv-x="1189" 
d="M1151 1051l-18 -103h-361l-127 -721h359l-19 -102h-358l-64 -356h-123l64 356h-361l19 102h360l127 721h-362l18 103h363l61 356h123l-61 -356h360z" />
    <glyph glyph-name="bullet" unicode="&#x2022;" horiz-adv-x="868" 
d="M430 244q-114 0 -178 79t-44 191t114 192q92 78 204 78t179 -78q65 -79 45 -192q-20 -114 -114 -192t-206 -78z" />
    <glyph glyph-name="perthousand" unicode="&#x2030;" horiz-adv-x="2312" 
d="M2026 827q312 0 238 -424t-388 -423q-310 0 -236 424t386 423zM2022 741q-74 1 -121 -27q-109 -64 -154 -313q-12 -89 -14 -163q-1 -74 37 -123t122 -49q121 0 180 91q58 91 87 244q12 88 14 164t-38 126q-39 50 -113 50zM1289 827q313 0 239 -424t-389 -423
q-309 0 -235 424t385 423zM1284 741q-137 0 -193 -99q-57 -99 -75 -214q-18 -116 -20 -190t36 -123q39 -49 123 -49q121 0 179 91t87 244q12 88 15 164q2 76 -38 126t-114 50zM549 1393q315 0 239 -424t-388 -424t-236 424t385 424zM535 1307q-119 1 -179 -93t-88 -247
q-12 -88 -14 -163t38 -124t122 -49q121 0 180 91t86 245q12 87 15 163t-37 126t-123 51zM1382 1458l70 -45l-1098 -1456l-69 43z" />
    <glyph glyph-name="guilsinglleft" unicode="&#x2039;" horiz-adv-x="786" 
d="M748 965l-406 -449l246 -455h-139l-240 455l399 449h140z" />
    <glyph glyph-name="guilsinglright" unicode="&#x203a;" horiz-adv-x="786" 
d="M535 516l-246 449h139l240 -449l-400 -455h-139z" />
    <glyph glyph-name="fraction" unicode="&#x2044;" horiz-adv-x="73" 
d="M612 1458l70 -45l-1096 -1456l-69 43z" />
    <glyph glyph-name="Euro" unicode="&#x20ac;" 
d="M688 -20q-225 0 -354 131t-127 393h-156l19 102h725l-76 -102h-387q0 -408 377 -408q219 0 360 158l70 -86q-182 -188 -451 -188zM933 1317q-204 0 -331 -119t-192 -293h606l-76 -102h-836l19 102h160q90 252 268 390t395 139q262 0 377 -199l-100 -86q-86 168 -290 168z
" />
    <glyph glyph-name="trademark" unicode="&#x2122;" horiz-adv-x="1673" 
d="M1153 682l399 725h103l-139 -786h-70l123 698l-387 -698h-90l-142 698l-123 -698h-69l139 786h104zM223 1407h598l-12 -66h-264l-127 -720h-70l127 720h-264z" />
    <glyph glyph-name="Omega" unicode="&#x2126;" horiz-adv-x="1513" 
d="M925 1325q-233 0 -401 -157t-219 -453q-76 -428 232 -602l-19 -113h-416l19 109h246q-260 211 -191 606q59 340 268 529q209 190 500 190t432 -190t82 -529q-70 -397 -403 -606h245l-18 -109h-416l19 113q369 172 444 602q51 299 -61 455t-343 155z" />
    <glyph glyph-name="arrowleft" unicode="&#x2190;" horiz-adv-x="1529" 
d="M928 1237l-574 -477h1186l-22 -123h-1186l405 -477h-174l-440 538l631 539h174z" />
    <glyph glyph-name="arrowup" unicode="&#x2191;" horiz-adv-x="1529" 
d="M1372 696l-391 490l-209 -1186h-123l209 1186l-563 -490l31 174l632 537l445 -537z" />
    <glyph glyph-name="arrowright" unicode="&#x2192;" horiz-adv-x="1529" 
d="M1319 760l-406 477h174l443 -539l-633 -538h-174l573 477h-1185l22 123h1186z" />
    <glyph glyph-name="arrowdown" unicode="&#x2193;" horiz-adv-x="1529" 
d="M297 711l391 -490l209 1186h123l-209 -1186l563 490l-31 -174l-632 -537l-445 537z" />
    <glyph glyph-name="arrowboth" unicode="&#x2194;" horiz-adv-x="2150" 
d="M1933 760l-405 477h174l442 -539l-633 -538h-174l574 477h-1573l405 -477h-174l-440 538l631 539h174l-574 -477h1573z" />
    <glyph glyph-name="arrowrightdown" unicode="&#x21b4;" horiz-adv-x="1529" 
d="M1391 981l-134 -762h-763l-103 123l690 -6l-694 835l98 84l686 -841l119 690z" />
    <glyph glyph-name="partialdiff" unicode="&#x2202;" horiz-adv-x="1210" 
d="M801 1434q240 0 335 -150q109 -173 31 -503q-55 -262 -181 -478q-56 -96 -122 -166t-161 -117t-201 -47q-205 0 -319 111q-115 111 -75 319t185 350t346 142q143 0 247 -67t124 -199q85 235 68 450q-9 113 -83 183t-200 70q-125 0 -203 -68t-103 -195l-114 21
q39 166 152 255q114 89 274 89zM502 76q141 0 254 100q112 100 156 247t-32 255t-233 110q-157 0 -273 -110t-144 -270t52 -246t220 -86z" />
    <glyph glyph-name="Delta" unicode="&#x2206;" horiz-adv-x="1265" 
d="M795 1300l-639 -1181h866zM727 1407h172l252 -1288l-21 -119h-1122l21 119z" />
    <glyph glyph-name="product" unicode="&#x220f;" horiz-adv-x="1308" 
d="M1436 1407l-21 -117h-155l-228 -1290h-125l228 1290h-633l-228 -1290h-124l227 1290h-154l21 117h1192z" />
    <glyph glyph-name="summation" unicode="&#x2211;" horiz-adv-x="1026" 
d="M1169 1407l-20 -117h-764l401 -694l-647 -694h764l-20 -117h-922l19 106l655 705l-408 704l19 107h923z" />
    <glyph glyph-name="minus" unicode="&#x2212;" horiz-adv-x="1275" 
d="M1147 748l-19 -103h-880l18 103h881z" />
    <glyph glyph-name="radical" unicode="&#x221a;" 
d="M1335 1434l-686 -1434h-172l-149 688h-209l20 119h291l152 -701l628 1328h125z" />
    <glyph glyph-name="infinity" unicode="&#x221e;" horiz-adv-x="1433" 
d="M1071 842q78 0 132 -28t78 -66t35 -94q11 -57 3 -114q-23 -159 -120 -262q-36 -38 -97 -66t-137 -28q-168 0 -232 168q-115 -168 -287 -168q-96 0 -155 41t-73 95q-34 138 -11 194q13 88 78 191q37 59 109 98t167 39q168 0 230 -164q116 164 280 164zM455 287
q172 0 256 227q-3 123 -53 174t-126 51t-130 -60q-54 -59 -72 -165t13 -167q32 -60 112 -60zM990 287q74 0 130 60q56 59 74 165t-16 167q-35 60 -111 60q-77 0 -145 -52t-109 -173q-1 -113 51 -170t126 -57z" />
    <glyph glyph-name="integral" unicode="&#x222b;" horiz-adv-x="534" 
d="M16 -399q-53 0 -100 20l18 103q31 -14 85 -14t105 30q50 31 60 86l217 1233q6 41 23 123q16 98 99 161t184 64q55 0 104 -21l-18 -102q-31 14 -84 14t-105 -30q-51 -31 -59 -86l-219 -1233q-4 -19 -10 -61t-11 -62q-18 -98 -102 -162t-187 -63z" />
    <glyph glyph-name="approxequal" unicode="&#x2248;" 
d="M743 250q-73 0 -149 48t-118 48t-66 -18t-28 -34q-5 -16 -9 -44h-103q14 78 66 138t139 60q88 0 168 -48t121 -48q78 0 94 97h103q-35 -199 -218 -199zM533 674q-41 0 -65 -18t-29 -35q-5 -16 -9 -43h-102q14 78 65 138t139 60t168 -48t121 -48q78 0 94 96h103
q-35 -199 -217 -198q-74 0 -150 48t-118 48z" />
    <glyph glyph-name="notequal" unicode="&#x2260;" 
d="M225 645l19 103h512l159 213l89 -58l-117 -155h237l-18 -103h-297l-199 -266h449l-19 -103h-508l-159 -213l-88 56l116 157h-241l18 103h299l201 266h-453z" />
    <glyph glyph-name="lessequal" unicode="&#x2264;" 
d="M1006 102l-19 -102h-881l19 102h881zM1032 258l-813 381l23 131l948 383l-23 -129l-829 -315l719 -312z" />
    <glyph glyph-name="greaterequal" unicode="&#x2265;" 
d="M1100 639l-948 -381l24 139l830 312l-719 315l22 129l813 -383zM1006 102l-19 -102h-881l19 102h881z" />
    <glyph glyph-name="lozenge" unicode="&#x25ca;" horiz-adv-x="1368" 
d="M1174 707l-320 620l-537 -614l318 -627zM561 0l-373 713l623 700h119l373 -706l-623 -707h-119z" />
    <glyph glyph-name="CR" horiz-adv-x="1337" 
 />
    <glyph glyph-name="l.ss06" horiz-adv-x="450" 
d="M475 1434l-252 -1434h-123l252 1434h123z" />
    <glyph glyph-name="y.ss02" horiz-adv-x="931" 
d="M1053 1024l-781 -1413h-120l235 424l-205 989h131l158 -860l461 860h121z" />
    <glyph glyph-name="g.ss03" horiz-adv-x="1167" 
d="M696 942q-139 0 -236 -88q-177 -161 -177 -446t254 -285q143 0 241 82q178 149 178 432q0 305 -260 305zM492 -410q-192 0 -287 75q-94 75 -94 216v21h127v-19q0 -190 237 -190q319 0 381 340l35 194q-141 -207 -381 -207q-162 0 -258 100t-96 314q0 215 131 404
q63 92 167 149t231 57q126 0 207 -55t109 -149l50 184h104l-172 -977q-39 -227 -169 -342t-322 -115z" />
    <glyph glyph-name="G.ss04" horiz-adv-x="1546" 
d="M933 1331q-235 0 -403 -169q-168 -168 -220 -462t60 -456t362 -162t397 145q148 145 192 391h-393l18 103h520l-8 -49q-57 -328 -251 -510q-195 -182 -491 -182t-445 189q-148 189 -88 533q59 344 275 538t492 194t420 -128q53 -48 88 -134t35 -199h-127q-8 168 -103 263
t-330 95z" />
    <glyph glyph-name="ydieresis.neogrotesk" horiz-adv-x="952" 
d="M379 1249l29 164h143l-29 -164h-143zM645 1249l29 164h143l-29 -164h-143zM1063 1024l-780 -1413h-121l235 424l-204 989h131l157 -860l461 860h121z" />
    <glyph glyph-name="ampersand.ss05" horiz-adv-x="1337" 
d="M784 1329q-102 0 -159 -61t-72 -138q-23 -149 88 -274q157 43 227 111q70 69 85 155t-26 147q-41 60 -143 60zM600 82q215 0 344 123l-371 520q-272 -98 -309 -309q-25 -138 48 -236t288 -98zM802 1434q144 0 225 -76t56 -220t-119 -231q-94 -88 -266 -135l338 -467
q78 98 111 240h127q-49 -195 -172 -334l151 -211h-163l-86 121q-172 -141 -426 -141t-364 118q-112 118 -77 318q45 264 373 395q-113 145 -84 319q23 124 127 214q105 90 249 90z" />
    <glyph glyph-name="a.ss01" horiz-adv-x="1167" 
d="M516 82q150 0 260 102q109 102 148 322q21 111 10 195q-10 83 -35 129t-80 79t-137 33q-164 0 -269 -119t-139 -315t28 -310q64 -116 214 -116zM674 1044q110 0 192 -51t117 -151l53 182h103l-183 -1024h-104l20 186q-160 -207 -383 -206q-190 0 -289 139t-55 389
q45 250 193 393t336 143z" />
    <glyph glyph-name="yacute.neogrotesk" horiz-adv-x="952" 
d="M643 1413h164l-256 -266h-107zM92 -399h-92l18 102h80q106 0 170 119l119 213l-205 989h131l158 -860l461 860h121l-682 -1235q-105 -188 -279 -188z" />
    <glyph glyph-name="fl.ss06" horiz-adv-x="1048" 
d="M659 1446q33 0 76 -6l-16 -103q-39 6 -84 6q-147 0 -172 -135l-31 -184h447l71 410h123l-254 -1434h-123l164 922h-446l-164 -922h-123l164 922h-152l19 102h151l31 184q43 238 319 238z" />
    <glyph glyph-name="ffl.ss06" horiz-adv-x="1646" 
d="M1243 1446q33 0 76 -6l-16 -103q-41 6 -84 6q-147 0 -172 -135l-31 -184h461l67 389h123l-250 -1413h-123l164 922h-461l-163 -922h-123l163 922h-460l-164 -922h-123l164 922h-152l19 102h151l31 184q43 238 319 238q33 0 76 -6l-16 -103q-39 6 -84 6q-147 0 -172 -135
l-31 -184h461l31 184q43 238 319 238z" />
    <glyph glyph-name="arrowleftup" horiz-adv-x="1529" 
d="M262 436l133 762h764l103 -123l-691 4l695 -833l-99 -84l-686 842l-119 -691z" />
    <glyph glyph-name="arrowrightup" horiz-adv-x="1529" 
d="M672 1190h762l-134 -762l-145 -123l127 688l-983 -841l-72 86l990 835l-689 -6z" />
    <glyph glyph-name="arrowleftdown" horiz-adv-x="1527" 
d="M981 223h-762l135 764l144 123l-125 -690l983 842l67 -82l-989 -838l690 4z" />
    <glyph glyph-name="agrave.ss01" horiz-adv-x="1167" 
d="M582 1413h163l105 -266h-107zM516 82q150 0 260 102q109 102 148 322q21 111 10 195q-10 83 -35 129t-80 79t-137 33q-164 0 -269 -119t-139 -315t28 -310q64 -116 214 -116zM674 1044q110 0 192 -51t117 -151l53 182h103l-183 -1024h-104l20 186q-160 -207 -383 -206
q-190 0 -289 139t-55 389q45 250 193 393t336 143z" />
    <glyph glyph-name="aacute.ss01" horiz-adv-x="1167" 
d="M848 1413h164l-256 -266h-107zM516 82q150 0 260 102q109 102 148 322q21 111 10 195q-10 83 -35 129t-80 79t-137 33q-164 0 -269 -119t-139 -315t28 -310q64 -116 214 -116zM674 1044q110 0 192 -51t117 -151l53 182h103l-183 -1024h-104l20 186q-160 -207 -383 -206
q-190 0 -289 139t-55 389q45 250 193 393t336 143z" />
    <glyph glyph-name="acircumflex.ss01" horiz-adv-x="1167" 
d="M866 1413l160 -266h-98l-135 186l-201 -186h-98l254 266h118zM516 82q150 0 260 102q109 102 148 322q21 111 10 195q-10 83 -35 129t-80 79t-137 33q-164 0 -269 -119t-139 -315t28 -310q64 -116 214 -116zM674 1044q110 0 192 -51t117 -151l53 182h103l-183 -1024h-104
l20 186q-160 -207 -383 -206q-190 0 -289 139t-55 389q45 250 193 393t336 143z" />
    <glyph glyph-name="atilde.ss01" horiz-adv-x="1167" 
d="M655 1413q87 0 137 -62t114 -62q64 -1 84 39t20 46h102q-8 -47 -47 -103q-51 -75 -183 -75q-68 0 -132 62q-66 62 -107 62t-59 -7q-18 -9 -30 -29t-12 -24q-1 -4 -7 -25h-103q31 178 223 178zM516 82q150 0 260 102q109 102 148 322q21 111 10 195q-10 83 -35 129t-80 79
t-137 33q-164 0 -269 -119t-139 -315t28 -310q64 -116 214 -116zM674 1044q110 0 192 -51t117 -151l53 182h103l-183 -1024h-104l20 186q-160 -207 -383 -206q-190 0 -289 139t-55 389q45 250 193 393t336 143z" />
    <glyph glyph-name="adieresis.ss01" horiz-adv-x="1167" 
d="M565 1249l29 164h143l-28 -164h-144zM831 1249l29 164h144l-29 -164h-144zM516 82q150 0 260 102q109 102 148 322q21 111 10 195q-10 83 -35 129t-80 79t-137 33q-164 0 -269 -119t-139 -315t28 -310q64 -116 214 -116zM674 1044q110 0 192 -51t117 -151l53 182h103
l-183 -1024h-104l20 186q-160 -207 -383 -206q-190 0 -289 139t-55 389q45 250 193 393t336 143z" />
    <glyph glyph-name="aring.ss01" horiz-adv-x="1167" 
d="M809 1458q70 0 110 -49q39 -49 27 -119t-69 -119t-127 -49t-111 49t-29 119t70 119t129 49zM762 1200q36 0 68 27t38 65t-15 64q-23 26 -59 26t-69 -26t-39 -65t16 -65t60 -26zM516 82q150 0 260 102q109 102 148 322q21 111 10 195q-10 83 -35 129t-80 79t-137 33
q-164 0 -269 -119t-139 -315t28 -310q64 -116 214 -116zM674 1044q110 0 192 -51t117 -151l53 182h103l-183 -1024h-104l20 186q-160 -207 -383 -206q-190 0 -289 139t-55 389q45 250 193 393t336 143z" />
    <glyph glyph-name="one.osf" horiz-adv-x="860" 
d="M309 979q180 0 211 168h123l-184 -1045h286l-18 -102h-696l18 102h287l135 775h-258l18 102h78z" />
    <glyph glyph-name="two.osf" horiz-adv-x="1095" 
d="M705 1167q207 0 285 -106q78 -105 48 -279q-32 -174 -198 -328t-586 -352h684l-18 -102h-871l21 111q530 265 682 408q84 79 114 134q31 55 43 125q51 287 -225 287t-352 -289h-127q105 391 500 391z" />
    <glyph glyph-name="zero.osf" horiz-adv-x="1159" 
d="M733 1167q164 0 263 -84t121 -216t-1 -296q-46 -254 -198 -423t-394 -168q-164 0 -263 84t-121 214q-22 132 1 293q45 256 197 426t395 170zM717 1065q-100 0 -182 -44q-83 -44 -135 -119q-100 -142 -132 -331q-39 -163 18 -328q24 -71 90 -116t167 -45q272 0 398 316
q32 81 48 173q40 167 -15 332q-24 72 -90 117q-67 45 -167 45z" />
    <glyph glyph-name="three.osf" horiz-adv-x="1040" 
d="M440 -266q-220 0 -320 102q-99 102 -79 297h123q-29 -297 278 -297q166 0 271 88q104 88 132 244t-45 248t-239 92h-127l19 102l467 455h-627l18 102h768l-18 -102l-481 -455q227 0 327 -118t64 -332q-31 -172 -171 -299t-360 -127z" />
    <glyph glyph-name="four.osf" horiz-adv-x="1099" 
d="M741 102l156 879l-717 -879h561zM805 -246h-123l43 246h-705l17 102l893 1065h123l-189 -1065h170l-16 -102h-170z" />
    <glyph glyph-name="five.osf" horiz-adv-x="1112" 
d="M661 643q207 0 295 -134t54 -334q-34 -201 -186 -321q-153 -120 -345 -120t-299 101q-106 101 -86 290h127q-16 -157 65 -223q80 -66 220 -66t246 93t133 247t-41 259t-212 105t-227 -61q-82 -62 -104 -102l-10 -21l-117 45l213 746h721l-18 -103h-619l-164 -548
q147 147 354 147z" />
    <glyph glyph-name="six.osf" horiz-adv-x="1187" 
d="M568 82q156 0 261 91q103 91 133 253t-43 249t-205 87t-222 -50t-136 -123q-75 -121 -88 -198q-12 -135 66 -222t234 -87zM715 864q201 0 306 -114t67 -322q-38 -209 -185 -329t-344 -119q-152 0 -247 55t-129 150q-75 209 -13 489q61 346 230 532t409 187q102 0 179 -34
q131 -58 168 -196q15 -55 11 -106h-120q-2 233 -256 233q-412 0 -515 -692q154 266 439 266z" />
    <glyph glyph-name="seven.osf" horiz-adv-x="997" 
d="M1057 1147l-19 -103l-780 -1290h-123l783 1290h-754l18 103h875z" />
    <glyph glyph-name="eight.osf" horiz-adv-x="1196" 
d="M674 784q121 0 220 62t124 198q14 80 -10 134t-76 76q-51 22 -89 29t-79 7t-81 -7q-135 -24 -202 -104q-43 -54 -57 -135q-25 -136 52 -198t198 -62zM551 82q358 0 410 289q27 151 -65 231t-238 80t-267 -81t-147 -230q-14 -78 4 -135t50 -86q75 -68 253 -68zM532 -20
q-234 0 -341 102q-108 102 -74 289q43 252 338 358q-197 102 -158 315q25 145 144 247q120 101 341 101t304 -100q83 -102 59 -248q-39 -215 -268 -315q254 -104 210 -358q-33 -187 -177 -289t-378 -102z" />
    <glyph glyph-name="nine.osf" horiz-adv-x="1183" 
d="M715 1067q-158 0 -261 -87t-131 -243q-28 -157 46 -245t221 -89q96 0 174 32t122 77t84 113t44 120q12 135 -64 229t-235 93zM571 301q-193 0 -299 117q-106 118 -71 318t182 316t342 115q152 0 247 -58q95 -59 129 -157q72 -209 9 -506q-34 -194 -104 -336t-141 -212
t-159 -110t-138 -47q-48 -7 -114 -7t-132 24q-118 42 -170 145q-46 88 -37 179h121q0 -246 253 -246q105 0 191 48q212 117 294 482q19 87 32 181q-156 -246 -435 -246z" />
    <glyph glyph-name="zero.tf" 
d="M791 1434q182 0 282 -96q101 -96 115 -260q14 -163 -19 -376q-129 -729 -637 -729t-378 729q59 338 214 535t423 197zM760 1331q-375 0 -479 -629q-62 -356 19 -499q71 -127 251 -127q258 0 386 268q102 215 130 546q15 202 -45 312q-71 129 -262 129z" />
    <glyph glyph-name="zero.zero.tf" 
d="M548 82q235 0 349 194q95 162 145 426q27 156 27 283l-803 -682q47 -221 282 -221zM773 1331q-232 0 -347 -197q-103 -177 -145 -432q-33 -166 -27 -278l801 682q-50 225 -282 225zM791 1434q182 0 282 -96q101 -96 115 -260q14 -163 -19 -376q-39 -216 -113 -372
t-208 -253t-316 -97t-282 96t-115 257q-14 161 19 369q59 338 214 535t423 197z" />
    <glyph glyph-name="one.tf" 
d="M551 1245q180 0 211 168h123l-232 -1311h369l-18 -102h-861l19 102h368l183 1041h-258l18 102h78z" />
    <glyph glyph-name="two.tf" 
d="M792 1434q188 0 291 -104q101 -104 69 -292t-223 -387t-679 -549h760l-17 -102h-909l18 113q703 515 842 722q63 93 80 193q26 141 -34 222t-218 81q-283 0 -369 -315h-127q52 210 190 314t326 104z" />
    <glyph glyph-name="three.tf" 
d="M287 377q-27 -295 287 -295q158 0 265 97q109 97 135 253t-47 238t-243 82h-127l18 102l467 457h-626l18 102h768l-18 -102l-482 -457q230 0 332 -109t68 -301t-177 -328q-141 -136 -361 -136t-319 101t-81 296h123z" />
    <glyph glyph-name="four.tf" 
d="M838 506l127 721l-689 -721h562zM870 0h-122l71 403h-704l18 103l864 907h123l-159 -907h169l-18 -103h-170z" />
    <glyph glyph-name="five.tf" 
d="M726 895q206 0 295 -123q89 -124 53 -326t-192 -334t-346 -132t-295 101t-85 296h127q-27 -229 162 -282q46 -13 100 -13q159 0 267 103t136 261t-41 252q-67 94 -213 94t-228 -61q-82 -62 -104 -104l-10 -19l-116 45l215 760h720l-18 -102h-618l-166 -563
q151 147 357 147z" />
    <glyph glyph-name="six.tf" 
d="M568 82q156 0 262 99t136 267t-43 256q-73 86 -221 87q-96 0 -174 -36t-122 -82q-101 -107 -134 -253q-12 -150 64 -244t232 -94zM721 893q201 0 305 -114q104 -113 66 -329t-187 -344q-150 -128 -346 -126q-303 0 -375 217q-65 193 -8 505q62 352 232 542t405 190
t324 -169q44 -84 37 -180h-121q-2 246 -254 246q-414 0 -516 -704q153 266 438 266z" />
    <glyph glyph-name="seven.tf" 
d="M1208 1413l-18 -102l-784 -1311h-123l786 1311h-754l19 102h874z" />
    <glyph glyph-name="eight.tf" 
d="M680 805q121 0 219 61t123 199q32 192 -119 245q-60 21 -116 21q-205 0 -300 -120q-45 -58 -58 -138q-33 -206 149 -255q47 -13 102 -13zM551 76q358 0 414 315q27 150 -65 231q-92 80 -238 80q-145 0 -267 -80q-121 -81 -147 -231q-14 -84 3 -145t49 -93q77 -77 251 -77
zM791 1434q115 0 195 -33t116 -85q79 -117 47 -251q-39 -215 -268 -315q254 -104 211 -359q-36 -197 -182 -307t-378 -111q-232 0 -338 111q-108 111 -73 307q43 253 338 359q-197 102 -158 315q27 153 148 261t342 108z" />
    <glyph glyph-name="nine.tf" 
d="M756 1333q-158 0 -262 -89t-132 -247q-28 -159 46 -247q72 -88 229 -88q113 0 201 47t131 111q77 116 86 184q11 135 -65 232t-234 97zM616 559q-199 0 -305 117q-106 118 -69 322t183 320t353 116q500 0 375 -711q-95 -517 -379 -682q-115 -68 -242 -68q-238 0 -320 128
q-72 112 -60 221h120q0 -246 250 -246q131 0 232 71q100 72 157 192q102 214 136 466q-159 -246 -431 -246z" />
    <glyph glyph-name="zero.zero" horiz-adv-x="1200" 
d="M552 82q233 0 346 188q97 161 142 412q25 143 25 283l-795 -678q49 -205 282 -205zM763 1290q-230 0 -342 -192q-99 -169 -142 -416q-33 -166 -27 -279l795 680q-54 207 -284 207zM784 1393q182 -1 282 -95t118 -252q16 -158 -17 -364q-127 -702 -632 -702
q-137 0 -229 53q-91 53 -131 147q-85 200 -23 502q56 328 210 520t422 191z" />
    <glyph glyph-name="yacute.ss02" horiz-adv-x="931" 
d="M662 1413h163l-256 -266h-106zM1053 1024l-781 -1413h-120l235 424l-205 989h131l158 -860l461 860h121z" />
    <glyph glyph-name="ydieresis.ss02" horiz-adv-x="931" 
d="M371 1249l28 164h144l-29 -164h-143zM637 1249l29 164h143l-29 -164h-143zM1053 1024l-781 -1413h-120l235 424l-205 989h131l158 -860l461 860h121z" />
    <glyph glyph-name="parenleft.case" horiz-adv-x="604" 
d="M690 1577q-282 -408 -366 -882t57 -879h-102q-164 403 -82 880q86 475 391 881h102z" />
    <glyph glyph-name="parenright.case" horiz-adv-x="604" 
d="M-37 -184q281 412 365 882t-58 879h103q166 -406 82 -880t-392 -881h-100z" />
    <glyph glyph-name="bracketleft.case" horiz-adv-x="606" 
d="M63 -184l310 1761h340l-19 -102h-217l-274 -1557h217l-17 -102h-340z" />
    <glyph glyph-name="bracketright.case" horiz-adv-x="606" 
d="M631 1577l-309 -1761h-338l16 102h215l274 1557h-217l19 102h340z" />
    <glyph glyph-name="braceleft.case" horiz-adv-x="733" 
d="M823 1577h17l-19 -102h-16q-80 -1 -126 -55t-71 -197l-53 -303q-16 -96 -41 -142t-80 -82q43 -37 51 -84t-10 -139l-74 -424q-10 -59 22 -95t107 -36h17l-17 -102h-16q-160 0 -206 72t-11 272l63 354q12 66 -22 98t-129 33l18 103q174 0 197 131l63 354q35 199 106 271
t230 73z" />
    <glyph glyph-name="braceright.case" horiz-adv-x="733" 
d="M16 -82q74 0 120 36t57 95l73 424q16 96 41 141t78 82q-41 37 -49 84t10 140l53 303q25 143 -3 197t-107 55h-17l19 102h16q160 0 206 -73t11 -271l-63 -354q-11 -66 23 -99t128 -32l-18 -103q-174 0 -197 -131l-63 -354q-35 -199 -106 -272t-228 -72h-16l16 102h16z" />
    <glyph glyph-name="questiondown.case" horiz-adv-x="1116" 
d="M846 1413l-29 -164h-143l28 164h144zM504 -20q-200 0 -291 96q-90 96 -61 256t210 299q113 86 160 135t80 126t60 220h122q-37 -211 -88 -301q-50 -90 -154 -172t-141 -115t-75 -89t-52 -134q-14 -79 37 -149t205 -70t240 90t106 199h127q-27 -152 -155 -272
q-130 -119 -330 -119z" />
    <glyph glyph-name="guillemotleft.case" horiz-adv-x="1196" 
d="M1186 1128l-406 -448l246 -455h-139l-240 455l400 448h139zM776 1128l-405 -448l245 -455h-139l-239 455l399 448h139z" />
    <glyph glyph-name="guillemotright.case" horiz-adv-x="1196" 
d="M973 680l-246 448h139l240 -448l-399 -455h-140zM563 680l-246 448h140l239 -448l-399 -455h-139z" />
    <glyph glyph-name="guilsinglleft.case" horiz-adv-x="786" 
d="M776 1128l-405 -448l245 -455h-139l-239 455l399 448h139z" />
    <glyph glyph-name="guilsinglright.case" horiz-adv-x="786" 
d="M563 680l-246 448h140l239 -448l-399 -455h-139z" />
    <glyph glyph-name="exclamdown.case" horiz-adv-x="630" 
d="M213 0l227 1112h82l-166 -1112h-143zM434 1249l29 164h143l-28 -164h-144z" />
    <glyph glyph-name="underscore.case" horiz-adv-x="974" 
d="M-25 -250l17 103h973l-17 -103h-973z" />
    <glyph glyph-name="bullet.case" horiz-adv-x="868" 
d="M555 948q113 0 178 -78t45 -192q-20 -113 -113 -192q-93 -78 -206 -78t-177 78t-44 192t112 192t205 78z" />
    <glyph glyph-name="periodcentered.case" horiz-adv-x="389" 
d="M170 573l29 164h163l-28 -164h-164z" />
    <glyph glyph-name="hyphen.case" horiz-adv-x="776" 
d="M723 512l-18 -102h-572l19 102h571z" />
    <glyph glyph-name="endash.case" horiz-adv-x="1179" 
d="M133 414l19 102h974l-18 -102h-975z" />
    <glyph glyph-name="emdash.case" horiz-adv-x="2185" 
d="M133 414l19 102h1980l-18 -102h-1981z" />
    <glyph glyph-name="bar.case" horiz-adv-x="450" 
d="M166 -184l309 1761h123l-309 -1761h-123z" />
    <glyph glyph-name="brokenbar.case" horiz-adv-x="450" 
d="M84 -184l127 725h123l-127 -725h-123zM266 852l127 725h123l-127 -725h-123z" />
    <glyph glyph-name="I.ss07" horiz-adv-x="614" 
d="M18 0l19 102h164l213 1209h-164l18 102h451l-19 -102h-163l-213 -1209h163l-18 -102h-451z" />
    <glyph glyph-name="zero.tosf" 
d="M733 1167q164 0 263 -84t121 -216t-1 -296q-46 -254 -198 -423t-394 -168q-164 0 -263 84t-121 214q-22 132 1 293q45 256 197 426t395 170zM717 1065q-100 0 -182 -44q-83 -44 -135 -119q-100 -142 -132 -331q-39 -163 18 -328q24 -71 90 -116t167 -45q272 0 398 316
q32 81 48 173q40 167 -15 332q-24 72 -90 117q-67 45 -167 45z" />
    <glyph glyph-name="one.tosf" 
d="M494 979q180 0 211 168h122l-184 -1045h369l-19 -102h-860l19 102h368l135 775h-258l19 102h78z" />
    <glyph glyph-name="two.tosf" 
d="M745 1167q207 0 286 -106q79 -105 48 -279t-197 -328t-587 -352h684l-18 -102h-871l21 111q530 265 682 408q84 79 114 134q31 55 43 125q51 287 -225 287t-352 -289h-127q104 391 499 391z" />
    <glyph glyph-name="three.tosf" 
d="M498 -266q-220 0 -319 102t-79 297h123q-29 -297 279 -297q166 0 270 88t132 244t-45 248t-238 92h-127l18 102l467 455h-627l19 102h768l-19 -102l-481 -455q227 0 328 -118q100 -119 63 -332q-31 -172 -171 -299q-141 -127 -361 -127z" />
    <glyph glyph-name="four.tosf" 
d="M793 102l155 879l-717 -879h562zM856 -246h-123l43 246h-704l16 102l893 1065h123l-189 -1065h170l-16 -102h-170z" />
    <glyph glyph-name="five.tosf" 
d="M702 643q207 0 295 -134q89 -134 55 -334q-34 -201 -187 -321t-345 -120t-299 101q-106 101 -86 290h127q-16 -157 65 -223t221 -66t245 93q106 93 133 247t-41 259q-69 105 -213 105t-226 -61q-82 -62 -104 -102l-10 -21l-117 45l213 746h721l-19 -103h-618l-164 -548
q147 147 354 147z" />
    <glyph glyph-name="six.tosf" 
d="M576 82q156 0 263 99q105 99 135 267t-43 256q-73 86 -220 87q-96 0 -174 -36t-122 -82t-83 -116t-51 -137q-13 -150 63 -244t232 -94zM729 893q201 0 305 -114q104 -113 66 -329t-187 -344q-150 -128 -346 -126q-302 0 -374 217q-64 191 -6 524q59 333 229 523t405 190
t324 -169q46 -88 37 -180h-121q-2 246 -254 246q-414 0 -516 -704q153 266 438 266z" />
    <glyph glyph-name="seven.tosf" 
d="M1200 1147l-18 -103l-781 -1290h-122l782 1290h-754l19 103h874z" />
    <glyph glyph-name="eight.tosf" 
d="M789 1331q-205 0 -300 -120q-45 -58 -58 -138q-25 -155 57 -211q82 -57 199 -57q116 0 214 61t123 199q32 192 -119 245q-60 21 -116 21zM553 76q358 0 414 315q27 150 -65 231q-92 80 -238 80q-145 0 -267 -80q-121 -81 -147 -231q-14 -84 3 -145t49 -93q77 -77 251 -77
zM793 1434q115 0 195 -33t116 -85q79 -117 47 -251q-39 -215 -268 -315q254 -104 211 -359q-36 -197 -182 -307t-377 -111q-231 0 -339 111t-73 307q43 253 338 359q-197 102 -158 315q27 153 148 261t342 108z" />
    <glyph glyph-name="nine.tosf" 
d="M721 1067q-158 0 -261 -87t-131 -243q-28 -157 46 -245t221 -89q96 0 174 32t122 77t86 115t42 118q12 135 -64 229t-235 93zM578 301q-193 0 -299 117q-105 118 -71 318t181 316t342 115q152 0 247 -58q95 -59 129 -157q72 -209 9 -506q-34 -194 -104 -336t-141 -212
t-159 -110t-138 -47q-48 -7 -114 -7t-132 24q-118 42 -170 145q-46 88 -37 179h121q0 -246 254 -246q104 0 190 48t139 121q110 151 155 361q19 87 32 181q-155 -246 -434 -246z" />
    <glyph glyph-name="numbersign.tf" 
d="M590 922l-205 -461h338l203 461h-336zM63 0l160 358h-155l18 103h182l203 461h-244l19 102h270l178 389h119l-178 -389h336l178 389h119l-178 -389h157l-18 -102h-185l-202 -461h245l-18 -103h-272l-162 -358h-117l160 358h-338l-160 -358h-117z" />
    <glyph glyph-name="dollar.tf" 
d="M365 1069q-19 -123 49 -177t215 -87l94 524q-315 -20 -358 -260zM1001 375q24 144 -59 205q-45 33 -96 52t-137 40l-105 -590q350 12 397 293zM868 1579l-26 -147q391 -23 362 -375h-127q10 129 -47 197t-205 75l-96 -545l53 -12q190 -45 286 -131t64 -264
q-30 -177 -170 -283t-376 -114l-25 -144h-102l24 146q-217 14 -316 122t-83 287h127q-33 -283 291 -307l108 610q-207 39 -304 122t-69 243t154 261q127 101 348 112l27 147h102z" />
    <glyph glyph-name="plus.tf" 
d="M676 985h102l-73 -422h419l-18 -102h-420l-74 -418h-102l74 418h-420l18 102h420z" />
    <glyph glyph-name="less.tf" 
d="M1001 61l-806 385l22 132l944 387l-22 -123l-822 -330l705 -330z" />
    <glyph glyph-name="equal.tf" 
d="M174 440l19 103h880l-18 -103h-881zM240 809l18 102h881l-19 -102h-880z" />
    <glyph glyph-name="greater.tf" 
d="M285 963l807 -385l-23 -132l-942 -387l20 123l824 330l-707 330z" />
    <glyph glyph-name="asciitilde.tf" 
d="M505 512q-42 0 -66 -18q-25 -18 -29 -34t-9 -44h-102q13 78 65 138t140 60t168 -48t121 -48q78 0 94 96h102q-35 -199 -217 -198q-74 0 -150 48t-117 48z" />
    <glyph glyph-name="cent.tf" 
d="M738 1147q-144 -1 -262 -105t-157 -329t45 -325t240 -101q270 0 371 260h127q-57 -145 -175 -247t-296 -114l-33 -186h-102l32 186q-194 16 -286 154t-50 376q42 237 183 376t340 155l30 166h103l-31 -166q174 -16 258 -124t74 -253h-127q8 131 -66 204t-218 73z" />
    <glyph glyph-name="sterling.tf" 
d="M805 1413q100 1 170 -25q71 -26 103 -64q58 -68 58 -194q-1 -45 -12 -100h-123q29 160 -29 220t-186 61q-254 0 -299 -242l-71 -410h397l-18 -102h-398l-55 -319q-10 -55 -37 -84t-72 -52h482q175 8 233 104q29 48 39 79t21 86h122q-37 -194 -142 -280q-44 -37 -120 -63
t-172 -28h-692l19 102q121 0 156 50t40 86l55 319h-170l19 102h170l72 410q25 131 131 237t309 107z" />
    <glyph glyph-name="currency.tf" 
d="M549 -27q-190 0 -318 121l-141 -121l-65 80l139 121q-94 152 -60 342t181 336l-99 119l95 80l98 -119q169 119 361 119t317 -119l141 119l66 -80l-142 -119q92 -147 60 -340q-37 -195 -181 -338l101 -121l-94 -80l-99 121q-170 -121 -360 -121zM571 96q170 0 315 121
q144 121 175 295q29 174 -73 295t-271 121t-313 -121t-176 -295t70 -295t273 -121z" />
    <glyph glyph-name="yen.tf" 
d="M1303 1413l-529 -733h295l-18 -102h-353l-34 -197h352l-19 -102h-352l-49 -279h-125l49 279h-360l18 102h361l34 197h-360l18 102h301l-266 733h140l251 -737l510 737h136z" />
    <glyph glyph-name="section.tf" 
d="M934 666q16 106 -68 144q-84 37 -235 56q-195 -18 -221 -168q-20 -105 56 -139t172 -48q96 -15 128 -24q137 38 168 179zM518 -92q-223 0 -296 92t-48 229h127q0 -23 -4 -51q-8 -58 42 -112t198 -56q200 0 272 91q33 42 45 115t-47 117t-153 61t-186 40q-93 23 -150 87
q-56 65 -35 177q10 61 61 127t127 93q-59 23 -92 86t-16 162q17 100 119 184t301 84q198 0 272 -74q75 -74 67 -161q-4 -42 -8 -81h-127q22 118 -33 166q-55 47 -186 47q-246 0 -279 -172q-19 -122 103 -164q55 -18 123 -29q67 -12 135 -28t121 -43t80 -85t10 -144
q-31 -170 -189 -217q139 -61 107 -244q-53 -297 -461 -297z" />
    <glyph glyph-name="logicalnot.tf" 
d="M188 596l19 102h954l-92 -524h-123l74 422h-832z" />
    <glyph glyph-name="plusminus.tf" 
d="M694 1120h103l-68 -377h377l-16 -102h-377l-68 -375h-102l67 375h-374l16 102h375zM993 102l-18 -102h-854l18 102h854z" />
    <glyph glyph-name="multiply.tf" 
d="M328 807l84 72l243 -295l349 295l59 -72l-346 -295l239 -295l-84 -72l-243 293l-344 -293l-60 72l346 295z" />
    <glyph glyph-name="divide.tf" 
d="M1094 563l-19 -102h-880l18 102h881zM510 133l29 164h143l-29 -164h-143zM614 727l29 164h143l-28 -164h-144z" />
    <glyph glyph-name="florin.tf" 
d="M154 -305q50 0 108 32q57 32 78 89l369 1044h-152l37 103h151q29 78 82 233q35 102 127 164t195 61q61 0 102 -20l-34 -98q-33 16 -85 16t-108 -32t-78 -91l-82 -233h234l-37 -103h-234q-353 -984 -368 -1044q-35 -100 -128 -162t-174 -62t-124 21l37 98q34 -16 84 -16z
" />
    <glyph glyph-name="Euro.tf" 
d="M690 -20q-208 0 -324 131t-110 393h-156l19 102h678l-76 -102h-340q-8 -408 330 -408q196 0 325 158l70 -86q-170 -188 -416 -188zM929 1317q-185 0 -300 -126q-114 -126 -170 -286h559l-76 -102h-788l18 102h160q86 252 251 390t365 139q240 0 342 -199l-100 -86
q-76 168 -261 168z" />
    <glyph glyph-name="minus.tf" 
d="M1108 748l-18 -103h-881l18 103h881z" />
    <glyph glyph-name="zero.zero.osf" horiz-adv-x="1200" 
d="M737 1065q-100 0 -182 -44t-134 -119q-99 -143 -128 -309q-29 -165 -10 -269l700 600q-66 141 -246 141zM563 82q273 0 399 316q32 80 52 194t2 227l-701 -600q70 -137 248 -137zM754 1167q164 0 263 -84t121 -216t-1 -294q-45 -256 -198 -425t-394 -168q-164 0 -263 84
t-121 216t1 293q45 256 197 425q153 169 395 169z" />
    <glyph glyph-name="zero.zero.tosf" horiz-adv-x="1200" 
d="M737 1065q-100 0 -182 -44t-134 -119q-99 -143 -128 -309q-29 -165 -10 -269l700 600q-66 141 -246 141zM563 82q273 0 399 316q32 80 52 194t2 227l-701 -600q70 -137 248 -137zM754 1167q164 0 263 -84t121 -216t-1 -294q-45 -256 -198 -425t-394 -168q-164 0 -263 84
t-121 216t1 293q45 256 197 425q153 169 395 169z" />
    <glyph glyph-name="arrowleft.ss08" horiz-adv-x="1529" 
d="M451 827l-41 -231h1116l-23 -123h-1116l-41 -231l-237 293z" />
    <glyph glyph-name="arrowright.ss08" horiz-adv-x="1529" 
d="M1235 596l41 231l240 -292l-345 -293l41 231h-1116l23 123h1116z" />
    <glyph glyph-name="arrowup.ss08" horiz-adv-x="1527" 
d="M836 1116h-232l344 291l242 -291h-232l-196 -1116h-123z" />
    <glyph glyph-name="arrowdown.ss08" horiz-adv-x="1529" 
d="M459 291h231l197 1116h123l-197 -1116h231l-344 -291z" />
    <glyph glyph-name="arrowboth.ss08" horiz-adv-x="1820" 
d="M451 827l-41 -231h1116l41 231l239 -292l-344 -293l41 231h-1116l-41 -231l-237 293z" />
    <glyph glyph-name="arrowleftup.ss08" horiz-adv-x="1529" 
d="M815 1024l-192 -162l651 -790l-103 -86l-651 788l-190 -164l73 414h412z" />
    <glyph glyph-name="arrowrightup.ss08" horiz-adv-x="1529" 
d="M1165 862l-135 162h412l-74 -414l-133 164l-926 -788l-73 86z" />
    <glyph glyph-name="arrowleftdown.ss08" horiz-adv-x="1527" 
d="M498 162l135 -162h-412l74 414l133 -164l928 788l71 -86z" />
    <glyph glyph-name="arrowrightdown.ss08" horiz-adv-x="1529" 
d="M848 0l192 162l-651 790l105 86l649 -788l190 164l-73 -414h-412z" />
    </font>
</defs>
</svg>
