<?xml version="1.0" standalone="no"?>
<!DOCTYPE svg PUBLIC "-//W3C//DTD SVG 1.1//EN" "http://www.w3.org/Graphics/SVG/1.1/DTD/svg11.dtd" >
<svg xmlns="http://www.w3.org/2000/svg">
<metadata>
Created by FontPrep 20130207 at Tue Sep  8 17:39:36 2015
 By Marcos Dopico Castro
Copyright (c) 201332015 by Marcos Dopico // MaisTypes. All rights reserved.
</metadata>
<defs>
<font id="039dadb9f5b3b4cdb429d3d0617ba508" horiz-adv-x='1024' >
  <font-face 
    font-family="MaisGrotesk-BookItalic"
    font-weight="400"
    font-style="italic"
    font-stretch="normal"
    units-per-em="2048"
    panose-1="0 0 0 0 0 0 0 0 0 0"
    ascent="1536"
    descent="-512"
    x-height="1024"
    cap-height="1413"
    bbox="-485 -410 2363 1931"
    underline-thickness="102"
    underline-position="-102"
    unicode-range="U+0020-FB04"
  />
<missing-glyph horiz-adv-x="829" 
d="M539 735l151 -524l184 1051zM455 606l-320 -497h465zM356 1364l144 -498l321 498h-465zM418 735l-152 531l-186 -1059zM764 0h-827l258 1473h829z" />
    <glyph glyph-name="ellipsis" unicode="&#x2e;&#x2e;&#x2e;" horiz-adv-x="1239" 
d="M877 0l34 195h197l-35 -195h-196zM510 0l35 195h196l-34 -195h-197zM145 0l35 195h197l-35 -195h-197z" />
    <glyph glyph-name="ff" unicode="ff" horiz-adv-x="1261" 
d="M1128 1178l-26 -154h203l-25 -139h-203l-157 -885h-164l157 885h-467l-157 -885h-164l158 885h-152l25 139h151l27 158q25 141 122 202t224 62q45 0 86 -8l-23 -138q-41 6 -84 7q-139 0 -161 -129l-27 -154h467l27 158q25 141 121 202q97 61 225 62q45 0 86 -8l-23 -138
q-39 6 -84 7q-142 0 -162 -129z" />
    <glyph glyph-name="fi" unicode="fi" horiz-adv-x="1099" 
d="M1128 1413l-32 -184h-164l33 184h163zM498 1178l-27 -154h590l-182 -1024h-164l157 885h-426l-157 -885h-164l158 885h-152l25 139h151l27 158q25 141 122 202t224 62q25 0 86 -8l-23 -138q-41 6 -84 7q-136 0 -161 -129z" />
    <glyph glyph-name="fl" unicode="fl" horiz-adv-x="1169" 
d="M948 -10q-233 0 -192 239l116 656h-426l-155 -885h-164l156 885h-152l25 139h151l29 158q25 141 121 202t223 62q23 0 88 -8l-25 -138q-41 6 -84 7q-136 0 -159 -129l-29 -154h426l68 389h163l-206 -1175q-12 -68 14 -90t94 -21h21l-25 -133q-37 -4 -78 -4z" />
    <glyph glyph-name="ffi" unicode="ffi" horiz-adv-x="1730" 
d="M1563 1229l32 184h164l-33 -184h-163zM498 1178l-27 -154h447l26 158q25 141 121 202t223 62q47 0 88 -8l-24 -138q-37 6 -82 7q-141 0 -164 -129l-25 -154h611l-183 -1024h-163l157 885h-446l-158 -885h-164l158 885h-447l-157 -885h-164l158 885h-152l25 139h151
l27 158q25 141 122 202t224 62q45 0 86 -8l-23 -138q-41 6 -84 7q-138 0 -161 -129z" />
    <glyph glyph-name="ffl" unicode="ffl" horiz-adv-x="1800" 
d="M1579 -10q-233 0 -193 239l117 656h-446l-156 -885h-164l156 885h-447l-155 -885h-164l156 885h-152l25 139h151l29 158q25 141 121 202t223 62q45 0 88 -8l-25 -138q-41 6 -84 7q-139 0 -159 -129l-29 -154h447l28 158q25 141 120 202t222 62q47 0 88 -8l-24 -138
q-37 6 -82 7q-139 0 -162 -129l-27 -154h447l67 389h164l-207 -1175q-12 -68 15 -90t94 -21h20l-24 -133q-37 -4 -78 -4z" />
    <glyph glyph-name="ft" unicode="ft" horiz-adv-x="1247" 
d="M977 -10q-127 0 -180 82t-27 235l102 578h-426l-155 -885h-164l156 885h-152l25 139h151l23 129q31 174 122 232t230 59q43 0 86 -6l-25 -133h-84q-137 0 -159 -119l-29 -162h426l47 270l174 52l-57 -322h225l-24 -139h-226l-110 -627q-10 -59 24 -95t97 -36q20 0 81 6
l-22 -129q-72 -14 -129 -14z" />
    <glyph glyph-name="fj" unicode="fj" horiz-adv-x="1058" 
d="M950 1229l33 184h164l-33 -184h-164zM557 -399q-70 0 -117 4l23 135h84q59 0 105 31t57 90l180 1024h-426l-156 -885h-164l156 885h-152l25 139h152l28 158q25 141 122 202t224 62q20 0 86 -8l-24 -138q-37 6 -82 7q-139 0 -162 -129l-29 -154h590l-207 -1169
q-16 -95 -71 -155t-113 -80t-129 -19z" />
    <glyph glyph-name="ffj" unicode="ffj" horiz-adv-x="1689" 
d="M1581 1229l33 184h164l-33 -184h-164zM1214 -401q-80 0 -143 14l23 129q41 -6 82 -6q82 0 120 48t58 155l166 946h-447l-155 -885h-164l155 885h-446l-156 -885h-164l156 885h-152l25 139h152l28 158q25 141 122 202t224 62q43 0 86 -8l-24 -138q-37 6 -82 7
q-139 0 -162 -129l-29 -154h447l29 158q25 141 120 202q96 61 224 62q45 0 88 -8l-25 -138q-37 6 -82 7q-141 0 -164 -129l-26 -154h610l-207 -1169q-23 -129 -115 -193t-172 -63z" />
    <glyph glyph-name="fft" unicode="fft" horiz-adv-x="1898" 
d="M1587 -20q-107 0 -165 58t-38 177l119 670h-446l-156 -885h-164l156 885h-447l-155 -885h-164l156 885h-152l25 139h151l29 158q25 141 121 202t223 62q45 0 88 -8l-25 -138q-37 6 -84 7q-139 0 -159 -129l-29 -154h447l28 158q25 141 120 202t222 62q47 0 88 -8
l-24 -138q-37 6 -82 7q-139 0 -162 -129l-27 -154h447l47 270l174 52l-57 -322h204l-24 -139h-205l-115 -652q-12 -65 22 -91q56 -42 206 -13l-23 -129q-63 -20 -170 -20z" />
    <glyph glyph-name=".notdef" horiz-adv-x="829" 
d="M539 735l151 -524l184 1051zM455 606l-320 -497h465zM356 1364l144 -498l321 498h-465zM418 735l-152 531l-186 -1059zM764 0h-827l258 1473h829z" />
    <glyph glyph-name=".null" horiz-adv-x="0" 
 />
    <glyph glyph-name="nonmarkingreturn" horiz-adv-x="681" 
 />
    <glyph glyph-name="space" unicode=" " horiz-adv-x="524" 
 />
    <glyph glyph-name="exclam" unicode="!" horiz-adv-x="636" 
d="M166 0l33 195h180l-35 -195h-178zM258 332l160 1102h176l-225 -1102h-111z" />
    <glyph glyph-name="quotedbl" unicode="&#x22;" horiz-adv-x="772" 
d="M516 874l96 553h154l-96 -553h-154zM209 874l96 553h154l-97 -553h-153z" />
    <glyph glyph-name="numbersign" unicode="#" horiz-adv-x="1269" 
d="M637 901l-191 -430h297l191 430h-297zM78 0l149 334h-153l24 137h189l190 430h-244l25 137h281l170 375h159l-170 -375h297l170 375h160l-172 -375h158l-25 -137h-194l-191 -430h250l-25 -137h-284l-152 -334h-155l149 334h-299l-149 -334h-158z" />
    <glyph glyph-name="dollar" unicode="$" horiz-adv-x="1363" 
d="M475 1063q-18 -105 41 -155t184 -81l84 467q-272 -22 -309 -231zM1053 381q20 119 -43 174t-213 94l-95 -532q306 16 351 264zM961 1579l-27 -149q391 -27 358 -381h-168q8 111 -40 172t-173 71l-88 -493l62 -15q184 -45 277 -133q94 -88 62 -267t-174 -287t-372 -117
l-25 -146h-127l25 148q-219 18 -317 130q-97 112 -78 294h170q-31 -258 249 -287l99 559q-205 41 -301 125q-97 84 -69 247t156 265t347 115l27 149h127z" />
    <glyph glyph-name="percent" unicode="%" horiz-adv-x="1622" 
d="M1333 827q317 0 246 -426q-76 -422 -395 -421q-315 0 -244 421q76 426 393 426zM1315 719q-107 0 -161 -83t-81 -235q-33 -133 -5 -223t134 -90t161 81q54 81 83 232q31 133 3 225t-134 93zM555 1393q317 0 241 -424t-392 -424q-318 0 -246 422q80 426 397 426zM535 1284
q-107 0 -161 -83t-83 -234q-31 -133 -3 -223t134 -91q106 0 161 82q54 82 81 232q33 133 5 225t-134 92zM1401 1466l84 -53l-1104 -1466l-84 53z" />
    <glyph glyph-name="ampersand" unicode="&#x26;" horiz-adv-x="1236" 
d="M639 662q-305 0 -356 -271q-24 -84 25 -170q22 -37 83 -61t156 -23h282l91 525h-281zM508 0q-225 0 -327 96q-101 96 -72 260t122 255q94 91 224 116q-223 90 -185 324q29 152 151 257t337 105h229l-24 -139h-215q-142 0 -218 -68t-92 -172q-23 -72 21 -154
q18 -36 71 -59t134 -22h280l37 200h164l-37 -200h172l-25 -137h-172l-114 -662h-461z" />
    <glyph glyph-name="quotesingle" unicode="'" horiz-adv-x="464" 
d="M209 874l96 553h154l-97 -553h-153z" />
    <glyph glyph-name="parenleft" unicode="(" horiz-adv-x="538" 
d="M700 1413q-286 -403 -370 -881t61 -880h-145q-168 401 -83 879t392 882h145z" />
    <glyph glyph-name="parenright" unicode=")" horiz-adv-x="538" 
d="M-68 -348q285 408 369 882t-61 879h145q168 -403 84 -879t-393 -882h-144z" />
    <glyph glyph-name="asterisk" unicode="*" horiz-adv-x="1001" 
d="M705 1427l-56 -219l215 84l17 -108l-222 -49l115 -166l-106 -68l-80 186l-146 -186l-80 68l170 166l-204 49l57 108l186 -84l19 219h115z" />
    <glyph glyph-name="plus" unicode="+" horiz-adv-x="1198" 
d="M664 993h139l-72 -407h408l-25 -137h-407l-72 -406h-137l71 406h-407l24 137h408z" />
    <glyph glyph-name="comma" unicode="," horiz-adv-x="440" 
d="M367 195l-35 -195q-47 -135 -193 -231h-71q33 22 78 91q44 69 51 140h-62l35 195h197z" />
    <glyph glyph-name="hyphen" unicode="-" horiz-adv-x="817" 
d="M754 543l-25 -137h-584l25 137h584z" />
    <glyph glyph-name="period" unicode="." horiz-adv-x="409" 
d="M96 0l35 195h197l-35 -195h-197z" />
    <glyph glyph-name="slash" unicode="/" horiz-adv-x="704" 
d="M879 1413l-762 -1413h-160l762 1413h160z" />
    <glyph glyph-name="zero" unicode="0" horiz-adv-x="1210" 
d="M788 1393q418 0 418 -467q0 -259 -100 -514t-308 -370q-116 -62 -259 -62q-416 0 -416 462q0 321 147 617q74 147 209 241t309 93zM764 1253q-129 1 -226 -79q-96 -80 -148 -207q-103 -253 -101 -518q0 -332 274 -332q106 0 192 54q85 54 136 138t86 195q61 193 61 411
q0 338 -274 338z" />
    <glyph glyph-name="one" unicode="1" horiz-adv-x="720" 
d="M301 1174q182 0 211 178h164l-240 -1352h-164l185 1036h-269l25 138h88z" />
    <glyph glyph-name="two" unicode="2" horiz-adv-x="1144" 
d="M732 1393q186 0 290 -84t104 -223t-58 -238q-34 -58 -67 -106q-43 -63 -182 -187t-282 -226q-142 -101 -269 -192h721l-24 -137h-930l26 150q555 395 723 561t168 344q0 199 -229 198q-256 0 -334 -286h-170q51 211 189 319t324 107z" />
    <glyph glyph-name="three" unicode="3" horiz-adv-x="1081" 
d="M584 690h-142l25 139l420 383h-590l25 140h784l-25 -140l-440 -383q207 -1 308 -109t65 -317q-31 -172 -178 -298q-148 -125 -364 -125t-325 96t-90 280h166q-19 -239 267 -239q140 0 236 79q95 79 118 203q51 291 -260 291z" />
    <glyph glyph-name="four" unicode="4" horiz-adv-x="1110" 
d="M754 494l108 612l-606 -612h498zM829 0h-163l63 354h-688l25 140l839 858h164l-151 -858h180l-25 -140h-180z" />
    <glyph glyph-name="five" unicode="5" horiz-adv-x="1122" 
d="M706 870q196 0 287 -120t57 -321q-34 -200 -193 -325q-159 -124 -353 -124t-303 94t-90 282h170q-13 -129 59 -184t198 -55t224 88q96 88 120 226t-38 220t-209 82q-148 0 -249 -106q-24 -25 -34 -41l-8 -19l-156 60l209 725h742l-25 -140h-604l-145 -479
q145 137 341 137z" />
    <glyph glyph-name="six" unicode="6" horiz-adv-x="1198" 
d="M587 117q153 1 254 113t101 274q0 113 -64 171t-166 58q-236 0 -351 -194q-40 -67 -56 -133q-11 -129 59 -209t223 -80zM737 866q169 0 273 -86t104 -252q0 -223 -159 -386t-396 -162q-420 0 -420 434q0 191 63 415q63 223 215 393q71 79 172 125t220 46q201 -1 293 -107
t78 -239h-162q0 207 -234 206q-371 0 -467 -622q150 235 420 235z" />
    <glyph glyph-name="seven" unicode="7" horiz-adv-x="1007" 
d="M1090 1352l-25 -140l-754 -1212h-164l756 1212h-729l25 140h891z" />
    <glyph glyph-name="eight" unicode="8" 
d="M682 801q109 0 198 55t109 178q27 153 -104 200q-54 19 -107 19q-281 0 -319 -219q-20 -123 47 -178t176 -55zM658 662q-134 0 -244 -73t-131 -208q-12 -68 2 -118q41 -146 283 -146q102 0 183 34q156 65 185 230q23 135 -60 208q-84 73 -218 73zM534 -20
q-234 0 -344 104q-111 104 -77 295q42 246 323 350q-184 102 -145 307q25 152 152 254q128 102 344 102q217 0 307 -102t65 -254q-20 -114 -92 -190t-162 -117q242 -104 199 -350q-33 -188 -184 -294q-152 -105 -386 -105z" />
    <glyph glyph-name="nine" unicode="9" horiz-adv-x="1193" 
d="M728 1255q-151 0 -253 -103t-102 -259q-2 -106 64 -167q67 -60 167 -60q236 0 349 179q44 68 55 126q6 119 -62 201t-218 83zM590 532q-170 0 -276 88t-107 248q0 221 160 373t393 152q412 0 411 -447q0 -267 -94 -507q-51 -130 -125 -231q-74 -100 -190 -164t-254 -64
q-207 0 -297 102t-80 237h164q4 -200 227 -200q117 0 206 59q144 95 222 363q29 98 45 213q-149 -222 -405 -222z" />
    <glyph glyph-name="colon" unicode=":" horiz-adv-x="409" 
d="M242 829l34 195h197l-35 -195h-196zM96 0l35 195h197l-35 -195h-197z" />
    <glyph glyph-name="semicolon" unicode=";" horiz-adv-x="440" 
d="M268 829l35 195h197l-35 -195h-197zM367 195l-35 -195q-47 -135 -193 -231h-71q33 22 78 91q44 69 51 140h-62l35 195h197z" />
    <glyph glyph-name="less" unicode="&#x3c;" horiz-adv-x="1198" 
d="M1018 59l-823 387l24 142l961 387l-29 -164l-774 -295l670 -295z" />
    <glyph glyph-name="equal" unicode="=" horiz-adv-x="1196" 
d="M166 418l24 137h889l-24 -137h-889zM233 795l25 139h889l-25 -139h-889z" />
    <glyph glyph-name="greater" unicode="&#x3e;" horiz-adv-x="1198" 
d="M287 975l823 -387l-25 -144l-960 -387l29 164l774 295l-670 295z" />
    <glyph glyph-name="question" unicode="?" horiz-adv-x="1126" 
d="M375 0l33 195h180l-35 -195h-178zM736 1434q208 0 298 -98t62 -264q-28 -165 -215 -304q-101 -76 -145 -121q-94 -95 -132 -315h-164q35 199 89 290q54 92 153 168q100 76 132 106t68 81t49 123t-35 132q-48 62 -183 62t-213 -79t-97 -175h-167q27 152 159 273
q134 121 341 121z" />
    <glyph glyph-name="at" unicode="@" horiz-adv-x="1998" 
d="M1319 1579q351 0 541 -213t127 -575q-51 -287 -221 -473t-410 -187q-121 0 -165 49t-32 129q4 33 8 45q-55 -59 -144 -103t-211 -44t-190 84q-68 85 -42 235q58 323 300 497q126 91 269 91q190 0 231 -139l41 115h138l-250 -711q-47 -133 86 -133q178 0 298 164t158 383
q51 287 -95 478t-453 191q-191 0 -371 -78q-346 -150 -544 -499q-93 -164 -124 -336q-51 -293 92 -476t439 -184q227 0 428 117l-49 -147q-199 -88 -404 -88q-324 1 -515 203t-128 569q35 201 142 389q228 396 624 561q207 86 426 86zM885 324q244 0 368 289q31 71 43 141
q43 244 -155 243q-154 0 -268 -138t-142 -308q-41 -227 154 -227z" />
    <glyph glyph-name="A" unicode="A" horiz-adv-x="1316" 
d="M817 1241l-418 -780h559zM940 1413l274 -1413h-170l-59 313h-666l-174 -313h-168l775 1413h188z" />
    <glyph glyph-name="B" unicode="B" horiz-adv-x="1329" 
d="M840 797q131 0 209 83t77 214q0 92 -47 136t-153 44h-406l-86 -477h406zM731 137q147 0 236 90q88 90 88 228q0 205 -234 204h-411l-91 -522h412zM971 1413q147 0 237 -73t90 -217t-82 -247t-223 -149q231 -41 232 -276q-1 -195 -139 -323t-365 -128h-590l250 1413h590z
" />
    <glyph glyph-name="C" unicode="C" horiz-adv-x="1449" 
d="M965 1434q258 0 385 -134t118 -335h-168q6 161 -87 245t-241 84q-385 0 -549 -327q-93 -186 -91 -410q0 -440 403 -440q184 0 312 104q127 104 184 262h166q-72 -219 -246 -361t-432 -142t-407 145q-148 145 -148 423t133 510t375 324q133 52 293 52z" />
    <glyph glyph-name="D" unicode="D" horiz-adv-x="1411" 
d="M844 1413q76 0 137 -8t139 -40t130 -86q52 -55 89 -157t37 -256t-48 -309q-48 -153 -140 -279t-246 -202t-348 -76h-463l250 1413h463zM598 137q197 -1 338 103q272 200 270 626q0 212 -92 310t-315 98h-279l-201 -1137h279z" />
    <glyph glyph-name="E" unicode="E" horiz-adv-x="1191" 
d="M1280 1413l-25 -139h-733l-84 -477h613l-25 -138h-612l-92 -522h733l-25 -137h-899l250 1413h899z" />
    <glyph glyph-name="F" unicode="F" horiz-adv-x="1169" 
d="M1307 1413l-25 -139h-762l-88 -494h662l-25 -139h-661l-113 -641h-164l250 1413h926z" />
    <glyph glyph-name="G" unicode="G" horiz-adv-x="1552" 
d="M711 -20q-256 0 -404 141q-147 141 -147 416q0 167 56 327t158 287t258 205q157 78 355 78t357 -108t163 -361h-164q-8 153 -100 241t-262 88t-294 -64q-228 -119 -316 -409q-41 -131 -41 -272q0 -432 411 -432q434 0 547 467h-385l25 137h553l-127 -721h-129l18 240
q-193 -260 -532 -260z" />
    <glyph glyph-name="H" unicode="H" horiz-adv-x="1441" 
d="M1434 1413l-250 -1413h-164l117 653h-727l-115 -653h-164l250 1413h164l-111 -620h727l109 620h164z" />
    <glyph glyph-name="I" unicode="I" horiz-adv-x="552" 
d="M295 0h-164l250 1413h164z" />
    <glyph glyph-name="J" unicode="J" horiz-adv-x="1198" 
d="M477 -20q-426 0 -428 376q0 53 12 119h164q-12 -55 -12 -108q0 -250 272 -250q172 0 266 103q93 103 119 257l166 936h164l-160 -905q-44 -254 -194 -391t-369 -137z" />
    <glyph glyph-name="K" unicode="K" horiz-adv-x="1308" 
d="M1364 1413l-526 -500l387 -913h-178l-334 799l-334 -324l-84 -475h-164l250 1413h164l-129 -719l737 719h211z" />
    <glyph glyph-name="L" unicode="L" horiz-adv-x="1114" 
d="M319 137h697l-25 -137h-860l250 1413h164z" />
    <glyph glyph-name="M" unicode="M" horiz-adv-x="1781" 
d="M1532 1413h242l-250 -1413h-164l209 1176l-662 -1176h-166l-233 1206l-213 -1206h-164l250 1413h256l223 -1218z" />
    <glyph glyph-name="N" unicode="N" horiz-adv-x="1517" 
d="M1509 1413l-249 -1413h-189l-563 1200l-213 -1200h-164l250 1413h209l549 -1167l207 1167h163z" />
    <glyph glyph-name="O" unicode="O" horiz-adv-x="1556" 
d="M705 -20q-254 0 -400 140q-145 140 -145 416t139 514q139 237 385 332q133 51 287 52q259 0 403 -143t144 -420t-135 -500q-149 -249 -391 -340q-134 -51 -287 -51zM1348 876q0 204 -103 310q-103 108 -271 108t-290 -66q-224 -121 -313 -413q-41 -131 -41 -268
q0 -430 387 -430q197 0 344 111q287 219 287 648z" />
    <glyph glyph-name="P" unicode="P" horiz-adv-x="1261" 
d="M967 1413q149 0 243 -81t95 -255q-1 -217 -133 -361t-353 -145h-422l-102 -571h-164l250 1413h586zM823 709q141 0 226 97q84 97 84 249q0 219 -211 219h-400l-100 -565h401z" />
    <glyph glyph-name="Q" unicode="Q" horiz-adv-x="1556" 
d="M974 1294q-168 0 -290 -66q-224 -121 -313 -413q-41 -131 -41 -268q0 -430 387 -430q156 0 278 78l-139 239l137 88l140 -235q104 104 159 257t56 316q0 218 -103 326t-271 108zM705 -20q-254 0 -400 140q-145 140 -145 416t139 514q139 237 385 332q133 51 287 52
q258 0 402 -142t145 -420q0 -203 -80 -394t-230 -320l123 -205l-143 -84l-119 201q-170 -90 -364 -90z" />
    <glyph glyph-name="R" unicode="R" horiz-adv-x="1288" 
d="M827 752q141 0 227 90q85 90 85 241q0 99 -48 145t-167 46h-404l-90 -522h397zM971 1413q154 0 247 -76q93 -77 93 -243q1 -166 -95 -298t-272 -165l182 -631h-170l-178 614h-372l-109 -614h-166l250 1413h590z" />
    <glyph glyph-name="S" unicode="S" horiz-adv-x="1306" 
d="M826 1298q-154 0 -269 -68t-115 -212q0 -131 175 -178q73 -19 139 -33q248 -53 346 -130t98 -214q0 -225 -177 -354t-431 -129t-370 114t-95 312h168q-14 -139 64 -216q79 -76 255 -76t294 81q118 80 118 241q0 84 -51 123q-31 25 -51 38q-38 25 -224 67q-185 42 -253 72
t-102 61q-79 72 -79 188q0 209 170 329q171 120 420 120t340 -121q78 -103 68 -264h-170q10 125 -52 187t-216 62z" />
    <glyph glyph-name="T" unicode="T" horiz-adv-x="1185" 
d="M1313 1413l-25 -139h-452l-226 -1274h-164l226 1274h-453l25 139h1069z" />
    <glyph glyph-name="U" unicode="U" horiz-adv-x="1415" 
d="M660 -20q-246 0 -355 99t-110 269q0 68 10 119l166 946h164l-170 -967q-6 -43 -7 -79q0 -119 77 -185t231 -65q356 0 417 329l170 967h164l-168 -946q-37 -219 -191 -353q-152 -134 -398 -134z" />
    <glyph glyph-name="V" unicode="V" horiz-adv-x="1277" 
d="M1425 1413l-753 -1413h-187l-260 1413h166l215 -1263l649 1263h170z" />
    <glyph glyph-name="W" unicode="W" horiz-adv-x="1837" 
d="M1985 1413l-646 -1413h-161l-109 1184l-524 -1184h-174l-146 1413h162l113 -1200l528 1200h164l106 -1200l523 1200h164z" />
    <glyph glyph-name="X" unicode="X" horiz-adv-x="1239" 
d="M1352 1413l-572 -678l357 -735h-195l-278 614l-506 -614h-181l631 741l-325 672h194l244 -555l446 555h185z" />
    <glyph glyph-name="Y" unicode="Y" horiz-adv-x="1198" 
d="M451 0l102 578l-328 835h174l260 -696l500 696h187l-627 -835l-103 -578h-165z" />
    <glyph glyph-name="Z" unicode="Z" horiz-adv-x="1222" 
d="M1327 1413l-24 -139l-1076 -1137h879l-25 -137h-1067l25 137l1073 1137h-850l25 139h1040z" />
    <glyph glyph-name="bracketleft" unicode="[" horiz-adv-x="575" 
d="M27 -348l309 1761h381l-25 -139h-217l-260 -1485h217l-24 -137h-381z" />
    <glyph glyph-name="backslash" unicode="\" horiz-adv-x="696" 
d="M461 0l-264 1413h161l263 -1413h-160z" />
    <glyph glyph-name="bracketright" unicode="]" horiz-adv-x="575" 
d="M639 1413l-309 -1761h-379l24 137h215l261 1485h-218l25 139h381z" />
    <glyph glyph-name="asciicircum" unicode="^" horiz-adv-x="1361" 
d="M915 1409l328 -795h-182l-252 648l-481 -648h-174l606 795h155z" />
    <glyph glyph-name="underscore" unicode="_" horiz-adv-x="974" 
d="M-25 -250l17 103h973l-17 -103h-973z" />
    <glyph glyph-name="grave" unicode="`" horiz-adv-x="686" 
d="M315 1413h205l101 -266h-138z" />
    <glyph glyph-name="a" unicode="a" horiz-adv-x="1185" 
d="M510 117q104 0 184 49q137 84 189 288q20 83 20 167q0 285 -235 284q-127 0 -218 -86q-167 -158 -167 -430t227 -272zM111 356q0 176 60 328q60 150 187 255t289 105q113 0 192 -52t113 -144l58 176h139l-180 -1024h-140l11 174q-152 -195 -377 -194q-160 0 -256 100
t-96 276z" />
    <glyph glyph-name="b" unicode="b" horiz-adv-x="1185" 
d="M571 117q127 0 220 86q174 162 167 436q0 266 -227 266q-98 0 -178 -48t-126 -125q-95 -159 -93 -337q4 -278 237 -278zM1128 647q0 -239 -134 -443q-65 -100 -170 -162t-232 -62q-231 0 -309 194l-50 -174h-139l248 1413h164l-100 -565q147 197 372 196q160 0 255 -103
t95 -294z" />
    <glyph glyph-name="c" unicode="c" horiz-adv-x="1138" 
d="M952 659v21q0 102 -58 164t-179 61q-193 1 -305 -151t-113 -325q0 -173 75 -243t199 -69q256 0 334 229h168q-53 -164 -185 -265t-337 -101t-313 105t-109 310q0 264 164 457t442 192q189 0 285 -94t100 -252q0 -29 -2 -39h-166z" />
    <glyph glyph-name="d" unicode="d" horiz-adv-x="1185" 
d="M510 117q104 0 184 49q137 84 189 288q20 83 20 167q0 285 -235 284q-127 0 -218 -86q-167 -158 -167 -430t227 -272zM111 356q0 176 60 328q60 150 187 255t289 105q113 0 192 -52t113 -144l101 565h164l-248 -1413h-140l11 174q-152 -195 -377 -194q-160 0 -256 100
t-96 276z" />
    <glyph glyph-name="e" unicode="e" horiz-adv-x="1159" 
d="M958 664q0 104 -56 174t-191 71q-135 0 -237 -87t-144 -228h622q6 37 6 70zM540 -20q-188 0 -300 102t-111 286q0 382 278 578q140 98 324 98q185 0 287 -103t102 -290q0 -70 -20 -180h-799q-6 -45 -6 -90q-1 -127 67 -198t188 -71t209 56q89 55 128 137h170
q-59 -145 -193 -235q-136 -90 -324 -90z" />
    <glyph glyph-name="f" unicode="f" horiz-adv-x="630" 
d="M498 1178l-27 -154h205l-27 -139h-203l-157 -885h-164l158 885h-152l25 139h151l27 158q25 141 122 202t224 62q45 0 86 -8l-23 -138q-41 6 -84 7q-138 0 -161 -129z" />
    <glyph glyph-name="g" unicode="g" horiz-adv-x="1095" 
d="M709 905q-147 0 -224 -69q-76 -70 -75 -170q0 -166 202 -166q121 0 212 66t91 179q1 160 -206 160zM211 -123q0 -154 283 -153q156 0 270 47t115 145q0 98 -91 124q-76 21 -213 21l-143 7q-82 -2 -152 -56t-69 -135zM1085 768q0 -188 -141 -297t-334 -109q-125 0 -192 37
q-37 -10 -67 -39t-29 -65q0 -55 75 -76q77 -20 183 -23q106 -4 214 -16t182 -70t75 -169q0 -175 -165 -263t-376 -88t-340 60t-129 194q0 100 70 176t176 105q-59 12 -99 50q-38 39 -38 101t53 112t129 69q-92 72 -92 196q0 183 136 287t341 104q143 0 235 -53
q62 127 248 127l-24 -139q-64 0 -92 -11t-48 -46q49 -59 49 -154z" />
    <glyph glyph-name="h" unicode="h" horiz-adv-x="1169" 
d="M817 1044q283 0 279 -280q0 -47 -13 -121l-112 -643h-164l111 623q8 49 8 121t-42 116q-42 45 -139 45q-147 0 -257 -103t-138 -270l-94 -532h-164l250 1413h164l-105 -586q172 217 416 217z" />
    <glyph glyph-name="i" unicode="i" horiz-adv-x="475" 
d="M506 1413l-33 -184h-164l33 184h164zM256 0h-164l180 1024h164z" />
    <glyph glyph-name="j" unicode="j" horiz-adv-x="438" 
d="M330 1229l32 184h164l-32 -184h-164zM-90 -399q-31 0 -86 6l24 139q53 -8 82 -8q137 0 160 125l205 1161h164l-205 -1161q-25 -139 -121 -201t-223 -61z" />
    <glyph glyph-name="k" unicode="k" horiz-adv-x="1062" 
d="M506 1413l-160 -897l531 508h217l-424 -397l311 -627h-188l-246 512l-240 -221l-51 -291h-164l250 1413h164z" />
    <glyph glyph-name="l" unicode="l" horiz-adv-x="544" 
d="M324 -10q-231 0 -191 239l209 1184h164l-209 -1175q-9 -68 17 -90t92 -21h20l-23 -133q-37 -4 -79 -4z" />
    <glyph glyph-name="m" unicode="m" horiz-adv-x="1740" 
d="M1440 1044q92 0 150 -40t74 -98q41 -147 9 -255l-114 -651h-164l110 625q49 281 -139 280q-121 0 -223 -98t-131 -262l-97 -545h-163l110 625q8 70 10 132t-34 105q-37 43 -115 43q-127 0 -226 -103t-128 -261l-97 -541h-163l180 1024h137l-16 -209q164 229 383 229
q125 0 185 -68t64 -171q160 239 398 239z" />
    <glyph glyph-name="n" unicode="n" horiz-adv-x="1169" 
d="M834 1044q279 0 278 -274q0 -53 -12 -127l-113 -643h-164l111 623q8 51 8 102q0 96 -44 138t-142 42q-145 0 -253 -104t-134 -260l-97 -541h-163l180 1024h137l-16 -211q168 231 424 231z" />
    <glyph glyph-name="o" unicode="o" 
d="M752 1044q192 0 303 -108t110 -313q0 -263 -168 -453t-446 -190q-197 0 -309 106t-113 292q0 186 72 332t215 240q144 94 336 94zM733 905q-197 1 -315 -151t-119 -353q0 -139 70 -212t192 -72q199 -1 317 151t117 348q0 135 -64 212q-65 77 -198 77z" />
    <glyph glyph-name="p" unicode="p" horiz-adv-x="1185" 
d="M750 905q-146 0 -242 -103q-96 -104 -128 -286t24 -291t206 -109t243 107q93 105 126 289t-25 288t-204 105zM625 -20q-231 0 -303 194l-101 -563h-164l250 1413h139l-12 -174q147 195 375 194q189 0 287 -138t53 -391t-191 -394t-333 -141z" />
    <glyph glyph-name="q" unicode="q" horiz-adv-x="1185" 
d="M696 905q-147 0 -242 -104q-95 -103 -128 -287t23 -290t206 -107q150 1 245 109t128 290q31 182 -27 286t-205 103zM682 1044q227 0 309 -194l51 174h140l-250 -1413h-164l98 563q-141 -195 -370 -194q-190 0 -287 141q-96 141 -51 394t190 391t334 138z" />
    <glyph glyph-name="r" unicode="r" horiz-adv-x="751" 
d="M795 1034q37 0 71 -6l-24 -143q-33 10 -86 10q-160 0 -261 -102t-133 -281l-90 -512h-163l180 1024h135l-16 -219q147 229 387 229z" />
    <glyph glyph-name="s" unicode="s" horiz-adv-x="1034" 
d="M495 113q115 0 197 49t82 146t-99 126q-46 14 -111 22q-64 9 -89 13q-131 23 -199 69t-67 167q0 159 130 249t309 90t262 -85t83 -211q0 -14 -2 -23h-162v8q-4 84 -46 130q-41 46 -147 46t-182 -44t-75 -136q0 -59 29 -79q29 -19 43 -28q30 -19 136 -30q175 -18 268 -71
t91 -191q0 -164 -134 -257t-330 -93t-285 82q-90 82 -91 208q0 23 3 37h163l-2 -26q0 -78 56 -123t169 -45z" />
    <glyph glyph-name="t" unicode="t" horiz-adv-x="698" 
d="M398 -20q-100 0 -157 44q-58 44 -59 134q0 20 6 57l119 670h-151l24 139h150l49 270l172 52l-57 -322h206l-24 -139h-205l-115 -652q-4 -25 -4 -32q0 -84 123 -84q48 0 109 12l-23 -129q-63 -20 -163 -20z" />
    <glyph glyph-name="u" unicode="u" horiz-adv-x="1155" 
d="M422 -20q-127 0 -194 57t-71 145q-5 88 9 197l113 645h163l-108 -623q-10 -72 -13 -135t39 -106t132 -43q144 0 252 105t137 263l94 539h164l-181 -1024h-137l17 209q-168 -229 -416 -229z" />
    <glyph glyph-name="v" unicode="v" horiz-adv-x="1048" 
d="M1155 1024l-598 -1024h-160l-233 1024h168l174 -870l479 870h170z" />
    <glyph glyph-name="w" unicode="w" horiz-adv-x="1468" 
d="M1575 1024l-496 -1024h-157l-80 840l-385 -840h-162l-131 1024h166l84 -836l374 836h168l84 -836l371 836h164z" />
    <glyph glyph-name="x" unicode="x" horiz-adv-x="987" 
d="M1077 1024l-440 -496l285 -528h-197l-207 418l-364 -418h-181l482 526l-271 498h197l186 -387l330 387h180z" />
    <glyph glyph-name="y" unicode="y" horiz-adv-x="972" 
d="M117 -401h-105l25 137h82q61 0 101 28t79 101l96 174l-215 985h174l150 -811l432 811h160l-680 -1235q-111 -190 -299 -190z" />
    <glyph glyph-name="z" unicode="z" horiz-adv-x="985" 
d="M1026 1024l-25 -139l-757 -748h661l-24 -137h-871l27 137l756 748h-605l25 139h813z" />
    <glyph glyph-name="braceleft" unicode="{" horiz-adv-x="702" 
d="M821 1413h23l-25 -139h-18q-78 0 -122 -48t-67 -173l-55 -308q-16 -88 -42 -134t-83 -79q45 -34 55 -80t-6 -133l-69 -397q-23 -133 127 -133h20l-24 -137h-23q-172 0 -229 72t-25 258l64 350q12 66 -23 98t-129 33l25 139q174 0 196 131l62 350q33 188 114 259
q82 71 254 71z" />
    <glyph glyph-name="bar" unicode="|" horiz-adv-x="630" 
d="M125 -348l309 1761h164l-309 -1761h-164z" />
    <glyph glyph-name="braceright" unicode="}" horiz-adv-x="702" 
d="M-6 -211q150 0 172 133l70 397q16 87 42 133t82 80q-45 33 -55 80t6 133l56 308q23 125 -7 173t-106 48h-21l25 139h25q172 0 228 -71t24 -259l-62 -350q-12 -67 23 -99t129 -32l-25 -139q-177 0 -197 -131l-63 -350q-33 -188 -114 -260t-251 -70h-24l24 137h19z" />
    <glyph glyph-name="asciitilde" unicode="~" horiz-adv-x="1036" 
d="M426 539q-82 0 -96 -93h-121q39 215 233 216q72 0 150 -48t117 -47q82 0 94 95h121q-37 -215 -234 -216q-72 0 -146 46t-118 47z" />
    <glyph glyph-name="exclamdown" unicode="&#xa1;" horiz-adv-x="636" 
d="M131 -389l225 1081h109l-158 -1081h-176zM346 829l35 195h178l-35 -195h-178z" />
    <glyph glyph-name="cent" unicode="&#xa2;" horiz-adv-x="1134" 
d="M702 1110q-134 0 -240 -97t-144 -300q-36 -203 40 -297t222 -94q250 0 333 229h168q-55 -150 -175 -251t-306 -114l-33 -186h-104l33 186q-199 16 -293 156t-53 372q41 234 184 374t350 159l29 164h102l-29 -164q182 -14 267 -125t73 -258h-168q6 114 -58 180t-198 66z
" />
    <glyph glyph-name="sterling" unicode="&#xa3;" horiz-adv-x="1198" 
d="M812 1413q204 0 289 -92t48 -291h-168q25 136 -27 188t-161 52q-221 0 -263 -211l-65 -377h377l-23 -131h-377l-47 -270q-18 -96 -108 -140h452q142 4 195 87q37 59 51 143h168q-13 -70 -33 -123q-20 -54 -65 -114q-97 -131 -334 -134h-717l25 141q176 0 196 140l47 270
h-170l25 131h170l65 377q20 118 118 228q50 56 138 91t194 35z" />
    <glyph glyph-name="currency" unicode="&#xa4;" horiz-adv-x="1198" 
d="M1208 1069l82 -100l-160 -133q82 -141 54 -324q-37 -184 -168 -322l112 -135l-116 -100l-111 135q-164 -110 -344 -110t-303 110l-158 -135l-82 100l158 135q-84 144 -52 324t167 322l-111 133l117 100l110 -135q160 110 343 110t303 -110zM584 127q158 0 292 113
q134 112 160 272t-67 272q-94 112 -251 111q-157 0 -290 -112q-133 -111 -161 -271q-29 -160 65 -272t252 -113z" />
    <glyph glyph-name="yen" unicode="&#xa5;" horiz-adv-x="1198" 
d="M1364 1413l-541 -731h279l-21 -119h-344l-32 -180h344l-21 -119h-344l-47 -264h-166l47 264h-354l22 119h353l32 180h-354l23 119h286l-280 731h186l254 -702l500 702h178z" />
    <glyph glyph-name="brokenbar" unicode="&#xa6;" horiz-adv-x="475" 
d="M47 -348l129 733h164l-129 -733h-164zM227 680l129 733h164l-129 -733h-164z" />
    <glyph glyph-name="section" unicode="&#xa7;" horiz-adv-x="1044" 
d="M827 655q14 81 -31 126t-247 69q-170 -25 -195 -164q-16 -99 56 -131t156 -46q83 -13 112 -20q120 35 149 166zM701 1434q200 0 278 -92t70 -228h-164q4 84 -44 134t-165 50q-209 0 -236 -157q-16 -95 57 -122q73 -28 139 -36t69 -8q151 -20 235 -86t59 -211
q-33 -180 -190 -232q59 -29 91 -90t16 -155t-71 -159q-54 -66 -130 -94q-135 -50 -264 -50q-250 0 -322 106t-45 221h168q-16 -62 23 -128t202 -66q238 0 268 164q8 20 3 39q-6 19 -8 35t-26 36q-24 21 -46 29t-37 13q-14 5 -42 11t-51 12t-88 19q-120 25 -202 83
q-83 58 -60 192q14 82 72 150t137 91q-63 20 -102 86t-25 150q23 117 127 205t304 88z" />
    <glyph glyph-name="dieresis" unicode="&#xa8;" horiz-adv-x="1048" 
d="M375 1229l33 184h180l-33 -184h-180zM692 1229l33 184h180l-33 -184h-180z" />
    <glyph glyph-name="copyright" unicode="&#xa9;" horiz-adv-x="1507" 
d="M746 295q-144 0 -224 105t-46 300t152 304q118 108 276 108t224 -81q68 -81 62 -181h-98q4 74 -45 125t-166 51t-200 -86t-110 -239t27 -237t171 -83q117 0 187 55t97 142h94q-47 -145 -153 -214q-104 -69 -248 -69zM716 102q250 0 456 176t250 426q44 248 -101 424
t-393 176t-456 -176t-252 -424t102 -424q146 -178 394 -178zM682 -4q-284 0 -451 211t-115 504t299 497t531 203q236 -1 397 -143t181 -361q20 -119 -13 -262q-69 -281 -307 -465t-522 -184z" />
    <glyph glyph-name="ordfeminine" unicode="&#xaa;" horiz-adv-x="724" 
d="M382 788q72 0 144 50t86 131l13 73l-127 -18q-117 -14 -172 -46q-54 -32 -64 -85t19 -79t101 -26zM537 1423q291 0 239 -293l-76 -438h-110v99q-104 -113 -258 -113q-111 0 -170 52t-41 151q37 203 391 241l129 17l8 30q20 143 -128 143t-183 -118h-137q29 98 110 164
q83 65 226 65z" />
    <glyph glyph-name="guillemotleft" unicode="&#xab;" horiz-adv-x="1214" 
d="M1190 965l-406 -449l246 -455h-172l-242 455l402 449h172zM766 965l-406 -449l246 -455h-172l-241 455l401 449h172z" />
    <glyph glyph-name="logicalnot" unicode="&#xac;" horiz-adv-x="1198" 
d="M182 569l23 136h966l-94 -535h-164l72 399h-803z" />
    <glyph glyph-name="registered" unicode="&#xae;" horiz-adv-x="1507" 
d="M953 1411q292 0 460 -212t116 -505q-52 -292 -300 -496t-540 -204t-459 211q-166 211 -114 503t298 498q246 205 539 205zM716 102q250 0 456 176t250 424q44 250 -101 426t-394 176t-456 -176q-207 -178 -251 -426t102 -424t394 -176zM938 1096q102 0 162 -50
q25 -22 39 -69t1 -117q-14 -70 -74 -140t-181 -73l168 -338h-109l-160 336h-141l-59 -336h-95l140 787h309zM887 731q75 0 111 41t45 92q18 104 -39 128q-44 18 -70 18h-227l-50 -279h230z" />
    <glyph glyph-name="macron" unicode="&#xaf;" horiz-adv-x="1019" 
d="M907 1366l-24 -143h-545l24 143h545z" />
    <glyph glyph-name="degree" unicode="&#xb0;" horiz-adv-x="843" 
d="M594 1440q88 0 139 -64t36 -151q-15 -89 -89 -151t-162 -62t-139 62t-36 152t89 152t162 62zM536 1112q46 0 85 33t49 80q8 47 -20 81t-74 34t-86 -34t-48 -80t20 -80t74 -34z" />
    <glyph glyph-name="plusminus" unicode="&#xb1;" horiz-adv-x="1198" 
d="M682 1192h141l-65 -371h370l-22 -141h-371l-67 -373h-142l66 373h-369l25 141h368zM1008 135l-23 -135h-883l25 135h881z" />
    <glyph glyph-name="twosuperior" unicode="&#xb2;" horiz-adv-x="700" 
d="M511 1516q126 0 189 -66t44 -172t-123 -212t-355 -278h404l-19 -108h-571l20 117q299 201 398 297q98 96 112 172q25 141 -116 141q-133 0 -172 -156h-134q31 129 114 197t209 68z" />
    <glyph glyph-name="threesuperior" unicode="&#xb3;" horiz-adv-x="665" 
d="M369 780q74 0 123 40t59 106q31 152 -135 151h-94l20 109l217 200h-326l21 109h483l-20 -109l-238 -200q105 0 167 -65t41 -183t-113 -193q-92 -73 -221 -73q-127 0 -199 60t-60 173h131q-4 -61 33 -93t111 -32z" />
    <glyph glyph-name="acute" unicode="&#xb4;" horiz-adv-x="921" 
d="M571 1413h205l-260 -266h-137z" />
    <glyph glyph-name="mu" unicode="&#xb5;" horiz-adv-x="1159" 
d="M521 117q130 0 238 99t134 247l98 561h164l-180 -1024h-137l12 190q-160 -211 -385 -210q-123 0 -178 63l-78 -432h-164l250 1413h164l-111 -627q-29 -154 7 -217t166 -63z" />
    <glyph glyph-name="paragraph" unicode="&#xb6;" horiz-adv-x="1388" 
d="M725 1407h604l-289 -1638h-163l266 1499h-277l-266 -1499h-164l152 849q-164 0 -260 116t-67 279q28 163 164 279t300 115z" />
    <glyph glyph-name="periodcentered" unicode="&#xb7;" horiz-adv-x="409" 
d="M133 393l33 195h196l-32 -195h-197z" />
    <glyph glyph-name="cedilla" unicode="&#xb8;" horiz-adv-x="964" 
d="M416 -303q82 0 90 49q6 37 -20 51q-49 26 -152 8l125 195h92l-62 -94q90 0 125 -44t23 -113q-11 -69 -67 -114t-140 -45t-118 13q-35 13 -46 20q-12 8 -14 8l20 111q62 -45 144 -45z" />
    <glyph glyph-name="onesuperior" unicode="&#xb9;" horiz-adv-x="468" 
d="M248 1380q106 0 127 115h127l-144 -811h-127l105 588h-168l18 108h62z" />
    <glyph glyph-name="ordmasculine" unicode="&#xba;" horiz-adv-x="786" 
d="M577 1421q166 0 244 -97t46 -275t-143 -276q-112 -97 -278 -97t-246 98t-50 274q31 176 146 275q115 98 281 98zM555 1307q-104 0 -174 -67q-69 -66 -91 -192t24 -192t150 -66t173 66q70 66 91 192t-24 192t-149 67z" />
    <glyph glyph-name="guillemotright" unicode="&#xbb;" horiz-adv-x="1208" 
d="M938 516l-246 449h174l240 -449l-399 -455h-175zM518 516l-246 449h174l240 -449l-399 -455h-174z" />
    <glyph glyph-name="onequarter" unicode="&#xbc;" horiz-adv-x="1402" 
d="M1190 1466l84 -53l-1102 -1466l-84 53zM213 1380q106 0 127 115h127l-143 -811h-127l104 588h-168l19 108h61zM1155 315l55 306l-307 -306h252zM1229 0h-129l37 207h-404l21 108l489 496h129l-88 -496h115l-21 -108h-114z" />
    <glyph glyph-name="onehalf" unicode="&#xbd;" horiz-adv-x="1421" 
d="M1161 1466l84 -53l-1102 -1466l-84 53zM1111 825q126 1 189 -65t44 -172t-123 -212t-355 -278h404l-19 -108h-571l20 116q299 201 398 297q98 96 112 172q25 141 -112 141t-176 -155h-134q31 129 114 197t209 67zM248 1380q106 0 127 115h127l-144 -811h-127l105 588
h-168l18 108h62z" />
    <glyph glyph-name="threequarters" unicode="&#xbe;" horiz-adv-x="1560" 
d="M1393 1466l84 -53l-1102 -1466l-84 53zM426 780q74 0 123 40t59 106q31 152 -135 151h-94l20 109l217 200h-325l20 109h484l-21 -109l-237 -200q105 0 167 -65t40 -183t-113 -193q-93 -73 -221 -73t-200 60t-58 173h131q-3 -61 33 -93t110 -32zM1313 315l55 306
l-307 -306h252zM1384 0h-127l35 207h-401l20 108l490 496h127l-86 -496h114l-20 -108h-115z" />
    <glyph glyph-name="questiondown" unicode="&#xbf;" horiz-adv-x="1126" 
d="M801 1024l-33 -195h-180l35 195h178zM440 -410q-207 0 -298 98t-62 264q29 165 215 304q100 76 144 121q92 94 134 315h164q-37 -199 -91 -290q-54 -92 -152 -168t-132 -106q-32 -30 -68 -81t-49 -123t35 -134t183 -62t213 80t96 176h168q-27 -152 -160 -273t-340 -121z
" />
    <glyph glyph-name="Agrave" unicode="&#xc0;" horiz-adv-x="1316" 
d="M633 1823h205l100 -267h-137zM817 1241l-418 -780h559zM940 1413l274 -1413h-170l-59 313h-666l-174 -313h-168l775 1413h188z" />
    <glyph glyph-name="Aacute" unicode="&#xc1;" horiz-adv-x="1316" 
d="M879 1823h204l-260 -267h-137zM817 1241l-418 -780h559zM940 1413l274 -1413h-170l-59 313h-666l-174 -313h-168l775 1413h188z" />
    <glyph glyph-name="Acircumflex" unicode="&#xc2;" horiz-adv-x="1316" 
d="M928 1823l159 -267h-122l-131 177l-195 -177h-125l254 267h160zM817 1241l-418 -780h559zM940 1413l274 -1413h-170l-59 313h-666l-174 -313h-168l775 1413h188z" />
    <glyph glyph-name="Atilde" unicode="&#xc3;" horiz-adv-x="1316" 
d="M690 1708q-76 0 -96 -86h-121q39 197 238 201q71 1 139 -57t113 -58q74 0 98 86h121q-6 -31 -19 -59q-59 -142 -225 -142q-66 -1 -134 57t-114 58zM817 1241l-418 -780h559zM940 1413l274 -1413h-170l-59 313h-666l-174 -313h-168l775 1413h188z" />
    <glyph glyph-name="Adieresis" unicode="&#xc4;" horiz-adv-x="1316" 
d="M563 1638l33 185h180l-33 -185h-180zM881 1638l32 185h181l-33 -185h-180zM817 1241l-418 -780h559zM940 1413l274 -1413h-170l-59 313h-666l-174 -313h-168l775 1413h188z" />
    <glyph glyph-name="Aring" unicode="&#xc5;" horiz-adv-x="1316" 
d="M865 1931q81 0 127 -56t32 -138q-14 -81 -81 -139t-147 -58t-128 57q-47 57 -33 139q13 82 81 138q68 57 149 57zM813 1642q39 0 71 28t38 67t-16 65t-60 27q-38 0 -71 -28q-34 -27 -40 -65q-5 -38 17 -66t61 -28zM817 1241l-418 -780h559zM940 1413l274 -1413h-170
l-59 313h-666l-174 -313h-168l775 1413h188z" />
    <glyph glyph-name="AE" unicode="&#xc6;" horiz-adv-x="2031" 
d="M1180 1174l-615 -713h488zM2122 1413l-25 -139h-735l-86 -477h614l-24 -138h-615l-90 -522h735l-24 -137h-899l53 313h-594l-276 -313h-179l1246 1413h899z" />
    <glyph glyph-name="Ccedilla" unicode="&#xc7;" horiz-adv-x="1449" 
d="M960 1434q278 0 406 -131q129 -131 119 -338h-166q4 161 -91 245t-280 84q-233 0 -386 -162t-201 -434t60 -427t339 -154q365 0 487 366h166q-69 -217 -231 -355t-412 -148l-49 -74q88 0 123 -44q36 -44 24 -113t-67 -114t-139 -45t-109 10q-27 10 -37 13q-10 4 -20 11
t-13 7l19 111q61 -45 143 -45t90 49q6 37 -18 51q-46 26 -152 8l113 177q-268 18 -405 208t-77 526t273 526q213 192 491 192z" />
    <glyph glyph-name="Egrave" unicode="&#xc8;" horiz-adv-x="1191" 
d="M567 1823h205l100 -267h-137zM1280 1413l-25 -139h-733l-84 -477h613l-25 -138h-612l-92 -522h733l-25 -137h-899l250 1413h899z" />
    <glyph glyph-name="Eacute" unicode="&#xc9;" horiz-adv-x="1191" 
d="M893 1823h205l-260 -267h-138zM1280 1413l-25 -139h-733l-84 -477h613l-25 -138h-612l-92 -522h733l-25 -137h-899l250 1413h899z" />
    <glyph glyph-name="Ecircumflex" unicode="&#xca;" horiz-adv-x="1191" 
d="M942 1823l160 -267h-123l-131 177l-195 -177h-125l254 267h160zM1280 1413l-25 -139h-733l-84 -477h613l-25 -138h-612l-92 -522h733l-25 -137h-899l250 1413h899z" />
    <glyph glyph-name="Edieresis" unicode="&#xcb;" horiz-adv-x="1191" 
d="M592 1638l33 185h180l-33 -185h-180zM909 1638l33 185h180l-32 -185h-181zM1280 1413l-25 -139h-733l-84 -477h613l-25 -138h-612l-92 -522h733l-25 -137h-899l250 1413h899z" />
    <glyph glyph-name="Igrave" unicode="&#xcc;" horiz-adv-x="608" 
d="M186 1823h205l101 -267h-138zM295 0h-164l250 1413h164z" />
    <glyph glyph-name="Iacute" unicode="&#xcd;" horiz-adv-x="608" 
d="M547 1823h205l-260 -267h-138zM295 0h-164l250 1413h164z" />
    <glyph glyph-name="Icircumflex" unicode="&#xce;" horiz-adv-x="608" 
d="M594 1823l160 -267h-123l-131 177l-195 -177h-125l254 267h160zM295 0h-164l250 1413h164z" />
    <glyph glyph-name="Idieresis" unicode="&#xcf;" horiz-adv-x="608" 
d="M231 1638l33 185h180l-32 -185h-181zM549 1638l33 185h180l-33 -185h-180zM295 0h-164l250 1413h164z" />
    <glyph glyph-name="Eth" unicode="&#xd0;" horiz-adv-x="1372" 
d="M571 137q254 0 403 139q148 140 200 432t-48 429t-354 137h-264l-86 -486h280l-24 -147h-281l-90 -504h264zM817 1411q367 0 489 -236q89 -172 35 -468q-33 -181 -103 -317t-151 -209q-80 -73 -183 -115t-179 -54t-158 -12h-448l114 641h-151l24 147h152l111 623h448z
" />
    <glyph glyph-name="Ntilde" unicode="&#xd1;" horiz-adv-x="1517" 
d="M844 1708q-76 0 -96 -86h-121q19 97 74 148t163 53q72 1 140 -57t112 -58q74 0 98 86h121q-39 -201 -243 -201q-66 -1 -134 57t-114 58zM1509 1413l-249 -1413h-189l-563 1200l-213 -1200h-164l250 1413h209l549 -1167l207 1167h163z" />
    <glyph glyph-name="Ograve" unicode="&#xd2;" horiz-adv-x="1556" 
d="M795 1823h204l101 -267h-137zM705 -20q-254 0 -400 140q-145 140 -145 416t139 514q139 237 385 332q133 51 287 52q259 0 403 -143t144 -420t-135 -500q-149 -249 -391 -340q-134 -51 -287 -51zM1348 876q0 204 -103 310q-103 108 -271 108t-290 -66
q-224 -121 -313 -413q-41 -131 -41 -268q0 -430 387 -430q197 0 344 111q287 219 287 648z" />
    <glyph glyph-name="Oacute" unicode="&#xd3;" horiz-adv-x="1556" 
d="M1014 1823h205l-261 -267h-137zM705 -20q-254 0 -400 140q-145 140 -145 416t139 514q139 237 385 332q133 51 287 52q259 0 403 -143t144 -420t-135 -500q-149 -249 -391 -340q-134 -51 -287 -51zM1348 876q0 204 -103 310q-103 108 -271 108t-290 -66
q-224 -121 -313 -413q-41 -131 -41 -268q0 -430 387 -430q197 0 344 111q287 219 287 648z" />
    <glyph glyph-name="Ocircumflex" unicode="&#xd4;" horiz-adv-x="1556" 
d="M1057 1823l160 -267h-123l-131 177l-195 -177h-125l254 267h160zM705 -20q-254 0 -400 140q-145 140 -145 416t139 514q139 237 385 332q133 51 287 52q259 0 403 -143t144 -420t-135 -500q-149 -249 -391 -340q-134 -51 -287 -51zM1348 876q0 204 -103 310
q-103 108 -271 108t-290 -66q-224 -121 -313 -413q-41 -131 -41 -268q0 -430 387 -430q197 0 344 111q287 219 287 648z" />
    <glyph glyph-name="Otilde" unicode="&#xd5;" horiz-adv-x="1556" 
d="M610 1622q39 197 238 201q72 1 140 -57t112 -58q74 0 98 86h121q-12 -60 -61 -130q-50 -71 -182 -71q-66 -1 -134 57t-115 58q-76 0 -96 -86h-121zM705 -20q-254 0 -400 140q-145 140 -145 416t139 514q139 237 385 332q133 51 287 52q259 0 403 -143t144 -420t-135 -500
q-149 -249 -391 -340q-134 -51 -287 -51zM1348 876q0 204 -103 310q-103 108 -271 108t-290 -66q-224 -121 -313 -413q-41 -131 -41 -268q0 -430 387 -430q197 0 344 111q287 219 287 648z" />
    <glyph glyph-name="Odieresis" unicode="&#xd6;" horiz-adv-x="1556" 
d="M700 1638l33 185h180l-32 -185h-181zM1018 1638l33 185h180l-33 -185h-180zM705 -20q-254 0 -400 140q-145 140 -145 416t139 514q139 237 385 332q133 51 287 52q259 0 403 -143t144 -420t-135 -500q-149 -249 -391 -340q-134 -51 -287 -51zM1348 876q0 204 -103 310
q-103 108 -271 108t-290 -66q-224 -121 -313 -413q-41 -131 -41 -268q0 -430 387 -430q197 0 344 111q287 219 287 648z" />
    <glyph glyph-name="multiply" unicode="&#xd7;" horiz-adv-x="1198" 
d="M322 803l114 96l236 -285l338 285l80 -96l-336 -287l233 -285l-115 -98l-235 285l-334 -285l-80 98l334 285z" />
    <glyph glyph-name="Oslash" unicode="&#xd8;" horiz-adv-x="1556" 
d="M735 117q243 0 395 151q152 150 201 428t-37 426l-825 -932q104 -74 266 -73zM944 1294q-244 0 -396 -156t-202 -434q-49 -278 47 -430l824 938q-97 82 -273 82zM711 -20q-211 0 -346 92l-127 -144l-91 72l134 147q-166 199 -105 549q62 350 278 544t515 194
q211 0 354 -105l135 154l90 -70l-141 -160q155 -195 93 -548t-276 -539t-513 -186z" />
    <glyph glyph-name="Ugrave" unicode="&#xd9;" horiz-adv-x="1415" 
d="M680 1823h205l100 -267h-137zM660 -20q-246 0 -355 99t-110 269q0 68 10 119l166 946h164l-170 -967q-6 -43 -7 -79q0 -119 77 -185t231 -65q356 0 417 329l170 967h164l-168 -946q-37 -219 -191 -353q-152 -134 -398 -134z" />
    <glyph glyph-name="Uacute" unicode="&#xda;" horiz-adv-x="1415" 
d="M946 1823h205l-260 -267h-137zM660 -20q-246 0 -355 99t-110 269q0 68 10 119l166 946h164l-170 -967q-6 -43 -7 -79q0 -119 77 -185t231 -65q356 0 417 329l170 967h164l-168 -946q-37 -219 -191 -353q-152 -134 -398 -134z" />
    <glyph glyph-name="Ucircumflex" unicode="&#xdb;" horiz-adv-x="1415" 
d="M985 1823l160 -267h-123l-131 177l-195 -177h-125l254 267h160zM660 -20q-246 0 -355 99t-110 269q0 68 10 119l166 946h164l-170 -967q-6 -43 -7 -79q0 -119 77 -185t231 -65q356 0 417 329l170 967h164l-168 -946q-37 -219 -191 -353q-152 -134 -398 -134z" />
    <glyph glyph-name="Udieresis" unicode="&#xdc;" horiz-adv-x="1415" 
d="M627 1638l32 185h181l-33 -185h-180zM944 1638l33 185h180l-33 -185h-180zM660 -20q-246 0 -355 99t-110 269q0 68 10 119l166 946h164l-170 -967q-6 -43 -7 -79q0 -119 77 -185t231 -65q356 0 417 329l170 967h164l-168 -946q-37 -219 -191 -353q-152 -134 -398 -134z
" />
    <glyph glyph-name="Yacute" unicode="&#xdd;" horiz-adv-x="1198" 
d="M813 1823h205l-260 -267h-137zM451 0l102 578l-328 835h174l260 -696l500 696h187l-627 -835l-103 -578h-165z" />
    <glyph glyph-name="Thorn" unicode="&#xde;" horiz-adv-x="1269" 
d="M752 455q244 0 292 247q20 123 -34 186q-55 62 -172 62h-371l-86 -495h371zM879 1092q168 0 269 -96t66 -296q-26 -133 -102 -223q-139 -164 -369 -164h-389l-55 -313h-168l250 1411h168l-57 -319h387z" />
    <glyph glyph-name="germandbls" unicode="&#xdf;" horiz-adv-x="1165" 
d="M616 135q86 0 181 41q57 25 110 100t54 223q2 149 -100 189q-75 29 -189 29l22 135q159 0 215 83q27 40 36 70t18 74q14 86 -35 153q-49 66 -146 66q-260 -1 -299 -221l-188 -1077h-162l191 1075q20 122 125 235q53 56 142 90t189 34q188 0 270 -84t83 -179q0 -47 -5 -90
q-41 -220 -188 -290q4 1 38 -9t52 -25q69 -57 82 -112q31 -127 6 -235q-35 -204 -175 -308t-351 -102h-189l25 135h188z" />
    <glyph glyph-name="agrave" unicode="&#xe0;" horiz-adv-x="1077" 
d="M535 1413h204l101 -266h-138zM514 117q104 0 184 49q137 84 189 288q20 83 20 167q0 285 -235 284q-127 0 -218 -86q-167 -158 -167 -430t227 -272zM115 356q0 176 60 328q60 150 187 255t289 105q113 0 192 -52t113 -144l58 176h139l-180 -1024h-139l10 174
q-152 -195 -377 -194q-160 0 -256 100t-96 276z" />
    <glyph glyph-name="aacute" unicode="&#xe1;" horiz-adv-x="1077" 
d="M805 1413h205l-260 -266h-138zM514 117q104 0 184 49q137 84 189 288q20 83 20 167q0 285 -235 284q-127 0 -218 -86q-167 -158 -167 -430t227 -272zM115 356q0 176 60 328q60 150 187 255t289 105q113 0 192 -52t113 -144l58 176h139l-180 -1024h-139l10 174
q-152 -195 -377 -194q-160 0 -256 100t-96 276z" />
    <glyph glyph-name="acircumflex" unicode="&#xe2;" horiz-adv-x="1077" 
d="M868 1413l160 -266h-123l-131 176l-194 -176h-125l254 266h159zM514 117q104 0 184 49q137 84 189 288q20 83 20 167q0 285 -235 284q-127 0 -218 -86q-167 -158 -167 -430t227 -272zM115 356q0 176 60 328q60 150 187 255t289 105q113 0 192 -52t113 -144l58 176h139
l-180 -1024h-139l10 174q-152 -195 -377 -194q-160 0 -256 100t-96 276z" />
    <glyph glyph-name="atilde" unicode="&#xe3;" horiz-adv-x="1077" 
d="M856 1184q-66 0 -134 57t-114 57q-76 0 -96 -86h-121q40 201 238 201q71 0 139 -57t113 -58q74 0 98 86h121q-12 -62 -56 -122q-56 -78 -188 -78zM514 117q104 0 184 49q137 84 189 288q20 83 20 167q0 285 -235 284q-127 0 -218 -86q-167 -158 -167 -430t227 -272z
M115 356q0 176 60 328q60 150 187 255t289 105q113 0 192 -52t113 -144l58 176h139l-180 -1024h-139l10 174q-152 -195 -377 -194q-160 0 -256 100t-96 276z" />
    <glyph glyph-name="adieresis" unicode="&#xe4;" horiz-adv-x="1077" 
d="M504 1229l33 184h180l-33 -184h-180zM821 1229l33 184h180l-33 -184h-180zM514 117q104 0 184 49q137 84 189 288q20 83 20 167q0 285 -235 284q-127 0 -218 -86q-167 -158 -167 -430t227 -272zM115 356q0 176 60 328q60 150 187 255t289 105q113 0 192 -52t113 -144
l58 176h139l-180 -1024h-139l10 174q-152 -195 -377 -194q-160 0 -256 100t-96 276z" />
    <glyph glyph-name="aring" unicode="&#xe5;" horiz-adv-x="1077" 
d="M783 1522q81 0 127 -56t32 -139q-14 -82 -81 -139q-67 -58 -147 -58t-128 58q-47 58 -33 138q13 80 81 138t149 58zM731 1233q39 0 71 28q32 29 38 67t-16 65t-60 27t-71 -28q-34 -28 -40 -66q-5 -38 17 -66t61 -27zM514 117q104 0 184 49q137 84 189 288q20 83 20 167
q0 285 -235 284q-127 0 -218 -86q-167 -158 -167 -430t227 -272zM115 356q0 176 60 328q60 150 187 255t289 105q113 0 192 -52t113 -144l58 176h139l-180 -1024h-139l10 174q-152 -195 -377 -194q-160 0 -256 100t-96 276z" />
    <glyph glyph-name="ae" unicode="&#xe6;" horiz-adv-x="1869" 
d="M1415 909q-143 0 -238 -87t-137 -228h623q22 180 -85 266q-61 49 -163 49zM453 113q137 0 241 88t127 215l19 104l-205 -24q-166 -23 -252 -73t-100 -133t30 -130t140 -47zM414 -20q-162 0 -243 78t-56 214q25 137 147 227q123 89 393 119l205 25l6 33q43 233 -196 233
q-219 0 -275 -184h-166q47 143 161 231t300 88q264 0 320 -208q162 209 432 208q213 0 316 -138t63 -374l-11 -61h-796q-23 -166 46 -262t216 -96q104 0 193 49t128 143h170q-69 -170 -209 -248q-140 -77 -292 -77t-256 65q-102 66 -133 191q-170 -256 -463 -256z" />
    <glyph glyph-name="ccedilla" unicode="&#xe7;" horiz-adv-x="1138" 
d="M588 117q250 0 334 229h168q-54 -150 -178 -252t-312 -112l-49 -76q88 0 124 -44q35 -44 23 -113t-66 -114t-138 -45q-115 0 -181 41l19 111q66 -45 146 -45t89 49q6 37 -19 51q-49 27 -153 8l113 177q-201 16 -296 154t-52 382t202 385q160 141 376 141t314 -112
q97 -112 83 -273h-168q6 113 -59 180q-64 67 -198 67t-240 -98q-106 -97 -143 -300q-36 -203 40 -297t221 -94z" />
    <glyph glyph-name="egrave" unicode="&#xe8;" horiz-adv-x="1159" 
d="M512 1413h205l100 -266h-137zM958 664q0 104 -56 174t-191 71q-135 0 -237 -87t-144 -228h622q6 37 6 70zM540 -20q-188 0 -300 102t-111 286q0 382 278 578q140 98 324 98q185 0 287 -103t102 -290q0 -70 -20 -180h-799q-6 -45 -6 -90q-1 -127 67 -198t188 -71t209 56
q89 55 128 137h170q-59 -145 -193 -235q-136 -90 -324 -90z" />
    <glyph glyph-name="eacute" unicode="&#xe9;" horiz-adv-x="1159" 
d="M739 1413h205l-260 -266h-137zM958 664q0 104 -56 174t-191 71q-135 0 -237 -87t-144 -228h622q6 37 6 70zM540 -20q-188 0 -300 102t-111 286q0 382 278 578q140 98 324 98q185 0 287 -103t102 -290q0 -70 -20 -180h-799q-6 -45 -6 -90q-1 -127 67 -198t188 -71t209 56
q89 55 128 137h170q-59 -145 -193 -235q-136 -90 -324 -90z" />
    <glyph glyph-name="ecircumflex" unicode="&#xea;" horiz-adv-x="1159" 
d="M795 1413l159 -266h-123l-131 176l-194 -176h-125l254 266h160zM958 664q0 104 -56 174t-191 71q-135 0 -237 -87t-144 -228h622q6 37 6 70zM540 -20q-188 0 -300 102t-111 286q0 382 278 578q140 98 324 98q185 0 287 -103t102 -290q0 -70 -20 -180h-799q-6 -45 -6 -90
q-1 -127 67 -198t188 -71t209 56q89 55 128 137h170q-59 -145 -193 -235q-136 -90 -324 -90z" />
    <glyph glyph-name="edieresis" unicode="&#xeb;" horiz-adv-x="1159" 
d="M432 1229l33 184h180l-33 -184h-180zM750 1229l32 184h181l-33 -184h-180zM958 664q0 104 -56 174t-191 71q-135 0 -237 -87t-144 -228h622q6 37 6 70zM540 -20q-188 0 -300 102t-111 286q0 382 278 578q140 98 324 98q185 0 287 -103t102 -290q0 -70 -20 -180h-799
q-6 -45 -6 -90q-1 -127 67 -198t188 -71t209 56q89 55 128 137h170q-59 -145 -193 -235q-136 -90 -324 -90z" />
    <glyph glyph-name="igrave" unicode="&#xec;" horiz-adv-x="475" 
d="M57 1413h205l100 -266h-137zM272 0h-163l182 1024h164z" />
    <glyph glyph-name="iacute" unicode="&#xed;" horiz-adv-x="475" 
d="M371 1413h204l-260 -266h-137zM272 0h-163l182 1024h164z" />
    <glyph glyph-name="icircumflex" unicode="&#xee;" horiz-adv-x="475" 
d="M406 1413l159 -266h-123l-131 176l-194 -176h-125l254 266h160zM272 0h-163l182 1024h164z" />
    <glyph glyph-name="idieresis" unicode="&#xef;" horiz-adv-x="475" 
d="M43 1229l33 184h180l-33 -184h-180zM360 1229l33 184h180l-32 -184h-181zM272 0h-163l182 1024h164z" />
    <glyph glyph-name="eth" unicode="&#xf0;" horiz-adv-x="1212" 
d="M281 516q-73 -410 271 -410q169 0 280 135t146 374q1 7 1 12q-16 182 -117 242q-82 49 -174 51q-338 0 -407 -404zM514 -27q-225 1 -335 141q-111 140 -65 399t203 396q158 137 375 138q104 1 200 -45t130 -154q8 145 -61 279q-70 134 -216 204l-120 -188l-109 55
l111 174q-92 20 -183 21l41 137q106 0 224 -33l100 160l111 -55l-93 -146q195 -84 292 -275t42 -499q-125 -709 -647 -709z" />
    <glyph glyph-name="ntilde" unicode="&#xf1;" horiz-adv-x="1169" 
d="M367 1212q40 201 219 201q90 0 158 -57t112 -58q74 0 98 86h121q-12 -64 -55 -122q-56 -78 -188 -78q-66 0 -134 57t-114 57q-76 0 -97 -86h-120zM834 1044q279 0 278 -274q0 -53 -12 -127l-113 -643h-164l111 623q8 51 8 102q0 96 -44 138t-142 42q-145 0 -253 -104
t-134 -260l-97 -541h-163l180 1024h137l-16 -211q168 231 424 231z" />
    <glyph glyph-name="ograve" unicode="&#xf2;" 
d="M537 1413h204l101 -266h-137zM752 1044q192 0 303 -108t110 -313q0 -263 -168 -453t-446 -190q-197 0 -309 106t-113 292q0 186 72 332t215 240q144 94 336 94zM733 905q-197 1 -315 -151t-119 -353q0 -139 70 -212t192 -72q199 -1 317 151t117 348q0 135 -64 212
q-65 77 -198 77z" />
    <glyph glyph-name="oacute" unicode="&#xf3;" 
d="M752 1413h204l-260 -266h-137zM752 1044q192 0 303 -108t110 -313q0 -263 -168 -453t-446 -190q-197 0 -309 106t-113 292q0 186 72 332t215 240q144 94 336 94zM733 905q-197 1 -315 -151t-119 -353q0 -139 70 -212t192 -72q199 -1 317 151t117 348q0 135 -64 212
q-65 77 -198 77z" />
    <glyph glyph-name="ocircumflex" unicode="&#xf4;" 
d="M811 1413l160 -266h-123l-131 176l-195 -176h-125l254 266h160zM752 1044q192 0 303 -108t110 -313q0 -263 -168 -453t-446 -190q-197 0 -309 106t-113 292q0 186 72 332t215 240q144 94 336 94zM733 905q-197 1 -315 -151t-119 -353q0 -139 70 -212t192 -72
q199 -1 317 151t117 348q0 135 -64 212q-65 77 -198 77z" />
    <glyph glyph-name="otilde" unicode="&#xf5;" 
d="M826 1184q-66 0 -134 57t-114 57q-76 0 -97 -86h-121q19 97 75 149t145 52q90 0 158 -57t112 -58q74 0 98 86h121q-12 -64 -55 -122q-55 -78 -188 -78zM752 1044q192 0 303 -108t110 -313q0 -263 -168 -453t-446 -190q-197 0 -309 106t-113 292q0 186 72 332t215 240
q144 94 336 94zM733 905q-197 1 -315 -151t-119 -353q0 -139 70 -212t192 -72q199 -1 317 151t117 348q0 135 -64 212q-65 77 -198 77z" />
    <glyph glyph-name="odieresis" unicode="&#xf6;" 
d="M449 1229l32 184h181l-33 -184h-180zM766 1229l33 184h180l-33 -184h-180zM752 1044q192 0 303 -108t110 -313q0 -263 -168 -453t-446 -190q-197 0 -309 106t-113 292q0 186 72 332t215 240q144 94 336 94zM733 905q-197 1 -315 -151t-119 -353q0 -139 70 -212t192 -72
q199 -1 317 151t117 348q0 135 -64 212q-65 77 -198 77z" />
    <glyph glyph-name="divide" unicode="&#xf7;" horiz-adv-x="1198" 
d="M1112 631l-25 -142h-882l24 142h883zM500 135l32 193h179l-35 -193h-176zM614 793l33 192h178l-32 -192h-179z" />
    <glyph glyph-name="oslash" unicode="&#xf8;" 
d="M717 905q-155 0 -265 -101t-141 -294q-31 -158 17 -256l544 614q-63 37 -155 37zM578 117q158 0 265 100q107 101 140 283t-29 286l-551 -624q66 -45 175 -45zM739 1044q143 0 240 -53l98 111l92 -74l-96 -108q125 -138 80 -400t-206 -401t-394 -139q-156 0 -256 63
l-102 -117l-93 74l107 119q-113 141 -69 393t207 392t392 140z" />
    <glyph glyph-name="ugrave" unicode="&#xf9;" horiz-adv-x="1159" 
d="M461 1413h205l100 -266h-137zM422 -20q-127 0 -194 57t-71 145q-5 88 9 197l113 645h163l-108 -623q-10 -72 -13 -135t39 -106t132 -43q144 0 252 105t137 263l94 539h164l-181 -1024h-137l17 209q-168 -229 -416 -229z" />
    <glyph glyph-name="uacute" unicode="&#xfa;" horiz-adv-x="1159" 
d="M748 1413h204l-260 -266h-137zM422 -20q-127 0 -194 57t-71 145q-5 88 9 197l113 645h163l-108 -623q-10 -72 -13 -135t39 -106t132 -43q144 0 252 105t137 263l94 539h164l-181 -1024h-137l17 209q-168 -229 -416 -229z" />
    <glyph glyph-name="ucircumflex" unicode="&#xfb;" horiz-adv-x="1159" 
d="M776 1413l160 -266h-123l-131 176l-195 -176h-125l254 266h160zM422 -20q-127 0 -194 57t-71 145q-5 88 9 197l113 645h163l-108 -623q-10 -72 -13 -135t39 -106t132 -43q144 0 252 105t137 263l94 539h164l-181 -1024h-137l17 209q-168 -229 -416 -229z" />
    <glyph glyph-name="udieresis" unicode="&#xfc;" horiz-adv-x="1159" 
d="M418 1229l33 184h180l-33 -184h-180zM735 1229l33 184h180l-33 -184h-180zM422 -20q-127 0 -194 57t-71 145q-5 88 9 197l113 645h163l-108 -623q-10 -72 -13 -135t39 -106t132 -43q144 0 252 105t137 263l94 539h164l-181 -1024h-137l17 209q-168 -229 -416 -229z" />
    <glyph glyph-name="yacute" unicode="&#xfd;" horiz-adv-x="972" 
d="M637 1413h205l-260 -266h-138zM117 -401h-105l25 137h82q61 0 101 28t79 101l96 174l-215 985h174l150 -811l432 811h160l-680 -1235q-111 -190 -299 -190z" />
    <glyph glyph-name="thorn" unicode="&#xfe;" horiz-adv-x="1189" 
d="M733 905q-152 1 -244 -107t-126 -289q-35 -181 23 -287t206 -105q148 0 245 105q95 104 127 288t-24 290t-207 105zM608 -20q-118 0 -196 53t-109 141l-100 -563h-162l317 1802h164l-100 -565q145 197 373 196q188 0 284 -142t51 -395t-189 -390t-333 -137z" />
    <glyph glyph-name="ydieresis" unicode="&#xff;" horiz-adv-x="972" 
d="M352 1229l33 184h180l-33 -184h-180zM670 1229l32 184h181l-33 -184h-180zM117 -401h-105l25 137h82q61 0 101 28t79 101l96 174l-215 985h174l150 -811l432 811h160l-680 -1235q-111 -190 -299 -190z" />
    <glyph glyph-name="dotlessi" unicode="&#x131;" horiz-adv-x="391" 
d="M229 0h-161l182 1024h162z" />
    <glyph glyph-name="Lslash" unicode="&#x141;" horiz-adv-x="1114" 
d="M319 137h697l-25 -137h-860l98 555l-190 -106l31 180l190 106l121 676h164l-103 -573l465 262l-30 -180l-467 -263z" />
    <glyph glyph-name="lslash" unicode="&#x142;" horiz-adv-x="579" 
d="M348 -14q-104 0 -169 68t-44 188l66 379l-170 -91l26 152l172 92l113 643h162l-96 -547l202 109l-26 -156l-203 -108l-80 -459q-10 -57 26 -92t93 -35l43 2l-25 -137q-61 -8 -90 -8z" />
    <glyph glyph-name="OE" unicode="&#x152;" horiz-adv-x="2273" 
d="M938 1294q-234 0 -388 -156t-204 -438q-51 -280 51 -432t342 -152q239 0 391 154t202 441t-55 435t-339 148zM969 1434q157 0 277 -65t177 -183l39 227h901l-24 -139h-737l-84 -477h614l-25 -138h-614l-92 -522h737l-24 -137h-902l39 221q-205 -242 -540 -241
q-299 0 -447 189q-147 189 -87 535q61 346 277 538t515 192z" />
    <glyph glyph-name="oe" unicode="&#x153;" horiz-adv-x="2007" 
d="M1551 909q-142 0 -238 -84t-142 -231h623q16 133 -42 224q-59 91 -201 91zM716 905q-162 0 -268 -106q-106 -107 -138 -289t37 -288t232 -105q163 0 268 105q105 104 137 288t-36 290t-232 105zM735 1044q158 0 257 -68t126 -185q72 119 191 187t266 66q213 0 315 -138
t62 -374l-10 -61h-795q-25 -176 49 -267t213 -91q102 0 192 49q89 49 128 143h172q-70 -168 -211 -247q-141 -80 -296 -78t-250 70t-126 183q-158 -254 -465 -253q-229 0 -343 140t-69 392q43 252 206 392t388 140z" />
    <glyph glyph-name="Scaron" unicode="&#x160;" horiz-adv-x="1306" 
d="M795 1577l-129 266h125l100 -176l164 176h123l-224 -266h-159zM826 1298q-154 0 -269 -68t-115 -212q0 -131 175 -178q73 -19 139 -33q248 -53 346 -130t98 -214q0 -225 -177 -354t-431 -129t-370 114t-95 312h168q-14 -139 64 -216q79 -76 255 -76t294 81
q118 80 118 241q0 84 -51 123q-31 25 -51 38q-38 25 -224 67q-185 42 -253 72t-102 61q-79 72 -79 188q0 209 170 329q171 120 420 120t340 -121q78 -103 68 -264h-170q10 125 -52 187t-216 62z" />
    <glyph glyph-name="scaron" unicode="&#x161;" horiz-adv-x="1028" 
d="M616 1167l-129 267h125l101 -177l164 177h122l-223 -267h-160zM495 113q115 0 197 49t82 146t-99 126q-46 14 -111 22q-64 9 -89 13q-131 23 -199 69t-67 167q0 159 130 249t309 90t262 -85t83 -211q0 -14 -2 -23h-162v8q-4 84 -46 130q-41 46 -147 46t-182 -44t-75 -136
q0 -59 29 -79q29 -19 43 -28q30 -19 136 -30q175 -18 268 -71t91 -191q0 -164 -134 -257t-330 -93t-285 82q-90 82 -91 208q0 23 3 37h163l-2 -26q0 -78 56 -123t169 -45z" />
    <glyph glyph-name="Ydieresis" unicode="&#x178;" horiz-adv-x="1198" 
d="M549 1638l33 185h180l-33 -185h-180zM866 1638l33 185h180l-32 -185h-181zM451 0l102 578l-328 835h174l260 -696l500 696h187l-627 -835l-103 -578h-165z" />
    <glyph glyph-name="Zcaron" unicode="&#x17d;" horiz-adv-x="1222" 
d="M729 1577l-129 266h125l100 -176l164 176h123l-223 -266h-160zM1327 1413l-24 -139l-1076 -1137h879l-25 -137h-1067l25 137l1073 1137h-850l25 139h1040z" />
    <glyph glyph-name="zcaron" unicode="&#x17e;" horiz-adv-x="985" 
d="M506 1167l-129 267h125l100 -177l164 177h123l-223 -267h-160zM1026 1024l-25 -139l-757 -748h661l-24 -137h-871l27 137l756 748h-605l25 139h813z" />
    <glyph glyph-name="florin" unicode="&#x192;" horiz-adv-x="1198" 
d="M142 -274q50 0 106 30q55 31 74 86l352 996h-150l47 133h150q4 10 35 98t49 131q41 100 138 160t183 61q86 0 127 -22l-45 -127q-30 16 -80 16t-104 -32t-74 -87l-71 -198h225l-47 -133h-226q-91 -256 -187 -528t-124 -350t-40 -112q-44 -129 -146 -192
q-102 -64 -188 -64t-130 23l47 127q29 -16 79 -16z" />
    <glyph glyph-name="circumflex" unicode="&#x2c6;" horiz-adv-x="1116" 
d="M772 1413l160 -266h-123l-131 176l-195 -176h-125l254 266h160z" />
    <glyph glyph-name="caron" unicode="&#x2c7;" horiz-adv-x="1054" 
d="M537 1167l-129 267h124l101 -177l164 177h123l-224 -267h-159z" />
    <glyph glyph-name="breve" unicode="&#x2d8;" horiz-adv-x="1013" 
d="M623 1317q47 0 77 28t37 68h101q-12 -80 -78 -138t-156 -58t-134 58t-32 138h101q-7 -41 15 -69t69 -27z" />
    <glyph glyph-name="dotaccent" unicode="&#x2d9;" horiz-adv-x="397" 
d="M209 1249l33 185h184l-33 -185h-184z" />
    <glyph glyph-name="ring" unicode="&#x2da;" horiz-adv-x="997" 
d="M650 1522q81 0 127 -56t32 -139q-14 -82 -81 -139q-68 -58 -148 -58t-127 58t-33 138t82 138t148 58zM598 1233q39 0 71 28q32 29 38 67t-16 65q-21 27 -59 27t-72 -28t-40 -66t16 -66t62 -27z" />
    <glyph glyph-name="ogonek" unicode="&#x2db;" horiz-adv-x="997" 
d="M513 -344q52 0 99 39l27 -37q-59 -68 -159 -68t-151 50q-52 50 -36 139t90 147t174 74h107q-227 -55 -256 -213q-14 -71 20 -101t85 -30z" />
    <glyph glyph-name="tilde" unicode="&#x2dc;" horiz-adv-x="1026" 
d="M738 1184q-66 0 -134 57t-115 57q-76 0 -96 -86h-121q19 97 75 149t145 52q90 0 158 -57t112 -58q74 0 98 86h121q-12 -64 -55 -122q-55 -78 -188 -78z" />
    <glyph glyph-name="hungarumlaut" unicode="&#x2dd;" horiz-adv-x="1036" 
 />
    <glyph glyph-name="pi" unicode="&#x3c0;" horiz-adv-x="1028" 
d="M1151 1032l-25 -139h-131l-157 -893h-160l158 893h-414l-158 -893h-160l158 893h-129l25 139h993z" />
    <glyph glyph-name="endash" unicode="&#x2013;" horiz-adv-x="1169" 
d="M127 436l27 146h974l-26 -146h-975z" />
    <glyph glyph-name="emdash" unicode="&#x2014;" horiz-adv-x="2174" 
d="M127 436l27 146h1980l-27 -146h-1980z" />
    <glyph glyph-name="quoteleft" unicode="&#x2018;" horiz-adv-x="421" 
d="M176 987l33 195q51 137 192 231h74q-36 -24 -79 -92q-43 -69 -50 -139h60l-33 -195h-197z" />
    <glyph glyph-name="quoteright" unicode="&#x2019;" horiz-adv-x="440" 
d="M580 1413l-35 -194q-47 -135 -193 -232h-71q32 22 74 87q42 66 53 124l2 21h-62l35 194h197z" />
    <glyph glyph-name="quotesinglbase" unicode="&#x201a;" horiz-adv-x="440" 
d="M367 195l-35 -195q-47 -135 -193 -231h-71q33 22 78 91q44 69 51 140h-62l35 195h197z" />
    <glyph glyph-name="quotedblleft" unicode="&#x201c;" horiz-adv-x="765" 
d="M518 987l35 195q47 135 192 231h72q-36 -24 -79 -92q-43 -69 -50 -139h62l-35 -195h-197zM176 987l33 195q51 137 192 231h74q-36 -24 -79 -92q-43 -69 -50 -139h60l-33 -195h-197z" />
    <glyph glyph-name="quotedblright" unicode="&#x201d;" horiz-adv-x="778" 
d="M811 1413l-33 -194q-51 -137 -192 -232h-74q34 23 76 88q41 65 51 123l2 21h-59l32 194h197zM473 1413l-33 -194q-51 -137 -192 -232h-74q34 23 76 88q41 65 51 123l2 21h-59l32 194h197z" />
    <glyph glyph-name="quotedblbase" unicode="&#x201e;" horiz-adv-x="778" 
d="M705 195l-35 -195q-47 -135 -193 -231h-71q34 23 76 89q42 67 53 142h-62l35 195h197zM367 195l-35 -195q-47 -135 -193 -231h-71q33 22 78 91q44 69 51 140h-62l35 195h197z" />
    <glyph glyph-name="dagger" unicode="&#x2020;" horiz-adv-x="1024" 
d="M1081 1030l-24 -133h-355l-221 -1255h-162l222 1255h-353l25 133h352l66 377h162l-66 -377h354z" />
    <glyph glyph-name="daggerdbl" unicode="&#x2021;" horiz-adv-x="1189" 
d="M1163 1051l-22 -131h-348l-117 -662h346l-23 -133h-346l-63 -356h-162l64 356h-349l23 133h348l117 662h-350l24 131h350l62 356h162l-62 -356h346z" />
    <glyph glyph-name="bullet" unicode="&#x2022;" horiz-adv-x="851" 
d="M422 244q-114 0 -178 79t-44 191t113 192q92 78 205 78t178 -78t45 -192t-113 -192t-206 -78z" />
    <glyph glyph-name="perthousand" unicode="&#x2030;" horiz-adv-x="2375" 
d="M2085 827q322 0 248 -424t-398 -423q-313 0 -239 424t389 423zM2066 719q-104 0 -158 -83t-81 -235q-33 -133 -5 -223t134 -90t161 81q54 81 83 232q12 90 12 161t-36 114t-110 43zM1333 827q317 0 246 -426q-76 -422 -395 -421q-315 0 -244 421q76 426 393 426z
M1315 719q-107 0 -161 -83t-81 -235q-33 -133 -5 -223t134 -90t161 81q54 81 83 232q31 133 3 225t-134 93zM555 1393q317 0 241 -424t-392 -424q-318 0 -246 422q80 426 397 426zM535 1284q-107 0 -161 -83t-83 -234q-31 -133 -3 -223t134 -91q106 0 161 82q54 82 81 232
q33 133 5 225t-134 92zM1401 1466l84 -53l-1104 -1466l-84 53z" />
    <glyph glyph-name="guilsinglleft" unicode="&#x2039;" horiz-adv-x="788" 
d="M766 965l-406 -449l246 -455h-172l-241 455l401 449h172z" />
    <glyph glyph-name="guilsinglright" unicode="&#x203a;" horiz-adv-x="788" 
d="M518 516l-246 449h174l240 -449l-399 -455h-174z" />
    <glyph glyph-name="fraction" unicode="&#x2044;" horiz-adv-x="90" 
d="M616 1466l84 -53l-1101 -1466l-84 53z" />
    <glyph glyph-name="Euro" unicode="&#x20ac;" horiz-adv-x="1198" 
d="M1067 291l96 -115q-188 -197 -469 -196q-223 0 -353 129t-132 380h-160l21 121h737l-86 -118h-340q6 -358 342 -359q207 0 344 158zM924 1278q-176 0 -291 -106t-176 -263h571l-88 -121h-838l21 121h162q92 252 268 388t399 137q281 0 394 -209l-138 -113
q-78 166 -284 166z" />
    <glyph glyph-name="trademark" unicode="&#x2122;" horiz-adv-x="1673" 
d="M1169 715l369 692h137l-139 -786h-92l119 673l-361 -673h-108l-125 673l-119 -673h-92l139 786h141zM223 1407h598l-16 -86h-252l-123 -700h-94l123 700h-252z" />
    <glyph glyph-name="Omega" unicode="&#x2126;" horiz-adv-x="1513" 
d="M932 1294q-218 0 -379 -146q-160 -146 -209 -423q-72 -412 225 -582l-24 -143h-443l25 139h246q-262 205 -195 586q60 332 272 520q212 189 506 189t440 -188t87 -521q-68 -383 -402 -586h246l-22 -139h-443l25 143q356 168 430 582q49 277 -59 423t-326 146z" />
    <glyph glyph-name="arrowleft" unicode="&#x2190;" horiz-adv-x="1523" 
d="M983 1237l-555 -461h1112l-29 -158h-1112l394 -458h-232l-442 538l633 539h231z" />
    <glyph glyph-name="arrowup" unicode="&#x2191;" horiz-adv-x="1523" 
d="M1356 637l-377 473l-197 -1110h-155l194 1110l-542 -473l40 233l633 537l445 -537z" />
    <glyph glyph-name="arrowright" unicode="&#x2192;" horiz-adv-x="1523" 
d="M1243 776l-391 461h231l443 -539l-633 -538h-231l552 458h-1110l29 158h1110z" />
    <glyph glyph-name="arrowdown" unicode="&#x2193;" horiz-adv-x="1523" 
d="M301 768l377 -473l196 1112h158l-196 -1112l542 473l-41 -231l-632 -537l-445 537z" />
    <glyph glyph-name="arrowboth" unicode="&#x2194;" horiz-adv-x="2248" 
d="M1964 776l-391 461h231l443 -539l-633 -538h-232l553 458h-1529l391 -458h-232l-440 538l631 539h231l-553 -461h1530z" />
    <glyph glyph-name="arrowrightdown" unicode="&#x21b4;" horiz-adv-x="1523" 
d="M1391 969l-134 -762h-761l-138 164l666 -6l-651 782l129 108l641 -788l114 666z" />
    <glyph glyph-name="partialdiff" unicode="&#x2202;" horiz-adv-x="1210" 
d="M815 1434q262 0 357 -164t30 -469q-66 -233 -108 -334q-209 -494 -572 -494q-215 0 -331 118q-115 118 -67 331t195 346t338 133q141 0 242 -66q100 -67 113 -200q80 216 66 421q-7 105 -77 171q-70 65 -185 65t-186 -60t-93 -173l-156 26q39 169 155 259t279 90z
M529 113q129 0 231 88t143 220t-26 233q-68 100 -208 102t-246 -94q-105 -97 -135 -242t41 -226t200 -81z" />
    <glyph glyph-name="Delta" unicode="&#x2206;" horiz-adv-x="1265" 
d="M817 1268l-624 -1121h856zM745 1409h195l270 -1262l-26 -147h-1176l25 147z" />
    <glyph glyph-name="product" unicode="&#x220f;" horiz-adv-x="1308" 
d="M1487 1407l-27 -156h-172l-219 -1251h-170l219 1251h-563l-221 -1251h-170l221 1251h-168l27 156h1243z" />
    <glyph glyph-name="summation" unicode="&#x2211;" horiz-adv-x="1026" 
d="M1180 1407l-27 -156h-713l408 -655l-639 -657h711l-27 -154h-932l25 141l649 670l-414 668l25 143h934z" />
    <glyph glyph-name="minus" unicode="&#x2212;" horiz-adv-x="1275" 
d="M1153 766l-25 -137h-890l24 137h891z" />
    <glyph glyph-name="radical" unicode="&#x221a;" horiz-adv-x="1198" 
d="M1356 1434l-686 -1434h-187l-147 670h-221l26 147h320l139 -659l602 1276h154z" />
    <glyph glyph-name="infinity" unicode="&#x221e;" horiz-adv-x="1433" 
d="M1079 899q78 0 131 -26q93 -45 116 -150q41 -181 -86 -371q-40 -59 -112 -97t-163 -38q-164 0 -228 160q-113 -160 -280 -160q-76 0 -130 27q-54 28 -79 64t-35 86q-38 188 85 372q40 59 112 96t165 37q164 0 228 -158q112 158 276 158zM477 362q158 0 230 197
q-2 195 -160 195q-74 0 -122 -52q-49 -52 -65 -143q-16 -89 14 -143t103 -54zM992 362q73 0 122 52t66 143q16 90 -15 143t-110 54q-154 0 -221 -195q-2 -97 42 -147t116 -50z" />
    <glyph glyph-name="integral" unicode="&#x222b;" horiz-adv-x="534" 
d="M46 -399q-82 0 -130 22l23 129q31 -14 81 -14t101 31q49 31 57 84l215 1220q16 82 31 123q25 94 108 153q84 58 166 58t133 -23l-24 -129q-29 15 -80 15t-101 -31t-57 -84l-217 -1221q-6 -48 -30 -132t-109 -142t-167 -59z" />
    <glyph glyph-name="approxequal" unicode="&#x2248;" horiz-adv-x="1116" 
d="M446 338q-84 0 -98 -94h-121q37 215 234 215q75 0 151 -46t115 -46q82 0 94 92h121q-39 -215 -231 -215q-72 0 -147 47t-118 47zM504 666q-84 0 -98 -95h-121q37 215 235 215q72 0 149 -46t115 -46q76 0 97 92h120q-43 -215 -233 -215q-72 -1 -146 47t-118 48z" />
    <glyph glyph-name="notequal" unicode="&#x2260;" horiz-adv-x="1198" 
d="M242 668l24 135h504l145 194l129 -43l-112 -151h201l-23 -135h-281l-182 -242h420l-25 -135h-497l-152 -203l-131 41l121 162h-207l23 135h284l185 242h-426z" />
    <glyph glyph-name="lessequal" unicode="&#x2264;" horiz-adv-x="1198" 
d="M1026 141l-25 -141h-897l25 141h897zM1055 307l-830 383l25 141l964 386l-28 -164l-799 -289l698 -287z" />
    <glyph glyph-name="greaterequal" unicode="&#x2265;" horiz-adv-x="1198" 
d="M1118 690l-964 -383l28 170l799 287l-696 289l28 164l830 -386zM1020 141l-25 -141h-897l27 141h895z" />
    <glyph glyph-name="lozenge" unicode="&#x25ca;" horiz-adv-x="1368" 
d="M1137 707l-285 579l-490 -577l283 -586zM545 0l-357 709l609 702h157l357 -704l-609 -707h-157z" />
    <glyph glyph-name="CR" horiz-adv-x="1337" 
 />
    <glyph glyph-name="l.ss06" horiz-adv-x="475" 
d="M508 1434l-252 -1434h-164l252 1434h164z" />
    <glyph glyph-name="y.ss02" horiz-adv-x="1021" 
d="M1118 1024l-780 -1413h-158l238 428l-215 985h174l149 -811l432 811h160z" />
    <glyph glyph-name="g.ss03" horiz-adv-x="1181" 
d="M698 905q-184 -1 -283 -151t-100 -334q0 -262 238 -262q129 0 219 74q164 134 164 403q0 270 -238 270zM487 -410q-205 0 -296 86t-91 211q-2 8 -2 23h170v-16q4 -174 221 -175q293 0 349 308l32 188q-139 -195 -366 -195q-164 0 -260 100t-96 272q-1 361 238 553
q124 99 292 99q242 0 309 -194l51 174h140l-170 -971q-82 -463 -521 -463z" />
    <glyph glyph-name="G.ss04" horiz-adv-x="1550" 
d="M930 1294q-220 0 -378 -156t-206 -436q-49 -280 55 -433t338 -153t370 129q136 128 177 343h-383l25 137h551l-9 -57q-57 -330 -255 -509q-197 -179 -497 -179t-451 189t-91 533t280 538q218 194 515 194q201 0 355 -89q83 -47 131 -145t48 -235h-170q-6 161 -96 245
q-89 84 -309 84z" />
    <glyph glyph-name="ydieresis.neogrotesk" horiz-adv-x="991" 
d="M354 1229l33 184h180l-32 -184h-181zM672 1229l33 184h180l-33 -184h-180zM1104 1024l-780 -1413h-158l237 428l-215 985h174l150 -811l432 811h160z" />
    <glyph glyph-name="ampersand.ss05" horiz-adv-x="1351" 
d="M781 1296q-89 0 -143 -54t-67 -130q-20 -127 76 -248q254 66 285 250q12 76 -25 129t-126 53zM596 113q184 0 311 102l-342 479q-242 -84 -274 -278q-25 -131 48 -217t257 -86zM800 1434q152 0 241 -78t61 -238q-45 -268 -379 -362l303 -418q70 90 96 219h170
q-53 -199 -178 -342l154 -215h-209l-74 104q-164 -124 -415 -124q-252 0 -368 114t-81 322q49 266 362 395q-111 135 -80 309q23 130 135 222q110 92 262 92z" />
    <glyph glyph-name="a.ss01" horiz-adv-x="1185" 
d="M684 905q-154 1 -249 -109t-126 -290t27 -284t197 -105q139 0 239 94t137 295q12 66 13 124q0 275 -238 275zM668 1044q106 0 187 -48t116 -144l57 182h137l-182 -1034h-139l12 174q-152 -195 -375 -194q-193 0 -290 136t-52 390t191 396t338 142z" />
    <glyph glyph-name="yacute.neogrotesk" horiz-adv-x="991" 
d="M641 1413h205l-260 -266h-137zM117 -401h-105l25 137h82q61 0 101 28t79 101l96 174l-215 985h174l150 -811l432 811h160l-680 -1235q-111 -190 -299 -190z" />
    <glyph glyph-name="fl.ss06" horiz-adv-x="1099" 
d="M498 1178l-27 -154h426l72 410h164l-254 -1434h-164l157 885h-426l-157 -885h-164l158 885h-152l25 139h151l27 158q25 141 122 202t224 62q45 0 86 -8l-23 -138q-41 6 -84 7q-138 0 -161 -129z" />
    <glyph glyph-name="ffl.ss06" horiz-adv-x="1730" 
d="M498 1178l-27 -154h447l26 158q25 141 121 202t223 62q47 0 88 -8l-24 -138q-37 6 -82 7q-141 0 -164 -129l-25 -154h447l67 389h164l-250 -1413h-163l157 885h-446l-158 -885h-164l158 885h-447l-157 -885h-164l158 885h-152l25 139h151l27 158q25 141 122 202t224 62
q45 0 86 -8l-23 -138q-41 6 -84 7q-138 0 -161 -129z" />
    <glyph glyph-name="arrowleftup" horiz-adv-x="1523" 
d="M254 434l133 762h762l137 -164l-665 6l651 -782l-129 -109l-641 789l-115 -666z" />
    <glyph glyph-name="arrowrightup" horiz-adv-x="1523" 
d="M676 1196h762l-133 -762l-195 -164l125 664l-922 -789l-92 111l926 780l-664 -4z" />
    <glyph glyph-name="arrowleftdown" horiz-adv-x="1521" 
d="M969 205h-762l135 764l193 164l-123 -666l921 788l90 -106l-927 -782l665 2z" />
    <glyph glyph-name="agrave.ss01" horiz-adv-x="1185" 
d="M551 1413h205l100 -266h-137zM684 905q-154 1 -249 -109t-126 -290t27 -284t197 -105q139 0 239 94t137 295q12 66 13 124q0 275 -238 275zM668 1044q106 0 187 -48t116 -144l57 182h137l-182 -1034h-139l12 174q-152 -195 -375 -194q-193 0 -290 136t-52 390t191 396
t338 142z" />
    <glyph glyph-name="aacute.ss01" horiz-adv-x="1185" 
d="M827 1413h205l-260 -266h-137zM684 905q-154 1 -249 -109t-126 -290t27 -284t197 -105q139 0 239 94t137 295q12 66 13 124q0 275 -238 275zM668 1044q106 0 187 -48t116 -144l57 182h137l-182 -1034h-139l12 174q-152 -195 -375 -194q-193 0 -290 136t-52 390t191 396
t338 142z" />
    <glyph glyph-name="acircumflex.ss01" horiz-adv-x="1185" 
d="M893 1413l160 -266h-123l-131 176l-195 -176h-125l254 266h160zM684 905q-154 1 -249 -109t-126 -290t27 -284t197 -105q139 0 239 94t137 295q12 66 13 124q0 275 -238 275zM668 1044q106 0 187 -48t116 -144l57 182h137l-182 -1034h-139l12 174q-152 -195 -375 -194
q-193 0 -290 136t-52 390t191 396t338 142z" />
    <glyph glyph-name="atilde.ss01" horiz-adv-x="1185" 
d="M890 1184q-66 0 -134 57t-115 57q-76 0 -96 -86h-121q40 201 238 201q72 0 140 -57t111 -58q74 0 99 86h121q-12 -62 -56 -122q-55 -78 -187 -78zM684 905q-154 1 -249 -109t-126 -290t27 -284t197 -105q139 0 239 94t137 295q12 66 13 124q0 275 -238 275zM668 1044
q106 0 187 -48t116 -144l57 182h137l-182 -1034h-139l12 174q-152 -195 -375 -194q-193 0 -290 136t-52 390t191 396t338 142z" />
    <glyph glyph-name="adieresis.ss01" horiz-adv-x="1185" 
d="M532 1229l33 184h180l-32 -184h-181zM850 1229l33 184h180l-33 -184h-180zM684 905q-154 1 -249 -109t-126 -290t27 -284t197 -105q139 0 239 94t137 295q12 66 13 124q0 275 -238 275zM668 1044q106 0 187 -48t116 -144l57 182h137l-182 -1034h-139l12 174
q-152 -195 -375 -194q-193 0 -290 136t-52 390t191 396t338 142z" />
    <glyph glyph-name="aring.ss01" horiz-adv-x="1185" 
d="M822 1522q81 0 127 -56t32 -139q-14 -82 -81 -139q-68 -58 -148 -58t-127 58t-33 138t82 138t148 58zM770 1233q39 0 71 28q32 29 38 67t-16 65q-21 27 -59 27t-72 -28t-40 -66t16 -66t62 -27zM684 905q-154 1 -249 -109t-126 -290t27 -284t197 -105q139 0 239 94
t137 295q12 66 13 124q0 275 -238 275zM668 1044q106 0 187 -48t116 -144l57 182h137l-182 -1034h-139l12 174q-152 -195 -375 -194q-193 0 -290 136t-52 390t191 396t338 142z" />
    <glyph glyph-name="one.osf" horiz-adv-x="911" 
d="M313 969q182 0 211 178h164l-178 -1010h287l-25 -137h-737l24 137h287l123 694h-260l24 138h80z" />
    <glyph glyph-name="two.osf" horiz-adv-x="1112" 
d="M713 1167q213 1 296 -107t52 -283t-192 -323t-547 -317h643l-25 -137h-897l29 150q508 232 659 368q82 74 114 127t44 121q45 262 -205 262t-317 -264h-170q108 403 516 403z" />
    <glyph glyph-name="zero.osf" horiz-adv-x="1169" 
d="M737 1167q129 0 219 -50t131 -134q92 -189 43 -412q-44 -247 -198 -419t-404 -172q-127 0 -218 50t-131 133q-91 188 -44 408q45 252 199 424t403 172zM715 1028q-171 0 -273 -130t-137 -327t21 -325t227 -129q170 0 272 129q101 130 137 326t-20 326t-227 130z" />
    <glyph glyph-name="three.osf" horiz-adv-x="1056" 
d="M444 -266q-218 0 -323 104q-106 104 -86 305h166q-25 -272 256 -272q149 0 243 81t120 223t-43 222t-216 80h-139l24 137l424 414h-589l24 139h787l-25 -139l-449 -414q205 0 307 -114q101 -114 66 -312t-182 -326t-365 -128z" />
    <glyph glyph-name="four.osf" horiz-adv-x="1130" 
d="M729 137l139 785l-637 -785h498zM827 -246h-163l43 246h-691l25 139l870 1028h164l-182 -1030h180l-22 -137h-181z" />
    <glyph glyph-name="five.osf" horiz-adv-x="1122" 
d="M681 647q196 0 289 -132t57 -336q-35 -205 -191 -325t-354 -120t-306 102t-86 297h170q-16 -137 56 -200q73 -62 200 -62t222 85t121 227q27 143 -35 237t-211 94t-247 -110q-26 -28 -42 -60l-156 59l213 744h741l-24 -139h-604l-150 -498q141 137 337 137z" />
    <glyph glyph-name="six.osf" horiz-adv-x="1198" 
d="M578 117q144 0 239 83q94 82 119 228q26 146 -38 226t-204 79q-84 0 -154 -31q-70 -32 -109 -72q-102 -103 -126 -224q-11 -129 59 -209t214 -80zM737 866q195 0 300 -114t69 -319q-36 -206 -184 -330q-147 -124 -363 -123q-152 0 -248 55t-132 150q-78 205 -15 489
q59 338 226 528t419 191q201 -1 293 -107t78 -239h-162q0 207 -234 206q-371 0 -467 -622q150 235 420 235z" />
    <glyph glyph-name="seven.osf" horiz-adv-x="1007" 
d="M1073 1147l-24 -139l-760 -1254h-164l762 1254h-729l24 139h891z" />
    <glyph glyph-name="eight.osf" 
d="M682 801q109 0 198 55t109 178q27 153 -104 200q-54 19 -107 19q-281 0 -319 -219q-20 -123 47 -178t176 -55zM658 662q-134 0 -244 -73t-131 -208q-12 -68 2 -118q41 -146 283 -146q102 0 183 34q156 65 185 230q23 135 -60 208q-84 73 -218 73zM534 -20
q-234 0 -344 104q-111 104 -77 295q42 246 323 350q-184 102 -145 307q25 152 152 254q128 102 344 102q217 0 307 -102t65 -254q-20 -114 -92 -190t-162 -117q242 -104 199 -350q-33 -188 -184 -294q-152 -105 -386 -105z" />
    <glyph glyph-name="nine.osf" horiz-adv-x="1193" 
d="M716 1030q-144 0 -238 -79t-119 -220q-26 -141 40 -223q65 -82 185 -82t200 41t120 98q76 109 81 166q10 127 -57 213q-68 86 -212 86zM561 293q-188 0 -295 116q-106 116 -71 315q35 200 181 322t355 121q351 0 407 -300q31 -173 -7 -383q-38 -208 -98 -342t-128 -210
q-69 -76 -151 -122q-139 -76 -277 -76q-199 0 -289 110t-77 246h163q0 -111 62 -164t160 -53q100 0 177 42t126 107q127 169 174 492q-150 -221 -412 -221z" />
    <glyph glyph-name="zero.tf" 
d="M795 1434q518 0 388 -730t-648 -729q-518 -1 -388 729t648 730zM768 1294q-214 0 -321 -188q-87 -156 -131 -400q-45 -244 -10 -408q19 -89 84 -137t171 -48q214 0 320 185q90 158 134 400q43 243 8 408q-19 90 -84 139t-171 49z" />
    <glyph glyph-name="zero.zero.tf" 
d="M881 302q144 251 157 646l-737 -629q45 -203 259 -203q215 0 321 186zM768 1294q-215 0 -321 -188q-87 -156 -132 -404q-27 -141 -24 -241l737 626q-45 207 -260 207zM795 1434q518 0 389 -732q-133 -723 -647 -722q-143 0 -238 56q-94 56 -132 153q-84 213 -20 513
q130 732 648 732z" />
    <glyph glyph-name="one.tf" 
d="M535 1235q182 0 210 178h164l-225 -1276h369l-25 -137h-901l25 137h368l170 961h-260l25 137h80z" />
    <glyph glyph-name="two.tf" 
d="M793 1434q199 0 302 -108t70 -293t-217 -378t-639 -518h721l-24 -137h-930l26 150q551 393 718 575q91 97 126 161t47 134q47 274 -225 274q-254 0 -332 -293h-170q52 215 190 324t337 109z" />
    <glyph glyph-name="three.tf" 
d="M564 -20q-216 0 -324 104t-86 303h165q-12 -135 56 -203t209 -68t237 89q96 88 119 225q53 291 -260 291h-139l24 139l422 414h-588l25 139h786l-24 -139l-449 -414q209 0 311 -108q101 -110 65 -306t-184 -331q-149 -135 -365 -135z" />
    <glyph glyph-name="four.tf" 
d="M813 530l113 637l-611 -637h498zM883 0h-164l69 393h-690l27 139l844 881h164l-156 -883h180l-24 -137h-181z" />
    <glyph glyph-name="five.tf" 
d="M743 899q197 0 289 -122q92 -121 56 -327t-194 -338t-354 -132t-304 103t-86 302h169q-16 -141 57 -205q72 -64 198 -63q126 0 224 93q97 94 122 238q24 144 -36 229t-208 85t-251 -107q-24 -25 -32 -41l-10 -18l-154 59l213 758h744l-25 -139h-606l-152 -512
q143 137 340 137z" />
    <glyph glyph-name="six.tf" 
d="M574 117q146 0 239 90q94 90 122 243q28 152 -38 232q-67 80 -187 80t-200 -43t-121 -107q-65 -101 -84 -178q-13 -141 55 -229t214 -88zM737 895q197 0 301 -113q104 -114 66 -326t-186 -344q-150 -132 -363 -132q-152 0 -248 57t-131 157q-76 215 -10 508
q59 342 227 537t420 195q199 0 290 -111t79 -248h-162q-2 219 -234 219q-369 0 -467 -635q148 236 418 236z" />
    <glyph glyph-name="seven.tf" 
d="M1229 1413l-25 -139l-764 -1274h-164l766 1274h-729l25 139h891z" />
    <glyph glyph-name="eight.tf" 
d="M686 821q109 1 197 57t108 179q14 76 -6 127q-20 50 -63 72q-75 38 -133 38q-284 0 -328 -237q-20 -123 48 -179t177 -57zM661 682q-134 0 -244 -74t-132 -209q-46 -286 282 -286q103 0 185 36q154 68 186 250q23 135 -60 209t-217 74zM794 1434q216 0 305 -109t62 -268
q-20 -113 -92 -190t-162 -117q242 -104 199 -351q-34 -201 -186 -313t-386 -111q-234 0 -344 112q-111 112 -75 312q42 247 325 351q-186 102 -147 307q29 161 157 269t344 108z" />
    <glyph glyph-name="nine.tf" 
d="M760 1296q-146 0 -240 -81t-119 -224t40 -225t206 -82q80 0 149 28q68 28 108 66t79 98q39 59 45 113q10 127 -56 217t-212 90zM608 551q-197 0 -302 116q-105 117 -68 319t183 325t365 123q510 0 385 -711q-33 -181 -94 -321t-128 -219t-149 -128q-131 -78 -259 -79
q-318 -3 -381 235q-16 59 -10 121h163q0 -217 228 -217q379 0 475 655q-152 -219 -408 -219z" />
    <glyph glyph-name="zero.zero" horiz-adv-x="1210" 
d="M564 117q214 0 319 178q51 86 80 176q66 211 73 457l-731 -625q45 -186 259 -186zM762 1253q-211 0 -317 -181q-89 -155 -130 -390q-27 -141 -24 -242l731 625q-49 188 -260 188zM788 1393q144 1 238 -55t133 -152q83 -204 23 -504q-125 -702 -643 -702q-517 0 -391 706
t640 707z" />
    <glyph glyph-name="yacute.ss02" horiz-adv-x="1021" 
d="M678 1413h205l-260 -266h-138zM1118 1024l-780 -1413h-158l238 428l-215 985h174l149 -811l432 811h160z" />
    <glyph glyph-name="ydieresis.ss02" horiz-adv-x="1021" 
d="M369 1229l32 184h181l-33 -184h-180zM686 1229l33 184h180l-33 -184h-180zM1118 1024l-780 -1413h-158l238 428l-215 985h174l149 -811l432 811h160z" />
    <glyph glyph-name="parenleft.case" horiz-adv-x="636" 
d="M729 1577q-285 -403 -370 -881t61 -880h-146q-168 401 -83 879t393 882h145z" />
    <glyph glyph-name="parenright.case" horiz-adv-x="636" 
d="M-39 -184q285 408 369 882t-62 879h146q168 -403 84 -879t-394 -882h-143z" />
    <glyph glyph-name="bracketleft.case" horiz-adv-x="634" 
d="M55 -184l310 1761h380l-24 -139h-217l-260 -1485h217l-25 -137h-381z" />
    <glyph glyph-name="bracketright.case" horiz-adv-x="634" 
d="M668 1577l-310 -1761h-378l24 137h215l260 1485h-217l25 139h381z" />
    <glyph glyph-name="braceleft.case" horiz-adv-x="761" 
d="M850 1577h22l-24 -139h-19q-77 0 -121 -48t-67 -173l-55 -308q-16 -88 -42 -134t-83 -79q45 -35 55 -81t-6 -132l-70 -397q-23 -133 127 -133h21l-25 -137h-22q-172 0 -230 71q-57 72 -24 258l63 351q12 66 -22 98t-129 33l24 139q174 0 197 131l61 350q33 188 115 259
t254 71z" />
    <glyph glyph-name="braceright.case" horiz-adv-x="761" 
d="M23 -47q150 0 172 133l69 397q16 86 42 132t83 81q-45 33 -55 80t6 133l55 308q23 125 -6 173t-106 48h-21l25 139h24q173 0 229 -71t23 -259l-61 -350q-12 -67 22 -99t129 -32l-24 -139q-177 0 -197 -131l-63 -351q-33 -188 -114 -259t-251 -70h-24l24 137h19z" />
    <glyph glyph-name="questiondown.case" horiz-adv-x="1126" 
d="M868 1413l-32 -194h-181l35 194h178zM508 -20q-207 0 -298 98q-90 98 -62 263t214 304q100 76 145 121q92 94 134 315h164q-37 -199 -91 -289t-152 -168q-98 -77 -132 -107q-33 -30 -69 -81q-36 -50 -49 -122t35 -134t183 -63q135 0 213 80t97 176h168
q-27 -153 -160 -273t-340 -120z" />
    <glyph glyph-name="guillemotleft.case" horiz-adv-x="1198" 
d="M1204 1128l-405 -448l245 -455h-172l-241 455l401 448h172zM795 1128l-406 -448l246 -455h-172l-242 455l402 448h172z" />
    <glyph glyph-name="guillemotright.case" horiz-adv-x="1198" 
d="M956 680l-245 448h174l239 -448l-399 -455h-174zM547 680l-246 448h174l240 -448l-400 -455h-174z" />
    <glyph glyph-name="guilsinglleft.case" horiz-adv-x="788" 
d="M795 1128l-406 -448l246 -455h-172l-242 455l402 448h172z" />
    <glyph glyph-name="guilsinglright.case" horiz-adv-x="788" 
d="M547 680l-246 448h174l240 -448l-400 -455h-174z" />
    <glyph glyph-name="exclamdown.case" horiz-adv-x="636" 
d="M199 0l225 1081h108l-157 -1081h-176zM414 1219l35 194h178l-35 -194h-178z" />
    <glyph glyph-name="underscore.case" horiz-adv-x="974" 
d="M-25 -250l17 103h973l-17 -103h-973z" />
    <glyph glyph-name="bullet.case" horiz-adv-x="851" 
d="M547 948q113 0 178 -78t45 -192q-20 -113 -114 -192q-94 -78 -206 -78t-177 78t-44 192t113 192t205 78z" />
    <glyph glyph-name="periodcentered.case" horiz-adv-x="409" 
d="M162 557l33 195h196l-33 -195h-196z" />
    <glyph glyph-name="hyphen.case" horiz-adv-x="778" 
d="M733 543l-24 -137h-584l25 137h583z" />
    <glyph glyph-name="endash.case" horiz-adv-x="1169" 
d="M127 436l27 146h974l-26 -146h-975z" />
    <glyph glyph-name="emdash.case" horiz-adv-x="2174" 
d="M127 436l27 146h1980l-27 -146h-1980z" />
    <glyph glyph-name="bar.case" horiz-adv-x="475" 
d="M154 -184l309 1761h164l-310 -1761h-163z" />
    <glyph glyph-name="brokenbar.case" horiz-adv-x="475" 
d="M76 -184l129 733h164l-129 -733h-164zM256 844l129 733h164l-129 -733h-164z" />
    <glyph glyph-name="I.ss07" horiz-adv-x="657" 
d="M14 0l25 137h168l201 1137h-168l24 139h502l-25 -139h-170l-200 -1137h170l-25 -137h-502z" />
    <glyph glyph-name="zero.tosf" 
d="M737 1167q129 0 219 -50t131 -134q92 -189 43 -412q-44 -247 -198 -419t-404 -172q-127 0 -218 50t-131 133q-91 188 -44 408q45 252 199 424t403 172zM715 1028q-171 0 -273 -130t-137 -327t21 -325t227 -129q170 0 272 129q101 130 137 326t-20 326t-227 130z" />
    <glyph glyph-name="one.tosf" 
d="M485 969q178 0 211 178h164l-178 -1010h369l-25 -137h-901l25 137h368l121 694h-260l24 138h82z" />
    <glyph glyph-name="two.tosf" 
d="M754 1167q213 1 296 -107t52 -283t-192 -323t-548 -317h644l-25 -137h-897l29 150q508 232 659 368q82 74 114 127t44 121q45 262 -205 262t-317 -264h-170q108 403 516 403z" />
    <glyph glyph-name="three.tosf" 
d="M508 -266q-217 0 -324 104q-106 104 -86 305h166q-28 -272 262 -272q142 0 236 81t120 223t-42 222t-215 80h-142l25 137l426 414h-590l25 139h784l-25 -139l-446 -414q205 0 305 -114t64 -328q-33 -182 -179 -310t-364 -128z" />
    <glyph glyph-name="four.tosf" 
d="M774 137l137 785l-635 -785h498zM870 -246h-163l43 246h-689l23 139l870 1028h164l-180 -1030h178l-22 -137h-181z" />
    <glyph glyph-name="five.tosf" 
d="M720 647q196 0 289 -132t57 -335q-36 -202 -193 -324t-353 -122t-306 102q-108 102 -85 297h168q-14 -137 57 -200q72 -62 200 -62t223 85t120 227q25 143 -35 237t-210 94q-149 0 -250 -110q-21 -23 -42 -60l-153 59l213 744h741l-24 -139h-605l-149 -498
q141 137 337 137z" />
    <glyph glyph-name="six.tosf" 
d="M580 117q146 0 239 90q94 90 122 243q28 152 -38 232q-67 80 -187 80t-200 -43t-121 -107q-65 -101 -84 -178q-13 -141 55 -229t214 -88zM743 895q197 0 301 -113q104 -114 66 -326t-186 -344q-150 -132 -363 -132q-152 0 -248 57t-131 157q-76 215 -10 508
q59 342 227 537t420 195q199 0 290 -111t79 -248h-162q-2 219 -233 219q-369 0 -467 -635q147 236 417 236z" />
    <glyph glyph-name="seven.tosf" 
d="M1210 1147l-24 -139l-760 -1254h-164l764 1254h-731l24 139h891z" />
    <glyph glyph-name="eight.tosf" 
d="M686 821q109 1 197 57t110 179q24 154 -70 199q-76 38 -134 38t-97 -8q-199 -41 -229 -229q-23 -123 45 -179t178 -57zM662 682q-133 0 -243 -74t-134 -209q-46 -286 282 -286q214 0 311 134q44 62 60 152q25 135 -59 209t-217 74zM795 1434q217 0 306 -109t60 -268
q-37 -209 -254 -307q242 -104 201 -351q-36 -201 -188 -313t-386 -111q-234 0 -343 112q-110 112 -74 312q38 247 323 351q-184 102 -147 307q29 161 157 269t345 108z" />
    <glyph glyph-name="nine.tosf" 
d="M722 1030q-146 0 -240 -79t-118 -219t40 -223t184 -83t200 41t120 98q76 109 81 166q10 129 -56 214q-65 85 -211 85zM279 90q0 -217 233 -217q298 0 422 427q29 99 43 214q-150 -221 -410 -221q-190 0 -297 116q-106 117 -70 317t182 321t353 120q156 0 253 -58
q97 -59 131 -157q73 -212 11 -503q-31 -173 -91 -307t-129 -210q-70 -76 -152 -122q-139 -77 -277 -76q-199 0 -289 110t-75 246h162z" />
    <glyph glyph-name="numbersign.tf" 
d="M604 901l-190 -430h299l190 430h-299zM47 0l150 334h-146l25 137h180l188 430h-231l25 137h270l170 375h160l-172 -375h299l170 375h157l-172 -375h150l-25 -137h-186l-189 -430h238l-25 -137h-272l-152 -334h-155l149 334h-299l-149 -334h-158z" />
    <glyph glyph-name="dollar.tf" 
d="M399 1063q-18 -105 40 -155t184 -81l84 467q-271 -22 -308 -231zM975 381q20 119 -43 174t-213 94l-94 -532q309 16 350 264zM883 1579l-27 -149q389 -25 361 -381h-170q10 111 -39 172t-174 71l-86 -493l61 -15q182 -45 275 -133q92 -88 62 -267t-172 -287t-372 -117
l-27 -146h-126l26 148q-219 18 -316 130t-79 294h168q-27 -258 252 -287l98 559q-207 41 -303 125q-95 84 -67 247t155 265t346 115l27 149h127z" />
    <glyph glyph-name="plus.tf" 
d="M662 993h139l-72 -407h408l-25 -137h-407l-72 -406h-137l71 406h-407l24 137h408z" />
    <glyph glyph-name="less.tf" 
d="M1014 59l-826 387l25 142l963 387l-31 -164l-772 -295l667 -295z" />
    <glyph glyph-name="equal.tf" 
d="M170 418l25 137h888l-24 -137h-889zM236 795l26 139h889l-25 -139h-890z" />
    <glyph glyph-name="greater.tf" 
d="M283 975l823 -387l-25 -144l-960 -387l29 164l774 295l-670 295z" />
    <glyph glyph-name="asciitilde.tf" 
d="M512 539q-82 0 -98 -93h-121q39 215 235 216q72 0 150 -48t117 -47q76 0 94 95h121q-43 -215 -234 -216q-72 0 -146 46t-118 47z" />
    <glyph glyph-name="cent.tf" 
d="M738 1110q-132 0 -241 -97q-108 -97 -144 -300t40 -297t221 -94q250 0 334 229h170q-57 -150 -177 -251t-306 -114l-33 -186h-102l32 186q-200 16 -294 156t-54 372q40 234 184 374t351 159l29 164h104l-31 -164q182 -14 267 -125t73 -258h-168q5 114 -59 180t-196 66z
" />
    <glyph glyph-name="sterling.tf" 
d="M806 1413q204 0 289 -92t48 -291h-168q25 136 -27 188t-162 52q-221 0 -262 -211l-65 -377h377l-23 -131h-377l-47 -270q-18 -96 -108 -140h452q142 4 195 87q37 59 51 143h168q-13 -70 -33 -123q-20 -54 -65 -114q-97 -131 -334 -134h-717l25 141q176 0 196 140l47 270
h-170l25 131h170l65 377q20 118 118 228q50 56 138 91t194 35z" />
    <glyph glyph-name="currency.tf" 
d="M1204 1069l82 -100l-160 -133q82 -141 54 -324q-37 -184 -168 -322l112 -135l-116 -100l-111 135q-164 -110 -344 -110t-303 110l-158 -135l-82 100l158 135q-84 144 -52 324t167 322l-111 133l117 100l110 -135q160 110 343 110t302 -110zM580 127q158 0 292 113
q134 112 160 272q27 160 -67 272t-251 111q-157 0 -290 -112q-133 -111 -161 -271q-29 -160 65 -272t252 -113z" />
    <glyph glyph-name="yen.tf" 
d="M1327 1413l-520 -731h278l-20 -119h-344l-33 -180h344l-20 -119h-344l-47 -264h-166l47 264h-355l23 119h352l33 180h-354l22 119h287l-260 731h186l232 -711l481 711h178z" />
    <glyph glyph-name="section.tf" 
d="M911 657q12 67 -27 106t-140 56q-24 4 -64 10t-62 11q-160 -18 -182 -150q-17 -97 63 -130q54 -23 147 -38q93 -16 124 -22q114 32 141 157zM1074 1356q76 -78 68 -165q-5 -42 -7 -81h-170q21 61 -12 124q-33 64 -185 64q-223 0 -254 -153q-14 -82 46 -123t154 -55
q94 -13 185 -33q93 -20 149 -86t35 -182q-29 -162 -186 -222q135 -66 102 -245q-16 -93 -70 -157t-130 -93q-134 -51 -267 -51t-216 30q-82 30 -114 78q-32 46 -45 106t3 115h170q-20 -53 17 -126q15 -30 67 -50t131 -20q256 0 286 168q14 77 -46 117t-152 58t-184 40
q-92 23 -149 88q-56 66 -36 178q14 68 64 134t121 91q-55 25 -87 88t-14 164t126 189t316 88t284 -78z" />
    <glyph glyph-name="logicalnot.tf" 
d="M182 569l23 136h966l-94 -535h-164l72 399h-803z" />
    <glyph glyph-name="plusminus.tf" 
d="M688 1192h141l-65 -371h371l-25 -141h-371l-65 -373h-144l68 373h-369l23 141h369zM1014 135l-25 -135h-880l22 135h883z" />
    <glyph glyph-name="multiply.tf" 
d="M313 803l115 96l236 -285l337 285l80 -96l-336 -287l234 -285l-115 -98l-235 285l-334 -285l-80 98l334 285z" />
    <glyph glyph-name="divide.tf" 
d="M1106 631l-25 -142h-882l24 142h883zM494 135l32 193h179l-35 -193h-176zM608 793l33 192h178l-33 -192h-178z" />
    <glyph glyph-name="florin.tf" 
d="M154 -274q50 0 106 30q55 31 74 86l352 996h-149l47 133h149q4 10 35 98t49 131q41 100 138 160t183 61q86 0 128 -22l-45 -127q-29 16 -80 16t-105 -32t-73 -87l-72 -198h225l-47 -133h-225q-156 -439 -220 -620q-64 -180 -92 -258t-39 -112q-42 -127 -145 -191
q-104 -65 -190 -65t-129 23l47 127q28 -16 78 -16z" />
    <glyph glyph-name="Euro.tf" 
d="M1026 291l96 -115q-176 -197 -432 -196q-206 0 -324 129t-116 380h-160l23 121h686l-88 -118h-289q-2 -358 295 -359q184 0 309 158zM920 1278q-156 0 -260 -106t-162 -263h522l-88 -121h-789l21 121h162q86 250 251 387t371 138q256 0 359 -209l-140 -113
q-63 166 -247 166z" />
    <glyph glyph-name="minus.tf" 
d="M1118 766l-24 -137h-889l24 137h889z" />
    <glyph glyph-name="zero.zero.osf" horiz-adv-x="1210" 
d="M731 1028q-166 0 -268 -130t-137 -329q-20 -125 -9 -213l639 549q-59 123 -225 123zM579 117q165 1 267 129t137 329q18 113 8 209l-639 -546q61 -121 227 -121zM758 1167q129 0 219 -50t131 -133q91 -184 43 -411q-43 -249 -198 -421t-404 -172q-127 0 -218 50t-131 133
t-54 191t10 219q45 250 199 422q155 172 403 172z" />
    <glyph glyph-name="zero.zero.tosf" horiz-adv-x="1210" 
d="M731 1028q-166 0 -268 -130t-137 -329q-20 -125 -9 -213l639 549q-59 123 -225 123zM579 117q165 1 267 129t137 329q18 113 8 209l-639 -546q61 -121 227 -121zM758 1167q129 0 219 -50t131 -133q91 -184 43 -411q-43 -249 -198 -421t-404 -172q-127 0 -218 50t-131 133
t-54 191t10 219q45 250 199 422q155 172 403 172z" />
    <glyph glyph-name="arrowleft.ss08" horiz-adv-x="1523" 
d="M451 827l-41 -231h1116l-23 -123h-1116l-41 -231l-237 293z" />
    <glyph glyph-name="arrowright.ss08" horiz-adv-x="1523" 
d="M1235 596l41 231l240 -292l-345 -293l41 231h-1116l23 123h1116z" />
    <glyph glyph-name="arrowup.ss08" horiz-adv-x="1521" 
d="M836 1116h-232l344 291l242 -291h-232l-196 -1116h-123z" />
    <glyph glyph-name="arrowdown.ss08" horiz-adv-x="1523" 
d="M459 291h231l197 1116h123l-197 -1116h231l-344 -291z" />
    <glyph glyph-name="arrowboth.ss08" horiz-adv-x="2000" 
d="M451 827l-41 -231h1116l41 231l239 -292l-344 -293l41 231h-1116l-41 -231l-237 293z" />
    <glyph glyph-name="arrowleftup.ss08" horiz-adv-x="1523" 
d="M815 1024l-192 -162l651 -790l-103 -86l-651 788l-190 -164l73 414h412z" />
    <glyph glyph-name="arrowrightup.ss08" horiz-adv-x="1523" 
d="M1165 862l-135 162h412l-74 -414l-133 164l-926 -788l-73 86z" />
    <glyph glyph-name="arrowleftdown.ss08" horiz-adv-x="1521" 
d="M498 162l135 -162h-412l74 414l133 -164l928 788l71 -86z" />
    <glyph glyph-name="arrowrightdown.ss08" horiz-adv-x="1523" 
d="M848 0l192 162l-651 790l105 86l649 -788l190 164l-73 -414h-412z" />
    </font>
</defs>
</svg>
