<?xml version="1.0" standalone="no"?>
<!DOCTYPE svg PUBLIC "-//W3C//DTD SVG 1.1//EN" "http://www.w3.org/Graphics/SVG/1.1/DTD/svg11.dtd" >
<svg xmlns="http://www.w3.org/2000/svg">
<metadata>
Created by FontPrep 20130207 at Tue Sep  8 17:39:34 2015
 By Marcos Dopico Castro
Copyright (c) 201332015 by Marcos Dopico // MaisTypes. All rights reserved.
</metadata>
<defs>
<font id="e7b3147fefec5707253b4ebf5c75d144" horiz-adv-x='1024' >
  <font-face 
    font-family="MaisGrotesk-RegularItalic"
    font-weight="400"
    font-style="italic"
    font-stretch="normal"
    units-per-em="2048"
    panose-1="0 0 0 0 0 0 0 0 0 0"
    ascent="1536"
    descent="-512"
    x-height="1024"
    cap-height="1413"
    bbox="-489 -410 2411.69 1993"
    underline-thickness="102"
    underline-position="-102"
    unicode-range="U+0020-FB04"
  />
<missing-glyph horiz-adv-x="829" 
d="M539 735l151 -524l184 1051zM455 606l-320 -497h465zM356 1364l144 -498l321 498h-465zM418 735l-152 531l-186 -1059zM764 0h-827l258 1473h829z" />
    <glyph glyph-name="ellipsis" unicode="&#x2e;&#x2e;&#x2e;" horiz-adv-x="1331" 
d="M942 0l39 225h229l-39 -225h-229zM539 0l39 225h229l-39 -225h-229zM135 0l39 225h229l-38 -225h-230z" />
    <glyph glyph-name="ff" unicode="ff" horiz-adv-x="1325" 
d="M700 1446q31 0 97 -8l-29 -174q-49 8 -82 8q-133 0 -154 -125l-20 -123h457l22 133q27 149 130 219t241 70q33 0 98 -8l-30 -174q-49 8 -82 8q-131 0 -154 -125l-20 -123h198l-33 -174h-196l-152 -850h-205l152 850h-459l-149 -850h-205l149 850h-153l33 174h153l23 133
q27 149 130 219t240 70z" />
    <glyph glyph-name="fi" unicode="fi" horiz-adv-x="1150" 
d="M1188 1413l-37 -205h-205l37 205h205zM700 1446q31 0 97 -8l-29 -174q-49 8 -82 8q-131 0 -154 -125l-20 -123h608l-182 -1024h-205l150 850h-404l-149 -850h-205l149 850h-153l33 174h153l23 133q27 149 130 219t240 70z" />
    <glyph glyph-name="fl" unicode="fl" horiz-adv-x="1222" 
d="M1094 162h20l-31 -168q-61 -6 -94 -6q-256 0 -211 258l107 604h-404l-149 -850h-205l149 850h-153l31 174h153l23 133q27 149 130 219t240 70q29 0 99 -8l-31 -174q-49 8 -82 8q-131 0 -154 -125l-20 -123h403l68 389h205l-203 -1149q-10 -63 14 -83q25 -19 95 -19z" />
    <glyph glyph-name="ffi" unicode="ffi" horiz-adv-x="1814" 
d="M1610 1208l37 205h204l-36 -205h-205zM1335 1446q31 0 97 -8l-29 -174q-49 8 -82 8q-133 0 -154 -125l-20 -123h637l-182 -1024h-205l149 850h-432l-149 -850h-205l149 850h-430l-149 -850h-205l149 850h-153l33 174h153l23 133q27 149 129 219t241 70q31 0 97 -8
l-29 -174q-49 8 -82 8q-134 0 -154 -125l-20 -123h430l23 133q27 149 130 219t240 70z" />
    <glyph glyph-name="ffl" unicode="ffl" horiz-adv-x="1886" 
d="M1757 162h21l-31 -168q-61 -6 -94 -6q-256 0 -211 258l106 604h-432l-149 -850h-205l149 850h-430l-149 -850h-205l149 850h-153l31 174h153l23 133q27 149 129 219t241 70q29 0 99 -8l-31 -174q-49 8 -82 8q-131 0 -154 -125l-20 -123h430l23 133q27 149 130 219t240 70
q29 0 99 -8l-31 -174q-49 8 -82 8q-131 0 -154 -125l-20 -123h432l68 389h204l-202 -1149q-10 -63 14 -83q25 -19 94 -19z" />
    <glyph glyph-name="ft" unicode="ft" horiz-adv-x="1298" 
d="M1024 -10q-131 0 -197 82t-39 229l97 549h-404l-149 -850h-205l149 850h-153l31 174h153l23 129q29 168 123 229t237 62q16 0 109 -6l-31 -168h-84q-129 0 -149 -117l-23 -129h403l48 268l215 62l-58 -330h221l-30 -174h-221l-101 -563q-10 -57 26 -90t84 -33t91 6
l-29 -164q-82 -16 -137 -16z" />
    <glyph glyph-name="fj" unicode="fj" horiz-adv-x="1110" 
d="M965 1208l36 205h205l-37 -205h-204zM602 -399q-68 0 -135 6l31 170h77q57 0 102 28q44 29 54 89l170 956h-403l-150 -850h-205l150 850h-154l31 174h154l22 133q27 149 131 219t242 70q27 0 96 -8l-31 -174q-45 8 -82 8q-128 0 -151 -125l-23 -123h609l-205 -1157
q-25 -143 -119 -205t-211 -61z" />
    <glyph glyph-name="ffj" unicode="ffj" horiz-adv-x="1773" 
d="M1628 1208l37 205h205l-37 -205h-205zM1354 1446q27 0 96 -8l-31 -174q-45 8 -80 8q-133 0 -153 -125l-23 -123h637l-205 -1159q-23 -129 -121 -200t-208 -71q-68 0 -133 17l28 164q35 -6 74 -6q137 0 170 174l160 907h-432l-150 -850h-205l150 850h-430l-150 -850h-205
l150 850h-154l31 174h154l22 133q27 149 130 219t243 70q27 0 96 -8l-31 -174q-45 8 -79 8q-134 0 -154 -125l-23 -123h430l23 133q27 149 131 219t242 70z" />
    <glyph glyph-name="fft" unicode="fft" horiz-adv-x="1982" 
d="M1335 1446q29 0 99 -8l-31 -174q-49 8 -82 8q-131 0 -154 -125l-20 -123h432l47 268l215 62l-57 -330h201l-31 -174h-201l-104 -588q-13 -61 21 -85q60 -43 204 -13l-29 -164q-63 -20 -181 -20t-184 61t-42 190l110 619h-432l-149 -850h-205l149 850h-430l-149 -850h-205
l149 850h-153l31 174h153l23 133q27 149 130 219t240 70q29 0 99 -8l-31 -174q-49 8 -82 8q-131 0 -154 -125l-20 -123h430l23 133q27 149 130 219t240 70z" />
    <glyph glyph-name=".notdef" horiz-adv-x="829" 
d="M539 735l151 -524l184 1051zM455 606l-320 -497h465zM356 1364l144 -498l321 498h-465zM418 735l-152 531l-186 -1059zM764 0h-827l258 1473h829z" />
    <glyph glyph-name=".null" horiz-adv-x="0" 
 />
    <glyph glyph-name="nonmarkingreturn" horiz-adv-x="681" 
 />
    <glyph glyph-name="space" unicode=" " horiz-adv-x="495" 
 />
    <glyph glyph-name="exclam" unicode="!" horiz-adv-x="643" 
d="M150 0l38 225h215l-38 -225h-215zM252 362l154 1072h208l-225 -1072h-137z" />
    <glyph glyph-name="quotedbl" unicode="&#x22;" horiz-adv-x="827" 
d="M547 870l96 553h184l-96 -553h-184zM199 870l96 553h184l-96 -553h-184z" />
    <glyph glyph-name="numbersign" unicode="#" horiz-adv-x="1312" 
d="M670 881l-178 -400h260l176 400h-258zM78 0l139 311h-151l28 170h199l176 400h-244l33 174h289l164 358h200l-163 -358h258l163 358h199l-166 -358h160l-33 -174h-205l-176 -400h250l-29 -170h-297l-139 -311h-196l139 311h-258l-139 -311h-201z" />
    <glyph glyph-name="dollar" unicode="$" horiz-adv-x="1366" 
d="M508 1057q-16 -90 33 -135t153 -74l72 409q-225 -24 -258 -200zM1024 387q18 105 -36 155t-181 83l-84 -473q266 22 301 235zM975 1579l-27 -149q389 -33 357 -390h-211q6 94 -33 150t-143 67l-78 -444l69 -18q175 -43 267 -133t61 -272t-175 -289q-144 -108 -370 -119
l-24 -150h-152l25 152q-219 18 -314 134q-94 116 -75 300h210q-27 -227 209 -262l91 503q-196 45 -297 127q-102 82 -72 251q31 169 159 273t345 120l26 149h152z" />
    <glyph glyph-name="percent" unicode="%" horiz-adv-x="1669" 
d="M1377 827q325 0 251 -424t-401 -423q-323 0 -249 424t399 423zM1470 401q57 295 -115 295q-91 0 -142 -73q-50 -74 -76 -222q-61 -292 114 -290q92 0 142 71q49 72 77 219zM555 1393q328 0 252 -424q-77 -424 -401 -424t-248 424t397 424zM428 676q92 0 142 72t77 219
q62 295 -114 295q-91 0 -141 -74t-78 -217q-58 -295 114 -295zM1421 1477l99 -64l-1112 -1476l-99 63z" />
    <glyph glyph-name="ampersand" unicode="&#x26;" horiz-adv-x="1286" 
d="M637 643q-268 0 -311 -242q-18 -100 30 -163t199 -64h287l84 469h-289zM508 0q-231 0 -331 97q-99 97 -69 265t126 254q96 88 215 109q-223 88 -183 326q29 160 157 261t335 101h239l-30 -174h-224q-121 0 -187 -61q-66 -60 -81 -148q-16 -88 25 -150t168 -63h288l35 199
h205l-35 -199h166l-31 -174h-166l-114 -643h-508z" />
    <glyph glyph-name="quotesingle" unicode="'" horiz-adv-x="479" 
d="M199 870l96 553h184l-96 -553h-184z" />
    <glyph glyph-name="parenleft" unicode="(" horiz-adv-x="575" 
d="M739 1413q-285 -401 -371 -881t62 -880h-190q-168 401 -83 879t392 882h190z" />
    <glyph glyph-name="parenright" unicode=")" horiz-adv-x="575" 
d="M-70 -348q285 406 371 882t-63 879h190q168 -403 84 -879t-393 -882h-189z" />
    <glyph glyph-name="asterisk" unicode="*" horiz-adv-x="999" 
d="M715 1419l-56 -209l207 82l21 -129l-213 -45l108 -157l-120 -80l-78 180l-140 -180l-92 77l164 162l-199 45l66 127l182 -82l15 209h135z" />
    <glyph glyph-name="plus" unicode="+" horiz-adv-x="1198" 
d="M655 1001h174l-69 -393h393l-31 -174h-393l-70 -391h-174l70 391h-391l31 174h391z" />
    <glyph glyph-name="comma" unicode="," horiz-adv-x="479" 
d="M408 225l-41 -225q-57 -156 -228 -256h-84q48 35 92 100q44 66 62 156h-72l41 225h230z" />
    <glyph glyph-name="hyphen" unicode="-" horiz-adv-x="817" 
d="M764 573l-31 -174h-596l31 174h596z" />
    <glyph glyph-name="period" unicode="." horiz-adv-x="432" 
d="M90 0l39 225h229l-39 -225h-229z" />
    <glyph glyph-name="slash" unicode="/" horiz-adv-x="743" 
d="M920 1413l-764 -1413h-199l762 1413h201z" />
    <glyph glyph-name="zero" unicode="0" horiz-adv-x="1220" 
d="M795 1393q426 0 426 -471q0 -263 -95 -500q-51 -127 -127 -223q-75 -95 -193 -157t-261 -62q-428 0 -428 466q0 267 95 501q52 128 128 225t194 159t261 62zM1010 918q0 301 -236 301q-129 0 -219 -76t-137 -197q-94 -242 -92 -485q0 -145 55 -227t185 -80q130 0 219 76
t136 195q89 232 89 493z" />
    <glyph glyph-name="one" unicode="1" horiz-adv-x="753" 
d="M305 1163q176 0 213 189h205l-240 -1352h-204l176 989h-279l29 174h100z" />
    <glyph glyph-name="two" unicode="2" horiz-adv-x="1155" 
d="M734 1393q196 0 300 -86t104 -220t-77 -282q-50 -92 -199 -229q-148 -137 -534 -402h682l-29 -174h-950l30 186q527 362 695 526t168 328q0 178 -203 179q-125 0 -195 -69t-104 -196h-211q49 215 188 327t335 112z" />
    <glyph glyph-name="three" unicode="3" horiz-adv-x="1093" 
d="M584 659h-154l31 175l373 344h-549l30 174h803l-31 -174l-407 -344q184 0 286 -106t66 -302q-35 -196 -187 -322q-153 -124 -368 -124t-331 99t-95 288h209q-16 -213 244 -213q126 0 211 70q84 70 102 179q45 256 -233 256z" />
    <glyph glyph-name="four" unicode="4" horiz-adv-x="1138" 
d="M741 520l93 529l-527 -529h434zM852 0h-205l64 346h-674l31 176l819 830h205l-146 -832h189l-31 -174h-189z" />
    <glyph glyph-name="five" unicode="5" horiz-adv-x="1132" 
d="M548 154q116 0 201 78t107 202q22 125 -34 196t-187 70q-82 0 -147 -36t-89 -74l-24 -35l-191 74l207 723h764l-31 -174h-592l-131 -430q135 126 323 126t283 -118t60 -321q-35 -204 -197 -330q-162 -125 -362 -125t-310 96q-112 96 -92 289h211q-13 -109 51 -160
t180 -51z" />
    <glyph glyph-name="six" unicode="6" horiz-adv-x="1208" 
d="M592 154q137 0 230 99t93 245q0 207 -227 207q-86 0 -156 -37q-108 -57 -166 -185q-19 -41 -24 -65q-10 -119 51 -192q62 -72 199 -72zM758 868q166 0 269 -84t103 -254q0 -229 -164 -390t-407 -160q-426 0 -426 432q0 260 95 510q52 133 128 236t194 169t259 66
q207 -1 303 -107t82 -252h-205q4 183 -211 185q-330 0 -418 -553q144 202 398 202z" />
    <glyph glyph-name="seven" unicode="7" horiz-adv-x="1017" 
d="M1104 1352l-31 -174l-731 -1178h-207l737 1178h-704l31 174h905z" />
    <glyph glyph-name="eight" unicode="8" horiz-adv-x="1216" 
d="M689 817q95 0 174 50t97 158t-48 151q-67 43 -134 43q-67 -1 -116 -13q-48 -12 -102 -59t-66 -123q-20 -111 40 -159t155 -48zM660 643q-124 0 -220 -63t-118 -189q-12 -70 7 -120t62 -73q79 -44 165 -44q88 0 150 16t125 72t80 149q23 125 -52 189t-199 63zM420 729
q-76 43 -116 119t-21 180q29 162 162 263t347 101t310 -102t69 -262q-18 -102 -85 -179t-152 -120q229 -106 186 -342q-34 -193 -190 -301t-390 -106q-234 0 -350 106q-115 106 -81 301q43 240 311 342z" />
    <glyph glyph-name="nine" unicode="9" horiz-adv-x="1204" 
d="M731 1217q-137 -1 -230 -93t-93 -233q0 -93 58 -147t156 -54t169 34q69 34 107 83q65 84 79 151q6 109 -51 184q-58 75 -195 75zM580 526q-166 0 -273 85q-106 85 -108 243q0 225 163 382q164 157 404 157q418 0 422 -445q0 -328 -152 -630q-76 -150 -213 -244t-329 -94
t-285 102q-94 102 -82 248h207q0 -86 54 -130t149 -44q344 0 424 563q-139 -193 -381 -193z" />
    <glyph glyph-name="colon" unicode=":" horiz-adv-x="432" 
d="M229 799l39 225h230l-39 -225h-230zM90 0l39 225h229l-39 -225h-229z" />
    <glyph glyph-name="semicolon" unicode=";" horiz-adv-x="479" 
d="M262 799l39 225h229l-38 -225h-230zM408 225l-41 -225q-57 -156 -228 -256h-84q48 35 92 100q44 66 62 156h-72l41 225h230z" />
    <glyph glyph-name="less" unicode="&#x3c;" horiz-adv-x="1198" 
d="M1034 57l-841 387l26 156l979 387l-37 -205l-725 -260l633 -260z" />
    <glyph glyph-name="equal" unicode="=" horiz-adv-x="1183" 
d="M152 395l30 174h899l-30 -174h-899zM219 782l33 174h897l-31 -174h-899z" />
    <glyph glyph-name="greater" unicode="&#x3e;" horiz-adv-x="1198" 
d="M289 985l839 -387l-26 -154l-977 -387l35 205l725 260l-633 260z" />
    <glyph glyph-name="question" unicode="?" horiz-adv-x="1136" 
d="M365 0l38 225h215l-38 -225h-215zM744 1434q213 0 305 -102t61 -271q-31 -170 -217 -307q-129 -96 -179 -166t-77 -226h-205q33 186 90 276q56 90 150 164q94 72 125 100q89 82 107 186q11 66 -34 118q-44 54 -160 54t-187 -68t-85 -154h-207q25 150 162 273
q138 123 351 123z" />
    <glyph glyph-name="at" unicode="@" horiz-adv-x="1998" 
d="M1329 1581q367 0 550 -219t118 -578q-51 -289 -222 -472t-413 -183q-125 0 -173 50t-38 128q0 14 8 43q-139 -143 -330 -143q-141 0 -209 82q-68 83 -41 237q59 328 300 499q125 89 268 89q184 0 225 -139l41 115h172l-244 -693q-41 -123 78 -123q160 0 268 157t142 360
q29 127 5 243t-82 204q-58 89 -174 142q-116 54 -288 54t-350 -77q-176 -77 -304 -202t-216 -283t-117 -321q-51 -285 91 -459t431 -174q221 0 424 111l-59 -179q-202 -82 -386 -82t-317 51q-133 50 -226 144t-132 244t-6 336q49 270 215 506t429 384t562 148zM909 354
q152 0 250 120t125 269q39 221 -145 222q-139 0 -241 -123t-128 -277q-37 -211 139 -211z" />
    <glyph glyph-name="A" unicode="A" horiz-adv-x="1343" 
d="M819 1178l-362 -689h483zM971 1413l272 -1413h-211l-57 295h-625l-162 -295h-213l770 1413h226z" />
    <glyph glyph-name="B" unicode="B" horiz-adv-x="1339" 
d="M852 813q112 0 178 75t66 187q0 164 -168 164h-383l-76 -426h383zM752 174q122 0 200 82t78 203q0 180 -196 180h-396l-82 -465h396zM987 1413q145 0 235 -74t91 -217q0 -142 -82 -248t-221 -151q229 -37 229 -268q0 -195 -138 -325t-364 -130h-616l250 1413h616z" />
    <glyph glyph-name="C" unicode="C" horiz-adv-x="1460" 
d="M969 1434q260 0 389 -136t123 -342h-211q4 144 -81 224t-239 80t-268 -62q-116 -62 -182 -166q-136 -211 -133 -473q0 -406 370 -405q178 0 295 96t170 239h211q-76 -221 -254 -365t-441 -144t-413 143t-149 424q0 340 199 603q97 128 257 206t357 78z" />
    <glyph glyph-name="D" unicode="D" horiz-adv-x="1431" 
d="M870 1413q82 0 148 -9t140 -43t126 -89q51 -54 85 -156t34 -254t-48 -307q-107 -344 -388 -480q-154 -75 -349 -75h-497l250 1413h499zM629 174q182 0 312 100q245 188 247 584q0 201 -87 291t-282 90h-274l-189 -1065h273z" />
    <glyph glyph-name="E" unicode="E" horiz-adv-x="1202" 
d="M1296 1413l-30 -174h-717l-76 -424h596l-31 -174h-596l-84 -467h719l-30 -174h-926l250 1413h925z" />
    <glyph glyph-name="F" unicode="F" horiz-adv-x="1167" 
d="M1309 1413l-31 -174h-733l-80 -448h653l-31 -175h-653l-108 -616h-205l250 1413h938z" />
    <glyph glyph-name="G" unicode="G" horiz-adv-x="1560" 
d="M711 -20q-258 0 -408 141t-149 418q0 167 57 327t159 287t264 204q161 77 351 77q238 0 386 -122t151 -356h-209q-6 136 -91 220q-84 84 -244 84t-276 -60t-188 -162q-149 -209 -147 -481q0 -403 385 -403q204 0 328 108t175 291h-374l30 174h586l-129 -727h-162l8 211
q-184 -231 -503 -231z" />
    <glyph glyph-name="H" unicode="H" horiz-adv-x="1454" 
d="M1456 1413l-250 -1413h-205l113 635h-676l-112 -635h-205l250 1413h204l-106 -604h676l106 604h205z" />
    <glyph glyph-name="I" unicode="I" horiz-adv-x="573" 
d="M326 0h-205l250 1413h204z" />
    <glyph glyph-name="J" unicode="J" horiz-adv-x="1206" 
d="M486 -20q-224 0 -332 99t-107 283q0 59 10 111h205q-10 -57 -10 -98q0 -221 246 -221q158 0 242 91t108 232l164 936h205l-160 -909q-45 -254 -196 -389t-375 -135z" />
    <glyph glyph-name="K" unicode="K" horiz-adv-x="1341" 
d="M1405 1413l-537 -510l392 -903h-224l-325 760l-301 -293l-82 -467h-207l250 1413h207l-121 -674l678 674h270z" />
    <glyph glyph-name="L" unicode="L" horiz-adv-x="1126" 
d="M356 174h682l-30 -174h-887l250 1413h204z" />
    <glyph glyph-name="M" unicode="M" horiz-adv-x="1800" 
d="M1491 1413h311l-250 -1413h-204l200 1130l-608 -1130h-207l-203 1153l-204 -1153h-205l250 1413h323l189 -1161z" />
    <glyph glyph-name="N" unicode="N" horiz-adv-x="1523" 
d="M1526 1413l-250 -1413h-236l-516 1130l-198 -1130h-205l250 1413h254l501 -1100l195 1100h205z" />
    <glyph glyph-name="O" unicode="O" horiz-adv-x="1564" 
d="M1530 870q0 -341 -208 -607q-99 -128 -258 -206t-353 -77q-262 0 -410 140q-147 140 -147 420t135 501q150 248 395 341q135 51 291 52q263 0 409 -142t146 -422zM952 1260q-188 0 -325 -109t-199 -265t-61 -329q0 -403 364 -403q141 0 257 60q210 108 293 383
q38 122 38 251q0 412 -367 412z" />
    <glyph glyph-name="P" unicode="P" horiz-adv-x="1265" 
d="M958 1413q156 0 254 -82t99 -258q0 -227 -137 -375t-369 -149h-381l-96 -549h-207l250 1413h587zM815 723q129 0 206 89t77 228q0 199 -191 199h-360l-90 -516h358z" />
    <glyph glyph-name="Q" unicode="Q" horiz-adv-x="1564" 
d="M952 1260q-188 0 -325 -109t-199 -265t-61 -329q0 -403 364 -403q123 0 217 53l-137 235l174 107l137 -234q96 97 146 239t51 294q0 412 -367 412zM154 540q0 280 135 501q150 248 395 341q135 51 291 52q262 0 408 -142t147 -422q0 -207 -81 -398t-232 -316l114 -193
l-176 -106l-117 194q-150 -72 -327 -71q-262 0 -410 140q-147 140 -147 420z" />
    <glyph glyph-name="R" unicode="R" horiz-adv-x="1304" 
d="M825 762q131 0 209 82t78 219q0 88 -44 132t-153 44h-370l-82 -477h362zM973 1413q168 0 261 -80t93 -248t-94 -304t-270 -175l186 -606h-215l-178 588h-324l-102 -588h-209l250 1413h602z" />
    <glyph glyph-name="S" unicode="S" horiz-adv-x="1316" 
d="M834 1434q144 0 238 -33q158 -56 197 -216q15 -65 7 -145h-211q10 111 -45 167q-56 57 -196 57t-243 -60t-104 -190q0 -71 59 -112t125 -55q180 -40 222 -52q155 -41 245 -114t89 -210q-1 -229 -183 -360t-442 -131t-375 118t-94 320h211q-12 -125 56 -198t231 -73
q161 0 271 72t109 217q0 78 -55 120q-55 41 -134 62t-162 39q-291 63 -359 186q-31 56 -31 132q0 143 85 251t215 158t274 50z" />
    <glyph glyph-name="T" unicode="T" horiz-adv-x="1179" 
d="M1311 1413l-31 -174h-432l-219 -1239h-205l219 1239h-432l31 174h1069z" />
    <glyph glyph-name="U" unicode="U" horiz-adv-x="1425" 
d="M666 -20q-248 0 -362 99q-149 129 -109 392l165 942h205l-168 -964q-6 -25 -6 -70q0 -225 287 -225q330 0 385 295l168 964h205l-166 -942q-39 -223 -198 -357q-158 -134 -406 -134z" />
    <glyph glyph-name="V" unicode="V" horiz-adv-x="1306" 
d="M1456 1413l-756 -1413h-215l-262 1413h207l199 -1212l614 1212h213z" />
    <glyph glyph-name="W" unicode="W" horiz-adv-x="1867" 
d="M2017 1413l-649 -1413h-199l-94 1122l-495 -1122h-211l-146 1413h205l98 -1132l498 1132h203l96 -1132l487 1132h207z" />
    <glyph glyph-name="X" unicode="X" horiz-adv-x="1284" 
d="M1399 1413l-578 -680l363 -733h-242l-260 582l-477 -582h-230l635 741l-327 672h241l226 -524l415 524h234z" />
    <glyph glyph-name="Y" unicode="Y" horiz-adv-x="1232" 
d="M449 0l98 563l-324 850h219l240 -672l467 672h233l-628 -850l-99 -563h-206z" />
    <glyph glyph-name="Z" unicode="Z" horiz-adv-x="1232" 
d="M1343 1413l-30 -174l-1034 -1065h847l-30 -174h-1086l31 174l1028 1065h-817l31 174h1060z" />
    <glyph glyph-name="bracketleft" unicode="[" horiz-adv-x="606" 
d="M20 -348l310 1761h422l-31 -174h-217l-250 -1413h217l-29 -174h-422z" />
    <glyph glyph-name="backslash" unicode="\" horiz-adv-x="739" 
d="M459 0l-262 1413h200l265 -1413h-203z" />
    <glyph glyph-name="bracketright" unicode="]" horiz-adv-x="606" 
d="M678 1413l-309 -1761h-420l28 174h216l249 1413h-217l31 174h422z" />
    <glyph glyph-name="asciicircum" unicode="^" horiz-adv-x="1370" 
d="M930 1409l330 -795h-222l-233 605l-445 -605h-213l605 795h178z" />
    <glyph glyph-name="underscore" unicode="_" horiz-adv-x="974" 
d="M-25 -250l17 103h973l-17 -103h-973z" />
    <glyph glyph-name="grave" unicode="`" horiz-adv-x="694" 
d="M299 1413h246l94 -266h-168z" />
    <glyph glyph-name="a" unicode="a" horiz-adv-x="1202" 
d="M528 154q127 0 212 78q147 136 147 387t-215 251q-117 0 -201 -78q-152 -142 -152 -390t209 -248zM459 -20q-164 0 -259 98q-96 98 -96 276t60 328q60 152 188 257q127 105 291 105q221 0 297 -182l59 162h175l-181 -1024h-174l6 162q-152 -182 -366 -182z" />
    <glyph glyph-name="b" unicode="b" horiz-adv-x="1202" 
d="M586 154q118 0 202 78q157 146 152 393q-4 246 -211 245q-119 0 -205 -76q-162 -144 -156 -392q5 -248 218 -248zM801 1044q162 0 256 -102t94 -276q0 -374 -242 -579q-127 -108 -297 -107q-219 0 -301 182l-51 -162h-174l248 1413h205l-99 -551q141 182 361 182z" />
    <glyph glyph-name="c" unicode="c" horiz-adv-x="1140" 
d="M926 655v15q-2 88 -54 144t-159 56q-175 0 -277 -138t-102 -314q0 -264 252 -264q225 0 295 196h209q-54 -166 -190 -268t-345 -102t-321 108t-112 293t72 331q71 146 214 239q142 93 336 93t291 -99t102 -255q0 -19 -4 -35h-207z" />
    <glyph glyph-name="d" unicode="d" horiz-adv-x="1202" 
d="M528 154q127 0 212 78q147 136 147 387t-215 251q-117 0 -201 -78q-152 -142 -152 -390t209 -248zM459 -20q-164 0 -259 98q-96 98 -96 276t60 328q60 152 188 257q127 105 291 105q221 0 297 -182l96 551h205l-248 -1413h-174l6 162q-152 -182 -366 -182z" />
    <glyph glyph-name="e" unicode="e" horiz-adv-x="1169" 
d="M932 666q0 88 -53 150t-171 63q-118 0 -207 -75t-128 -196h555q4 20 4 58zM540 -20q-188 0 -302 103t-115 304q0 256 169 457t441 200q186 0 294 -104t108 -295q0 -63 -23 -184h-774q-4 -49 -4 -74q0 -111 60 -177t170 -65q110 0 185 48q76 48 111 116h213
q-70 -157 -208 -243q-137 -86 -325 -86z" />
    <glyph glyph-name="f" unicode="f" horiz-adv-x="663" 
d="M700 1446q31 0 97 -8l-29 -174q-49 8 -82 8q-134 0 -154 -125l-20 -123h197l-31 -174h-199l-149 -850h-205l149 850h-153l33 174h153l23 133q27 149 130 219t240 70z" />
    <glyph glyph-name="g" unicode="g" horiz-adv-x="1112" 
d="M705 870q-125 0 -192 -58t-67 -144q0 -139 177 -140q109 0 187 54t77 149q0 139 -182 139zM250 -115q0 -129 262 -129q340 0 340 160q0 72 -69 94t-160 24q-91 1 -201 9q-66 -4 -119 -48t-53 -110zM1100 764q0 -188 -146 -299t-340 -111q-111 0 -176 33q-80 -29 -80 -86
t74 -77t177 -23t207 -17t176 -73q73 -59 73 -174t-85 -197q-155 -150 -493 -150q-197 0 -325 60t-127 192q0 94 63 168t162 105q-119 43 -119 143q-1 74 55 126t132 71q-94 72 -95 200q-1 181 139 285t351 104q137 0 225 -49q62 135 277 135l-31 -174q-66 0 -92 -10t-47 -41
q45 -57 45 -141z" />
    <glyph glyph-name="h" unicode="h" horiz-adv-x="1185" 
d="M842 1044q281 0 276 -286q-4 -76 -14 -125l-111 -633h-205l107 608q10 61 9 121q-1 61 -39 101t-122 40q-133 0 -234 -96t-130 -256l-90 -518h-205l250 1413h205l-103 -571q170 202 406 202z" />
    <glyph glyph-name="i" unicode="i" horiz-adv-x="499" 
d="M539 1413l-37 -205h-205l37 205h205zM289 0h-205l180 1024h205z" />
    <glyph glyph-name="j" unicode="j" horiz-adv-x="458" 
d="M313 1208l37 205h205l-37 -205h-205zM-68 -225q132 0 150 121l201 1128h204l-200 -1137q-27 -147 -129 -217t-240 -69q-49 0 -98 8l30 174q49 -8 82 -8z" />
    <glyph glyph-name="k" unicode="k" horiz-adv-x="1110" 
d="M539 1413l-152 -854l471 465h272l-423 -401l321 -623h-235l-240 477l-215 -203l-49 -274h-205l250 1413h205z" />
    <glyph glyph-name="l" unicode="l" horiz-adv-x="571" 
d="M442 162h21l-29 -168q-61 -6 -96 -6q-256 0 -209 258l205 1167h205l-203 -1149q-10 -63 13 -83q24 -19 93 -19z" />
    <glyph glyph-name="m" unicode="m" horiz-adv-x="1767" 
d="M1470 1044q305 0 234 -405l-113 -639h-205l107 610q49 260 -125 260q-115 0 -208 -96t-120 -254l-92 -520h-205l107 610q8 64 11 122t-32 98t-106 40q-117 0 -208 -97t-118 -255l-92 -518h-205l181 1024h172l-11 -195q164 215 379 215q233 0 252 -231q159 231 397 231z
" />
    <glyph glyph-name="n" unicode="n" horiz-adv-x="1185" 
d="M858 1044q276 0 277 -276q0 -53 -15 -135l-110 -633h-205l106 608q11 57 11 121q0 65 -41 103t-125 38q-132 0 -232 -97t-127 -255l-92 -518h-205l181 1024h172l-11 -195q168 215 416 215z" />
    <glyph glyph-name="o" unicode="o" horiz-adv-x="1216" 
d="M748 1044q208 0 320 -112t112 -316q0 -262 -170 -449t-451 -187q-203 0 -319 108t-115 313q0 259 170 451t453 192zM729 870q-181 0 -287 -140t-106 -320q0 -256 239 -256q184 0 289 137q104 137 105 317q0 262 -240 262z" />
    <glyph glyph-name="p" unicode="p" horiz-adv-x="1202" 
d="M751 870q-135 0 -221 -94t-116 -262t21 -264q53 -96 189 -96t221 95t113 263q31 168 -21 263t-186 95zM820 1044q204 0 300 -137t51 -391t-190 -395t-336 -141q-219 0 -295 182l-96 -551h-205l250 1413h174l-6 -164q149 184 353 184z" />
    <glyph glyph-name="q" unicode="q" horiz-adv-x="1202" 
d="M699 870q-134 0 -220 -94t-117 -263q-30 -169 22 -264t188 -95t223 96t117 264t-24 262q-55 94 -189 94zM506 -20q-204 0 -301 142q-96 142 -51 395t188 390t348 137t291 -184l51 164h174l-250 -1413h-204l98 551q-140 -182 -344 -182z" />
    <glyph glyph-name="r" unicode="r" horiz-adv-x="778" 
d="M803 1034q45 0 90 -10l-31 -178q-45 14 -104 14q-146 0 -240 -94t-123 -260l-90 -506h-205l181 1024h172l-11 -205q139 215 361 215z" />
    <glyph glyph-name="s" unicode="s" horiz-adv-x="1046" 
d="M967 338q-1 -170 -139 -264t-343 -94t-294 84t-89 208v39h205v-22q0 -68 50 -106q49 -38 149 -38t173 39t73 119t-70 107q-55 21 -130 30q-207 26 -288 87q-66 50 -65 167q0 162 135 256t318 94q182 0 270 -86t88 -217v-26h-205v8q-4 156 -170 156q-94 0 -159 -41
t-62 -117q0 -45 34 -71t74 -35q41 -9 123 -21l31 -4q218 -32 268 -137q23 -47 23 -115z" />
    <glyph glyph-name="t" unicode="t" horiz-adv-x="722" 
d="M416 -20q-236 0 -238 188q0 37 4 63l111 619h-146l31 174h146l47 268l215 62l-58 -330h201l-31 -174h-200l-105 -588q-2 -12 -2 -31q0 -78 123 -77q57 0 104 10l-30 -164q-62 -20 -172 -20z" />
    <glyph glyph-name="u" unicode="u" horiz-adv-x="1161" 
d="M410 -20q-180 0 -233 109q-52 110 -19 300l110 635h205l-106 -606q-23 -127 4 -196q27 -68 147 -68t219 98q98 98 127 256l90 516h205l-180 -1024h-172l10 195q-167 -215 -407 -215z" />
    <glyph glyph-name="v" unicode="v" horiz-adv-x="1083" 
d="M1192 1024l-594 -1024h-207l-229 1024h209l159 -831l447 831h215z" />
    <glyph glyph-name="w" unicode="w" horiz-adv-x="1501" 
d="M1610 1024l-494 -1024h-203l-65 786l-350 -786h-209l-127 1024h207l71 -791l346 791h207l70 -791l340 791h207z" />
    <glyph glyph-name="x" unicode="x" horiz-adv-x="1034" 
d="M1114 1024l-434 -494l289 -530h-242l-190 393l-344 -393h-220l486 532l-266 492h243l164 -350l293 350h221z" />
    <glyph glyph-name="y" unicode="y" horiz-adv-x="1013" 
d="M141 -406h-118l30 175h86q68 -1 107 29t82 108l75 137l-225 981h217l142 -764l403 764h197l-676 -1233q-107 -197 -320 -197z" />
    <glyph glyph-name="z" unicode="z" horiz-adv-x="995" 
d="M1044 1024l-32 -174l-711 -676h623l-31 -174h-885l31 174l713 676h-574l33 174h833z" />
    <glyph glyph-name="braceleft" unicode="{" horiz-adv-x="733" 
d="M848 1413h31l-31 -174h-25q-75 0 -117 -42t-61 -150l-55 -312q-14 -80 -44 -126t-89 -77q88 -57 61 -204l-65 -371q-25 -131 122 -131h23l-29 -174h-30q-184 0 -253 68t-38 247l61 346q12 63 -21 98q-34 34 -128 33l30 174q174 0 197 134l62 344q31 178 123 248t276 69z
" />
    <glyph glyph-name="bar" unicode="|" horiz-adv-x="647" 
d="M113 -348l309 1761h205l-310 -1761h-204z" />
    <glyph glyph-name="braceright" unicode="}" horiz-adv-x="733" 
d="M0 -174q145 0 170 131l66 371q14 80 43 127t86 77q-47 31 -60 78q-12 47 2 125l55 312q18 109 -10 151t-104 41h-23l31 174h31q182 0 251 -70t37 -247l-61 -344q-12 -66 23 -100t129 -34l-31 -174q-176 0 -199 -131l-61 -346q-31 -178 -123 -247t-272 -68h-31l28 174h23z
" />
    <glyph glyph-name="asciitilde" unicode="~" horiz-adv-x="1015" 
d="M424 565q-82 0 -96 -90h-140q41 233 250 234q72 0 147 -45t111 -46q78 0 95 91h139q-41 -233 -248 -234q-70 0 -144 45t-114 45z" />
    <glyph glyph-name="exclamdown" unicode="&#xa1;" horiz-adv-x="643" 
d="M119 -389l221 1051h137l-149 -1051h-209zM326 799l39 225h215l-39 -225h-215z" />
    <glyph glyph-name="cent" unicode="&#xa2;" horiz-adv-x="1146" 
d="M705 1075q-123 0 -221 -90t-129 -271q-32 -180 36 -268t201 -88q223 0 297 197h211q-55 -154 -178 -256t-318 -115l-33 -184h-102l33 186q-207 16 -302 156q-96 140 -56 372t186 373t358 160l29 162h104l-28 -162q188 -15 274 -125t74 -262h-209q4 94 -50 154t-177 61z
" />
    <glyph glyph-name="sterling" unicode="&#xa3;" horiz-adv-x="1198" 
d="M829 1413q410 0 345 -383h-213q20 115 -25 158t-134 43q-90 0 -150 -45t-77 -137l-61 -344h358l-28 -162h-359l-36 -219q-23 -104 -109 -142h426q114 4 149 62t48 127h215q-22 -128 -100 -238q-93 -129 -333 -133h-741l33 182q121 0 155 50q35 50 41 90l39 221h-170
l29 162h170l59 344q20 121 122 235q52 57 142 93t205 36z" />
    <glyph glyph-name="currency" unicode="&#xa4;" horiz-adv-x="1198" 
d="M568 -14q-169 0 -292 100l-174 -149l-96 118l172 150q-76 139 -46 308t155 306l-121 148l139 118l123 -147q150 98 322 98t292 -98l175 147l98 -118l-176 -148q76 -139 46 -308t-155 -306l125 -150l-141 -118l-123 149q-154 -100 -323 -100zM597 160q146 0 268 103
t148 249q27 146 -61 250q-88 102 -231 102t-265 -103t-149 -249t59 -248q86 -104 231 -104z" />
    <glyph glyph-name="yen" unicode="&#xa5;" horiz-adv-x="1198" 
d="M1405 1413l-535 -727h267l-25 -137h-338l-29 -162h338l-24 -137h-338l-43 -250h-207l45 250h-348l25 137h348l28 162h-348l25 137h274l-274 727h231l236 -680l473 680h219z" />
    <glyph glyph-name="brokenbar" unicode="&#xa6;" horiz-adv-x="501" 
d="M39 -348l131 741h205l-131 -741h-205zM219 672l129 741h205l-129 -741h-205z" />
    <glyph glyph-name="section" unicode="&#xa7;" horiz-adv-x="1054" 
d="M803 651q10 66 -29 105t-77 48t-92 17t-62 10q-55 -12 -103 -49t-56 -94q-9 -57 3 -88q25 -63 202 -91q58 -9 83 -15q104 30 131 157zM709 1434q209 0 287 -96t69 -234h-203q4 164 -184 164q-182 0 -206 -142q-12 -68 43 -96q54 -27 131 -37t85 -12q150 -23 232 -87
t57 -210q-33 -178 -193 -242q57 -27 89 -89t16 -156q-52 -304 -488 -310q-225 -1 -304 93t-64 239h207q-5 -76 35 -121t169 -45q209 0 234 135q13 60 -21 90q-47 44 -219 73q-172 28 -250 99t-55 195q14 86 74 154t135 94q-59 23 -98 89t-25 151q20 119 129 210t318 91z" />
    <glyph glyph-name="dieresis" unicode="&#xa8;" horiz-adv-x="1075" 
d="M342 1208l37 205h215l-37 -205h-215zM711 1208l37 205h215l-37 -205h-215z" />
    <glyph glyph-name="copyright" unicode="&#xa9;" horiz-adv-x="1507" 
d="M752 295q-150 0 -232 106t-48 300t154 303t283 108q91 0 155 -30t92 -76q50 -82 46 -160h-121q2 72 -47 115q-48 43 -154 43t-184 -80t-104 -224t25 -221q51 -78 157 -78q106 1 174 49t92 132h119q-47 -143 -152 -215t-255 -72zM728 125q242 0 440 169t240 410
q42 240 -97 410t-379 170t-440 -170t-243 -410q-42 -240 98 -410q140 -169 381 -169zM702 -12q-299 0 -470 212t-117 502q51 301 300 509t523 208q274 1 440 -165t162 -414q6 -125 -35 -252q-82 -260 -312 -430t-491 -170z" />
    <glyph glyph-name="ordfeminine" unicode="&#xaa;" horiz-adv-x="724" 
d="M386 805q62 0 130 43t80 121l12 59l-112 -14q-197 -25 -216 -120q-9 -46 17 -68q27 -21 89 -21zM539 1423q297 0 245 -295l-77 -436h-129l-5 94q-100 -109 -251 -108q-104 0 -163 49q-58 49 -42 150q37 207 393 247l117 13l6 37q23 121 -119 120q-131 0 -160 -104h-157
q27 98 109 166q83 67 233 67z" />
    <glyph glyph-name="guillemotleft" unicode="&#xab;" horiz-adv-x="1232" 
d="M1225 965l-406 -449l246 -455h-207l-240 455l400 449h207zM784 965l-405 -449l246 -455h-207l-240 455l400 449h206z" />
    <glyph glyph-name="logicalnot" unicode="&#xac;" horiz-adv-x="1198" 
d="M176 545l31 166h975l-97 -545h-200l65 379h-774z" />
    <glyph glyph-name="registered" unicode="&#xae;" horiz-adv-x="1507" 
d="M959 1417q296 0 466 -212t118 -509q-52 -296 -301 -502t-544 -206t-466 212t-117 502q51 301 299 508t545 207zM932 1282q-240 0 -440 -170t-243 -410q-42 -240 98 -410t381 -169q242 0 440 170q198 169 240 409t-97 410t-379 170zM948 1096q162 0 199 -123
q14 -47 0 -123t-79 -144t-167 -73l164 -324h-135l-150 322h-123l-55 -322h-121l140 787h327zM883 737q125 0 147 125q17 89 -39 111q-35 14 -65 14h-205l-43 -250h205z" />
    <glyph glyph-name="macron" unicode="&#xaf;" horiz-adv-x="1015" 
d="M924 1382l-29 -172h-578l31 172h576z" />
    <glyph glyph-name="degree" unicode="&#xb0;" horiz-adv-x="843" 
d="M627 1470q100 0 157 -70t40 -171q-17 -100 -100 -170t-183 -70t-158 70q-57 70 -41 170q18 100 101 171q84 70 184 70zM561 1104q53 0 96 37t51 89t-20 89q-29 37 -82 37t-97 -37t-52 -89q-9 -52 21 -89t83 -37z" />
    <glyph glyph-name="plusminus" unicode="&#xb1;" horiz-adv-x="1198" 
d="M680 1264h182l-65 -365h366l-30 -182h-367l-66 -367h-180l66 367h-365l31 182h364zM1034 166l-30 -166h-910l31 166h909z" />
    <glyph glyph-name="twosuperior" unicode="&#xb2;" horiz-adv-x="704" 
d="M512 1516q134 0 196 -68t44 -172t-118 -206t-331 -259h379l-23 -131h-583l24 139q287 185 382 277t110 164q20 125 -100 124q-115 0 -150 -141h-160q66 273 330 273z" />
    <glyph glyph-name="threesuperior" unicode="&#xb3;" horiz-adv-x="671" 
d="M416 1057h-103l23 131l190 176h-301l25 131h495l-24 -131l-219 -176q94 0 154 -64t38 -184q-22 -121 -116 -195q-94 -73 -222 -73t-202 61q-76 61 -64 178h158q-8 -109 129 -109t158 128q25 127 -119 127z" />
    <glyph glyph-name="acute" unicode="&#xb4;" horiz-adv-x="956" 
d="M571 1413h246l-266 -266h-168z" />
    <glyph glyph-name="mu" unicode="&#xb5;" horiz-adv-x="1171" 
d="M536 154q116 0 216 90q98 90 122 227l97 553h205l-181 -1024h-172l6 174q-154 -195 -360 -194q-100 0 -154 49l-75 -418h-205l250 1413h204l-108 -614q-25 -144 7 -200t148 -56z" />
    <glyph glyph-name="paragraph" unicode="&#xb6;" horiz-adv-x="1388" 
d="M741 1407h656l-289 -1638h-205l258 1464h-246l-258 -1464h-204l145 819q-170 0 -270 120t-70 289q29 170 171 290t312 120z" />
    <glyph glyph-name="periodcentered" unicode="&#xb7;" horiz-adv-x="432" 
d="M123 379l41 225h229l-41 -225h-229z" />
    <glyph glyph-name="cedilla" unicode="&#xb8;" horiz-adv-x="903" 
d="M381 -299q78 0 86 49q6 35 -18 49q-25 15 -61 15t-93 -4l125 190h106l-61 -90q92 0 128 -43q35 -43 23 -113t-69 -116t-159 -48q-102 0 -175 41l20 117q70 -47 148 -47z" />
    <glyph glyph-name="onesuperior" unicode="&#xb9;" horiz-adv-x="491" 
d="M250 1374q106 0 127 121h153l-143 -811h-154l101 559h-174l22 131h68z" />
    <glyph glyph-name="ordmasculine" unicode="&#xba;" horiz-adv-x="786" 
d="M581 1421q169 0 247 -97t48 -276q-32 -180 -145 -276t-282 -96t-251 97t-52 275t148 275q118 98 287 98zM555 1286q-203 0 -246 -239q-39 -236 163 -236t241 236q20 117 -21 178t-137 61z" />
    <glyph glyph-name="guillemotright" unicode="&#xbb;" horiz-adv-x="1222" 
d="M932 516l-244 449h205l242 -449l-402 -455h-205zM502 516l-244 449h205l242 -449l-402 -455h-205z" />
    <glyph glyph-name="onequarter" unicode="&#xbc;" horiz-adv-x="1462" 
d="M1217 1477l98 -64l-1110 -1476l-99 63zM215 1374q106 0 127 121h154l-144 -811h-153l100 559h-174l22 131h68zM1188 332l45 252l-258 -252h213zM1282 0h-154l35 201h-391l25 133l475 477h153l-84 -479h121l-24 -131h-121z" />
    <glyph glyph-name="onehalf" unicode="&#xbd;" horiz-adv-x="1474" 
d="M1194 1477l98 -64l-1110 -1476l-98 63zM1157 817q133 0 196 -67q62 -68 44 -172q-17 -104 -117 -206q-100 -101 -332 -259h379l-22 -131h-584l24 139q287 186 382 277t110 163q21 125 -97 125t-153 -141h-160q66 272 330 272zM250 1374q106 0 127 121h153l-143 -811h-154
l101 559h-174l22 131h68z" />
    <glyph glyph-name="threequarters" unicode="&#xbe;" horiz-adv-x="1605" 
d="M1401 1477l98 -64l-1110 -1476l-98 63zM463 1057h-103l23 131l190 176h-301l25 131h496l-25 -131l-219 -176q94 0 154 -64q61 -64 39 -184q-22 -121 -116 -195q-94 -73 -222 -73t-204 61t-63 178h158q-8 -109 129 -109t158 128q25 127 -119 127zM1331 332l45 252
l-258 -252h213zM1427 0h-153l35 201h-394l25 133l477 477h154l-86 -479h121l-23 -131h-121z" />
    <glyph glyph-name="questiondown" unicode="&#xbf;" horiz-adv-x="1136" 
d="M823 1024l-39 -225h-215l39 225h215zM430 -410q-199 0 -291 100t-61 271q31 170 217 307q90 68 131 109q93 93 125 285h205q-33 -188 -90 -278q-56 -90 -148 -162t-125 -101q-91 -80 -106 -166q-13 -86 31 -138q44 -53 160 -53t187 68t85 152h206q-25 -142 -148 -259
q-62 -59 -160 -97t-218 -38z" />
    <glyph glyph-name="Agrave" unicode="&#xc0;" horiz-adv-x="1343" 
d="M627 1823h245l95 -267h-168zM819 1178l-362 -689h483zM971 1413l272 -1413h-211l-57 295h-625l-162 -295h-213l770 1413h226z" />
    <glyph glyph-name="Aacute" unicode="&#xc1;" horiz-adv-x="1343" 
d="M864 1823h246l-266 -267h-168zM819 1178l-362 -689h483zM971 1413l272 -1413h-211l-57 295h-625l-162 -295h-213l770 1413h226z" />
    <glyph glyph-name="Acircumflex" unicode="&#xc2;" horiz-adv-x="1343" 
d="M958 1823l162 -267h-149l-129 166l-189 -166h-147l254 267h198zM819 1178l-362 -689h483zM971 1413l272 -1413h-211l-57 295h-625l-162 -295h-213l770 1413h226z" />
    <glyph glyph-name="Atilde" unicode="&#xc3;" horiz-adv-x="1343" 
d="M950 1581q-66 0 -136 52t-112 53q-76 0 -96 -87h-139q37 223 252 224q69 1 139 -53t111 -54q76 0 96 86h139q-43 -221 -254 -221zM819 1178l-362 -689h483zM971 1413l272 -1413h-211l-57 295h-625l-162 -295h-213l770 1413h226z" />
    <glyph glyph-name="Adieresis" unicode="&#xc4;" horiz-adv-x="1343" 
d="M528 1618l37 205h215l-37 -205h-215zM897 1618l37 205h215l-37 -205h-215zM819 1178l-362 -689h483zM971 1413l272 -1413h-211l-57 295h-625l-162 -295h-213l770 1413h226z" />
    <glyph glyph-name="Aring" unicode="&#xc5;" horiz-adv-x="1343" 
d="M881 1993q92 0 145 -65q53 -64 37 -156t-92 -158t-168 -66t-146 66q-53 66 -36 158q14 92 91 156t169 65zM825 1677q39 0 72 28t39 67q8 38 -14 66t-63 28q-40 0 -73 -28t-40 -66q-8 -38 16 -67q24 -28 63 -28zM819 1178l-362 -689h483zM971 1413l272 -1413h-211l-57 295
h-625l-162 -295h-213l770 1413h226z" />
    <glyph glyph-name="AE" unicode="&#xc6;" horiz-adv-x="2062" 
d="M1176 1108l-537 -619h426zM2157 1413l-31 -174h-723l-76 -424h602l-31 -174h-602l-82 -467h723l-30 -174h-928l53 295h-567l-264 -295h-226l1254 1413h928z" />
    <glyph glyph-name="Ccedilla" unicode="&#xc7;" horiz-adv-x="1460" 
d="M962 1434q282 0 413 -134q130 -134 124 -344h-209q2 144 -87 224t-257 80q-227 0 -366 -159q-140 -159 -184 -411t54 -394t314 -142q336 0 457 335h209q-72 -215 -237 -356t-417 -153l-49 -70q180 0 152 -160q-11 -66 -69 -112t-160 -48q-102 0 -175 41l21 117
q70 -47 148 -47t85 49q6 35 -24 52t-146 8l113 172q-270 18 -406 208q-135 190 -76 526q58 336 274 526q216 192 498 192z" />
    <glyph glyph-name="Egrave" unicode="&#xc8;" horiz-adv-x="1202" 
d="M547 1823h246l94 -267h-168zM1296 1413l-30 -174h-717l-76 -424h596l-31 -174h-596l-84 -467h719l-30 -174h-926l250 1413h925z" />
    <glyph glyph-name="Eacute" unicode="&#xc9;" horiz-adv-x="1202" 
d="M872 1823h246l-266 -267h-168zM1296 1413l-30 -174h-717l-76 -424h596l-31 -174h-596l-84 -467h719l-30 -174h-926l250 1413h925z" />
    <glyph glyph-name="Ecircumflex" unicode="&#xca;" horiz-adv-x="1202" 
d="M971 1823l162 -267h-150l-129 166l-188 -166h-148l254 267h199zM1296 1413l-30 -174h-717l-76 -424h596l-31 -174h-596l-84 -467h719l-30 -174h-926l250 1413h925z" />
    <glyph glyph-name="Edieresis" unicode="&#xcb;" horiz-adv-x="1202" 
d="M551 1618l37 205h215l-37 -205h-215zM920 1618l36 205h215l-36 -205h-215zM1296 1413l-30 -174h-717l-76 -424h596l-31 -174h-596l-84 -467h719l-30 -174h-926l250 1413h925z" />
    <glyph glyph-name="Igrave" unicode="&#xcc;" horiz-adv-x="624" 
d="M176 1823h246l94 -267h-168zM326 0h-205l250 1413h204z" />
    <glyph glyph-name="Iacute" unicode="&#xcd;" horiz-adv-x="624" 
d="M537 1823h245l-266 -267h-168zM326 0h-205l250 1413h204z" />
    <glyph glyph-name="Icircumflex" unicode="&#xce;" horiz-adv-x="624" 
d="M623 1823l161 -267h-149l-129 166l-189 -166h-147l254 267h199zM326 0h-205l250 1413h204z" />
    <glyph glyph-name="Idieresis" unicode="&#xcf;" horiz-adv-x="624" 
d="M195 1618l36 205h215l-36 -205h-215zM563 1618l37 205h215l-37 -205h-215zM326 0h-205l250 1413h204z" />
    <glyph glyph-name="Eth" unicode="&#xd0;" horiz-adv-x="1386" 
d="M590 174q471 0 565 533q47 272 -49 400t-328 128h-246l-75 -428h266l-33 -193h-266l-80 -440h246zM829 1409q378 0 500 -239q55 -102 55 -273q0 -88 -24 -229q-24 -140 -96 -276t-153 -209t-184 -115q-164 -67 -347 -68h-471l110 614h-153l32 193h154l106 602h471z" />
    <glyph glyph-name="Ntilde" unicode="&#xd1;" horiz-adv-x="1523" 
d="M1098 1581q-66 0 -136 52t-112 53q-76 0 -96 -87h-140q37 223 252 224q70 1 140 -53t110 -54q76 0 96 86h140q-43 -221 -254 -221zM1526 1413l-250 -1413h-236l-516 1130l-198 -1130h-205l250 1413h254l501 -1100l195 1100h205z" />
    <glyph glyph-name="Ograve" unicode="&#xd2;" horiz-adv-x="1564" 
d="M774 1823h246l94 -267h-168zM1530 870q0 -341 -208 -607q-99 -128 -258 -206t-353 -77q-262 0 -410 140q-147 140 -147 420t135 501q150 248 395 341q135 51 291 52q263 0 409 -142t146 -422zM952 1260q-188 0 -325 -109t-199 -265t-61 -329q0 -403 364 -403
q141 0 257 60q210 108 293 383q38 122 38 251q0 412 -367 412z" />
    <glyph glyph-name="Oacute" unicode="&#xd3;" horiz-adv-x="1564" 
d="M999 1823h246l-266 -267h-168zM1530 870q0 -341 -208 -607q-99 -128 -258 -206t-353 -77q-262 0 -410 140q-147 140 -147 420t135 501q150 248 395 341q135 51 291 52q263 0 409 -142t146 -422zM952 1260q-188 0 -325 -109t-199 -265t-61 -329q0 -403 364 -403
q141 0 257 60q210 108 293 383q38 122 38 251q0 412 -367 412z" />
    <glyph glyph-name="Ocircumflex" unicode="&#xd4;" horiz-adv-x="1564" 
d="M1079 1823l162 -267h-149l-129 166l-189 -166h-147l254 267h198zM1530 870q0 -341 -208 -607q-99 -128 -258 -206t-353 -77q-262 0 -410 140q-147 140 -147 420t135 501q150 248 395 341q135 51 291 52q263 0 409 -142t146 -422zM952 1260q-188 0 -325 -109t-199 -265
t-61 -329q0 -403 364 -403q141 0 257 60q210 108 293 383q38 122 38 251q0 412 -367 412z" />
    <glyph glyph-name="Otilde" unicode="&#xd5;" horiz-adv-x="1564" 
d="M1081 1581q-65 0 -135 52t-112 53q-76 0 -97 -87h-139q37 223 252 224q70 1 140 -53t110 -54q76 0 96 86h139q-43 -221 -254 -221zM1530 870q0 -341 -208 -607q-99 -128 -258 -206t-353 -77q-262 0 -410 140q-147 140 -147 420t135 501q150 248 395 341q135 51 291 52
q263 0 409 -142t146 -422zM952 1260q-188 0 -325 -109t-199 -265t-61 -329q0 -403 364 -403q141 0 257 60q210 108 293 383q38 122 38 251q0 412 -367 412z" />
    <glyph glyph-name="Odieresis" unicode="&#xd6;" horiz-adv-x="1564" 
d="M657 1618l37 205h215l-37 -205h-215zM1026 1618l37 205h215l-37 -205h-215zM1530 870q0 -341 -208 -607q-99 -128 -258 -206t-353 -77q-262 0 -410 140q-147 140 -147 420t135 501q150 248 395 341q135 51 291 52q263 0 409 -142t146 -422zM952 1260q-188 0 -325 -109
t-199 -265t-61 -329q0 -403 364 -403q141 0 257 60q210 108 293 383q38 122 38 251q0 412 -367 412z" />
    <glyph glyph-name="multiply" unicode="&#xd7;" horiz-adv-x="1198" 
d="M317 797l144 123l227 -277l328 279l100 -123l-325 -279l227 -276l-146 -123l-227 276l-323 -274l-103 123l326 274z" />
    <glyph glyph-name="Oslash" unicode="&#xd8;" horiz-adv-x="1564" 
d="M745 154q229 0 370 139t187 398t-28 399l-770 -873q90 -63 241 -63zM940 1260q-230 0 -370 -146t-186 -406t34 -399l772 879q-92 72 -250 72zM715 -20q-207 0 -344 88l-129 -148l-99 80l133 150q-168 194 -106 546t280 545t523 193q203 0 348 -97l135 154l100 -78
l-139 -160q159 -195 97 -547t-278 -539t-521 -187z" />
    <glyph glyph-name="Ugrave" unicode="&#xd9;" horiz-adv-x="1425" 
d="M657 1823h246l94 -267h-168zM666 -20q-248 0 -362 99q-149 129 -109 392l165 942h205l-168 -964q-6 -25 -6 -70q0 -225 287 -225q330 0 385 295l168 964h205l-166 -942q-39 -223 -198 -357q-158 -134 -406 -134z" />
    <glyph glyph-name="Uacute" unicode="&#xda;" horiz-adv-x="1425" 
d="M934 1823h246l-267 -267h-168zM666 -20q-248 0 -362 99q-149 129 -109 392l165 942h205l-168 -964q-6 -25 -6 -70q0 -225 287 -225q330 0 385 295l168 964h205l-166 -942q-39 -223 -198 -357q-158 -134 -406 -134z" />
    <glyph glyph-name="Ucircumflex" unicode="&#xdb;" horiz-adv-x="1425" 
d="M1006 1823l161 -267h-149l-129 166l-189 -166h-147l254 267h199zM666 -20q-248 0 -362 99q-149 129 -109 392l165 942h205l-168 -964q-6 -25 -6 -70q0 -225 287 -225q330 0 385 295l168 964h205l-166 -942q-39 -223 -198 -357q-158 -134 -406 -134z" />
    <glyph glyph-name="Udieresis" unicode="&#xdc;" horiz-adv-x="1425" 
d="M588 1618l37 205h215l-37 -205h-215zM956 1618l37 205h215l-37 -205h-215zM666 -20q-248 0 -362 99q-149 129 -109 392l165 942h205l-168 -964q-6 -25 -6 -70q0 -225 287 -225q330 0 385 295l168 964h205l-166 -942q-39 -223 -198 -357q-158 -134 -406 -134z" />
    <glyph glyph-name="Yacute" unicode="&#xdd;" horiz-adv-x="1232" 
d="M821 1823h246l-266 -267h-168zM449 0l98 563l-324 850h219l240 -672l467 672h233l-628 -850l-99 -563h-206z" />
    <glyph glyph-name="Thorn" unicode="&#xde;" horiz-adv-x="1282" 
d="M754 473q108 0 176 59t88 170q18 111 -29 170t-155 60h-336l-80 -459h336zM881 1114q168 0 274 -89q120 -100 76 -341q-23 -127 -105 -222q-148 -171 -387 -171h-354l-51 -291h-213l248 1409h215l-54 -295h351z" />
    <glyph glyph-name="germandbls" unicode="&#xdf;" horiz-adv-x="1165" 
d="M655 168q78 0 142 31q127 61 157 234q30 172 -66 222q-48 25 -91 32t-109 7l31 168q141 0 186 73q34 53 49 133q14 79 -30 138q-44 60 -138 60q-96 0 -172 -45t-94 -158l-188 -1063h-199l186 1061q27 147 146 260t323 113t291 -86q86 -86 84 -181q0 -49 -6 -96
q-37 -215 -184 -287q21 0 72 -24t71 -62t42 -108t-5 -172q-37 -205 -176 -313t-350 -105h-178l28 168h178z" />
    <glyph glyph-name="agrave" unicode="&#xe0;" horiz-adv-x="1089" 
d="M524 1413h246l94 -266h-168zM539 154q127 0 212 78q146 135 146 387q0 251 -215 251q-117 0 -201 -78q-151 -141 -151 -390q0 -248 209 -248zM469 -20q-164 0 -259 98t-95 276t60 328q60 152 187 257t291 105q221 0 297 -182l60 162h174l-180 -1024h-175l7 162
q-152 -182 -367 -182z" />
    <glyph glyph-name="aacute" unicode="&#xe1;" horiz-adv-x="1089" 
d="M797 1413h245l-266 -266h-168zM539 154q127 0 212 78q146 135 146 387q0 251 -215 251q-117 0 -201 -78q-151 -141 -151 -390q0 -248 209 -248zM469 -20q-164 0 -259 98t-95 276t60 328q60 152 187 257t291 105q221 0 297 -182l60 162h174l-180 -1024h-175l7 162
q-152 -182 -367 -182z" />
    <glyph glyph-name="acircumflex" unicode="&#xe2;" horiz-adv-x="1089" 
d="M899 1413l162 -266h-150l-129 166l-188 -166h-148l254 266h199zM539 154q127 0 212 78q146 135 146 387q0 251 -215 251q-117 0 -201 -78q-151 -141 -151 -390q0 -248 209 -248zM469 -20q-164 0 -259 98t-95 276t60 328q60 152 187 257t291 105q221 0 297 -182l60 162
h174l-180 -1024h-175l7 162q-152 -182 -367 -182z" />
    <glyph glyph-name="atilde" unicode="&#xe3;" horiz-adv-x="1089" 
d="M870 1171q-66 1 -136 53t-111 52q-74 0 -97 -86h-139q37 223 252 223q69 0 139 -53t111 -53q74 0 96 86h139q-43 -222 -254 -222zM539 154q127 0 212 78q146 135 146 387q0 251 -215 251q-117 0 -201 -78q-151 -141 -151 -390q0 -248 209 -248zM469 -20q-164 0 -259 98
t-95 276t60 328q60 152 187 257t291 105q221 0 297 -182l60 162h174l-180 -1024h-175l7 162q-152 -182 -367 -182z" />
    <glyph glyph-name="adieresis" unicode="&#xe4;" horiz-adv-x="1089" 
d="M467 1208l37 205h215l-37 -205h-215zM836 1208l36 205h215l-36 -205h-215zM539 154q127 0 212 78q146 135 146 387q0 251 -215 251q-117 0 -201 -78q-151 -141 -151 -390q0 -248 209 -248zM469 -20q-164 0 -259 98t-95 276t60 328q60 152 187 257t291 105q221 0 297 -182
l60 162h174l-180 -1024h-175l7 162q-152 -182 -367 -182z" />
    <glyph glyph-name="aring" unicode="&#xe5;" horiz-adv-x="1089" 
d="M801 1583q92 -1 145 -65t37 -156t-92 -158t-168 -66t-145 66t-37 158q14 92 91 156t169 65zM745 1268q39 0 72 28t39 66q8 38 -14 66t-63 28t-73 -28t-39 -66t16 -66t62 -28zM539 154q127 0 212 78q146 135 146 387q0 251 -215 251q-117 0 -201 -78q-151 -141 -151 -390
q0 -248 209 -248zM469 -20q-164 0 -259 98t-95 276t60 328q60 152 187 257t291 105q221 0 297 -182l60 162h174l-180 -1024h-175l7 162q-152 -182 -367 -182z" />
    <glyph glyph-name="ae" unicode="&#xe6;" horiz-adv-x="1869" 
d="M1406 879q-126 0 -209 -74t-124 -197h555q14 115 -41 193t-181 78zM484 145q106 0 198 77t115 198l14 82l-176 -23q-294 -39 -321 -183q-13 -70 25 -110q39 -40 145 -41zM666 879q-193 0 -244 -164h-205q47 143 162 236t313 93q252 0 322 -194q168 195 424 194
q214 0 322 -139t65 -379l-13 -65h-772q-16 -145 44 -231t194 -85q94 0 170 43t113 121h213q-78 -178 -220 -254q-142 -75 -290 -75t-254 62t-136 185q-72 -104 -192 -176q-120 -71 -278 -71q-160 0 -242 76t-58 215q24 141 150 231q125 90 403 125l179 20l6 29
q35 203 -176 203z" />
    <glyph glyph-name="ccedilla" unicode="&#xe7;" horiz-adv-x="1140" 
d="M713 870q-123 0 -220 -90t-129 -271t36 -268t200 -87q227 0 297 196h211q-55 -154 -178 -256t-318 -112l-49 -72q180 0 152 -160q-9 -66 -67 -112t-160 -48q-102 0 -177 41l21 117q72 -47 148 -47t87 49q6 35 -25 52t-147 8l111 172q-205 18 -299 157t-51 379t204 383
q162 143 386 143t320 -114q97 -114 83 -275h-209q4 95 -50 155t-177 60z" />
    <glyph glyph-name="egrave" unicode="&#xe8;" horiz-adv-x="1169" 
d="M498 1413h245l95 -266h-168zM932 666q0 88 -53 150t-171 63q-118 0 -207 -75t-128 -196h555q4 20 4 58zM540 -20q-188 0 -302 103t-115 304q0 256 169 457t441 200q186 0 294 -104t108 -295q0 -63 -23 -184h-774q-4 -49 -4 -74q0 -111 60 -177t170 -65q110 0 185 48
q76 48 111 116h213q-70 -157 -208 -243q-137 -86 -325 -86z" />
    <glyph glyph-name="eacute" unicode="&#xe9;" horiz-adv-x="1169" 
d="M727 1413h246l-266 -266h-168zM932 666q0 88 -53 150t-171 63q-118 0 -207 -75t-128 -196h555q4 20 4 58zM540 -20q-188 0 -302 103t-115 304q0 256 169 457t441 200q186 0 294 -104t108 -295q0 -63 -23 -184h-774q-4 -49 -4 -74q0 -111 60 -177t170 -65q110 0 185 48
q76 48 111 116h213q-70 -157 -208 -243q-137 -86 -325 -86z" />
    <glyph glyph-name="ecircumflex" unicode="&#xea;" horiz-adv-x="1169" 
d="M817 1413l162 -266h-150l-129 166l-188 -166h-147l253 266h199zM932 666q0 88 -53 150t-171 63q-118 0 -207 -75t-128 -196h555q4 20 4 58zM540 -20q-188 0 -302 103t-115 304q0 256 169 457t441 200q186 0 294 -104t108 -295q0 -63 -23 -184h-774q-4 -49 -4 -74
q0 -111 60 -177t170 -65q110 0 185 48q76 48 111 116h213q-70 -157 -208 -243q-137 -86 -325 -86z" />
    <glyph glyph-name="edieresis" unicode="&#xeb;" horiz-adv-x="1169" 
d="M391 1208l37 205h215l-37 -205h-215zM760 1208l37 205h215l-37 -205h-215zM932 666q0 88 -53 150t-171 63q-118 0 -207 -75t-128 -196h555q4 20 4 58zM540 -20q-188 0 -302 103t-115 304q0 256 169 457t441 200q186 0 294 -104t108 -295q0 -63 -23 -184h-774
q-4 -49 -4 -74q0 -111 60 -177t170 -65q110 0 185 48q76 48 111 116h213q-70 -157 -208 -243q-137 -86 -325 -86z" />
    <glyph glyph-name="igrave" unicode="&#xec;" horiz-adv-x="499" 
d="M53 1413h246l94 -266h-168zM305 0h-205l183 1024h204z" />
    <glyph glyph-name="iacute" unicode="&#xed;" horiz-adv-x="499" 
d="M358 1413h246l-266 -266h-168zM305 0h-205l183 1024h204z" />
    <glyph glyph-name="icircumflex" unicode="&#xee;" horiz-adv-x="499" 
d="M438 1413l162 -266h-149l-129 166l-189 -166h-147l254 266h198zM305 0h-205l183 1024h204z" />
    <glyph glyph-name="idieresis" unicode="&#xef;" horiz-adv-x="499" 
d="M8 1208l37 205h215l-37 -205h-215zM377 1208l37 205h215l-37 -205h-215zM305 0h-205l183 1024h204z" />
    <glyph glyph-name="eth" unicode="&#xf0;" horiz-adv-x="1220" 
d="M558 135q152 0 249 116q98 116 131 300q8 43 8 74q-10 143 -86 203t-174 61q-154 0 -249 -98q-95 -99 -126 -281t32 -278t215 -97zM682 1040q98 0 190 -40t127 -136q-2 143 -67 259q-66 116 -197 175l-119 -180l-118 62l102 157q-68 16 -170 17l53 176q111 0 224 -29
l98 156l119 -62l-86 -135q207 -86 299 -286t39 -500q-127 -700 -656 -701q-229 -1 -343 141q-115 142 -69 398t203 392q158 136 371 136z" />
    <glyph glyph-name="ntilde" unicode="&#xf1;" horiz-adv-x="1185" 
d="M842 1171q-66 1 -136 53t-112 52q-74 0 -96 -86h-140q37 223 252 223q70 0 140 -53t110 -53q74 0 96 86h140q-43 -222 -254 -222zM858 1044q276 0 277 -276q0 -53 -15 -135l-110 -633h-205l106 608q11 57 11 121q0 65 -41 103t-125 38q-132 0 -232 -97t-127 -255
l-92 -518h-205l181 1024h172l-11 -195q168 215 416 215z" />
    <glyph glyph-name="ograve" unicode="&#xf2;" horiz-adv-x="1216" 
d="M522 1413h246l94 -266h-168zM748 1044q208 0 320 -112t112 -316q0 -262 -170 -449t-451 -187q-203 0 -319 108t-115 313q0 259 170 451t453 192zM729 870q-181 0 -287 -140t-106 -320q0 -256 239 -256q184 0 289 137q104 137 105 317q0 262 -240 262z" />
    <glyph glyph-name="oacute" unicode="&#xf3;" horiz-adv-x="1216" 
d="M741 1413h246l-266 -266h-168zM748 1044q208 0 320 -112t112 -316q0 -262 -170 -449t-451 -187q-203 0 -319 108t-115 313q0 259 170 451t453 192zM729 870q-181 0 -287 -140t-106 -320q0 -256 239 -256q184 0 289 137q104 137 105 317q0 262 -240 262z" />
    <glyph glyph-name="ocircumflex" unicode="&#xf4;" horiz-adv-x="1216" 
d="M838 1413l161 -266h-149l-129 166l-189 -166h-147l254 266h199zM748 1044q208 0 320 -112t112 -316q0 -262 -170 -449t-451 -187q-203 0 -319 108t-115 313q0 259 170 451t453 192zM729 870q-181 0 -287 -140t-106 -320q0 -256 239 -256q184 0 289 137q104 137 105 317
q0 262 -240 262z" />
    <glyph glyph-name="otilde" unicode="&#xf5;" horiz-adv-x="1216" 
d="M834 1171q-66 1 -136 53t-112 52q-74 0 -97 -86h-139q37 223 252 223q70 0 140 -53t110 -53q74 0 96 86h139q-42 -222 -253 -222zM748 1044q208 0 320 -112t112 -316q0 -262 -170 -449t-451 -187q-203 0 -319 108t-115 313q0 259 170 451t453 192zM729 870
q-181 0 -287 -140t-106 -320q0 -256 239 -256q184 0 289 137q104 137 105 317q0 262 -240 262z" />
    <glyph glyph-name="odieresis" unicode="&#xf6;" horiz-adv-x="1216" 
d="M408 1208l36 205h215l-36 -205h-215zM776 1208l37 205h215l-37 -205h-215zM748 1044q208 0 320 -112t112 -316q0 -262 -170 -449t-451 -187q-203 0 -319 108t-115 313q0 259 170 451t453 192zM729 870q-181 0 -287 -140t-106 -320q0 -256 239 -256q184 0 289 137
q104 137 105 317q0 262 -240 262z" />
    <glyph glyph-name="divide" unicode="&#xf7;" horiz-adv-x="1198" 
d="M1133 698l-31 -180h-887l33 180h885zM489 137l39 223h213l-39 -223h-213zM616 856l39 223h213l-39 -223h-213z" />
    <glyph glyph-name="oslash" unicode="&#xf8;" horiz-adv-x="1216" 
d="M715 870q-137 0 -237 -89t-128 -249q-29 -160 6 -241l488 551q-57 28 -129 28zM825 240q98 86 128 252t-17 260l-498 -564q57 -35 152 -34q137 0 235 86zM745 1044q139 0 234 -49l104 119l101 -80l-101 -112q133 -138 86 -402t-209 -402t-403 -138q-145 0 -250 57
l-106 -119l-101 82l107 119q-117 143 -72 394t211 391t399 140z" />
    <glyph glyph-name="ugrave" unicode="&#xf9;" horiz-adv-x="1171" 
d="M442 1413h246l94 -266h-168zM410 -20q-180 0 -233 109q-52 110 -19 300l110 635h205l-106 -606q-23 -127 4 -196q27 -68 147 -68t219 98q98 98 127 256l90 516h205l-180 -1024h-172l10 195q-167 -215 -407 -215z" />
    <glyph glyph-name="uacute" unicode="&#xfa;" horiz-adv-x="1171" 
d="M735 1413h246l-266 -266h-168zM410 -20q-180 0 -233 109q-52 110 -19 300l110 635h205l-106 -606q-23 -127 4 -196q27 -68 147 -68t219 98q98 98 127 256l90 516h205l-180 -1024h-172l10 195q-167 -215 -407 -215z" />
    <glyph glyph-name="ucircumflex" unicode="&#xfb;" horiz-adv-x="1171" 
d="M803 1413l162 -266h-150l-129 166l-188 -166h-148l254 266h199zM410 -20q-180 0 -233 109q-52 110 -19 300l110 635h205l-106 -606q-23 -127 4 -196q27 -68 147 -68t219 98q98 98 127 256l90 516h205l-180 -1024h-172l10 195q-167 -215 -407 -215z" />
    <glyph glyph-name="udieresis" unicode="&#xfc;" horiz-adv-x="1171" 
d="M379 1208l37 205h215l-37 -205h-215zM748 1208l36 205h215l-36 -205h-215zM410 -20q-180 0 -233 109q-52 110 -19 300l110 635h205l-106 -606q-23 -127 4 -196q27 -68 147 -68t219 98q98 98 127 256l90 516h205l-180 -1024h-172l10 195q-167 -215 -407 -215z" />
    <glyph glyph-name="yacute" unicode="&#xfd;" horiz-adv-x="1013" 
d="M637 1413h246l-267 -266h-167zM141 -406h-118l30 175h86q68 -1 107 29t82 108l75 137l-225 981h217l142 -764l403 764h197l-676 -1233q-107 -197 -320 -197z" />
    <glyph glyph-name="thorn" unicode="&#xfe;" horiz-adv-x="1214" 
d="M606 154q135 0 222 94t117 263t-22 264q-53 95 -189 95t-222 -96t-117 -263t23 -262t188 -95zM804 1044q204 0 298 -142q96 -142 51 -396t-188 -390t-334 -136q-223 0 -301 180l-97 -549h-200l317 1802h205l-98 -551q143 182 347 182z" />
    <glyph glyph-name="ydieresis" unicode="&#xff;" horiz-adv-x="1013" 
d="M330 1208l37 205h215l-37 -205h-215zM698 1208l37 205h215l-37 -205h-215zM141 -406h-118l30 175h86q68 -1 107 29t82 108l75 137l-225 981h217l142 -764l403 764h197l-676 -1233q-107 -197 -320 -197z" />
    <glyph glyph-name="dotlessi" unicode="&#x131;" horiz-adv-x="413" 
d="M260 0h-201l183 1024h200z" />
    <glyph glyph-name="Lslash" unicode="&#x141;" horiz-adv-x="1126" 
d="M356 174h682l-30 -174h-887l94 535l-188 -105l41 225l186 105l115 649h204l-92 -520l445 248l-41 -226l-443 -247z" />
    <glyph glyph-name="lslash" unicode="&#x142;" horiz-adv-x="602" 
d="M365 -14q-113 0 -186 72t-50 198l59 344l-161 -86l32 191l164 88l111 630h205l-90 -508l196 107l-33 -191l-196 -106l-78 -438q-10 -55 24 -89t93 -34l39 2l-29 -170q-51 -10 -100 -10z" />
    <glyph glyph-name="OE" unicode="&#x152;" horiz-adv-x="2267" 
d="M932 1260q-220 0 -362 -148t-189 -414t48 -405t319 -139t367 142q141 142 189 414t-52 410q-100 140 -320 140zM973 1434q145 0 257 -54t171 -155l35 188h925l-30 -174h-721l-76 -424h600l-31 -174h-600l-82 -467h721l-31 -174h-925l31 182q-203 -202 -505 -202t-452 188
t-88 534q60 346 278 539t523 193z" />
    <glyph glyph-name="oe" unicode="&#x153;" horiz-adv-x="1998" 
d="M1526 879q-240 0 -332 -271h555q14 115 -41 193t-182 78zM713 870q-150 0 -244 -98t-123 -263q-30 -165 30 -260t213 -95t246 95t121 260t-32 263q-61 98 -211 98zM555 -20q-229 0 -346 140t-72 392q43 252 209 392t393 140q158 0 253 -64t126 -165q74 105 189 167
t254 62q209 0 317 -137t68 -379l-13 -67h-772q-19 -150 45 -233t193 -83q94 0 172 44q77 44 110 120h213q-76 -174 -220 -252q-144 -77 -292 -77t-243 62q-94 62 -129 165q-156 -227 -455 -227z" />
    <glyph glyph-name="Scaron" unicode="&#x160;" horiz-adv-x="1316" 
d="M778 1577l-139 266h147l109 -168l168 168h149l-235 -266h-199zM834 1434q144 0 238 -33q158 -56 197 -216q15 -65 7 -145h-211q10 111 -45 167q-56 57 -196 57t-243 -60t-104 -190q0 -71 59 -112t125 -55q180 -40 222 -52q155 -41 245 -114t89 -210q-1 -229 -183 -360
t-442 -131t-375 118t-94 320h211q-12 -125 56 -198t231 -73q161 0 271 72t109 217q0 78 -55 120q-55 41 -134 62t-162 39q-291 63 -359 186q-31 56 -31 132q0 143 85 251t215 158t274 50z" />
    <glyph glyph-name="scaron" unicode="&#x161;" horiz-adv-x="1036" 
d="M598 1167l-139 267h147l109 -168l168 168h149l-235 -267h-199zM967 338q-1 -170 -139 -264t-343 -94t-294 84t-89 208v39h205v-22q0 -68 50 -106q49 -38 149 -38t173 39t73 119t-70 107q-55 21 -130 30q-207 26 -288 87q-66 50 -65 167q0 162 135 256t318 94
q182 0 270 -86t88 -217v-26h-205v8q-4 156 -170 156q-94 0 -159 -41t-62 -117q0 -45 34 -71t74 -35q41 -9 123 -21l31 -4q218 -32 268 -137q23 -47 23 -115z" />
    <glyph glyph-name="Ydieresis" unicode="&#x178;" horiz-adv-x="1232" 
d="M520 1618l37 205h215l-37 -205h-215zM889 1618l37 205h215l-37 -205h-215zM449 0l98 563l-324 850h219l240 -672l467 672h233l-628 -850l-99 -563h-206z" />
    <glyph glyph-name="Zcaron" unicode="&#x17d;" horiz-adv-x="1232" 
d="M717 1577l-139 266h147l109 -168l167 168h150l-236 -266h-198zM1343 1413l-30 -174l-1034 -1065h847l-30 -174h-1086l31 174l1028 1065h-817l31 174h1060z" />
    <glyph glyph-name="zcaron" unicode="&#x17e;" horiz-adv-x="995" 
d="M502 1167l-140 267h148l108 -168l168 168h150l-236 -267h-198zM1044 1024l-32 -174l-711 -676h623l-31 -174h-885l31 174l713 676h-574l33 174h833z" />
    <glyph glyph-name="florin" unicode="&#x192;" horiz-adv-x="1198" 
d="M1142 1257q-48 0 -101 -29q-52 -30 -72 -85l-58 -164h215l-59 -162h-213q-110 -309 -226 -637t-139 -375q-49 -98 -147 -155q-98 -58 -188 -58t-138 25l56 154q28 -17 76 -17t102 31q53 31 72 84l333 948h-149l59 162h148q57 162 86 227q49 98 148 156t187 58
q88 1 138 -23l-55 -156q-27 16 -75 16z" />
    <glyph glyph-name="circumflex" unicode="&#x2c6;" horiz-adv-x="1126" 
d="M797 1413l161 -266h-149l-129 166l-188 -166h-148l254 266h199z" />
    <glyph glyph-name="caron" unicode="&#x2c7;" horiz-adv-x="1085" 
d="M532 1167l-139 267h148l108 -168l168 168h150l-236 -267h-199z" />
    <glyph glyph-name="breve" unicode="&#x2d8;" horiz-adv-x="1003" 
d="M617 1323q44 0 76 26t38 64h117q-12 -82 -82 -144q-70 -63 -168 -63t-145 62t-35 145h114q-6 -39 18 -65t67 -25z" />
    <glyph glyph-name="dotaccent" unicode="&#x2d9;" horiz-adv-x="428" 
d="M199 1229l37 205h225l-37 -205h-225z" />
    <glyph glyph-name="ring" unicode="&#x2da;" horiz-adv-x="970" 
d="M643 1583q92 -1 145 -65t37 -156t-92 -158t-168 -66t-145 66t-37 158q14 92 91 156t169 65zM588 1268q40 0 72 28t38 66q8 38 -14 66t-62 28t-73 -28t-40 -66t16 -67q24 -27 63 -27z" />
    <glyph glyph-name="ogonek" unicode="&#x2db;" horiz-adv-x="972" 
d="M500 -338q53 0 108 47l31 -43q-68 -76 -174 -76q-105 0 -157 52t-37 142q15 88 87 144t174 72h113q-221 -53 -250 -211q-14 -67 19 -97t86 -30z" />
    <glyph glyph-name="tilde" unicode="&#x2dc;" horiz-adv-x="1028" 
d="M741 1171q-65 1 -135 53t-112 52q-76 0 -97 -86h-139q37 223 252 223q70 0 140 -53t110 -53q76 0 96 86h139q-43 -222 -254 -222z" />
    <glyph glyph-name="hungarumlaut" unicode="&#x2dd;" horiz-adv-x="1083" 
 />
    <glyph glyph-name="pi" unicode="&#x3c0;" horiz-adv-x="1028" 
d="M1186 1038l-31 -168h-143l-154 -870h-199l154 870h-344l-154 -870h-200l153 870h-139l31 168h1026z" />
    <glyph glyph-name="endash" unicode="&#x2013;" horiz-adv-x="1159" 
d="M123 457l33 192h974l-32 -192h-975z" />
    <glyph glyph-name="emdash" unicode="&#x2014;" horiz-adv-x="2164" 
d="M123 457l33 192h1980l-33 -192h-1980z" />
    <glyph glyph-name="quoteleft" unicode="&#x2018;" horiz-adv-x="454" 
d="M162 932l41 225q55 158 227 256h82q-42 -30 -90 -101q-47 -70 -60 -134l-2 -21h72l-41 -225h-229z" />
    <glyph glyph-name="quoteright" unicode="&#x2019;" horiz-adv-x="479" 
d="M614 1413l-41 -225q-57 -156 -227 -256h-84q14 10 36 30t62 80q41 61 52 125l4 21h-72l41 225h229z" />
    <glyph glyph-name="quotesinglbase" unicode="&#x201a;" horiz-adv-x="479" 
d="M408 225l-41 -225q-57 -156 -228 -256h-84q48 35 92 100q44 66 62 156h-72l41 225h230z" />
    <glyph glyph-name="quotedblleft" unicode="&#x201c;" horiz-adv-x="833" 
d="M541 932l41 225q55 158 227 256h82q-42 -30 -90 -101q-47 -70 -60 -134l-2 -21h72l-41 -225h-229zM162 932l41 225q55 158 227 256h82q-42 -30 -90 -101q-47 -70 -60 -134l-2 -21h72l-41 -225h-229z" />
    <glyph glyph-name="quotedblright" unicode="&#x201d;" horiz-adv-x="847" 
d="M881 1413l-41 -225q-53 -156 -228 -256h-82q42 30 90 100q48 71 58 135l4 21h-72l41 225h230zM512 1413l-41 -225q-53 -156 -227 -256h-82q42 30 90 101q47 70 57 134l4 21h-71l41 225h229z" />
    <glyph glyph-name="quotedblbase" unicode="&#x201e;" horiz-adv-x="847" 
d="M776 225l-41 -225q-57 -156 -227 -256h-84q14 10 36 30t62 80q40 62 51 126l5 20h-72l41 225h229zM408 225l-41 -225q-57 -156 -228 -256h-84q48 35 92 100q44 66 62 156h-72l41 225h230z" />
    <glyph glyph-name="dagger" unicode="&#x2020;" horiz-adv-x="1026" 
d="M1085 1036l-28 -162h-340l-209 -1189h-201l209 1189h-338l29 162h340l63 371h201l-63 -371h337z" />
    <glyph glyph-name="daggerdbl" unicode="&#x2021;" horiz-adv-x="1189" 
d="M1178 1053l-29 -164h-336l-106 -600h333l-28 -164h-334l-64 -356h-200l63 356h-336l29 164h336l106 600h-336l29 164h336l61 354h201l-61 -354h336z" />
    <glyph glyph-name="bullet" unicode="&#x2022;" horiz-adv-x="835" 
d="M414 244q-114 0 -178 79t-44 191t113 192q92 78 205 78t178 -78t45 -192t-113 -192t-206 -78z" />
    <glyph glyph-name="perthousand" unicode="&#x2030;" horiz-adv-x="2439" 
d="M2146 827q326 0 252 -424t-401 -423q-325 0 -251 424t400 423zM2124 696q-92 0 -143 -73q-50 -74 -74 -222q-65 -292 112 -290q92 0 143 71q50 72 76 219q62 295 -114 295zM1377 827q325 0 251 -424t-401 -423q-323 0 -249 424t399 423zM1470 401q57 295 -115 295
q-91 0 -142 -73q-50 -74 -76 -222q-61 -292 114 -290q92 0 142 71q49 72 77 219zM555 1393q328 0 252 -424q-77 -424 -401 -424t-248 424t397 424zM428 676q92 0 142 72t77 219q62 295 -114 295q-91 0 -141 -74t-78 -217q-58 -295 114 -295zM1421 1477l99 -64l-1112 -1476
l-99 63z" />
    <glyph glyph-name="guilsinglleft" unicode="&#x2039;" horiz-adv-x="792" 
d="M784 965l-405 -449l246 -455h-207l-240 455l400 449h206z" />
    <glyph glyph-name="guilsinglright" unicode="&#x203a;" horiz-adv-x="792" 
d="M502 516l-244 449h205l242 -449l-402 -455h-205z" />
    <glyph glyph-name="fraction" unicode="&#x2044;" horiz-adv-x="104" 
d="M621 1477l98 -64l-1110 -1476l-98 63z" />
    <glyph glyph-name="Euro" unicode="&#x20ac;" horiz-adv-x="1198" 
d="M702 -23q-221 0 -352 128t-139 372h-164l25 135h749l-100 -135h-291q12 -307 305 -307q203 0 328 158l125 -144q-195 -207 -486 -207zM926 1241q-291 0 -422 -330h536l-98 -135h-842l23 135h164q92 250 268 386t406 137q295 0 409 -220l-178 -139q-63 166 -266 166z" />
    <glyph glyph-name="trademark" unicode="&#x2122;" horiz-adv-x="1673" 
d="M1184 748l340 659h172l-140 -789h-112l115 652l-336 -652h-127l-111 652l-115 -652h-114l139 789h178zM223 1407h598l-20 -107h-238l-121 -682h-118l118 682h-239z" />
    <glyph glyph-name="Omega" unicode="&#x2126;" horiz-adv-x="1513" 
d="M1509 735q-66 -367 -399 -567h246l-29 -168h-467l29 172q346 170 416 563q45 256 -57 392q-102 137 -310 137q-210 0 -360 -136t-195 -393q-70 -389 217 -563l-29 -172h-467l29 168h246q-264 199 -199 567q56 324 272 511q216 188 515 188t448 -188t94 -511z" />
    <glyph glyph-name="arrowleft" unicode="&#x2190;" horiz-adv-x="1517" 
d="M1038 1237l-534 -444h1036l-35 -191h-1036l379 -442h-291l-440 538l631 539h290z" />
    <glyph glyph-name="arrowup" unicode="&#x2191;" horiz-adv-x="1517" 
d="M1339 580l-362 456l-182 -1036h-193l184 1036l-524 -456l51 288l633 539l445 -539z" />
    <glyph glyph-name="arrowright" unicode="&#x2192;" horiz-adv-x="1517" 
d="M1169 793l-378 444h288l445 -539l-635 -538h-289l535 442h-1037l35 191h1036z" />
    <glyph glyph-name="arrowdown" unicode="&#x2193;" horiz-adv-x="1517" 
d="M307 827l363 -456l182 1036h190l-182 -1036l524 456l-51 -290l-635 -537l-442 537z" />
    <glyph glyph-name="arrowboth" unicode="&#x2194;" horiz-adv-x="2347" 
d="M1997 793l-379 442h289l442 -539l-633 -538h-289l535 444h-1491l379 -442h-289l-442 538l633 539h288l-534 -444h1491z" />
    <glyph glyph-name="arrowrightdown" unicode="&#x21b4;" horiz-adv-x="1517" 
d="M1393 956l-133 -761h-764l-170 204l639 -8l-605 731l156 135l596 -735l113 639z" />
    <glyph glyph-name="partialdiff" unicode="&#x2202;" horiz-adv-x="1210" 
d="M543 -27q-227 0 -343 124t-53 366q49 195 197 319t332 125q139 -1 235 -67t103 -197q75 198 63 389q-6 98 -70 160q-65 61 -171 61q-209 0 -252 -206l-197 34q41 167 157 259t285 94q287 0 382 -178t14 -500q-23 -74 -36 -116t-50 -135t-71 -153q-103 -182 -206 -264
q-59 -47 -143 -81t-176 -34zM470 645q-93 -80 -126 -212t32 -208q65 -75 180 -75t208 74q92 75 129 194t-21 212t-183 94q-126 1 -219 -79z" />
    <glyph glyph-name="Delta" unicode="&#x2206;" horiz-adv-x="1265" 
d="M842 1237l-613 -1061h846zM764 1409h217l287 -1233l-31 -176h-1229l31 176z" />
    <glyph glyph-name="product" unicode="&#x220f;" horiz-adv-x="1308" 
d="M1538 1407l-35 -195h-184l-215 -1212h-215l215 1212h-496l-213 -1212h-215l213 1212h-184l35 195h1294z" />
    <glyph glyph-name="summation" unicode="&#x2211;" horiz-adv-x="1026" 
d="M1190 1407l-35 -193h-657l411 -618l-630 -619h657l-33 -192h-942l31 178l643 633l-422 631l33 180h944z" />
    <glyph glyph-name="minus" unicode="&#x2212;" horiz-adv-x="1275" 
d="M1157 786l-31 -174h-897l31 174h897z" />
    <glyph glyph-name="radical" unicode="&#x221a;" horiz-adv-x="1198" 
d="M1376 1434l-686 -1434h-203l-143 651h-231l28 174h353l124 -618l576 1227h182z" />
    <glyph glyph-name="infinity" unicode="&#x221e;" horiz-adv-x="1433" 
d="M1087 956q94 0 155 -36q60 -38 80 -92q48 -134 19 -224q-21 -118 -97 -224q-42 -58 -114 -94t-163 -36q-160 0 -224 153q-117 -153 -272 -153t-213 87t-52 180q3 46 10 94q15 103 94 215q42 58 115 94t165 36q160 0 223 -151q114 151 274 151zM502 440q141 0 200 164
q0 162 -141 162t-172 -162q-28 -164 113 -164zM993 440q143 0 172 162q31 164 -113 164t-198 -162q-4 -164 139 -164z" />
    <glyph glyph-name="integral" unicode="&#x222b;" horiz-adv-x="534" 
d="M51 -399q-84 0 -135 24l29 156q27 -14 77 -14t96 29q46 30 56 83l213 1208q8 61 35 123q35 90 121 142q87 52 167 54q80 1 140 -24l-27 -157q-33 16 -79 16t-94 -30t-56 -83l-215 -1208q-8 -57 -33 -125q-37 -88 -124 -141t-171 -53z" />
    <glyph glyph-name="approxequal" unicode="&#x2248;" horiz-adv-x="1036" 
d="M420 328q-82 0 -96 -88h-140q41 231 250 231q70 0 146 -45t112 -45q78 0 94 90h140q-41 -231 -248 -231q-70 0 -144 44t-114 44zM477 655q-82 0 -96 -88h-139q41 231 250 232q72 0 146 -45t112 -45q78 0 94 90h139q-41 -231 -248 -232q-69 0 -143 44t-115 44z" />
    <glyph glyph-name="notequal" unicode="&#x2260;" horiz-adv-x="1198" 
d="M260 692l29 166h495l134 178l169 -28l-112 -150h168l-31 -166h-262l-166 -221h389l-29 -166h-487l-143 -192l-172 28l123 164h-175l31 166h271l165 221h-397z" />
    <glyph glyph-name="lessequal" unicode="&#x2264;" horiz-adv-x="1198" 
d="M1047 180l-33 -180h-912l31 180h914zM1077 356l-844 383l27 156l979 385l-33 -197l-768 -264l674 -262z" />
    <glyph glyph-name="greaterequal" unicode="&#x2265;" horiz-adv-x="1198" 
d="M1135 739l-981 -383l36 201l766 262l-673 264l34 197l844 -385zM1036 180l-32 -180h-912l31 180h913z" />
    <glyph glyph-name="lozenge" unicode="&#x25ca;" horiz-adv-x="1368" 
d="M1098 707l-246 540l-442 -540l245 -545zM526 0l-338 707l594 702h197l340 -702l-594 -707h-199z" />
    <glyph glyph-name="CR" horiz-adv-x="1337" 
 />
    <glyph glyph-name="l.ss06" horiz-adv-x="499" 
d="M541 1434l-252 -1434h-205l252 1434h205z" />
    <glyph glyph-name="y.ss02" horiz-adv-x="1112" 
d="M1182 1024l-779 -1413h-194l240 432l-226 981h217l142 -764l403 764h197z" />
    <glyph glyph-name="g.ss03" horiz-adv-x="1196" 
d="M698 870q-166 0 -257 -135t-91 -303q0 -238 217 -237q170 0 260 126t91 293q-1 256 -220 256zM498 -410q-125 0 -212 32t-127 83q-71 91 -71 189v24h211v-14q6 -158 205 -158q264 0 313 274l33 183q-131 -182 -352 -183q-166 0 -262 100t-97 292q0 236 132 426
q65 92 169 149t232 57q227 0 301 -182l53 162h174l-170 -967q-80 -467 -532 -467z" />
    <glyph glyph-name="G.ss04" horiz-adv-x="1556" 
d="M928 1260q-205 0 -351 -146q-147 -146 -195 -412t50 -407t316 -141t342 108q123 108 159 295h-368l30 174h582l-12 -67q-57 -332 -258 -508t-503 -176t-456 189t-92 533q58 344 280 538t525 194q404 0 511 -284q32 -85 30 -194h-211q-4 150 -89 227t-290 77z" />
    <glyph glyph-name="ydieresis.neogrotesk" horiz-adv-x="1030" 
d="M334 1208l37 205h215l-37 -205h-215zM702 1208l37 205h215l-36 -205h-216zM1145 1024l-778 -1413h-195l240 432l-226 981h217l142 -764l403 764h197z" />
    <glyph glyph-name="ampersand.ss05" horiz-adv-x="1363" 
d="M778 1264q-76 0 -126 -48t-62 -124q-19 -114 63 -218q43 8 86 24t101 70q58 52 69 128q14 76 -20 122q-35 46 -111 46zM591 143q157 0 279 84l-311 437q-211 -76 -242 -248q-23 -125 47 -199t227 -74zM801 1434q160 0 256 -80t65 -248q-47 -270 -374 -365l270 -370
q53 78 80 198h211q-45 -190 -185 -350l158 -219h-254l-63 88q-158 -108 -406 -108t-369 112t-84 324q47 270 351 395q-106 125 -76 301q25 134 143 228t277 94z" />
    <glyph glyph-name="a.ss01" horiz-adv-x="1202" 
d="M903 623q0 250 -217 247q-143 0 -228 -102t-113 -265q-29 -163 25 -256t181 -93t218 87t124 267q10 59 10 115zM471 -20q-190 0 -287 134q-96 134 -50 389t192 398t336 143q223 0 294 -180l64 180h174l-186 -1044h-174l6 162q-143 -182 -369 -182z" />
    <glyph glyph-name="yacute.neogrotesk" horiz-adv-x="1030" 
d="M643 1413h246l-266 -266h-168zM141 -406h-118l30 175h86q68 -1 107 29t82 108l75 137l-225 981h217l142 -764l403 764h197l-676 -1233q-107 -197 -320 -197z" />
    <glyph glyph-name="fl.ss06" horiz-adv-x="1150" 
d="M700 1446q31 0 97 -8l-29 -174q-49 8 -82 8q-134 0 -154 -125l-20 -123h403l72 410h205l-254 -1434h-205l150 850h-404l-149 -850h-205l149 850h-153l33 174h153l23 133q27 149 130 219t240 70z" />
    <glyph glyph-name="ffl.ss06" horiz-adv-x="1814" 
d="M1335 1446q31 0 97 -8l-29 -174q-49 8 -82 8q-133 0 -154 -125l-20 -123h432l68 389h204l-249 -1413h-205l149 850h-432l-149 -850h-205l149 850h-430l-149 -850h-205l149 850h-153l33 174h153l23 133q27 149 129 219t241 70q31 0 97 -8l-29 -174q-49 8 -82 8
q-134 0 -154 -125l-20 -123h430l23 133q27 149 130 219t240 70z" />
    <glyph glyph-name="arrowleftup" horiz-adv-x="1517" 
d="M244 432l133 762h764l170 -205l-641 8l606 -729l-156 -135l-596 735l-112 -641z" />
    <glyph glyph-name="arrowrightup" horiz-adv-x="1517" 
d="M678 1202h762l-133 -762l-242 -204l121 638l-858 -735l-115 135l864 725l-639 -2z" />
    <glyph glyph-name="arrowleftdown" horiz-adv-x="1515" 
d="M958 188h-761l133 762l241 205l-120 -639l860 733l110 -131l-864 -727l641 2z" />
    <glyph glyph-name="agrave.ss01" horiz-adv-x="1202" 
d="M524 1413h246l94 -266h-168zM903 623q0 250 -217 247q-143 0 -228 -102t-113 -265q-29 -163 25 -256t181 -93t218 87t124 267q10 59 10 115zM471 -20q-190 0 -287 134q-96 134 -50 389t192 398t336 143q223 0 294 -180l64 180h174l-186 -1044h-174l6 162
q-143 -182 -369 -182z" />
    <glyph glyph-name="aacute.ss01" horiz-adv-x="1202" 
d="M809 1413h246l-267 -266h-167zM903 623q0 250 -217 247q-143 0 -228 -102t-113 -265q-29 -163 25 -256t181 -93t218 87t124 267q10 59 10 115zM471 -20q-190 0 -287 134q-96 134 -50 389t192 398t336 143q223 0 294 -180l64 180h174l-186 -1044h-174l6 162
q-143 -182 -369 -182z" />
    <glyph glyph-name="acircumflex.ss01" horiz-adv-x="1202" 
d="M920 1413l161 -266h-149l-129 166l-189 -166h-147l254 266h199zM903 623q0 250 -217 247q-143 0 -228 -102t-113 -265q-29 -163 25 -256t181 -93t218 87t124 267q10 59 10 115zM471 -20q-190 0 -287 134q-96 134 -50 389t192 398t336 143q223 0 294 -180l64 180h174
l-186 -1044h-174l6 162q-143 -182 -369 -182z" />
    <glyph glyph-name="atilde.ss01" horiz-adv-x="1202" 
d="M899 1171q-65 1 -135 53t-113 52q-74 0 -96 -86h-139q37 223 252 223q70 0 140 -53t110 -53q74 0 96 86h139q-43 -222 -254 -222zM903 623q0 250 -217 247q-143 0 -228 -102t-113 -265q-29 -163 25 -256t181 -93t218 87t124 267q10 59 10 115zM471 -20q-190 0 -287 134
q-96 134 -50 389t192 398t336 143q223 0 294 -180l64 180h174l-186 -1044h-174l6 162q-143 -182 -369 -182z" />
    <glyph glyph-name="adieresis.ss01" horiz-adv-x="1202" 
d="M500 1208l37 205h215l-37 -205h-215zM868 1208l37 205h215l-37 -205h-215zM903 623q0 250 -217 247q-143 0 -228 -102t-113 -265q-29 -163 25 -256t181 -93t218 87t124 267q10 59 10 115zM471 -20q-190 0 -287 134q-96 134 -50 389t192 398t336 143q223 0 294 -180
l64 180h174l-186 -1044h-174l6 162q-143 -182 -369 -182z" />
    <glyph glyph-name="aring.ss01" horiz-adv-x="1202" 
d="M831 1583q92 0 146 -64q53 -65 37 -157t-92 -158t-168 -66t-146 66q-53 66 -37 158q14 92 91 156t169 65zM776 1268q39 0 72 28t39 66q8 38 -15 66q-22 28 -62 28t-73 -28t-40 -66t17 -66t62 -28zM903 623q0 250 -217 247q-143 0 -228 -102t-113 -265q-29 -163 25 -256
t181 -93t218 87t124 267q10 59 10 115zM471 -20q-190 0 -287 134q-96 134 -50 389t192 398t336 143q223 0 294 -180l64 180h174l-186 -1044h-174l6 162q-143 -182 -369 -182z" />
    <glyph glyph-name="one.osf" horiz-adv-x="962" 
d="M317 958q176 0 213 189h205l-172 -973h287l-31 -174h-778l31 174h286l107 610h-262l30 174h84z" />
    <glyph glyph-name="two.osf" horiz-adv-x="1126" 
d="M725 1167q215 1 301 -109t55 -285t-185 -318t-507 -281h604l-32 -174h-922l33 188q480 193 640 327q81 69 112 121q32 52 42 118q45 240 -180 239q-225 0 -285 -239h-211q52 197 186 305t349 108z" />
    <glyph glyph-name="zero.osf" horiz-adv-x="1179" 
d="M731 1167q231 0 332 -129t97 -294q-1 -85 -13 -173q-40 -227 -185 -402q-73 -87 -184 -138q-112 -51 -244 -51t-226 52q-93 52 -133 136q-91 191 -44 403q20 115 67 217q108 238 302 328q110 51 231 51zM713 993q-147 0 -243 -113q-95 -114 -128 -309q-32 -195 22 -307
t202 -110q148 0 243 112q94 112 127 306q32 194 -22 308t-201 113z" />
    <glyph glyph-name="three.osf" horiz-adv-x="1071" 
d="M451 -266q-215 0 -329 108t-91 310h209q-12 -124 50 -184t188 -60t210 73t108 203t-41 196q-65 67 -194 66h-153l30 175l383 372h-553l33 174h803l-33 -174l-414 -372q183 0 285 -113t66 -315q-36 -203 -189 -331q-154 -128 -368 -128z" />
    <glyph glyph-name="four.osf" horiz-adv-x="1159" 
d="M717 174l123 690l-557 -690h434zM850 -246h-205l43 246h-674l29 176l850 991h205l-176 -993h190l-31 -174h-188z" />
    <glyph glyph-name="five.osf" horiz-adv-x="1132" 
d="M700 649q186 0 282 -128q97 -128 60 -336q-38 -207 -196 -329t-360 -122t-312 103t-88 304h211q-12 -117 50 -175t178 -58t201 77t108 205q22 128 -32 212q-54 83 -174 83t-184 -51q-65 -51 -90 -102l-190 74l211 741h764l-31 -174h-592l-135 -449q133 125 319 125z" />
    <glyph glyph-name="six.osf" horiz-adv-x="1208" 
d="M588 154q133 0 216 74q82 74 106 202q24 129 -33 202t-189 73q-220 0 -322 -221q-19 -40 -24 -66q-10 -119 51 -192q62 -72 195 -72zM758 868q193 0 297 -112t63 -336q-31 -182 -178 -311t-381 -129q-154 0 -250 55t-133 149q-79 200 -16 488q57 332 222 526t427 195
q207 -1 303 -107t82 -252h-205q4 183 -211 185q-330 0 -418 -553q144 202 398 202z" />
    <glyph glyph-name="seven.osf" horiz-adv-x="1017" 
d="M1087 1147l-30 -174l-738 -1219h-206l743 1219h-704l30 174h905z" />
    <glyph glyph-name="eight.osf" horiz-adv-x="1216" 
d="M689 817q95 0 174 50t97 158t-48 151q-67 43 -134 43q-67 -1 -116 -13q-48 -12 -102 -59t-66 -123q-20 -111 40 -159t155 -48zM660 643q-124 0 -220 -63t-118 -189q-12 -70 7 -120t62 -73q79 -44 165 -44q88 0 150 16t125 72t80 149q23 125 -52 189t-199 63zM420 729
q-76 43 -116 119t-21 180q29 162 162 263t347 101t310 -102t69 -262q-18 -102 -85 -179t-152 -120q229 -106 186 -342q-34 -193 -190 -301t-390 -106q-234 0 -350 106q-115 106 -81 301q43 240 311 342z" />
    <glyph glyph-name="nine.osf" horiz-adv-x="1204" 
d="M718 991q-132 1 -216 -69t-107 -196t33 -201t180 -74q90 -1 161 33t109 84q68 90 78 151q8 119 -49 195t-189 77zM551 287q-186 0 -292 113q-105 114 -69 331q30 180 178 308t367 128q158 0 257 -58q99 -59 135 -157q75 -206 14 -503q-35 -189 -105 -333
q-127 -260 -350 -344q-98 -38 -205 -38q-199 0 -294 108t-81 258h207q-1 -92 53 -141t148 -49q338 0 426 569q-143 -192 -389 -192z" />
    <glyph glyph-name="zero.tf" 
d="M795 1434q528 0 401 -730t-655 -729q-528 -1 -401 729t655 730zM766 1260q-98 0 -173 -46t-121 -132q-46 -85 -74 -173t-48 -207q-68 -407 63 -507q58 -45 156 -45q199 0 294 174q84 153 122 378q20 119 25 207q10 227 -87 304q-59 47 -157 47z" />
    <glyph glyph-name="zero.zero.tf" 
d="M571 154q196 0 292 174q84 154 122 374q20 111 23 207l-674 -571q41 -184 237 -184zM765 1260q-196 0 -293 -178q-84 -156 -122 -380q-23 -127 -22 -206l671 573q-38 191 -234 191zM795 1434q528 0 401 -728t-657 -726q-526 0 -399 727t655 727z" />
    <glyph glyph-name="one.tf" 
d="M518 1225q176 0 213 188h205l-219 -1239h368l-30 -174h-942l30 174h369l154 877h-263l31 174h84z" />
    <glyph glyph-name="two.tf" 
d="M793 1434q207 0 312 -112t73 -293t-209 -365q-176 -184 -602 -490h682l-29 -174h-950l30 186q533 373 697 546q88 92 122 152t44 126q18 110 -25 180t-172 70q-227 0 -299 -273h-211q51 219 190 333q140 114 347 114z" />
    <glyph glyph-name="three.tf" 
d="M567 -20q-215 0 -329 108t-93 309h209q-12 -123 52 -183t189 -60q126 0 211 78t105 202q45 256 -233 256h-154l31 174l379 375h-549l31 174h803l-31 -174l-414 -375q184 0 286 -106t65 -310q-35 -204 -189 -336t-369 -132z" />
    <glyph glyph-name="four.tf" 
d="M788 557l99 553l-533 -553h434zM895 0h-205l68 383h-674l31 176l825 854h205l-152 -856h189l-31 -174h-188z" />
    <glyph glyph-name="five.tf" 
d="M763 905q185 0 281 -121q96 -122 60 -332t-199 -341t-363 -131t-311 104t-86 311h211q-14 -121 51 -181t178 -60t198 83t108 213t-31 206t-180 75q-86 0 -153 -37t-89 -73l-24 -37l-193 75l213 754h764l-31 -174h-592l-137 -463q139 129 325 129z" />
    <glyph glyph-name="six.tf" 
d="M578 154q133 0 217 82q85 82 109 217t-34 207t-188 73q-88 0 -158 -37t-108 -90q-69 -98 -78 -160q-12 -133 47 -213q60 -79 193 -79zM754 897q193 0 296 -112q103 -111 66 -321t-185 -347t-382 -137q-154 0 -250 57t-132 155q-76 208 -13 508q59 338 225 536t428 198
q207 0 302 -110t81 -261h-205q4 195 -209 197q-332 0 -420 -566q142 203 398 203z" />
    <glyph glyph-name="seven.tf" 
d="M1247 1413l-30 -174l-742 -1239h-207l748 1239h-705l31 174h905z" />
    <glyph glyph-name="eight.tf" 
d="M691 838q95 0 173 52t99 159q10 63 -7 108q-35 99 -190 103q-72 0 -134 -28q-116 -54 -136 -174t40 -170t155 -50zM660 664q-122 0 -218 -67q-98 -67 -120 -189q-14 -78 5 -132t62 -80q77 -45 187 -46q110 0 209 56t124 190t-51 202q-76 66 -198 66zM798 1434
q214 0 309 -109t67 -276q-37 -199 -240 -299q227 -104 188 -342q-36 -205 -194 -319t-392 -114t-349 113q-114 113 -76 320q39 240 309 342q-76 42 -115 118t-20 181q29 169 164 277t349 108z" />
    <glyph glyph-name="nine.tf" 
d="M763 1257q-132 -1 -216 -71t-107 -200q-22 -130 34 -205t185 -74q86 -1 155 33t107 83q70 90 80 152q8 119 -49 201t-189 81zM600 543q-197 -1 -300 115q-104 116 -68 317t182 330t381 129q516 0 393 -711q-97 -563 -455 -708q-98 -40 -205 -40q-209 0 -302 109t-76 258
h204q0 -92 54 -141t149 -49q338 0 428 583q-145 -192 -385 -192z" />
    <glyph glyph-name="zero.zero" horiz-adv-x="1220" 
d="M580 154q195 0 287 168q126 224 141 567l-666 -567q43 -168 238 -168zM759 1219q-193 0 -289 -170q-83 -148 -118 -367q-23 -109 -22 -207l667 572q-45 172 -238 172zM795 1393q528 -1 402 -707t-654 -706t-402 706t654 707z" />
    <glyph glyph-name="yacute.ss02" horiz-adv-x="1112" 
d="M698 1413h246l-266 -266h-168zM1182 1024l-779 -1413h-194l240 432l-226 981h217l142 -764l403 764h197z" />
    <glyph glyph-name="ydieresis.ss02" horiz-adv-x="1112" 
d="M371 1208l37 205h215l-37 -205h-215zM739 1208l37 205h215l-37 -205h-215zM1182 1024l-779 -1413h-194l240 432l-226 981h217l142 -764l403 764h197z" />
    <glyph glyph-name="parenleft.case" horiz-adv-x="669" 
d="M768 1577q-285 -401 -373 -881q-84 -481 64 -880h-191q-168 401 -83 879t393 882h190z" />
    <glyph glyph-name="parenright.case" horiz-adv-x="669" 
d="M-41 -184q285 406 371 882t-64 879h191q168 -403 84 -879t-394 -882h-188z" />
    <glyph glyph-name="bracketleft.case" horiz-adv-x="661" 
d="M49 -184l309 1761h422l-30 -174h-218l-249 -1413h217l-29 -174h-422z" />
    <glyph glyph-name="bracketright.case" horiz-adv-x="661" 
d="M707 1577l-310 -1761h-420l29 174h215l250 1413h-217l31 174h422z" />
    <glyph glyph-name="braceleft.case" horiz-adv-x="788" 
d="M877 1577h30l-30 -174h-25q-74 0 -117 -42t-61 -151l-56 -311q-14 -80 -44 -126t-89 -77q88 -57 62 -204l-66 -371q-25 -131 123 -131h23l-29 -174h-31q-184 0 -253 68t-38 247l62 346q25 131 -150 131l31 174q174 0 197 133l61 345q31 178 123 248t277 69z" />
    <glyph glyph-name="braceright.case" horiz-adv-x="788" 
d="M29 -10q145 0 170 131l65 371q14 80 43 126t86 78q-47 31 -59 78t2 125l55 311q18 109 -10 151q-29 42 -105 42h-22l31 174h30q182 0 251 -70t38 -247l-61 -345q-11 -65 23 -99t128 -34l-30 -174q-176 0 -199 -131l-62 -346q-31 -178 -123 -247t-272 -68h-31l29 174h23z
" />
    <glyph glyph-name="questiondown.case" horiz-adv-x="1136" 
d="M891 1413l-39 -225h-215l39 225h215zM498 -20q-199 0 -291 100q-91 100 -61 270t216 307q90 68 132 109q92 92 124 285h205q-33 -189 -90 -279t-149 -162t-124 -100q-92 -82 -106 -167t31 -137t161 -52t186 68t85 151h207q-25 -140 -148 -259q-62 -60 -160 -97t-218 -37z
" />
    <glyph glyph-name="guillemotleft.case" horiz-adv-x="1202" 
d="M1223 1128l-406 -448l246 -455h-207l-240 455l400 448h207zM813 1128l-405 -448l245 -455h-207l-239 455l399 448h207z" />
    <glyph glyph-name="guillemotright.case" horiz-adv-x="1202" 
d="M940 680l-244 448h205l242 -448l-402 -455h-204zM530 680l-243 448h205l241 -448l-401 -455h-205z" />
    <glyph glyph-name="guilsinglleft.case" horiz-adv-x="792" 
d="M813 1128l-405 -448l245 -455h-207l-239 455l399 448h207z" />
    <glyph glyph-name="guilsinglright.case" horiz-adv-x="792" 
d="M530 680l-243 448h205l241 -448l-401 -455h-205z" />
    <glyph glyph-name="exclamdown.case" horiz-adv-x="643" 
d="M186 0l222 1051h137l-150 -1051h-209zM393 1188l39 225h215l-39 -225h-215z" />
    <glyph glyph-name="underscore.case" horiz-adv-x="974" 
d="M-25 -250l17 103h973l-17 -103h-973z" />
    <glyph glyph-name="bullet.case" horiz-adv-x="835" 
d="M539 948q113 0 178 -78t45 -192q-20 -113 -114 -192q-94 -78 -206 -78q-114 0 -178 78t-43 192t113 192t205 78z" />
    <glyph glyph-name="periodcentered.case" horiz-adv-x="432" 
d="M152 543l41 225h229l-41 -225h-229z" />
    <glyph glyph-name="hyphen.case" horiz-adv-x="780" 
d="M745 573l-30 -174h-596l31 174h595z" />
    <glyph glyph-name="endash.case" horiz-adv-x="1159" 
d="M123 457l33 192h974l-32 -192h-975z" />
    <glyph glyph-name="emdash.case" horiz-adv-x="2164" 
d="M123 457l33 192h1980l-33 -192h-1980z" />
    <glyph glyph-name="bar.case" horiz-adv-x="501" 
d="M141 -184l310 1761h204l-309 -1761h-205z" />
    <glyph glyph-name="brokenbar.case" horiz-adv-x="501" 
d="M68 -184l131 741h204l-131 -741h-204zM248 836l129 741h205l-129 -741h-205z" />
    <glyph glyph-name="I.ss07" horiz-adv-x="700" 
d="M10 0l31 174h174l188 1065h-174l31 174h553l-31 -174h-174l-188 -1065h174l-31 -174h-553z" />
    <glyph glyph-name="zero.tosf" 
d="M731 1167q231 0 332 -129t97 -294q-1 -85 -13 -173q-40 -227 -185 -402q-73 -87 -184 -138q-112 -51 -244 -51t-226 52q-93 52 -133 136q-91 191 -44 403q20 115 67 217q108 238 302 328q110 51 231 51zM713 993q-147 0 -243 -113q-95 -114 -128 -309q-32 -195 22 -307
t202 -110q148 0 243 112q94 112 127 306q32 194 -22 308t-201 113z" />
    <glyph glyph-name="one.tosf" 
d="M477 958q178 0 211 189h205l-172 -973h369l-31 -174h-942l30 174h369l109 610h-263l31 174h84z" />
    <glyph glyph-name="two.tosf" 
d="M766 1167q215 1 301 -109t55 -285q-30 -175 -184 -318t-508 -281h604l-33 -174h-921l33 188q480 193 640 327q81 69 112 121q32 52 42 118q45 240 -180 239q-225 0 -285 -239h-211q53 197 187 305t348 108z" />
    <glyph glyph-name="three.tosf" 
d="M516 -266q-215 0 -330 108t-90 310h209q-12 -124 50 -184q63 -60 189 -60t210 73t108 203t-42 196q-65 67 -193 66h-154l31 175l383 372h-553l33 174h802l-32 -174l-414 -372q183 0 285 -113t66 -315q-36 -203 -190 -331t-368 -128z" />
    <glyph glyph-name="four.tosf" 
d="M754 174l123 690l-558 -690h435zM887 -246h-205l43 246h-674l29 176l850 991h205l-177 -993h191l-31 -174h-188z" />
    <glyph glyph-name="five.tosf" 
d="M736 649q186 0 283 -128t60 -336q-37 -207 -197 -329t-360 -122t-312 103t-87 304h211q-12 -117 50 -175t178 -58t200 77t108 205t-31 212q-54 83 -174 83t-184 -51q-65 -51 -90 -102l-192 74l211 741h764l-31 -174h-592l-135 -449q134 125 320 125z" />
    <glyph glyph-name="six.tosf" 
d="M582 154q133 0 217 82q85 82 109 217t-34 207t-188 73q-88 0 -158 -37t-108 -90q-66 -94 -78 -160q-12 -133 47 -213q60 -79 193 -79zM758 897q193 0 296 -112q103 -111 66 -321t-185 -347t-382 -137q-154 0 -250 57t-132 155q-76 208 -13 508q59 338 225 536t428 198
q207 0 302 -110t81 -261h-205q4 195 -209 197q-332 0 -420 -566q142 203 398 203z" />
    <glyph glyph-name="seven.tosf" 
d="M1221 1147l-31 -174l-737 -1219h-207l743 1219h-704l30 174h906z" />
    <glyph glyph-name="eight.tosf" 
d="M690 838q96 0 174 51t97 160q12 63 -5 108q-35 99 -192 103q-86 0 -167 -46t-101 -162q-20 -114 39 -164t155 -50zM660 664q-122 0 -220 -67t-121 -189q-15 -78 5 -132t63 -80q77 -45 187 -46q110 0 209 56t124 190t-50 202q-75 66 -197 66zM797 1434q213 0 308 -109
t66 -276q-18 -101 -85 -179t-152 -120q229 -106 186 -342q-34 -205 -192 -319t-392 -114t-349 113q-114 113 -78 320q43 240 311 342q-76 42 -116 118t-21 181q31 169 166 277t348 108z" />
    <glyph glyph-name="nine.tosf" 
d="M722 991q-132 1 -216 -69t-107 -196t33 -201t180 -74q90 -1 161 33t109 84q66 87 79 151q9 119 -49 195t-190 77zM555 287q-186 0 -292 113q-105 114 -68 331q31 180 178 308t366 128q158 0 257 -58q100 -59 136 -157q76 -204 13 -503q-35 -189 -105 -333
q-127 -260 -350 -344q-98 -38 -205 -38q-199 0 -294 108t-80 258h206q-1 -92 53 -141t148 -49q338 0 426 569q-143 -192 -389 -192z" />
    <glyph glyph-name="numbersign.tf" 
d="M621 881l-179 -400h260l177 400h-258zM31 0l137 311h-131l29 170h178l176 400h-223l32 174h269l164 358h200l-164 -358h258l164 358h199l-166 -358h139l-32 -174h-185l-176 -400h229l-28 -170h-277l-139 -311h-197l140 311h-258l-140 -311h-198z" />
    <glyph glyph-name="dollar.tf" 
d="M432 1057q-16 -90 33 -135t153 -74l72 409q-225 -24 -258 -200zM948 387q18 105 -36 155t-181 83l-84 -473q266 22 301 235zM899 1579l-27 -149q389 -33 357 -390h-211q6 94 -33 150t-143 67l-78 -444l70 -18q174 -43 266 -133t61 -272t-175 -289q-144 -108 -370 -119
l-24 -150h-152l25 152q-219 18 -313 134t-76 300h211q-27 -227 209 -262l90 503q-196 45 -297 127q-102 82 -72 251q31 169 159 273t345 120l27 149h151z" />
    <glyph glyph-name="plus.tf" 
d="M649 1001h174l-69 -393h393l-31 -174h-393l-70 -391h-174l70 391h-391l30 174h392z" />
    <glyph glyph-name="less.tf" 
d="M1024 57l-840 387l27 156l979 387l-37 -205l-725 -260l633 -260z" />
    <glyph glyph-name="equal.tf" 
d="M166 395l31 174h897l-31 -174h-897zM233 782l31 174h899l-33 -174h-897z" />
    <glyph glyph-name="greater.tf" 
d="M279 985l841 -387l-26 -154l-979 -387l37 205l725 260l-633 260z" />
    <glyph glyph-name="asciitilde.tf" 
d="M522 565q-82 0 -96 -90h-139q41 233 250 234q73 0 147 -45t111 -46q78 0 94 91h139q-41 -233 -248 -234q-70 0 -144 45t-114 45z" />
    <glyph glyph-name="cent.tf" 
d="M738 1075q-124 0 -220 -90t-129 -271q-33 -180 36 -268t202 -88q223 0 297 197h209q-55 -154 -177 -256t-317 -115l-33 -184h-104l33 186q-205 16 -301 156t-56 372t186 373t359 160l29 162h102l-29 -162q187 -15 275 -125t76 -262h-209q3 94 -51 154t-178 61z" />
    <glyph glyph-name="sterling.tf" 
d="M817 1413q410 0 344 -383h-213q20 115 -24 158t-134 43t-150 -45t-77 -137l-61 -344h358l-29 -162h-358l-37 -219q-23 -104 -108 -142h426q115 4 150 64q36 60 46 125h215q-22 -130 -99 -238q-93 -129 -333 -133h-741l33 182q122 0 156 51t40 89l39 221h-170l29 162h170
l59 344q20 121 122 235q52 57 142 93t205 36z" />
    <glyph glyph-name="currency.tf" 
d="M560 -14q-169 0 -292 100l-174 -149l-96 118l172 150q-76 139 -46 308t155 306l-121 148l139 118l123 -147q152 98 322 98t292 -98l174 147l99 -118l-177 -148q76 -139 46 -308t-154 -306l125 -150l-141 -118l-123 149q-154 -100 -323 -100zM589 160q146 0 268 103
t148 249q27 146 -61 250q-88 102 -231 102t-265 -103t-150 -249q-26 -146 59 -249q86 -103 232 -103z" />
    <glyph glyph-name="yen.tf" 
d="M1352 1413l-514 -727h266l-25 -137h-338l-28 -162h338l-25 -137h-338l-43 -250h-207l45 250h-348l25 137h348l29 162h-349l25 137h274l-254 727h232l213 -684l455 684h219z" />
    <glyph glyph-name="section.tf" 
d="M889 649q16 96 -86 127q-48 15 -110 24t-85 15q-127 -23 -145 -131q-16 -89 61 -121q53 -22 139 -33q86 -12 113 -18q90 24 113 137zM797 1434q106 0 182 -23t111 -59t55 -79q20 -44 16 -88t-6 -83h-211q12 76 -21 121q-34 45 -155 45q-203 0 -227 -138q-14 -76 46 -114
t152 -50q93 -14 185 -34t146 -86t34 -182q-27 -154 -180 -224q55 -30 84 -94q28 -64 12 -156q-54 -298 -496 -303q-127 0 -213 32t-120 82q-78 115 -46 226h211q-12 -74 26 -124t173 -50q229 0 254 142q10 59 -31 96q-42 37 -110 49q-178 31 -296 76q-67 25 -104 87
q-36 63 -22 147t64 152t116 93q-53 23 -82 89t-14 146q20 120 133 212t334 92z" />
    <glyph glyph-name="logicalnot.tf" 
d="M174 545l31 166h975l-97 -545h-200l65 379h-774z" />
    <glyph glyph-name="plusminus.tf" 
d="M680 1264h182l-65 -365h366l-30 -182h-367l-66 -367h-180l66 367h-365l31 182h364zM1034 166l-30 -166h-910l31 166h909z" />
    <glyph glyph-name="multiply.tf" 
d="M301 797l143 123l228 -277l327 279l101 -123l-326 -279l227 -276l-145 -123l-227 276l-324 -274l-102 123l325 274z" />
    <glyph glyph-name="divide.tf" 
d="M1118 698l-31 -180h-886l32 180h885zM475 137l39 223h213l-39 -223h-213zM602 856l39 223h213l-39 -223h-213z" />
    <glyph glyph-name="florin.tf" 
d="M1150 1257q-48 1 -100 -29t-73 -85l-57 -164h215l-60 -162h-213q-111 -309 -226 -637t-138 -375q-50 -98 -148 -155q-98 -58 -188 -58t-137 25l55 154q28 -17 76 -17t102 31q53 31 72 84l334 948h-150l59 162h148q57 162 86 227q49 98 148 156t187 58q88 1 138 -23
l-55 -156q-27 16 -75 16z" />
    <glyph glyph-name="Euro.tf" 
d="M690 -23q-202 0 -322 128t-122 372h-166l24 135h697l-101 -135h-237q6 -307 262 -307q174 0 291 158l125 -144q-182 -207 -451 -207zM913 1241q-252 0 -374 -330h481l-98 -135h-789l25 135h164q88 250 251 386q164 136 375 137q274 0 373 -220l-176 -139
q-57 166 -232 166z" />
    <glyph glyph-name="minus.tf" 
d="M1130 786l-30 -174h-899l30 174h899z" />
    <glyph glyph-name="zero.zero.osf" horiz-adv-x="1220" 
d="M730 993q-144 0 -240 -114q-95 -115 -130 -312q-16 -100 -8 -178l580 498q-58 106 -202 106zM590 154q146 0 240 114t126 312q16 84 9 170l-578 -494q57 -102 203 -102zM764 1167q133 0 226 -52t133 -136q93 -194 44 -406q-41 -233 -185 -404q-74 -87 -184 -138t-243 -51
t-226 52t-133 136q-92 194 -44 405q41 231 185 405q73 87 183 138t244 51z" />
    <glyph glyph-name="zero.zero.tosf" horiz-adv-x="1220" 
d="M730 993q-144 0 -240 -114q-95 -115 -130 -312q-16 -100 -8 -178l580 498q-58 106 -202 106zM590 154q146 0 240 114t126 312q16 84 9 170l-578 -494q57 -102 203 -102zM764 1167q133 0 226 -52t133 -136q93 -194 44 -406q-41 -233 -185 -404q-74 -87 -184 -138t-243 -51
t-226 52t-133 136q-92 194 -44 405q41 231 185 405q73 87 183 138t244 51z" />
    <glyph glyph-name="arrowleft.ss08" horiz-adv-x="1517" 
d="M451 827l-41 -231h1116l-23 -123h-1116l-41 -231l-237 293z" />
    <glyph glyph-name="arrowright.ss08" horiz-adv-x="1517" 
d="M1235 596l41 231l240 -292l-345 -293l41 231h-1116l23 123h1116z" />
    <glyph glyph-name="arrowup.ss08" horiz-adv-x="1515" 
d="M836 1116h-232l344 291l242 -291h-232l-196 -1116h-123z" />
    <glyph glyph-name="arrowdown.ss08" horiz-adv-x="1517" 
d="M459 291h231l197 1116h123l-197 -1116h231l-344 -291z" />
    <glyph glyph-name="arrowboth.ss08" horiz-adv-x="2183" 
d="M451 827l-41 -231h1116l41 231l239 -292l-344 -293l41 231h-1116l-41 -231l-237 293z" />
    <glyph glyph-name="arrowleftup.ss08" horiz-adv-x="1517" 
d="M815 1024l-192 -162l651 -790l-103 -86l-651 788l-190 -164l73 414h412z" />
    <glyph glyph-name="arrowrightup.ss08" horiz-adv-x="1517" 
d="M1165 862l-135 162h412l-74 -414l-133 164l-926 -788l-73 86z" />
    <glyph glyph-name="arrowleftdown.ss08" horiz-adv-x="1515" 
d="M498 162l135 -162h-412l74 414l133 -164l928 788l71 -86z" />
    <glyph glyph-name="arrowrightdown.ss08" horiz-adv-x="1517" 
d="M848 0l192 162l-651 790l105 86l649 -788l190 164l-73 -414h-412z" />
    </font>
</defs>
</svg>
