<?xml version="1.0" standalone="no"?>
<!DOCTYPE svg PUBLIC "-//W3C//DTD SVG 1.1//EN" "http://www.w3.org/Graphics/SVG/1.1/DTD/svg11.dtd" >
<svg xmlns="http://www.w3.org/2000/svg">
<metadata>
Created by FontPrep 20130207 at Tue Sep  8 17:39:32 2015
 By Marcos Dopico Castro
Copyright (c) 201332015 by Marcos Dopico // MaisTypes. All rights reserved.
</metadata>
<defs>
<font id="3b655053c471ab64f0c140d000f72298" horiz-adv-x='1024' >
  <font-face 
    font-family="MaisGrotesk-SemiBoldItalic"
    font-weight="600"
    font-style="italic"
    font-stretch="normal"
    units-per-em="2048"
    panose-1="0 0 0 0 0 0 0 0 0 0"
    ascent="1536"
    descent="-512"
    x-height="1024"
    cap-height="1413"
    bbox="-492 -410 2479.45 2056"
    underline-thickness="102"
    underline-position="-102"
    unicode-range="U+0020-FB04"
  />
<missing-glyph horiz-adv-x="829" 
d="M539 735l151 -524l184 1051zM455 606l-320 -497h465zM356 1364l144 -498l321 498h-465zM418 735l-152 531l-186 -1059zM764 0h-827l258 1473h829z" />
    <glyph glyph-name="ellipsis" unicode="&#x2e;&#x2e;&#x2e;" horiz-adv-x="1423" 
d="M1008 0l47 256h262l-47 -256h-262zM567 0l47 256h263l-48 -256h-262zM125 0l47 256h262l-47 -256h-262z" />
    <glyph glyph-name="ff" unicode="ff" horiz-adv-x="1390" 
d="M721 1446q51 0 108 -10l-36 -209q-49 8 -82 8q-123 0 -144 -117l-16 -94h450l19 106q27 158 137 237q111 79 258 79q51 0 109 -10l-37 -209q-45 8 -80 8q-125 0 -145 -117l-15 -94h191l-37 -211h-193l-143 -813h-246l144 813h-449l-145 -813h-246l145 813h-155l39 211
h153l19 106q29 158 139 237q111 79 258 79z" />
    <glyph glyph-name="fi" unicode="fi" horiz-adv-x="1202" 
d="M1247 1413l-39 -225h-245l38 225h246zM721 1446q16 0 108 -10l-36 -209q-49 8 -82 8q-124 0 -144 -117l-16 -94h629l-183 -1024h-245l143 813h-381l-145 -813h-246l145 813h-155l39 211h153l19 106q29 158 139 237q111 79 258 79z" />
    <glyph glyph-name="fl" unicode="fl" horiz-adv-x="1275" 
d="M1155 199h23l-37 -203q-45 -8 -109 -8q-281 0 -233 276l98 549h-383l-143 -813h-246l143 813h-153l37 211h153l21 106q27 158 137 237q111 79 258 79q20 0 108 -10l-36 -209q-49 8 -82 8q-124 0 -144 -117l-16 -94h383l67 389h246l-196 -1120q-10 -57 12 -76
q23 -18 92 -18z" />
    <glyph glyph-name="ffi" unicode="ffi" horiz-adv-x="1898" 
d="M1659 1188l39 225h246l-39 -225h-246zM1380 1446q51 0 109 -10l-37 -209q-45 8 -80 8q-123 0 -145 -117l-15 -94h664l-182 -1024h-246l143 813h-417l-144 -813h-246l144 813h-414l-145 -813h-246l145 813h-155l39 211h153l19 106q29 158 139 237q111 79 258 79
q51 0 108 -10l-36 -209q-49 8 -82 8q-124 0 -144 -117l-16 -94h416l18 106q27 158 137 237q111 79 258 79z" />
    <glyph glyph-name="ffl" unicode="ffl" horiz-adv-x="1972" 
d="M1851 199h23l-37 -203q-45 -8 -108 -8q-281 0 -234 276l98 549h-417l-144 -813h-246l144 813h-416l-143 -813h-246l143 813h-153l37 211h153l21 106q27 158 137 237q111 79 258 79q51 0 108 -10l-36 -209q-49 8 -82 8q-123 0 -144 -117l-16 -94h416l18 106
q27 158 137 237q111 79 258 79q51 0 109 -10l-37 -209q-45 8 -80 8q-123 0 -143 -117l-17 -94h418l68 389h246l-197 -1120q-10 -57 12 -76q23 -18 92 -18z" />
    <glyph glyph-name="ft" unicode="ft" horiz-adv-x="1347" 
d="M1069 -10q-135 0 -212 81t-52 224l92 518h-383l-143 -813h-246l143 813h-153l37 211h153l23 127q49 293 372 293q59 0 129 -8l-34 -203h-84q-123 0 -142 -111l-18 -98h383l47 268l258 72l-59 -340h215l-37 -211h-215l-88 -496q-11 -55 25 -87t87 -32t65 4q14 3 17 3
l-35 -199q-82 -16 -145 -16z" />
    <glyph glyph-name="fj" unicode="fj" horiz-adv-x="1161" 
d="M981 1188l39 225h246l-39 -225h-246zM606 -184q131 0 150 110l157 887h-383l-143 -813h-246l144 813h-154l37 211h154l20 106q27 158 138 237q112 79 259 79q16 0 109 -10l-39 -209q-45 8 -80 8q-123 0 -143 -117l-19 -94h629l-201 -1143q-49 -281 -356 -280
q-82 0 -143 6l34 209h76z" />
    <glyph glyph-name="ffj" unicode="ffj" horiz-adv-x="1857" 
d="M1677 1188l39 225h246l-39 -225h-246zM1399 1446q47 0 108 -10l-37 -209q-45 8 -79 8q-123 0 -146 -117l-16 -94h663l-200 -1147q-23 -133 -128 -209t-231 -76q-72 0 -141 19l35 199q31 -6 79 -6t93 34q45 35 59 107l152 868h-418l-143 -813h-246l143 813h-416l-143 -813
h-246l144 813h-154l37 211h154l20 106q27 158 138 237q112 79 259 79q47 0 109 -10l-37 -209q-49 8 -82 8q-123 0 -143 -117l-19 -94h416l18 106q27 158 139 237t259 79z" />
    <glyph glyph-name="fft" unicode="fft" horiz-adv-x="2064" 
d="M1380 1446q51 0 109 -10l-37 -209q-41 8 -80 8q-123 0 -143 -117l-17 -94h418l47 268l258 72l-59 -340h195l-37 -211h-195l-92 -520q-11 -57 23 -81t92 -24t104 13l-35 -201q-75 -20 -197 -20t-194 63t-47 203l100 567h-417l-144 -813h-246l144 813h-416l-143 -813h-246
l143 813h-153l37 211h153l21 106q27 158 137 237q111 79 258 79q51 0 108 -10l-36 -209q-45 8 -82 8q-124 0 -144 -117l-16 -94h416l18 106q27 158 137 237q111 79 258 79z" />
    <glyph glyph-name=".notdef" horiz-adv-x="829" 
d="M539 735l151 -524l184 1051zM455 606l-320 -497h465zM356 1364l144 -498l321 498h-465zM418 735l-152 531l-186 -1059zM764 0h-827l258 1473h829z" />
    <glyph glyph-name=".null" horiz-adv-x="0" 
 />
    <glyph glyph-name="nonmarkingreturn" horiz-adv-x="681" 
 />
    <glyph glyph-name="space" unicode=" " horiz-adv-x="468" 
 />
    <glyph glyph-name="exclam" unicode="!" horiz-adv-x="649" 
d="M135 0l45 256h250l-43 -256h-252zM248 393l143 1041h242l-221 -1041h-164z" />
    <glyph glyph-name="quotedbl" unicode="&#x22;" horiz-adv-x="882" 
d="M580 864l96 553h215l-96 -553h-215zM190 864l97 553h215l-96 -553h-216z" />
    <glyph glyph-name="numbersign" unicode="#" horiz-adv-x="1355" 
d="M702 860l-163 -368h219l166 368h-222zM80 0l129 287h-152l35 205h205l164 368h-242l37 209h301l154 344h241l-155 -344h221l153 344h240l-160 -344h160l-37 -209h-217l-164 -368h254l-35 -205h-307l-131 -287h-233l129 287h-221l-130 -287h-239z" />
    <glyph glyph-name="dollar" unicode="$" horiz-adv-x="1370" 
d="M543 1051q-13 -74 25 -114t120 -67l62 353q-184 -29 -207 -172zM997 393q14 88 -31 134q-46 46 -149 75l-74 -414q221 23 254 205zM989 1579l-26 -152q389 -35 352 -395h-252q14 162 -137 189l-68 -394l78 -20q369 -94 317 -404q-33 -187 -179 -295t-365 -126l-27 -150
h-176l26 152q-223 22 -315 142t-72 306h254q-20 -203 170 -242l78 453q-205 49 -298 133t-62 256t157 276q127 103 342 119l27 152h176z" />
    <glyph glyph-name="percent" unicode="%" horiz-adv-x="1718" 
d="M1423 827q332 0 258 -424t-409 -423q-328 0 -254 424t405 423zM1395 674q-78 0 -123 -62t-71 -208t-3 -208q22 -62 100 -62t124 62t73 207q25 145 1 208t-101 63zM559 1393q336 0 256 -424q-71 -424 -403 -424t-260 424q79 424 407 424zM532 1239q-78 0 -122 -62
q-44 -61 -72 -207q-27 -146 -3 -208q25 -62 103 -64q78 0 123 62t71 208t2 208t-102 63zM1440 1485l112 -72l-1116 -1485l-112 72z" />
    <glyph glyph-name="ampersand" unicode="&#x26;" horiz-adv-x="1333" 
d="M637 627q-229 0 -270 -215q-33 -203 194 -203h295l74 418h-293zM510 0q-238 0 -335 98t-66 275q14 87 54 155q90 152 279 197q-84 29 -143 110t-33 233t161 249q134 96 333 96h250l-37 -211h-236q-98 0 -155 -53q-56 -53 -70 -128t22 -129t140 -54h293l34 192h246
l-35 -192h162l-37 -211h-161l-111 -627h-555z" />
    <glyph glyph-name="quotesingle" unicode="'" horiz-adv-x="493" 
d="M190 864l97 553h215l-96 -553h-216z" />
    <glyph glyph-name="parenleft" unicode="(" horiz-adv-x="614" 
d="M780 1413q-291 -395 -378 -881t69 -880h-235q-170 399 -85 879t394 882h235z" />
    <glyph glyph-name="parenright" unicode=")" horiz-adv-x="614" 
d="M-72 -348q289 401 375 882t-67 879h233q172 -399 87 -879t-396 -882h-232z" />
    <glyph glyph-name="asterisk" unicode="*" horiz-adv-x="999" 
d="M723 1413l-53 -203l198 80l23 -145l-205 -41l107 -154l-140 -90l-71 174l-136 -174l-104 90l160 154l-193 43l74 143l174 -80l14 203h152z" />
    <glyph glyph-name="plus" unicode="+" horiz-adv-x="1198" 
d="M645 1012h211l-65 -379h378l-36 -211h-379l-68 -379h-211l68 379h-379l37 211h379z" />
    <glyph glyph-name="comma" unicode="," horiz-adv-x="520" 
d="M449 256l-46 -256q-33 -88 -105 -162t-159 -121h-94q16 12 41 34t71 88t64 161h-80l45 256h263z" />
    <glyph glyph-name="hyphen" unicode="-" horiz-adv-x="817" 
d="M774 606l-37 -211h-608l37 211h608z" />
    <glyph glyph-name="period" unicode="." horiz-adv-x="452" 
d="M82 0l47 256h262l-47 -256h-262z" />
    <glyph glyph-name="slash" unicode="/" horiz-adv-x="784" 
d="M963 1413l-766 -1413h-242l764 1413h244z" />
    <glyph glyph-name="zero" unicode="0" horiz-adv-x="1230" 
d="M799 1393q438 0 438 -473q0 -263 -97 -503q-52 -126 -129 -221q-77 -96 -197 -156t-265 -60q-436 0 -436 471q0 267 97 502q52 127 129 223t196 156t264 61zM771 1182q-118 0 -200 -73t-124 -187q-82 -222 -82 -447q0 -137 47 -212t166 -75q300 0 386 479q19 111 19 235
t-47 202t-165 78z" />
    <glyph glyph-name="one" unicode="1" horiz-adv-x="788" 
d="M311 1153q176 0 211 199h246l-240 -1352h-245l168 944h-289l37 209h112z" />
    <glyph glyph-name="two" unicode="2" horiz-adv-x="1165" 
d="M737 1393q206 0 311 -88t105 -240q0 -95 -45 -193q-44 -98 -106 -174q-107 -133 -367 -320q-105 -75 -246 -169h643l-37 -209h-970l38 223q498 332 665 492q167 159 167 313t-176 154q-113 0 -172 -64t-90 -178h-252q49 219 187 336q139 117 345 117z" />
    <glyph glyph-name="three" unicode="3" horiz-adv-x="1105" 
d="M584 631h-168l37 209l329 301h-510l37 211h819l-36 -211l-373 -301q160 0 261 -106q100 -106 66 -308q-34 -201 -192 -324q-158 -122 -371 -122t-337 102t-101 295h252q-8 -94 51 -141q59 -48 170 -48q110 0 182 60t91 158q39 225 -207 225z" />
    <glyph glyph-name="four" unicode="4" horiz-adv-x="1169" 
d="M727 547l80 442l-451 -442h371zM877 0h-246l59 336h-657l37 213l800 803h246l-143 -805h201l-37 -211h-201z" />
    <glyph glyph-name="five" unicode="5" horiz-adv-x="1142" 
d="M746 881q178 0 276 -117t61 -326t-201 -334q-164 -124 -370 -124t-318 98t-90 297h252q-10 -88 44 -137q54 -50 158 -50t178 69t93 173q43 240 -192 240q-117 0 -195 -82q-19 -19 -34 -45l-230 90l207 719h784l-36 -211h-578l-117 -379q130 119 308 119z" />
    <glyph glyph-name="six" unicode="6" 
d="M600 188q121 0 205 86t84 215q0 188 -205 189q-70 0 -130 -31q-93 -48 -150 -154q-19 -38 -23 -61q-10 -112 44 -178t175 -66zM780 872q162 0 264 -82t103 -258q0 -231 -168 -392t-418 -160q-432 0 -432 432q0 267 96 511q53 132 129 235t195 169t262 66q211 -1 312 -105
t83 -264h-243q4 158 -189 158q-291 0 -373 -484q146 174 379 174z" />
    <glyph glyph-name="seven" unicode="7" horiz-adv-x="1030" 
d="M1120 1352l-37 -211l-710 -1141h-248l719 1141h-682l37 211h921z" />
    <glyph glyph-name="eight" unicode="8" horiz-adv-x="1226" 
d="M696 834q84 0 153 45t84 135t-40 129t-133 39t-147 -39t-85 -131t34 -135t134 -43zM585 188q105 0 193 52t108 164q20 110 -46 164t-178 54t-198 -54q-84 -54 -104 -165t50 -163t175 -52zM401 729q-72 43 -106 119q-35 76 -19 172q29 170 170 271q140 101 352 101
t315 -102q103 -104 73 -270q-16 -94 -78 -171t-145 -120q215 -106 176 -334q-37 -195 -200 -305t-397 -110t-354 108q-119 108 -82 307q41 236 295 334z" />
    <glyph glyph-name="nine" unicode="9" horiz-adv-x="1214" 
d="M736 1180q-124 0 -208 -82t-84 -209q-2 -82 48 -129t137 -47q164 0 244 99q66 81 75 132q8 98 -40 167t-172 69zM569 518q-164 0 -270 82t-106 242q0 231 166 391q167 160 415 160q428 0 428 -445q0 -331 -152 -631q-77 -149 -216 -243t-334 -94t-292 102t-83 258h248
q0 -70 46 -109t134 -38q297 0 375 493q-142 -168 -359 -168z" />
    <glyph glyph-name="colon" unicode=":" horiz-adv-x="452" 
d="M217 768l47 256h262l-47 -256h-262zM82 0l47 256h262l-47 -256h-262z" />
    <glyph glyph-name="semicolon" unicode=";" horiz-adv-x="520" 
d="M254 768l47 256h262l-47 -256h-262zM449 256l-46 -256q-33 -88 -105 -162t-159 -121h-94q16 12 41 34t71 88t64 161h-80l45 256h263z" />
    <glyph glyph-name="less" unicode="&#x3c;" horiz-adv-x="1198" 
d="M1051 57l-858 387l28 166l998 387l-45 -245l-676 -226l596 -225z" />
    <glyph glyph-name="equal" unicode="=" horiz-adv-x="1173" 
d="M139 373l37 209h905l-37 -209h-905zM207 768l39 211h907l-39 -211h-907z" />
    <glyph glyph-name="greater" unicode="&#x3e;" horiz-adv-x="1198" 
d="M291 997l858 -387l-29 -168l-997 -387l45 246l676 225l-596 226z" />
    <glyph glyph-name="question" unicode="?" horiz-adv-x="1146" 
d="M354 0l43 256h252l-45 -256h-250zM766 1434q205 0 299 -104t62 -277q-32 -174 -220 -312q-115 -85 -164 -151t-71 -197h-246q20 123 64 212t83 130t109 97t98 78q28 24 58 66q31 42 42 102t-32 102q-43 43 -139 43q-97 1 -159 -55t-77 -130h-248q26 140 152 259
q63 61 165 99t224 38z" />
    <glyph glyph-name="at" unicode="@" horiz-adv-x="1998" 
d="M1341 1581q379 0 555 -223t113 -578q-51 -293 -224 -472t-415 -179q-129 0 -181 51t-46 127q0 20 6 41q-145 -141 -303 -141q-322 0 -266 334q41 223 197 398q157 175 368 175q182 0 221 -137l39 113h209l-238 -674q-39 -111 66 -111q98 0 179 79q142 138 187 402
q27 117 8 228q-20 110 -72 196t-164 140t-284 53q-172 0 -346 -75q-320 -139 -499 -470q-82 -150 -111 -303q-47 -279 92 -443t426 -163q215 0 416 102l-68 -211q-201 -72 -418 -71q-342 1 -536 205t-131 569q35 201 141 387t263 332t371 232q214 87 445 87zM936 387
q131 1 222 105t116 243q33 199 -135 199q-129 0 -217 -109t-111 -245q-35 -193 125 -193z" />
    <glyph glyph-name="A" unicode="A" horiz-adv-x="1370" 
d="M821 1116l-309 -596h410zM1001 1413l271 -1413h-254l-51 279h-584l-154 -279h-256l768 1413h260z" />
    <glyph glyph-name="B" unicode="B" horiz-adv-x="1347" 
d="M862 831q94 0 150 67q55 67 55 161q0 143 -137 143h-361l-67 -371h360zM772 209q100 0 166 75t66 181q0 156 -160 156h-379l-72 -412h379zM1001 1413q145 0 237 -74t91 -216q0 -142 -82 -250t-221 -152q164 -29 208 -138q22 -52 21 -126q0 -195 -140 -326t-363 -131h-641
l249 1413h641z" />
    <glyph glyph-name="C" unicode="C" horiz-adv-x="1468" 
d="M971 1434q262 0 394 -138t130 -346h-254q-2 125 -78 199t-219 74q-143 1 -251 -59t-168 -158q-122 -199 -122 -443q0 -375 338 -375q172 0 278 88q105 88 157 220h256q-82 -224 -264 -370t-450 -146q-267 0 -418 143q-150 143 -150 420t133 499q147 248 394 340
q136 52 294 52z" />
    <glyph glyph-name="D" unicode="D" horiz-adv-x="1452" 
d="M895 1413q296 0 424 -149q111 -129 111 -383q0 -355 -191 -609q-94 -124 -248 -198t-346 -74h-534l249 1413h535zM662 209q168 0 286 97q222 182 223 544q0 190 -81 271q-82 81 -252 81h-269l-176 -993h269z" />
    <glyph glyph-name="E" unicode="E" horiz-adv-x="1214" 
d="M1315 1413l-37 -211h-705l-65 -371h582l-37 -208h-582l-74 -414h705l-37 -209h-954l249 1413h955z" />
    <glyph glyph-name="F" unicode="F" horiz-adv-x="1167" 
d="M1309 1413l-37 -211h-703l-71 -399h643l-37 -209h-643l-105 -594h-245l249 1413h949z" />
    <glyph glyph-name="G" unicode="G" horiz-adv-x="1566" 
d="M991 1434q255 0 401 -130t144 -354h-252q-8 121 -85 197t-241 76q-262 0 -408 -195t-147 -465q0 -375 357 -375q182 0 299 92t164 244h-367l37 211h618l-129 -735h-196l2 184q-174 -205 -477 -204q-258 0 -410 142t-151 421q0 169 58 327t162 284t267 203q162 77 354 77z
" />
    <glyph glyph-name="H" unicode="H" horiz-adv-x="1468" 
d="M1481 1413l-250 -1413h-246l109 618h-629l-109 -618h-245l249 1413h246l-104 -586h628l105 586h246z" />
    <glyph glyph-name="I" unicode="I" horiz-adv-x="593" 
d="M356 0h-245l249 1413h246z" />
    <glyph glyph-name="J" unicode="J" horiz-adv-x="1214" 
d="M494 -20q-450 0 -449 391q0 53 10 102h246q-8 -66 -8 -92q0 -193 219 -193q262 0 311 287l166 938h246l-160 -913q-45 -254 -199 -387t-382 -133z" />
    <glyph glyph-name="K" unicode="K" horiz-adv-x="1374" 
d="M1446 1413l-547 -518l393 -895h-268l-313 723l-271 -264l-82 -459h-247l249 1413h248l-112 -627l622 627h328z" />
    <glyph glyph-name="L" unicode="L" horiz-adv-x="1138" 
d="M393 209h666l-37 -209h-911l249 1413h246z" />
    <glyph glyph-name="M" unicode="M" horiz-adv-x="1816" 
d="M1452 1413h377l-250 -1413h-246l195 1085l-553 -1085h-252l-170 1098l-197 -1098h-245l249 1413h392l153 -1102z" />
    <glyph glyph-name="N" unicode="N" horiz-adv-x="1529" 
d="M1542 1413l-250 -1413h-280l-469 1063l-187 -1063h-245l249 1413h302l452 -1032l182 1032h246z" />
    <glyph glyph-name="O" unicode="O" horiz-adv-x="1572" 
d="M1544 866q0 -343 -209 -606q-100 -127 -262 -204t-358 -76q-266 0 -416 140q-149 140 -149 419t136 503q147 246 399 340q136 51 296 52q267 0 415 -142t148 -426zM948 1223q-134 -1 -242 -59q-188 -102 -269 -363q-34 -113 -34 -234q0 -379 340 -379q177 0 307 100
q242 186 242 550q0 385 -344 385z" />
    <glyph glyph-name="P" unicode="P" horiz-adv-x="1271" 
d="M948 1413q168 0 270 -82t101 -260q0 -239 -141 -391t-385 -152h-340l-95 -528h-247l249 1413h588zM809 739q115 0 183 79t69 206q0 178 -170 178h-318l-81 -463h317z" />
    <glyph glyph-name="Q" unicode="Q" horiz-adv-x="1572" 
d="M948 1223q-134 -1 -242 -59q-188 -102 -269 -363q-34 -113 -34 -234q0 -379 340 -379q84 0 156 33l-133 230l211 127l137 -236q178 186 178 496q0 385 -344 385zM715 -20q-266 0 -416 140q-149 140 -149 419t136 503q147 246 399 340q136 51 296 52q267 0 415 -142
t148 -426q0 -207 -82 -398t-235 -316l106 -179l-213 -127l-110 189q-139 -55 -295 -55z" />
    <glyph glyph-name="R" unicode="R" horiz-adv-x="1320" 
d="M825 770q121 0 192 76t70 196q0 78 -39 119q-40 41 -139 41h-338l-75 -432h329zM977 1413q367 0 366 -334q0 -170 -93 -310t-267 -185l186 -584h-258l-176 561h-276l-99 -561h-249l249 1413h617z" />
    <glyph glyph-name="S" unicode="S" horiz-adv-x="1327" 
d="M821 1231q-127 0 -217 -52t-90 -167q4 -85 84 -118t177 -55q96 -21 134 -32q150 -41 238 -115t88 -222t-94 -264q-95 -116 -237 -171t-306 -55q-272 0 -386 124t-91 328h254q-12 -114 47 -182q58 -68 206 -68t248 62t99 194q0 101 -130 148q-77 26 -220 57t-258 98
q-115 68 -115 226q0 219 176 343t438 124t351 -120t73 -282h-252q6 98 -42 148t-175 51z" />
    <glyph glyph-name="T" unicode="T" horiz-adv-x="1173" 
d="M1307 1413l-37 -211h-412l-213 -1202h-246l213 1202h-411l37 211h1069z" />
    <glyph glyph-name="U" unicode="U" horiz-adv-x="1435" 
d="M672 -20q-248 0 -368 99t-126 271q-4 63 8 127l166 936h246l-170 -960q-4 -20 -4 -62q0 -203 264 -203q307 0 354 265l168 960h246l-164 -936q-39 -227 -206 -362q-166 -135 -414 -135z" />
    <glyph glyph-name="V" unicode="V" horiz-adv-x="1337" 
d="M1489 1413l-758 -1413h-248l-262 1413h250l182 -1161l578 1161h258z" />
    <glyph glyph-name="W" unicode="W" horiz-adv-x="1898" 
d="M2050 1413l-651 -1413h-238l-82 1061l-465 -1061h-245l-148 1413h246l88 -1067l463 1067h246l82 -1067l454 1067h250z" />
    <glyph glyph-name="X" unicode="X" horiz-adv-x="1331" 
d="M1446 1413l-582 -680l369 -733h-293l-242 551l-446 -551h-279l641 743l-333 670h292l207 -491l385 491h281z" />
    <glyph glyph-name="Y" unicode="Y" horiz-adv-x="1269" 
d="M444 0l99 547l-322 866h262l222 -649l436 649h280l-630 -866l-95 -547h-252z" />
    <glyph glyph-name="Z" unicode="Z" horiz-adv-x="1245" 
d="M1360 1413l-37 -211l-991 -993h817l-37 -209h-1106l37 209l985 993h-786l37 211h1081z" />
    <glyph glyph-name="bracketleft" unicode="[" horiz-adv-x="636" 
d="M12 -348l310 1761h462l-36 -211h-218l-235 -1341h217l-37 -209h-463z" />
    <glyph glyph-name="backslash" unicode="\" horiz-adv-x="780" 
d="M459 0l-264 1413h243l264 -1413h-243z" />
    <glyph glyph-name="bracketright" unicode="]" horiz-adv-x="636" 
d="M715 1413l-309 -1761h-461l37 209h215l235 1341h-217l37 211h463z" />
    <glyph glyph-name="asciicircum" unicode="^" horiz-adv-x="1378" 
d="M946 1407l328 -793h-260l-211 560l-408 -560h-256l606 793h201z" />
    <glyph glyph-name="underscore" unicode="_" horiz-adv-x="974" 
d="M-25 -250l17 103h973l-17 -103h-973z" />
    <glyph glyph-name="grave" unicode="`" horiz-adv-x="702" 
d="M281 1413h286l90 -266h-198z" />
    <glyph glyph-name="a" unicode="a" 
d="M549 188q113 0 191 72q135 125 133 349q-1 224 -199 225q-109 0 -184 -72q-132 -127 -132 -350q0 -224 191 -224zM453 -20q-164 0 -258 98q-95 98 -95 276t60 330q60 150 188 255q127 105 293 105q211 0 287 -170l61 150h211l-180 -1024h-209l-2 152q-145 -172 -356 -172
z" />
    <glyph glyph-name="b" unicode="b" 
d="M602 188q156 0 239 136t79 292q-4 217 -191 218q-109 0 -187 -70q-146 -132 -140 -354q5 -222 200 -222zM823 1044q162 0 256 -101q95 -101 95 -296t-91 -374t-254 -253q-90 -41 -194 -40q-215 0 -293 172l-55 -152h-209l248 1413h245l-94 -539q133 170 346 170z" />
    <glyph glyph-name="c" unicode="c" horiz-adv-x="1144" 
d="M899 649v13q-2 72 -46 122t-140 50q-156 0 -248 -123t-92 -283q0 -240 229 -240q188 0 254 168h252q-52 -168 -192 -272t-355 -104t-329 108t-113 313q0 263 171 453t455 190q209 0 307 -102t99 -258q0 -27 -2 -35h-250z" />
    <glyph glyph-name="d" unicode="d" 
d="M549 188q113 0 191 72q135 125 133 349q-1 224 -199 225q-109 0 -184 -72q-132 -127 -132 -350q0 -224 191 -224zM453 -20q-164 0 -258 98q-95 98 -95 276t60 330q60 150 188 255q127 105 293 105q211 0 287 -170l94 539h246l-248 -1413h-209l-2 152q-145 -172 -356 -172
z" />
    <glyph glyph-name="e" unicode="e" horiz-adv-x="1179" 
d="M706 846q-100 0 -178 -62t-112 -163h489q2 20 2 47q0 74 -50 126t-151 52zM119 389q0 254 172 455t444 200q188 0 301 -104t113 -299q0 -68 -23 -188h-749q-4 -20 -4 -62q0 -96 54 -155q55 -60 153 -60t162 41t94 96h256q-80 -172 -222 -253q-142 -80 -328 -80t-304 104
t-119 305z" />
    <glyph glyph-name="f" unicode="f" horiz-adv-x="696" 
d="M721 1446q51 0 108 -10l-36 -209q-49 8 -82 8q-124 0 -144 -117l-16 -94h192l-38 -211h-191l-145 -813h-246l145 813h-155l39 211h153l19 106q29 158 139 237q111 79 258 79z" />
    <glyph glyph-name="g" unicode="g" horiz-adv-x="1126" 
d="M700 834q-100 0 -158 -46t-59 -116q0 -113 152 -113q92 0 158 42t65 118q0 115 -158 115zM823 -90q0 96 -208 96q-83 0 -205 12q-47 -6 -85 -40t-38 -86q0 -104 245 -105q291 0 291 123zM1114 760q0 -186 -150 -299t-346 -113q-102 0 -157 25q-68 -23 -67 -70t52 -66
t183 -25t275 -43q77 -19 127 -77t50 -166q0 -106 -85 -187q-156 -149 -507 -149q-461 0 -460 252q0 90 58 160t149 102q-100 52 -100 138t55 139q56 53 135 72q-96 70 -97 202q-1 181 141 285t357 104q137 0 219 -47q53 148 305 148l-37 -209q-66 0 -92 -10t-47 -39
q39 -53 39 -127z" />
    <glyph glyph-name="h" unicode="h" horiz-adv-x="1200" 
d="M866 1044q281 0 273 -294q0 -41 -13 -127l-110 -623h-246l104 596q8 43 9 92q0 145 -144 146q-117 0 -210 -88t-119 -240l-88 -506h-246l250 1413h245l-98 -555q168 186 393 186z" />
    <glyph glyph-name="i" unicode="i" horiz-adv-x="524" 
d="M571 1413l-39 -225h-245l39 225h245zM322 0h-246l180 1024h246z" />
    <glyph glyph-name="j" unicode="j" horiz-adv-x="479" 
d="M299 1188l39 225h246l-39 -225h-246zM76 -74l194 1098h246l-194 -1110q-29 -156 -140 -235t-258 -78q-33 0 -106 8l37 211q57 -10 79 -10q122 -1 142 116z" />
    <glyph glyph-name="k" unicode="k" horiz-adv-x="1155" 
d="M571 1413l-143 -809l412 420h325l-422 -408l332 -616h-284l-232 442l-192 -186l-45 -256h-246l250 1413h245z" />
    <glyph glyph-name="l" unicode="l" horiz-adv-x="598" 
d="M477 199h23l-35 -203q-45 -8 -111 -8q-281 0 -231 276l203 1149h245l-198 -1120q-8 -57 13 -76q22 -18 91 -18z" />
    <glyph glyph-name="m" unicode="m" horiz-adv-x="1792" 
d="M1501 1044q303 0 234 -419l-111 -625h-246l105 596q10 62 10 116t-31 88t-94 34q-106 0 -189 -92t-110 -246l-88 -496h-246l105 596q43 238 -115 238q-106 0 -189 -92t-110 -246l-88 -496h-246l180 1024h207l-2 -178q170 199 375 198q225 0 254 -221q159 221 395 221z
" />
    <glyph glyph-name="n" unicode="n" horiz-adv-x="1200" 
d="M885 1044q270 0 270 -278q0 -74 -12 -143l-111 -623h-246l105 596q8 41 8 90q0 147 -145 148q-121 0 -211 -90t-117 -248l-88 -496h-246l180 1024h207l-2 -180q166 200 408 200z" />
    <glyph glyph-name="o" unicode="o" horiz-adv-x="1226" 
d="M752 1044q212 0 328 -114t116 -320q0 -262 -172 -446t-455 -184q-209 0 -329 108t-121 315q0 251 166 443q78 90 200 144t267 54zM727 834q-168 0 -261 -128t-93 -290q0 -227 215 -228q170 0 261 123t91 287q0 236 -213 236z" />
    <glyph glyph-name="p" unicode="p" 
d="M752 834q-121 0 -200 -83t-107 -237q-27 -154 23 -240t171 -86t198 84t105 239t-21 239q-48 84 -169 84zM847 1044q204 0 299 -135t50 -391t-189 -397t-347 -141t-279 167l-94 -536h-246l250 1413h209l2 -152q141 172 345 172z" />
    <glyph glyph-name="q" unicode="q" 
d="M704 834q-120 0 -198 -84t-106 -239t20 -239t169 -84q122 0 201 86t107 240q29 154 -21 237q-51 83 -172 83zM683 1044q204 0 286 -172l55 152h209l-250 -1413h-246l94 536q-133 -167 -336 -167t-297 141t-51 397q45 256 189 391t347 135z" />
    <glyph glyph-name="r" unicode="r" horiz-adv-x="804" 
d="M813 1034q63 0 109 -12l-39 -217q-47 18 -121 18q-137 0 -222 -84t-114 -237l-88 -502h-246l180 1024h209l-6 -193q137 203 338 203z" />
    <glyph glyph-name="s" unicode="s" horiz-adv-x="1060" 
d="M520 176q84 0 147 30q62 30 62 99t-66 91t-137 31t-94 13q-115 20 -178 74t-64 168q0 168 140 265t328 97t279 -86t91 -221q0 -18 -2 -30h-244v8q0 131 -149 131q-84 0 -135 -36t-49 -95q0 -31 13 -44l21 -21q7 -7 25 -12t55 -17t144 -23q135 -25 207 -76t73 -178
q0 -172 -143 -268q-144 -96 -358 -96t-302 86t-88 210q0 27 2 41h246l-2 -18q0 -57 47 -90t131 -33z" />
    <glyph glyph-name="t" unicode="t" horiz-adv-x="747" 
d="M426 -20q-114 0 -184 48t-70 152q0 29 6 66l101 567h-142l39 211h139l50 268l258 72l-62 -340h197l-39 -211h-195l-92 -520q-2 -12 -2 -29q0 -76 125 -76q49 1 98 13l-37 -201q-76 -20 -190 -20z" />
    <glyph glyph-name="u" unicode="u" horiz-adv-x="1169" 
d="M399 -20q-324 0 -249 417l110 627h246l-105 -592q-20 -121 6 -182q26 -62 131 -62t194 92t116 248l88 496h246l-181 -1024h-206v178q-167 -198 -396 -198z" />
    <glyph glyph-name="v" unicode="v" horiz-adv-x="1120" 
d="M1229 1024l-592 -1024h-250l-225 1024h250l143 -795l416 795h258z" />
    <glyph glyph-name="w" unicode="w" horiz-adv-x="1536" 
d="M1645 1024l-490 -1024h-248l-51 735l-315 -735h-256l-123 1024h246l57 -748l317 748h250l53 -748l310 748h250z" />
    <glyph glyph-name="x" unicode="x" horiz-adv-x="1079" 
d="M1151 1024l-426 -489l291 -535h-289l-172 371l-322 -371h-262l494 541l-262 483h289l141 -313l254 313h264z" />
    <glyph glyph-name="y" unicode="y" horiz-adv-x="1054" 
d="M166 -408h-131l37 211h90q72 0 112 30t84 116l54 100l-234 975h260l133 -715l375 715h234l-674 -1233q-115 -199 -340 -199z" />
    <glyph glyph-name="z" unicode="z" horiz-adv-x="1003" 
d="M1061 1024l-37 -211l-668 -604h588l-39 -209h-901l39 209l666 604h-539l37 211h854z" />
    <glyph glyph-name="braceleft" unicode="{" horiz-adv-x="763" 
d="M848 1202q-72 0 -113 -36t-57 -126l-57 -313q-25 -141 -138 -195q94 -57 70 -194l-61 -344q-23 -133 120 -133h27l-37 -209h-37q-195 0 -275 68t-50 235l59 340q12 65 -23 99t-126 34l36 209q174 0 197 133l59 340q30 168 134 236t298 67h37l-37 -211h-26z" />
    <glyph glyph-name="bar" unicode="|" horiz-adv-x="663" 
d="M100 -348l310 1761h245l-309 -1761h-246z" />
    <glyph glyph-name="braceright" unicode="}" horiz-adv-x="763" 
d="M8 -139q141 0 164 133l61 344q25 137 138 194q-94 53 -70 195l57 313q16 90 -13 126q-30 36 -101 36h-29l37 211h39q195 1 275 -67t48 -236l-59 -340q-12 -66 23 -100t129 -33l-37 -209q-179 0 -199 -133l-59 -340q-29 -168 -132 -236t-296 -67h-39l37 209h26z" />
    <glyph glyph-name="asciitilde" unicode="~" horiz-adv-x="997" 
d="M672 506q-66 0 -138 44t-113 44q-40 0 -64 -26t-29 -62h-158q43 250 266 250q68 0 142 -44t108 -44q76 0 94 88h158q-47 -250 -266 -250z" />
    <glyph glyph-name="exclamdown" unicode="&#xa1;" horiz-adv-x="649" 
d="M104 -389l220 1020h163l-141 -1020h-242zM305 768l45 256h252l-47 -256h-250z" />
    <glyph glyph-name="cent" unicode="&#xa2;" horiz-adv-x="1157" 
d="M706 1038q-114 0 -199 -83t-114 -241t31 -240q60 -81 182 -81q199 0 260 168h250q-53 -158 -178 -261t-328 -116l-32 -184h-105l33 186q-211 18 -309 158q-97 140 -57 370t188 371t366 162l29 162h102l-26 -162q195 -11 283 -125t75 -268h-250q4 76 -42 130
q-45 54 -159 54z" />
    <glyph glyph-name="sterling" unicode="&#xa3;" horiz-adv-x="1198" 
d="M844 1413q422 0 356 -383h-260q16 92 -21 126q-38 34 -111 34q-161 0 -190 -150l-53 -311h336l-33 -192h-338l-28 -168q-23 -113 -109 -148h398q75 2 107 42t44 108h258q-12 -70 -32 -123q-20 -54 -66 -116q-95 -133 -330 -132h-768l39 221q174 0 197 144l30 172h-170
l35 192h170l55 311q21 129 124 241q54 58 148 95t212 37z" />
    <glyph glyph-name="currency" unicode="&#xa4;" horiz-adv-x="1198" 
d="M576 -6q-166 0 -275 90l-192 -164l-113 137l190 164q-68 135 -36 291q25 158 139 291l-133 164l161 137l136 -164q145 90 306 90t275 -90l193 164l114 -137l-192 -164q63 -129 39 -291q-33 -164 -141 -291l135 -164l-164 -137l-135 164q-141 -90 -307 -90zM611 190
q134 0 245 96q112 96 134 227q22 132 -57 225t-210 93t-243 -94t-132 -225q-25 -130 52 -226t211 -96z" />
    <glyph glyph-name="yen" unicode="&#xa5;" horiz-adv-x="1198" 
d="M1446 1413l-526 -725h249l-26 -151h-330l-25 -148h328l-26 -151h-330l-41 -238h-246l41 238h-340l27 151h340l26 148h-340l27 151h260l-268 725h278l215 -655l445 655h262z" />
    <glyph glyph-name="brokenbar" unicode="&#xa6;" horiz-adv-x="526" 
d="M33 -348l131 749h246l-131 -749h-246zM209 664l133 749h246l-133 -749h-246z" />
    <glyph glyph-name="section" unicode="&#xa7;" horiz-adv-x="1064" 
d="M778 645q8 19 2 37t-8 32t-15 24q-13 12 -21 20q-27 27 -130 41q-14 2 -36 6l-33 6q-41 -12 -78 -49t-47 -87t3 -85t99 -64q29 -9 152 -30q89 34 112 149zM716 1434q216 0 297 -98t70 -240h-245q4 66 -35 102t-125 37q-154 0 -170 -111q-8 -46 20 -72t64 -34
q35 -8 81 -16t52 -8q6 -1 16 -2t19 -3q147 -25 225 -88t53 -209q-16 -94 -69 -158t-121 -94q55 -25 87 -87q31 -62 15 -157t-70 -162t-131 -99q-140 -58 -298 -58q-227 0 -311 94q-83 94 -72 244h247q-2 -69 38 -105t145 -36q178 0 198 110q8 53 -15 72q-23 20 -47 33
t-108 27q-85 14 -123 22q-279 57 -237 287q16 89 76 157t131 99q-55 27 -95 93t-26 148q24 124 136 218t328 94z" />
    <glyph glyph-name="dieresis" unicode="&#xa8;" horiz-adv-x="1099" 
d="M307 1188l41 225h252l-41 -225h-252zM727 1188l41 225h252l-41 -225h-252z" />
    <glyph glyph-name="copyright" unicode="&#xa9;" horiz-adv-x="1507" 
d="M1069 842q5 141 -189 141q-96 0 -168 -74t-97 -207q-25 -134 23 -206t157 -72q184 0 233 162h146q-48 -141 -154 -216t-261 -75t-239 106t-50 300t156 303t289 108q83 0 143 -25t90 -57q63 -68 69 -188h-148zM739 145q231 0 424 164q193 163 234 395t-94 395t-367 163
t-422 -163q-192 -163 -233 -394t93 -395t365 -165zM956 1425q288 1 460 -189t143 -466q-10 -129 -58 -242q-96 -240 -318 -394t-474 -152q-301 0 -475 212q-172 212 -120 510t303 510q251 211 539 211z" />
    <glyph glyph-name="ordfeminine" unicode="&#xaa;" horiz-adv-x="724" 
d="M392 823q54 0 115 35q60 35 75 109l8 49l-96 -15q-182 -25 -195 -108q-5 -37 17 -53t76 -17zM541 1423q301 0 250 -295l-76 -436h-148l-8 92q-98 -106 -246 -106q-98 0 -158 47t-42 149q39 209 397 250l100 13l8 39q6 46 -18 74t-88 28q-115 0 -139 -94h-183
q77 239 351 239z" />
    <glyph glyph-name="guillemotleft" unicode="&#xab;" horiz-adv-x="1251" 
d="M1257 965l-403 -449l244 -455h-240l-242 455l402 449h239zM803 965l-404 -449l244 -455h-240l-241 455l401 449h240z" />
    <glyph glyph-name="logicalnot" unicode="&#xac;" horiz-adv-x="1198" 
d="M172 518l35 199h987l-98 -555h-242l64 356h-746z" />
    <glyph glyph-name="registered" unicode="&#xae;" horiz-adv-x="1507" 
d="M967 1425q299 0 472 -213t120 -513t-303 -510q-250 -209 -550 -209q-298 0 -472 211q-172 212 -120 512t303 511t550 211zM739 145q231 0 424 164q193 163 234 395t-94 395t-367 163t-422 -163q-192 -163 -233 -394t93 -395t365 -165zM958 1098q161 0 199 -128
q14 -48 -1 -132t-84 -146t-154 -71l161 -312h-161l-144 307h-100l-53 -307h-146l139 789h344zM877 745q115 0 137 111q20 111 -99 111h-178l-41 -222h181z" />
    <glyph glyph-name="macron" unicode="&#xaf;" horiz-adv-x="1013" 
d="M942 1397l-35 -197h-608l33 197h610z" />
    <glyph glyph-name="degree" unicode="&#xb0;" horiz-adv-x="843" 
d="M658 1503q112 0 178 -79q66 -78 46 -190t-114 -190q-92 -78 -204 -78t-176 78t-46 190q20 112 112 190t204 79zM588 1096q57 0 105 41t57 98q10 57 -23 98t-90 41t-105 -41t-58 -98q-9 -57 24 -98t90 -41z" />
    <glyph glyph-name="plusminus" unicode="&#xb1;" horiz-adv-x="1198" 
d="M680 1335h219l-61 -358h358l-37 -221h-360l-64 -365h-221l64 365h-357l37 221h358zM1059 199l-35 -199h-936l35 199h936z" />
    <glyph glyph-name="twosuperior" unicode="&#xb2;" horiz-adv-x="710" 
d="M512 1516q137 0 202 -70q66 -70 48 -172t-112 -198t-308 -242h354l-26 -154h-598l28 164q274 172 368 259q93 87 105 152q18 106 -84 107q-100 0 -127 -127h-184q60 281 334 281z" />
    <glyph glyph-name="threesuperior" unicode="&#xb3;" horiz-adv-x="679" 
d="M383 825q121 0 137 107q18 106 -104 106h-111l27 154l164 149h-277l29 154h504l-29 -154l-197 -149q80 0 140 -64t41 -186q-25 -125 -123 -198q-98 -72 -224 -72t-206 63t-66 183h184q-4 -47 29 -70t82 -23z" />
    <glyph glyph-name="acute" unicode="&#xb4;" horiz-adv-x="989" 
d="M569 1413h287l-270 -266h-199z" />
    <glyph glyph-name="mu" unicode="&#xb5;" horiz-adv-x="1185" 
d="M475 -20q-82 0 -131 36l-72 -405h-245l249 1413h246l-106 -604q-25 -129 4 -180t115 -52q123 0 211 83t110 208l96 545h246l-180 -1024h-207l-4 160q-145 -180 -332 -180z" />
    <glyph glyph-name="paragraph" unicode="&#xb6;" horiz-adv-x="1388" 
d="M756 1407h706l-288 -1638h-246l254 1427h-215l-254 -1427h-246l141 788q-176 0 -280 125t-73 300q32 175 178 300t323 125z" />
    <glyph glyph-name="periodcentered" unicode="&#xb7;" horiz-adv-x="452" 
d="M115 362l45 256h262l-45 -256h-262z" />
    <glyph glyph-name="cedilla" unicode="&#xb8;" horiz-adv-x="843" 
d="M350 -293q72 0 80 49q6 35 -18 48q-45 23 -156 8l127 188h117l-60 -84q94 0 131 -44t25 -115t-72 -119t-162 -48q-104 0 -186 41l21 121q81 -45 153 -45z" />
    <glyph glyph-name="onesuperior" unicode="&#xb9;" horiz-adv-x="512" 
d="M254 1368q106 0 127 127h180l-143 -811h-180l96 533h-182l26 151h76z" />
    <glyph glyph-name="ordmasculine" unicode="&#xba;" horiz-adv-x="786" 
d="M586 1421q172 0 252 -96t48 -276q-32 -181 -146 -277t-286 -96t-256 97t-54 275t150 275q120 98 292 98zM553 1266q-182 0 -223 -219q-35 -215 147 -216q182 0 221 216q37 219 -145 219z" />
    <glyph glyph-name="guillemotright" unicode="&#xbb;" horiz-adv-x="1234" 
d="M928 516l-246 449h240l241 -449l-401 -455h-240zM487 516l-245 449h239l242 -449l-401 -455h-240z" />
    <glyph glyph-name="onequarter" unicode="&#xbc;" horiz-adv-x="1521" 
d="M1243 1485l113 -72l-1116 -1485l-113 72zM219 1368q106 0 127 127h180l-143 -811h-180l96 533h-182l26 151h76zM1219 348l36 201l-208 -201h172zM1337 0h-178l33 195h-383l29 155l465 461h178l-82 -463h127l-27 -153h-127z" />
    <glyph glyph-name="onehalf" unicode="&#xbd;" horiz-adv-x="1525" 
d="M1229 1485l112 -72l-1116 -1485l-112 72zM1202 807q137 0 202 -70q66 -70 48 -172t-112 -197t-308 -243h354l-26 -154h-598l29 164q274 172 367 259t106 153q18 106 -83 106t-128 -127h-185q60 281 334 281zM254 1368q106 0 127 127h180l-143 -811h-180l96 533h-182
l26 151h76z" />
    <glyph glyph-name="threequarters" unicode="&#xbe;" horiz-adv-x="1652" 
d="M1407 1485l113 -72l-1117 -1485l-112 72zM422 825q121 0 137 107q18 106 -104 106h-111l27 154l164 149h-277l29 154h504l-29 -154l-197 -149q81 0 141 -64t37 -187q-23 -124 -121 -197q-98 -72 -224 -72t-206 63t-65 183h184q-4 -47 29 -70t82 -23zM1352 348l34 201
l-208 -201h174zM1468 0h-178l33 195h-381l29 155l463 461h178l-82 -463h127l-27 -153h-127z" />
    <glyph glyph-name="questiondown" unicode="&#xbf;" horiz-adv-x="1146" 
d="M848 1024l-45 -256h-250l43 256h252zM436 -410q-205 0 -299 104t-63 277q31 174 221 312q78 57 117 95q89 87 118 253h246q-24 -123 -66 -212t-81 -130t-111 -99q-66 -50 -96 -76q-83 -72 -96 -150q-12 -79 28 -122t138 -43q96 1 160 57t77 130h246q-25 -143 -152 -260
q-63 -60 -165 -98t-222 -38z" />
    <glyph glyph-name="Agrave" unicode="&#xc0;" horiz-adv-x="1370" 
d="M616 1823h287l90 -267h-198zM821 1116l-309 -596h410zM1001 1413l271 -1413h-254l-51 279h-584l-154 -279h-256l768 1413h260z" />
    <glyph glyph-name="Aacute" unicode="&#xc1;" horiz-adv-x="1370" 
d="M850 1823h287l-271 -267h-198zM821 1116l-309 -596h410zM1001 1413l271 -1413h-254l-51 279h-584l-154 -279h-256l768 1413h260z" />
    <glyph glyph-name="Acircumflex" unicode="&#xc2;" horiz-adv-x="1370" 
d="M991 1823l160 -267h-172l-127 158l-182 -158h-174l254 267h241zM821 1116l-309 -596h410zM1001 1413l271 -1413h-254l-51 279h-584l-154 -279h-256l768 1413h260z" />
    <glyph glyph-name="Atilde" unicode="&#xc3;" horiz-adv-x="1370" 
d="M963 1569q-66 0 -137 47q-72 47 -112 47t-63 -26t-28 -58h-158q41 244 266 244q69 0 139 -48t105 -49q78 0 96 86h158q-17 -102 -79 -172t-187 -71zM821 1116l-309 -596h410zM1001 1413l271 -1413h-254l-51 279h-584l-154 -279h-256l768 1413h260z" />
    <glyph glyph-name="Adieresis" unicode="&#xc4;" horiz-adv-x="1370" 
d="M492 1597l40 226h252l-41 -226h-251zM911 1597l41 226h252l-41 -226h-252zM821 1116l-309 -596h410zM1001 1413l271 -1413h-254l-51 279h-584l-154 -279h-256l768 1413h260z" />
    <glyph glyph-name="Aring" unicode="&#xc5;" horiz-adv-x="1370" 
d="M901 2056q101 0 161 -73t43 -176t-103 -176t-190 -73q-103 0 -163 73q-59 73 -41 176t104 176t189 73zM840 1710q40 0 74 29t40 69t-17 68q-24 29 -64 29q-39 0 -73 -29t-40 -69q-6 -41 18 -69t62 -28zM821 1116l-309 -596h410zM1001 1413l271 -1413h-254l-51 279h-584
l-154 -279h-256l768 1413h260z" />
    <glyph glyph-name="AE" unicode="&#xc6;" horiz-adv-x="2091" 
d="M1174 1044l-459 -524h364zM2191 1413l-37 -211h-708l-66 -371h586l-37 -208h-586l-73 -414h708l-36 -209h-955l49 279h-536l-256 -279h-271l1264 1413h954z" />
    <glyph glyph-name="Ccedilla" unicode="&#xc7;" horiz-adv-x="1468" 
d="M966 1434q286 0 417 -138q132 -138 128 -346h-249q-4 131 -84 202t-216 71q-254 0 -375 -165t-153 -353q-45 -257 43 -387t291 -130q309 0 426 308h250q-72 -214 -240 -358t-422 -156l-47 -66q180 0 154 -162q-11 -66 -71 -114t-164 -50q-104 0 -185 41l23 121
q82 -45 154 -45t79 49q6 35 -18 48q-45 23 -156 8l113 172q-272 18 -406 206q-133 188 -74 524q60 336 278 528t504 192z" />
    <glyph glyph-name="Egrave" unicode="&#xc8;" horiz-adv-x="1214" 
d="M526 1823h287l90 -267h-198zM1315 1413l-37 -211h-705l-65 -371h582l-37 -208h-582l-74 -414h705l-37 -209h-954l249 1413h955z" />
    <glyph glyph-name="Eacute" unicode="&#xc9;" horiz-adv-x="1214" 
d="M852 1823h287l-271 -267h-198zM1315 1413l-37 -211h-705l-65 -371h582l-37 -208h-582l-74 -414h705l-37 -209h-954l249 1413h955z" />
    <glyph glyph-name="Ecircumflex" unicode="&#xca;" horiz-adv-x="1214" 
d="M1004 1823l159 -267h-172l-127 158l-182 -158h-174l254 267h242zM1315 1413l-37 -211h-705l-65 -371h582l-37 -208h-582l-74 -414h705l-37 -209h-954l249 1413h955z" />
    <glyph glyph-name="Edieresis" unicode="&#xcb;" horiz-adv-x="1214" 
d="M510 1597l41 226h252l-41 -226h-252zM930 1597l41 226h252l-41 -226h-252zM1315 1413l-37 -211h-705l-65 -371h582l-37 -208h-582l-74 -414h705l-37 -209h-954l249 1413h955z" />
    <glyph glyph-name="Igrave" unicode="&#xcc;" horiz-adv-x="638" 
d="M166 1823h287l90 -267h-199zM356 0h-245l249 1413h246z" />
    <glyph glyph-name="Iacute" unicode="&#xcd;" horiz-adv-x="638" 
d="M522 1823h287l-270 -267h-199zM356 0h-245l249 1413h246z" />
    <glyph glyph-name="Icircumflex" unicode="&#xce;" horiz-adv-x="638" 
d="M653 1823l160 -267h-172l-127 158l-182 -158h-174l254 267h241zM356 0h-245l249 1413h246z" />
    <glyph glyph-name="Idieresis" unicode="&#xcf;" horiz-adv-x="638" 
d="M158 1597l41 226h252l-41 -226h-252zM578 1597l40 226h252l-41 -226h-251zM356 0h-245l249 1413h246z" />
    <glyph glyph-name="Eth" unicode="&#xd0;" horiz-adv-x="1402" 
d="M608 209q211 0 348 121t183 377q86 492 -357 491h-225l-65 -373h249l-41 -237h-249l-68 -379h225zM840 1409q385 0 514 -241q57 -106 57 -272q1 -87 -25 -228q-26 -142 -98 -276t-154 -207t-186 -117q-106 -44 -187 -56t-169 -12h-492l105 588h-154l41 237h154l102 584
h492z" />
    <glyph glyph-name="Ntilde" unicode="&#xd1;" horiz-adv-x="1529" 
d="M1100 1569q-66 0 -136 47t-112 47q-41 0 -64 -26t-28 -58h-158q41 244 266 244q70 0 140 -48t104 -49q78 0 96 86h158q-16 -102 -78 -172t-188 -71zM1542 1413l-250 -1413h-280l-469 1063l-187 -1063h-245l249 1413h302l452 -1032l182 1032h246z" />
    <glyph glyph-name="Ograve" unicode="&#xd2;" horiz-adv-x="1572" 
d="M752 1823h286l90 -267h-198zM1544 866q0 -343 -209 -606q-100 -127 -262 -204t-358 -76q-266 0 -416 140q-149 140 -149 419t136 503q147 246 399 340q136 51 296 52q267 0 415 -142t148 -426zM948 1223q-134 -1 -242 -59q-188 -102 -269 -363q-34 -113 -34 -234
q0 -379 340 -379q177 0 307 100q242 186 242 550q0 385 -344 385z" />
    <glyph glyph-name="Oacute" unicode="&#xd3;" horiz-adv-x="1572" 
d="M983 1823h287l-271 -267h-198zM1544 866q0 -343 -209 -606q-100 -127 -262 -204t-358 -76q-266 0 -416 140q-149 140 -149 419t136 503q147 246 399 340q136 51 296 52q267 0 415 -142t148 -426zM948 1223q-134 -1 -242 -59q-188 -102 -269 -363q-34 -113 -34 -234
q0 -379 340 -379q177 0 307 100q242 186 242 550q0 385 -344 385z" />
    <glyph glyph-name="Ocircumflex" unicode="&#xd4;" horiz-adv-x="1572" 
d="M1106 1823l160 -267h-172l-127 158l-183 -158h-174l254 267h242zM1544 866q0 -343 -209 -606q-100 -127 -262 -204t-358 -76q-266 0 -416 140q-149 140 -149 419t136 503q147 246 399 340q136 51 296 52q267 0 415 -142t148 -426zM948 1223q-134 -1 -242 -59
q-188 -102 -269 -363q-34 -113 -34 -234q0 -379 340 -379q177 0 307 100q242 186 242 550q0 385 -344 385z" />
    <glyph glyph-name="Otilde" unicode="&#xd5;" horiz-adv-x="1572" 
d="M1087 1569q-67 0 -137 47t-110 47t-64 -26q-23 -26 -28 -58h-158q41 244 266 244q70 0 140 -48t104 -49q78 0 96 86h158q-16 -102 -79 -172t-188 -71zM1544 866q0 -343 -209 -606q-100 -127 -262 -204t-358 -76q-266 0 -416 140q-149 140 -149 419t136 503
q147 246 399 340q136 51 296 52q267 0 415 -142t148 -426zM948 1223q-134 -1 -242 -59q-188 -102 -269 -363q-34 -113 -34 -234q0 -379 340 -379q177 0 307 100q242 186 242 550q0 385 -344 385z" />
    <glyph glyph-name="Odieresis" unicode="&#xd6;" horiz-adv-x="1572" 
d="M614 1597l41 226h252l-41 -226h-252zM1034 1597l41 226h252l-41 -226h-252zM1544 866q0 -343 -209 -606q-100 -127 -262 -204t-358 -76q-266 0 -416 140q-149 140 -149 419t136 503q147 246 399 340q136 51 296 52q267 0 415 -142t148 -426zM948 1223q-134 -1 -242 -59
q-188 -102 -269 -363q-34 -113 -34 -234q0 -379 340 -379q177 0 307 100q242 186 242 550q0 385 -344 385z" />
    <glyph glyph-name="multiply" unicode="&#xd7;" horiz-adv-x="1198" 
d="M311 793l176 149l220 -268l315 268l123 -147l-316 -269l220 -268l-175 -147l-219 268l-315 -268l-123 149l313 266z" />
    <glyph glyph-name="Oslash" unicode="&#xd8;" horiz-adv-x="1572" 
d="M1276 700q41 225 -21 359l-718 -817q86 -53 221 -54q428 0 518 512zM938 1223q-428 0 -520 -523q-41 -231 24 -354l719 819q-84 58 -223 58zM719 -20q-201 0 -340 81l-133 -149l-109 88l133 150q-168 194 -106 546t282 545q221 193 531 193q203 0 344 -88l135 153
l111 -86l-140 -158q166 -195 104 -547q-63 -352 -283 -540t-529 -188z" />
    <glyph glyph-name="Ugrave" unicode="&#xd9;" horiz-adv-x="1435" 
d="M635 1823h287l90 -267h-199zM672 -20q-248 0 -368 99t-126 271q-4 63 8 127l166 936h246l-170 -960q-4 -20 -4 -62q0 -203 264 -203q307 0 354 265l168 960h246l-164 -936q-39 -227 -206 -362q-166 -135 -414 -135z" />
    <glyph glyph-name="Uacute" unicode="&#xda;" horiz-adv-x="1435" 
d="M922 1823h286l-270 -267h-199zM672 -20q-248 0 -368 99t-126 271q-4 63 8 127l166 936h246l-170 -960q-4 -20 -4 -62q0 -203 264 -203q307 0 354 265l168 960h246l-164 -936q-39 -227 -206 -362q-166 -135 -414 -135z" />
    <glyph glyph-name="Ucircumflex" unicode="&#xdb;" horiz-adv-x="1435" 
d="M1030 1823l160 -267h-172l-127 158l-182 -158h-174l253 267h242zM672 -20q-248 0 -368 99t-126 271q-4 63 8 127l166 936h246l-170 -960q-4 -20 -4 -62q0 -203 264 -203q307 0 354 265l168 960h246l-164 -936q-39 -227 -206 -362q-166 -135 -414 -135z" />
    <glyph glyph-name="Udieresis" unicode="&#xdc;" horiz-adv-x="1435" 
d="M545 1597l41 226h252l-41 -226h-252zM965 1597l41 226h251l-40 -226h-252zM672 -20q-248 0 -368 99t-126 271q-4 63 8 127l166 936h246l-170 -960q-4 -20 -4 -62q0 -203 264 -203q307 0 354 265l168 960h246l-164 -936q-39 -227 -206 -362q-166 -135 -414 -135z" />
    <glyph glyph-name="Yacute" unicode="&#xdd;" horiz-adv-x="1269" 
d="M825 1823h287l-270 -267h-199zM444 0l99 547l-322 866h262l222 -649l436 649h280l-630 -866l-95 -547h-252z" />
    <glyph glyph-name="Thorn" unicode="&#xde;" horiz-adv-x="1296" 
d="M756 489q197 0 237 213q16 98 -24 155q-41 56 -140 56h-299l-73 -424h299zM885 1135q176 0 286 -91q57 -47 79 -136t1 -210q-39 -219 -186 -324t-328 -106h-319l-47 -268h-260l247 1409h260l-47 -274h314z" />
    <glyph glyph-name="germandbls" unicode="&#xdf;" horiz-adv-x="1165" 
d="M659 0h-167l36 201h168q139 0 206 105q34 52 46 128q27 146 -39 192t-202 46l34 200q118 0 161 64q35 49 47 121q11 72 -27 124t-128 52q-88 0 -156 -42t-83 -140l-184 -1051h-238l184 1047q25 148 136 259q57 58 152 93t203 35q205 0 295 -83q88 -84 90 -189
q1 -52 -5 -103q-20 -115 -72 -183t-110 -96q8 0 40 -10t50 -24q66 -53 80 -106q32 -121 10 -216q-35 -204 -174 -314t-353 -110z" />
    <glyph glyph-name="agrave" unicode="&#xe0;" horiz-adv-x="1101" 
d="M512 1413h287l90 -266h-199zM563 188q113 0 191 72q133 123 133 348t-199 226q-110 0 -184 -72q-134 -129 -132 -352q1 -222 191 -222zM467 -20q-164 0 -258 98t-94 276t60 330q60 150 187 255t293 105q211 0 287 -170l62 150h210l-180 -1024h-209l-2 152
q-145 -172 -356 -172z" />
    <glyph glyph-name="aacute" unicode="&#xe1;" horiz-adv-x="1101" 
d="M786 1413h287l-270 -266h-199zM563 188q113 0 191 72q133 123 133 348t-199 226q-110 0 -184 -72q-134 -129 -132 -352q1 -222 191 -222zM467 -20q-164 0 -258 98t-94 276t60 330q60 150 187 255t293 105q211 0 287 -170l62 150h210l-180 -1024h-209l-2 152
q-145 -172 -356 -172z" />
    <glyph glyph-name="acircumflex" unicode="&#xe2;" horiz-adv-x="1101" 
d="M932 1413l160 -266h-172l-127 158l-183 -158h-174l254 266h242zM563 188q113 0 191 72q133 123 133 348t-199 226q-110 0 -184 -72q-134 -129 -132 -352q1 -222 191 -222zM467 -20q-164 0 -258 98t-94 276t60 330q60 150 187 255t293 105q211 0 287 -170l62 150h210
l-180 -1024h-209l-2 152q-145 -172 -356 -172z" />
    <glyph glyph-name="atilde" unicode="&#xe3;" horiz-adv-x="1101" 
d="M885 1159q-67 0 -137 47t-111 47q-41 1 -64 -25t-28 -59h-158q41 244 266 244q70 0 140 -48t104 -48q78 0 96 86h158q-17 -102 -79 -173t-187 -71zM563 188q113 0 191 72q133 123 133 348t-199 226q-110 0 -184 -72q-134 -129 -132 -352q1 -222 191 -222zM467 -20
q-164 0 -258 98t-94 276t60 330q60 150 187 255t293 105q211 0 287 -170l62 150h210l-180 -1024h-209l-2 152q-145 -172 -356 -172z" />
    <glyph glyph-name="adieresis" unicode="&#xe4;" horiz-adv-x="1101" 
d="M430 1188l41 225h252l-41 -225h-252zM850 1188l41 225h252l-41 -225h-252zM563 188q113 0 191 72q133 123 133 348t-199 226q-110 0 -184 -72q-134 -129 -132 -352q1 -222 191 -222zM467 -20q-164 0 -258 98t-94 276t60 330q60 150 187 255t293 105q211 0 287 -170
l62 150h210l-180 -1024h-209l-2 152q-145 -172 -356 -172z" />
    <glyph glyph-name="aring" unicode="&#xe5;" horiz-adv-x="1101" 
d="M823 1647q101 0 161 -73t43 -176t-103 -176t-190 -73t-163 73t-41 176t104 176t189 73zM762 1300q39 0 74 29t41 69t-18 68q-23 28 -63 29q-40 0 -74 -29q-34 -28 -40 -68t18 -69t62 -29zM563 188q113 0 191 72q133 123 133 348t-199 226q-110 0 -184 -72
q-134 -129 -132 -352q1 -222 191 -222zM467 -20q-164 0 -258 98t-94 276t60 330q60 150 187 255t293 105q211 0 287 -170l62 150h210l-180 -1024h-209l-2 152q-145 -172 -356 -172z" />
    <glyph glyph-name="ae" unicode="&#xe6;" horiz-adv-x="1869" 
d="M1393 846q-201 0 -287 -225h489q9 97 -41 161t-161 64zM494 176q94 0 176 68t102 182l10 59l-149 -20q-268 -39 -287 -168q-12 -53 22 -87q32 -34 126 -34zM1782 313q-156 -333 -525 -333q-139 0 -249 58t-134 181q-72 -98 -196 -169q-124 -70 -281 -70t-243 74t-60 217
t154 235q127 92 409 127l154 20l4 25q31 168 -153 168q-170 0 -211 -139h-246q43 141 160 239t329 98q246 0 326 -178q168 178 396 178t342 -138t71 -384l-12 -69h-750q-14 -125 39 -201t174 -76q82 0 148 37t98 100h256z" />
    <glyph glyph-name="ccedilla" unicode="&#xe7;" horiz-adv-x="1144" 
d="M614 188q199 0 260 168h250q-51 -156 -174 -259t-325 -115l-47 -66q180 0 155 -162q-12 -68 -71 -116q-60 -48 -164 -48t-187 41l23 121q82 -45 154 -45t79 49q6 35 -18 48q-45 23 -156 8l113 172q-207 18 -303 158q-95 140 -53 378t207 381t395 143t328 -116
q99 -116 85 -279h-250q2 78 -43 131q-44 54 -158 54t-199 -83t-114 -242t31 -240t182 -81z" />
    <glyph glyph-name="egrave" unicode="&#xe8;" horiz-adv-x="1179" 
d="M479 1413h287l90 -266h-199zM706 846q-100 0 -178 -62t-112 -163h489q2 20 2 47q0 74 -50 126t-151 52zM119 389q0 254 172 455t444 200q188 0 301 -104t113 -299q0 -68 -23 -188h-749q-4 -20 -4 -62q0 -96 54 -155q55 -60 153 -60t162 41t94 96h256q-80 -172 -222 -253
q-142 -80 -328 -80t-304 104t-119 305z" />
    <glyph glyph-name="eacute" unicode="&#xe9;" horiz-adv-x="1179" 
d="M715 1413h286l-270 -266h-199zM706 846q-100 0 -178 -62t-112 -163h489q2 20 2 47q0 74 -50 126t-151 52zM119 389q0 254 172 455t444 200q188 0 301 -104t113 -299q0 -68 -23 -188h-749q-4 -20 -4 -62q0 -96 54 -155q55 -60 153 -60t162 41t94 96h256
q-80 -172 -222 -253q-142 -80 -328 -80t-304 104t-119 305z" />
    <glyph glyph-name="ecircumflex" unicode="&#xea;" horiz-adv-x="1179" 
d="M844 1413l160 -266h-173l-126 158l-183 -158h-174l254 266h242zM706 846q-100 0 -178 -62t-112 -163h489q2 20 2 47q0 74 -50 126t-151 52zM119 389q0 254 172 455t444 200q188 0 301 -104t113 -299q0 -68 -23 -188h-749q-4 -20 -4 -62q0 -96 54 -155q55 -60 153 -60
t162 41t94 96h256q-80 -172 -222 -253q-142 -80 -328 -80t-304 104t-119 305z" />
    <glyph glyph-name="edieresis" unicode="&#xeb;" horiz-adv-x="1179" 
d="M348 1188l41 225h252l-41 -225h-252zM768 1188l41 225h252l-41 -225h-252zM706 846q-100 0 -178 -62t-112 -163h489q2 20 2 47q0 74 -50 126t-151 52zM119 389q0 254 172 455t444 200q188 0 301 -104t113 -299q0 -68 -23 -188h-749q-4 -20 -4 -62q0 -96 54 -155
q55 -60 153 -60t162 41t94 96h256q-80 -172 -222 -253q-142 -80 -328 -80t-304 104t-119 305z" />
    <glyph glyph-name="igrave" unicode="&#xec;" horiz-adv-x="524" 
d="M49 1413h287l90 -266h-199zM338 0h-246l182 1024h246z" />
    <glyph glyph-name="iacute" unicode="&#xed;" horiz-adv-x="526" 
d="M344 1413h287l-271 -266h-198zM338 0h-246l182 1024h246z" />
    <glyph glyph-name="icircumflex" unicode="&#xee;" horiz-adv-x="524" 
d="M471 1413l160 -266h-172l-127 158l-182 -158h-175l254 266h242zM338 0h-246l182 1024h246z" />
    <glyph glyph-name="idieresis" unicode="&#xef;" horiz-adv-x="524" 
d="M-27 1188l41 225h252l-41 -225h-252zM393 1188l41 225h252l-41 -225h-252zM338 0h-246l182 1024h246z" />
    <glyph glyph-name="eth" unicode="&#xf0;" horiz-adv-x="1230" 
d="M563 166q135 0 224 100t118 266q10 57 10 89q-8 123 -71 180t-160 57q-135 0 -222 -91t-117 -256q-29 -165 27 -255t191 -90zM524 -27q-231 -1 -348 141t-73 398t204 390t367 134q90 0 178 -35t123 -118q-16 287 -252 385l-113 -174l-129 67l92 144q-74 12 -155 12
l65 213q121 0 222 -23l94 150l131 -68l-80 -127q219 -86 305 -293t33 -501q-62 -368 -253 -545q-71 -66 -176 -108t-235 -42z" />
    <glyph glyph-name="ntilde" unicode="&#xf1;" horiz-adv-x="1200" 
d="M852 1159q-66 0 -136 47t-112 47q-42 1 -64 -25t-28 -59h-158q41 244 267 244q69 0 139 -48t104 -48q78 0 97 86h157q-16 -102 -78 -173t-188 -71zM885 1044q270 0 270 -278q0 -74 -12 -143l-111 -623h-246l105 596q8 41 8 90q0 147 -145 148q-121 0 -211 -90t-117 -248
l-88 -496h-246l180 1024h207l-2 -180q166 200 408 200z" />
    <glyph glyph-name="ograve" unicode="&#xf2;" horiz-adv-x="1226" 
d="M504 1413h287l90 -266h-199zM752 1044q212 0 328 -114t116 -320q0 -262 -172 -446t-455 -184q-209 0 -329 108t-121 315q0 251 166 443q78 90 200 144t267 54zM727 834q-168 0 -261 -128t-93 -290q0 -227 215 -228q170 0 261 123t91 287q0 236 -213 236z" />
    <glyph glyph-name="oacute" unicode="&#xf3;" horiz-adv-x="1226" 
d="M727 1413h287l-271 -266h-198zM752 1044q212 0 328 -114t116 -320q0 -262 -172 -446t-455 -184q-209 0 -329 108t-121 315q0 251 166 443q78 90 200 144t267 54zM727 834q-168 0 -261 -128t-93 -290q0 -227 215 -228q170 0 261 123t91 287q0 236 -213 236z" />
    <glyph glyph-name="ocircumflex" unicode="&#xf4;" horiz-adv-x="1226" 
d="M866 1413l160 -266h-172l-127 158l-182 -158h-174l254 266h241zM752 1044q212 0 328 -114t116 -320q0 -262 -172 -446t-455 -184q-209 0 -329 108t-121 315q0 251 166 443q78 90 200 144t267 54zM727 834q-168 0 -261 -128t-93 -290q0 -227 215 -228q170 0 261 123
t91 287q0 236 -213 236z" />
    <glyph glyph-name="otilde" unicode="&#xf5;" horiz-adv-x="1226" 
d="M840 1159q-66 0 -137 47t-111 47q-40 1 -64 -25q-23 -26 -28 -59h-158q41 244 266 244q70 0 140 -48t104 -48q78 0 96 86h158q-16 -102 -78 -173t-188 -71zM752 1044q212 0 328 -114t116 -320q0 -262 -172 -446t-455 -184q-209 0 -329 108t-121 315q0 251 166 443
q78 90 200 144t267 54zM727 834q-168 0 -261 -128t-93 -290q0 -227 215 -228q170 0 261 123t91 287q0 236 -213 236z" />
    <glyph glyph-name="odieresis" unicode="&#xf6;" horiz-adv-x="1226" 
d="M367 1188l41 225h251l-41 -225h-251zM786 1188l41 225h252l-41 -225h-252zM752 1044q212 0 328 -114t116 -320q0 -262 -172 -446t-455 -184q-209 0 -329 108t-121 315q0 251 166 443q78 90 200 144t267 54zM727 834q-168 0 -261 -128t-93 -290q0 -227 215 -228
q170 0 261 123t91 287q0 236 -213 236z" />
    <glyph glyph-name="divide" unicode="&#xf7;" horiz-adv-x="1198" 
d="M1155 768l-39 -221h-889l39 221h889zM481 141l45 250h246l-45 -250h-246zM618 922l44 252h247l-43 -252h-248z" />
    <glyph glyph-name="oslash" unicode="&#xf8;" horiz-adv-x="1226" 
d="M715 834q-276 0 -332 -326q-18 -115 2 -182l432 489q-39 19 -102 19zM930 508q23 127 -15 211l-440 -506q47 -25 125 -25q273 1 330 320zM750 1044q137 0 229 -43l108 125l109 -88l-100 -112q135 -136 89 -404t-210 -405t-412 -137q-145 0 -248 53l-106 -121l-109 88
l107 121q-121 137 -77 389t213 393t407 141z" />
    <glyph glyph-name="ugrave" unicode="&#xf9;" horiz-adv-x="1185" 
d="M424 1413h287l90 -266h-199zM399 -20q-324 0 -249 417l110 627h246l-105 -592q-20 -121 6 -182q26 -62 131 -62t194 92t116 248l88 496h246l-181 -1024h-206v178q-167 -198 -396 -198z" />
    <glyph glyph-name="uacute" unicode="&#xfa;" horiz-adv-x="1185" 
d="M723 1413h287l-271 -266h-198zM399 -20q-324 0 -249 417l110 627h246l-105 -592q-20 -121 6 -182q26 -62 131 -62t194 92t116 248l88 496h246l-181 -1024h-206v178q-167 -198 -396 -198z" />
    <glyph glyph-name="ucircumflex" unicode="&#xfb;" horiz-adv-x="1185" 
d="M829 1413l160 -266h-172l-127 158l-182 -158h-174l254 266h241zM399 -20q-324 0 -249 417l110 627h246l-105 -592q-20 -121 6 -182q26 -62 131 -62t194 92t116 248l88 496h246l-181 -1024h-206v178q-167 -198 -396 -198z" />
    <glyph glyph-name="udieresis" unicode="&#xfc;" horiz-adv-x="1185" 
d="M338 1188l41 225h252l-41 -225h-252zM758 1188l41 225h252l-41 -225h-252zM399 -20q-324 0 -249 417l110 627h246l-105 -592q-20 -121 6 -182q26 -62 131 -62t194 92t116 248l88 496h246l-181 -1024h-206v178q-167 -198 -396 -198z" />
    <glyph glyph-name="yacute" unicode="&#xfd;" horiz-adv-x="1054" 
d="M637 1413h287l-271 -266h-198zM166 -408h-131l37 211h90q72 0 112 30t84 116l54 100l-234 975h260l133 -715l375 715h234l-674 -1233q-115 -199 -340 -199z" />
    <glyph glyph-name="thorn" unicode="&#xfe;" horiz-adv-x="1236" 
d="M735 834q-123 0 -201 -84t-105 -239q-29 -155 21 -239t172 -84t198 84t106 240q55 322 -191 322zM830 1044q204 0 298 -142t50 -397t-188 -390q-142 -135 -335 -135q-221 0 -297 167l-94 -536h-239l317 1802h246l-94 -539q133 170 336 170z" />
    <glyph glyph-name="ydieresis" unicode="&#xff;" horiz-adv-x="1054" 
d="M307 1188l41 225h252l-41 -225h-252zM727 1188l41 225h252l-41 -225h-252zM166 -408h-131l37 211h90q72 0 112 30t84 116l54 100l-234 975h260l133 -715l375 715h234l-674 -1233q-115 -199 -340 -199z" />
    <glyph glyph-name="dotlessi" unicode="&#x131;" horiz-adv-x="436" 
d="M291 0h-240l182 1024h240z" />
    <glyph glyph-name="Lslash" unicode="&#x141;" horiz-adv-x="1138" 
d="M393 209h666l-37 -209h-911l92 516l-187 -102l47 268l187 102l108 625h246l-82 -471l420 238l-47 -271l-422 -235z" />
    <glyph glyph-name="lslash" unicode="&#x142;" horiz-adv-x="624" 
d="M379 -12q-123 0 -200 76t-54 208l53 310l-153 -82l38 225l156 84l109 618h243l-82 -466l189 106l-39 -229l-188 -105l-74 -418q-9 -53 25 -85t90 -31l34 2l-34 -203q-56 -10 -113 -10z" />
    <glyph glyph-name="OE" unicode="&#x152;" horiz-adv-x="2263" 
d="M758 188q207 0 341 134t178 388q44 256 -49 384t-298 129q-205 -1 -337 -137t-176 -388t45 -381t296 -129zM2361 1413l-37 -211h-708l-66 -371h588l-37 -208h-588l-73 -414h708l-37 -209h-954l27 145q-197 -166 -465 -165q-309 0 -462 189t-93 535t282 538
q221 192 531 192q264 0 403 -168l27 147h954z" />
    <glyph glyph-name="oe" unicode="&#x153;" horiz-adv-x="1992" 
d="M1503 846q-201 0 -289 -225h492q10 101 -42 163t-161 62zM711 834q-137 0 -219 -90t-109 -236q-53 -319 217 -320q141 0 223 86t108 232q25 146 -29 238q-54 90 -191 90zM559 -20q-233 0 -353 140t-75 392q43 252 212 392t402 140q156 0 248 -59t125 -143
q164 203 426 202q209 0 324 -135t69 -383l-10 -73h-749q-16 -125 39 -201t174 -76q84 0 149 39t96 98h254q-57 -127 -157 -205q-101 -78 -189 -104q-88 -24 -202 -24t-207 56q-94 56 -136 144q-67 -88 -179 -144t-261 -56z" />
    <glyph glyph-name="Scaron" unicode="&#x160;" horiz-adv-x="1327" 
d="M760 1577l-150 266h174l117 -157l172 157h172l-244 -266h-241zM821 1231q-127 0 -217 -52t-90 -167q4 -85 84 -118t177 -55q96 -21 134 -32q150 -41 238 -115t88 -222t-94 -264q-95 -116 -237 -171t-306 -55q-272 0 -386 124t-91 328h254q-12 -114 47 -182
q58 -68 206 -68t248 62t99 194q0 101 -130 148q-77 26 -220 57t-258 98q-115 68 -115 226q0 219 176 343t438 124t351 -120t73 -282h-252q6 98 -42 148t-175 51z" />
    <glyph glyph-name="scaron" unicode="&#x161;" horiz-adv-x="1046" 
d="M580 1167l-150 267h174l117 -158l172 158h172l-244 -267h-241zM520 176q84 0 147 30q62 30 62 99t-66 91t-137 31t-94 13q-115 20 -178 74t-64 168q0 168 140 265t328 97t279 -86t91 -221q0 -18 -2 -30h-244v8q0 131 -149 131q-84 0 -135 -36t-49 -95q0 -31 13 -44
l21 -21q7 -7 25 -12t55 -17t144 -23q135 -25 207 -76t73 -178q0 -172 -143 -268q-144 -96 -358 -96t-302 86t-88 210q0 27 2 41h246l-2 -18q0 -57 47 -90t131 -33z" />
    <glyph glyph-name="Ydieresis" unicode="&#x178;" horiz-adv-x="1269" 
d="M492 1597l40 226h252l-41 -226h-251zM911 1597l41 226h252l-41 -226h-252zM444 0l99 547l-322 866h262l222 -649l436 649h280l-630 -866l-95 -547h-252z" />
    <glyph glyph-name="Zcaron" unicode="&#x17d;" horiz-adv-x="1245" 
d="M700 1577l-149 266h174l117 -157l172 157h172l-244 -266h-242zM1360 1413l-37 -211l-991 -993h817l-37 -209h-1106l37 209l985 993h-786l37 211h1081z" />
    <glyph glyph-name="zcaron" unicode="&#x17e;" horiz-adv-x="1003" 
d="M498 1167l-150 267h174l117 -158l172 158h172l-244 -267h-241zM1061 1024l-37 -211l-668 -604h588l-39 -209h-901l39 209l666 604h-539l37 211h854z" />
    <glyph glyph-name="florin" unicode="&#x192;" horiz-adv-x="1198" 
d="M154 -215q46 0 98 30q51 30 67 83l318 897h-148l70 194h148q53 158 88 221q55 98 157 154t194 56q92 1 146 -25l-65 -183q-27 16 -72 16t-96 -29q-51 -30 -70 -83l-47 -127h207l-70 -194h-205q-106 -301 -319 -908q-27 -63 -41 -86q-56 -96 -158 -151q-102 -54 -194 -56
t-144 25l64 182q26 -16 72 -16z" />
    <glyph glyph-name="circumflex" unicode="&#x2c6;" horiz-adv-x="1136" 
d="M823 1413l160 -266h-172l-127 158l-182 -158h-174l254 266h241z" />
    <glyph glyph-name="caron" unicode="&#x2c7;" horiz-adv-x="1116" 
d="M526 1167l-149 267h174l117 -158l172 158h172l-244 -267h-242z" />
    <glyph glyph-name="breve" unicode="&#x2d8;" horiz-adv-x="993" 
d="M614 1327q43 0 75 25t38 61h133q-14 -85 -88 -151t-180 -66t-157 67q-50 67 -36 150h129q-6 -35 18 -61t68 -25z" />
    <glyph glyph-name="dotaccent" unicode="&#x2d9;" horiz-adv-x="456" 
d="M190 1208l41 226h267l-41 -226h-267z" />
    <glyph glyph-name="ring" unicode="&#x2da;" horiz-adv-x="946" 
d="M639 1647q101 0 161 -73t43 -176t-103 -176t-190 -73q-103 0 -163 73q-59 73 -41 176t104 176t189 73zM578 1300q40 0 74 29t40 69t-18 68t-63 29q-39 0 -73 -29q-34 -28 -40 -68t18 -69t62 -29z" />
    <glyph glyph-name="ogonek" unicode="&#x2db;" horiz-adv-x="946" 
d="M402 -304q32 -30 88 -30t100 41l16 14l31 -49q-7 -8 -23 -22t-69 -37t-111 -23q-98 0 -150 54t-36 139q33 180 262 217h119q-219 -53 -246 -207q-13 -67 19 -97z" />
    <glyph glyph-name="tilde" unicode="&#x2dc;" horiz-adv-x="1030" 
d="M743 1159q-67 0 -137 47t-110 47q-40 1 -64 -25q-23 -26 -29 -59h-157q41 244 266 244q70 0 140 -48t104 -48q78 0 96 86h158q-16 -102 -79 -173t-188 -71z" />
    <glyph glyph-name="hungarumlaut" unicode="&#x2dd;" horiz-adv-x="1128" 
 />
    <glyph glyph-name="pi" unicode="&#x3c0;" horiz-adv-x="1028" 
d="M1219 1047l-35 -199h-154l-149 -848h-240l150 848h-277l-149 -848h-238l149 848h-151l35 199h1059z" />
    <glyph glyph-name="endash" unicode="&#x2013;" horiz-adv-x="1148" 
d="M117 479l43 236h975l-43 -236h-975z" />
    <glyph glyph-name="emdash" unicode="&#x2014;" horiz-adv-x="2154" 
d="M117 479l43 236h1980l-43 -236h-1980z" />
    <glyph glyph-name="quoteleft" unicode="&#x2018;" horiz-adv-x="489" 
d="M150 874l45 256q61 172 262 283h94q-16 -12 -41 -34q-25 -23 -72 -91t-59 -137l-2 -21h80l-45 -256h-262z" />
    <glyph glyph-name="quoteright" unicode="&#x2019;" horiz-adv-x="520" 
d="M651 1413l-45 -256q-34 -88 -106 -162t-158 -121h-94q16 12 41 34t71 89t64 160h-80l45 256h262z" />
    <glyph glyph-name="quotesinglbase" unicode="&#x201a;" horiz-adv-x="520" 
d="M449 256l-46 -256q-33 -88 -105 -162t-159 -121h-94q16 12 41 34t71 88t64 161h-80l45 256h263z" />
    <glyph glyph-name="quotedblleft" unicode="&#x201c;" horiz-adv-x="903" 
d="M565 874l45 256q33 88 105 162t157 121h95q-16 -12 -41 -34q-25 -23 -72 -91t-59 -137l-2 -21h79l-45 -256h-262zM150 874l45 256q61 172 262 283h94q-16 -12 -41 -34q-25 -23 -72 -91t-59 -137l-2 -21h80l-45 -256h-262z" />
    <glyph glyph-name="quotedblright" unicode="&#x201d;" horiz-adv-x="919" 
d="M948 1413l-45 -256q-66 -176 -262 -283h-94q16 12 41 34t75 96t58 153h-80l45 256h262zM549 1413l-45 -256q-66 -176 -262 -283h-95q16 12 41 34t73 92t61 157h-80l45 256h262z" />
    <glyph glyph-name="quotedblbase" unicode="&#x201e;" horiz-adv-x="919" 
d="M848 256l-45 -256q-33 -88 -106 -162t-158 -121h-95q16 12 41 34q25 23 72 91t59 138l5 20h-80l45 256h262zM449 256l-46 -256q-33 -88 -105 -162t-159 -121h-94q16 12 41 34t71 88t64 161h-80l45 256h263z" />
    <glyph glyph-name="dagger" unicode="&#x2020;" horiz-adv-x="1028" 
d="M1092 1044l-35 -194h-324l-198 -1124h-240l199 1124h-326l35 194h325l64 363h239l-63 -363h324z" />
    <glyph glyph-name="daggerdbl" unicode="&#x2021;" horiz-adv-x="1189" 
d="M1190 1053l-33 -193h-321l-97 -541h322l-35 -192h-321l-64 -358h-240l64 358h-324l35 192h324l96 541h-326l35 193h324l61 354h240l-62 -354h322z" />
    <glyph glyph-name="bullet" unicode="&#x2022;" horiz-adv-x="819" 
d="M406 244q-112 0 -178 79q-64 79 -44 191t112 192q92 78 206 78q113 0 178 -78t45 -192q-19 -114 -113 -192t-206 -78z" />
    <glyph glyph-name="perthousand" unicode="&#x2030;" horiz-adv-x="2502" 
d="M2207 827q333 0 259 -424t-410 -423q-330 0 -254 423q72 424 405 424zM2179 674q-78 0 -123 -64q-44 -64 -70 -208t-2 -206t101 -62q78 0 123 62t71 207q25 145 1 208t-101 63zM1423 827q332 0 258 -424t-409 -423q-328 0 -254 424t405 423zM1395 674q-78 0 -123 -62
t-71 -208t-3 -208q22 -62 100 -62t124 62t73 207q25 145 1 208t-101 63zM559 1393q336 0 256 -424q-71 -424 -403 -424t-260 424q79 424 407 424zM532 1239q-78 0 -122 -62q-44 -61 -72 -207q-27 -146 -3 -208q25 -62 103 -64q78 0 123 62t71 208t2 208t-102 63zM1440 1485
l112 -72l-1116 -1485l-112 72z" />
    <glyph glyph-name="guilsinglleft" unicode="&#x2039;" horiz-adv-x="794" 
d="M803 965l-404 -449l244 -455h-240l-241 455l401 449h240z" />
    <glyph glyph-name="guilsinglright" unicode="&#x203a;" horiz-adv-x="794" 
d="M487 516l-245 449h239l242 -449l-401 -455h-240z" />
    <glyph glyph-name="fraction" unicode="&#x2044;" horiz-adv-x="120" 
d="M625 1485l112 -72l-1116 -1485l-113 72z" />
    <glyph glyph-name="Euro" unicode="&#x20ac;" horiz-adv-x="1198" 
d="M750 209q198 0 311 158l153 -174q-203 -215 -505 -216q-219 0 -352 127q-132 127 -142 359h-170l27 153h762l-111 -151h-244q25 -256 271 -256zM926 1202q-256 0 -373 -287h502l-113 -153h-844l27 153h166q90 250 265 384t411 135q315 0 426 -230l-215 -164
q-55 162 -252 162z" />
    <glyph glyph-name="trademark" unicode="&#x2122;" horiz-adv-x="1673" 
d="M1200 780l311 627h207l-139 -789h-137l110 629l-309 -629h-145l-94 629l-111 -629h-137l139 789h215zM223 1407h598l-22 -127h-228l-114 -662h-146l117 662h-227z" />
    <glyph glyph-name="Omega" unicode="&#x2126;" horiz-adv-x="1513" 
d="M944 1235q-195 0 -337 -127t-183 -363q-66 -369 209 -542l-35 -203h-494l35 199h246q-266 195 -203 546q56 315 274 501t522 188q304 0 458 -187t98 -502q-63 -354 -397 -546h245l-32 -199h-494l37 203q336 172 401 542q41 233 -57 361t-293 129z" />
    <glyph glyph-name="arrowleft" unicode="&#x2190;" horiz-adv-x="1511" 
d="M1094 1237l-516 -426h962l-41 -227h-962l366 -424h-348l-442 538l632 539h349z" />
    <glyph glyph-name="arrowup" unicode="&#x2191;" horiz-adv-x="1511" 
d="M1325 520l-348 441l-172 -961h-225l170 961l-502 -441l61 348l633 539l444 -539z" />
    <glyph glyph-name="arrowright" unicode="&#x2192;" horiz-adv-x="1511" 
d="M1094 811l-365 426h348l443 -539l-633 -538h-348l514 424h-961l41 227h961z" />
    <glyph glyph-name="arrowdown" unicode="&#x2193;" horiz-adv-x="1511" 
d="M311 885l348 -441l170 963h226l-168 -963l502 441l-62 -346l-633 -539l-444 539z" />
    <glyph glyph-name="arrowboth" unicode="&#x2194;" horiz-adv-x="2447" 
d="M2028 811l-365 424h348l443 -539l-633 -538h-348l514 426h-1448l366 -424h-348l-442 538l633 539h348l-516 -426h1448z" />
    <glyph glyph-name="arrowrightdown" unicode="&#x21b4;" horiz-adv-x="1511" 
d="M1393 946l-133 -762h-762l-203 246l612 -10l-561 678l186 159l551 -682l109 617z" />
    <glyph glyph-name="partialdiff" unicode="&#x2202;" horiz-adv-x="1210" 
d="M393 1079q41 169 160 261t309 93t304 -91t127 -252t-44 -379q-37 -111 -71 -198t-94 -195q-62 -108 -131 -178t-170 -118t-237 -48t-240 54q-105 54 -150 169t10 299t206 301t324 116q135 0 230 -67q94 -68 92 -197q69 189 60 360q-5 93 -64 150q-60 57 -156 57
q-188 1 -227 -180zM584 186q102 0 184 64t116 168q34 106 -14 190t-158 85q-112 1 -194 -64t-115 -184q-34 -119 22 -189q57 -70 159 -70z" />
    <glyph glyph-name="Delta" unicode="&#x2206;" horiz-adv-x="1265" 
d="M864 1204l-596 -997h836zM782 1411h242l303 -1204l-35 -207h-1284l35 207z" />
    <glyph glyph-name="product" unicode="&#x220f;" horiz-adv-x="1308" 
d="M1589 1407l-41 -231h-200l-207 -1176h-260l206 1176h-423l-209 -1176h-260l208 1176h-200l41 231h1345z" />
    <glyph glyph-name="summation" unicode="&#x2211;" horiz-adv-x="1026" 
d="M1200 1407l-41 -231h-606l418 -580l-623 -582h606l-41 -229h-952l37 213l637 598l-428 596l39 215h954z" />
    <glyph glyph-name="minus" unicode="&#x2212;" horiz-adv-x="1275" 
d="M1163 805l-37 -209h-907l37 209h907z" />
    <glyph glyph-name="radical" unicode="&#x221a;" horiz-adv-x="1198" 
d="M1397 1436l-686 -1436h-217l-142 633h-243l34 203h381l113 -578l549 1178h211z" />
    <glyph glyph-name="infinity" unicode="&#x221e;" horiz-adv-x="1433" 
d="M1096 1016q92 0 153 -36t83 -90q52 -127 24 -241q-20 -125 -108 -239q-44 -56 -116 -92t-165 -35q-154 0 -219 145q-111 -145 -271 -145q-90 -1 -151 35t-84 90q-53 126 -25 241q24 127 110 240q45 57 117 92t162 35q154 0 219 -146q113 146 271 146zM524 516
q70 0 110 33t64 100q0 68 -27 100q-28 32 -100 31q-125 0 -151 -131q-23 -133 104 -133zM999 516q131 0 154 132t-106 132t-173 -131q0 -133 125 -133z" />
    <glyph glyph-name="integral" unicode="&#x222b;" horiz-adv-x="534" 
d="M765 1212q-45 0 -91 -30t-56 -80l-210 -1196q-30 -179 -174 -256q-87 -47 -174 -48t-142 25l31 185q29 -16 75 -16t90 29q46 30 54 81l211 1196q14 74 43 125q43 84 130 131t173 48t145 -26l-32 -184q-27 16 -73 16z" />
    <glyph glyph-name="approxequal" unicode="&#x2248;" horiz-adv-x="954" 
d="M395 319q-82 0 -94 -86h-158q32 174 137 224q52 25 124 25t146 -44q74 -43 110 -43q38 0 62 26t28 60h157q-43 -248 -262 -248q-67 0 -139 43t-111 43zM453 647q-82 0 -95 -86h-157q33 176 137 223q53 25 125 25q73 0 145 -43t105 -43q82 0 96 86h158q-47 -248 -265 -248
q-66 0 -138 43t-111 43z" />
    <glyph glyph-name="notequal" unicode="&#x2260;" horiz-adv-x="1198" 
d="M276 715l37 200h486l119 158l210 -14l-108 -144h131l-35 -200h-246l-147 -197h358l-34 -199h-476l-137 -180l-215 13l129 167h-141l35 199h256l149 197h-371z" />
    <glyph glyph-name="lessequal" unicode="&#x2264;" horiz-adv-x="1198" 
d="M1067 219l-39 -219h-928l39 219h928zM1100 406l-860 385l28 165l998 387l-41 -231l-738 -238l654 -235z" />
    <glyph glyph-name="greaterequal" unicode="&#x2265;" horiz-adv-x="1198" 
d="M1153 791l-997 -385l41 233l737 235l-651 238l39 231l860 -387zM1051 219l-37 -219h-930l39 219h928z" />
    <glyph glyph-name="lozenge" unicode="&#x25ca;" horiz-adv-x="1368" 
d="M1061 707l-211 499l-395 -504l211 -503zM510 0l-322 702l580 707h238l323 -702l-581 -707h-238z" />
    <glyph glyph-name="CR" horiz-adv-x="1337" 
 />
    <glyph glyph-name="l.ss06" horiz-adv-x="524" 
d="M573 1434l-251 -1434h-246l252 1434h245z" />
    <glyph glyph-name="y.ss02" horiz-adv-x="1202" 
d="M1247 1024l-776 -1413h-233l241 438l-233 975h260l133 -715l375 715h233z" />
    <glyph glyph-name="g.ss03" horiz-adv-x="1212" 
d="M700 834q-150 0 -234 -119t-83 -269q0 -217 201 -217q152 0 232 112t81 263q0 230 -197 230zM510 -410q-119 0 -205 28t-128 63t-66 86q-35 71 -35 161h254v-14q10 -141 190 -141q238 0 279 241l32 176q-129 -170 -339 -170q-168 0 -264 102t-97 272q0 363 241 551
q126 99 294 99q219 0 295 -172l55 152h209l-170 -961q-82 -473 -545 -473z" />
    <glyph glyph-name="G.ss04" horiz-adv-x="1560" 
d="M926 1223q-190 1 -326 -135q-137 -136 -181 -387t46 -382t297 -131q373 0 452 338h-358l37 209h612l-12 -73q-57 -334 -263 -508t-510 -174t-460 188t-94 534q60 346 284 539t533 193q227 0 389 -109t158 -375h-254q-4 139 -82 206t-268 67z" />
    <glyph glyph-name="ydieresis.neogrotesk" horiz-adv-x="1069" 
d="M309 1188l41 225h252l-41 -225h-252zM729 1188l41 225h252l-41 -225h-252zM1186 1024l-776 -1413h-234l242 438l-234 975h260l134 -715l374 715h234z" />
    <glyph glyph-name="ampersand.ss05" horiz-adv-x="1378" 
d="M774 1231q-64 0 -108 -42t-60 -124q-14 -82 56 -182q36 6 74 21q38 14 89 62t63 118t-19 109q-31 38 -95 38zM588 174q131 0 246 64l-283 397q-180 -66 -205 -219q-20 -121 45 -182q66 -60 197 -60zM800 1434q169 0 272 -82t73 -258q-49 -274 -371 -369l234 -319
q45 68 65 178h254q-55 -207 -190 -359l161 -225h-299l-53 74q-150 -94 -396 -94t-372 108q-127 108 -88 328q49 274 342 395q-106 115 -74 291q25 136 149 234t293 98z" />
    <glyph glyph-name="a.ss01" 
d="M568 188q116 0 199 80t112 240q8 70 8 142t-50 128q-50 55 -147 56q-135 0 -209 -94q-73 -94 -99 -240q-26 -148 22 -230t164 -82zM825 0v152q-139 -172 -347 -172t-301 132t-48 390t189 400t350 142t276 -170l68 181h209l-187 -1055h-209z" />
    <glyph glyph-name="yacute.neogrotesk" horiz-adv-x="1069" 
d="M641 1413h287l-271 -266h-198zM166 -408h-131l37 211h90q72 0 112 30t84 116l54 100l-234 975h260l133 -715l375 715h234l-674 -1233q-115 -199 -340 -199z" />
    <glyph glyph-name="fl.ss06" horiz-adv-x="1202" 
d="M721 1446q51 0 108 -10l-36 -209q-49 8 -82 8q-124 0 -144 -117l-16 -94h383l72 410h245l-254 -1434h-245l143 813h-381l-145 -813h-246l145 813h-155l39 211h153l19 106q29 158 139 237q111 79 258 79z" />
    <glyph glyph-name="ffl.ss06" horiz-adv-x="1898" 
d="M1380 1446q51 0 109 -10l-37 -209q-45 8 -80 8q-123 0 -145 -117l-15 -94h418l68 389h246l-250 -1413h-246l143 813h-417l-144 -813h-246l144 813h-414l-145 -813h-246l145 813h-155l39 211h153l19 106q29 158 139 237q111 79 258 79q51 0 108 -10l-36 -209q-49 8 -82 8
q-124 0 -144 -117l-16 -94h416l18 106q27 158 137 237q111 79 258 79z" />
    <glyph glyph-name="arrowleftup" horiz-adv-x="1511" 
d="M236 432l133 762h761l205 -246l-614 8l561 -677l-186 -160l-551 682l-107 -615z" />
    <glyph glyph-name="arrowrightup" horiz-adv-x="1511" 
d="M682 1208h762l-133 -762l-289 -245l117 614l-797 -680l-135 158l801 672l-615 -2z" />
    <glyph glyph-name="arrowleftdown" horiz-adv-x="1511" 
d="M946 170h-762l135 764l289 246l-116 -617l798 682l131 -158l-800 -671h614z" />
    <glyph glyph-name="agrave.ss01" 
d="M494 1413h286l90 -266h-198zM568 188q116 0 199 80t112 240q8 70 8 142t-50 128q-50 55 -147 56q-135 0 -209 -94q-73 -94 -99 -240q-26 -148 22 -230t164 -82zM825 0v152q-139 -172 -347 -172t-301 132t-48 390t189 400t350 142t276 -170l68 181h209l-187 -1055h-209z
" />
    <glyph glyph-name="aacute.ss01" 
d="M791 1413h286l-270 -266h-199zM568 188q116 0 199 80t112 240q8 70 8 142t-50 128q-50 55 -147 56q-135 0 -209 -94q-73 -94 -99 -240q-26 -148 22 -230t164 -82zM825 0v152q-139 -172 -347 -172t-301 132t-48 390t189 400t350 142t276 -170l68 181h209l-187 -1055h-209z
" />
    <glyph glyph-name="acircumflex.ss01" 
d="M950 1413l160 -266h-172l-127 158l-182 -158h-174l254 266h241zM568 188q116 0 199 80t112 240q8 70 8 142t-50 128q-50 55 -147 56q-135 0 -209 -94q-73 -94 -99 -240q-26 -148 22 -230t164 -82zM825 0v152q-139 -172 -347 -172t-301 132t-48 390t189 400t350 142
t276 -170l68 181h209l-187 -1055h-209z" />
    <glyph glyph-name="atilde.ss01" 
d="M909 1159q-67 0 -137 47t-110 47q-40 1 -64 -25q-23 -26 -29 -59h-157q41 244 266 244q70 0 140 -48t104 -48q78 0 96 86h158q-16 -102 -79 -173t-188 -71zM568 188q116 0 199 80t112 240q8 70 8 142t-50 128q-50 55 -147 56q-135 0 -209 -94q-73 -94 -99 -240
q-26 -148 22 -230t164 -82zM825 0v152q-139 -172 -347 -172t-301 132t-48 390t189 400t350 142t276 -170l68 181h209l-187 -1055h-209z" />
    <glyph glyph-name="adieresis.ss01" 
d="M467 1188l41 225h252l-41 -225h-252zM887 1188l41 225h252l-41 -225h-252zM568 188q116 0 199 80t112 240q8 70 8 142t-50 128q-50 55 -147 56q-135 0 -209 -94q-73 -94 -99 -240q-26 -148 22 -230t164 -82zM825 0v152q-139 -172 -347 -172t-301 132t-48 390t189 400
t350 142t276 -170l68 181h209l-187 -1055h-209z" />
    <glyph glyph-name="aring.ss01" 
d="M846 1647q102 0 162 -73t42 -176t-104 -176t-188 -73t-163 73q-60 73 -42 176t104 176q87 73 189 73zM784 1300q39 0 74 29t41 69q7 40 -17 68t-64 29q-40 0 -74 -29q-34 -28 -40 -68t18 -69q23 -29 62 -29zM568 188q116 0 199 80t112 240q8 70 8 142t-50 128
q-50 55 -147 56q-135 0 -209 -94q-73 -94 -99 -240q-26 -148 22 -230t164 -82zM825 0v152q-139 -172 -347 -172t-301 132t-48 390t189 400t350 142t276 -170l68 181h209l-187 -1055h-209z" />
    <glyph glyph-name="one.osf" horiz-adv-x="1013" 
d="M324 948q176 0 211 199h245l-166 -938h287l-37 -209h-819l37 209h287l94 530h-264l37 209h88z" />
    <glyph glyph-name="two.osf" horiz-adv-x="1142" 
d="M731 1167q223 0 315 -110q91 -111 59 -287t-178 -314t-468 -247h561l-37 -209h-950l41 227q531 192 672 333q50 50 71 91q20 41 29 92q39 213 -158 213t-252 -215h-254q54 199 190 313t359 113z" />
    <glyph glyph-name="zero.osf" horiz-adv-x="1189" 
d="M749 1167q138 0 234 -54t135 -140q90 -198 43 -402q-37 -225 -182 -397q-73 -88 -187 -141t-239 -53q-238 0 -342 132t-98 292q2 83 12 167q41 227 184 401q74 89 188 142t252 53zM713 956q-127 0 -214 -97t-120 -287t18 -287t178 -97t215 96t119 287q33 189 -18 287
t-178 98z" />
    <glyph glyph-name="three.osf" horiz-adv-x="1087" 
d="M456 -266q-212 0 -333 110t-98 318h251q-10 -111 48 -165t168 -54q110 1 184 67t96 182t-38 169q-60 54 -171 55h-168l37 209l340 331h-514l37 211h821l-39 -211l-379 -331q160 0 261 -109q101 -110 65 -316t-195 -336q-161 -130 -373 -130z" />
    <glyph glyph-name="four.osf" horiz-adv-x="1189" 
d="M707 209l104 596l-475 -596h371zM872 -246h-245l43 246h-660l37 213l827 954h246l-168 -958h199l-37 -209h-199z" />
    <glyph glyph-name="five.osf" horiz-adv-x="1142" 
d="M490 -266q-206 0 -318 104q-113 104 -88 314h252q-10 -98 43 -154t157 -55t179 69t95 186t-28 190t-166 71q-119 0 -196 -90q-23 -26 -33 -50l-229 91l211 737h784l-37 -211h-577l-121 -397q129 115 287 114q193 0 293 -124q100 -125 62 -337t-201 -335t-369 -123z" />
    <glyph glyph-name="six.osf" 
d="M599 188q120 0 193 66t91 166q45 258 -199 258q-184 0 -281 -184q-18 -37 -22 -62q-10 -112 44 -178t174 -66zM780 872q186 0 291 -110q104 -111 64 -342q-31 -174 -177 -307t-397 -133q-154 0 -252 55t-135 149q-81 207 -20 488q38 210 114 366t216 255t339 99t300 -104
t83 -264h-243q4 158 -189 158q-291 0 -373 -484q146 174 379 174z" />
    <glyph glyph-name="seven.osf" horiz-adv-x="1030" 
d="M1104 1147l-37 -211l-717 -1182h-248l725 1182h-682l37 211h922z" />
    <glyph glyph-name="eight.osf" horiz-adv-x="1226" 
d="M696 834q84 0 153 45t84 135t-40 129t-133 39t-147 -39t-85 -131t34 -135t134 -43zM585 188q105 0 193 52t108 164q20 110 -46 164t-178 54t-198 -54q-84 -54 -104 -165t50 -163t175 -52zM401 729q-72 43 -106 119q-35 76 -19 172q29 170 170 271q140 101 352 101
t315 -102q103 -104 73 -270q-16 -94 -78 -171t-145 -120q215 -106 176 -334q-37 -195 -200 -305t-397 -110t-354 108q-119 108 -82 307q41 236 295 334z" />
    <glyph glyph-name="nine.osf" horiz-adv-x="1214" 
d="M702 954q-102 0 -176 -60t-94 -171t28 -181q50 -70 174 -69q124 0 202 82t92 150q16 249 -226 249zM543 279q-186 0 -292 112q-105 113 -67 340q31 172 177 304t380 132q161 0 263 -57q102 -58 138 -156q76 -208 13 -503q-59 -341 -233 -529t-435 -188q-203 0 -301 106
t-82 269h248q-2 -74 45 -118t125 -44q211 0 307 220q54 120 78 279q-141 -167 -364 -167z" />
    <glyph glyph-name="zero.tf" 
d="M799 1434q539 0 409 -728t-665 -729q-541 0 -410 728q127 729 666 729zM776 1223q-197 0 -281 -167q-109 -213 -135 -599q-8 -115 46 -192t160 -77q104 0 172 42q153 95 220 475q18 131 24 247t-47 193q-55 78 -159 78z" />
    <glyph glyph-name="zero.zero.tf" 
d="M584 188q176 0 264 165q71 133 110 352q4 33 21 167l-610 -518q39 -166 215 -166zM759 1223q-179 0 -264 -167q-74 -142 -108 -351q-20 -94 -22 -173l608 519q-35 172 -214 172zM799 1434q539 0 409 -727t-665 -727q-541 0 -410 725q127 729 666 729z" />
    <glyph glyph-name="one.tf" 
d="M504 1214q176 0 211 199h246l-213 -1204h368l-37 -209h-983l37 209h369l141 797h-264l37 208h88z" />
    <glyph glyph-name="two.tf" 
d="M794 1434q218 0 322 -115t74 -294t-200 -356q-169 -177 -564 -460h643l-37 -209h-971l39 223q338 229 524 384t240 234q55 79 70 160q39 221 -172 222q-113 0 -173 -66t-89 -182h-252q49 221 188 340q140 119 358 119z" />
    <glyph glyph-name="three.tf" 
d="M570 -20q-212 0 -334 110t-101 318h252q-10 -111 48 -165q58 -55 169 -55q110 0 184 69t93 179q43 225 -207 226h-166l37 208l334 332h-510l37 211h821l-37 -211l-381 -332q162 0 263 -106q102 -106 66 -313t-196 -339t-372 -132z" />
    <glyph glyph-name="four.tf" 
d="M764 582l84 469l-455 -469h371zM907 0h-245l65 373h-659l38 213l805 827h246l-147 -831h198l-37 -209h-198z" />
    <glyph glyph-name="five.tf" 
d="M546 -20q-204 0 -318 106t-89 317h254q-14 -98 43 -156q57 -59 159 -59q101 0 175 73t94 191t-28 184t-162 64q-114 0 -196 -82q-20 -19 -34 -45l-229 89l213 751h784l-36 -211h-578l-123 -409q129 117 306 117t277 -119q99 -119 60 -335t-203 -346q-165 -130 -369 -130z
" />
    <glyph glyph-name="six.tf" 
d="M585 188q119 0 193 74t94 187q45 258 -198 258q-74 0 -134 -30t-94 -75q-65 -85 -75 -141q-12 -123 41 -198t173 -75zM772 901q178 0 284 -104t70 -348q-35 -185 -183 -327t-398 -142q-154 0 -251 57t-134 155q-78 208 -17 508q59 322 217 527t443 207q211 0 311 -108
t84 -273h-246q4 170 -188 170q-289 0 -371 -496q141 174 379 174z" />
    <glyph glyph-name="seven.tf" 
d="M1268 1413l-37 -211l-721 -1202h-248l729 1202h-682l37 211h922z" />
    <glyph glyph-name="eight.tf" 
d="M697 854q83 0 151 47t85 142t-38 137t-133 43q-78 0 -147 -42q-69 -41 -86 -139t34 -143t134 -45zM580 188q110 0 196 52t106 171q20 118 -44 175q-66 57 -178 57t-197 -58q-86 -58 -107 -175q-21 -118 47 -170t177 -52zM802 1434q210 0 312 -109t72 -285
q-18 -94 -80 -171t-143 -119q215 -109 176 -325t-202 -332t-399 -116t-354 115q-117 115 -80 324q43 238 297 334q-75 42 -109 118t-16 172q32 178 174 286t352 108z" />
    <glyph glyph-name="nine.tf" 
d="M760 1221q-111 -1 -186 -63t-95 -177t29 -183t162 -69q72 0 132 28t111 87t62 117q16 260 -215 260zM606 535q-207 -1 -310 115q-104 116 -68 315t182 333t393 136q526 0 403 -709q-66 -362 -238 -555t-433 -193q-209 1 -305 107t-83 270h250q-2 -74 42 -118t136 -46
q293 0 379 512q-141 -167 -348 -167z" />
    <glyph glyph-name="zero.zero" horiz-adv-x="1230" 
d="M586 188q255 0 342 349q28 104 53 315l-604 -514q39 -150 209 -150zM756 1182q-178 0 -260 -160q-73 -139 -107 -338q-18 -104 -20 -172l604 516q-39 154 -217 154zM801 1393q539 0 411 -709q-123 -705 -663 -704q-537 0 -412 706t664 707z" />
    <glyph glyph-name="yacute.ss02" horiz-adv-x="1202" 
d="M715 1413h286l-270 -266h-199zM1247 1024l-776 -1413h-233l241 438l-233 975h260l133 -715l375 715h233z" />
    <glyph glyph-name="ydieresis.ss02" horiz-adv-x="1202" 
d="M369 1188l41 225h252l-41 -225h-252zM788 1188l41 225h252l-41 -225h-252zM1247 1024l-776 -1413h-233l241 438l-233 975h260l133 -715l375 715h233z" />
    <glyph glyph-name="parenleft.case" horiz-adv-x="702" 
d="M809 1577q-291 -395 -378 -881t69 -880h-236q-170 399 -85 879t394 882h236z" />
    <glyph glyph-name="parenright.case" horiz-adv-x="702" 
d="M-43 -184q289 401 375 882t-68 879h234q172 -399 87 -879t-397 -882h-231z" />
    <glyph glyph-name="bracketleft.case" horiz-adv-x="690" 
d="M41 -184l309 1761h463l-37 -211h-217l-235 -1341h217l-37 -209h-463z" />
    <glyph glyph-name="bracketright.case" horiz-adv-x="690" 
d="M743 1577l-309 -1761h-461l37 209h215l236 1341h-217l37 211h462z" />
    <glyph glyph-name="braceleft.case" horiz-adv-x="817" 
d="M903 1577h37l-37 -211h-26q-72 0 -113 -36t-57 -126l-58 -313q-25 -141 -137 -195q94 -57 70 -194l-62 -344q-23 -133 121 -133h27l-37 -209h-37q-195 0 -275 68t-51 235l60 340q12 65 -23 99t-127 34l37 209q174 0 197 133l59 340q31 168 134 236t298 67z" />
    <glyph glyph-name="braceright.case" horiz-adv-x="817" 
d="M37 25q141 0 164 133l61 344q25 137 137 194q-94 53 -69 195l57 313q16 90 -13 126q-30 36 -102 36h-28l37 211h38q195 0 275 -68t49 -235l-59 -340q-12 -66 22 -100t129 -33l-37 -209q-178 0 -198 -133l-60 -340q-29 -168 -132 -236t-296 -67h-39l37 209h27z" />
    <glyph glyph-name="questiondown.case" horiz-adv-x="1146" 
d="M915 1413l-45 -256h-249l43 256h251zM504 -20q-205 0 -299 103q-93 103 -63 277t220 312q78 57 117 95q91 88 119 253h246q-23 -123 -66 -212t-82 -130t-110 -98q-66 -49 -97 -76q-81 -71 -95 -150q-13 -80 28 -123t138 -43q96 0 160 56t77 131h245q-25 -142 -151 -260
q-63 -59 -165 -97t-222 -38z" />
    <glyph glyph-name="guillemotleft.case" horiz-adv-x="1204" 
d="M1241 1128l-403 -448l243 -455h-239l-242 455l401 448h240zM831 1128l-403 -448l244 -455h-240l-242 455l402 448h239z" />
    <glyph glyph-name="guillemotright.case" horiz-adv-x="1204" 
d="M926 680l-246 448h240l241 -448l-401 -455h-240zM516 680l-246 448h240l242 -448l-402 -455h-239z" />
    <glyph glyph-name="guilsinglleft.case" horiz-adv-x="794" 
d="M831 1128l-403 -448l244 -455h-240l-242 455l402 448h239z" />
    <glyph glyph-name="guilsinglright.case" horiz-adv-x="794" 
d="M516 680l-246 448h240l242 -448l-402 -455h-239z" />
    <glyph glyph-name="exclamdown.case" horiz-adv-x="649" 
d="M172 0l219 1020h164l-141 -1020h-242zM373 1157l45 256h252l-47 -256h-250z" />
    <glyph glyph-name="underscore.case" horiz-adv-x="974" 
d="M-25 -250l17 103h973l-17 -103h-973z" />
    <glyph glyph-name="bullet.case" horiz-adv-x="819" 
d="M530 948q112 0 178 -78t46 -192q-20 -113 -114 -192q-94 -78 -206 -78q-114 0 -178 78t-43 192t113 192t204 78z" />
    <glyph glyph-name="periodcentered.case" horiz-adv-x="452" 
d="M143 526l45 256h263l-45 -256h-263z" />
    <glyph glyph-name="hyphen.case" horiz-adv-x="782" 
d="M756 606l-37 -211h-608l36 211h609z" />
    <glyph glyph-name="endash.case" horiz-adv-x="1148" 
d="M117 479l43 236h975l-43 -236h-975z" />
    <glyph glyph-name="emdash.case" horiz-adv-x="2154" 
d="M117 479l43 236h1980l-43 -236h-1980z" />
    <glyph glyph-name="bar.case" horiz-adv-x="526" 
d="M129 -184l309 1761h246l-309 -1761h-246z" />
    <glyph glyph-name="brokenbar.case" horiz-adv-x="526" 
d="M61 -184l132 749h245l-131 -749h-246zM238 827l133 750h245l-133 -750h-245z" />
    <glyph glyph-name="I.ss07" horiz-adv-x="743" 
d="M6 0l37 209h178l176 993h-178l37 211h604l-37 -211h-180l-176 -993h180l-37 -209h-604z" />
    <glyph glyph-name="zero.tosf" 
d="M749 1167q138 0 234 -54t135 -140q90 -198 43 -402q-37 -225 -182 -397q-73 -88 -187 -141t-239 -53q-238 0 -342 132t-98 292q2 83 12 167q41 227 184 401q74 89 188 142t252 53zM713 956q-127 0 -214 -97t-120 -287t18 -287t178 -97t215 96t119 287q33 189 -18 287
t-178 98z" />
    <glyph glyph-name="one.tosf" 
d="M469 948q174 0 213 199h246l-166 -938h368l-36 -209h-983l36 209h369l92 530h-264l37 209h88z" />
    <glyph glyph-name="two.tosf" 
d="M772 1167q223 -1 314 -111q92 -110 60 -286t-178 -314t-468 -247h561l-37 -209h-950l41 227q531 192 672 333q50 50 71 91q20 41 29 92q39 213 -158 213t-252 -215h-254q53 199 189 313t360 113z" />
    <glyph glyph-name="three.tosf" 
d="M526 -266q-213 0 -335 110t-97 318h252q-12 -111 46 -165t169 -54q111 1 185 67t94 182q22 116 -38 169q-60 54 -171 55h-166l37 209l340 331h-516l39 211h819l-37 -211l-381 -331q162 0 263 -109q101 -108 65 -316t-196 -337q-159 -129 -372 -129z" />
    <glyph glyph-name="four.tosf" 
d="M735 209l105 596l-475 -596h370zM901 -246h-246l43 246h-657l37 213l825 954h246l-168 -958h199l-35 -209h-201z" />
    <glyph glyph-name="five.tosf" 
d="M523 -266q-207 0 -319 104t-87 314h252q-10 -98 44 -154q55 -56 157 -55t176 69t96 186q20 118 -27 190t-166 71q-119 0 -196 -90q-23 -26 -33 -50l-227 91l208 737h787l-37 -211h-580l-120 -397q129 115 286 114q193 0 293 -125q100 -124 62 -336t-200 -335
q-163 -123 -369 -123z" />
    <glyph glyph-name="six.tosf" 
d="M587 188q119 0 193 74t94 187q45 258 -198 258q-74 0 -134 -30t-94 -75q-65 -85 -75 -141q-12 -123 41 -198t173 -75zM774 901q178 0 284 -104t70 -348q-35 -185 -183 -327t-398 -142q-154 0 -251 57t-134 155q-78 208 -17 508q59 322 217 527t443 207q211 0 311 -108
t84 -273h-246q4 170 -188 170q-289 0 -371 -496q141 174 379 174z" />
    <glyph glyph-name="seven.tosf" 
d="M1233 1147l-37 -211l-719 -1182h-246l723 1182h-682l37 211h924z" />
    <glyph glyph-name="eight.tosf" 
d="M695 854q83 0 151 47t85 142t-38 137t-133 43q-78 0 -147 -42q-69 -41 -86 -139t34 -143t134 -45zM578 188q110 0 196 52t106 170q20 117 -44 175q-66 58 -178 58t-198 -58t-106 -175q-21 -118 47 -170t177 -52zM800 1434q210 0 312 -109t72 -285q-18 -94 -80 -171
t-146 -119q216 -106 178 -324t-201 -333q-163 -116 -399 -116t-354 115q-117 115 -80 324q41 236 297 334q-75 42 -109 118t-16 172q31 178 173 286q143 108 353 108z" />
    <glyph glyph-name="nine.tosf" 
d="M707 954q-101 0 -177 -60t-95 -172t29 -180t159 -69q76 0 137 29t109 86t61 117q17 249 -223 249zM545 279q-186 0 -292 113q-105 114 -65 339q30 170 176 303t391 133t349 -139q129 -173 55 -577q-59 -341 -233 -529t-434 -188q-205 0 -304 106q-98 106 -82 269h248
q0 -74 46 -118t133 -44t157 42q163 98 219 457q-141 -167 -364 -167z" />
    <glyph glyph-name="numbersign.tf" 
d="M635 860l-162 -368h219l164 368h-221zM14 0l127 287h-121l37 205h174l162 368h-211l39 209h268l156 344h242l-158 -344h221l156 344h237l-159 -344h131l-39 -209h-186l-162 -368h223l-37 -205h-276l-129 -287h-236l129 287h-219l-129 -287h-240z" />
    <glyph glyph-name="dollar.tf" 
d="M467 1051q-12 -74 26 -114t119 -67l64 353q-182 -27 -209 -172zM924 393q14 88 -33 134t-150 75l-73 -414q223 23 256 205zM913 1579l-26 -152q387 -35 354 -395h-254q14 162 -135 189l-70 -394l78 -20q373 -92 318 -404q-32 -187 -178 -295t-367 -126l-27 -150h-176
l27 152q-223 23 -315 142q-91 120 -70 306h252q-20 -203 170 -242l79 453q-205 49 -298 133t-63 255t157 275t342 121l26 152h176z" />
    <glyph glyph-name="plus.tf" 
d="M635 1012h211l-66 -379h379l-37 -211h-379l-67 -379h-211l67 379h-378l36 211h379z" />
    <glyph glyph-name="less.tf" 
d="M1036 57l-858 387l29 166l997 387l-45 -245l-676 -226l596 -225z" />
    <glyph glyph-name="equal.tf" 
d="M162 373l37 209h907l-37 -209h-907zM229 768l39 211h908l-39 -211h-908z" />
    <glyph glyph-name="greater.tf" 
d="M276 997l859 -387l-29 -168l-995 -387l43 246l675 225l-596 226z" />
    <glyph glyph-name="asciitilde.tf" 
d="M535 594q-82 0 -95 -88h-157q32 173 137 224q53 26 125 26q71 0 145 -44t112 -44t60 26t29 62h158q-47 -250 -265 -250q-66 0 -138 44t-111 44z" />
    <glyph glyph-name="cent.tf" 
d="M738 1038q-114 0 -199 -83q-86 -83 -114 -241q-27 -158 31 -240q58 -81 181 -81q201 0 260 168h252q-53 -158 -178 -261t-328 -116l-33 -184h-104l33 186q-211 18 -309 158t-59 370q40 230 187 371t369 162l27 162h104l-27 -162q195 -11 283 -125t74 -268h-250
q4 76 -41 130t-159 54z" />
    <glyph glyph-name="sterling.tf" 
d="M825 1413q422 0 357 -383h-260q16 92 -22 126t-111 34q-160 0 -189 -150l-53 -311h336l-33 -192h-338l-29 -168q-23 -113 -108 -148h397q76 2 108 42t44 108h258q-12 -70 -32 -123q-20 -54 -66 -116q-96 -132 -330 -132h-766l37 221q176 0 196 144l31 172h-170l35 192
h170l55 311q21 129 124 241q54 58 147 95t212 37z" />
    <glyph glyph-name="currency.tf" 
d="M564 -6q-165 0 -275 90l-193 -164l-112 137l190 164q-68 135 -37 291q25 158 139 291l-133 164l162 137l135 -164q144 90 306 90t276 -90l192 164l115 -137l-192 -164q63 -129 39 -291q-33 -164 -142 -291l135 -164l-163 -137l-136 164q-141 -90 -306 -90zM599 190
q134 0 245 96q112 96 134 227q22 132 -57 225t-210 93t-243 -94t-132 -225q-25 -130 52 -226t211 -96z" />
    <glyph glyph-name="yen.tf" 
d="M1376 1413l-506 -725h250l-26 -151h-330l-25 -148h328l-27 -151h-329l-41 -238h-246l41 238h-340l27 151h340l26 148h-340l27 151h260l-248 725h279l194 -657l424 657h262z" />
    <glyph glyph-name="section.tf" 
d="M868 641q12 78 -58 103q-51 19 -121 29q-70 9 -93 15q-90 -23 -105 -109t61 -113q54 -19 130 -27t98 -15q70 23 88 117zM803 1434q109 0 187 -24t116 -60q36 -36 58 -83q22 -46 18 -90t-6 -83h-254q12 70 -23 106t-131 35q-180 0 -203 -119q-12 -70 48 -104
q61 -34 153 -46q92 -14 182 -34t144 -86t36 -168t-62 -152t-118 -88q53 -34 82 -98q28 -64 12 -155t-72 -157t-136 -96q-142 -55 -277 -55q-241 0 -335 81q-93 81 -93 174q0 48 4 93h252q-12 -67 25 -109t153 -42q207 0 225 114q8 47 -21 78q-30 31 -83 45q-53 13 -120 25
q-159 27 -248 79q-114 66 -87 228q15 77 65 145t112 95q-51 25 -78 91t-13 144q21 124 139 220t349 96z" />
    <glyph glyph-name="logicalnot.tf" 
d="M168 518l35 199h987l-98 -555h-242l63 356h-745z" />
    <glyph glyph-name="plusminus.tf" 
d="M674 1335h221l-64 -358h361l-39 -221h-358l-66 -365h-221l65 365h-358l39 221h356zM1055 199l-35 -199h-938l35 199h938z" />
    <glyph glyph-name="multiply.tf" 
d="M287 793l176 149l219 -268l315 268l123 -147l-315 -269l219 -268l-174 -147l-219 268l-316 -268l-122 149l313 266z" />
    <glyph glyph-name="divide.tf" 
d="M1133 768l-39 -221h-889l39 221h889zM459 141l45 250h246l-45 -250h-246zM596 922l43 252h248l-43 -252h-248z" />
    <glyph glyph-name="florin.tf" 
d="M159 -215q46 0 97 30t68 83l317 897h-147l69 194h148q53 158 88 221q55 98 157 154t194 56q92 1 146 -25l-65 -183q-27 16 -72 16t-96 -29q-51 -30 -70 -83l-47 -127h207l-70 -194h-204q-106 -301 -320 -908q-27 -63 -41 -86q-56 -96 -158 -151q-102 -54 -193 -56
t-144 25l63 182q27 -16 73 -16z" />
    <glyph glyph-name="Euro.tf" 
d="M731 209q173 0 275 158l151 -174q-96 -109 -206 -162t-259 -54q-204 0 -324 127t-128 359h-168l26 153h705l-111 -151h-186q10 -256 225 -256zM909 1202q-223 0 -331 -287h444l-111 -153h-786l25 153h165q88 250 252 384t383 135q289 0 387 -230l-215 -164
q-45 162 -213 162z" />
    <glyph glyph-name="minus.tf" 
d="M1141 805l-37 -209h-905l37 209h905z" />
    <glyph glyph-name="zero.zero.osf" horiz-adv-x="1230" 
d="M729 956q-125 0 -211 -98t-121 -293q-14 -80 -8 -141l516 444q-51 88 -176 88zM932 584q10 68 8 131l-516 -441q51 -86 172 -86q266 1 336 396zM769 1167q139 0 235 -54t135 -139q39 -84 53 -190t-10 -209q-36 -221 -183 -400q-73 -89 -187 -142t-239 -53
q-235 0 -339 130q-46 58 -74 136q-29 78 -27 162t12 167q20 109 66 209q107 237 307 330q114 53 251 53z" />
    <glyph glyph-name="zero.zero.tosf" horiz-adv-x="1230" 
d="M729 956q-125 0 -211 -98t-121 -293q-14 -80 -8 -141l516 444q-51 88 -176 88zM932 584q10 68 8 131l-516 -441q51 -86 172 -86q266 1 336 396zM769 1167q139 0 235 -54t135 -139q39 -84 53 -190t-10 -209q-36 -221 -183 -400q-73 -89 -187 -142t-239 -53
q-235 0 -339 130q-46 58 -74 136q-29 78 -27 162t12 167q20 109 66 209q107 237 307 330q114 53 251 53z" />
    <glyph glyph-name="arrowleft.ss08" horiz-adv-x="1511" 
d="M451 827l-41 -231h1116l-23 -123h-1116l-41 -231l-237 293z" />
    <glyph glyph-name="arrowright.ss08" horiz-adv-x="1511" 
d="M1235 596l41 231l240 -292l-345 -293l41 231h-1116l23 123h1116z" />
    <glyph glyph-name="arrowup.ss08" horiz-adv-x="1511" 
d="M836 1116h-232l344 291l242 -291h-232l-196 -1116h-123z" />
    <glyph glyph-name="arrowdown.ss08" horiz-adv-x="1511" 
d="M459 291h231l197 1116h123l-197 -1116h231l-344 -291z" />
    <glyph glyph-name="arrowboth.ss08" horiz-adv-x="2363" 
d="M451 827l-41 -231h1116l41 231l239 -292l-344 -293l41 231h-1116l-41 -231l-237 293z" />
    <glyph glyph-name="arrowleftup.ss08" horiz-adv-x="1511" 
d="M815 1024l-192 -162l651 -790l-103 -86l-651 788l-190 -164l73 414h412z" />
    <glyph glyph-name="arrowrightup.ss08" horiz-adv-x="1511" 
d="M1165 862l-135 162h412l-74 -414l-133 164l-926 -788l-73 86z" />
    <glyph glyph-name="arrowleftdown.ss08" horiz-adv-x="1511" 
d="M498 162l135 -162h-412l74 414l133 -164l928 788l71 -86z" />
    <glyph glyph-name="arrowrightdown.ss08" horiz-adv-x="1511" 
d="M848 0l192 162l-651 790l105 86l649 -788l190 164l-73 -414h-412z" />
    </font>
</defs>
</svg>
