<?xml version="1.0" standalone="no"?>
<!DOCTYPE svg PUBLIC "-//W3C//DTD SVG 1.1//EN" "http://www.w3.org/Graphics/SVG/1.1/DTD/svg11.dtd" >
<svg xmlns="http://www.w3.org/2000/svg">
<metadata>
Created by FontPrep 20130207 at Tue Sep  8 17:39:19 2015
 By Marcos Dopico Castro
Copyright (c) 201332015 by Marcos Dopico // MaisTypes. All rights reserved.
</metadata>
<defs>
<font id="b59eb7dcc1ee64ddd7481ab92dedc2ec" horiz-adv-x='1024' >
  <font-face 
    font-family="MaisGrotesk-SemiBold"
    font-weight="600"
    font-stretch="normal"
    units-per-em="2048"
    panose-1="0 0 0 0 0 0 0 0 0 0"
    ascent="1536"
    descent="-512"
    x-height="1024"
    cap-height="1413"
    bbox="-430 -410 2456 2056"
    underline-thickness="102"
    underline-position="-102"
    unicode-range="U+0020-FB04"
  />
<missing-glyph horiz-adv-x="829" 
d="M475 735l244 -524v1051zM414 606l-232 -497h465zM182 1364l232 -498l233 498h-465zM354 735l-245 531v-1059zM829 1473v-1473h-829v1473h829z" />
    <glyph glyph-name="ellipsis" unicode="&#x2e;&#x2e;&#x2e;" horiz-adv-x="1423" 
d="M1022 0v256h262v-256h-262zM582 0v256h262v-256h-262zM139 0v256h262v-256h-262z" />
    <glyph glyph-name="ff" unicode="ff" horiz-adv-x="1390" 
d="M1130 1118v-94h191v-211h-191v-813h-245v813h-451v-813h-246v813h-153v211h153v106q0 158 98 237t244 79q49 0 111 -10v-209q-49 8 -84 8q-123 0 -123 -117v-94h451v106q0 158 96 237t244 79q49 0 110 -10v-209q-49 8 -95 8q-46 1 -78 -25t-32 -92z" />
    <glyph glyph-name="fi" unicode="fi" horiz-adv-x="1202" 
d="M1063 1413v-225h-246v225h246zM434 1118v-94h629v-1024h-246v813h-383v-813h-246v813h-153v211h153v106q0 158 98 237t244 79q18 0 111 -10v-209q-49 8 -84 8q-123 0 -123 -117z" />
    <glyph glyph-name="fl" unicode="fl" horiz-adv-x="1275" 
d="M434 1118v-94h383v389h246v-1120q0 -57 26 -75t95 -19h22v-203q-45 -8 -108 -8q-281 0 -281 276v549h-383v-813h-246v813h-153v211h153v106q0 158 98 237t244 79q18 0 111 -10v-209q-49 8 -84 8q-123 0 -123 -117z" />
    <glyph glyph-name="ffi" unicode="ffi" horiz-adv-x="1898" 
d="M1513 1188v225h246v-225h-246zM434 1118v-94h416v106q0 158 96 237t244 79q49 0 110 -10v-209q-45 8 -81 8q-123 0 -123 -117v-94h663v-1024h-246v813h-417v-813h-246v813h-416v-813h-246v813h-153v211h153v106q0 158 98 237t244 79q49 0 111 -10v-209q-49 8 -84 8
q-123 0 -123 -117z" />
    <glyph glyph-name="ffl" unicode="ffl" horiz-adv-x="1972" 
d="M1759 1413v-1120q0 -57 26 -75t95 -19h23v-203q-45 -8 -109 -8q-281 0 -281 276v549h-417v-813h-246v813h-416v-813h-246v813h-153v211h153v106q0 158 98 237t244 79q49 0 111 -10v-209q-49 8 -84 8q-123 0 -123 -117v-94h416v106q0 158 96 237t244 79q49 0 110 -10v-209
q-45 8 -81 8q-123 0 -123 -117v-94h417v389h246z" />
    <glyph glyph-name="ft" unicode="ft" horiz-adv-x="1347" 
d="M1135 -10q-135 0 -227 81q-91 81 -91 224v518h-383v-813h-246v813h-153v211h153v127q0 166 87 229t235 64q57 0 131 -8v-203h-84q-57 0 -90 -23t-33 -88v-98h383v268l246 72v-340h215v-211h-215v-496q0 -55 41 -87t102 -31l72 6v-199q-66 -16 -143 -16z" />
    <glyph glyph-name="fj" unicode="fj" horiz-adv-x="1161" 
d="M817 1188v225h246v-225h-246zM434 1118v-94h629v-1143q0 -153 -87 -217t-220 -63q-82 0 -144 6v209h74q131 0 131 110v887h-383v-813h-246v813h-153v211h153v106q0 158 98 237t244 79q18 0 111 -10v-209q-49 8 -84 8q-123 0 -123 -117z" />
    <glyph glyph-name="ffj" unicode="ffj" horiz-adv-x="1857" 
d="M1513 1188v225h246v-225h-246zM434 1118v-94h416v106q0 158 96 237t244 79q49 0 110 -10v-209q-45 8 -81 8q-123 0 -123 -117v-94h663v-1147q0 -133 -91 -209t-216 -76q-72 0 -145 19v199q33 -6 81 -6t87 34q39 35 38 107v868h-417v-813h-246v813h-416v-813h-246v813
h-153v211h153v106q0 158 98 237t244 79q49 0 111 -10v-209q-49 8 -84 8q-123 0 -123 -117z" />
    <glyph glyph-name="fft" unicode="fft" horiz-adv-x="2064" 
d="M434 1118v-94h416v106q0 158 96 237t244 79q49 0 110 -10v-209q-45 8 -81 8q-123 0 -123 -117v-94h417v268l246 72v-340h195v-211h-195v-520q0 -104 142 -105q49 0 94 13v-201q-72 -20 -194 -20t-205 63t-83 203v567h-417v-813h-246v813h-416v-813h-246v813h-153v211h153
v106q0 158 98 237t244 79q49 0 111 -10v-209q-49 8 -84 8q-123 0 -123 -117z" />
    <glyph glyph-name=".notdef" horiz-adv-x="829" 
d="M475 735l244 -524v1051zM414 606l-232 -497h465zM182 1364l232 -498l233 498h-465zM354 735l-245 531v-1059zM829 1473v-1473h-829v1473h829z" />
    <glyph glyph-name=".null" horiz-adv-x="0" 
 />
    <glyph glyph-name="nonmarkingreturn" horiz-adv-x="681" 
 />
    <glyph glyph-name="space" unicode=" " horiz-adv-x="468" 
 />
    <glyph glyph-name="exclam" unicode="!" horiz-adv-x="649" 
d="M199 0v256h252v-256h-252zM242 393l-39 1041h241l-36 -1041h-166z" />
    <glyph glyph-name="quotedbl" unicode="&#x22;" horiz-adv-x="882" 
d="M528 864v553h215v-553h-215zM139 864v553h215v-553h-215z" />
    <glyph glyph-name="numbersign" unicode="#" horiz-adv-x="1355" 
d="M614 860l-98 -368h219l101 368h-222zM70 287v205h204l99 368h-242v209h299l94 344h242l-96 -344h221l94 344h240l-101 -344h162v-209h-217l-98 -368h254v-205h-307l-80 -287h-234l78 287h-221l-78 -287h-240l78 287h-151z" />
    <glyph glyph-name="dollar" unicode="$" horiz-adv-x="1370" 
d="M420 1051q0 -74 46 -114t132 -67v353q-178 -27 -178 -172zM991 393q0 88 -54 134t-163 75v-414q217 23 217 205zM774 1579v-152q391 -35 424 -395h-254q-16 162 -170 189v-394l82 -20q387 -94 389 -404q0 -187 -127 -295t-344 -126v-150h-176v152q-227 22 -340 142
t-125 306h252q18 -205 213 -242v453q-213 49 -322 133q-108 84 -108 255t108 276q109 104 322 120v152h176z" />
    <glyph glyph-name="percent" unicode="%" horiz-adv-x="1718" 
d="M1339 827q332 0 332 -424t-332 -423q-332 0 -332 424t332 423zM1339 674q-77 0 -111 -62t-34 -208t34 -208t112 -62t112 62q35 62 35 206t-35 208t-113 64zM377 1393q332 0 332 -424t-332 -424t-332 424t332 424zM377 1239q-78 0 -112 -62q-34 -61 -34 -207t34 -208
t112 -64q79 0 113 62t34 208q0 144 -34 208t-113 63zM1241 1485l125 -72l-854 -1485l-125 72z" />
    <glyph glyph-name="ampersand" unicode="&#x26;" horiz-adv-x="1333" 
d="M883 209v418h-295q-123 -1 -176 -61t-54 -154q0 -203 230 -203h295zM1290 838v-211h-162v-627h-555q-239 0 -353 98t-114 268t84 254q84 83 189 105q-92 29 -165 109t-73 234t117 249q117 96 315 96h250v-211h-235q-98 0 -146 -53t-49 -128q0 -75 46 -129t149 -54h295
v192h245v-192h162z" />
    <glyph glyph-name="quotesingle" unicode="'" horiz-adv-x="493" 
d="M139 864v553h215v-553h-215z" />
    <glyph glyph-name="parenleft" unicode="(" horiz-adv-x="614" 
d="M104 530q0 479 240 883h236q-224 -397 -224 -883t224 -878h-236q-240 399 -240 878z" />
    <glyph glyph-name="parenright" unicode=")" horiz-adv-x="614" 
d="M256 534q0 483 -221 879h233q242 -397 242 -879t-242 -882h-233q221 399 221 882z" />
    <glyph glyph-name="asterisk" unicode="*" horiz-adv-x="999" 
d="M575 1413l-18 -203l184 80l50 -145l-197 -41l133 -154l-123 -90l-104 174l-103 -174l-121 90l132 154l-199 43l49 143l186 -80l-20 203h151z" />
    <glyph glyph-name="plus" unicode="+" horiz-adv-x="1198" 
d="M516 1012h209v-379h381v-211h-381v-379h-209v379h-379v211h379v379z" />
    <glyph glyph-name="comma" unicode="," horiz-adv-x="520" 
d="M403 256v-256q-18 -88 -77 -162t-138 -121h-92q14 12 35 34q20 23 55 91t35 138v20h-80v256h262z" />
    <glyph glyph-name="hyphen" unicode="-" horiz-adv-x="817" 
d="M713 606v-211h-609v211h609z" />
    <glyph glyph-name="period" unicode="." horiz-adv-x="452" 
d="M96 0v256h262v-256h-262z" />
    <glyph glyph-name="slash" unicode="/" horiz-adv-x="784" 
d="M776 1413l-516 -1413h-244l516 1413h244z" />
    <glyph glyph-name="zero" unicode="0" horiz-adv-x="1230" 
d="M614 1393q539 0 539 -707t-539 -706q-539 0 -539 706t539 707zM614 1182q-181 0 -238 -160q-46 -128 -46 -375t71 -353t213 -106q181 0 239 159q48 132 48 337q0 364 -136 457q-61 41 -151 41z" />
    <glyph glyph-name="one" unicode="1" horiz-adv-x="788" 
d="M590 1352v-1352h-246v944h-289v209h113q176 0 176 199h246z" />
    <glyph glyph-name="two" unicode="2" horiz-adv-x="1165" 
d="M566 1393q218 0 343 -112t125 -287t-137 -344t-483 -441h643v-209h-971v223q297 219 456 367t199 225q41 76 41 165t-53 145q-53 57 -162 57t-157 -64t-56 -178h-254q10 219 129 336t337 117z" />
    <glyph glyph-name="three" unicode="3" horiz-adv-x="1105" 
d="M131 1352h819v-211l-321 -301q163 0 283 -106t120 -308q0 -201 -136 -324q-136 -122 -349 -122t-354 102t-154 295h252q8 -94 76 -141q69 -48 179 -48t171 60t61 158q0 225 -248 225h-165v209l276 301h-510v211z" />
    <glyph glyph-name="four" unicode="4" horiz-adv-x="1169" 
d="M692 547v442l-370 -442h370zM938 0h-246v336h-659v213l659 803h246v-805h199v-211h-199v-336z" />
    <glyph glyph-name="five" unicode="5" horiz-adv-x="1142" 
d="M991 1352v-211h-577l-52 -379q114 119 290 119t294 -117t119 -326q0 -209 -142 -334q-143 -124 -347 -124t-336 98t-144 297h254q6 -88 70 -137q64 -50 166 -50q103 0 165 69t62 173q0 240 -235 240q-72 0 -123 -32t-68 -65l-16 -30l-244 90l80 719h784z" />
    <glyph glyph-name="six" unicode="6" 
d="M628 188q120 0 181 66t61 166q0 258 -243 258q-185 0 -248 -185q-12 -36 -12 -61q9 -112 75 -178t186 -66zM688 872q186 0 310 -110t124 -342q0 -162 -110 -294q-54 -67 -154 -107q-100 -39 -227 -39q-352 1 -469 286q-64 155 -66 406q0 326 128 524t403 197
q211 -1 329 -105t131 -264h-243q-23 158 -217 158q-249 0 -282 -344q-5 -63 -5 -140q112 174 348 174z" />
    <glyph glyph-name="seven" unicode="7" horiz-adv-x="1030" 
d="M942 1352v-211l-508 -1141h-248l516 1141h-682v211h922z" />
    <glyph glyph-name="eight" unicode="8" horiz-adv-x="1226" 
d="M612 834q84 0 144 45q59 45 59 135t-62 129q-63 39 -141 39t-139 -39t-61 -131t58 -135t142 -43zM350 402q0 -110 79 -162t184 -52t185 52t79 164q0 110 -76 164t-188 54q-111 0 -187 -54q-76 -56 -76 -166zM158 1020q0 170 123 271t333 101t332 -102q121 -104 121 -270
q0 -94 -48 -171t-124 -120q233 -104 233 -334q0 -195 -143 -305t-378 -110t-373 108t-138 307q0 236 238 334q-80 43 -128 119t-48 172z" />
    <glyph glyph-name="nine" unicode="9" horiz-adv-x="1214" 
d="M592 1180q-121 0 -183 -65q-63 -65 -63 -172t60 -169t152 -61q216 0 273 175q12 34 13 56q-10 98 -70 167t-182 69zM539 518q-187 0 -315 106t-128 306q0 199 123 331t371 132q526 0 526 -684q0 -353 -138 -541t-398 -188q-209 0 -326 102t-129 258h250q10 -68 64 -108
t141 -39q297 0 288 493q-110 -168 -329 -168z" />
    <glyph glyph-name="colon" unicode=":" horiz-adv-x="452" 
d="M96 768v256h262v-256h-262zM96 0v256h262v-256h-262z" />
    <glyph glyph-name="semicolon" unicode=";" horiz-adv-x="520" 
d="M133 768v256h262v-256h-262zM403 256v-256q-18 -88 -77 -162t-138 -121h-92q14 12 35 34q20 23 55 91t35 138v20h-80v256h262z" />
    <glyph glyph-name="less" unicode="&#x3c;" horiz-adv-x="1198" 
d="M1087 57l-925 387v166l925 387v-245l-634 -226l634 -225v-244z" />
    <glyph glyph-name="equal" unicode="=" horiz-adv-x="1173" 
d="M133 373v209h907v-209h-907zM133 768v211h907v-211h-907z" />
    <glyph glyph-name="greater" unicode="&#x3e;" horiz-adv-x="1198" 
d="M162 997l925 -387v-168l-925 -387v246l637 225l-637 226v245z" />
    <glyph glyph-name="question" unicode="?" horiz-adv-x="1146" 
d="M418 0v256h250v-256h-250zM564 1434q218 0 330 -104t112 -277q0 -174 -166 -312q-100 -85 -138 -151t-36 -197h-246q0 123 27 212q28 89 65 135t172 170q70 68 70 168q0 60 -50 102q-50 43 -147 43q-96 1 -149 -55t-54 -130h-248q0 147 119 272q120 124 339 124z" />
    <glyph glyph-name="at" unicode="@" horiz-adv-x="1998" 
d="M1122 1581q379 0 595 -223t216 -578q0 -293 -142 -472t-384 -179q-127 0 -189 50t-69 128q-4 18 0 41q-121 -141 -279 -141q-326 0 -325 334q0 223 127 398t338 175q180 0 243 -137l21 113h209l-121 -674q-16 -111 88 -111q74 0 130 45t88 118q61 139 62 289
q1 151 -34 257q-80 242 -295 337q-121 52 -294 52t-332 -75q-290 -137 -415 -470q-55 -150 -55 -303q0 -279 168 -443t455 -163q215 0 397 102l-31 -211q-188 -72 -403 -71q-344 0 -575 204q-230 205 -230 570q0 271 124 505t364 384q241 149 548 149zM928 387
q133 1 205 105t71 243q0 199 -170 199q-130 0 -198 -109t-68 -245q0 -193 160 -193z" />
    <glyph glyph-name="A" unicode="A" horiz-adv-x="1370" 
d="M674 1159l-221 -639h442zM815 1413l520 -1413h-262l-96 279h-606l-97 -279h-239l520 1413h260z" />
    <glyph glyph-name="B" unicode="B" horiz-adv-x="1347" 
d="M420 831h360q70 -1 119 47t49 137t-48 138t-120 49h-360v-371zM420 209h379q88 0 140 56q52 57 52 153t-51 149t-141 54h-379v-412zM174 1413h641q162 0 274 -94q111 -94 111 -264t-93 -249q-72 -62 -144 -85q80 -12 169 -71q50 -34 80 -102t31 -161q0 -175 -113 -281
t-315 -106h-641v1413z" />
    <glyph glyph-name="C" unicode="C" horiz-adv-x="1468" 
d="M758 1434q286 0 443 -138t190 -346h-254q-57 272 -363 273q-119 0 -205 -47t-130 -126q-81 -145 -83 -345q0 -257 108 -387t294 -130t278 86t115 222h256q-39 -228 -198 -372t-447 -144t-473 190t-185 536t184 536q184 192 470 192z" />
    <glyph glyph-name="D" unicode="D" horiz-adv-x="1452" 
d="M174 1413h535q336 0 499 -203q60 -76 100 -204t40 -298q0 -169 -39 -297t-101 -205q-165 -206 -499 -206h-535v1413zM420 1202v-993h268q406 0 406 497t-406 496h-268z" />
    <glyph glyph-name="E" unicode="E" horiz-adv-x="1214" 
d="M1128 1413v-211h-708v-371h588v-208h-588v-414h708v-209h-954v1413h954z" />
    <glyph glyph-name="F" unicode="F" horiz-adv-x="1167" 
d="M1122 1413v-211h-702v-399h643v-209h-643v-594h-246v1413h948z" />
    <glyph glyph-name="G" unicode="G" horiz-adv-x="1566" 
d="M356 706q0 -254 113 -386t328 -132q174 0 276 92t119 244h-365v211h619v-735h-197l-30 184q-139 -204 -439 -204t-488 190t-188 536t190 536q190 191 505 192q256 0 425 -130t208 -354h-252q-80 272 -373 273q-223 0 -337 -131t-114 -386z" />
    <glyph glyph-name="H" unicode="H" horiz-adv-x="1468" 
d="M1294 1413v-1413h-245v618h-629v-618h-246v1413h246v-586h629v586h245z" />
    <glyph glyph-name="I" unicode="I" horiz-adv-x="593" 
d="M420 0h-246v1413h246v-1413z" />
    <glyph glyph-name="J" unicode="J" horiz-adv-x="1214" 
d="M803 1413h246v-913q0 -254 -130 -387t-375 -133t-377 132t-132 361h246q0 -135 59 -210t203 -75q260 0 260 287v938z" />
    <glyph glyph-name="K" unicode="K" horiz-adv-x="1374" 
d="M420 0h-246v1413h246v-645l534 645h306l-455 -516l551 -897h-289l-424 719l-223 -256v-463z" />
    <glyph glyph-name="L" unicode="L" horiz-adv-x="1138" 
d="M420 209h665v-209h-911v1413h246v-1204z" />
    <glyph glyph-name="M" unicode="M" horiz-adv-x="1816" 
d="M1642 1413v-1413h-245v1114l-353 -1114h-260l-364 1114v-1114h-246v1413h391l350 -1124l351 1124h376z" />
    <glyph glyph-name="N" unicode="N" horiz-adv-x="1529" 
d="M1356 1413v-1413h-283l-653 1040v-1040h-246v1413h301l635 -1007v1007h246z" />
    <glyph glyph-name="O" unicode="O" horiz-adv-x="1572" 
d="M1468 704q0 -346 -185 -535t-495 -189t-497 189t-187 535t186 538t497 192q309 0 495 -192t186 -538zM778 1223q-206 -1 -314 -137t-108 -387t113 -381t319 -130t317 134q109 134 109 388q0 256 -115 385q-116 128 -321 128z" />
    <glyph glyph-name="P" unicode="P" horiz-adv-x="1271" 
d="M174 1413h588q192 1 316 -109t124 -339t-123 -333t-317 -104h-342v-528h-246v1413zM420 739h321q207 0 207 224q0 111 -51 175t-156 64h-321v-463z" />
    <glyph glyph-name="Q" unicode="Q" horiz-adv-x="1572" 
d="M786 188q78 0 129 25l-174 229l199 146l182 -254q92 133 92 368q0 520 -428 521q-430 1 -430 -517t430 -518zM1468 698q0 -352 -211 -551l136 -174l-199 -145l-143 201q-133 -49 -265 -49q-309 0 -495 189q-187 189 -187 535t186 538t497 192q309 0 495 -192t186 -544z
" />
    <glyph glyph-name="R" unicode="R" horiz-adv-x="1320" 
d="M420 1202v-432h360q92 0 142 55q49 55 49 159t-49 160q-49 58 -142 58h-360zM420 561v-561h-246v1413h627q157 0 281 -89q143 -100 143 -362q0 -140 -73 -241q-73 -100 -206 -135l287 -586h-266l-269 561h-278z" />
    <glyph glyph-name="S" unicode="S" horiz-adv-x="1327" 
d="M659 1231q-264 0 -264 -180q0 -85 59 -126t131 -60q73 -19 139 -33t105 -25q177 -47 283 -137t106 -282t-150 -300t-412 -108t-399 123q-136 124 -151 329h254q18 -250 312 -250q137 0 216 52t79 150t-56 147q-56 48 -182 78q-37 9 -131 29q-341 72 -421 227
q-36 71 -36 169q0 184 131 292t398 108t379 -121t122 -281h-251q-10 96 -68 148t-193 51z" />
    <glyph glyph-name="T" unicode="T" horiz-adv-x="1173" 
d="M1120 1413v-211h-411v-1202h-246v1202h-412v211h1069z" />
    <glyph glyph-name="U" unicode="U" horiz-adv-x="1435" 
d="M1270 1413v-936q0 -227 -142 -362t-411 -135q-268 0 -410 135q-141 135 -141 362v936h246v-960q0 -265 306 -265t306 265v960h246z" />
    <glyph glyph-name="V" unicode="V" horiz-adv-x="1337" 
d="M1303 1413l-515 -1413h-239l-514 1413h262l381 -1157l383 1157h242z" />
    <glyph glyph-name="W" unicode="W" horiz-adv-x="1898" 
d="M1864 1413l-394 -1413h-241l-275 1087l-280 -1087h-242l-397 1413h258l270 -1151l268 1151h256l271 -1151l268 1151h238z" />
    <glyph glyph-name="X" unicode="X" horiz-adv-x="1331" 
d="M1260 1413l-461 -680l497 -733h-292l-338 551l-351 -551h-280l512 743l-453 670h293l295 -491l297 491h281z" />
    <glyph glyph-name="Y" unicode="Y" horiz-adv-x="1269" 
d="M512 0v547l-477 866h278l332 -653l330 653h260l-477 -866v-547h-246z" />
    <glyph glyph-name="Z" unicode="Z" horiz-adv-x="1245" 
d="M1174 1413v-211q-33 -43 -405 -490t-411 -503h818v-209h-1106v209q38 53 406 499t403 494h-787v211h1082z" />
    <glyph glyph-name="bracketleft" unicode="[" horiz-adv-x="636" 
d="M121 -348v1761h463v-211h-217v-1341h217v-209h-463z" />
    <glyph glyph-name="backslash" unicode="\" horiz-adv-x="780" 
d="M522 0l-514 1413h244l514 -1413h-244z" />
    <glyph glyph-name="bracketright" unicode="]" horiz-adv-x="636" 
d="M514 1413v-1761h-463v209h217v1341h-217v211h463z" />
    <glyph glyph-name="asciicircum" unicode="^" horiz-adv-x="1378" 
d="M788 1407l467 -793h-260l-309 560l-309 -560h-256l467 793h200z" />
    <glyph glyph-name="underscore" unicode="_" horiz-adv-x="974" 
d="M0 -250v103h975v-103h-975z" />
    <glyph glyph-name="grave" unicode="`" horiz-adv-x="702" 
d="M145 1413h287l137 -266h-198z" />
    <glyph glyph-name="a" unicode="a" horiz-adv-x="1101" 
d="M330 302q0 -126 170 -126q93 0 164 69q70 69 69 181v59l-141 -20q-262 -37 -262 -163zM553 1044q426 0 426 -421v-623h-207l-29 150q-100 -170 -317 -170q-143 0 -243 74q-99 75 -99 217q0 141 112 233t390 129l147 20v25q0 168 -177 168t-194 -139h-245q49 337 436 337z
" />
    <glyph glyph-name="b" unicode="b" 
d="M635 834q-121 0 -185 -85t-65 -239q1 -154 65 -238t185 -84t183 84t62 239t-62 239t-183 84zM139 1413h246v-539q104 170 306 170t323 -142t121 -397t-120 -390t-323 -135t-315 172l-29 -152h-209v1413z" />
    <glyph glyph-name="c" unicode="c" horiz-adv-x="1144" 
d="M340 508q0 -160 73 -240t203 -80q184 0 224 168h252q-25 -164 -146 -270q-120 -106 -350 -106t-370 142t-140 389t140 390t370 143t349 -116q120 -116 134 -279h-250q-10 78 -65 131q-55 54 -169 54q-115 0 -185 -83t-70 -243z" />
    <glyph glyph-name="d" unicode="d" 
d="M586 834q-120 0 -184 -84q-62 -84 -62 -239t62 -239t184 -84t186 84t64 238t-65 239t-185 85zM836 1413h245v-1413h-209l-28 152q-113 -172 -316 -172q-202 0 -322 135t-120 390t121 397t323 142t306 -170v539z" />
    <glyph glyph-name="e" unicode="e" horiz-adv-x="1179" 
d="M598 846q-201 0 -246 -225h490q-8 97 -70 161t-174 64zM86 509q0 251 144 393t366 142t358 -138q137 -138 138 -384v-69h-750q8 -125 76 -201t173 -76t161 41q55 41 75 96h254q-49 -172 -179 -253t-290 -80q-238 0 -382 139t-144 390z" />
    <glyph glyph-name="f" unicode="f" horiz-adv-x="696" 
d="M434 1118v-94h193v-211h-193v-813h-246v813h-153v211h153v106q0 158 98 237t244 79q49 0 111 -10v-209q-49 8 -84 8q-123 0 -123 -117z" />
    <glyph glyph-name="g" unicode="g" horiz-adv-x="1126" 
d="M578 834q-180 0 -181 -140q1 -135 185 -135t184 135q0 72 -52 106t-136 34zM606 6q-41 0 -168 12q-10 -2 -26 -6t-44 -32t-28 -72q0 -66 67 -94t201 -27q266 -1 266 109t-268 110zM250 104q-129 58 -129 180q0 60 46 106t114 63q-137 86 -137 257t123 253q124 81 287 81
t249 -47q28 148 280 148v-209q-65 0 -89 -10t-42 -39q66 -72 66 -187q0 -172 -126 -262t-302 -90q-102 0 -162 25q-55 -17 -55 -67q0 -85 266 -100q111 -6 221 -26t189 -89q78 -69 77 -189q0 -311 -518 -312q-236 0 -379 71t-143 225t164 218z" />
    <glyph glyph-name="h" unicode="h" horiz-adv-x="1200" 
d="M745 1044q334 0 334 -421v-623h-245v596q0 238 -179 238q-117 0 -193 -88t-77 -240v-506h-246v1413h246v-555q133 186 360 186z" />
    <glyph glyph-name="i" unicode="i" horiz-adv-x="524" 
d="M385 1413v-225h-246v225h246zM385 0h-246v1024h246v-1024z" />
    <glyph glyph-name="j" unicode="j" horiz-adv-x="479" 
d="M135 1188v225h246v-225h-246zM135 -74v1098h246v-1110q0 -156 -97 -235t-245 -78q-35 0 -109 8v211q55 -10 82 -10q123 -1 123 116z" />
    <glyph glyph-name="k" unicode="k" horiz-adv-x="1155" 
d="M385 1413v-827l365 438h299l-353 -406l443 -618h-299l-295 442l-160 -186v-256h-246v1413h246z" />
    <glyph glyph-name="l" unicode="l" horiz-adv-x="598" 
d="M385 1413v-1120q0 -57 26 -75t95 -19h22v-203q-45 -8 -108 -8q-281 0 -281 276v1149h246z" />
    <glyph glyph-name="m" unicode="m" horiz-adv-x="1792" 
d="M1364 1044q307 0 307 -419v-625h-246v596q0 111 -32 174q-33 64 -132 64t-166 -92t-67 -246v-496h-246v596q0 238 -157 238q-104 0 -172 -92t-68 -246v-496h-246v1024h207l29 -178q133 198 349 198t284 -221q120 221 356 221z" />
    <glyph glyph-name="n" unicode="n" horiz-adv-x="1200" 
d="M834 596q0 236 -181 238q-121 0 -195 -90t-73 -248v-496h-246v1024h207l29 -180q130 200 370 200q334 0 334 -421v-623h-245v596z" />
    <glyph glyph-name="o" unicode="o" horiz-adv-x="1226" 
d="M618 1044q244 0 382 -139t138 -395t-138 -393t-381 -137t-388 139t-145 391t144 393t388 141zM887 508q0 148 -67 236q-67 90 -207 90q-141 0 -207 -90t-66 -236q0 -148 66 -234t206 -86t208 86q67 86 67 234z" />
    <glyph glyph-name="p" unicode="p" 
d="M635 834q-121 0 -185 -83t-65 -237q0 -154 65 -240q66 -86 186 -86t182 84t63 240q-1 156 -63 239t-183 83zM385 -389h-246v1413h209l29 -152q113 172 317 172t322 -135q119 -135 119 -391t-120 -397t-323 -141t-307 167v-536z" />
    <glyph glyph-name="q" unicode="q" 
d="M836 514q0 154 -64 237t-186 83t-184 -83t-62 -239t62 -240t184 -84t186 86t64 240zM1081 -389h-245v536q-104 -167 -308 -167t-322 141q-120 141 -120 397t119 391t323 135t316 -172l28 152h209v-1413z" />
    <glyph glyph-name="r" unicode="r" horiz-adv-x="804" 
d="M678 1034q63 0 108 -12v-217q-49 18 -122 18q-137 0 -208 -84t-71 -237v-502h-246v1024h209l27 -193q98 203 303 203z" />
    <glyph glyph-name="s" unicode="s" horiz-adv-x="1060" 
d="M526 1044q194 0 301 -94q106 -94 121 -243h-246q-18 139 -177 139t-158 -111q0 -48 24 -66q23 -17 37 -25t84 -24q70 -15 135 -22q237 -42 300 -166q28 -55 28 -133q0 -166 -123 -243t-315 -76q-410 0 -449 337h246q23 -141 205 -141t182 113q0 78 -74 102
q-74 25 -147 34q-74 9 -101 15q-287 51 -286 293q0 150 109 231q110 80 304 80z" />
    <glyph glyph-name="t" unicode="t" horiz-adv-x="747" 
d="M484 -20q-122 0 -206 64q-83 64 -83 202v567h-140v211h140v268l245 72v-340h197v-211h-197v-520q0 -104 142 -105q47 1 96 13v-201q-72 -20 -194 -20z" />
    <glyph glyph-name="u" unicode="u" horiz-adv-x="1169" 
d="M449 -20q-324 0 -324 417v627h246v-592q0 -121 37 -182q36 -62 142 -62t178 92t73 248v496h246v-1024h-207l-31 178q-129 -198 -360 -198z" />
    <glyph glyph-name="v" unicode="v" horiz-adv-x="1120" 
d="M1094 1024l-410 -1024h-250l-407 1024h262l280 -793l283 793h242z" />
    <glyph glyph-name="w" unicode="w" horiz-adv-x="1536" 
d="M1509 1024l-307 -1024h-248l-182 756l-190 -756h-250l-305 1024h260l180 -772l180 772h262l181 -770l178 770h241z" />
    <glyph glyph-name="x" unicode="x" horiz-adv-x="1079" 
d="M1016 1024l-340 -489l387 -535h-289l-237 371l-256 -371h-265l400 541l-348 483h288l197 -313l199 313h264z" />
    <glyph glyph-name="y" unicode="y" horiz-adv-x="1054" 
d="M266 -408h-131v211h88q72 0 107 30t65 116l35 100l-403 975h260l258 -715l250 715h233l-457 -1233q-78 -199 -305 -199z" />
    <glyph glyph-name="z" unicode="z" horiz-adv-x="1003" 
d="M926 1024v-211l-559 -604h585v-209h-901v209l561 604h-540v211h854z" />
    <glyph glyph-name="braceleft" unicode="{" horiz-adv-x="763" 
d="M121 428v209q174 0 174 133v340q0 168 92 236t287 67h37v-211h-27q-72 0 -108 -36t-35 -126v-313q0 -141 -103 -195q102 -55 103 -194v-344q0 -133 143 -133h27v-209h-37q-195 0 -287 68t-92 235v340q4 133 -174 133z" />
    <glyph glyph-name="bar" unicode="|" horiz-adv-x="663" 
d="M209 -348v1761h246v-1761h-246z" />
    <glyph glyph-name="braceright" unicode="}" horiz-adv-x="763" 
d="M467 295v-340q0 -168 -91 -236t-286 -67h-39v209h29q141 0 141 133v344q0 137 105 194q-104 53 -105 195v313q0 90 -35 126t-106 36h-29v211h39q195 1 286 -67t91 -236v-340q0 -133 174 -133v-209q-174 0 -174 -133z" />
    <glyph glyph-name="asciitilde" unicode="~" horiz-adv-x="997" 
d="M375 594q-80 0 -80 -88h-158q0 250 221 250q70 0 151 -44t114 -44q80 0 79 88h158q0 -250 -221 -250q-65 0 -145 44t-119 44z" />
    <glyph glyph-name="exclamdown" unicode="&#xa1;" horiz-adv-x="649" 
d="M203 -389l39 1020h166l36 -1020h-241zM199 768v256h252v-256h-252z" />
    <glyph glyph-name="cent" unicode="&#xa2;" horiz-adv-x="1157" 
d="M585 1038q-114 0 -185 -83q-70 -83 -70 -241t74 -240q74 -81 196 -81q201 0 229 168h252q-27 -158 -132 -261t-308 -116v-184h-104v186q-215 18 -338 158t-123 370t123 371t338 162v162h104v-162q199 -11 307 -125t121 -268h-250q-10 78 -65 131t-169 53z" />
    <glyph glyph-name="sterling" unicode="&#xa3;" horiz-adv-x="1198" 
d="M657 1413q424 0 424 -383h-260q0 160 -161 160t-160 -150v-311h336v-192h-336v-168q0 -113 -84 -148h399q77 2 101 42t24 108h258q0 -192 -92 -284q-37 -35 -107 -61t-163 -26h-768v221q122 0 151 59q21 42 21 85v172h-170v192h170v311q0 132 83 241q43 58 129 95t205 37
z" />
    <glyph glyph-name="currency" unicode="&#xa4;" horiz-adv-x="1198" 
d="M1143 512q0 -160 -90 -291l164 -164l-138 -137l-164 164q-127 -90 -291 -90t-292 90l-164 -164l-137 137l164 164q-90 131 -91 291q0 160 91 291l-164 164l137 137l164 -164q131 90 292 90t291 -90l164 164l138 -137l-164 -164q90 -131 90 -291zM303 512q-1 -130 93 -226
t228 -96t228 96t93 227q-1 132 -96 225t-225 93t-226 -94t-95 -225z" />
    <glyph glyph-name="yen" unicode="&#xa5;" horiz-adv-x="1198" 
d="M1112 688v-151h-330v-148h330v-151h-330v-238h-245v238h-342v151h342v148h-342v151h260l-396 725h279l332 -655l327 655h263l-400 -725h252z" />
    <glyph glyph-name="brokenbar" unicode="&#xa6;" horiz-adv-x="526" 
d="M141 -348v749h246v-749h-246zM141 664v749h246v-749h-246z" />
    <glyph glyph-name="section" unicode="&#xa7;" horiz-adv-x="1064" 
d="M352 674q0 -49 18 -83t109 -65q27 -8 80 -17t76 -13q86 32 88 149q0 61 -36 92t-75 41t-57 14t-55 11q-37 6 -49 8q-39 -12 -69 -50t-30 -87zM526 1235q-160 0 -159 -111q0 -36 20 -59t41 -31q22 -8 36 -13t40 -9q27 -4 64 -11t92 -16q225 -33 288 -162q27 -55 27 -140
t-42 -149t-104 -94q59 -25 103 -87t43 -157q0 -250 -297 -306q-70 -13 -148 -13q-406 0 -442 338h248q12 -69 57 -105t150 -36q180 0 180 110q0 63 -46 88q-45 28 -112 38t-162 28q-289 57 -288 287q0 89 49 157t112 99q-59 25 -110 91t-51 150q0 124 95 218t318 94
t317 -105q93 -105 103 -233h-243q-19 139 -179 139z" />
    <glyph glyph-name="dieresis" unicode="&#xa8;" horiz-adv-x="1099" 
d="M215 1188v225h250v-225h-250zM635 1188v225h250v-225h-250z" />
    <glyph glyph-name="copyright" unicode="&#xa9;" horiz-adv-x="1507" 
d="M769 295q-155 0 -257 106t-102 301t102 303t270 107q82 0 148 -25t100 -57q88 -83 100 -188h-145q-24 141 -203 141q-109 0 -168 -74t-59 -208q0 -133 59 -205t168 -72q184 0 205 162h146q-23 -141 -116 -216t-248 -75zM776 145q231 0 395 164q164 163 164 395t-164 395
t-395 163t-394 -164t-163 -394t163 -394t394 -165zM53 706q0 300 212 509q212 210 501 210q289 1 494 -189t225 -466q12 -127 -15 -242q-52 -240 -248 -394t-448 -152q-301 0 -511 212t-210 512z" />
    <glyph glyph-name="ordfeminine" unicode="&#xaa;" horiz-adv-x="724" 
d="M326 823q68 0 123 35t55 109v49l-94 -15q-94 -14 -135 -39q-40 -26 -39 -69q0 -70 90 -70zM383 1423q303 0 303 -295v-436h-147l-23 92q-82 -106 -229 -106q-98 0 -166 47t-68 149q0 209 353 250l98 13v39q0 102 -118 102t-128 -94h-182q33 239 307 239z" />
    <glyph glyph-name="guillemotleft" unicode="&#xab;" horiz-adv-x="1251" 
d="M1133 965l-324 -449l324 -455h-240l-322 455l322 449h240zM678 965l-324 -449l324 -455h-240l-321 455l321 449h240z" />
    <glyph glyph-name="logicalnot" unicode="&#xac;" horiz-adv-x="1198" 
d="M121 518v199h987v-555h-242v356h-745z" />
    <glyph glyph-name="registered" unicode="&#xae;" horiz-adv-x="1507" 
d="M777 1425q300 0 511 -213t211 -512t-214 -510q-214 -210 -513 -210t-509 212t-210 511q0 300 212 511t512 211zM776 145q231 0 395 164q164 163 164 395t-164 395t-395 163t-394 -164t-163 -394t163 -394t394 -165zM483 1098h344q62 0 123 -26q121 -53 121 -216
q0 -102 -58 -164t-143 -71l217 -312h-161l-197 307h-100v-307h-146v789zM629 967v-222h180q69 0 93 36t24 75q0 111 -117 111h-180z" />
    <glyph glyph-name="macron" unicode="&#xaf;" horiz-adv-x="1013" 
d="M811 1397v-197h-608v197h608z" />
    <glyph glyph-name="degree" unicode="&#xb0;" horiz-adv-x="843" 
d="M505 1503q111 0 189 -79q78 -78 78 -190t-78 -190t-190 -78t-190 78t-78 190t78 190t191 79zM504 1096q57 0 97 41t40 98t-40 98t-97 41t-98 -41t-41 -98t41 -98t98 -41z" />
    <glyph glyph-name="plusminus" unicode="&#xb1;" horiz-adv-x="1198" 
d="M504 1335h221v-358h360v-221h-360v-365h-221v365h-359v221h359v358zM1085 199v-199h-938v199h938z" />
    <glyph glyph-name="twosuperior" unicode="&#xb2;" horiz-adv-x="710" 
d="M342 1516q137 0 215 -70t78 -172t-77 -198t-265 -242h354v-154h-598v164q246 172 323 259t77 152q0 106 -103 107q-100 0 -104 -127h-185q15 281 285 281z" />
    <glyph glyph-name="threesuperior" unicode="&#xb3;" horiz-adv-x="679" 
d="M80 1495h504v-154l-172 -149q80 0 152 -64t71 -187q0 -124 -85 -197q-85 -72 -212 -72t-217 63t-98 183h184q4 -47 41 -70t86 -23q119 1 119 107t-125 106h-111v154l139 149h-276v154z" />
    <glyph glyph-name="acute" unicode="&#xb4;" horiz-adv-x="989" 
d="M434 1413h287l-223 -266h-199z" />
    <glyph glyph-name="mu" unicode="&#xb5;" horiz-adv-x="1185" 
d="M371 -389h-246v1413h246v-604q0 -129 37 -180t122 -52q123 0 197 83t74 208v545h246v-1024h-207l-31 160q-115 -180 -301 -180q-80 0 -137 36v-405z" />
    <glyph glyph-name="paragraph" unicode="&#xb6;" horiz-adv-x="1388" 
d="M135 982q0 175 125 300t301 125h707v-1638h-246v1427h-215v-1427h-246v788q-176 0 -301 125t-125 300z" />
    <glyph glyph-name="periodcentered" unicode="&#xb7;" horiz-adv-x="452" 
d="M96 362v256h262v-256h-262z" />
    <glyph glyph-name="cedilla" unicode="&#xb8;" horiz-adv-x="843" 
d="M385 -293q72 0 72 49q0 61 -103 62q-39 0 -82 -6l95 188h116l-45 -84q182 0 183 -162q-1 -66 -51 -114t-153 -50q-103 0 -194 41v121q90 -45 162 -45z" />
    <glyph glyph-name="onesuperior" unicode="&#xb9;" horiz-adv-x="512" 
d="M395 1495v-811h-180v533h-182v151h76q106 0 106 127h180z" />
    <glyph glyph-name="ordmasculine" unicode="&#xba;" horiz-adv-x="786" 
d="M428 1421q172 0 269 -96t97 -276q0 -181 -96 -277q-98 -96 -270 -96t-274 97t-102 275t102 275q102 98 274 98zM606 1048q0 218 -183 218t-183 -217t184 -218q182 -1 182 217z" />
    <glyph glyph-name="guillemotright" unicode="&#xbb;" horiz-adv-x="1234" 
d="M883 516l-326 449h240l321 -449l-321 -455h-240zM442 516l-325 449h239l322 -449l-322 -455h-239z" />
    <glyph glyph-name="onequarter" unicode="&#xbc;" horiz-adv-x="1521" 
d="M1081 1485l125 -72l-856 -1485l-125 72zM395 1495v-811h-180v533h-182v151h76q106 0 106 127h180zM1196 348v201l-174 -201h174zM1374 0h-178v195h-383v155l383 461h178v-463h127v-153h-127v-195z" />
    <glyph glyph-name="onehalf" unicode="&#xbd;" horiz-adv-x="1525" 
d="M1030 1485l125 -72l-856 -1485l-125 72zM1157 807q137 0 215 -70t78 -172t-77 -198t-265 -242h354v-154h-598v164q246 172 323 259t77 153q0 106 -102 106t-105 -127h-185q15 281 285 281zM395 1495v-811h-180v533h-182v151h76q106 0 106 127h180z" />
    <glyph glyph-name="threequarters" unicode="&#xbe;" horiz-adv-x="1652" 
d="M1245 1485l125 -72l-856 -1485l-125 72zM156 1495h503v-154l-172 -149q80 0 152 -64t72 -187q0 -124 -85 -197q-85 -72 -212 -72t-217 63t-99 183h185q4 -47 41 -70t86 -23q119 0 118 107q0 106 -125 106h-110v154l139 149h-276v154zM1327 348v201l-174 -201h174zM1505 0
h-178v195h-383v155l383 461h178v-463h127v-153h-127v-195z" />
    <glyph glyph-name="questiondown" unicode="&#xbf;" horiz-adv-x="1146" 
d="M696 1024v-256h-252v256h252zM537 -410q-205 0 -318 104t-113 277q0 174 166 312q100 85 138 151t36 197h246q0 -178 -44 -267t-118 -156q-74 -68 -100 -94q-70 -69 -70 -148t50 -123t146 -44q96 1 150 57t54 130h246q0 -138 -107 -259q-53 -61 -147 -99t-215 -38z" />
    <glyph glyph-name="Agrave" unicode="&#xc0;" horiz-adv-x="1370" 
d="M410 1823h286l138 -267h-199zM674 1159l-221 -639h442zM815 1413l520 -1413h-262l-96 279h-606l-97 -279h-239l520 1413h260z" />
    <glyph glyph-name="Aacute" unicode="&#xc1;" horiz-adv-x="1370" 
d="M643 1823h287l-223 -267h-199zM674 1159l-221 -639h442zM815 1413l520 -1413h-262l-96 279h-606l-97 -279h-239l520 1413h260z" />
    <glyph glyph-name="Acircumflex" unicode="&#xc2;" horiz-adv-x="1370" 
d="M784 1823l207 -267h-172l-155 158l-154 -158h-174l207 267h241zM674 1159l-221 -639h442zM815 1413l520 -1413h-262l-96 279h-606l-97 -279h-239l520 1413h260z" />
    <glyph glyph-name="Atilde" unicode="&#xc3;" horiz-adv-x="1370" 
d="M801 1569q-63 0 -143 47t-119 47q-80 0 -80 -84h-158q0 244 223 244q70 0 148 -48t114 -49q76 0 80 86h158q0 -243 -223 -243zM674 1159l-221 -639h442zM815 1413l520 -1413h-262l-96 279h-606l-97 -279h-239l520 1413h260z" />
    <glyph glyph-name="Adieresis" unicode="&#xc4;" horiz-adv-x="1370" 
d="M328 1597v226h250v-226h-250zM748 1597v226h249v-226h-249zM674 1159l-221 -639h442zM815 1413l520 -1413h-262l-96 279h-606l-97 -279h-239l520 1413h260z" />
    <glyph glyph-name="Aring" unicode="&#xc5;" horiz-adv-x="1370" 
d="M663 2056q103 0 176 -73t73 -176t-74 -176q-72 -73 -174 -73t-177 73q-73 73 -73 176t72 176q74 73 177 73zM565 1807q0 -41 29 -69t69 -28q41 0 69 29t28 69t-29 68q-29 29 -69 29t-68 -29q-29 -29 -29 -69zM674 1159l-221 -639h442zM815 1413l520 -1413h-262l-96 279
h-606l-97 -279h-239l520 1413h260z" />
    <glyph glyph-name="AE" unicode="&#xc6;" horiz-adv-x="2091" 
d="M1051 520v524l-363 -524h363zM2005 1413v-211h-709v-371h588v-208h-588v-414h709v-209h-954v279h-539l-205 -279h-272l1016 1413h954z" />
    <glyph glyph-name="Ccedilla" unicode="&#xc7;" horiz-adv-x="1468" 
d="M104 714q0 336 184 528t470 192t443 -138t190 -346h-252q-25 131 -118 202t-229 71q-255 0 -351 -173q-83 -149 -85 -345q0 -257 111 -387t313 -130q309 0 371 308h252q-33 -214 -176 -358t-396 -156l-34 -66q182 0 182 -162q0 -68 -51 -116q-50 -48 -154 -48t-194 41
v121q90 -45 162 -45t71 49q0 61 -100 62q-41 0 -82 -6l82 172q-274 18 -442 206q-167 188 -167 524z" />
    <glyph glyph-name="Egrave" unicode="&#xc8;" horiz-adv-x="1214" 
d="M319 1823h287l137 -267h-198zM1128 1413v-211h-708v-371h588v-208h-588v-414h708v-209h-954v1413h954z" />
    <glyph glyph-name="Eacute" unicode="&#xc9;" horiz-adv-x="1214" 
d="M645 1823h287l-223 -267h-199zM1128 1413v-211h-708v-371h588v-208h-588v-414h708v-209h-954v1413h954z" />
    <glyph glyph-name="Ecircumflex" unicode="&#xca;" horiz-adv-x="1214" 
d="M797 1823l207 -267h-173l-155 158l-154 -158h-174l207 267h242zM1128 1413v-211h-708v-371h588v-208h-588v-414h708v-209h-954v1413h954z" />
    <glyph glyph-name="Edieresis" unicode="&#xcb;" horiz-adv-x="1214" 
d="M346 1597v226h250v-226h-250zM766 1597v226h250v-226h-250zM1128 1413v-211h-708v-371h588v-208h-588v-414h708v-209h-954v1413h954z" />
    <glyph glyph-name="Igrave" unicode="&#xcc;" horiz-adv-x="638" 
d="M-43 1823h287l137 -267h-199zM420 0h-246v1413h246v-1413z" />
    <glyph glyph-name="Iacute" unicode="&#xcd;" horiz-adv-x="638" 
d="M313 1823h287l-223 -267h-199zM420 0h-246v1413h246v-1413z" />
    <glyph glyph-name="Icircumflex" unicode="&#xce;" horiz-adv-x="638" 
d="M444 1823l207 -267h-172l-155 158l-154 -158h-174l207 267h241zM420 0h-246v1413h246v-1413z" />
    <glyph glyph-name="Idieresis" unicode="&#xcf;" horiz-adv-x="638" 
d="M-8 1597v226h250v-226h-250zM412 1597v226h250v-226h-250zM420 0h-246v1413h246v-1413z" />
    <glyph glyph-name="Eth" unicode="&#xd0;" horiz-adv-x="1402" 
d="M410 1198v-373h249v-237h-249v-379h225q209 0 326 121t116 377q0 492 -442 491h-225zM10 588v237h154v584h491q88 0 167 -12q79 -11 177 -55t167 -116t117 -205q48 -134 48 -314q0 -181 -48 -315t-117 -207t-167 -117t-177 -56t-167 -12h-491v588h-154z" />
    <glyph glyph-name="Ntilde" unicode="&#xd1;" horiz-adv-x="1529" 
d="M938 1569q-66 0 -144 47t-118 47q-80 0 -80 -84h-158q0 244 224 244q70 0 148 -48t114 -49q76 0 80 86h157q0 -243 -223 -243zM1356 1413v-1413h-283l-653 1040v-1040h-246v1413h301l635 -1007v1007h246z" />
    <glyph glyph-name="Ograve" unicode="&#xd2;" horiz-adv-x="1572" 
d="M545 1823h286l138 -267h-199zM1468 704q0 -346 -185 -535t-495 -189t-497 189t-187 535t186 538t497 192q309 0 495 -192t186 -538zM778 1223q-206 -1 -314 -137t-108 -387t113 -381t319 -130t317 134q109 134 109 388q0 256 -115 385q-116 128 -321 128z" />
    <glyph glyph-name="Oacute" unicode="&#xd3;" horiz-adv-x="1572" 
d="M776 1823h287l-223 -267h-199zM1468 704q0 -346 -185 -535t-495 -189t-497 189t-187 535t186 538t497 192q309 0 495 -192t186 -538zM778 1223q-206 -1 -314 -137t-108 -387t113 -381t319 -130t317 134q109 134 109 388q0 256 -115 385q-116 128 -321 128z" />
    <glyph glyph-name="Ocircumflex" unicode="&#xd4;" horiz-adv-x="1572" 
d="M899 1823l207 -267h-172l-156 158l-153 -158h-174l206 267h242zM1468 704q0 -346 -185 -535t-495 -189t-497 189t-187 535t186 538t497 192q309 0 495 -192t186 -538zM778 1223q-206 -1 -314 -137t-108 -387t113 -381t319 -130t317 134q109 134 109 388q0 256 -115 385
q-116 128 -321 128z" />
    <glyph glyph-name="Otilde" unicode="&#xd5;" horiz-adv-x="1572" 
d="M926 1569q-66 0 -144 47t-118 47q-80 0 -80 -84h-158q0 244 223 244q70 0 148 -48t114 -49q76 0 80 86h158q0 -243 -223 -243zM1468 704q0 -346 -185 -535t-495 -189t-497 189t-187 535t186 538t497 192q309 0 495 -192t186 -538zM778 1223q-206 -1 -314 -137t-108 -387
t113 -381t319 -130t317 134q109 134 109 388q0 256 -115 385q-116 128 -321 128z" />
    <glyph glyph-name="Odieresis" unicode="&#xd6;" horiz-adv-x="1572" 
d="M451 1597v226h249v-226h-249zM870 1597v226h250v-226h-250zM1468 704q0 -346 -185 -535t-495 -189t-497 189t-187 535t186 538t497 192q309 0 495 -192t186 -538zM778 1223q-206 -1 -314 -137t-108 -387t113 -381t319 -130t317 134q109 134 109 388q0 256 -115 385
q-116 128 -321 128z" />
    <glyph glyph-name="multiply" unicode="&#xd7;" horiz-adv-x="1198" 
d="M219 793l148 149l268 -268l268 268l148 -147l-267 -269l267 -268l-150 -147l-266 268l-266 -268l-150 149l266 266z" />
    <glyph glyph-name="Oslash" unicode="&#xd8;" horiz-adv-x="1572" 
d="M1214 700q0 231 -84 359l-571 -817q92 -53 227 -54q428 0 428 512zM786 1223q-430 0 -430 -523q0 -223 88 -354l576 819q-97 58 -234 58zM1468 708q0 -352 -186 -540t-496 -188q-203 0 -356 81l-106 -149l-123 88l106 150q-203 194 -203 546t186 545t496 193
q205 0 359 -88l108 153l127 -86l-110 -158q198 -195 198 -547z" />
    <glyph glyph-name="Ugrave" unicode="&#xd9;" horiz-adv-x="1435" 
d="M428 1823h287l137 -267h-199zM1270 1413v-936q0 -227 -142 -362t-411 -135q-268 0 -410 135q-141 135 -141 362v936h246v-960q0 -265 306 -265t306 265v960h246z" />
    <glyph glyph-name="Uacute" unicode="&#xda;" horiz-adv-x="1435" 
d="M715 1823h286l-223 -267h-198zM1270 1413v-936q0 -227 -142 -362t-411 -135q-268 0 -410 135q-141 135 -141 362v936h246v-960q0 -265 306 -265t306 265v960h246z" />
    <glyph glyph-name="Ucircumflex" unicode="&#xdb;" horiz-adv-x="1435" 
d="M823 1823l207 -267h-172l-156 158l-153 -158h-174l207 267h241zM1270 1413v-936q0 -227 -142 -362t-411 -135q-268 0 -410 135q-141 135 -141 362v936h246v-960q0 -265 306 -265t306 265v960h246z" />
    <glyph glyph-name="Udieresis" unicode="&#xdc;" horiz-adv-x="1435" 
d="M381 1597v226h250v-226h-250zM801 1597v226h250v-226h-250zM1270 1413v-936q0 -227 -142 -362t-411 -135q-268 0 -410 135q-141 135 -141 362v936h246v-960q0 -265 306 -265t306 265v960h246z" />
    <glyph glyph-name="Yacute" unicode="&#xdd;" horiz-adv-x="1269" 
d="M618 1823h287l-223 -267h-199zM512 0v547l-477 866h278l332 -653l330 653h260l-477 -866v-547h-246z" />
    <glyph glyph-name="Thorn" unicode="&#xde;" horiz-adv-x="1296" 
d="M932 702q0 211 -201 211h-297v-424h297q101 1 151 57t50 156zM748 1135q175 0 303 -91q65 -47 103 -136t38 -210q0 -219 -129 -324t-309 -106h-320v-268h-260v1409h260v-274h314z" />
    <glyph glyph-name="germandbls" unicode="&#xdf;" horiz-adv-x="1165" 
d="M1176 424q0 -204 -120 -314t-333 -110h-168v201h168q63 0 125 32q40 21 64 73t24 128q0 146 -74 192t-211 46v200q120 0 151 64q23 48 23 120q0 73 -48 125t-136 52t-147 -42t-60 -140v-1051h-237v1047q0 148 90 259q47 58 136 93t209 35q329 0 411 -245q22 -61 22 -153
t-40 -160t-93 -96q26 0 76 -26q51 -26 83 -60q33 -36 59 -106t26 -164z" />
    <glyph glyph-name="agrave" unicode="&#xe0;" horiz-adv-x="1101" 
d="M309 1413h287l137 -266h-198zM515 176q93 0 163 69t70 181v59l-142 -20q-262 -37 -262 -168q0 -53 39 -87t132 -34zM567 1044q426 0 426 -421v-623h-207l-28 150q-100 -170 -318 -170q-143 0 -242 74q-100 74 -100 217q0 141 112 233t390 129l148 20v25q0 168 -178 168
t-193 -139h-246q49 337 436 337z" />
    <glyph glyph-name="aacute" unicode="&#xe1;" horiz-adv-x="1101" 
d="M563 1413h287l-223 -266h-199zM515 176q93 0 163 69t70 181v59l-142 -20q-262 -37 -262 -168q0 -53 39 -87t132 -34zM567 1044q426 0 426 -421v-623h-207l-28 150q-100 -170 -318 -170q-143 0 -242 74q-100 74 -100 217q0 141 112 233t390 129l148 20v25q0 168 -178 168
t-193 -139h-246q49 337 436 337z" />
    <glyph glyph-name="acircumflex" unicode="&#xe2;" horiz-adv-x="1101" 
d="M668 1413l206 -266h-172l-155 158l-154 -158h-174l207 266h242zM515 176q93 0 163 69t70 181v59l-142 -20q-262 -37 -262 -168q0 -53 39 -87t132 -34zM567 1044q426 0 426 -421v-623h-207l-28 150q-100 -170 -318 -170q-143 0 -242 74q-100 74 -100 217q0 141 112 233
t390 129l148 20v25q0 168 -178 168t-193 -139h-246q49 337 436 337z" />
    <glyph glyph-name="atilde" unicode="&#xe3;" horiz-adv-x="1101" 
d="M682 1159q-63 0 -143 47t-119 47q-80 0 -80 -84h-158q0 244 224 244q70 0 148 -48t114 -48q76 0 80 86h157q0 -244 -223 -244zM515 176q93 0 163 69t70 181v59l-142 -20q-262 -37 -262 -168q0 -53 39 -87t132 -34zM567 1044q426 0 426 -421v-623h-207l-28 150
q-100 -170 -318 -170q-143 0 -242 74q-100 74 -100 217q0 141 112 233t390 129l148 20v25q0 168 -178 168t-193 -139h-246q49 337 436 337z" />
    <glyph glyph-name="adieresis" unicode="&#xe4;" horiz-adv-x="1101" 
d="M213 1188v225h250v-225h-250zM633 1188v225h250v-225h-250zM515 176q93 0 163 69t70 181v59l-142 -20q-262 -37 -262 -168q0 -53 39 -87t132 -34zM567 1044q426 0 426 -421v-623h-207l-28 150q-100 -170 -318 -170q-143 0 -242 74q-100 74 -100 217q0 141 112 233
t390 129l148 20v25q0 168 -178 168t-193 -139h-246q49 337 436 337z" />
    <glyph glyph-name="aring" unicode="&#xe5;" horiz-adv-x="1101" 
d="M546 1647q103 0 176 -73t73 -176t-73 -176t-176 -73t-176 73t-73 176t73 176t176 73zM546 1300q40 0 68 29t29 69q0 40 -29 68q-28 28 -68 29q-40 0 -69 -29q-29 -28 -29 -68t30 -69q28 -29 68 -29zM515 176q93 0 163 69t70 181v59l-142 -20q-262 -37 -262 -168
q0 -53 39 -87t132 -34zM567 1044q426 0 426 -421v-623h-207l-28 150q-100 -170 -318 -170q-143 0 -242 74q-100 74 -100 217q0 141 112 233t390 129l148 20v25q0 168 -178 168t-193 -139h-246q49 337 436 337z" />
    <glyph glyph-name="ae" unicode="&#xe6;" horiz-adv-x="1869" 
d="M1288 846q-199 0 -246 -225h490q-8 97 -70 161t-174 64zM510 176q92 0 162 69t69 181v59l-143 -20q-260 -39 -260 -168q0 -53 40 -87t132 -34zM92 270q0 144 112 236t388 127l149 20v25q0 168 -177 168t-193 -139h-246q19 141 119 239t313 98q246 0 356 -178
q139 178 367 178t364 -138q138 -138 138 -384v-69h-750q8 -125 76 -201t169 -76q191 0 241 137h254q-27 -96 -80 -166q-53 -71 -121 -105q-123 -63 -263 -62q-140 0 -259 58t-168 181q-53 -98 -166 -169q-113 -70 -269 -70t-255 74t-99 216z" />
    <glyph glyph-name="ccedilla" unicode="&#xe7;" horiz-adv-x="1144" 
d="M340 509q0 -159 74 -240t196 -81q201 0 230 168h252q-25 -156 -130 -259t-305 -115l-34 -66q182 0 182 -162q0 -68 -51 -116q-50 -48 -154 -48t-194 41v121q90 -45 162 -45t71 49q0 61 -100 62q-43 0 -82 -6l82 172q-211 18 -332 158t-121 378t140 381t370 143t349 -116
q120 -116 134 -279h-250q-10 78 -65 131q-55 54 -169 54q-115 0 -185 -83t-70 -242z" />
    <glyph glyph-name="egrave" unicode="&#xe8;" horiz-adv-x="1179" 
d="M344 1413h287l137 -266h-199zM598 846q-201 0 -246 -225h490q-8 97 -70 161t-174 64zM86 509q0 251 144 393t366 142t358 -138q137 -138 138 -384v-69h-750q8 -125 76 -201t173 -76t161 41q55 41 75 96h254q-49 -172 -179 -253t-290 -80q-238 0 -382 139t-144 390z" />
    <glyph glyph-name="eacute" unicode="&#xe9;" horiz-adv-x="1179" 
d="M580 1413h286l-223 -266h-199zM598 846q-201 0 -246 -225h490q-8 97 -70 161t-174 64zM86 509q0 251 144 393t366 142t358 -138q137 -138 138 -384v-69h-750q8 -125 76 -201t173 -76t161 41q55 41 75 96h254q-49 -172 -179 -253t-290 -80q-238 0 -382 139t-144 390z" />
    <glyph glyph-name="ecircumflex" unicode="&#xea;" horiz-adv-x="1179" 
d="M709 1413l206 -266h-172l-155 158l-154 -158h-174l207 266h242zM598 846q-201 0 -246 -225h490q-8 97 -70 161t-174 64zM86 509q0 251 144 393t366 142t358 -138q137 -138 138 -384v-69h-750q8 -125 76 -201t173 -76t161 41q55 41 75 96h254q-49 -172 -179 -253t-290 -80
q-238 0 -382 139t-144 390z" />
    <glyph glyph-name="edieresis" unicode="&#xeb;" horiz-adv-x="1179" 
d="M256 1188v225h250v-225h-250zM676 1188v225h250v-225h-250zM598 846q-201 0 -246 -225h490q-8 97 -70 161t-174 64zM86 509q0 251 144 393t366 142t358 -138q137 -138 138 -384v-69h-750q8 -125 76 -201t173 -76t161 41q55 41 75 96h254q-49 -172 -179 -253t-290 -80
q-238 0 -382 139t-144 390z" />
    <glyph glyph-name="igrave" unicode="&#xec;" horiz-adv-x="524" 
d="M-41 1413h287l137 -266h-199zM385 0h-246v1024h246v-1024z" />
    <glyph glyph-name="iacute" unicode="&#xed;" horiz-adv-x="526" 
d="M254 1413h287l-224 -266h-198zM385 0h-246v1024h246v-1024z" />
    <glyph glyph-name="icircumflex" unicode="&#xee;" horiz-adv-x="524" 
d="M381 1413l207 -266h-172l-156 158l-154 -158h-174l207 266h242zM385 0h-246v1024h246v-1024z" />
    <glyph glyph-name="idieresis" unicode="&#xef;" horiz-adv-x="524" 
d="M-74 1188v225h250v-225h-250zM346 1188v225h250v-225h-250zM385 0h-246v1024h246v-1024z" />
    <glyph glyph-name="eth" unicode="&#xf0;" horiz-adv-x="1230" 
d="M606 166q135 0 207 100t72 266q0 55 -8 89q-29 123 -103 180t-170 57q-135 0 -206 -91q-70 -91 -70 -256t72 -255t206 -90zM1145 668q0 -364 -159 -545q-58 -66 -156 -108t-228 -42q-232 -1 -374 141t-142 398t135 390t344 134q89 0 183 -35t145 -118q-72 289 -320 385
l-81 -174l-142 67l66 144q-74 12 -158 12l29 213q121 0 223 -23l70 150l143 -68l-59 -127q236 -86 358 -293t123 -501z" />
    <glyph glyph-name="ntilde" unicode="&#xf1;" horiz-adv-x="1200" 
d="M762 1159q-66 0 -144 47t-118 47q-80 0 -80 -84h-158q0 244 223 244q70 0 148 -48t115 -48q76 0 79 86h158q0 -244 -223 -244zM834 596q0 236 -181 238q-121 0 -195 -90t-73 -248v-496h-246v1024h207l29 -180q130 200 370 200q334 0 334 -421v-623h-245v596z" />
    <glyph glyph-name="ograve" unicode="&#xf2;" horiz-adv-x="1226" 
d="M369 1413h286l138 -266h-199zM618 1044q244 0 382 -139t138 -395t-138 -393t-381 -137t-388 139t-145 391t144 393t388 141zM887 508q0 148 -67 236q-67 90 -207 90q-141 0 -207 -90t-66 -236q0 -148 66 -234t206 -86t208 86q67 86 67 234z" />
    <glyph glyph-name="oacute" unicode="&#xf3;" horiz-adv-x="1226" 
d="M592 1413h287l-224 -266h-198zM618 1044q244 0 382 -139t138 -395t-138 -393t-381 -137t-388 139t-145 391t144 393t388 141zM887 508q0 148 -67 236q-67 90 -207 90q-141 0 -207 -90t-66 -236q0 -148 66 -234t206 -86t208 86q67 86 67 234z" />
    <glyph glyph-name="ocircumflex" unicode="&#xf4;" horiz-adv-x="1226" 
d="M731 1413l207 -266h-172l-156 158l-153 -158h-174l206 266h242zM618 1044q244 0 382 -139t138 -395t-138 -393t-381 -137t-388 139t-145 391t144 393t388 141zM887 508q0 148 -67 236q-67 90 -207 90q-141 0 -207 -90t-66 -236q0 -148 66 -234t206 -86t208 86
q67 86 67 234z" />
    <glyph glyph-name="otilde" unicode="&#xf5;" horiz-adv-x="1226" 
d="M750 1159q-66 0 -144 47t-119 47q-80 0 -79 -84h-158q0 244 223 244q70 0 148 -48t114 -48q76 0 80 86h158q0 -244 -223 -244zM618 1044q244 0 382 -139t138 -395t-138 -393t-381 -137t-388 139t-145 391t144 393t388 141zM887 508q0 148 -67 236q-67 90 -207 90
q-141 0 -207 -90t-66 -236q0 -148 66 -234t206 -86t208 86q67 86 67 234z" />
    <glyph glyph-name="odieresis" unicode="&#xf6;" horiz-adv-x="1226" 
d="M274 1188v225h250v-225h-250zM694 1188v225h250v-225h-250zM618 1044q244 0 382 -139t138 -395t-138 -393t-381 -137t-388 139t-145 391t144 393t388 141zM887 508q0 148 -67 236q-67 90 -207 90q-141 0 -207 -90t-66 -236q0 -148 66 -234t206 -86t208 86q67 86 67 234z
" />
    <glyph glyph-name="divide" unicode="&#xf7;" horiz-adv-x="1198" 
d="M1077 768v-221h-887v221h887zM514 141v250h248v-250h-248zM514 922v252h248v-252h-248z" />
    <glyph glyph-name="oslash" unicode="&#xf8;" horiz-adv-x="1226" 
d="M612 834q-120 0 -196 -75t-76 -251q0 -109 35 -182l344 489q-44 19 -107 19zM887 508q0 131 -51 211l-353 -506q51 -25 129 -25q275 1 275 320zM612 1044q137 0 236 -43l88 125l125 -88l-82 -112q160 -136 160 -404q-1 -268 -139 -405t-388 -137q-143 0 -256 53l-86 -121
l-123 88l84 121q-145 139 -145 390t144 392t382 141z" />
    <glyph glyph-name="ugrave" unicode="&#xf9;" horiz-adv-x="1185" 
d="M289 1413h286l138 -266h-199zM449 -20q-324 0 -324 417v627h246v-592q0 -121 37 -182q36 -62 142 -62t178 92t73 248v496h246v-1024h-207l-31 178q-129 -198 -360 -198z" />
    <glyph glyph-name="uacute" unicode="&#xfa;" horiz-adv-x="1185" 
d="M588 1413h286l-223 -266h-198zM449 -20q-324 0 -324 417v627h246v-592q0 -121 37 -182q36 -62 142 -62t178 92t73 248v496h246v-1024h-207l-31 178q-129 -198 -360 -198z" />
    <glyph glyph-name="ucircumflex" unicode="&#xfb;" horiz-adv-x="1185" 
d="M694 1413l207 -266h-172l-156 158l-153 -158h-174l207 266h241zM449 -20q-324 0 -324 417v627h246v-592q0 -121 37 -182q36 -62 142 -62t178 92t73 248v496h246v-1024h-207l-31 178q-129 -198 -360 -198z" />
    <glyph glyph-name="udieresis" unicode="&#xfc;" horiz-adv-x="1185" 
d="M246 1188v225h250v-225h-250zM666 1188v225h249v-225h-249zM449 -20q-324 0 -324 417v627h246v-592q0 -121 37 -182q36 -62 142 -62t178 92t73 248v496h246v-1024h-207l-31 178q-129 -198 -360 -198z" />
    <glyph glyph-name="yacute" unicode="&#xfd;" horiz-adv-x="1054" 
d="M502 1413h286l-223 -266h-198zM266 -408h-131v211h88q72 0 107 30t65 116l35 100l-403 975h260l258 -715l250 715h233l-457 -1233q-78 -199 -305 -199z" />
    <glyph glyph-name="thorn" unicode="&#xfe;" horiz-adv-x="1236" 
d="M634 188q122 0 184 84t63 240q0 322 -246 322q-123 0 -186 -84t-63 -239t62 -239q64 -84 186 -84zM139 1413h246v-539q104 170 307 170t323 -142t120 -397t-119 -390q-120 -135 -326 -135t-311 167v-536h-240v1802z" />
    <glyph glyph-name="ydieresis" unicode="&#xff;" horiz-adv-x="1054" 
d="M215 1188v225h250v-225h-250zM635 1188v225h250v-225h-250zM266 -408h-131v211h88q72 0 107 30t65 116l35 100l-403 975h260l258 -715l250 715h233l-457 -1233q-78 -199 -305 -199z" />
    <glyph glyph-name="dotlessi" unicode="&#x131;" horiz-adv-x="436" 
d="M338 0h-240v1024h240v-1024z" />
    <glyph glyph-name="Lslash" unicode="&#x141;" horiz-adv-x="1138" 
d="M420 209h665v-209h-911v516l-166 -102v268l166 102v625h246v-471l379 238v-271l-379 -235v-461z" />
    <glyph glyph-name="lslash" unicode="&#x142;" horiz-adv-x="624" 
d="M444 -12q-123 0 -214 76t-91 208v310l-139 -82v225l139 84v618h246v-466l170 106v-229l-170 -105v-418q0 -53 40 -85t93 -31l37 2v-203q-52 -10 -111 -10z" />
    <glyph glyph-name="OE" unicode="&#x152;" horiz-adv-x="2263" 
d="M778 1223q-206 -1 -314 -137t-108 -387t113 -381t319 -130t317 134q109 134 109 388q0 256 -115 385q-116 128 -321 128zM2175 1413v-211h-709v-371h588v-208h-588v-414h709v-209h-954v145q-166 -166 -435 -165q-309 0 -495 189q-187 189 -187 535t186 538t496 192
q266 0 435 -168v147h954z" />
    <glyph glyph-name="oe" unicode="&#x153;" horiz-adv-x="1992" 
d="M1401 846q-203 0 -250 -225h491q-10 101 -72 163t-169 62zM610 834q-138 0 -204 -90t-66 -236q0 -148 66 -234t206 -86t208 86q67 86 67 232t-70 238q-70 90 -207 90zM1413 -20q-135 0 -239 56t-160 144q-50 -88 -154 -144t-252 -56q-233 0 -378 140q-144 140 -144 392
t144 392t378 140q156 0 258 -59t150 -143q129 203 391 202q207 0 346 -135t139 -383v-73h-749q6 -125 76 -201t170 -76q101 0 159 39t78 98h256q-79 -262 -339 -319q-65 -14 -130 -14z" />
    <glyph glyph-name="Scaron" unicode="&#x160;" horiz-adv-x="1327" 
d="M535 1577l-197 266h174l143 -157l146 157h172l-197 -266h-241zM659 1231q-264 0 -264 -180q0 -85 59 -126t131 -60q73 -19 139 -33t105 -25q177 -47 283 -137t106 -282t-150 -300t-412 -108t-399 123q-136 124 -151 329h254q18 -250 312 -250q137 0 216 52t79 150
t-56 147q-56 48 -182 78q-37 9 -131 29q-341 72 -421 227q-36 71 -36 169q0 184 131 292t398 108t379 -121t122 -281h-251q-10 96 -68 148t-193 51z" />
    <glyph glyph-name="scaron" unicode="&#x161;" horiz-adv-x="1046" 
d="M397 1167l-196 267h174l143 -158l146 158h172l-197 -267h-242zM526 1044q194 0 301 -94q106 -94 121 -243h-246q-18 139 -177 139t-158 -111q0 -48 24 -66q23 -17 37 -25t84 -24q70 -15 135 -22q237 -42 300 -166q28 -55 28 -133q0 -166 -123 -243t-315 -76
q-410 0 -449 337h246q23 -141 205 -141t182 113q0 78 -74 102q-74 25 -147 34q-74 9 -101 15q-287 51 -286 293q0 150 109 231q110 80 304 80z" />
    <glyph glyph-name="Ydieresis" unicode="&#x178;" horiz-adv-x="1269" 
d="M328 1597v226h250v-226h-250zM748 1597v226h249v-226h-249zM512 0v547l-477 866h278l332 -653l330 653h260l-477 -866v-547h-246z" />
    <glyph glyph-name="Zcaron" unicode="&#x17d;" horiz-adv-x="1245" 
d="M539 1577l-197 266h174l143 -157l146 157h172l-197 -266h-241zM1174 1413v-211q-33 -43 -405 -490t-411 -503h818v-209h-1106v209q38 53 406 499t403 494h-787v211h1082z" />
    <glyph glyph-name="zcaron" unicode="&#x17e;" horiz-adv-x="1003" 
d="M408 1167l-197 267h174l143 -158l146 158h172l-197 -267h-241zM926 1024v-211l-559 -604h585v-209h-901v209l561 604h-540v211h854z" />
    <glyph glyph-name="florin" unicode="&#x192;" horiz-adv-x="1198" 
d="M236 -215q46 0 93 30q46 30 56 83l158 897h-148l35 194h145q35 178 52 221q39 98 131 154t183 56q91 1 151 -25l-33 -183q-29 16 -75 16t-91 -29q-45 -30 -55 -83l-25 -127h207l-35 -194h-205q-53 -301 -159 -908q-34 -167 -157 -238q-94 -53 -184 -55t-149 25l33 182
q26 -16 72 -16z" />
    <glyph glyph-name="circumflex" unicode="&#x2c6;" horiz-adv-x="1136" 
d="M688 1413l207 -266h-172l-156 158l-153 -158h-174l206 266h242z" />
    <glyph glyph-name="caron" unicode="&#x2c7;" horiz-adv-x="1116" 
d="M436 1167l-196 267h174l143 -158l145 158h172l-196 -267h-242z" />
    <glyph glyph-name="breve" unicode="&#x2d8;" horiz-adv-x="993" 
d="M496 1327q42 0 70 25t28 61h133q0 -85 -62 -151q-61 -66 -167 -66t-169 67q-62 67 -63 150h129q0 -35 29 -61t72 -25z" />
    <glyph glyph-name="dotaccent" unicode="&#x2d9;" horiz-adv-x="456" 
d="M96 1208v226h266v-226h-266z" />
    <glyph glyph-name="ring" unicode="&#x2da;" horiz-adv-x="946" 
d="M472 1647q103 0 176 -73t73 -176t-73 -176t-176 -73t-176 73t-73 176t73 176t176 73zM472 1300q40 0 69 29t29 69t-30 68q-28 28 -68 29q-40 0 -69 -29q-29 -28 -29 -68t30 -69q28 -29 68 -29z" />
    <glyph glyph-name="ogonek" unicode="&#x2db;" horiz-adv-x="946" 
d="M401 -207q0 -67 37 -97t74 -30t68 13t43 28l14 14l41 -49q-24 -32 -77 -57q-54 -25 -132 -25t-139 54t-62 139q1 180 226 217h118q-211 -53 -211 -207z" />
    <glyph glyph-name="tilde" unicode="&#x2dc;" horiz-adv-x="1030" 
d="M653 1159q-63 0 -143 47t-119 47q-80 0 -80 -84h-157q0 244 223 244q69 0 147 -48t115 -48q76 0 80 86h158q-1 -244 -224 -244z" />
    <glyph glyph-name="hungarumlaut" unicode="&#x2dd;" horiz-adv-x="1128" 
 />
    <glyph glyph-name="pi" unicode="&#x3c0;" horiz-adv-x="1028" 
d="M1081 1047v-199h-153v-848h-240v848h-276v-848h-238v848h-151v199h1058z" />
    <glyph glyph-name="endash" unicode="&#x2013;" horiz-adv-x="1148" 
d="M86 479v236h975v-236h-975z" />
    <glyph glyph-name="emdash" unicode="&#x2014;" horiz-adv-x="2154" 
d="M86 479v236h1980v-236h-1980z" />
    <glyph glyph-name="quoteleft" unicode="&#x2018;" horiz-adv-x="489" 
d="M96 874v256q35 174 215 283h92q-45 -38 -85 -116q-40 -77 -39 -146v-21h79v-256h-262z" />
    <glyph glyph-name="quoteright" unicode="&#x2019;" horiz-adv-x="520" 
d="M403 1413v-256q-18 -88 -77 -162t-138 -121h-92q14 12 35 34q20 22 55 90t35 139v20h-80v256h262z" />
    <glyph glyph-name="quotesinglbase" unicode="&#x201a;" horiz-adv-x="520" 
d="M403 256v-256q-18 -88 -77 -162t-138 -121h-92q14 12 35 34q20 23 55 91t35 138v20h-80v256h262z" />
    <glyph glyph-name="quotedblleft" unicode="&#x201c;" horiz-adv-x="903" 
d="M512 874v256q35 176 213 283h94q-15 -12 -35 -34q-20 -23 -55 -91t-35 -137v-21h80v-256h-262zM96 874v256q35 174 215 283h92q-45 -38 -85 -116q-40 -77 -39 -146v-21h79v-256h-262z" />
    <glyph glyph-name="quotedblright" unicode="&#x201d;" horiz-adv-x="919" 
d="M803 1413v-256q-17 -88 -77 -162t-138 -121h-92q45 38 85 116q40 77 40 147v20h-80v256h262zM403 1413v-256q-18 -88 -77 -162t-138 -121h-92q14 12 35 34q20 22 55 90t35 139v20h-80v256h262z" />
    <glyph glyph-name="quotedblbase" unicode="&#x201e;" horiz-adv-x="919" 
d="M803 256v-256q-17 -88 -77 -162t-138 -121h-92q45 38 85 116q40 77 40 147v20h-80v256h262zM403 256v-256q-18 -88 -77 -162t-138 -121h-92q14 12 35 34q20 23 55 91t35 138v20h-80v256h262z" />
    <glyph glyph-name="dagger" unicode="&#x2020;" horiz-adv-x="1028" 
d="M958 1044v-194h-323v-1124h-240v1124h-325v194h325v363h240v-363h323z" />
    <glyph glyph-name="daggerdbl" unicode="&#x2021;" horiz-adv-x="1189" 
d="M1057 1053v-193h-322v-541h322v-192h-322v-358h-239v358h-324v192h324v541h-324v193h324v354h239v-354h322z" />
    <glyph glyph-name="bullet" unicode="&#x2022;" horiz-adv-x="819" 
d="M680 514q0 -114 -79 -192t-191 -78t-192 79q-79 79 -79 191t79 192q79 78 192 78q114 0 192 -78t78 -192z" />
    <glyph glyph-name="perthousand" unicode="&#x2030;" horiz-adv-x="2502" 
d="M1794 404q0 424 331 423q331 0 331 -424t-332 -423q-330 0 -330 424zM2124 674q-78 0 -112 -64t-34 -208t34 -206t112 -62t112 62t35 206q-1 144 -35 208t-112 64zM1339 827q332 0 332 -424t-332 -423q-332 0 -332 424t332 423zM1339 674q-77 0 -111 -62t-34 -208
t34 -208t112 -62t112 62q35 62 35 206t-35 208t-113 64zM377 1393q332 0 332 -424t-332 -424t-332 424t332 424zM377 1239q-78 0 -112 -62q-34 -61 -34 -207t34 -208t112 -64q79 0 113 62t34 208q0 144 -34 208t-113 63zM1241 1485l125 -72l-854 -1485l-125 72z" />
    <glyph glyph-name="guilsinglleft" unicode="&#x2039;" horiz-adv-x="794" 
d="M678 965l-324 -449l324 -455h-240l-321 455l321 449h240z" />
    <glyph glyph-name="guilsinglright" unicode="&#x203a;" horiz-adv-x="794" 
d="M442 516l-325 449h239l322 -449l-322 -455h-239z" />
    <glyph glyph-name="fraction" unicode="&#x2044;" horiz-adv-x="120" 
d="M426 1485l125 -72l-856 -1485l-125 72z" />
    <glyph glyph-name="Euro" unicode="&#x20ac;" horiz-adv-x="1198" 
d="M27 463v153h761l-83 -151h-244q68 -256 315 -256q197 0 283 158l184 -174q-83 -109 -193 -162t-274 -54q-217 0 -372 127t-207 359h-170zM27 762v153h166q47 250 197 384q151 134 386 135q313 0 469 -230l-188 -164q-84 162 -281 162q-256 0 -321 -287h501l-86 -153h-843
z" />
    <glyph glyph-name="trademark" unicode="&#x2122;" horiz-adv-x="1673" 
d="M1561 1407v-789h-138v629l-198 -629h-146l-205 629v-629h-137v789h215l201 -627l201 627h207zM66 1407h598v-127h-226v-662h-145v662h-227v127z" />
    <glyph glyph-name="Omega" unicode="&#x2126;" horiz-adv-x="1513" 
d="M1466 745q0 -354 -299 -546h246v-199h-493v203q307 174 307 542q0 233 -120 361q-119 128 -315 129q-196 0 -316 -127t-120 -363q0 -371 306 -542v-203h-494v199h246q-299 195 -299 546q0 315 185 501t489 188q305 0 491 -186t186 -503z" />
    <glyph glyph-name="arrowleft" unicode="&#x2190;" horiz-adv-x="1511" 
d="M1458 811v-227h-960l440 -424h-348l-539 538l539 539h348l-440 -426h960z" />
    <glyph glyph-name="arrowup" unicode="&#x2191;" horiz-adv-x="1511" 
d="M868 0h-225v961l-424 -441v348l539 539l538 -539v-348l-428 441v-961z" />
    <glyph glyph-name="arrowright" unicode="&#x2192;" horiz-adv-x="1511" 
d="M51 584v227h963l-441 426h349l536 -539l-536 -538h-349l441 424h-963z" />
    <glyph glyph-name="arrowdown" unicode="&#x2193;" horiz-adv-x="1511" 
d="M645 1407h225v-963l426 441v-346l-538 -539l-539 539v346l426 -441v963z" />
    <glyph glyph-name="arrowboth" unicode="&#x2194;" horiz-adv-x="2447" 
d="M1948 811l-441 424h348l537 -539l-537 -538h-348l441 426h-1448l440 -424h-348l-539 538l539 539h348l-440 -426h1448z" />
    <glyph glyph-name="arrowrightdown" unicode="&#x21b4;" horiz-adv-x="1511" 
d="M1292 184h-764l-245 246l616 -10l-682 678l158 159l672 -682v617l245 -246v-762z" />
    <glyph glyph-name="partialdiff" unicode="&#x2202;" horiz-adv-x="1210" 
d="M696 1217q-86 -1 -134 -47t-52 -134l-244 43q10 169 112 261t277 94q309 0 439 -193q167 -247 58 -729q-19 -88 -61 -194q-43 -106 -99 -177t-149 -119t-210 -49q-238 0 -380 131t-110 388q21 188 151 305t304 116q135 0 240 -66q104 -67 127 -198q30 148 16 259
q-14 110 -44 169t-93 99q-62 40 -148 41zM614 186q102 0 174 64q70 64 85 168q15 106 -47 190t-174 85t-182 -64q-71 -65 -83 -184q-11 -119 57 -189t170 -70z" />
    <glyph glyph-name="Delta" unicode="&#x2206;" horiz-adv-x="1265" 
d="M717 1204l-422 -997h835zM1356 0h-1284v207l524 1204h242l518 -1204v-207z" />
    <glyph glyph-name="product" unicode="&#x220f;" horiz-adv-x="1308" 
d="M1405 1407v-231h-201v-1176h-260v1176h-426v-1176h-260v1176h-199v231h1346z" />
    <glyph glyph-name="summation" unicode="&#x2211;" horiz-adv-x="1026" 
d="M1006 1407v-231h-607l521 -580l-521 -582h607v-229h-955v213l533 598l-533 596v215h955z" />
    <glyph glyph-name="minus" unicode="&#x2212;" horiz-adv-x="1275" 
d="M1085 805v-209h-907v209h907z" />
    <glyph glyph-name="radical" unicode="&#x221a;" horiz-adv-x="1198" 
d="M61 633v203h381l213 -578l342 1178h211l-434 -1436h-217l-254 633h-242z" />
    <glyph glyph-name="infinity" unicode="&#x221e;" horiz-adv-x="1433" 
d="M975 1016q121 0 197 -62t102 -140q52 -162 0 -330q-25 -77 -102 -139t-197 -62q-154 0 -244 145q-88 -145 -246 -145q-91 1 -157 35t-101 92q-65 107 -65 239t65 240q35 57 102 92t156 35q156 0 246 -146q88 146 244 146zM492 516q70 0 104 32t47 101q-12 68 -46 100
t-105 31q-127 0 -127 -132t127 -132zM968 516q128 0 128 132t-129 132t-148 -131q21 -133 149 -133z" />
    <glyph glyph-name="integral" unicode="&#x222b;" horiz-adv-x="534" 
d="M469 1102v-1196q-1 -68 -25 -138t-103 -118q-79 -47 -166 -48t-148 25v185q87 -42 163 13q41 30 41 81v1196q0 179 128 256q79 47 165 48t150 -26v-184q-33 16 -79 16t-86 -30t-40 -80z" />
    <glyph glyph-name="approxequal" unicode="&#x2248;" horiz-adv-x="954" 
d="M385 319q-80 0 -80 -86h-158q0 248 222 248q71 0 151 -43t113 -43q80 0 80 86h157q0 -248 -221 -248q-65 0 -145 43t-119 43zM385 647q-80 0 -80 -86h-158q0 248 222 248q71 0 151 -43t113 -43q80 0 80 86h157q0 -248 -221 -248q-65 0 -145 43t-119 43z" />
    <glyph glyph-name="notequal" unicode="&#x2260;" horiz-adv-x="1198" 
d="M205 715v200h485l92 158l215 -14l-84 -144h131v-200h-245l-115 -197h360v-199h-475l-104 -180l-217 13l98 167h-141v199h256l114 197h-370z" />
    <glyph glyph-name="lessequal" unicode="&#x2264;" horiz-adv-x="1198" 
d="M1090 219v-219h-930v219h930zM1090 406l-930 385v165l930 387v-231l-695 -238l695 -235v-233z" />
    <glyph glyph-name="greaterequal" unicode="&#x2265;" horiz-adv-x="1198" 
d="M1073 791l-928 -385v233l695 235l-695 238v231l928 -387v-165zM1073 219v-219h-928v219h928z" />
    <glyph glyph-name="lozenge" unicode="&#x25ca;" horiz-adv-x="1368" 
d="M999 707l-299 499l-307 -504l299 -503zM573 0l-446 702l457 707h235l449 -702l-457 -707h-238z" />
    <glyph glyph-name="CR" horiz-adv-x="1337" 
 />
    <glyph glyph-name="l.ss06" horiz-adv-x="524" 
d="M385 1434v-1434h-246v1434h246z" />
    <glyph glyph-name="y.ss02" horiz-adv-x="1202" 
d="M1096 1024l-527 -1413h-233l164 438l-406 975h260l258 -715l250 715h234z" />
    <glyph glyph-name="g.ss03" horiz-adv-x="1212" 
d="M827 528q0 134 -61 220t-187 86q-125 0 -187 -81t-62 -223q0 -301 254 -301q121 0 182 82t61 217zM1073 1024v-961q0 -249 -128 -361t-345 -112q-420 0 -475 338h248q10 -74 69 -114t163 -41q104 0 163 60t59 163v194q-100 -170 -304 -170q-205 0 -325 138t-120 382
t117 374t325 130t316 -172l28 152h209z" />
    <glyph glyph-name="G.ss04" horiz-adv-x="1560" 
d="M793 1223q-209 1 -323 -135t-114 -387t115 -382t322 -131q371 0 393 338h-359v209h613v-73q0 -334 -174 -508t-478 -174t-494 188q-189 188 -190 534q0 346 190 539t499 193q229 0 400 -104q191 -116 232 -380h-251q-29 139 -119 206t-262 67z" />
    <glyph glyph-name="ydieresis.neogrotesk" horiz-adv-x="1069" 
d="M217 1188v225h250v-225h-250zM637 1188v225h250v-225h-250zM1034 1024l-526 -1413h-234l164 438l-405 975h260l258 -715l250 715h233z" />
    <glyph glyph-name="ampersand.ss05" horiz-adv-x="1378" 
d="M760 1084q0 70 -38 109q-38 38 -102 38t-101 -42q-38 -42 -38 -124t86 -182q35 6 72 21q37 14 79 62t42 118zM635 174q117 0 219 64l-350 397q-168 -66 -168 -219q0 -242 299 -242zM227 1102q1 136 107 234t275 98t288 -82t119 -258q0 -274 -307 -369l290 -319
q35 72 35 178h254q-6 -89 -43 -190t-84 -169l201 -225h-299l-66 74q-133 -94 -379 -94t-392 107q-146 108 -146 329q0 272 272 395q-125 113 -125 291z" />
    <glyph glyph-name="a.ss01" 
d="M588 834q-132 0 -190 -94t-58 -240t64 -229t179 -83q117 0 185 80t68 240q0 108 -44 211q-24 53 -77 84t-127 31zM1081 1024v-1024h-209l-28 152q-104 -172 -330 -172q-192 0 -310 132t-118 390t120 400t324 142t308 -170l34 150h209z" />
    <glyph glyph-name="yacute.neogrotesk" horiz-adv-x="1069" 
d="M506 1413h287l-224 -266h-198zM266 -408h-131v211h88q72 0 107 30t65 116l35 100l-403 975h260l258 -715l250 715h233l-457 -1233q-78 -199 -305 -199z" />
    <glyph glyph-name="fl.ss06" horiz-adv-x="1202" 
d="M434 1118v-94h383v410h246v-1434h-246v813h-383v-813h-246v813h-153v211h153v106q0 158 98 237t244 79q49 0 111 -10v-209q-49 8 -84 8q-123 0 -123 -117z" />
    <glyph glyph-name="ffl.ss06" horiz-adv-x="1898" 
d="M434 1118v-94h416v106q0 158 96 237t244 79q49 0 110 -10v-209q-45 8 -81 8q-123 0 -123 -117v-94h417v389h246v-1413h-246v813h-417v-813h-246v813h-416v-813h-246v813h-153v211h153v106q0 158 98 237t244 79q49 0 111 -10v-209q-49 8 -84 8q-123 0 -123 -117z" />
    <glyph glyph-name="arrowleftup" horiz-adv-x="1511" 
d="M217 1194h764l246 -246l-617 8l682 -677l-157 -160l-672 682v-615l-246 246v762z" />
    <glyph glyph-name="arrowrightup" horiz-adv-x="1511" 
d="M1292 1208v-762l-245 -245l8 614l-678 -680l-160 158l682 672l-614 -2l245 245h762z" />
    <glyph glyph-name="arrowleftdown" horiz-adv-x="1511" 
d="M217 170v764l246 246l-8 -617l680 682l157 -158l-682 -671h615l-246 -246h-762z" />
    <glyph glyph-name="agrave.ss01" 
d="M297 1413h287l137 -266h-199zM588 834q-132 0 -190 -94t-58 -240t64 -229t179 -83q117 0 185 80t68 240q0 108 -44 211q-24 53 -77 84t-127 31zM1081 1024v-1024h-209l-28 152q-104 -172 -330 -172q-192 0 -310 132t-118 390t120 400t324 142t308 -170l34 150h209z" />
    <glyph glyph-name="aacute.ss01" 
d="M588 1413h286l-223 -266h-198zM588 834q-132 0 -190 -94t-58 -240t64 -229t179 -83q117 0 185 80t68 240q0 108 -44 211q-24 53 -77 84t-127 31zM1081 1024v-1024h-209l-28 152q-104 -172 -330 -172q-192 0 -310 132t-118 390t120 400t324 142t308 -170l34 150h209z" />
    <glyph glyph-name="acircumflex.ss01" 
d="M727 1413l207 -266h-172l-156 158l-153 -158h-174l206 266h242zM588 834q-132 0 -190 -94t-58 -240t64 -229t179 -83q117 0 185 80t68 240q0 108 -44 211q-24 53 -77 84t-127 31zM1081 1024v-1024h-209l-28 152q-104 -172 -330 -172q-192 0 -310 132t-118 390t120 400
t324 142t308 -170l34 150h209z" />
    <glyph glyph-name="atilde.ss01" 
d="M737 1159q-67 0 -145 47t-117 47q-80 0 -80 -84h-157q0 244 223 244q69 0 147 -48t115 -48q76 0 80 86h158q-1 -244 -224 -244zM588 834q-132 0 -190 -94t-58 -240t64 -229t179 -83q117 0 185 80t68 240q0 108 -44 211q-24 53 -77 84t-127 31zM1081 1024v-1024h-209
l-28 152q-104 -172 -330 -172q-192 0 -310 132t-118 390t120 400t324 142t308 -170l34 150h209z" />
    <glyph glyph-name="adieresis.ss01" 
d="M272 1188v225h250v-225h-250zM692 1188v225h250v-225h-250zM588 834q-132 0 -190 -94t-58 -240t64 -229t179 -83q117 0 185 80t68 240q0 108 -44 211q-24 53 -77 84t-127 31zM1081 1024v-1024h-209l-28 152q-104 -172 -330 -172q-192 0 -310 132t-118 390t120 400
t324 142t308 -170l34 150h209z" />
    <glyph glyph-name="aring.ss01" 
d="M597 1647q103 0 176 -73t73 -176t-73 -176t-175 -73t-176 73t-74 176t73 176t176 73zM597 1300q40 0 69 29q28 29 28 69t-28 68t-69 29q-40 0 -69 -29q-28 -28 -28 -68t28 -69t69 -29zM588 834q-132 0 -190 -94t-58 -240t64 -229t179 -83q117 0 185 80t68 240
q0 108 -44 211q-24 53 -77 84t-127 31zM1081 1024v-1024h-209l-28 152q-104 -172 -330 -172q-192 0 -310 132t-118 390t120 400t324 142t308 -170l34 150h209z" />
    <glyph glyph-name="one.osf" horiz-adv-x="1013" 
d="M629 1147v-938h286v-209h-819v209h287v530h-264v209h88q176 0 176 199h246z" />
    <glyph glyph-name="two.osf" horiz-adv-x="1142" 
d="M578 1167q224 -1 334 -111t110 -286t-123 -314t-426 -247h563v-209h-950v227q503 194 614 333q41 50 55 91q13 41 13 92q0 213 -197 213t-213 -215h-254q18 199 134 313t340 113z" />
    <glyph glyph-name="zero.osf" horiz-adv-x="1189" 
d="M595 1167q382 0 489 -385q28 -100 28 -210t-28 -210t-85 -188t-161 -141t-242 -53t-244 53q-183 93 -245 314t1 448t244 319q105 53 243 53zM594 956q-127 0 -196 -97q-68 -97 -68 -287t68 -287t196 -97q127 0 197 96t69 287q0 190 -69 288q-70 97 -197 97z" />
    <glyph glyph-name="three.osf" horiz-adv-x="1087" 
d="M129 1167h821v-211l-321 -331q161 0 281 -109q120 -110 120 -316t-136 -336t-349 -130t-355 110q-141 111 -153 318h252q8 -111 76 -165q67 -54 179 -54q112 1 173 67t61 176q0 229 -248 230h-168v209l283 331h-516v211z" />
    <glyph glyph-name="four.osf" horiz-adv-x="1189" 
d="M711 209v596l-371 -596h371zM956 -246h-245v246h-660v213l660 954h245v-958h199v-209h-199v-246z" />
    <glyph glyph-name="five.osf" horiz-adv-x="1142" 
d="M991 1147v-211h-577l-52 -397q109 115 267 114q193 0 315 -124q122 -123 121 -337q0 -214 -141 -336t-347 -122t-337 104t-144 314h254q4 -96 69 -152t167 -57q102 1 165 69q62 68 62 187t-60 189t-175 71q-74 0 -126 -35t-67 -70l-14 -35l-244 91l80 737h784z" />
    <glyph glyph-name="six.osf" 
d="M628 188q120 0 181 66t61 166q0 258 -243 258q-185 0 -248 -185q-12 -36 -12 -61q9 -112 75 -178t186 -66zM688 872q186 0 310 -110t124 -342q0 -162 -110 -294q-54 -67 -154 -107q-100 -39 -227 -39q-352 1 -469 286q-64 155 -66 406q0 326 128 524t403 197
q211 -1 329 -105t131 -264h-243q-23 158 -217 158q-249 0 -282 -344q-5 -63 -5 -140q112 174 348 174z" />
    <glyph glyph-name="seven.osf" horiz-adv-x="1030" 
d="M942 1147v-211l-508 -1182h-248l516 1182h-682v211h922z" />
    <glyph glyph-name="eight.osf" horiz-adv-x="1226" 
d="M612 834q84 0 144 45q59 45 59 135t-62 129q-63 39 -141 39t-139 -39t-61 -131t58 -135t142 -43zM350 402q0 -110 79 -162t184 -52t185 52t79 164q0 110 -76 164t-188 54q-111 0 -187 -54q-76 -56 -76 -166zM158 1020q0 170 123 271t333 101t332 -102q121 -104 121 -270
q0 -94 -48 -171t-124 -120q233 -104 233 -334q0 -195 -143 -305t-378 -110t-373 108t-138 307q0 236 238 334q-80 43 -128 119t-48 172z" />
    <glyph glyph-name="nine.osf" horiz-adv-x="1214" 
d="M575 954q-102 0 -165 -60q-64 -60 -64 -171t60 -181t153 -69q217 0 272 174q12 35 13 58q-29 249 -269 249zM532 279q-186 1 -311 113t-125 339q0 170 123 303t368 133t372 -139q157 -171 157 -577q0 -341 -140 -529t-401 -188q-203 0 -321 106t-129 269h250
q10 -74 64 -118t132 -44q148 0 226 112t71 387q-113 -167 -336 -167z" />
    <glyph glyph-name="zero.tf" 
d="M610 1434q539 0 539 -728t-539 -729q-539 1 -539 729t539 728zM610 1223q-180 0 -238 -167q-46 -133 -46 -353t46 -351q56 -164 238 -164q181 0 239 164q48 137 48 353q0 378 -136 475q-61 43 -151 43z" />
    <glyph glyph-name="zero.zero.tf" 
d="M897 690q0 96 -10 182l-516 -518q66 -166 243 -166t235 164q48 138 48 338zM326 754q0 -168 8 -222l518 519q-70 172 -246 172t-234 -167q-46 -134 -46 -302zM610 1434q539 0 539 -727t-539 -727t-539 727t539 727z" />
    <glyph glyph-name="one.tf" 
d="M774 1413v-1204h369v-209h-983v209h368v797h-264v208h88q176 0 176 199h246z" />
    <glyph glyph-name="two.tf" 
d="M605 1434q218 0 343 -115t125 -294t-137 -356t-483 -460h643v-209h-971v223q297 229 456 384t199 234q41 79 41 160q0 221 -211 222q-112 0 -160 -66t-57 -182h-254q10 221 129 340t337 119z" />
    <glyph glyph-name="three.tf" 
d="M219 1413h821v-211l-321 -332q161 0 281 -106t120 -313t-136 -339t-349 -132t-354 110t-154 318h252q8 -111 76 -165q69 -55 179 -55t172 68t62 180q0 225 -247 226h-168v208l276 332h-510v211z" />
    <glyph glyph-name="four.tf" 
d="M725 582v469l-371 -469h371zM971 0h-246v373h-659v213l659 827h246v-831h198v-209h-198v-373z" />
    <glyph glyph-name="five.tf" 
d="M1026 1413v-211h-577l-52 -409q111 117 287 117t296 -120q120 -118 120 -334t-142 -346t-346 -130q-205 0 -337 106t-144 317h254q4 -100 71 -157q67 -58 168 -58t162 73q62 73 62 191t-60 184t-164 64q-103 0 -155 -45q-50 -39 -63 -82l-246 89l82 751h784z" />
    <glyph glyph-name="six.tf" 
d="M615 188q120 0 181 74q60 74 60 187q0 258 -244 258q-74 0 -128 -31q-88 -51 -119 -154q-12 -37 -13 -61q10 -123 76 -198t187 -75zM676 901q186 -1 310 -111t124 -341q0 -171 -112 -313q-56 -72 -155 -114t-227 -42q-246 0 -371 139q-161 175 -161 581q0 213 49 372
t171 260q122 102 320 102t319 -108q120 -108 132 -273h-246q-25 170 -209 170t-245 -162q-47 -126 -47 -334q57 88 138 131t210 43z" />
    <glyph glyph-name="seven.tf" 
d="M1081 1413v-211l-508 -1202h-247l516 1202h-682v211h921z" />
    <glyph glyph-name="eight.tf" 
d="M609 854q83 0 144 47q60 47 60 142t-62 137q-63 42 -141 43q-78 0 -139 -42q-61 -41 -61 -139t58 -143t141 -45zM610 188q109 0 187 52q77 52 77 170q0 117 -75 175q-76 58 -188 58q-111 0 -187 -57t-76 -175q0 -119 76 -171t186 -52zM156 1040q0 178 123 286t333 108
t331 -109q122 -109 122 -285q0 -94 -48 -171t-124 -119q233 -106 233 -324t-142 -333q-142 -116 -379 -116t-374 115t-137 324q0 236 238 334q-80 42 -128 118t-48 172z" />
    <glyph glyph-name="nine.tf" 
d="M608 1221q-112 -1 -176 -63t-64 -177t62 -183q61 -68 174 -69q72 0 127 28q55 29 83 69q54 78 54 135q-29 260 -260 260zM575 535q-207 -1 -331 115t-123 315q0 199 123 333t368 136q528 0 529 -709q0 -362 -137 -555t-402 -193q-208 1 -324 107t-128 270h247
q13 -74 65 -118t142 -46q297 0 289 512q-111 -167 -318 -167z" />
    <glyph glyph-name="zero.zero" horiz-adv-x="1230" 
d="M901 671q0 93 -10 181l-512 -514q68 -150 242 -150t232 159q48 132 48 324zM330 684q0 -106 10 -172l512 516q-66 154 -242 154t-234 -160q-46 -128 -46 -338zM614 1393q539 0 539 -707t-539 -706q-539 0 -539 706t539 707z" />
    <glyph glyph-name="yacute.ss02" horiz-adv-x="1202" 
d="M580 1413h286l-223 -266h-199zM1096 1024l-527 -1413h-233l164 438l-406 975h260l258 -715l250 715h234z" />
    <glyph glyph-name="ydieresis.ss02" horiz-adv-x="1202" 
d="M276 1188v225h250v-225h-250zM696 1188v225h250v-225h-250zM1096 1024l-527 -1413h-233l164 438l-406 975h260l258 -715l250 715h234z" />
    <glyph glyph-name="parenleft.case" horiz-adv-x="702" 
d="M104 694q0 479 240 883h236q-224 -397 -224 -883t224 -878h-236q-240 399 -240 878z" />
    <glyph glyph-name="parenright.case" horiz-adv-x="702" 
d="M256 698q0 483 -221 879h233q242 -397 242 -879t-242 -882h-233q221 399 221 882z" />
    <glyph glyph-name="bracketleft.case" horiz-adv-x="690" 
d="M121 -184v1761h463v-211h-217v-1341h217v-209h-463z" />
    <glyph glyph-name="bracketright.case" horiz-adv-x="690" 
d="M514 1577v-1761h-463v209h217v1341h-217v211h463z" />
    <glyph glyph-name="braceleft.case" horiz-adv-x="817" 
d="M121 592v209q174 0 174 133v340q0 168 92 236t287 67h37v-211h-27q-72 0 -108 -36t-35 -126v-313q0 -141 -103 -195q102 -55 103 -194v-344q0 -133 143 -133h27v-209h-37q-195 0 -287 68t-92 235v340q4 133 -174 133z" />
    <glyph glyph-name="braceright.case" horiz-adv-x="817" 
d="M467 459v-340q0 -168 -91 -236t-286 -67h-39v209h29q141 0 141 133v344q0 137 105 194q-104 53 -105 195v313q0 90 -35 126t-106 36h-29v211h39q195 0 286 -68t91 -235v-340q0 -133 174 -133v-209q-174 0 -174 -133z" />
    <glyph glyph-name="questiondown.case" horiz-adv-x="1146" 
d="M696 1413v-256h-252v256h252zM537 -20q-205 0 -318 103t-113 277t166 312q100 84 138 150t36 198h246q0 -178 -44 -267t-118 -155t-100 -94q-70 -70 -70 -149t50 -123t146 -44t150 56t54 131h246q0 -138 -107 -259q-53 -60 -147 -98t-215 -38z" />
    <glyph glyph-name="guillemotleft.case" horiz-adv-x="1204" 
d="M1087 1128l-323 -448l323 -455h-239l-322 455l322 448h239zM678 1128l-324 -448l324 -455h-240l-321 455l321 448h240z" />
    <glyph glyph-name="guillemotright.case" horiz-adv-x="1204" 
d="M852 680l-326 448h240l321 -448l-321 -455h-240zM442 680l-325 448h239l322 -448l-322 -455h-239z" />
    <glyph glyph-name="guilsinglleft.case" horiz-adv-x="794" 
d="M678 1128l-324 -448l324 -455h-240l-321 455l321 448h240z" />
    <glyph glyph-name="guilsinglright.case" horiz-adv-x="794" 
d="M442 680l-325 448h239l322 -448l-322 -455h-239z" />
    <glyph glyph-name="exclamdown.case" horiz-adv-x="649" 
d="M203 0l39 1020h166l36 -1020h-241zM199 1157v256h252v-256h-252z" />
    <glyph glyph-name="underscore.case" horiz-adv-x="974" 
d="M0 -250v103h975v-103h-975z" />
    <glyph glyph-name="bullet.case" horiz-adv-x="819" 
d="M680 678q0 -113 -79 -192q-79 -78 -191 -78t-192 78q-79 78 -79 192t79 192t192 78q114 0 192 -78t78 -192z" />
    <glyph glyph-name="periodcentered.case" horiz-adv-x="452" 
d="M96 526v256h262v-256h-262z" />
    <glyph glyph-name="hyphen.case" horiz-adv-x="782" 
d="M694 606v-211h-608v211h608z" />
    <glyph glyph-name="endash.case" horiz-adv-x="1148" 
d="M86 479v236h975v-236h-975z" />
    <glyph glyph-name="emdash.case" horiz-adv-x="2154" 
d="M86 479v236h1980v-236h-1980z" />
    <glyph glyph-name="bar.case" horiz-adv-x="526" 
d="M209 -184v1761h246v-1761h-246z" />
    <glyph glyph-name="brokenbar.case" horiz-adv-x="526" 
d="M141 -184v749h246v-749h-246zM141 827v750h246v-750h-246z" />
    <glyph glyph-name="I.ss07" horiz-adv-x="743" 
d="M70 0v209h178v993h-178v211h604v-211h-180v-993h180v-209h-604z" />
    <glyph glyph-name="zero.tosf" 
d="M595 1167q382 0 489 -385q28 -100 28 -210t-28 -210t-85 -188t-161 -141t-242 -53t-244 53q-183 93 -245 314t1 448t244 319q105 53 243 53zM594 956q-127 0 -196 -97q-68 -97 -68 -287t68 -287t196 -97q127 0 197 96t69 287q0 190 -69 288q-70 97 -197 97z" />
    <glyph glyph-name="one.tosf" 
d="M776 1147v-938h369v-209h-983v209h368v530h-264v209h86q178 0 178 199h246z" />
    <glyph glyph-name="two.tosf" 
d="M618 1167q223 -1 334 -111t111 -286t-123 -314t-426 -247h563v-209h-950v227q503 194 614 333q41 50 55 91q13 41 13 92q0 213 -197 213t-213 -215h-254q18 199 134 313t339 113z" />
    <glyph glyph-name="three.tosf" 
d="M199 1167h819v-211l-322 -331q162 0 283 -109q121 -110 121 -316t-136 -336t-350 -130t-354 110q-141 110 -154 318h252q8 -111 75 -165t179 -54q112 -1 172 65q61 66 62 178q0 229 -248 230h-166v209l283 331h-516v211z" />
    <glyph glyph-name="four.tosf" 
d="M739 209v596l-370 -596h370zM985 -246h-246v246h-657v213l657 954h246v-958h201v-209h-201v-246z" />
    <glyph glyph-name="five.tosf" 
d="M1026 1147v-211h-580l-51 -397q109 115 267 114q194 0 316 -125q122 -124 122 -336t-142 -335t-349 -123q-206 0 -336 104t-142 314h252q5 -98 69 -154t168 -55t164 69q62 68 62 186t-60 190t-174 71q-76 0 -128 -35t-66 -70l-15 -35l-243 91l80 737h786z" />
    <glyph glyph-name="six.tosf" 
d="M617 188q120 0 181 74q60 74 60 187q0 258 -244 258q-74 0 -128 -31t-80 -74q-49 -79 -52 -141q10 -123 76 -198t187 -75zM678 901q186 -1 310 -111t124 -341q0 -171 -112 -313q-56 -72 -155 -114t-227 -42q-246 0 -371 139q-161 175 -161 581q0 213 49 372t171 260
q122 102 320 102t319 -108q120 -108 132 -273h-246q-25 170 -209 170t-245 -162q-47 -126 -47 -334q57 88 138 131t210 43z" />
    <glyph glyph-name="seven.tosf" 
d="M1071 1147v-211l-510 -1182h-246l514 1182h-682v211h924z" />
    <glyph glyph-name="eight.tosf" 
d="M607 854q83 0 143 47q59 47 59 142t-61 137q-60 42 -140 43q-80 0 -141 -42q-61 -41 -61 -139t59 -143t142 -45zM608 188q109 0 186 52q76 52 76 171q0 118 -75 175q-76 57 -188 57q-111 0 -187 -58t-76 -175q0 -118 78 -170t186 -52zM154 1031q0 187 122 295
q123 108 333 108t332 -109t122 -285q0 -94 -49 -171t-125 -119q236 -106 235 -334q0 -207 -142 -323t-379 -116t-374 115t-137 324q0 236 238 334q-176 94 -176 281z" />
    <glyph glyph-name="nine.tosf" 
d="M596 954q-120 0 -184 -60t-64 -172t60 -180t154 -69q166 0 233 98q51 77 51 134q-12 113 -72 181q-58 68 -178 68zM537 279q-186 0 -312 112q-125 113 -125 340q0 172 123 304t357 132q366 0 478 -298q62 -164 62 -418q0 -341 -140 -529t-400 -188q-205 0 -322 106
t-129 269h248q10 -74 64 -118q55 -44 143 -44t149 42q139 96 139 457q-112 -167 -335 -167z" />
    <glyph glyph-name="numbersign.tf" 
d="M549 860l-100 -368h221l98 368h-219zM33 287v205h176l98 368h-213v209h271l94 344h241l-96 -344h221l95 344h237l-98 -344h129v-209h-184l-99 -368h221v-205h-276l-78 -287h-235l77 287h-219l-78 -287h-241l78 287h-121z" />
    <glyph glyph-name="dollar.tf" 
d="M346 1051q0 -74 45 -114t131 -67v353q-176 -27 -176 -172zM915 393q0 88 -54 134t-163 75v-414q217 23 217 205zM698 1579v-152q395 -35 424 -395h-252q-16 162 -172 189v-394l82 -20q387 -92 389 -404q0 -187 -127 -295t-344 -126v-150h-176v152q-225 22 -339 142
t-126 306h254q14 -203 211 -242v453q-214 49 -322 133t-108 255t110 275t320 121v152h176z" />
    <glyph glyph-name="plus.tf" 
d="M506 1012h209v-379h381v-211h-381v-379h-209v379h-379v211h379v379z" />
    <glyph glyph-name="less.tf" 
d="M1075 57l-928 387v166l928 387v-245l-637 -226l637 -225v-244z" />
    <glyph glyph-name="equal.tf" 
d="M156 373v209h907v-209h-907zM156 768v211h907v-211h-907z" />
    <glyph glyph-name="greater.tf" 
d="M147 997l928 -387v-168l-928 -387v246l637 225l-637 226v245z" />
    <glyph glyph-name="asciitilde.tf" 
d="M487 594q-80 0 -79 -88h-158q0 250 221 250q68 0 149 -44t115 -44q80 0 80 88h158q0 -250 -221 -250q-66 0 -146 44t-119 44z" />
    <glyph glyph-name="cent.tf" 
d="M618 1038q-114 0 -185 -83t-71 -241t73 -240q73 -81 196 -81q199 0 231 168h252q-27 -158 -132 -261t-308 -116v-184h-105v186q-215 18 -338 158t-123 370t123 371t338 162v162h105v-162q198 -11 306 -125t122 -268h-250q-10 76 -66 130q-54 54 -168 54z" />
    <glyph glyph-name="sterling.tf" 
d="M639 1413q424 0 424 -383h-260q0 160 -161 160t-161 -150v-311h336v-192h-336v-168q0 -113 -84 -148h400q77 2 101 42t24 108h258q0 -194 -93 -284q-37 -35 -107 -61t-163 -26h-768v221q120 0 152 59q20 40 20 85v172h-170v192h170v311q0 130 83 241q44 58 130 95t205 37
z" />
    <glyph glyph-name="currency.tf" 
d="M1130 512q0 -160 -90 -291l164 -164l-137 -137l-164 164q-127 -90 -292 -90t-292 90l-163 -164l-138 137l164 164q-90 131 -90 291t90 291l-164 164l138 137l163 -164q131 90 292 90t292 -90l164 164l137 -137l-164 -164q90 -131 90 -291zM291 512q0 -130 93 -226
t227 -96q135 0 229 96t93 227q-1 132 -96 225t-225 93t-226 -94q-95 -94 -95 -225z" />
    <glyph glyph-name="yen.tf" 
d="M1063 688v-151h-330v-148h330v-151h-330v-238h-246v238h-342v151h342v148h-342v151h261l-375 725h278l312 -657l307 657h262l-379 -725h252z" />
    <glyph glyph-name="section.tf" 
d="M813 641q0 47 -34 77q-33 30 -71 38t-103 17t-89 15q-88 -20 -88 -107t82 -115q59 -20 136 -27q77 -8 102 -15q65 23 65 117zM1067 185q1 -308 -485 -308q-104 0 -200 33q-157 55 -210 198q-20 56 -20 117h251q0 -151 206 -151t206 114q0 55 -47 88q-47 32 -119 44
q-71 12 -153 31t-154 44t-119 88t-47 151t38 154q38 68 93 95q-55 25 -93 91t-38 144q0 124 100 220t332 96q136 0 228 -34t133 -91q71 -99 71 -215h-252q0 70 -40 106t-140 35q-180 0 -180 -119q0 -70 66 -104t160 -46q94 -14 188 -34t160 -86t65 -168q0 -102 -35 -152
t-102 -88q59 -34 98 -98t39 -155z" />
    <glyph glyph-name="logicalnot.tf" 
d="M117 518v199h987v-555h-242v356h-745z" />
    <glyph glyph-name="plusminus.tf" 
d="M500 1335h219v-358h360v-221h-360v-365h-219v365h-359v221h359v358zM1079 199v-199h-936v199h936z" />
    <glyph glyph-name="multiply.tf" 
d="M195 793l147 149l268 -268l269 268l147 -147l-266 -269l266 -268l-149 -147l-267 268l-266 -268l-149 149l266 266z" />
    <glyph glyph-name="divide.tf" 
d="M1055 768v-221h-887v221h887zM492 141v250h247v-250h-247zM492 922v252h247v-252h-247z" />
    <glyph glyph-name="florin.tf" 
d="M240 -215q46 0 93 30q46 30 56 83l158 897h-148l35 194h146q35 178 51 221q39 98 131 154t184 56q92 1 150 -25l-33 -183q-29 16 -75 16t-91 -29q-45 -30 -55 -83l-25 -127h207l-35 -194h-205q-53 -301 -159 -908q-34 -167 -157 -238q-94 -53 -184 -55t-149 25l33 182
q26 -16 72 -16z" />
    <glyph glyph-name="Euro.tf" 
d="M53 463v153h703l-82 -151h-187q53 -256 273 -256q168 0 244 158l184 -174q-152 -215 -428 -216q-203 0 -346 127t-193 359h-168zM53 762v153h166q43 250 182 384t359 135q289 0 428 -230l-187 -164q-74 162 -241 162q-225 0 -279 -287h443l-84 -153h-787z" />
    <glyph glyph-name="minus.tf" 
d="M1063 805v-209h-907v209h907z" />
    <glyph glyph-name="zero.zero.osf" horiz-adv-x="1230" 
d="M613 956q-127 0 -195 -98t-68 -293q0 -76 15 -141l440 444q-66 88 -192 88zM881 584q0 57 -15 131l-438 -441q61 -86 186 -86q267 1 267 396zM96 575q0 223 114 397q58 88 162 142q104 53 243 53t243 -53q182 -92 247 -330q28 -100 28 -210q0 -221 -113 -399
q-58 -89 -162 -142t-242 -53t-243 53q-183 93 -249 332q-28 100 -28 210z" />
    <glyph glyph-name="zero.zero.tosf" horiz-adv-x="1230" 
d="M613 956q-127 0 -195 -98t-68 -293q0 -76 15 -141l440 444q-66 88 -192 88zM881 584q0 57 -15 131l-438 -441q61 -86 186 -86q267 1 267 396zM96 575q0 223 114 397q58 88 162 142q104 53 243 53t243 -53q182 -92 247 -330q28 -100 28 -210q0 -221 -113 -399
q-58 -89 -162 -142t-242 -53t-243 53q-183 93 -249 332q-28 100 -28 210z" />
    <glyph glyph-name="arrowleft.ss08" horiz-adv-x="1511" 
d="M352 596h1116v-123h-1116v-231l-291 293l291 292v-231z" />
    <glyph glyph-name="arrowright.ss08" horiz-adv-x="1511" 
d="M1178 596v231l290 -292l-290 -293v231h-1117v123h1117z" />
    <glyph glyph-name="arrowup.ss08" horiz-adv-x="1511" 
d="M702 1116h-231l293 291l293 -291h-232v-1116h-123v1116z" />
    <glyph glyph-name="arrowdown.ss08" horiz-adv-x="1511" 
d="M702 291v1116h123v-1116h232l-293 -291l-293 291h231z" />
    <glyph glyph-name="arrowboth.ss08" horiz-adv-x="2363" 
d="M352 596h1116v231l291 -292l-291 -293v231h-1116v-231l-291 293l291 292v-231z" />
    <glyph glyph-name="arrowleftup.ss08" horiz-adv-x="1511" 
d="M268 1024h412l-164 -162l791 -790l-88 -86l-789 788l-162 -164v414z" />
    <glyph glyph-name="arrowrightup.ss08" horiz-adv-x="1511" 
d="M1307 1024v-414l-162 164l-789 -788l-88 86l791 790l-164 162h412z" />
    <glyph glyph-name="arrowleftdown.ss08" horiz-adv-x="1511" 
d="M268 0v414l162 -164l789 788l88 -86l-791 -790l164 -162h-412z" />
    <glyph glyph-name="arrowrightdown.ss08" horiz-adv-x="1511" 
d="M1307 0h-412l164 162l-791 790l88 86l789 -788l162 164v-414z" />
    </font>
</defs>
</svg>
