<?xml version="1.0" standalone="no"?>
<!DOCTYPE svg PUBLIC "-//W3C//DTD SVG 1.1//EN" "http://www.w3.org/Graphics/SVG/1.1/DTD/svg11.dtd" >
<svg xmlns="http://www.w3.org/2000/svg">
<metadata>
Created by FontPrep 20130207 at Tue Sep  8 17:39:30 2015
 By Marcos Dopico Castro
Copyright (c) 201332015 by Marcos Dopico // MaisTypes. All rights reserved.
</metadata>
<defs>
<font id="22e18be335d8068a852231bb8ff40c38" horiz-adv-x='1024' >
  <font-face 
    font-family="MaisGrotesk-BoldItalic"
    font-weight="700"
    font-style="italic"
    font-stretch="normal"
    units-per-em="2048"
    panose-1="0 0 0 0 0 0 0 0 0 0"
    ascent="1536"
    descent="-512"
    x-height="1024"
    cap-height="1413"
    bbox="-494 -410 2556 2120"
    underline-thickness="102"
    underline-position="-102"
    unicode-range="U+0020-FB04"
  />
<missing-glyph horiz-adv-x="829" 
d="M539 735l151 -524l184 1051zM455 606l-320 -497h465zM356 1364l144 -498l321 498h-465zM418 735l-152 531l-186 -1059zM764 0h-827l258 1473h829z" />
    <glyph glyph-name="ellipsis" unicode="&#x2e;&#x2e;&#x2e;" horiz-adv-x="1515" 
d="M1075 0l51 287h295l-51 -287h-295zM596 0l51 287h295l-51 -287h-295zM117 0l51 287h295l-51 -287h-295z" />
    <glyph glyph-name="ff" unicode="ff" horiz-adv-x="1456" 
d="M741 1446q57 0 119 -10l-43 -246q-57 10 -97 10q-97 0 -118 -113l-10 -63h440l15 82q29 166 146 253q118 87 275 87q57 0 119 -10l-43 -246q-55 10 -95 10q-98 0 -120 -113l-10 -63h186l-45 -246h-186l-137 -778h-287l137 778h-440l-137 -778h-287l137 778h-156l46 246
h155l14 82q29 166 147 253t275 87z" />
    <glyph glyph-name="fi" unicode="fi" horiz-adv-x="1253" 
d="M1307 1413l-43 -246h-287l43 246h287zM741 1446q20 0 119 -10l-43 -246q-57 10 -97 10q-96 0 -118 -113l-10 -63h647l-182 -1024h-287l137 778h-360l-137 -778h-287l137 778h-156l46 246h155l14 82q29 166 147 253t275 87z" />
    <glyph glyph-name="fl" unicode="fl" horiz-adv-x="1329" 
d="M1075 -12q-160 0 -219 74t-35 221l88 495h-360l-137 -778h-287l137 778h-156l44 246h155l14 82q29 166 147 253t275 87q27 0 119 -10l-43 -246q-57 10 -97 10q-96 0 -118 -113l-10 -63h360l68 389h287l-193 -1091q-8 -52 12 -70t93 -19h22l-43 -237q-49 -8 -123 -8z" />
    <glyph glyph-name="ffi" unicode="ffi" horiz-adv-x="1982" 
d="M1706 1167l43 246h287l-43 -246h-287zM1427 1446q57 0 119 -10l-43 -246q-55 10 -95 10q-99 0 -120 -113l-10 -63h690l-182 -1024h-287l137 778h-403l-137 -778h-287l137 778h-399l-137 -778h-287l137 778h-156l46 246h155l14 82q29 166 147 253t275 87q57 0 119 -10
l-43 -246q-57 10 -97 10q-96 0 -118 -113l-10 -63h399l15 82q29 166 146 253q118 87 275 87z" />
    <glyph glyph-name="ffl" unicode="ffl" horiz-adv-x="2058" 
d="M1804 -12q-160 0 -219 74t-35 221l88 495h-403l-137 -778h-287l137 778h-399l-137 -778h-287l137 778h-156l44 246h155l14 82q29 166 147 253t275 87q57 0 119 -10l-43 -246q-57 10 -97 10q-97 0 -118 -113l-10 -63h399l15 82q29 166 146 253q118 87 275 87q57 0 119 -10
l-43 -246q-55 10 -95 10q-99 0 -120 -113l-10 -63h403l68 389h287l-193 -1091q-8 -52 12 -70t93 -19h22l-43 -237q-49 -8 -123 -8z" />
    <glyph glyph-name="ft" unicode="ft" horiz-adv-x="1398" 
d="M1116 -10q-137 0 -227 80t-66 219l86 489h-360l-137 -778h-287l137 778h-156l44 246h155l23 127q49 293 381 293q78 0 151 -8l-41 -238h-82q-115 0 -133 -106l-12 -68h360l47 268l301 82l-61 -350h211l-43 -246h-211l-76 -430q-10 -53 25 -83t98 -29l68 6l-41 -234
q-68 -18 -154 -18z" />
    <glyph glyph-name="fj" unicode="fj" horiz-adv-x="1212" 
d="M995 1167l43 246h287l-43 -246h-287zM676 -399q-76 0 -154 8l43 244h72q125 0 143 106l146 819h-361l-137 -778h-287l138 778h-156l43 246h156l14 82q29 166 147 253q119 87 277 87q23 0 119 -10l-45 -246q-51 10 -93 10q-99 0 -120 -113l-13 -63h647l-198 -1130
q-51 -293 -381 -293z" />
    <glyph glyph-name="ffj" unicode="ffj" horiz-adv-x="1941" 
d="M1724 1167l43 246h287l-43 -246h-287zM1446 1446q53 0 119 -10l-43 -246q-55 10 -96 10q-98 0 -119 -113l-13 -63h691l-199 -1135q-26 -133 -136 -216t-247 -83q-84 0 -150 19l41 233q25 -6 67 -6t90 28t58 85l146 829h-404l-137 -778h-287l138 778h-400l-137 -778h-287
l138 778h-156l43 246h156l14 82q29 166 147 253q119 87 277 87q53 0 119 -10l-43 -246q-55 10 -95 10q-98 0 -120 -113l-13 -63h400l14 82q29 166 147 253q119 87 277 87z" />
    <glyph glyph-name="fft" unicode="fft" horiz-adv-x="2148" 
d="M1427 1446q57 0 119 -10l-43 -246q-51 10 -93 10q-101 0 -122 -113l-10 -63h403l48 268l301 82l-62 -350h191l-43 -246h-191l-80 -456q-10 -51 23 -74t87 -23t105 11l-41 -236q-77 -20 -209 -20t-212 66q-79 67 -52 216l92 516h-403l-137 -778h-287l137 778h-399
l-137 -778h-287l137 778h-156l44 246h155l14 82q29 166 147 253t275 87q57 0 119 -10l-43 -246q-51 10 -94 10q-99 0 -121 -113l-10 -63h399l15 82q29 166 146 253q118 87 275 87z" />
    <glyph glyph-name=".notdef" horiz-adv-x="829" 
d="M539 735l151 -524l184 1051zM455 606l-320 -497h465zM356 1364l144 -498l321 498h-465zM418 735l-152 531l-186 -1059zM764 0h-827l258 1473h829z" />
    <glyph glyph-name=".null" horiz-adv-x="0" 
 />
    <glyph glyph-name="nonmarkingreturn" horiz-adv-x="681" 
 />
    <glyph glyph-name="space" unicode=" " horiz-adv-x="440" 
 />
    <glyph glyph-name="exclam" unicode="!" horiz-adv-x="655" 
d="M121 0l49 287h287l-49 -287h-287zM242 424l137 1010h274l-219 -1010h-192z" />
    <glyph glyph-name="quotedbl" unicode="&#x22;" horiz-adv-x="937" 
d="M612 860l97 553h245l-96 -553h-246zM182 860l97 553h245l-96 -553h-246z" />
    <glyph glyph-name="numbersign" unicode="#" horiz-adv-x="1398" 
d="M735 840l-149 -338h180l152 338h-183zM80 0l119 264h-150l41 238h213l150 338h-242l45 245h309l148 328h282l-149 -328h182l148 328h278l-154 -328h162l-45 -245h-227l-150 -338h256l-41 -238h-319l-119 -264h-274l119 264h-181l-119 -264h-282z" />
    <glyph glyph-name="dollar" unicode="$" horiz-adv-x="1372" 
d="M575 1044q-18 -102 107 -151l51 295q-140 -33 -158 -144zM971 399q12 72 -26 114t-118 67l-63 -357q180 31 207 176zM1004 1579l-27 -152q387 -41 350 -403h-295q10 131 -98 162l-60 -344l87 -23q360 -94 307 -407q-34 -194 -182 -302t-363 -126l-27 -154h-200l26 156
q-223 22 -313 146t-68 314h295q-18 -178 129 -219l70 400q-97 27 -161 53q-165 69 -194 183q-17 69 -1 163q29 172 156 277q128 104 341 124l27 152h201z" />
    <glyph glyph-name="percent" unicode="%" horiz-adv-x="1765" 
d="M1466 827q338 0 264 -424t-413 -423q-337 0 -263 424t412 423zM1436 651q-66 0 -106 -52t-64 -200q-24 -147 -4 -195t86 -48t106 52t66 195q20 150 1 199t-85 49zM565 1393q338 0 262 -424q-75 -424 -413 -424t-264 424q77 424 415 424zM532 1217q-66 -1 -106 -53
t-66 -195q-20 -152 -1 -200t85 -48t106 52t64 199t4 196t-86 49zM1460 1495l127 -82l-1124 -1495l-127 82z" />
    <glyph glyph-name="ampersand" unicode="&#x26;" horiz-adv-x="1382" 
d="M635 610q-99 0 -155 -52t-70 -136q-29 -176 159 -176h301l66 364h-301zM510 0q-246 0 -339 100t-65 273q40 234 251 324q40 17 79 26q-62 17 -111 69q-93 99 -64 270q30 171 169 261t330 90h262l-43 -246h-246q-78 0 -126 -47t-59 -108t19 -109q31 -47 111 -47h301
l33 191h286l-32 -191h155l-43 -246h-155l-109 -610h-604z" />
    <glyph glyph-name="quotesingle" unicode="'" horiz-adv-x="507" 
d="M182 860l97 553h245l-96 -553h-246z" />
    <glyph glyph-name="parenleft" unicode="(" horiz-adv-x="651" 
d="M819 1413q-293 -393 -380 -881t71 -880h-279q-172 397 -87 879t397 882h278z" />
    <glyph glyph-name="parenright" unicode=")" horiz-adv-x="651" 
d="M-74 -348q293 397 379 882t-72 879h279q172 -399 87 -879t-396 -882h-277z" />
    <glyph glyph-name="asterisk" unicode="*" horiz-adv-x="999" 
d="M733 1407l-53 -195l190 78l27 -164l-197 -39l103 -145l-156 -102l-69 168l-129 -168l-117 100l153 150l-186 38l84 162l168 -78l10 195h172z" />
    <glyph glyph-name="plus" unicode="+" horiz-adv-x="1198" 
d="M637 1020h246l-64 -365h367l-43 -245h-367l-65 -367h-246l65 367h-364l43 245h364z" />
    <glyph glyph-name="comma" unicode="," horiz-adv-x="561" 
d="M489 287l-51 -287q-37 -96 -121 -178t-178 -129h-104q17 11 52 46q125 120 142 241l4 20h-90l52 287h294z" />
    <glyph glyph-name="hyphen" unicode="-" horiz-adv-x="817" 
d="M784 637l-43 -246h-620l43 246h620z" />
    <glyph glyph-name="period" unicode="." horiz-adv-x="475" 
d="M76 0l51 287h295l-51 -287h-295z" />
    <glyph glyph-name="slash" unicode="/" horiz-adv-x="825" 
d="M1004 1413l-766 -1413h-283l764 1413h285z" />
    <glyph glyph-name="zero" unicode="0" horiz-adv-x="1241" 
d="M805 1393q446 0 446 -478q0 -331 -155 -617q-78 -142 -218 -230t-323 -88q-446 0 -446 475q0 274 98 503q53 124 131 220t199 156t268 59zM956 888q0 114 -40 187q-40 72 -146 72t-181 -69q-75 -68 -113 -176q-73 -206 -75 -413q0 -129 40 -197q39 -68 147 -67
q108 0 183 67t113 172q38 106 55 208t17 216z" />
    <glyph glyph-name="one" unicode="1" horiz-adv-x="821" 
d="M315 1143q174 0 213 209h287l-240 -1352h-286l160 899h-299l43 244h122z" />
    <glyph glyph-name="two" unicode="2" horiz-adv-x="1175" 
d="M740 1393q215 0 321 -91t106 -231t-89 -292q-54 -93 -223 -243q-46 -42 -140 -110t-132 -92t-132 -88h604l-43 -246h-992l46 260q468 299 634 457t166 294t-149 136q-105 1 -153 -59t-72 -160h-295q49 223 188 344q140 121 355 121z" />
    <glyph glyph-name="three" unicode="3" horiz-adv-x="1118" 
d="M531 225q95 0 157 50q61 50 76 135q35 190 -180 190h-181l43 246l285 260h-471l43 246h838l-43 -246l-340 -260q128 0 230 -94q50 -47 72 -131t3 -193q-37 -205 -200 -327q-163 -121 -374 -121t-342 105t-108 302h295q-8 -84 47 -123t150 -39z" />
    <glyph glyph-name="four" unicode="4" horiz-adv-x="1200" 
d="M715 573l63 359l-370 -359h307zM899 0h-287l60 328h-643l43 250l780 774h287l-138 -779h209l-43 -245h-209z" />
    <glyph glyph-name="five" unicode="5" horiz-adv-x="1153" 
d="M765 885q169 0 271 -114t64 -327t-206 -339q-169 -125 -378 -125t-325 100t-91 303h295q-10 -68 36 -113t137 -45q90 -1 154 59t82 158q35 196 -167 197q-59 0 -109 -27t-69 -55l-19 -27l-266 105l205 717h807l-43 -246h-565l-103 -330q121 109 290 109z" />
    <glyph glyph-name="six" unicode="6" horiz-adv-x="1230" 
d="M608 225q106 0 180 72t74 186q0 166 -182 166q-102 -1 -177 -73t-85 -130q-10 -102 37 -162t153 -59zM818 874q142 0 243 -82q102 -82 102 -257q0 -236 -173 -396t-429 -159q-436 0 -436 432q0 267 97 513q52 132 128 234t196 168t265 66q217 -1 323 -103t87 -276h-287
q8 133 -166 133q-149 0 -223 -122t-101 -292q74 69 153 105t221 36z" />
    <glyph glyph-name="seven" unicode="7" horiz-adv-x="1040" 
d="M1137 1352l-43 -246l-691 -1106h-288l698 1106h-657l43 246h938z" />
    <glyph glyph-name="eight" unicode="8" horiz-adv-x="1236" 
d="M705 850q72 0 129 39t70 113t-31 110q-45 36 -115 35q-70 0 -125 -36q-55 -35 -69 -111t27 -113q42 -37 114 -37zM596 225q98 0 174 50q76 49 92 143t-40 140t-157 46t-175 -46t-91 -139q-16 -93 41 -144q58 -50 156 -50zM385 729q-147 91 -115 277t178 286
q148 100 356 100t318 -102q110 -104 78 -278q-14 -86 -72 -163t-137 -120q201 -109 165 -317t-205 -320t-405 -112t-359 112q-122 112 -85 311q41 230 283 326z" />
    <glyph glyph-name="nine" unicode="9" horiz-adv-x="1224" 
d="M481 887q-5 -150 183 -150q102 0 173 69t83 126q14 211 -183 211q-106 0 -181 -73t-75 -183zM559 512q-160 0 -266 79t-109 236q0 236 171 401t425 165q434 0 439 -443q0 -272 -99 -515q-53 -130 -131 -230q-77 -101 -199 -163t-272 -62q-211 0 -312 101t-85 269h291
q0 -51 39 -86t117 -35q151 0 225 125t102 299q-141 -141 -336 -141z" />
    <glyph glyph-name="colon" unicode=":" horiz-adv-x="475" 
d="M205 737l51 287h295l-51 -287h-295zM76 0l51 287h295l-51 -287h-295z" />
    <glyph glyph-name="semicolon" unicode=";" horiz-adv-x="561" 
d="M248 737l51 287h295l-51 -287h-295zM489 287l-51 -287q-37 -96 -121 -178t-178 -129h-104q17 11 52 46q125 120 142 241l4 20h-90l52 287h294z" />
    <glyph glyph-name="less" unicode="&#x3c;" horiz-adv-x="1198" 
d="M1067 55l-874 389l30 179l1014 387l-51 -287l-629 -191l561 -190z" />
    <glyph glyph-name="equal" unicode="=" horiz-adv-x="1161" 
d="M125 350l43 246h915l-43 -246h-915zM195 756l45 245h915l-45 -245h-915z" />
    <glyph glyph-name="greater" unicode="&#x3e;" horiz-adv-x="1198" 
d="M293 1010l874 -389l-30 -179l-1014 -387l51 287l627 190l-559 191z" />
    <glyph glyph-name="question" unicode="?" horiz-adv-x="1157" 
d="M344 0l49 287h287l-49 -287h-287zM760 1434q226 0 320 -106q95 -106 65 -275q-15 -86 -59 -156q-44 -71 -78 -101t-110 -84t-124 -117q-48 -62 -69 -171h-287q20 119 67 207t84 125t103 88t91 74q77 68 88 135t-27 101t-116 34t-134 -44q-54 -44 -66 -108h-287
q27 146 170 272t369 126z" />
    <glyph glyph-name="at" unicode="@" horiz-adv-x="1998" 
d="M1366 1583q252 -1 419 -111q323 -214 236 -696q-53 -295 -227 -471t-416 -176q-131 0 -190 51t-53 125q0 20 6 39q-147 -137 -307 -137q-313 0 -254 334q39 227 195 400q157 173 368 173q180 0 215 -137l39 113h243l-231 -656q-33 -98 55 -98t159 75q124 131 165 373
q10 84 12 167q4 161 -112 295q-112 128 -402 128q-158 0 -328 -74t-286 -192q-240 -246 -290 -534q-50 -287 88 -441t421 -153q215 0 409 94l-77 -242q-197 -66 -424 -65q-352 -1 -548 205t-132 571q35 201 141 387t264 332t374 233q216 88 468 88zM961 418q113 0 195 88
t106 219q31 178 -123 178q-119 0 -194 -94t-95 -215q-30 -176 111 -176z" />
    <glyph glyph-name="A" unicode="A" horiz-adv-x="1396" 
d="M823 1055l-254 -506h334zM1032 1413l268 -1413h-294l-50 262h-540l-144 -262h-301l766 1413h295z" />
    <glyph glyph-name="B" unicode="B" horiz-adv-x="1357" 
d="M874 848q74 0 119 58t45 128t-30 102q-31 32 -76 31h-338l-57 -319h337zM793 246q78 0 132 66t54 157q0 133 -123 133h-362l-64 -356h363zM1018 1413q141 0 234 -75q94 -75 94 -216t-83 -250t-221 -153q124 -21 176 -80t54 -178q0 -195 -142 -328t-362 -133h-668
l250 1413h668z" />
    <glyph glyph-name="C" unicode="C" horiz-adv-x="1478" 
d="M975 1434q266 0 399 -140t133 -352h-297q-4 110 -70 178t-201 68q-134 0 -233 -58q-174 -101 -240 -349q-28 -105 -28 -216q0 -178 77 -259t230 -81q289 0 404 277h299q-86 -226 -272 -374t-458 -148t-423 142q-152 142 -152 417q0 342 210 610q101 129 263 207t359 78z
" />
    <glyph glyph-name="D" unicode="D" horiz-adv-x="1472" 
d="M922 1413q305 0 430 -157q104 -128 104 -375q0 -359 -192 -612q-94 -125 -247 -197t-345 -72h-572l250 1413h572zM694 246q117 0 208 54q163 97 225 333q28 102 28 209q0 178 -76 252t-221 73h-264l-164 -921h264z" />
    <glyph glyph-name="E" unicode="E" horiz-adv-x="1226" 
d="M1331 1413l-43 -246h-688l-57 -317h567l-43 -246h-567l-64 -358h688l-43 -246h-981l250 1413h981z" />
    <glyph glyph-name="F" unicode="F" horiz-adv-x="1165" 
d="M1311 1413l-43 -246h-674l-64 -352h635l-43 -246h-635l-100 -569h-287l250 1413h961z" />
    <glyph glyph-name="G" unicode="G" horiz-adv-x="1574" 
d="M724 -20q-273 0 -427 144t-154 421q-1 169 59 327t166 284t272 202q165 76 359 76q271 0 413 -138t138 -354h-295q-20 246 -301 246q-244 0 -379 -181t-135 -436q0 -346 330 -346q158 0 268 75t152 196h-356l43 245h651l-131 -741h-230l-8 156q-162 -176 -435 -176z" />
    <glyph glyph-name="H" unicode="H" horiz-adv-x="1480" 
d="M1503 1413l-250 -1413h-286l106 600h-579l-107 -600h-287l250 1413h287l-100 -567h579l101 567h286z" />
    <glyph glyph-name="I" unicode="I" horiz-adv-x="614" 
d="M387 0h-287l250 1413h287z" />
    <glyph glyph-name="J" unicode="J" horiz-adv-x="1222" 
d="M504 -20q-460 0 -461 399q0 47 10 92h287q-8 -57 -8 -82q0 -164 194 -164q129 0 192 66q62 66 83 184l166 938h286l-161 -917q-45 -254 -200 -385q-154 -131 -388 -131z" />
    <glyph glyph-name="K" unicode="K" horiz-adv-x="1406" 
d="M1487 1413l-557 -526l397 -887h-313l-305 684l-238 -233l-80 -451h-291l250 1413h291l-104 -579l565 579h385z" />
    <glyph glyph-name="L" unicode="L" horiz-adv-x="1150" 
d="M430 246h651l-43 -246h-938l250 1413h287z" />
    <glyph glyph-name="M" unicode="M" horiz-adv-x="1835" 
d="M1413 1413h445l-250 -1413h-287l186 1040l-499 -1040h-293l-140 1044l-188 -1044h-287l250 1413h459l119 -1042z" />
    <glyph glyph-name="N" unicode="N" horiz-adv-x="1536" 
d="M1559 1413l-250 -1413h-328l-420 995l-174 -995h-287l250 1413h346l406 -964l170 964h287z" />
    <glyph glyph-name="O" unicode="O" horiz-adv-x="1581" 
d="M1559 864q0 -342 -210 -606q-101 -127 -265 -203t-363 -75q-272 0 -425 141t-153 422q0 340 213 607q102 128 266 206t365 78q268 0 420 -142t152 -428zM944 1188q-127 0 -227 -54q-101 -54 -159 -144q-118 -183 -118 -412q0 -352 318 -353q127 -1 227 53q181 97 249 332
q30 104 30 217q-1 361 -320 361z" />
    <glyph glyph-name="P" unicode="P" horiz-adv-x="1275" 
d="M940 1413q174 0 280 -83t105 -263q0 -251 -145 -405t-400 -154h-299l-90 -508h-291l250 1413h590zM803 754q102 0 163 71q60 72 60 185q0 158 -149 157h-277l-74 -413h277z" />
    <glyph glyph-name="Q" unicode="Q" horiz-adv-x="1581" 
d="M944 1188q-127 0 -227 -54q-101 -54 -159 -144q-118 -183 -118 -412q0 -352 318 -353q55 0 94 8l-131 226l248 147l137 -235q158 172 158 456q-1 361 -320 361zM143 543q0 340 213 607q102 128 266 206t365 78q268 0 420 -142t152 -428q0 -209 -83 -399t-239 -315
l98 -166l-248 -148l-106 180q-131 -37 -260 -36q-272 0 -425 141t-153 422z" />
    <glyph glyph-name="R" unicode="R" horiz-adv-x="1337" 
d="M823 780q111 0 174 69t63 156t-34 125q-35 38 -123 37h-307l-68 -387h295zM979 1413q381 0 381 -342q0 -171 -92 -315t-267 -195l191 -561h-303l-176 535h-228l-92 -535h-293l250 1413h629z" />
    <glyph glyph-name="S" unicode="S" horiz-adv-x="1337" 
d="M830 1434q251 0 356 -82t119 -209q6 -55 0 -119h-295q6 84 -36 129t-154 45t-190 -44q-79 -44 -79 -144q4 -74 88 -109q59 -25 158 -47q100 -22 141 -35q315 -90 313 -332q0 -161 -97 -279q-187 -228 -554 -228q-282 0 -394 129t-87 337h295q-25 -231 237 -231
q119 0 209 55t90 168q-4 82 -88 119q-59 26 -192 57q-209 45 -318 118q-110 72 -108 224t90 263t223 163t273 52z" />
    <glyph glyph-name="T" unicode="T" horiz-adv-x="1167" 
d="M1305 1413l-43 -246h-392l-206 -1167h-287l207 1167h-391l43 246h1069z" />
    <glyph glyph-name="U" unicode="U" horiz-adv-x="1445" 
d="M678 -20q-250 0 -375 98t-133 274q-4 66 8 129l164 932h287l-168 -956q-4 -18 -4 -54q0 -178 243 -178q281 0 322 232l168 956h287l-164 -932q-41 -231 -213 -366t-422 -135z" />
    <glyph glyph-name="V" unicode="V" horiz-adv-x="1366" 
d="M1520 1413l-758 -1413h-279l-264 1413h293l164 -1110l543 1110h301z" />
    <glyph glyph-name="W" unicode="W" horiz-adv-x="1929" 
d="M2083 1413l-653 -1413h-277l-68 999l-436 -999h-282l-148 1413h289l76 -999l430 999h284l72 -999l420 999h293z" />
    <glyph glyph-name="X" unicode="X" horiz-adv-x="1376" 
d="M1493 1413l-586 -682l373 -731h-340l-223 518l-418 -518h-328l647 743l-337 670h340l190 -459l352 459h330z" />
    <glyph glyph-name="Y" unicode="Y" horiz-adv-x="1306" 
d="M442 0l95 532l-318 881h307l201 -625l406 625h327l-633 -881l-92 -532h-293z" />
    <glyph glyph-name="Z" unicode="Z" horiz-adv-x="1255" 
d="M1376 1413l-43 -246l-950 -921h786l-43 -246h-1124l43 246l942 921h-756l43 246h1102z" />
    <glyph glyph-name="bracketleft" unicode="[" horiz-adv-x="667" 
d="M6 -348l309 1761h504l-43 -246h-217l-223 -1269h217l-43 -246h-504z" />
    <glyph glyph-name="backslash" unicode="\" horiz-adv-x="823" 
d="M459 0l-264 1413h284l264 -1413h-284z" />
    <glyph glyph-name="bracketright" unicode="]" horiz-adv-x="667" 
d="M754 1413l-310 -1761h-501l43 246h215l223 1269h-217l43 246h504z" />
    <glyph glyph-name="asciicircum" unicode="^" horiz-adv-x="1386" 
d="M961 1407l329 -793h-299l-190 516l-371 -516h-297l606 793h222z" />
    <glyph glyph-name="underscore" unicode="_" horiz-adv-x="974" 
d="M-25 -250l17 103h973l-17 -103h-973z" />
    <glyph glyph-name="grave" unicode="`" horiz-adv-x="710" 
d="M264 1413h328l84 -266h-230z" />
    <glyph glyph-name="a" unicode="a" horiz-adv-x="1239" 
d="M567 225q147 0 218 117t71 252q0 205 -178 205q-143 0 -213 -118t-70 -257q0 -199 172 -199zM94 354q0 180 60 330t188 255q127 105 295 105q203 0 278 -155l64 135h248l-180 -1024h-244l-8 139q-143 -160 -346 -159q-166 0 -261 97q-94 97 -94 277z" />
    <glyph glyph-name="b" unicode="b" horiz-adv-x="1239" 
d="M616 225q96 0 165 65q127 120 121 314q-7 195 -175 195q-141 0 -218 -120t-73 -257q6 -197 180 -197zM1196 666q0 -379 -240 -580q-127 -106 -299 -106q-205 0 -286 159l-58 -139h-243l247 1413h287l-92 -524q129 156 334 155q164 0 257 -101t93 -277z" />
    <glyph glyph-name="c" unicode="c" horiz-adv-x="1148" 
d="M872 645v8q-2 57 -38 102q-37 44 -123 44q-137 0 -219 -111t-82 -252q0 -211 208 -211q156 0 213 135h293q-53 -168 -195 -274q-141 -106 -361 -106t-337 110t-116 316q0 262 174 450t463 188q217 0 316 -106t99 -260q0 -21 -4 -33h-291z" />
    <glyph glyph-name="d" unicode="d" horiz-adv-x="1239" 
d="M567 225q147 0 218 117t71 252q0 205 -178 205q-143 0 -213 -118t-70 -257q0 -199 172 -199zM94 354q0 180 60 330t188 255q127 105 295 105q203 0 278 -155l93 524h286l-247 -1413h-244l-8 139q-143 -160 -346 -159q-166 0 -261 97q-94 97 -94 277z" />
    <glyph glyph-name="e" unicode="e" horiz-adv-x="1189" 
d="M704 815q-85 0 -150 -48t-95 -132h422q2 18 2 35q0 61 -47 103t-132 42zM115 391q0 160 73 307q74 146 220 246t333 100t305 -103t117 -304q0 -80 -22 -193h-727q-2 -16 -2 -47q0 -80 48 -134t144 -54q135 -1 207 108h297q-162 -338 -545 -337q-207 0 -327 105t-121 306z
" />
    <glyph glyph-name="f" unicode="f" horiz-adv-x="729" 
d="M741 1446q57 0 119 -10l-43 -246q-57 10 -97 10q-96 0 -118 -113l-10 -63h186l-45 -246h-186l-137 -778h-287l137 778h-156l46 246h155l14 82q29 166 147 253t275 87z" />
    <glyph glyph-name="g" unicode="g" horiz-adv-x="1142" 
d="M696 799q-78 0 -127 -34t-49 -89q0 -88 127 -88q78 0 130 30t52 89q0 92 -133 92zM553 -180q244 0 244 82q-1 78 -224 78q-111 6 -174 14q-31 -8 -53 -32t-20 -62q0 -38 49 -60q49 -20 178 -20zM623 342q-90 0 -142 18q-51 -18 -51 -63q2 -43 72 -60t167 -25t194 -24
t166 -77t69 -170q0 -179 -169 -265t-437 -86q-469 0 -469 250q0 86 52 154t134 100q-82 60 -82 144t57 139t140 74q-100 70 -101 206q1 179 145 283t365 104q133 0 209 -43q53 158 336 158l-43 -246q-69 0 -93 -8t-46 -35q33 -49 32 -114q0 -186 -152 -300t-353 -114z" />
    <glyph glyph-name="h" unicode="h" horiz-adv-x="1216" 
d="M891 1044q279 0 270 -301q-4 -72 -14 -131l-109 -612h-286l102 582q8 43 8 86q-2 131 -125 131q-102 0 -186 -81t-111 -226l-86 -492h-286l249 1413h287l-96 -541q168 172 383 172z" />
    <glyph glyph-name="i" unicode="i" horiz-adv-x="548" 
d="M604 1413l-43 -246h-287l43 246h287zM354 0h-286l180 1024h287z" />
    <glyph glyph-name="j" unicode="j" horiz-adv-x="499" 
d="M283 1167l43 246h286l-43 -246h-286zM-68 -399q-53 0 -118 10l43 246q55 -10 80 -11q113 0 133 113l188 1065h287l-191 -1083q-30 -166 -148 -253t-274 -87z" />
    <glyph glyph-name="k" unicode="k" horiz-adv-x="1202" 
d="M604 1413l-135 -766l352 377h381l-422 -412l342 -612h-331l-226 408l-168 -168l-43 -240h-286l249 1413h287z" />
    <glyph glyph-name="l" unicode="l" horiz-adv-x="624" 
d="M371 -12q-160 0 -219 74t-33 221l198 1130h287l-192 -1091q-8 -56 12 -72t90 -17h23l-41 -237q-49 -8 -125 -8z" />
    <glyph glyph-name="m" unicode="m" horiz-adv-x="1818" 
d="M1532 1044q160 0 215 -106t18 -326l-108 -612h-287l103 582q53 216 -113 216q-90 0 -163 -88q-73 -89 -99 -239l-84 -471h-287l102 582q39 217 -104 217q-94 0 -169 -85t-101 -241l-84 -473h-287l180 1024h242l6 -164q172 184 371 184q119 0 177 -54t77 -156
q162 210 395 210z" />
    <glyph glyph-name="n" unicode="n" horiz-adv-x="1216" 
d="M909 1044q268 0 269 -280q0 -72 -15 -152l-108 -612h-287l102 582q8 53 9 86q0 131 -125 131q-109 0 -190 -82t-109 -244l-84 -473h-287l180 1024h242l6 -164q166 184 397 184z" />
    <glyph glyph-name="o" unicode="o" horiz-adv-x="1236" 
d="M756 1044q219 0 337 -116t117 -324q0 -260 -173 -442t-459 -182q-215 0 -339 110t-124 318q0 254 175 445t466 191zM725 799q-106 1 -180 -61q-137 -114 -136 -314q1 -199 193 -199q156 0 234 110t77 255q0 209 -188 209z" />
    <glyph glyph-name="p" unicode="p" horiz-adv-x="1239" 
d="M752 799q-108 0 -178 -73t-96 -213t20 -214t155 -74q219 0 269 287q26 139 -18 213t-152 74zM686 -20q-199 0 -274 155l-93 -524h-286l250 1413h243l9 -139q139 159 340 159t295 -134t50 -391q-46 -257 -190 -398t-344 -141z" />
    <glyph glyph-name="q" unicode="q" horiz-adv-x="1239" 
d="M705 799q-215 0 -269 -287q-49 -287 172 -287t275 289q25 139 -21 212t-157 73zM672 1044q201 0 286 -159l58 139h244l-250 -1413h-287l92 524q-129 -155 -328 -155t-293 141t-50 398q46 257 186 391t342 134z" />
    <glyph glyph-name="r" unicode="r" horiz-adv-x="831" 
d="M823 1034q70 0 125 -16l-45 -252q-57 23 -137 22q-256 0 -307 -292l-88 -496h-287l180 1024h246v-178q131 188 313 188z" />
    <glyph glyph-name="s" unicode="s" horiz-adv-x="1075" 
d="M662 1044q194 0 289 -87t96 -226q0 -18 -3 -33h-284v7q0 111 -129 110q-72 0 -112 -33t-38 -69q1 -36 23 -49t36 -19t40 -12q27 -6 115 -20q242 -38 291 -148q22 -47 22 -113q0 -178 -148 -275t-378 -97q-231 0 -317 102q-71 83 -73 199v43h287v-17q0 -98 164 -98t164 94
q0 59 -64 79t-136 30q-73 10 -97 14q-227 43 -228 246q0 174 144 273q142 99 336 99z" />
    <glyph glyph-name="t" unicode="t" horiz-adv-x="772" 
d="M446 -20q-122 0 -200 50t-78 160q0 31 6 72l90 516h-135l45 246h135l47 268l301 82l-61 -350h190l-45 -246h-190l-80 -456q-2 -12 -2 -25q0 -72 127 -72q35 1 92 11l-43 -236q-76 -20 -199 -20z" />
    <glyph glyph-name="u" unicode="u" horiz-adv-x="1177" 
d="M387 -20q-322 0 -246 428l109 616h287l-101 -575q-41 -223 109 -224q102 0 181 86t105 240l84 473h287l-180 -1024h-242l-6 164q-164 -184 -387 -184z" />
    <glyph glyph-name="v" unicode="v" horiz-adv-x="1155" 
d="M1266 1024l-588 -1024h-295l-223 1024h291l129 -756l383 756h303z" />
    <glyph glyph-name="w" unicode="w" horiz-adv-x="1568" 
d="M1679 1024l-487 -1024h-291l-37 682l-280 -682h-303l-121 1024h286l46 -702l288 702h291l37 -702l278 702h293z" />
    <glyph glyph-name="x" unicode="x" horiz-adv-x="1126" 
d="M1188 1024l-418 -487l293 -537h-334l-156 346l-299 -346h-303l500 547l-258 477h334l119 -276l217 276h305z" />
    <glyph glyph-name="y" unicode="y" horiz-adv-x="1095" 
d="M190 -410h-143l43 246h92q78 0 118 31t89 125l31 61l-244 971h303l125 -666l346 666h273l-672 -1231q-113 -203 -361 -203z" />
    <glyph glyph-name="z" unicode="z" horiz-adv-x="1013" 
d="M1079 1024l-45 -246l-620 -532h549l-45 -246h-916l45 246l621 532h-508l45 246h874z" />
    <glyph glyph-name="braceleft" unicode="{" horiz-adv-x="794" 
d="M872 1167q-139 0 -161 -133l-58 -317q-23 -135 -143 -185q102 -53 80 -184l-58 -317q-12 -74 18 -104t99 -29h31l-43 -246h-45q-207 0 -299 64t-64 225l60 335q12 66 -23 100t-127 34l43 245q174 0 197 133l59 336q29 160 143 225t320 64h45l-43 -246h-31z" />
    <glyph glyph-name="bar" unicode="|" horiz-adv-x="679" 
d="M88 -348l309 1761h287l-309 -1761h-287z" />
    <glyph glyph-name="braceright" unicode="}" horiz-adv-x="794" 
d="M14 -102q139 0 162 133l57 317q23 133 142 184q-100 49 -78 185l57 317q12 74 -17 104q-30 30 -99 29h-31l43 246h45q207 -1 298 -65t62 -224l-59 -336q-12 -66 22 -100t130 -33l-43 -245q-179 -1 -199 -134l-60 -335q-30 -160 -142 -225t-316 -64h-45l43 246h28z" />
    <glyph glyph-name="asciitilde" unicode="~" horiz-adv-x="976" 
d="M664 537q-63 0 -135 42t-110 42t-62 -25t-29 -59h-176q33 184 143 238q57 28 131 28t146 -42t106 -42q36 -1 60 23t30 61h176q-49 -266 -280 -266z" />
    <glyph glyph-name="exclamdown" unicode="&#xa1;" horiz-adv-x="655" 
d="M92 -389l215 989h193l-133 -989h-275zM285 737l51 287h287l-52 -287h-286z" />
    <glyph glyph-name="cent" unicode="&#xa2;" horiz-adv-x="1169" 
d="M605 430q97 0 153 28q55 28 84 107h293q-53 -162 -181 -266t-338 -115l-32 -184h-105l33 186q-217 18 -317 160q-99 142 -59 368q40 228 190 370t374 163l27 160h104l-26 -160q201 -13 291 -127t75 -270h-290q2 59 -34 106q-37 48 -139 48t-178 -76t-100 -213t26 -211
q52 -74 149 -74z" />
    <glyph glyph-name="sterling" unicode="&#xa3;" horiz-adv-x="1198" 
d="M856 1413q434 0 369 -383h-305q23 121 -111 121q-51 0 -93 -29t-52 -92l-50 -278h318l-39 -222h-318l-20 -118q-23 -119 -109 -150h371q84 0 103 109h305q-22 -131 -100 -240q-94 -131 -328 -131h-793l47 262q174 0 197 146l22 122h-170l39 222h170l49 278
q20 126 129 247q55 60 151 98t218 38z" />
    <glyph glyph-name="currency" unicode="&#xa4;" horiz-adv-x="1198" 
d="M586 0q-152 0 -262 80l-209 -178l-127 157l207 179q-57 129 -31 274q25 145 127 274l-146 179l185 157l147 -178q141 80 289 80t262 -80l209 178l131 -157l-211 -179q57 -127 33 -274q-29 -147 -129 -274l147 -179l-186 -157l-148 178q-136 -80 -288 -80zM625 223
q123 0 221 86t120 205t-51 203q-71 84 -189 84t-218 -85t-122 -203t47 -204t192 -86z" />
    <glyph glyph-name="yen" unicode="&#xa5;" horiz-adv-x="1198" 
d="M1487 1413l-518 -721h235l-30 -170h-322l-23 -129h322l-31 -170h-321l-39 -223h-287l39 223h-334l31 170h334l22 129h-334l31 170h246l-262 721h325l195 -631l418 631h303z" />
    <glyph glyph-name="brokenbar" unicode="&#xa6;" horiz-adv-x="552" 
d="M25 -348l133 758h286l-133 -758h-286zM201 655l133 758h287l-134 -758h-286z" />
    <glyph glyph-name="section" unicode="&#xa7;" horiz-adv-x="1075" 
d="M715 546q29 36 37 84t-3 74q-23 53 -164 77q-42 7 -55 12q-28 -13 -56 -51t-35 -80q-14 -85 38 -112q53 -27 109 -37q57 -9 73 -13q27 10 56 46zM508 96q150 0 164 84q12 64 -45 83q-58 19 -134 31q-77 11 -110 17q-270 59 -227 295q29 168 204 262q-51 27 -91 94
t-25 152q22 124 138 222t347 98t312 -115q71 -99 59 -232h-285q2 55 -32 87t-103 30q-127 0 -139 -88q-8 -39 11 -55q18 -15 32 -23t42 -14q38 -8 102 -17q193 -27 274 -95q82 -68 57 -214q-17 -92 -71 -160t-122 -100q53 -27 86 -89t17 -157q-15 -95 -71 -163t-134 -101
q-144 -61 -309 -61q-227 0 -315 95q-87 95 -81 249h289q2 -63 39 -89t121 -26z" />
    <glyph glyph-name="dieresis" unicode="&#xa8;" horiz-adv-x="1126" 
d="M274 1167l45 246h287l-45 -246h-287zM745 1167l46 246h286l-45 -246h-287z" />
    <glyph glyph-name="copyright" unicode="&#xa9;" horiz-adv-x="1507" 
d="M766 295q-160 0 -246 106t-51 301q33 195 157 303t296 107q90 0 154 -28t94 -66q54 -71 60 -148q1 -25 -1 -32h-170q0 125 -164 125q-100 0 -168 -68q-67 -68 -89 -193q-22 -126 22 -192t145 -66q166 0 211 146h170q-48 -139 -154 -217t-266 -78zM752 168q223 0 406 157
t224 380q39 223 -90 379t-352 157q-224 0 -408 -157q-184 -158 -223 -380t91 -379t352 -157zM1575 702q-23 -123 -78 -231q-113 -221 -328 -359t-454 -139q-303 0 -478 213t-122 516q35 199 161 367t312 266t385 99q303 0 479 -214t123 -518z" />
    <glyph glyph-name="ordfeminine" unicode="&#xaa;" horiz-adv-x="724" 
d="M383 842q160 0 182 125l8 37l-81 -13q-162 -25 -173 -94q-5 -33 13 -44t51 -11zM543 1423q141 1 212 -69t44 -226l-76 -436h-168l-10 88q-94 -102 -240 -102q-94 0 -154 45t-42 149q39 211 399 254l88 11l8 43q6 32 -16 56t-78 24q-98 0 -119 -80h-205q76 243 357 243z
" />
    <glyph glyph-name="guillemotleft" unicode="&#xab;" horiz-adv-x="1269" 
d="M1292 965l-403 -449l244 -455h-273l-242 455l402 449h272zM821 965l-403 -449l244 -455h-273l-242 455l402 449h272z" />
    <glyph glyph-name="logicalnot" unicode="&#xac;" horiz-adv-x="1198" 
d="M168 494l41 229h997l-100 -565h-281l60 336h-717z" />
    <glyph glyph-name="registered" unicode="&#xae;" horiz-adv-x="1507" 
d="M973 1434q303 0 479 -214t123 -518t-305 -516q-252 -213 -555 -213t-478 213t-122 516q35 199 161 367q126 169 312 267t385 98zM752 168q223 0 406 157t224 380q39 223 -90 379t-352 157q-224 0 -408 -157q-184 -158 -223 -380t91 -379t352 -157zM969 1098
q160 0 198 -132q14 -48 2 -114q-23 -119 -93 -175t-142 -69l160 -299h-189l-135 293h-80l-51 -293h-170l139 789h361zM872 752q104 0 127 100q16 94 -92 94h-155l-35 -194h155z" />
    <glyph glyph-name="macron" unicode="&#xaf;" horiz-adv-x="1009" 
d="M958 1413l-38 -225h-641l38 225h641z" />
    <glyph glyph-name="degree" unicode="&#xb0;" horiz-adv-x="843" 
d="M692 1536q123 0 195 -87q73 -87 51 -210t-124 -209t-226 -86q-123 0 -194 86t-50 209q23 123 124 210t224 87zM667 1391q-63 0 -115 -44q-52 -43 -62 -107t25 -108q36 -44 98 -45q63 1 115 45t63 107q10 63 -26 107t-98 45z" />
    <glyph glyph-name="plusminus" unicode="&#xb1;" horiz-adv-x="1198" 
d="M678 1407h260l-61 -352h354l-45 -260h-355l-63 -361h-260l63 361h-352l45 260h352zM1085 231l-41 -231h-964l41 231h964z" />
    <glyph glyph-name="twosuperior" unicode="&#xb2;" horiz-adv-x="716" 
d="M514 1516q143 0 209 -71q65 -71 47 -172t-107 -193t-284 -224h330l-31 -176h-610l32 186q264 162 355 244q90 82 100 141q16 88 -68 88t-104 -112h-211q61 289 342 289z" />
    <glyph glyph-name="threesuperior" unicode="&#xb3;" horiz-adv-x="688" 
d="M416 1020h-119l31 176l135 123h-252l33 176h516l-33 -176l-176 -123q66 0 126 -62q59 -62 37 -190t-123 -201q-101 -71 -227 -71t-210 66q-86 66 -70 186h211q-4 -76 96 -76t113 88q8 40 -12 62t-76 22z" />
    <glyph glyph-name="acute" unicode="&#xb4;" horiz-adv-x="1024" 
d="M569 1413h328l-276 -266h-230z" />
    <glyph glyph-name="mu" unicode="&#xb5;" horiz-adv-x="1198" 
d="M551 225q109 0 187 74t100 188l94 537h287l-181 -1024h-241l-11 145q-141 -166 -305 -165q-59 0 -108 22l-70 -391h-287l250 1413h287l-104 -592q-21 -117 5 -162t97 -45z" />
    <glyph glyph-name="paragraph" unicode="&#xb6;" horiz-adv-x="1388" 
d="M772 1407h758l-289 -1638h-287l246 1392h-184l-246 -1392h-287l135 757q-182 0 -290 130t-76 311q33 182 185 311q153 129 335 129z" />
    <glyph glyph-name="periodcentered" unicode="&#xb7;" horiz-adv-x="475" 
d="M106 348l52 287h295l-52 -287h-295z" />
    <glyph glyph-name="cedilla" unicode="&#xb8;" horiz-adv-x="784" 
d="M316 -287q70 0 77 47q6 35 -17 49q-24 13 -69 13t-90 -6l127 184h131l-59 -80q188 0 159 -162q-12 -68 -74 -118q-61 -50 -167 -50t-197 41l23 127q86 -45 156 -45z" />
    <glyph glyph-name="onesuperior" unicode="&#xb9;" horiz-adv-x="534" 
d="M256 1362q106 0 129 133h205l-144 -811h-204l90 504h-189l31 174h82z" />
    <glyph glyph-name="ordmasculine" unicode="&#xba;" horiz-adv-x="786" 
d="M589 1421q175 0 256 -96t49 -276t-146 -277q-115 -96 -289 -96t-262 97q-87 97 -57 275t152 275q122 98 297 98zM553 1245q-166 0 -203 -198q-33 -195 133 -195t199 195q37 198 -129 198z" />
    <glyph glyph-name="guillemotright" unicode="&#xbb;" horiz-adv-x="1249" 
d="M922 516l-244 449h272l242 -449l-401 -455h-273zM471 516l-244 449h273l241 -449l-401 -455h-272z" />
    <glyph glyph-name="onequarter" unicode="&#xbc;" horiz-adv-x="1581" 
d="M1270 1495l127 -82l-1123 -1495l-127 82zM221 1362q106 0 129 133h205l-143 -811h-205l90 504h-188l30 174h82zM1251 365l27 147l-160 -147h133zM1393 0h-205l33 188h-373l33 181l450 442h205l-80 -446h133l-30 -177h-134z" />
    <glyph glyph-name="onehalf" unicode="&#xbd;" horiz-adv-x="1579" 
d="M1264 1495l127 -82l-1123 -1495l-127 82zM1249 799q143 0 209 -71t48 -172t-108 -192q-89 -91 -284 -225h330l-31 -176h-610l33 187q264 162 354 244t100 141q16 88 -68 88t-104 -113h-211q61 289 342 289zM256 1362q106 0 129 133h205l-144 -811h-204l90 504h-189
l31 174h82z" />
    <glyph glyph-name="threequarters" unicode="&#xbe;" horiz-adv-x="1699" 
d="M1415 1495l127 -82l-1122 -1495l-127 82zM444 1020h-118l30 176l136 123h-252l32 176h516l-32 -176l-176 -123q66 0 126 -62t37 -190t-123 -201q-100 -71 -226 -71t-212 66t-69 186h211q-4 -76 96 -76t112 88q8 40 -12 62t-76 22zM1370 365l27 147l-160 -147h133zM1511 0
h-204l32 188h-372l32 181l451 442h205l-80 -446h133l-31 -177h-133z" />
    <glyph glyph-name="questiondown" unicode="&#xbf;" horiz-adv-x="1157" 
d="M870 1024l-49 -287h-286l49 287h286zM454 -410q-226 0 -320 106q-95 106 -64 275q14 86 58 156q44 71 79 101t111 84t123 117q48 62 69 171h287q-19 -119 -67 -207t-85 -125t-102 -88t-91 -74q-79 -70 -89 -136q-11 -66 27 -100t117 -34t134 44t66 108h286
q-27 -146 -170 -272t-369 -126z" />
    <glyph glyph-name="Agrave" unicode="&#xc0;" horiz-adv-x="1396" 
d="M610 1823h328l84 -267h-229zM823 1055l-254 -506h334zM1032 1413l268 -1413h-294l-50 262h-540l-144 -262h-301l766 1413h295z" />
    <glyph glyph-name="Aacute" unicode="&#xc1;" horiz-adv-x="1396" 
d="M836 1823h327l-276 -267h-230zM823 1055l-254 -506h334zM1032 1413l268 -1413h-294l-50 262h-540l-144 -262h-301l766 1413h295z" />
    <glyph glyph-name="Acircumflex" unicode="&#xc2;" horiz-adv-x="1396" 
d="M1022 1823l162 -267h-199l-123 148l-176 -148h-199l254 267h281zM823 1055l-254 -506h334zM1032 1413l268 -1413h-294l-50 262h-540l-144 -262h-301l766 1413h295z" />
    <glyph glyph-name="Atilde" unicode="&#xc3;" horiz-adv-x="1396" 
d="M973 1556q-63 0 -135 42t-107 42q-78 0 -94 -84h-176q33 185 143 239q57 28 131 28t146 -43t102 -43q78 0 94 86h176q-44 -267 -280 -267zM823 1055l-254 -506h334zM1032 1413l268 -1413h-294l-50 262h-540l-144 -262h-301l766 1413h295z" />
    <glyph glyph-name="Adieresis" unicode="&#xc4;" horiz-adv-x="1396" 
d="M457 1577l45 246h286l-45 -246h-286zM928 1577l45 246h287l-46 -246h-286zM823 1055l-254 -506h334zM1032 1413l268 -1413h-294l-50 262h-540l-144 -262h-301l766 1413h295z" />
    <glyph glyph-name="Aring" unicode="&#xc5;" horiz-adv-x="1396" 
d="M920 2120q116 0 182 -81t46 -196t-116 -195t-210 -81q-114 0 -180 81q-66 82 -46 196t114 195t210 81zM855 1745q40 0 75 29q35 30 42 70t-18 69q-26 29 -66 29t-74 -29t-41 -70t17 -69t65 -29zM823 1055l-254 -506h334zM1032 1413l268 -1413h-294l-50 262h-540
l-144 -262h-301l766 1413h295z" />
    <glyph glyph-name="AE" unicode="&#xc6;" horiz-adv-x="2121" 
d="M1169 981l-378 -432h301zM2226 1413l-43 -246h-694l-57 -317h573l-43 -246h-573l-64 -358h694l-43 -246h-981l47 262h-510l-243 -262h-318l1274 1413h981z" />
    <glyph glyph-name="Ccedilla" unicode="&#xc7;" horiz-adv-x="1478" 
d="M968 1434q290 0 424 -140q136 -140 134 -352h-293q-12 246 -291 246q-94 0 -172 -34q-237 -103 -299 -452q-84 -477 301 -477q281 0 395 277h293q-74 -212 -245 -358t-427 -162l-45 -62q186 0 158 -162q-13 -68 -75 -118t-168 -50t-195 41l22 127q86 -45 156 -45t78 47
q6 34 -18 48q-25 14 -69 14t-87 -6l112 168q-274 20 -406 207t-73 523q60 336 280 528t510 192z" />
    <glyph glyph-name="Egrave" unicode="&#xc8;" horiz-adv-x="1226" 
d="M506 1823h328l84 -267h-230zM1331 1413l-43 -246h-688l-57 -317h567l-43 -246h-567l-64 -358h688l-43 -246h-981l250 1413h981z" />
    <glyph glyph-name="Eacute" unicode="&#xc9;" horiz-adv-x="1226" 
d="M834 1823h327l-276 -267h-230zM1331 1413l-43 -246h-688l-57 -317h567l-43 -246h-567l-64 -358h688l-43 -246h-981l250 1413h981z" />
    <glyph glyph-name="Ecircumflex" unicode="&#xca;" horiz-adv-x="1226" 
d="M1032 1823l162 -267h-199l-123 148l-176 -148h-198l254 267h280zM1331 1413l-43 -246h-688l-57 -317h567l-43 -246h-567l-64 -358h688l-43 -246h-981l250 1413h981z" />
    <glyph glyph-name="Edieresis" unicode="&#xcb;" horiz-adv-x="1226" 
d="M469 1577l45 246h287l-45 -246h-287zM940 1577l45 246h287l-45 -246h-287zM1331 1413l-43 -246h-688l-57 -317h567l-43 -246h-567l-64 -358h688l-43 -246h-981l250 1413h981z" />
    <glyph glyph-name="Igrave" unicode="&#xcc;" horiz-adv-x="655" 
d="M156 1823h327l84 -267h-229zM387 0h-287l250 1413h287z" />
    <glyph glyph-name="Iacute" unicode="&#xcd;" horiz-adv-x="655" 
d="M512 1823h328l-277 -267h-229zM387 0h-287l250 1413h287z" />
    <glyph glyph-name="Icircumflex" unicode="&#xce;" horiz-adv-x="655" 
d="M682 1823l162 -267h-199l-123 148l-176 -148h-199l254 267h281zM387 0h-287l250 1413h287z" />
    <glyph glyph-name="Idieresis" unicode="&#xcf;" horiz-adv-x="655" 
d="M121 1577l45 246h287l-45 -246h-287zM592 1577l45 246h287l-45 -246h-287zM387 0h-287l250 1413h287z" />
    <glyph glyph-name="Eth" unicode="&#xd0;" horiz-adv-x="1417" 
d="M627 246q188 0 321 112t174 349q41 235 -52 345t-282 109h-206l-56 -317h236l-49 -283h-236l-57 -315h207zM852 1407q398 0 526 -242q56 -102 58 -271q0 -87 -19 -187q-31 -177 -103 -311t-154 -208q-83 -74 -189 -118q-172 -70 -367 -70h-514l100 561h-153l49 283h154
l98 563h514z" />
    <glyph glyph-name="Ntilde" unicode="&#xd1;" horiz-adv-x="1536" 
d="M1102 1556q-63 0 -135 42t-107 42q-78 0 -94 -84h-176q33 185 143 239q57 28 131 28t146 -43t102 -43q78 0 94 86h176q-44 -267 -280 -267zM1559 1413l-250 -1413h-328l-420 995l-174 -995h-287l250 1413h346l406 -964l170 964h287z" />
    <glyph glyph-name="Ograve" unicode="&#xd2;" horiz-adv-x="1581" 
d="M731 1823h328l84 -267h-230zM1559 864q0 -342 -210 -606q-101 -127 -265 -203t-363 -75q-272 0 -425 141t-153 422q0 340 213 607q102 128 266 206t365 78q268 0 420 -142t152 -428zM944 1188q-127 0 -227 -54q-101 -54 -159 -144q-118 -183 -118 -412q0 -352 318 -353
q127 -1 227 53q181 97 249 332q30 104 30 217q-1 361 -320 361z" />
    <glyph glyph-name="Oacute" unicode="&#xd3;" horiz-adv-x="1581" 
d="M969 1823h327l-276 -267h-229zM1559 864q0 -342 -210 -606q-101 -127 -265 -203t-363 -75q-272 0 -425 141t-153 422q0 340 213 607q102 128 266 206t365 78q268 0 420 -142t152 -428zM944 1188q-127 0 -227 -54q-101 -54 -159 -144q-118 -183 -118 -412q0 -352 318 -353
q127 -1 227 53q181 97 249 332q30 104 30 217q-1 361 -320 361z" />
    <glyph glyph-name="Ocircumflex" unicode="&#xd4;" horiz-adv-x="1581" 
d="M1130 1823l162 -267h-198l-123 148l-176 -148h-199l254 267h280zM1559 864q0 -342 -210 -606q-101 -127 -265 -203t-363 -75q-272 0 -425 141t-153 422q0 340 213 607q102 128 266 206t365 78q268 0 420 -142t152 -428zM944 1188q-127 0 -227 -54q-101 -54 -159 -144
q-118 -183 -118 -412q0 -352 318 -353q127 -1 227 53q181 97 249 332q30 104 30 217q-1 361 -320 361z" />
    <glyph glyph-name="Otilde" unicode="&#xd5;" horiz-adv-x="1581" 
d="M1090 1556q-64 0 -136 42t-106 42q-78 0 -94 -84h-176q33 185 143 239q57 28 131 28t146 -43t102 -43q78 0 94 86h176q-44 -267 -280 -267zM1559 864q0 -342 -210 -606q-101 -127 -265 -203t-363 -75q-272 0 -425 141t-153 422q0 340 213 607q102 128 266 206t365 78
q268 0 420 -142t152 -428zM944 1188q-127 0 -227 -54q-101 -54 -159 -144q-118 -183 -118 -412q0 -352 318 -353q127 -1 227 53q181 97 249 332q30 104 30 217q-1 361 -320 361z" />
    <glyph glyph-name="Odieresis" unicode="&#xd6;" horiz-adv-x="1581" 
d="M573 1577l45 246h287l-45 -246h-287zM1044 1577l46 246h286l-45 -246h-287zM1559 864q0 -342 -210 -606q-101 -127 -265 -203t-363 -75q-272 0 -425 141t-153 422q0 340 213 607q102 128 266 206t365 78q268 0 420 -142t152 -428zM944 1188q-127 0 -227 -54
q-101 -54 -159 -144q-118 -183 -118 -412q0 -352 318 -353q127 -1 227 53q181 97 249 332q30 104 30 217q-1 361 -320 361z" />
    <glyph glyph-name="multiply" unicode="&#xd7;" horiz-adv-x="1198" 
d="M307 788l205 175l211 -258l305 260l143 -174l-305 -261l213 -258l-205 -174l-210 260l-306 -258l-143 174l303 256z" />
    <glyph glyph-name="Oslash" unicode="&#xd8;" horiz-adv-x="1581" 
d="M768 225q397 0 481 477q35 207 -12 324l-666 -758q74 -43 197 -43zM936 1188q-396 0 -478 -470q-40 -226 9 -337l668 762q-78 45 -199 45zM723 -20q-199 0 -338 77l-135 -153l-117 96l133 152q-170 194 -108 546t284 544q223 192 539 192q199 0 338 -80l135 153l121 -94
l-137 -156q169 -193 107 -546t-284 -542t-538 -189z" />
    <glyph glyph-name="Ugrave" unicode="&#xd9;" horiz-adv-x="1445" 
d="M614 1823h328l84 -267h-229zM678 -20q-250 0 -375 98t-133 274q-4 66 8 129l164 932h287l-168 -956q-4 -18 -4 -54q0 -178 243 -178q281 0 322 232l168 956h287l-164 -932q-41 -231 -213 -366t-422 -135z" />
    <glyph glyph-name="Uacute" unicode="&#xda;" horiz-adv-x="1445" 
d="M911 1823h328l-276 -267h-230zM678 -20q-250 0 -375 98t-133 274q-4 66 8 129l164 932h287l-168 -956q-4 -18 -4 -54q0 -178 243 -178q281 0 322 232l168 956h287l-164 -932q-41 -231 -213 -366t-422 -135z" />
    <glyph glyph-name="Ucircumflex" unicode="&#xdb;" horiz-adv-x="1445" 
d="M1053 1823l161 -267h-198l-123 148l-176 -148h-199l254 267h281zM678 -20q-250 0 -375 98t-133 274q-4 66 8 129l164 932h287l-168 -956q-4 -18 -4 -54q0 -178 243 -178q281 0 322 232l168 956h287l-164 -932q-41 -231 -213 -366t-422 -135z" />
    <glyph glyph-name="Udieresis" unicode="&#xdc;" horiz-adv-x="1445" 
d="M506 1577l45 246h287l-45 -246h-287zM977 1577l45 246h287l-45 -246h-287zM678 -20q-250 0 -375 98t-133 274q-4 66 8 129l164 932h287l-168 -956q-4 -18 -4 -54q0 -178 243 -178q281 0 322 232l168 956h287l-164 -932q-41 -231 -213 -366t-422 -135z" />
    <glyph glyph-name="Yacute" unicode="&#xdd;" horiz-adv-x="1306" 
d="M834 1823h327l-276 -267h-230zM442 0l95 532l-318 881h307l201 -625l406 625h327l-633 -881l-92 -532h-293z" />
    <glyph glyph-name="Thorn" unicode="&#xde;" horiz-adv-x="1308" 
d="M758 508q174 0 211 194q33 193 -144 193h-262l-67 -387h262zM889 1157q185 0 298 -92q129 -105 85 -353q-43 -247 -197 -357t-340 -109h-286l-43 -246h-306l248 1407h305l-43 -250h279z" />
    <glyph glyph-name="germandbls" unicode="&#xdf;" horiz-adv-x="1165" 
d="M694 0h-157l41 233h157q44 1 93 25q94 47 117 178q25 131 -31 172t-189 41l41 234q63 1 102 27t52 56q48 119 0 188q-33 46 -115 46t-140 -39t-73 -123l-182 -1038h-277l182 1032q25 156 149 279t366 123t330 -114t59 -271q-20 -109 -72 -179t-109 -96q10 0 40 -10
t49 -24q66 -51 79 -95q12 -43 22 -94t-7 -119q-37 -208 -175 -320t-352 -112z" />
    <glyph glyph-name="agrave" unicode="&#xe0;" horiz-adv-x="1114" 
d="M502 1413h327l84 -266h-229zM588 225q147 0 218 117t71 252q0 205 -179 205q-143 0 -213 -118t-69 -257q0 -199 172 -199zM115 354q0 180 60 330t187 255t295 105q203 0 279 -155l63 135h248l-180 -1024h-244l-8 139q-143 -160 -346 -159q-166 0 -260 97t-94 277z" />
    <glyph glyph-name="aacute" unicode="&#xe1;" horiz-adv-x="1114" 
d="M778 1413h328l-277 -266h-229zM588 225q147 0 218 117t71 252q0 205 -179 205q-143 0 -213 -118t-69 -257q0 -199 172 -199zM115 354q0 180 60 330t187 255t295 105q203 0 279 -155l63 135h248l-180 -1024h-244l-8 139q-143 -160 -346 -159q-166 0 -260 97t-94 277z" />
    <glyph glyph-name="acircumflex" unicode="&#xe2;" horiz-adv-x="1114" 
d="M963 1413l161 -266h-198l-123 147l-176 -147h-199l254 266h281zM588 225q147 0 218 117t71 252q0 205 -179 205q-143 0 -213 -118t-69 -257q0 -199 172 -199zM115 354q0 180 60 330t187 255t295 105q203 0 279 -155l63 135h248l-180 -1024h-244l-8 139
q-143 -160 -346 -159q-166 0 -260 97t-94 277z" />
    <glyph glyph-name="atilde" unicode="&#xe3;" horiz-adv-x="1114" 
d="M897 1147q-63 0 -135 42t-107 42q-78 0 -94 -84h-176q33 186 143 238q58 28 132 28t146 -43t101 -43q78 0 94 86h177q-45 -266 -281 -266zM588 225q147 0 218 117t71 252q0 205 -179 205q-143 0 -213 -118t-69 -257q0 -199 172 -199zM115 354q0 180 60 330t187 255
t295 105q203 0 279 -155l63 135h248l-180 -1024h-244l-8 139q-143 -160 -346 -159q-166 0 -260 97t-94 277z" />
    <glyph glyph-name="adieresis" unicode="&#xe4;" horiz-adv-x="1114" 
d="M395 1167l45 246h287l-45 -246h-287zM866 1167l45 246h287l-45 -246h-287zM588 225q147 0 218 117t71 252q0 205 -179 205q-143 0 -213 -118t-69 -257q0 -199 172 -199zM115 354q0 180 60 330t187 255t295 105q203 0 279 -155l63 135h248l-180 -1024h-244l-8 139
q-143 -160 -346 -159q-166 0 -260 97t-94 277z" />
    <glyph glyph-name="aring" unicode="&#xe5;" horiz-adv-x="1114" 
d="M842 1710q116 0 182 -81t46 -195t-116 -196q-96 -81 -210 -81t-180 81t-46 196q20 116 114 196t210 80zM777 1335q40 0 75 29t41 70q7 42 -17 70t-65 28t-75 -29t-41 -69t17 -70q24 -29 65 -29zM588 225q147 0 218 117t71 252q0 205 -179 205q-143 0 -213 -118t-69 -257
q0 -199 172 -199zM115 354q0 180 60 330t187 255t295 105q203 0 279 -155l63 135h248l-180 -1024h-244l-8 139q-143 -160 -346 -159q-166 0 -260 97t-94 277z" />
    <glyph glyph-name="ae" unicode="&#xe6;" horiz-adv-x="1869" 
d="M1382 815q-160 0 -243 -180h424q6 84 -42 132q-49 48 -139 48zM506 209q82 0 152 57t90 166l6 37l-121 -18q-238 -37 -256 -146q-9 -43 19 -69t110 -27zM657 815q-147 0 -178 -117h-286q36 121 148 234q113 114 354 113t329 -164q174 163 394 163t339 -137t76 -389
l-12 -74h-727q-10 -102 36 -169t152 -66q139 -1 209 108h297q-162 -338 -531 -337q-87 0 -161 18t-141 72t-83 141q-70 -90 -198 -161q-128 -70 -284 -70q-155 0 -244 70t-63 219q26 147 156 241t420 131l127 16l5 21q25 137 -134 137z" />
    <glyph glyph-name="ccedilla" unicode="&#xe7;" horiz-adv-x="1148" 
d="M889 645q0 59 -35 107q-36 48 -138 47q-102 0 -178 -76t-100 -213q-26 -137 26 -211t150 -74t152 28q55 28 84 107h293q-115 -354 -506 -378l-45 -62q186 0 158 -162q-10 -66 -72 -116t-168 -52q-108 0 -199 41l23 127q86 -45 156 -45t77 47q6 35 -17 49q-24 13 -69 13
t-88 -6l113 168q-211 20 -307 161q-97 141 -55 375t210 379t404 145t338 -117q100 -118 84 -282h-291z" />
    <glyph glyph-name="egrave" unicode="&#xe8;" horiz-adv-x="1189" 
d="M465 1413h328l84 -266h-230zM704 815q-85 0 -150 -48t-95 -132h422q2 18 2 35q0 61 -47 103t-132 42zM115 391q0 160 73 307q74 146 220 246t333 100t305 -103t117 -304q0 -80 -22 -193h-727q-2 -16 -2 -47q0 -80 48 -134t144 -54q135 -1 207 108h297
q-162 -338 -545 -337q-207 0 -327 105t-121 306z" />
    <glyph glyph-name="eacute" unicode="&#xe9;" horiz-adv-x="1189" 
d="M702 1413h328l-276 -266h-230zM704 815q-85 0 -150 -48t-95 -132h422q2 18 2 35q0 61 -47 103t-132 42zM115 391q0 160 73 307q74 146 220 246t333 100t305 -103t117 -304q0 -80 -22 -193h-727q-2 -16 -2 -47q0 -80 48 -134t144 -54q135 -1 207 108h297
q-162 -338 -545 -337q-207 0 -327 105t-121 306z" />
    <glyph glyph-name="ecircumflex" unicode="&#xea;" horiz-adv-x="1189" 
d="M868 1413l162 -266h-199l-122 147l-177 -147h-198l254 266h280zM704 815q-85 0 -150 -48t-95 -132h422q2 18 2 35q0 61 -47 103t-132 42zM115 391q0 160 73 307q74 146 220 246t333 100t305 -103t117 -304q0 -80 -22 -193h-727q-2 -16 -2 -47q0 -80 48 -134t144 -54
q135 -1 207 108h297q-162 -338 -545 -337q-207 0 -327 105t-121 306z" />
    <glyph glyph-name="edieresis" unicode="&#xeb;" horiz-adv-x="1189" 
d="M307 1167l45 246h287l-45 -246h-287zM778 1167l45 246h287l-45 -246h-287zM704 815q-85 0 -150 -48t-95 -132h422q2 18 2 35q0 61 -47 103t-132 42zM115 391q0 160 73 307q74 146 220 246t333 100t305 -103t117 -304q0 -80 -22 -193h-727q-2 -16 -2 -47q0 -80 48 -134
t144 -54q135 -1 207 108h297q-162 -338 -545 -337q-207 0 -327 105t-121 306z" />
    <glyph glyph-name="igrave" unicode="&#xec;" horiz-adv-x="548" 
d="M47 1413h328l84 -266h-230zM371 0h-287l182 1024h287z" />
    <glyph glyph-name="iacute" unicode="&#xed;" horiz-adv-x="550" 
d="M332 1413h327l-276 -266h-229zM371 0h-287l182 1024h287z" />
    <glyph glyph-name="icircumflex" unicode="&#xee;" horiz-adv-x="548" 
d="M504 1413l162 -266h-199l-123 147l-176 -147h-199l254 266h281zM371 0h-287l182 1024h287z" />
    <glyph glyph-name="idieresis" unicode="&#xef;" horiz-adv-x="548" 
d="M-59 1167l45 246h286l-45 -246h-286zM412 1167l45 246h286l-45 -246h-286zM371 0h-287l182 1024h287z" />
    <glyph glyph-name="eth" unicode="&#xf0;" horiz-adv-x="1241" 
d="M569 197q119 0 199 84q111 117 115 337q-3 98 -55 154t-158 55q-106 0 -187 -85q-79 -85 -105 -231t23 -230t168 -84zM666 1032q82 0 166 -31t120 -102q-31 260 -239 336l-109 -166l-139 74l82 129q-59 8 -141 8l75 250q121 0 221 -19l93 146l141 -74l-74 -117
q158 -61 248 -184q90 -122 105 -278t-11 -316t-68 -271q-171 -441 -606 -444q-236 -1 -356 141t-75 397q44 255 204 388t363 133z" />
    <glyph glyph-name="ntilde" unicode="&#xf1;" horiz-adv-x="1216" 
d="M860 1147q-63 0 -135 42t-107 42q-78 0 -94 -84h-176q33 185 144 238q57 28 131 28q73 0 145 -43t102 -43q78 0 95 86h176q-45 -266 -281 -266zM909 1044q268 0 269 -280q0 -72 -15 -152l-108 -612h-287l102 582q8 53 9 86q0 131 -125 131q-109 0 -190 -82t-109 -244
l-84 -473h-287l180 1024h242l6 -164q166 184 397 184z" />
    <glyph glyph-name="ograve" unicode="&#xf2;" horiz-adv-x="1236" 
d="M489 1413h328l84 -266h-229zM756 1044q219 0 337 -116t117 -324q0 -260 -173 -442t-459 -182q-215 0 -339 110t-124 318q0 254 175 445t466 191zM725 799q-106 1 -180 -61q-137 -114 -136 -314q1 -199 193 -199q156 0 234 110t77 255q0 209 -188 209z" />
    <glyph glyph-name="oacute" unicode="&#xf3;" horiz-adv-x="1236" 
d="M717 1413h327l-276 -266h-229zM756 1044q219 0 337 -116t117 -324q0 -260 -173 -442t-459 -182q-215 0 -339 110t-124 318q0 254 175 445t466 191zM725 799q-106 1 -180 -61q-137 -114 -136 -314q1 -199 193 -199q156 0 234 110t77 255q0 209 -188 209z" />
    <glyph glyph-name="ocircumflex" unicode="&#xf4;" horiz-adv-x="1236" 
d="M893 1413l162 -266h-199l-123 147l-176 -147h-199l254 266h281zM756 1044q219 0 337 -116t117 -324q0 -260 -173 -442t-459 -182q-215 0 -339 110t-124 318q0 254 175 445t466 191zM725 799q-106 1 -180 -61q-137 -114 -136 -314q1 -199 193 -199q156 0 234 110t77 255
q0 209 -188 209z" />
    <glyph glyph-name="otilde" unicode="&#xf5;" horiz-adv-x="1236" 
d="M844 1147q-63 0 -135 42t-107 42q-78 0 -94 -84h-176q33 186 143 238q57 28 131 28t146 -43t102 -43q78 0 94 86h176q-44 -266 -280 -266zM756 1044q219 0 337 -116t117 -324q0 -260 -173 -442t-459 -182q-215 0 -339 110t-124 318q0 254 175 445t466 191zM725 799
q-106 1 -180 -61q-137 -114 -136 -314q1 -199 193 -199q156 0 234 110t77 255q0 209 -188 209z" />
    <glyph glyph-name="odieresis" unicode="&#xf6;" horiz-adv-x="1236" 
d="M326 1167l45 246h286l-45 -246h-286zM797 1167l45 246h286l-45 -246h-286zM756 1044q219 0 337 -116t117 -324q0 -260 -173 -442t-459 -182q-215 0 -339 110t-124 318q0 254 175 445t466 191zM725 799q-106 1 -180 -61q-137 -114 -136 -314q1 -199 193 -199
q156 0 234 110t77 255q0 209 -188 209z" />
    <glyph glyph-name="divide" unicode="&#xf7;" horiz-adv-x="1198" 
d="M1176 836l-46 -261h-890l45 261h891zM473 143l49 281h281l-49 -281h-281zM621 987l49 281h282l-49 -281h-282z" />
    <glyph glyph-name="oslash" unicode="&#xf8;" horiz-adv-x="1236" 
d="M713 799q-242 0 -293 -291q-14 -90 -6 -146l374 426q-30 11 -75 11zM903 508q18 102 -6 178l-387 -446q37 -14 102 -15q240 0 291 283zM756 1044q131 0 223 -36l115 131l116 -95l-102 -116q139 -138 92 -406t-212 -405t-421 -137q-133 0 -241 49l-111 -125l-117 96
l107 121q-125 139 -80 390t218 392t413 141z" />
    <glyph glyph-name="ugrave" unicode="&#xf9;" horiz-adv-x="1198" 
d="M406 1413h327l84 -266h-229zM387 -20q-322 0 -246 428l109 616h287l-101 -575q-41 -223 109 -224q102 0 181 86t105 240l84 473h287l-180 -1024h-242l-6 164q-164 -184 -387 -184z" />
    <glyph glyph-name="uacute" unicode="&#xfa;" horiz-adv-x="1198" 
d="M713 1413h327l-276 -266h-229zM387 -20q-322 0 -246 428l109 616h287l-101 -575q-41 -223 109 -224q102 0 181 86t105 240l84 473h287l-180 -1024h-242l-6 164q-164 -184 -387 -184z" />
    <glyph glyph-name="ucircumflex" unicode="&#xfb;" horiz-adv-x="1198" 
d="M856 1413l162 -266h-199l-123 147l-176 -147h-198l253 266h281zM387 -20q-322 0 -246 428l109 616h287l-101 -575q-41 -223 109 -224q102 0 181 86t105 240l84 473h287l-180 -1024h-242l-6 164q-164 -184 -387 -184z" />
    <glyph glyph-name="udieresis" unicode="&#xfc;" horiz-adv-x="1198" 
d="M299 1167l45 246h287l-45 -246h-287zM770 1167l45 246h287l-45 -246h-287zM387 -20q-322 0 -246 428l109 616h287l-101 -575q-41 -223 109 -224q102 0 181 86t105 240l84 473h287l-180 -1024h-242l-6 164q-164 -184 -387 -184z" />
    <glyph glyph-name="yacute" unicode="&#xfd;" horiz-adv-x="1095" 
d="M639 1413h328l-277 -266h-229zM190 -410h-143l43 246h92q78 0 118 31t89 125l31 61l-244 971h303l125 -666l346 666h273l-672 -1231q-113 -203 -361 -203z" />
    <glyph glyph-name="thorn" unicode="&#xfe;" horiz-adv-x="1261" 
d="M637 225q217 0 270 287q49 287 -170 287q-109 0 -179 -73t-96 -213t20 -214t155 -74zM669 -20q-204 0 -282 155l-92 -524h-279l318 1802h287l-93 -524q131 155 329 155t293 -141t50 -398t-186 -391t-345 -134z" />
    <glyph glyph-name="ydieresis" unicode="&#xff;" horiz-adv-x="1095" 
d="M285 1167l45 246h286l-45 -246h-286zM756 1167l45 246h286l-45 -246h-286zM190 -410h-143l43 246h92q78 0 118 31t89 125l31 61l-244 971h303l125 -666l346 666h273l-672 -1231q-113 -203 -361 -203z" />
    <glyph glyph-name="dotlessi" unicode="&#x131;" horiz-adv-x="458" 
d="M322 0h-279l182 1024h279z" />
    <glyph glyph-name="Lslash" unicode="&#x141;" horiz-adv-x="1150" 
d="M430 246h651l-43 -246h-938l88 496l-182 -101l55 314l183 100l104 598h287l-74 -418l400 223l-56 -313l-399 -223z" />
    <glyph glyph-name="lslash" unicode="&#x142;" horiz-adv-x="647" 
d="M395 -12q-131 0 -216 81t-60 218l47 276l-143 -78l45 263l145 79l106 607h287l-76 -428l183 104l-45 -264l-183 -103l-69 -397q-10 -53 24 -83t86 -30l33 3l-41 -236q-66 -12 -123 -12z" />
    <glyph glyph-name="OE" unicode="&#x152;" horiz-adv-x="2256" 
d="M928 1188q-190 0 -312 -126q-120 -126 -162 -363t40 -355t274 -119q192 0 316 122q124 123 166 363t-45 359t-277 119zM2361 1413l-43 -246h-694l-57 -317h573l-43 -246h-573l-64 -358h694l-43 -246h-981l19 106q-197 -127 -426 -126q-315 0 -470 189t-95 535t284 538
q223 192 539 192q231 0 379 -129l20 108h981z" />
    <glyph glyph-name="oe" unicode="&#x153;" horiz-adv-x="1986" 
d="M1483 815q-162 0 -246 -180h424q6 84 -42 132t-136 48zM709 799q-236 0 -289 -293q-47 -281 192 -281q244 0 291 283q23 127 -23 209t-171 82zM563 -20q-237 0 -359 140t-77 392q43 252 215 392t408 140q154 0 242 -54t126 -122q172 176 412 176q206 0 326 -134t75 -388
l-12 -78h-727q-12 -102 35 -169t153 -66q137 -1 209 108h297q-49 -102 -120 -173q-72 -70 -148 -104q-136 -60 -264 -60q-129 0 -222 49t-141 125q-63 -72 -173 -123t-255 -51z" />
    <glyph glyph-name="Scaron" unicode="&#x160;" horiz-adv-x="1337" 
d="M743 1577l-159 266h198l123 -147l176 147h199l-256 -266h-281zM830 1434q251 0 356 -82t119 -209q6 -55 0 -119h-295q6 84 -36 129t-154 45t-190 -44q-79 -44 -79 -144q4 -74 88 -109q59 -25 158 -47q100 -22 141 -35q315 -90 313 -332q0 -161 -97 -279
q-187 -228 -554 -228q-282 0 -394 129t-87 337h295q-25 -231 237 -231q119 0 209 55t90 168q-4 82 -88 119q-59 26 -192 57q-209 45 -318 118q-110 72 -108 224t90 263t223 163t273 52z" />
    <glyph glyph-name="scaron" unicode="&#x161;" horiz-adv-x="1054" 
d="M563 1167l-160 267h199l123 -148l176 148h199l-256 -267h-281zM662 1044q194 0 289 -87t96 -226q0 -18 -3 -33h-284v7q0 111 -129 110q-72 0 -112 -33t-38 -69q1 -36 23 -49t36 -19t40 -12q27 -6 115 -20q242 -38 291 -148q22 -47 22 -113q0 -178 -148 -275t-378 -97
q-231 0 -317 102q-71 83 -73 199v43h287v-17q0 -98 164 -98t164 94q0 59 -64 79t-136 30q-73 10 -97 14q-227 43 -228 246q0 174 144 273q142 99 336 99z" />
    <glyph glyph-name="Ydieresis" unicode="&#x178;" horiz-adv-x="1306" 
d="M465 1577l45 246h287l-45 -246h-287zM936 1577l45 246h287l-45 -246h-287zM442 0l95 532l-318 881h307l201 -625l406 625h327l-633 -881l-92 -532h-293z" />
    <glyph glyph-name="Zcaron" unicode="&#x17d;" horiz-adv-x="1255" 
d="M688 1577l-160 266h199l123 -147l176 147h199l-256 -266h-281zM1376 1413l-43 -246l-950 -921h786l-43 -246h-1124l43 246l942 921h-756l43 246h1102z" />
    <glyph glyph-name="zcaron" unicode="&#x17e;" horiz-adv-x="1013" 
d="M494 1167l-160 267h198l123 -148l176 148h199l-256 -267h-280zM1079 1024l-45 -246l-620 -532h549l-45 -246h-916l45 246l621 532h-508l45 246h874z" />
    <glyph glyph-name="florin" unicode="&#x192;" horiz-adv-x="1198" 
d="M160 -184q45 0 94 28t65 80l299 850h-145l80 223h145q51 156 90 220q62 96 168 149t202 54t153 -27l-76 -211q-23 16 -65 16t-92 -29t-68 -79l-35 -93h196l-79 -223h-195l-313 -891q-66 -162 -212 -235q-106 -52 -202 -54t-152 27l74 211q23 -16 68 -16z" />
    <glyph glyph-name="circumflex" unicode="&#x2c6;" horiz-adv-x="1146" 
d="M848 1413l162 -266h-199l-123 147l-176 -147h-199l254 266h281z" />
    <glyph glyph-name="caron" unicode="&#x2c7;" horiz-adv-x="1146" 
d="M522 1167l-160 267h199l123 -148l176 148h199l-256 -267h-281z" />
    <glyph glyph-name="breve" unicode="&#x2d8;" horiz-adv-x="983" 
d="M610 1333q41 0 74 24t39 56h147q-16 -86 -93 -157q-77 -70 -191 -70t-169 70q-54 70 -38 157h145q-6 -33 20 -57t66 -23z" />
    <glyph glyph-name="dotaccent" unicode="&#x2d9;" horiz-adv-x="487" 
d="M182 1188l45 246h308l-46 -246h-307z" />
    <glyph glyph-name="ring" unicode="&#x2da;" horiz-adv-x="919" 
d="M633 1710q115 0 181 -81t46 -195t-116 -196q-96 -81 -208 -81q-114 0 -181 81t-46 196q21 116 115 196t209 80zM568 1335q40 0 75 29t41 70q8 42 -16 70t-66 28q-41 0 -75 -29t-41 -69q-6 -40 18 -70q24 -29 64 -29z" />
    <glyph glyph-name="ogonek" unicode="&#x2db;" horiz-adv-x="921" 
d="M390 -298q30 -30 84 -30t112 49l16 15l35 -55q-27 -34 -92 -63q-65 -28 -129 -28q-104 0 -154 56t-37 139q31 176 262 215h123q-213 -51 -239 -205q-11 -63 19 -93z" />
    <glyph glyph-name="tilde" unicode="&#x2dc;" horiz-adv-x="1032" 
d="M743 1147q-63 0 -135 42t-106 42q-78 0 -94 -84h-177q33 185 144 238q57 28 131 28t146 -43t102 -43q78 0 94 86h176q-45 -266 -281 -266z" />
    <glyph glyph-name="hungarumlaut" unicode="&#x2dd;" horiz-adv-x="1175" 
 />
    <glyph glyph-name="pi" unicode="&#x3c0;" horiz-adv-x="1028" 
d="M1253 1055l-41 -230h-165l-146 -825h-278l145 825h-207l-145 -825h-279l146 825h-162l41 230h1091z" />
    <glyph glyph-name="endash" unicode="&#x2013;" horiz-adv-x="1138" 
d="M113 502l49 280h975l-50 -280h-974z" />
    <glyph glyph-name="emdash" unicode="&#x2014;" horiz-adv-x="2144" 
d="M113 502l49 280h1980l-49 -280h-1980z" />
    <glyph glyph-name="quoteleft" unicode="&#x2018;" horiz-adv-x="522" 
d="M137 819l51 287q35 96 119 178t178 129h105q-99 -66 -162 -190q-29 -54 -35 -117h90l-51 -287h-295z" />
    <glyph glyph-name="quoteright" unicode="&#x2019;" horiz-adv-x="561" 
d="M686 1413l-51 -287q-37 -96 -121 -178t-178 -129h-105q15 10 52 45q122 116 143 242l4 20h-90l51 287h295z" />
    <glyph glyph-name="quotesinglbase" unicode="&#x201a;" horiz-adv-x="561" 
d="M489 287l-51 -287q-37 -96 -121 -178t-178 -129h-104q17 11 52 46q125 120 142 241l4 20h-90l52 287h294z" />
    <glyph glyph-name="quotedblleft" unicode="&#x201c;" horiz-adv-x="972" 
d="M588 819l51 287q35 96 119 178t178 129h104q-17 -11 -52 -46q-130 -126 -144 -261h90l-51 -287h-295zM137 819l51 287q35 96 119 178t178 129h105q-99 -66 -162 -190q-29 -54 -35 -117h90l-51 -287h-295z" />
    <glyph glyph-name="quotedblright" unicode="&#x201d;" horiz-adv-x="991" 
d="M1018 1413l-51 -287q-35 -96 -119 -178t-178 -129h-105q15 10 52 45q131 124 145 262h-90l51 287h295zM588 1413l-51 -287q-35 -96 -119 -178t-178 -129h-105q15 10 52 45q131 124 145 262h-90l51 287h295z" />
    <glyph glyph-name="quotedblbase" unicode="&#x201e;" horiz-adv-x="991" 
d="M920 287l-52 -287q-36 -96 -120 -178t-179 -129h-104q17 11 52 46q125 120 142 241l5 20h-91l52 287h295zM489 287l-51 -287q-37 -96 -121 -178t-178 -129h-104q17 11 52 46q125 120 142 241l4 20h-90l52 287h294z" />
    <glyph glyph-name="dagger" unicode="&#x2020;" horiz-adv-x="1030" 
d="M1098 1051l-41 -224h-309l-187 -1058h-278l186 1058h-311l41 224h311l61 356h279l-62 -356h310z" />
    <glyph glyph-name="daggerdbl" unicode="&#x2021;" horiz-adv-x="1189" 
d="M1204 1055l-39 -224h-309l-86 -481h309l-39 -223h-309l-63 -358h-279l64 358h-312l39 223h312l86 481h-312l39 224h311l62 352h278l-61 -352h309z" />
    <glyph glyph-name="bullet" unicode="&#x2022;" horiz-adv-x="802" 
d="M397 244q-113 0 -177 79t-44 191t112 192q92 78 206 78q113 0 178 -78t45 -192q-19 -114 -113 -192t-207 -78z" />
    <glyph glyph-name="perthousand" unicode="&#x2030;" horiz-adv-x="2566" 
d="M2267 827q338 0 264 -424t-413 -423q-336 0 -262 424t411 423zM2236 651q-66 0 -106 -52t-63 -200q-25 -147 -5 -195t86 -48t106 52t66 195q20 150 1 199t-85 49zM1466 827q338 0 264 -424t-413 -423q-337 0 -263 424t412 423zM1436 651q-66 0 -106 -52t-64 -200
q-24 -147 -4 -195t86 -48t106 52t66 195q20 150 1 199t-85 49zM565 1393q338 0 262 -424q-75 -424 -413 -424t-264 424q77 424 415 424zM532 1217q-66 -1 -106 -53t-66 -195q-20 -152 -1 -200t85 -48t106 52t64 199t4 196t-86 49zM1460 1495l127 -82l-1124 -1495l-127 82z
" />
    <glyph glyph-name="guilsinglleft" unicode="&#x2039;" horiz-adv-x="798" 
d="M821 965l-403 -449l244 -455h-273l-242 455l402 449h272z" />
    <glyph glyph-name="guilsinglright" unicode="&#x203a;" horiz-adv-x="798" 
d="M471 516l-244 449h273l241 -449l-401 -455h-272z" />
    <glyph glyph-name="fraction" unicode="&#x2044;" horiz-adv-x="137" 
d="M629 1495l127 -82l-1123 -1495l-127 82z" />
    <glyph glyph-name="Euro" unicode="&#x20ac;" horiz-adv-x="1198" 
d="M1059 403l180 -202q-104 -113 -226 -168q-121 -55 -317 -55t-329 124q-133 125 -150 349h-174l31 170h774l-123 -168h-197q35 -207 231 -207t300 157zM944 750h-848l29 170h168q92 248 266 380t416 134q332 0 442 -240l-254 -190q-45 162 -235 161q-225 0 -328 -245h467z
" />
    <glyph glyph-name="trademark" unicode="&#x2122;" horiz-adv-x="1673" 
d="M1217 813l280 594h242l-140 -789h-157l106 605l-284 -605h-164l-78 605l-107 -605h-159l139 789h252zM223 1407h598l-26 -147h-213l-113 -642h-170l113 642h-215z" />
    <glyph glyph-name="Omega" unicode="&#x2126;" horiz-adv-x="1513" 
d="M952 1204q-184 0 -318 -118t-171 -330q-63 -350 203 -523l-41 -233h-519l39 229h246q-266 190 -207 527q54 307 276 492q222 186 530 186t466 -184t105 -494q-59 -338 -396 -527h246l-39 -229h-518l41 233q324 170 387 523q37 212 -55 330q-91 118 -275 118z" />
    <glyph glyph-name="arrowleft" unicode="&#x2190;" horiz-adv-x="1505" 
d="M1149 1237l-496 -410h887l-47 -260h-887l352 -407h-405l-442 538l632 539h406z" />
    <glyph glyph-name="arrowup" unicode="&#x2191;" horiz-adv-x="1505" 
d="M1309 463l-334 424l-158 -887h-260l158 887l-484 -424l72 405l633 539l444 -539z" />
    <glyph glyph-name="arrowright" unicode="&#x2192;" horiz-adv-x="1505" 
d="M1020 827l-352 410h405l445 -539l-635 -538h-406l496 407h-887l47 260h887z" />
    <glyph glyph-name="arrowdown" unicode="&#x2193;" horiz-adv-x="1505" 
d="M317 944l334 -424l156 887h260l-156 -887l484 424l-72 -405l-635 -539l-442 539z" />
    <glyph glyph-name="arrowboth" unicode="&#x2194;" horiz-adv-x="2545" 
d="M2060 827l-352 408h406l442 -539l-633 -538h-405l495 409h-1407l352 -407h-405l-442 538l632 539h406l-496 -410h1407z" />
    <glyph glyph-name="arrowrightdown" unicode="&#x21b4;" horiz-adv-x="1505" 
d="M1395 934l-133 -762h-762l-238 287l588 -10l-516 624l215 187l506 -629l104 590z" />
    <glyph glyph-name="partialdiff" unicode="&#x2202;" horiz-adv-x="1210" 
d="M698 920q150 0 240 -67t82 -196q64 168 58 329q-3 85 -57 138t-159 54q-150 0 -184 -152l-279 49q43 173 164 265t297 94q225 0 344 -100t127 -269q8 -170 -59 -399q-164 -516 -442 -642q-110 -50 -244 -51q-250 1 -370 139t-30 408q61 184 212 292q150 108 300 108z
M732 662q-96 0 -166 -50t-106 -156q-36 -104 12 -168t140 -65q92 0 162 51q70 52 100 142t-7 168q-38 78 -135 78z" />
    <glyph glyph-name="Delta" unicode="&#x2206;" horiz-adv-x="1265" 
d="M889 1174l-584 -938h825zM801 1413h264l321 -1177l-40 -236h-1338l41 236z" />
    <glyph glyph-name="product" unicode="&#x220f;" horiz-adv-x="1308" 
d="M1640 1407l-47 -270h-215l-200 -1137h-306l201 1137h-356l-201 -1137h-305l201 1137h-215l47 270h1396z" />
    <glyph glyph-name="summation" unicode="&#x2211;" horiz-adv-x="1026" 
d="M1210 1407l-47 -268h-553l422 -543l-614 -543h553l-47 -268h-963l43 250l631 561l-434 559l45 252h964z" />
    <glyph glyph-name="minus" unicode="&#x2212;" horiz-adv-x="1275" 
d="M1169 825l-43 -245h-915l43 245h915z" />
    <glyph glyph-name="radical" unicode="&#x221a;" horiz-adv-x="1198" 
d="M1417 1436l-686 -1436h-231l-140 614h-254l39 232h412l98 -537l523 1127h239z" />
    <glyph glyph-name="infinity" unicode="&#x221e;" horiz-adv-x="1433" 
d="M1104 1073q120 0 188 -58q68 -59 78 -143t-2 -178q-27 -158 -126 -268t-261 -111q-162 0 -227 140q-113 -139 -267 -140q-88 0 -150 34t-87 88q-60 129 -29 257q29 156 129 268t262 112t226 -140q112 139 266 139zM549 594q69 0 99 26t46 74q2 31 -3 50q-5 18 -32 34
t-75 17q-113 0 -133 -101q-17 -100 98 -100zM1008 594q115 0 131 100q20 100 -97 101q-68 0 -100 -26t-47 -75q0 -73 50 -92q24 -8 63 -8z" />
    <glyph glyph-name="integral" unicode="&#x222b;" horiz-adv-x="534" 
d="M26 -176q44 0 86 29q44 29 52 79l209 1184q12 76 49 125q51 78 140 121q90 43 180 44t149 -28l-37 -211q-28 17 -70 17t-86 -29t-55 -80l-209 -1184q-27 -166 -188 -245q-88 -43 -178 -44t-150 27l37 211q27 -16 71 -16z" />
    <glyph glyph-name="approxequal" unicode="&#x2248;" horiz-adv-x="874" 
d="M368 311q-38 1 -63 -23t-29 -59h-176q31 184 143 238q56 27 130 27q73 0 145 -42t107 -42t61 24t29 60h176q-45 -264 -279 -265q-62 0 -134 41t-110 41zM425 639q-38 0 -63 -24t-28 -58h-176q32 183 143 237q57 28 131 28t145 -43q71 -42 105 -42t60 24t32 60h176
q-49 -264 -280 -264q-63 0 -135 41t-110 41z" />
    <glyph glyph-name="notequal" unicode="&#x2260;" horiz-adv-x="1198" 
d="M295 739l41 232h477l107 141h251l-106 -141h96l-41 -232h-229l-131 -174h330l-41 -231h-465l-129 -170h-256l131 170h-107l41 231h242l131 174h-342z" />
    <glyph glyph-name="lessequal" unicode="&#x2264;" horiz-adv-x="1198" 
d="M1087 258l-45 -258h-944l45 258h944zM1122 455l-874 387l31 178l1011 387l-45 -264l-706 -213l630 -211z" />
    <glyph glyph-name="greaterequal" unicode="&#x2265;" horiz-adv-x="1198" 
d="M1171 842l-1013 -387l47 264l704 211l-628 213l45 264l876 -387zM1067 258l-45 -258h-944l45 258h944z" />
    <glyph glyph-name="lozenge" unicode="&#x25ca;" horiz-adv-x="1368" 
d="M1024 707l-174 460l-348 -467l174 -462zM494 0l-306 700l566 707h276l307 -700l-567 -707h-276z" />
    <glyph glyph-name="CR" horiz-adv-x="1337" 
 />
    <glyph glyph-name="l.ss06" horiz-adv-x="548" 
d="M606 1434l-252 -1434h-286l251 1434h287z" />
    <glyph glyph-name="y.ss02" horiz-adv-x="1292" 
d="M1313 1024l-776 -1413h-271l244 442l-244 971h303l125 -666l346 666h273z" />
    <glyph glyph-name="g.ss03" horiz-adv-x="1226" 
d="M702 799q-132 1 -208 -103t-76 -235q0 -195 182 -195q131 0 205 96t74 232q-1 205 -177 205zM68 -110v18q-2 10 -2 29h294v-13q12 -125 175 -125q209 0 245 209l31 170q-123 -158 -326 -158q-170 0 -266 102t-96 290q0 233 134 426q65 92 169 149t233 57q207 0 287 -159
l58 139h243l-168 -954q-47 -268 -191 -374t-368 -106q-127 0 -218 30t-135 66t-69 88q-30 62 -30 116z" />
    <glyph glyph-name="G.ss04" horiz-adv-x="1566" 
d="M774 225q328 0 406 271h-346l43 245h643l-15 -84q-59 -337 -268 -507t-515 -170t-465 188t-97 534q59 346 286 539t543 193q252 0 405 -119t148 -373h-295q-2 131 -75 188q-73 58 -248 58q-176 0 -302 -124t-168 -361t42 -357t278 -121z" />
    <glyph glyph-name="ydieresis.neogrotesk" horiz-adv-x="1107" 
d="M289 1167l45 246h287l-46 -246h-286zM760 1167l45 246h287l-45 -246h-287zM1229 1024l-776 -1413h-271l244 442l-244 971h303l125 -666l346 666h273z" />
    <glyph glyph-name="ampersand.ss05" horiz-adv-x="1392" 
d="M774 1198q-123 0 -147 -143q-12 -74 41 -162q48 6 116 49t82 121q23 135 -92 135zM588 205q110 0 209 45l-252 354q-147 -49 -172 -188q-20 -115 43 -163q62 -48 172 -48zM795 1434q172 0 280 -74q57 -39 82 -111t8 -168q-49 -276 -366 -370l200 -273q33 63 50 158h297
q-10 -59 -70 -175q-59 -116 -127 -192l164 -229h-344l-41 57q-145 -77 -388 -77t-374 103t-90 333q28 150 108 242t222 153q-100 106 -70 283q25 140 156 240t303 100z" />
    <glyph glyph-name="a.ss01" horiz-adv-x="1239" 
d="M586 225q104 0 179 72t99 213q8 66 6 130t-47 112q-45 47 -131 47q-124 0 -188 -84t-84 -207q-51 -283 166 -283zM659 1044q203 0 273 -157l72 178h245l-188 -1065h-244l-8 139q-131 -160 -354 -159q-193 0 -285 130t-46 390t189 402t346 142z" />
    <glyph glyph-name="yacute.neogrotesk" horiz-adv-x="1107" 
d="M643 1413h328l-277 -266h-229zM190 -410h-143l43 246h92q78 0 118 31t89 125l31 61l-244 971h303l125 -666l346 666h273l-672 -1231q-113 -203 -361 -203z" />
    <glyph glyph-name="fl.ss06" horiz-adv-x="1253" 
d="M741 1446q57 0 119 -10l-43 -246q-57 10 -97 10q-96 0 -118 -113l-10 -63h360l72 410h287l-254 -1434h-287l137 778h-360l-137 -778h-287l137 778h-156l46 246h155l14 82q29 166 147 253t275 87z" />
    <glyph glyph-name="ffl.ss06" horiz-adv-x="1982" 
d="M1427 1446q57 0 119 -10l-43 -246q-55 10 -95 10q-99 0 -120 -113l-10 -63h403l68 389h287l-250 -1413h-287l137 778h-403l-137 -778h-287l137 778h-399l-137 -778h-287l137 778h-156l46 246h155l14 82q29 166 147 253t275 87q57 0 119 -10l-43 -246q-57 10 -97 10
q-96 0 -118 -113l-10 -63h399l15 82q29 166 146 253q118 87 275 87z" />
    <glyph glyph-name="arrowleftup" horiz-adv-x="1505" 
d="M227 430l133 762h762l238 -287l-590 10l518 -624l-215 -187l-506 629l-104 -590z" />
    <glyph glyph-name="arrowrightup" horiz-adv-x="1505" 
d="M686 1214h762l-133 -761l-338 -287l115 590l-736 -627l-155 182l737 617h-590z" />
    <glyph glyph-name="arrowleftdown" horiz-adv-x="1505" 
d="M936 154h-762l133 761l338 287l-115 -590l738 627l153 -182l-739 -617h590z" />
    <glyph glyph-name="agrave.ss01" horiz-adv-x="1239" 
d="M467 1413h328l84 -266h-230zM586 225q104 0 179 72t99 213q8 66 6 130t-47 112q-45 47 -131 47q-124 0 -188 -84t-84 -207q-51 -283 166 -283zM659 1044q203 0 273 -157l72 178h245l-188 -1065h-244l-8 139q-131 -160 -354 -159q-193 0 -285 130t-46 390t189 402t346 142
z" />
    <glyph glyph-name="aacute.ss01" horiz-adv-x="1239" 
d="M772 1413h328l-277 -266h-229zM586 225q104 0 179 72t99 213q8 66 6 130t-47 112q-45 47 -131 47q-124 0 -188 -84t-84 -207q-51 -283 166 -283zM659 1044q203 0 273 -157l72 178h245l-188 -1065h-244l-8 139q-131 -160 -354 -159q-193 0 -285 130t-46 390t189 402
t346 142z" />
    <glyph glyph-name="acircumflex.ss01" horiz-adv-x="1239" 
d="M977 1413l162 -266h-199l-123 147l-176 -147h-199l254 266h281zM586 225q104 0 179 72t99 213q8 66 6 130t-47 112q-45 47 -131 47q-124 0 -188 -84t-84 -207q-51 -283 166 -283zM659 1044q203 0 273 -157l72 178h245l-188 -1065h-244l-8 139q-131 -160 -354 -159
q-193 0 -285 130t-46 390t189 402t346 142z" />
    <glyph glyph-name="atilde.ss01" horiz-adv-x="1239" 
d="M915 1147q-63 0 -135 42t-106 42q-78 0 -94 -84h-177q33 185 144 238q57 28 131 28t146 -43t102 -43q78 0 94 86h176q-45 -266 -281 -266zM586 225q104 0 179 72t99 213q8 66 6 130t-47 112q-45 47 -131 47q-124 0 -188 -84t-84 -207q-51 -283 166 -283zM659 1044
q203 0 273 -157l72 178h245l-188 -1065h-244l-8 139q-131 -160 -354 -159q-193 0 -285 130t-46 390t189 402t346 142z" />
    <glyph glyph-name="adieresis.ss01" horiz-adv-x="1239" 
d="M436 1167l45 246h287l-45 -246h-287zM907 1167l45 246h287l-45 -246h-287zM586 225q104 0 179 72t99 213q8 66 6 130t-47 112q-45 47 -131 47q-124 0 -188 -84t-84 -207q-51 -283 166 -283zM659 1044q203 0 273 -157l72 178h245l-188 -1065h-244l-8 139
q-131 -160 -354 -159q-193 0 -285 130t-46 390t189 402t346 142z" />
    <glyph glyph-name="aring.ss01" horiz-adv-x="1239" 
d="M858 1710q116 0 182 -81t46 -195t-116 -196q-95 -81 -209 -81q-115 0 -181 81t-45 196q20 116 114 196t209 80zM827 1532q-41 0 -75 -29t-40 -69t18 -70q24 -29 64 -29t74 29t41 70q7 42 -17 70t-65 28zM586 225q104 0 179 72t99 213q8 66 6 130t-47 112q-45 47 -131 47
q-124 0 -188 -84t-84 -207q-51 -283 166 -283zM659 1044q203 0 273 -157l72 178h245l-188 -1065h-244l-8 139q-131 -160 -354 -159q-193 0 -285 130t-46 390t189 402t346 142z" />
    <glyph glyph-name="one.osf" horiz-adv-x="1064" 
d="M328 938q174 0 213 209h286l-159 -901h286l-43 -246h-860l43 246h287l80 448h-266l43 244h90z" />
    <glyph glyph-name="two.osf" horiz-adv-x="1159" 
d="M739 1167q231 0 326 -112q94 -113 61 -293q-66 -371 -600 -516h523l-45 -246h-975l47 266q446 136 596 246q78 57 110 106t43 113q35 190 -135 191q-92 0 -145 -56t-74 -135h-295q52 199 192 317t371 119z" />
    <glyph glyph-name="zero.osf" horiz-adv-x="1200" 
d="M741 1167q242 0 347 -133q106 -133 102 -300q-2 -83 -12 -163q-36 -211 -183 -391q-75 -90 -191 -145t-245 -55q-248 0 -352 137t-98 294q2 81 16 173q30 200 178 384q74 91 191 145t247 54zM711 922q-233 0 -295 -348t172 -349q232 1 294 349t-171 348z" />
    <glyph glyph-name="three.osf" horiz-adv-x="1103" 
d="M465 -266q-211 0 -340 114t-105 324h295q-10 -98 43 -145q52 -47 148 -47t159 58q62 58 80 157q35 190 -182 190h-180l43 246l297 291h-477l45 245h837l-45 -245l-346 -291q139 1 241 -105t64 -319t-202 -343t-375 -130z" />
    <glyph glyph-name="four.osf" horiz-adv-x="1220" 
d="M694 246l88 502l-395 -502h307zM895 -246h-287l43 246h-643l43 250l805 917h287l-162 -921h209l-43 -246h-209z" />
    <glyph glyph-name="five.osf" horiz-adv-x="1153" 
d="M494 -266q-210 0 -324 106q-115 106 -90 320h295q-10 -78 35 -129t136 -51t154 60t82 159q41 233 -161 233q-104 0 -172 -81q-15 -16 -29 -44l-266 105l208 735h807l-43 -246h-565l-106 -348q66 55 124 80t144 24q184 0 289 -121q104 -122 65 -339t-206 -340t-377 -123z
" />
    <glyph glyph-name="six.osf" horiz-adv-x="1230" 
d="M610 225q108 1 170 57q61 56 76 136q41 231 -176 231q-110 1 -180 -71t-82 -132q-10 -102 37 -162t155 -59zM803 874q182 0 287 -109q104 -110 61 -347q-24 -145 -155 -282q-66 -72 -180 -114t-262 -42t-246 55q-99 55 -137 149q-83 205 -21 488q55 308 199 500
q77 104 195 162t267 59q217 -1 323 -103t87 -276h-287q8 133 -166 133q-149 0 -223 -122t-101 -292q74 69 153 105t206 36z" />
    <glyph glyph-name="seven.osf" horiz-adv-x="1040" 
d="M1120 1147l-43 -246l-696 -1147h-289l705 1147h-658l43 246h938z" />
    <glyph glyph-name="eight.osf" horiz-adv-x="1236" 
d="M705 850q72 0 129 39t70 113t-31 110q-45 36 -115 35q-70 0 -125 -36q-55 -35 -69 -111t27 -113q42 -37 114 -37zM596 225q98 0 174 50q76 49 92 143t-40 140t-157 46t-175 -46t-91 -139q-16 -93 41 -144q58 -50 156 -50zM385 729q-147 91 -115 277t178 286
q148 100 356 100t318 -102q110 -104 78 -278q-14 -86 -72 -163t-137 -120q201 -109 165 -317t-205 -320t-405 -112t-359 112q-122 112 -85 311q41 230 283 326z" />
    <glyph glyph-name="nine.osf" horiz-adv-x="1224" 
d="M722 918q-106 0 -172 -52t-81 -150q-16 -96 23 -157q40 -61 146 -61t176 68t85 126q6 104 -33 165q-38 61 -144 61zM542 272q-192 0 -297 112t-65 345q25 151 157 285q151 153 429 153q148 0 251 -57q103 -56 139 -154q78 -210 15 -503q-55 -306 -201 -498
q-79 -105 -201 -163t-275 -58q-207 0 -309 105q-101 105 -85 280h291q-2 -55 37 -95t111 -40q151 0 225 114t110 316q-140 -142 -332 -142z" />
    <glyph glyph-name="zero.tf" 
d="M547 -20q-549 0 -421 727t677 727t421 -727t-677 -727zM760 1188q-82 0 -144 -40q-100 -65 -155 -266q-84 -307 -58 -503q20 -154 187 -154q188 0 268 210q43 110 67 242q23 132 28 205q5 74 -6 150t-58 116t-129 40z" />
    <glyph glyph-name="zero.zero.tf" 
d="M798 325q34 42 82 167t68 344l-545 -463q35 -147 187 -148q127 0 208 100zM755 1188q-161 0 -237 -157q-59 -122 -85 -268q-27 -146 -32 -194l545 463q-30 156 -191 156zM547 -20q-549 0 -421 727t677 727t421 -727t-677 -727z" />
    <glyph glyph-name="one.tf" 
d="M487 1204q174 0 213 209h287l-207 -1167h369l-43 -246h-1024l43 246h369l127 715h-267l43 243h90z" />
    <glyph glyph-name="two.tf" 
d="M795 1434q227 0 333 -117t74 -295t-190 -347q-160 -169 -527 -429h605l-43 -246h-992l45 260q490 324 651 489q81 83 111 136q31 53 41 108q35 195 -143 195q-104 0 -154 -62t-74 -165h-294q51 225 190 349q140 124 367 124z" />
    <glyph glyph-name="three.tf" 
d="M572 -20q-210 0 -340 114t-105 324h295q-10 -98 44 -146t149 -47t157 59t80 156q35 190 -180 191h-180l43 246l290 290h-471l43 246h838l-43 -246l-346 -290q129 0 230 -95q50 -47 72 -131t3 -192q-39 -219 -204 -349t-375 -130z" />
    <glyph glyph-name="four.tf" 
d="M739 608l70 385l-377 -385h307zM920 0h-287l63 362h-643l45 250l785 801h286l-143 -805h209l-43 -246h-209z" />
    <glyph glyph-name="five.tf" 
d="M550 -20q-210 0 -326 108t-89 326h295q-10 -80 37 -134t137 -54t152 62t82 166q18 104 -25 159q-43 57 -122 57t-129 -28t-68 -54l-19 -27l-266 105l211 747h807l-43 -246h-566l-108 -360q125 109 274 108q182 0 285 -117q101 -118 63 -339t-205 -350t-377 -129z" />
    <glyph glyph-name="six.tf" 
d="M590 225q108 0 171 65q62 65 81 156q39 231 -178 232q-109 0 -179 -72t-82 -131q-13 -115 33 -183t154 -67zM534 -20q-148 0 -245 57q-98 57 -136 155q-81 209 -20 508q55 310 203 509q166 223 463 225q217 0 321 -106t86 -286h-286q8 145 -166 146q-143 0 -216 -116
t-108 -310q144 141 336 141q106 -1 175 -23q245 -80 196 -434q-29 -155 -158 -300q-69 -74 -183 -120t-262 -46z" />
    <glyph glyph-name="seven.tf" 
d="M1288 1413l-43 -246l-700 -1167h-289l709 1167h-658l43 246h938z" />
    <glyph glyph-name="eight.tf" 
d="M704 870q72 0 128 42t71 120q14 78 -29 117q-42 39 -114 39t-127 -38t-69 -120t27 -121q42 -39 113 -39zM590 225q100 0 175 49q75 48 93 148t-39 151t-156 51t-175 -50q-76 -52 -93 -151q-18 -99 38 -149q57 -49 157 -49zM383 750q-147 92 -115 281t182 295
q148 106 356 108q208 0 316 -110t76 -292q-14 -86 -72 -163t-137 -119q201 -109 164 -323t-206 -331q-169 -116 -407 -116t-357 114q-120 114 -81 338q39 222 281 318z" />
    <glyph glyph-name="nine.tf" 
d="M772 1184q-218 0 -254 -211q-18 -101 24 -161t146 -60t176 68t84 126q6 106 -32 172t-144 66zM587 526q-196 0 -297 116t-66 308t166 329q70 71 178 113t240 42t222 -40t137 -106q124 -175 58 -563q-133 -745 -682 -745q-211 0 -312 103q-100 103 -84 282h291
q-2 -55 35 -95t117 -41q80 0 138 35q142 86 196 404q-141 -142 -337 -142z" />
    <glyph glyph-name="zero.zero" horiz-adv-x="1241" 
d="M606 225q156 0 232 148q74 149 107 387q7 51 7 55l-538 -459q36 -131 192 -131zM762 1147q-186 0 -268 -204q-34 -82 -57 -202t-29 -192l540 461q-34 137 -186 137zM807 1393q549 0 423 -707t-675 -706q-549 0 -423 706t675 707z" />
    <glyph glyph-name="yacute.ss02" horiz-adv-x="1292" 
d="M735 1413h328l-277 -266h-229zM1313 1024l-776 -1413h-271l244 442l-244 971h303l125 -666l346 666h273z" />
    <glyph glyph-name="ydieresis.ss02" horiz-adv-x="1292" 
d="M371 1167l45 246h286l-45 -246h-286zM842 1167l45 246h287l-46 -246h-286zM1313 1024l-776 -1413h-271l244 442l-244 971h303l125 -666l346 666h273z" />
    <glyph glyph-name="parenleft.case" horiz-adv-x="735" 
d="M848 1577q-293 -393 -380 -881t71 -880h-279q-172 397 -87 879t396 882h279z" />
    <glyph glyph-name="parenright.case" horiz-adv-x="735" 
d="M-45 -184q293 397 379 882t-72 879h279q172 -399 87 -879t-397 -882h-276z" />
    <glyph glyph-name="bracketleft.case" horiz-adv-x="718" 
d="M35 -184l309 1761h504l-43 -246h-217l-223 -1270h217l-43 -245h-504z" />
    <glyph glyph-name="bracketright.case" horiz-adv-x="718" 
d="M782 1577l-309 -1761h-502l43 245h215l224 1270h-217l43 246h503z" />
    <glyph glyph-name="braceleft.case" horiz-adv-x="845" 
d="M930 1577h45l-43 -246h-31q-139 0 -162 -133l-57 -317q-23 -135 -143 -185q102 -53 79 -184l-57 -317q-12 -74 18 -104t99 -30h31l-43 -245h-45q-207 0 -299 64t-64 224l59 336q12 66 -22 100q-35 34 -127 33l43 246q174 0 197 133l59 336q29 160 143 224t320 65z" />
    <glyph glyph-name="braceright.case" horiz-adv-x="845" 
d="M43 61q139 0 162 134l57 317q23 133 141 184q-100 49 -77 185l57 317q12 74 -17 104q-30 30 -100 29h-30l43 246h45q207 0 298 -65t62 -224l-59 -336q-11 -66 23 -100t128 -33l-43 -246q-178 0 -198 -133l-60 -336q-29 -160 -141 -224t-318 -64h-45l43 245h29z" />
    <glyph glyph-name="questiondown.case" horiz-adv-x="1157" 
d="M938 1413l-49 -287h-287l49 287h287zM522 -20q-226 0 -320 105q-95 105 -65 275q14 86 59 156q44 70 78 100t110 86q76 54 125 116q48 62 69 171h286q-20 -119 -67 -207t-84 -125t-103 -88t-91 -73q-76 -66 -88 -135q-11 -69 27 -103t116 -33q78 0 135 44q55 44 65 108
h287q-27 -147 -170 -272t-369 -125z" />
    <glyph glyph-name="guillemotleft.case" horiz-adv-x="1208" 
d="M1260 1128l-404 -448l244 -455h-273l-241 455l401 448h273zM850 1128l-404 -448l244 -455h-272l-242 455l402 448h272z" />
    <glyph glyph-name="guillemotright.case" horiz-adv-x="1208" 
d="M909 680l-243 448h272l242 -448l-402 -455h-272zM500 680l-244 448h272l242 -448l-401 -455h-273z" />
    <glyph glyph-name="guilsinglleft.case" horiz-adv-x="798" 
d="M850 1128l-404 -448l244 -455h-272l-242 455l402 448h272z" />
    <glyph glyph-name="guilsinglright.case" horiz-adv-x="798" 
d="M500 680l-244 448h272l242 -448l-401 -455h-273z" />
    <glyph glyph-name="exclamdown.case" horiz-adv-x="655" 
d="M160 0l215 989h192l-133 -989h-274zM352 1126l51 287h287l-51 -287h-287z" />
    <glyph glyph-name="underscore.case" horiz-adv-x="974" 
d="M-25 -250l17 103h973l-17 -103h-973z" />
    <glyph glyph-name="bullet.case" horiz-adv-x="802" 
d="M522 948q113 0 178 -78t45 -192q-20 -113 -113 -192q-93 -78 -206 -78q-114 0 -178 78t-43 192q20 114 112 192t205 78z" />
    <glyph glyph-name="periodcentered.case" horiz-adv-x="475" 
d="M135 512l51 287h295l-51 -287h-295z" />
    <glyph glyph-name="hyphen.case" horiz-adv-x="784" 
d="M768 637l-43 -246h-621l43 246h621z" />
    <glyph glyph-name="endash.case" horiz-adv-x="1138" 
d="M113 502l49 280h975l-50 -280h-974z" />
    <glyph glyph-name="emdash.case" horiz-adv-x="2144" 
d="M113 502l49 280h1980l-49 -280h-1980z" />
    <glyph glyph-name="bar.case" horiz-adv-x="552" 
d="M117 -184l309 1761h287l-310 -1761h-286z" />
    <glyph glyph-name="brokenbar.case" horiz-adv-x="552" 
d="M53 -184l133 757h287l-133 -757h-287zM229 819l133 758h287l-133 -758h-287z" />
    <glyph glyph-name="I.ss07" horiz-adv-x="786" 
d="M2 0l43 246h184l164 921h-184l43 246h655l-43 -246h-184l-164 -921h184l-43 -246h-655z" />
    <glyph glyph-name="zero.tosf" 
d="M741 1167q242 0 347 -133q106 -133 102 -300q-2 -83 -12 -163q-36 -211 -183 -391q-75 -90 -191 -145t-245 -55q-248 0 -352 137t-98 294q2 81 16 173q30 200 178 384q74 91 191 145t247 54zM711 922q-233 0 -295 -348t172 -349q232 1 294 349t-171 348z" />
    <glyph glyph-name="one.tosf" 
d="M461 938q174 0 213 209h287l-160 -901h368l-43 -246h-1024l43 246h369l80 448h-266l43 244h90z" />
    <glyph glyph-name="two.tosf" 
d="M780 1167q231 0 326 -112q94 -113 61 -293q-66 -371 -600 -516h523l-46 -246h-974l47 266q446 136 596 246q79 57 111 106t42 113q35 190 -135 191q-92 0 -145 -56t-74 -135h-295q53 199 193 317t370 119z" />
    <glyph glyph-name="three.tosf" 
d="M536 -266q-210 0 -340 114t-104 324h295q-10 -98 43 -145t148 -47t158 58q62 58 81 157q35 190 -182 190h-180l43 246l299 291h-480l45 245h838l-45 -245l-346 -291q139 1 241 -105t64 -319q-37 -213 -202 -343t-376 -130z" />
    <glyph glyph-name="four.tosf" 
d="M717 246l88 502l-395 -502h307zM918 -246h-287l43 246h-643l43 250l805 917h286l-161 -921h208l-43 -246h-208z" />
    <glyph glyph-name="five.tosf" 
d="M525 -266q-211 0 -325 106t-89 320h295q-10 -78 34 -129t136 -51q91 0 155 60q63 60 82 159q41 233 -162 233q-84 0 -134 -45q-49 -40 -60 -68l-6 -12l-267 105l209 735h807l-43 -246h-565l-107 -348q66 55 124 80t145 24q184 1 288 -121t66 -339t-206 -340
q-167 -123 -377 -123z" />
    <glyph glyph-name="six.tosf" 
d="M590 225q108 0 171 65q62 65 81 156q39 231 -178 232q-109 0 -179 -72t-82 -131q-13 -115 33 -183t154 -67zM534 -20q-148 0 -245 57q-98 57 -136 155q-81 209 -20 508q55 310 203 509q166 223 463 225q217 0 321 -106t86 -286h-286q8 145 -166 146q-143 0 -216 -116
t-108 -310q144 141 336 141q106 -1 175 -23q245 -80 196 -434q-29 -155 -158 -300q-69 -74 -183 -120t-262 -46z" />
    <glyph glyph-name="seven.tosf" 
d="M1243 1147l-43 -246l-696 -1147h-289l705 1147h-658l43 246h938z" />
    <glyph glyph-name="eight.tosf" 
d="M699 870q71 0 128 42t72 120q14 78 -29 117q-42 39 -114 39t-127 -38t-69 -120t26 -121q42 -39 113 -39zM586 225q100 0 175 49q75 48 93 148t-39 151t-157 51t-174 -50q-75 -52 -93 -151t38 -149q57 -49 157 -49zM379 750q-147 92 -115 281t181 295t357 108
q208 0 316 -110t76 -292q-14 -86 -72 -163t-137 -119q201 -109 164 -323t-206 -331q-169 -116 -407 -116t-357 114q-120 114 -81 338q39 222 281 318z" />
    <glyph glyph-name="nine.tosf" 
d="M724 918q-106 0 -171 -52q-66 -52 -82 -150q-16 -96 23 -157q40 -61 146 -61t176 68t85 126q5 104 -33 165t-144 61zM544 272q-192 0 -297 112t-65 345q25 151 157 285q151 153 429 153q148 0 251 -57q103 -56 139 -154q77 -208 16 -503q-55 -304 -202 -498
q-79 -105 -201 -163t-275 -58q-207 0 -309 105q-101 105 -85 280h291q-2 -55 37 -95t111 -40q151 0 225 114t111 316q-141 -142 -333 -142z" />
    <glyph glyph-name="numbersign.tf" 
d="M651 840l-149 -338h180l152 338h-183zM-2 0l117 264h-109l41 238h172l150 338h-201l45 245h268l148 328h282l-149 -328h182l148 328h278l-153 -328h120l-45 -245h-186l-150 -338h215l-41 -238h-278l-119 -264h-274l119 264h-181l-118 -264h-281z" />
    <glyph glyph-name="dollar.tf" 
d="M502 1044q-18 -102 106 -151l51 295q-139 -33 -157 -144zM897 399q12 72 -26 114t-117 67l-64 -357q180 31 207 176zM930 1579l-27 -152q387 -41 350 -403h-295q10 131 -98 162l-59 -344l86 -23q360 -94 307 -407q-35 -194 -182 -302t-363 -126l-26 -154h-201l27 156
q-223 23 -314 146q-90 124 -67 314h294q-18 -178 130 -219l69 400q-97 27 -161 53q-163 68 -194 183q-17 69 -1 163q29 172 156 277q128 104 341 124l27 152h201z" />
    <glyph glyph-name="plus.tf" 
d="M623 1020h245l-63 -365h366l-43 -245h-366l-66 -367h-245l65 367h-364l43 245h364z" />
    <glyph glyph-name="less.tf" 
d="M1049 55l-875 389l31 179l1014 387l-52 -287l-628 -191l561 -190z" />
    <glyph glyph-name="equal.tf" 
d="M158 350l43 246h915l-43 -246h-915zM227 756l45 245h916l-45 -245h-916z" />
    <glyph glyph-name="greater.tf" 
d="M274 1010l875 -389l-31 -179l-1014 -387l52 287l626 190l-559 191z" />
    <glyph glyph-name="asciitilde.tf" 
d="M788 537q-62 0 -134 42t-110 42t-62 -25t-29 -59h-177q33 183 144 238q57 28 131 28q73 0 145 -42t107 -42q35 -1 59 23t31 61h176q-49 -266 -281 -266z" />
    <glyph glyph-name="cent.tf" 
d="M636 430q98 0 152 28q55 28 84 107h293q-53 -162 -180 -266t-338 -115l-33 -184h-104l33 186q-217 18 -317 160t-60 368q41 228 190 370q150 142 375 163l27 160h104l-26 -160q200 -13 290 -127t76 -270h-291q2 59 -33 106q-36 48 -138 48t-179 -76t-101 -213t27 -211
t149 -74z" />
    <glyph glyph-name="sterling.tf" 
d="M831 1413q434 0 369 -383h-305q23 121 -111 121q-51 0 -93 -29t-52 -92l-49 -278h317l-39 -222h-317l-21 -118q-23 -119 -108 -150h371q84 0 102 109h305q-22 -129 -99 -240q-94 -131 -329 -131h-790l45 262q174 0 196 146l23 122h-170l39 222h170l49 278q20 126 129 247
q55 60 150 98t218 38z" />
    <glyph glyph-name="currency.tf" 
d="M570 0q-153 0 -263 80l-209 -178l-127 157l207 179q-57 129 -31 274q25 145 127 274l-145 179l184 157l148 -178q141 80 289 80t262 -80l209 178l131 -157l-211 -179q57 -127 33 -274q-29 -147 -130 -274l148 -179l-186 -157l-148 178q-135 -80 -288 -80zM608 223
q123 0 221 86q97 86 119 205t-49 203t-189 84t-218 -85t-122 -203t46 -204t192 -86z" />
    <glyph glyph-name="yen.tf" 
d="M1401 1413l-498 -721h236l-31 -170h-322l-22 -129h321l-30 -170h-322l-39 -223h-286l38 223h-333l30 170h334l23 129h-334l31 170h245l-241 721h325l174 -631l398 631h303z" />
    <glyph glyph-name="section.tf" 
d="M846 633q8 45 -22 72t-68 33t-93 12q-54 8 -77 14q-58 -23 -68 -81t21 -86t69 -35t100 -14q60 -7 78 -11q48 18 60 96zM562 -133q-252 0 -350 85q-99 85 -97 179q0 49 4 94h295q-12 -61 22 -95t137 -34q180 0 195 88q8 49 -33 79t-109 40q-172 25 -292 73q-66 26 -102 89
t-20 153t66 158t105 96q-47 25 -73 91t-11 141q23 130 145 230t357 100q234 0 322 -89t79 -175q-4 -46 -6 -85h-295q12 68 -21 94q-34 26 -112 25q-158 0 -176 -102q-10 -55 32 -86t110 -39q164 -19 294 -67q66 -24 102 -86t20 -155q-15 -93 -58 -141t-117 -94
q49 -34 77 -100t12 -156t-74 -156q-56 -66 -138 -97q-149 -58 -290 -58z" />
    <glyph glyph-name="logicalnot.tf" 
d="M162 494l41 229h997l-100 -565h-281l60 336h-717z" />
    <glyph glyph-name="plusminus.tf" 
d="M668 1407h260l-62 -352h355l-45 -260h-355l-63 -361h-260l63 361h-352l45 260h352zM1075 231l-41 -231h-964l41 231h964z" />
    <glyph glyph-name="multiply.tf" 
d="M274 788l205 175l211 -258l305 260l144 -174l-305 -261l213 -258l-205 -174l-211 260l-305 -258l-144 174l303 256z" />
    <glyph glyph-name="divide.tf" 
d="M1145 836l-45 -261h-891l45 261h891zM442 143l50 281h280l-49 -281h-281zM590 987l49 281h283l-50 -281h-282z" />
    <glyph glyph-name="florin.tf" 
d="M160 -184q45 0 94 28t65 80l299 850h-145l80 223h145q51 156 90 220q62 96 168 149t202 54t153 -27l-76 -211q-23 16 -65 16t-92 -29t-68 -79l-35 -93h196l-79 -223h-195l-313 -891q-66 -162 -212 -235q-106 -52 -202 -54t-152 27l74 211q23 -16 68 -16z" />
    <glyph glyph-name="Euro.tf" 
d="M995 403l181 -202q-98 -113 -211 -168t-273 -56q-200 0 -322 125t-134 349h-175l31 170h713l-123 -168h-135q23 -207 192 -207q162 -1 256 157zM901 750h-786l28 170h168q88 248 252 380t387 134q305 0 404 -240l-254 -190q-35 162 -197 161q-188 0 -285 -245h406z" />
    <glyph glyph-name="minus.tf" 
d="M1153 825l-43 -245h-915l43 245h915z" />
    <glyph glyph-name="zero.zero.osf" horiz-adv-x="1241" 
d="M729 922q-231 0 -295 -359q-10 -66 -10 -106l457 393q-46 72 -152 72zM905 588q8 39 10 92l-454 -387q43 -68 147 -68q234 1 297 363zM761 1167q244 0 349 -135t100 -295q-2 -82 -12 -162q-37 -216 -182 -395q-74 -90 -191 -145t-246 -55q-246 0 -350 135t-100 298
q2 83 12 162q18 104 64 203q111 243 309 335q116 54 247 54z" />
    <glyph glyph-name="zero.zero.tosf" horiz-adv-x="1241" 
d="M729 922q-231 0 -295 -359q-10 -66 -10 -106l457 393q-46 72 -152 72zM905 588q8 39 10 92l-454 -387q43 -68 147 -68q234 1 297 363zM761 1167q244 0 349 -135t100 -295q-2 -82 -12 -162q-37 -216 -182 -395q-74 -90 -191 -145t-246 -55q-246 0 -350 135t-100 298
q2 83 12 162q18 104 64 203q111 243 309 335q116 54 247 54z" />
    <glyph glyph-name="arrowleft.ss08" horiz-adv-x="1505" 
d="M451 827l-41 -231h1116l-23 -123h-1116l-41 -231l-237 293z" />
    <glyph glyph-name="arrowright.ss08" horiz-adv-x="1505" 
d="M1235 596l41 231l240 -292l-345 -293l41 231h-1116l23 123h1116z" />
    <glyph glyph-name="arrowup.ss08" horiz-adv-x="1505" 
d="M836 1116h-232l344 291l242 -291h-232l-196 -1116h-123z" />
    <glyph glyph-name="arrowdown.ss08" horiz-adv-x="1505" 
d="M459 291h231l197 1116h123l-197 -1116h231l-344 -291z" />
    <glyph glyph-name="arrowboth.ss08" horiz-adv-x="2545" 
d="M451 827l-41 -231h1116l41 231l239 -292l-344 -293l41 231h-1116l-41 -231l-237 293z" />
    <glyph glyph-name="arrowleftup.ss08" horiz-adv-x="1505" 
d="M815 1024l-192 -162l651 -790l-103 -86l-651 788l-190 -164l73 414h412z" />
    <glyph glyph-name="arrowrightup.ss08" horiz-adv-x="1505" 
d="M1165 862l-135 162h412l-74 -414l-133 164l-926 -788l-73 86z" />
    <glyph glyph-name="arrowleftdown.ss08" horiz-adv-x="1505" 
d="M498 162l135 -162h-412l74 414l133 -164l928 788l71 -86z" />
    <glyph glyph-name="arrowrightdown.ss08" horiz-adv-x="1505" 
d="M848 0l192 162l-651 790l105 86l649 -788l190 164l-73 -414h-412z" />
    </font>
</defs>
</svg>
