<?xml version="1.0" standalone="no"?>
<!DOCTYPE svg PUBLIC "-//W3C//DTD SVG 1.1//EN" "http://www.w3.org/Graphics/SVG/1.1/DTD/svg11.dtd" >
<svg xmlns="http://www.w3.org/2000/svg">
<metadata>
Created by FontPrep 20130207 at Tue Sep  8 17:39:39 2015
 By Marcos Dopico Castro
Copyright (c) 201332015 by Marcos Dopico // MaisTypes. All rights reserved.
</metadata>
<defs>
<font id="fae720480dc9f5251382a5f44c77d59c" horiz-adv-x='1024' >
  <font-face 
    font-family="MaisGrotesk-Bold"
    font-weight="700"
    font-stretch="normal"
    units-per-em="2048"
    panose-1="0 0 0 0 0 0 0 0 0 0"
    ascent="1536"
    descent="-512"
    x-height="1024"
    cap-height="1413"
    bbox="-432 -410 2523 2120"
    underline-thickness="102"
    underline-position="-102"
    unicode-range="U+0020-FB04"
  />
<missing-glyph horiz-adv-x="829" 
d="M475 735l244 -524v1051zM414 606l-232 -497h465zM182 1364l232 -498l233 498h-465zM354 735l-245 531v-1059zM829 1473v-1473h-829v1473h829z" />
    <glyph glyph-name="ellipsis" unicode="&#x2e;&#x2e;&#x2e;" horiz-adv-x="1515" 
d="M1090 0v287h294v-287h-294zM610 0v287h295v-287h-295zM131 0v287h295v-287h-295z" />
    <glyph glyph-name="ff" unicode="ff" horiz-adv-x="1456" 
d="M1202 1087v-63h187v-246h-187v-778h-287v778h-440v-778h-287v778h-155v246h155v82q0 166 102 253t261 87q55 0 121 -10v-246q-57 10 -97 10t-70 -24t-30 -89v-63h440v82q1 166 103 253t260 87q55 0 121 -10v-246q-55 10 -96 10t-71 -24t-30 -89z" />
    <glyph glyph-name="fi" unicode="fi" horiz-adv-x="1253" 
d="M1122 1413v-246h-286v246h286zM475 1087v-63h647v-1024h-286v778h-361v-778h-287v778h-155v246h155v82q0 166 102 253t261 87q23 0 121 -10v-246q-57 10 -97 10t-70 -24t-30 -89z" />
    <glyph glyph-name="fl" unicode="fl" horiz-adv-x="1329" 
d="M475 1087v-63h361v389h286v-1091q0 -52 24 -70t95 -19h23v-237q-49 -8 -123 -8q-160 0 -233 74t-72 221v495h-361v-778h-287v778h-155v246h155v82q0 166 102 253t261 87q23 0 121 -10v-246q-57 10 -97 10t-70 -24t-30 -89z" />
    <glyph glyph-name="ffi" unicode="ffi" horiz-adv-x="1982" 
d="M1565 1167v246h286v-246h-286zM475 1087v-63h399v82q0 166 102 253t261 87q55 0 121 -10v-246q-57 10 -97 10t-70 -24t-30 -89v-63h690v-1024h-286v778h-404v-778h-287v778h-399v-778h-287v778h-155v246h155v82q0 166 102 253t261 87q55 0 121 -10v-246q-57 10 -97 10
t-70 -24t-30 -89z" />
    <glyph glyph-name="ffl" unicode="ffl" horiz-adv-x="2058" 
d="M1851 1413v-1091q0 -52 24 -70t95 -19h23v-237q-49 -8 -123 -8q-160 0 -233 74t-72 221v495h-404v-778h-287v778h-399v-778h-287v778h-155v246h155v82q0 166 102 253t261 87q55 0 121 -10v-246q-57 10 -97 10t-70 -24t-30 -89v-63h399v82q0 166 102 253t261 87
q55 0 121 -10v-246q-57 10 -97 10t-70 -24t-30 -89v-63h404v389h286z" />
    <glyph glyph-name="ft" unicode="ft" horiz-adv-x="1398" 
d="M1182 -10q-137 0 -242 80q-104 80 -104 219v489h-361v-778h-287v778h-155v246h155v127q0 293 330 293q76 0 154 -8v-238h-82q-55 0 -85 -22t-30 -84v-68h361v268l286 82v-350h211v-246h-211v-430q0 -53 40 -83t104 -29l67 6v-234q-66 -18 -151 -18z" />
    <glyph glyph-name="fj" unicode="fj" horiz-adv-x="1212" 
d="M836 1167v246h286v-246h-286zM475 1087v-63h647v-1130q0 -293 -329 -293q-76 0 -154 8v244h72q125 0 125 106v819h-361v-778h-287v778h-155v246h155v82q0 166 102 253t261 87q23 0 121 -10v-246q-57 10 -97 10t-70 -24t-30 -89z" />
    <glyph glyph-name="ffj" unicode="ffj" horiz-adv-x="1941" 
d="M1565 1167v246h286v-246h-286zM475 1087v-63h399v82q0 166 102 253t261 87q55 0 121 -10v-246q-57 10 -97 10t-70 -24t-30 -89v-63h690v-1135q0 -133 -96 -216t-233 -83q-84 0 -154 19v233q29 -6 70 -6t84 28t43 85v829h-404v-778h-287v778h-399v-778h-287v778h-155v246
h155v82q0 166 102 253t261 87q55 0 121 -10v-246q-57 10 -97 10t-70 -24t-30 -89z" />
    <glyph glyph-name="fft" unicode="fft" horiz-adv-x="2148" 
d="M475 1087v-63h399v82q0 166 102 253t261 87q55 0 121 -10v-246q-57 10 -97 10t-70 -24t-30 -89v-63h404v268l286 82v-350h191v-246h-191v-456q0 -96 142 -97q39 0 90 11v-236q-72 -20 -205 -20t-223 66t-90 216v516h-404v-778h-287v778h-399v-778h-287v778h-155v246h155
v82q0 166 102 253t261 87q55 0 121 -10v-246q-57 10 -97 10t-70 -24t-30 -89z" />
    <glyph glyph-name=".notdef" horiz-adv-x="829" 
d="M475 735l244 -524v1051zM414 606l-232 -497h465zM182 1364l232 -498l233 498h-465zM354 735l-245 531v-1059zM829 1473v-1473h-829v1473h829z" />
    <glyph glyph-name=".null" horiz-adv-x="0" 
 />
    <glyph glyph-name="nonmarkingreturn" horiz-adv-x="681" 
 />
    <glyph glyph-name="space" unicode=" " horiz-adv-x="440" 
 />
    <glyph glyph-name="exclam" unicode="!" horiz-adv-x="655" 
d="M184 0v287h287v-287h-287zM231 424l-41 1010h275l-41 -1010h-193z" />
    <glyph glyph-name="quotedbl" unicode="&#x22;" horiz-adv-x="937" 
d="M561 860v553h246v-553h-246zM131 860v553h246v-553h-246z" />
    <glyph glyph-name="numbersign" unicode="#" horiz-adv-x="1398" 
d="M651 840l-90 -338h180l93 338h-183zM66 264v238h213l90 338h-242v245h309l90 328h283l-92 -328h182l90 328h279l-97 -328h162v-245h-227l-90 -338h256v-238h-320l-71 -264h-275l72 264h-180l-72 -264h-283l72 264h-149z" />
    <glyph glyph-name="dollar" unicode="$" horiz-adv-x="1372" 
d="M455 1048q0 -108 133 -155v295q-133 -32 -133 -140zM963 399q0 129 -175 181v-357q175 31 175 176zM788 1579v-152q393 -41 422 -403h-295q-14 131 -127 162v-344l91 -23q377 -94 378 -407q0 -194 -129 -302t-340 -126v-154h-200v156q-227 22 -339 146t-124 314h295
q14 -178 168 -219v400q-213 53 -321 137q-107 84 -107 259t108 280q109 104 320 124v152h200z" />
    <glyph glyph-name="percent" unicode="%" horiz-adv-x="1765" 
d="M1384 827q338 0 338 -424t-338 -423q-338 0 -338 424t338 423zM1384 651q-66 0 -96 -52q-30 -51 -31 -195q0 -144 31 -196q30 -52 96 -52t97 52t30 195q0 143 -30 196q-31 52 -97 52zM381 1393q338 0 338 -424t-338 -424t-338 424t338 424zM381 1217q-67 -1 -97 -53
t-30 -195t31 -195t97 -53q66 0 96 52q30 51 30 195t-30 196t-97 53zM1260 1495l141 -82l-860 -1495l-142 82z" />
    <glyph glyph-name="ampersand" unicode="&#x26;" horiz-adv-x="1382" 
d="M891 246v364h-301q-98 0 -144 -52t-47 -136q0 -176 191 -176h301zM1333 856v-246h-155v-610h-605q-245 0 -357 100t-112 273q0 94 30 164q30 71 79 107q83 62 160 79q-65 17 -124 69q-112 99 -112 270t123 261t313 90h263v-246h-246q-78 0 -118 -47t-40 -108
q0 -60 39 -108t119 -48h301v191h287v-191h155z" />
    <glyph glyph-name="quotesingle" unicode="'" horiz-adv-x="507" 
d="M131 860v553h246v-553h-246z" />
    <glyph glyph-name="parenleft" unicode="(" horiz-adv-x="651" 
d="M393 530q0 -488 225 -878h-278q-242 397 -242 878t242 883h278q-225 -395 -225 -883z" />
    <glyph glyph-name="parenright" unicode=")" horiz-adv-x="651" 
d="M258 534q0 487 -225 879h278q242 -397 242 -879t-242 -882h-278q225 395 225 882z" />
    <glyph glyph-name="asterisk" unicode="*" horiz-adv-x="999" 
d="M586 1407l-21 -195l178 78l56 -164l-191 -39l129 -145l-137 -102l-100 168l-99 -168l-135 100l127 150l-192 38l55 162l180 -78l-22 195h172z" />
    <glyph glyph-name="plus" unicode="+" horiz-adv-x="1198" 
d="M506 1020h246v-365h366v-245h-366v-367h-246v367h-365v245h365v365z" />
    <glyph glyph-name="comma" unicode="," horiz-adv-x="561" 
d="M438 287v-287q-18 -96 -88 -178t-155 -129h-105q12 8 43 44q100 116 100 243v20h-90v287h295z" />
    <glyph glyph-name="hyphen" unicode="-" horiz-adv-x="817" 
d="M719 637v-246h-621v246h621z" />
    <glyph glyph-name="period" unicode="." horiz-adv-x="475" 
d="M90 0v287h295v-287h-295z" />
    <glyph glyph-name="slash" unicode="/" horiz-adv-x="825" 
d="M817 1413l-516 -1413h-285l516 1413h285z" />
    <glyph glyph-name="zero" unicode="0" horiz-adv-x="1241" 
d="M621 1393q549 0 549 -707t-549 -706q-549 0 -549 706t549 707zM367 729q0 -145 8 -215q22 -188 109 -251q54 -38 136 -38t137 38q90 63 109 251q8 70 8 215t-39 268q-49 150 -215 150t-213 -150q-40 -123 -40 -268z" />
    <glyph glyph-name="one" unicode="1" horiz-adv-x="821" 
d="M637 1352v-1352h-287v899h-299v244h123q176 0 176 209h287z" />
    <glyph glyph-name="two" unicode="2" horiz-adv-x="1175" 
d="M569 1393q227 0 355 -115t127 -287q0 -172 -131 -334t-451 -411h604v-246h-991v260q288 205 442 346t193 212t39 151t-46 129t-141 49q-95 1 -133 -59t-45 -160h-295q10 223 128 344t345 121z" />
    <glyph glyph-name="three" unicode="3" horiz-adv-x="1118" 
d="M326 387q16 -162 226 -162q96 0 147 50q52 50 53 135q0 190 -215 190h-181v246l240 260h-471v246h838v-246l-295 -260q127 0 246 -94q58 -47 96 -131t37 -193q1 -205 -141 -327q-142 -121 -353 -121t-361 105t-161 302h295z" />
    <glyph glyph-name="four" unicode="4" horiz-adv-x="1200" 
d="M674 573v359l-307 -359h307zM961 0h-287v328h-643v250l643 774h287v-779h208v-245h-208v-328z" />
    <glyph glyph-name="five" unicode="5" horiz-adv-x="1153" 
d="M1008 1352v-246h-566l-45 -330q104 109 272 109t290 -114t122 -327t-146 -339q-146 -125 -355 -125t-342 100t-146 303h295q4 -68 57 -113q52 -45 144 -45q92 -1 145 59t53 158q0 196 -202 197q-97 0 -155 -70q-16 -20 -23 -39l-285 105l80 717h807z" />
    <glyph glyph-name="six" unicode="6" horiz-adv-x="1230" 
d="M634 225q108 1 159 57t51 136q0 231 -217 231q-109 1 -167 -71t-59 -132q8 -102 66 -162q59 -60 167 -59zM690 874q319 0 413 -241q36 -92 36 -181q-1 -90 -15 -146t-51 -116t-92 -105q-55 -46 -147 -76q-92 -29 -226 -29t-242 53t-166 152q-108 184 -108 485
q0 300 112 501q58 105 166 163t257 59q217 -1 341 -103t136 -276h-287q-16 133 -190 133q-143 0 -197 -113t-53 -301q119 141 313 141z" />
    <glyph glyph-name="seven" unicode="7" horiz-adv-x="1040" 
d="M958 1352v-246l-493 -1106h-289l502 1106h-658v246h938z" />
    <glyph glyph-name="eight" unicode="8" horiz-adv-x="1236" 
d="M788 1002q0 74 -50 110t-121 35q-71 0 -119 -36q-48 -35 -49 -111t47 -113t120 -37t122 39t50 113zM618 225q98 0 165 50q67 49 67 143t-66 140t-166 46t-166 -46t-65 -139t67 -143t164 -51zM1083 1012q0 -86 -44 -163t-115 -120q221 -105 221 -315q-1 -210 -149 -322
t-385 -112t-378 112t-141 311q0 230 225 326q-163 91 -163 277t129 286t337 100t335 -102q128 -104 128 -278z" />
    <glyph glyph-name="nine" unicode="9" horiz-adv-x="1224" 
d="M383 933q0 -196 208 -196q108 0 166 68t60 127q-22 211 -219 211q-104 -1 -160 -59t-55 -151zM536 512q-190 0 -317 102t-127 295t109 331q55 71 157 112t238 41q537 0 537 -684q0 -729 -549 -729q-211 0 -331 101t-132 269h291q8 -51 53 -86t123 -35q209 0 243 266
q10 69 11 158q-116 -141 -306 -141z" />
    <glyph glyph-name="colon" unicode=":" horiz-adv-x="475" 
d="M90 737v287h295v-287h-295zM90 0v287h295v-287h-295z" />
    <glyph glyph-name="semicolon" unicode=";" horiz-adv-x="561" 
d="M133 737v287h295v-287h-295zM438 287v-287q-18 -96 -88 -178t-155 -129h-105q12 8 43 44q100 116 100 243v20h-90v287h295z" />
    <glyph glyph-name="less" unicode="&#x3c;" horiz-adv-x="1198" 
d="M1106 55l-944 389v179l944 387v-287l-594 -191l594 -190v-287z" />
    <glyph glyph-name="equal" unicode="=" horiz-adv-x="1161" 
d="M123 350v246h915v-246h-915zM123 756v245h915v-245h-915z" />
    <glyph glyph-name="greater" unicode="&#x3e;" horiz-adv-x="1198" 
d="M162 1010l944 -389v-179l-944 -387v287l594 190l-594 191v287z" />
    <glyph glyph-name="question" unicode="?" horiz-adv-x="1157" 
d="M408 0v287h286v-287h-286zM586 1434q210 0 324 -106t114 -275q0 -131 -52 -202t-127 -134q-75 -62 -113 -123t-38 -170h-286q0 187 60 279q32 50 55 77q24 27 73 71q49 43 71 65t42 60t20 92t-44 86q-44 34 -123 34t-126 -44t-47 -108h-287q0 136 110 260q54 62 152 100
t222 38z" />
    <glyph glyph-name="at" unicode="@" horiz-adv-x="1998" 
d="M1135 1583q391 0 601 -227t210 -580q0 -295 -144 -471t-387 -176q-131 0 -199 51t-75 125q-4 20 0 39q-125 -137 -283 -137q-313 0 -313 334q0 227 126 400t337 173q180 0 237 -137l21 113h243l-116 -656q-15 -98 73 -98t146 75q98 129 98 365t-121 406
q-137 192 -471 192q-174 0 -330 -74t-250 -192q-196 -249 -196 -535t165 -440t447 -153q215 0 394 94l-35 -242q-186 -66 -412 -65q-352 0 -585 205q-232 206 -232 571q0 201 73 387q156 398 537 565q201 88 441 88zM948 418q114 0 180 88t66 219q0 178 -154 178
q-119 0 -177 -94t-58 -215q0 -176 143 -176z" />
    <glyph glyph-name="A" unicode="A" horiz-adv-x="1396" 
d="M686 1110l-188 -561h376zM846 1413l518 -1413h-305l-88 262h-570l-86 -262h-282l518 1413h295z" />
    <glyph glyph-name="B" unicode="B" horiz-adv-x="1357" 
d="M451 848h337q49 0 92 42q42 42 42 116t-41 117q-41 44 -93 44h-337v-319zM451 246h362q66 0 109 51t43 131t-42 127t-110 47h-362v-356zM164 1413h667q162 0 274 -94t112 -265t-97 -252q-70 -59 -141 -83q196 -25 257 -191q24 -61 24 -141q0 -171 -111 -279t-318 -108
h-667v1413z" />
    <glyph glyph-name="C" unicode="C" horiz-adv-x="1478" 
d="M760 1434q290 0 450 -140t195 -352h-297q-57 246 -330 246q-96 0 -170 -34t-114 -84q-102 -128 -101 -368q0 -477 385 -477q158 0 241 80t105 197h299q-41 -229 -201 -376q-161 -146 -456 -146t-481 190q-187 190 -187 534t186 537t476 193z" />
    <glyph glyph-name="D" unicode="D" horiz-adv-x="1472" 
d="M164 1413h571q639 0 639 -706q0 -554 -401 -674q-106 -33 -238 -33h-571v1413zM451 1167v-921h264q164 0 264 108t100 353q0 461 -364 460h-264z" />
    <glyph glyph-name="E" unicode="E" horiz-adv-x="1226" 
d="M1145 1413v-246h-694v-317h573v-246h-573v-358h694v-246h-981v1413h981z" />
    <glyph glyph-name="F" unicode="F" horiz-adv-x="1165" 
d="M1124 1413v-246h-673v-352h634v-246h-634v-569h-287v1413h960z" />
    <glyph glyph-name="G" unicode="G" horiz-adv-x="1574" 
d="M770 -20q-293 0 -482 192t-190 537q0 344 193 534t514 191q276 0 442 -138t201 -354h-295q-80 246 -338 246q-422 0 -422 -481t410 -482q150 0 246 76t116 195h-356v245h651v-741h-229l-35 156q-133 -176 -426 -176z" />
    <glyph glyph-name="H" unicode="H" horiz-adv-x="1480" 
d="M1317 1413v-1413h-287v600h-579v-600h-287v1413h287v-567h579v567h287z" />
    <glyph glyph-name="I" unicode="I" horiz-adv-x="614" 
d="M451 0h-287v1413h287v-1413z" />
    <glyph glyph-name="J" unicode="J" horiz-adv-x="1222" 
d="M780 1413h287v-917q0 -254 -132 -385t-382 -131t-385 133t-135 358h286q-1 -121 51 -183t180 -62t179 65q51 66 51 184v938z" />
    <glyph glyph-name="K" unicode="K" horiz-adv-x="1406" 
d="M451 0h-287v1413h287v-606l493 606h356l-462 -526l553 -887h-338l-404 680l-198 -229v-451z" />
    <glyph glyph-name="L" unicode="L" horiz-adv-x="1150" 
d="M451 246h651v-246h-938v1413h287v-1167z" />
    <glyph glyph-name="M" unicode="M" horiz-adv-x="1835" 
d="M1671 1413v-1413h-287v1071l-313 -1071h-293l-327 1071v-1071h-287v1413h459l303 -1057l301 1057h444z" />
    <glyph glyph-name="N" unicode="N" horiz-adv-x="1536" 
d="M1372 1413v-1413h-328l-593 969v-969h-287v1413h348l573 -930v930h287z" />
    <glyph glyph-name="O" unicode="O" horiz-adv-x="1581" 
d="M1483 704q-1 -346 -189 -535t-503 -189t-504 189t-189 535t188 538t504 192t504 -192t189 -538zM792 225q192 0 294 122q102 123 102 363t-108 359t-298 119t-289 -126t-99 -363t102 -355q104 -118 296 -119z" />
    <glyph glyph-name="P" unicode="P" horiz-adv-x="1275" 
d="M164 1413h590q204 -1 330 -111t126 -346t-126 -342t-330 -106h-303v-508h-287v1413zM733 754q182 0 182 201q0 95 -45 153t-137 59h-282v-413h282z" />
    <glyph glyph-name="Q" unicode="Q" horiz-adv-x="1581" 
d="M791 225q31 0 71 4l-166 222l234 167l178 -253q80 125 80 337q0 485 -397 486q-207 0 -303 -122t-95 -367t101 -359t297 -115zM1483 697q0 -353 -215 -552l125 -161l-234 -168l-137 196q-123 -33 -231 -32q-315 0 -504 189t-189 535t188 538t504 192t504 -192t189 -545z
" />
    <glyph glyph-name="R" unicode="R" horiz-adv-x="1337" 
d="M451 1167v-387h335q80 0 121 51t41 141t-41 142q-41 53 -121 53h-335zM451 535v-535h-287v1413h643q159 0 289 -90q68 -47 108 -138t39 -216q0 -332 -272 -406l284 -563h-311l-262 535h-231z" />
    <glyph glyph-name="S" unicode="S" horiz-adv-x="1337" 
d="M664 1198q-231 0 -232 -154q0 -72 56 -111q56 -38 129 -57q73 -18 135 -32t104 -25q170 -47 274 -139t105 -268q0 -213 -158 -323q-158 -109 -424 -109t-401 128t-150 338h295q20 -231 279 -231q120 0 192 47t72 132t-54 128q-54 42 -125 60t-162 38q-195 42 -316 116
q-146 91 -146 285q0 195 134 304q135 109 407 109t385 -122t125 -288h-295q-8 84 -58 129t-171 45z" />
    <glyph glyph-name="T" unicode="T" horiz-adv-x="1167" 
d="M1118 1413v-246h-391v-1167h-287v1167h-391v246h1069z" />
    <glyph glyph-name="U" unicode="U" horiz-adv-x="1445" 
d="M1290 1413v-932q0 -231 -148 -366t-418 -135t-420 135q-148 135 -148 366v932h286v-956q0 -231 281 -231t281 231v956h286z" />
    <glyph glyph-name="V" unicode="V" horiz-adv-x="1366" 
d="M1333 1413l-512 -1413h-276l-512 1413h305l356 -1110l357 1110h282z" />
    <glyph glyph-name="W" unicode="W" horiz-adv-x="1929" 
d="M1896 1413l-393 -1413h-278l-254 1026l-262 -1026h-279l-397 1413h301l248 -1104l245 1104h299l248 -1104l246 1104h276z" />
    <glyph glyph-name="X" unicode="X" horiz-adv-x="1376" 
d="M1307 1413l-465 -682l501 -731h-339l-316 518l-326 -518h-329l518 743l-457 670h340l273 -459l270 459h330z" />
    <glyph glyph-name="Y" unicode="Y" horiz-adv-x="1306" 
d="M510 0v532l-477 881h325l308 -631l305 631h303l-477 -881v-532h-287z" />
    <glyph glyph-name="Z" unicode="Z" horiz-adv-x="1255" 
d="M1190 1413v-246l-787 -921h787v-246h-1124v246l778 921h-756v246h1102z" />
    <glyph glyph-name="bracketleft" unicode="[" horiz-adv-x="667" 
d="M115 -348v1761h503v-246h-217v-1269h217v-246h-503z" />
    <glyph glyph-name="backslash" unicode="\" horiz-adv-x="823" 
d="M522 0l-514 1413h285l514 -1413h-285z" />
    <glyph glyph-name="bracketright" unicode="]" horiz-adv-x="667" 
d="M553 1413v-1761h-504v246h217v1269h-217v246h504z" />
    <glyph glyph-name="asciicircum" unicode="^" horiz-adv-x="1386" 
d="M803 1407l469 -793h-299l-281 516l-280 -516h-297l467 793h221z" />
    <glyph glyph-name="underscore" unicode="_" horiz-adv-x="974" 
d="M0 -250v103h975v-103h-975z" />
    <glyph glyph-name="grave" unicode="`" horiz-adv-x="710" 
d="M129 1413h328l131 -266h-230z" />
    <glyph glyph-name="a" unicode="a" horiz-adv-x="1114" 
d="M502 209q92 0 151 57t60 166v37l-117 -18q-231 -37 -231 -146q0 -96 137 -96zM559 1044q440 0 440 -421v-623h-243l-33 139q-98 -160 -303 -159q-137 0 -240 71q-102 72 -102 218t112 241q113 94 398 131l125 16v21q1 137 -151 137t-165 -117h-286q16 123 100 225
q102 121 348 121z" />
    <glyph glyph-name="b" unicode="b" horiz-adv-x="1239" 
d="M642 225q108 0 164 73t56 214q0 287 -219 287q-109 0 -167 -74t-58 -214t58 -213t166 -73zM131 1413h287v-524q102 155 301 155t319 -141t119 -398q0 -257 -118 -391q-119 -134 -319 -134t-312 159l-33 -139h-244v1413z" />
    <glyph glyph-name="c" unicode="c" horiz-adv-x="1148" 
d="M604 799q-103 0 -165 -76t-62 -214t63 -211t185 -73q156 0 190 135h293q-22 -166 -146 -274t-339 -106q-256 0 -399 143q-142 143 -142 387t142 389t380 145t358 -117q120 -118 134 -282h-291q-10 59 -54 107t-147 47z" />
    <glyph glyph-name="d" unicode="d" horiz-adv-x="1239" 
d="M377 512q1 -141 57 -214t164 -73t165 73q58 73 58 213t-58 214t-167 74q-219 0 -219 -287zM821 1413h287v-1413h-244l-33 139q-113 -159 -313 -159t-318 134t-118 391t120 398t318 141t301 -155v524z" />
    <glyph glyph-name="e" unicode="e" horiz-adv-x="1189" 
d="M604 815q-160 0 -211 -180h424q-10 84 -66 132q-57 48 -147 48zM621 -20q-244 0 -392 139q-147 139 -147 390t147 393t369 142t366 -137t144 -389v-74h-727q6 -102 65 -169t170 -66q134 -1 185 108h297q-64 -203 -211 -274q-126 -63 -266 -63z" />
    <glyph glyph-name="f" unicode="f" horiz-adv-x="729" 
d="M475 1087v-63h187v-246h-187v-778h-287v778h-155v246h155v82q0 166 102 253t261 87q55 0 121 -10v-246q-57 10 -97 10t-70 -24t-30 -89z" />
    <glyph glyph-name="g" unicode="g" horiz-adv-x="1142" 
d="M587 799q-153 0 -153 -109q0 -102 153 -102t152 102q1 109 -152 109zM377 -86q0 -51 54 -73t185 -21q231 0 232 76q0 84 -238 84q-111 6 -176 14q-22 -7 -39 -29q-18 -22 -18 -51zM1108 1159v-246q-68 0 -90 -8t-41 -35q57 -68 57 -172q0 -170 -124 -263t-312 -93
q-94 0 -145 18q-43 -14 -43 -53q0 -47 76 -66t183 -29t215 -30t184 -90t75 -188q-1 -314 -531 -314t-530 293q0 145 145 211q-113 66 -112 176q0 70 49 118t115 63q-139 84 -140 254q0 171 122 255t321 84q137 0 217 -43q26 158 309 158z" />
    <glyph glyph-name="h" unicode="h" horiz-adv-x="1216" 
d="M770 1044q332 0 332 -432v-612h-287v582q0 217 -156 217q-102 0 -172 -81t-69 -226v-492h-287v1413h287v-541q139 172 352 172z" />
    <glyph glyph-name="i" unicode="i" horiz-adv-x="548" 
d="M418 1413v-246h-287v246h287zM418 0h-287v1024h287v-1024z" />
    <glyph glyph-name="j" unicode="j" horiz-adv-x="499" 
d="M123 1167v246h287v-246h-287zM123 -41v1065h287v-1083q0 -166 -102 -253t-261 -87q-55 0 -121 10v246q55 -11 96 -11t71 24t30 89z" />
    <glyph glyph-name="k" unicode="k" horiz-adv-x="1202" 
d="M418 1413v-786l319 397h348l-352 -410l453 -614h-348l-279 408l-141 -168v-240h-287v1413h287z" />
    <glyph glyph-name="l" unicode="l" horiz-adv-x="624" 
d="M418 1413v-1091q0 -53 23 -71q24 -17 96 -18h22v-237q-49 -8 -123 -8q-160 0 -232 74t-73 221v1130h287z" />
    <glyph glyph-name="m" unicode="m" horiz-adv-x="1818" 
d="M1395 1044q161 0 235 -106t74 -326v-612h-287v582q0 106 -31 161q-30 55 -120 55t-148 -88q-58 -89 -57 -239v-471h-287v582q0 217 -143 217q-93 0 -153 -85t-60 -241v-473h-287v1024h242l35 -164q138 184 346 184t282 -210q126 210 359 210z" />
    <glyph glyph-name="n" unicode="n" horiz-adv-x="1216" 
d="M770 1044q180 0 256 -112t76 -320v-612h-287v582q0 217 -156 217q-106 0 -174 -82t-67 -244v-473h-287v1024h242l35 -164q135 184 362 184z" />
    <glyph glyph-name="o" unicode="o" horiz-adv-x="1236" 
d="M626 1044q248 0 388 -138t141 -395q0 -257 -140 -394q-141 -137 -389 -137t-396 139t-148 391t148 393t396 141zM618 799q-242 0 -242 -287t242 -287t242 287t-242 287z" />
    <glyph glyph-name="p" unicode="p" horiz-adv-x="1239" 
d="M642 799q-108 0 -166 -73t-58 -213t58 -214t167 -74q219 0 219 287q0 141 -56 214t-164 73zM418 -389h-287v1413h244l33 -139q114 159 314 159t318 -134t117 -391q0 -257 -120 -398q-121 -141 -319 -141t-300 155v-524z" />
    <glyph glyph-name="q" unicode="q" horiz-adv-x="1239" 
d="M598 799q-108 0 -164 -73t-57 -214q0 -287 219 -287q109 0 167 74t58 214t-58 213q-57 73 -165 73zM1108 -389h-287v524q-102 -155 -301 -155q-198 0 -318 141t-120 398t118 391t318 134t313 -159l33 139h244v-1413z" />
    <glyph glyph-name="r" unicode="r" horiz-adv-x="831" 
d="M688 1034q68 0 127 -16v-252q-61 23 -141 22q-256 0 -256 -292v-496h-287v1024h246l31 -178q96 188 280 188z" />
    <glyph glyph-name="s" unicode="s" horiz-adv-x="1075" 
d="M532 1044q196 0 309 -95q112 -95 126 -251h-285q-16 117 -148 117t-133 -88q-1 -41 23 -57q50 -34 129 -45t123 -19q145 -28 231 -92t86 -220t-126 -236q-126 -79 -324 -78q-418 0 -461 344h287q12 -61 55 -88t131 -27q143 0 143 84q0 66 -75 90q-49 16 -131 26
q-82 11 -111 17q-274 57 -275 297q0 157 115 239t311 82z" />
    <glyph glyph-name="t" unicode="t" horiz-adv-x="772" 
d="M502 -20q-133 0 -223 66t-91 216v516h-135v246h135v268l287 82v-350h191v-246h-191v-456q0 -96 141 -97q40 1 91 11v-236q-72 -20 -205 -20z" />
    <glyph glyph-name="u" unicode="u" horiz-adv-x="1177" 
d="M436 -20q-322 0 -321 428v616h286v-575q0 -223 150 -224q102 0 166 86q63 86 63 240v473h287v-1024h-242l-34 164q-130 -184 -355 -184z" />
    <glyph glyph-name="v" unicode="v" horiz-adv-x="1155" 
d="M1130 1024l-405 -1024h-295l-405 1024h305l260 -756l258 756h282z" />
    <glyph glyph-name="w" unicode="w" horiz-adv-x="1568" 
d="M1544 1024l-303 -1024h-293l-160 707l-165 -707h-295l-303 1024h305l157 -733l156 733h305l158 -731l156 731h282z" />
    <glyph glyph-name="x" unicode="x" horiz-adv-x="1126" 
d="M1053 1024l-332 -487l389 -537h-334l-217 346l-237 -346h-306l404 547l-342 477h334l168 -276l168 276h305z" />
    <glyph glyph-name="y" unicode="y" horiz-adv-x="1095" 
d="M291 -410h-144v246h93q78 0 112 31t66 125l20 61l-413 971h303l241 -666l230 666h272l-455 -1231q-81 -203 -325 -203z" />
    <glyph glyph-name="z" unicode="z" horiz-adv-x="1013" 
d="M944 1024v-246l-528 -532h549v-246h-916v246l529 532h-508v246h874z" />
    <glyph glyph-name="braceleft" unicode="{" horiz-adv-x="794" 
d="M115 410v245q174 0 174 133v336q0 160 102 225t309 64h45v-246h-30q-70 1 -105 -29t-35 -104v-317q0 -135 -110 -185q111 -53 110 -184v-317q0 -74 35 -104t105 -29h30v-246h-45q-207 0 -309 64t-102 225v335q4 134 -174 134z" />
    <glyph glyph-name="bar" unicode="|" horiz-adv-x="679" 
d="M197 -348v1761h286v-1761h-286z" />
    <glyph glyph-name="braceright" unicode="}" horiz-adv-x="794" 
d="M680 410q-178 0 -174 -134v-335q0 -160 -102 -225t-310 -64h-45v246h31q70 0 104 30t35 103v317q0 131 111 184q-111 49 -111 185v317q0 74 -35 104t-104 29h-31v246h45q207 -1 309 -65t103 -224v-336q0 -133 174 -133v-245z" />
    <glyph glyph-name="asciitilde" unicode="~" horiz-adv-x="976" 
d="M629 537q-63 0 -142 42t-117 42t-58 -25t-19 -59h-176q0 185 101 238q52 28 126 28t153 -42t113 -42t56 23q20 24 20 61h176q0 -266 -233 -266z" />
    <glyph glyph-name="exclamdown" unicode="&#xa1;" horiz-adv-x="655" 
d="M190 -389l41 989h193l41 -989h-275zM184 737v287h287v-287h-287z" />
    <glyph glyph-name="cent" unicode="&#xa2;" horiz-adv-x="1169" 
d="M367 715q1 -137 65 -211t161 -74t147 28t65 107h293q-24 -162 -132 -266t-319 -115v-184h-104v186q-221 18 -346 160t-125 368q0 228 125 370t346 163v160h104v-160q205 -13 315 -127t123 -270h-290q-11 59 -55 106q-44 48 -146 48t-165 -76q-62 -76 -62 -213z" />
    <glyph glyph-name="sterling" unicode="&#xa3;" horiz-adv-x="1198" 
d="M670 1413q436 0 436 -383h-305q0 121 -131 121q-51 0 -88 -29t-37 -92v-278h317v-222h-317v-118q0 -119 -82 -150h371q84 0 84 109h305q0 -194 -93 -284q-36 -35 -106 -61t-164 -26h-792v262q122 0 151 59q21 42 21 87v122h-170v222h170v278q0 132 85 247q44 60 133 98
t212 38z" />
    <glyph glyph-name="currency" unicode="&#xa4;" horiz-adv-x="1198" 
d="M1145 512q0 -147 -80 -274l178 -179l-158 -157l-178 178q-123 -80 -275 -80t-276 80l-178 -178l-158 157l179 179q-80 127 -80 274t80 274l-179 179l158 157l178 -178q127 80 276 80t275 -80l178 178l158 -157l-178 -179q80 -127 80 -274zM631 223q123 0 207 86t84 205
t-86 203t-204 84t-204 -85t-86 -203t83 -204t206 -86z" />
    <glyph glyph-name="yen" unicode="&#xa5;" horiz-adv-x="1198" 
d="M1145 692v-170h-322v-129h322v-170h-322v-223h-286v223h-334v170h334v129h-334v170h246l-390 721h326l307 -631l305 631h303l-391 -721h236z" />
    <glyph glyph-name="brokenbar" unicode="&#xa6;" horiz-adv-x="552" 
d="M133 -348v758h287v-758h-287zM133 655v758h287v-758h-287z" />
    <glyph glyph-name="section" unicode="&#xa7;" horiz-adv-x="1075" 
d="M698 630q0 48 -16 74q-34 54 -176 77q-43 7 -57 12q-27 -13 -47 -51t-21 -80q0 -85 58 -112t115 -36q58 -10 75 -14q25 10 47 46t22 84zM526 1434q321 0 412 -225q23 -56 29 -122h-285q-16 117 -148 117t-133 -88q-1 -39 21 -55q22 -15 38 -23t43 -14q28 -6 48 -9t58 -8
q111 -15 184 -39q203 -68 200 -270q0 -92 -42 -160t-103 -100q57 -27 101 -89t44 -157t-43 -163q-42 -68 -114 -101q-132 -61 -299 -61q-410 0 -457 344h289q14 -63 55 -89t125 -26q150 0 149 84q0 64 -62 84t-139 30q-77 11 -110 17q-281 57 -281 295q0 168 160 262
q-57 27 -108 94t-52 152q0 124 98 222t322 98z" />
    <glyph glyph-name="dieresis" unicode="&#xa8;" horiz-adv-x="1126" 
d="M184 1167v246h287v-246h-287zM655 1167v246h287v-246h-287z" />
    <glyph glyph-name="copyright" unicode="&#xa9;" horiz-adv-x="1507" 
d="M776 295q-160 0 -264 106t-104 301t104 303t276 107q90 0 160 -28t106 -66t64 -90q28 -53 27 -90h-170q-23 125 -187 125q-100 0 -155 -68t-55 -193q0 -126 55 -192t155 -66q168 0 187 146h170q-23 -139 -116 -217t-253 -78zM784 168q223 0 380 157t157 380t-157 379
t-380 157q-223 0 -380 -157q-156 -158 -156 -380t156 -379t380 -157zM1513 702q0 -125 -36 -231q-75 -221 -265 -359t-430 -139q-303 0 -516 213t-213 516q0 304 213 518t516 214t517 -214t214 -518z" />
    <glyph glyph-name="ordfeminine" unicode="&#xaa;" horiz-adv-x="724" 
d="M254 897q0 -55 79 -55t118 38t38 87v37l-79 -13q-156 -25 -156 -94zM385 1423q309 0 309 -295v-436h-168l-24 88q-78 -102 -223 -102q-92 0 -161 45t-69 149q0 211 354 254l86 11v43q1 32 -25 56t-83 24q-96 0 -105 -80h-204q34 243 313 243z" />
    <glyph glyph-name="guillemotleft" unicode="&#xab;" horiz-adv-x="1269" 
d="M1167 965l-323 -449l323 -455h-272l-322 455l322 449h272zM696 965l-323 -449l323 -455h-272l-322 455l322 449h272z" />
    <glyph glyph-name="logicalnot" unicode="&#xac;" horiz-adv-x="1198" 
d="M121 494v229h997v-565h-280v336h-717z" />
    <glyph glyph-name="registered" unicode="&#xae;" horiz-adv-x="1507" 
d="M782 1434q303 0 517 -214t214 -518t-214 -516q-214 -213 -517 -213t-516 213t-213 516q0 304 213 518t516 214zM784 168q223 0 380 157t157 380t-157 379t-380 157q-223 0 -380 -157q-156 -158 -156 -380t156 -379t380 -157zM477 1098h361q57 0 119 -28q126 -55 124 -218
q0 -119 -60 -175t-132 -69l213 -299h-189l-186 293h-80v-293h-170v789zM647 946v-194h156q109 0 108 100q0 94 -108 94h-156z" />
    <glyph glyph-name="macron" unicode="&#xaf;" horiz-adv-x="1009" 
d="M825 1413v-225h-641v225h641z" />
    <glyph glyph-name="degree" unicode="&#xb0;" horiz-adv-x="843" 
d="M532 1536q123 0 209 -87t86 -210t-86 -209t-209 -86q-124 0 -210 86t-86 209t86 210t210 87zM381 1240q0 -64 44 -108t106 -45q63 1 107 45t44 107t-44 107t-106 45q-62 0 -107 -44q-44 -43 -44 -107z" />
    <glyph glyph-name="plusminus" unicode="&#xb1;" horiz-adv-x="1198" 
d="M494 1407h260v-352h354v-260h-354v-361h-260v361h-353v260h353v352zM1108 231v-231h-965v231h965z" />
    <glyph glyph-name="twosuperior" unicode="&#xb2;" horiz-adv-x="716" 
d="M344 1516q143 0 221 -71t78 -172t-74 -193t-243 -224h329v-176h-610v186q239 162 313 244t74 141q0 88 -84 88t-84 -112h-211q10 289 291 289z" />
    <glyph glyph-name="threesuperior" unicode="&#xb3;" horiz-adv-x="688" 
d="M76 1495h516v-176l-156 -123q66 0 138 -62t71 -190q0 -128 -89 -201q-89 -71 -214 -71t-221 66t-103 186h211q7 -76 107 -76t100 86t-104 86h-119v176l115 123h-252v176z" />
    <glyph glyph-name="acute" unicode="&#xb4;" horiz-adv-x="1024" 
d="M434 1413h328l-230 -266h-229z" />
    <glyph glyph-name="mu" unicode="&#xb5;" horiz-adv-x="1198" 
d="M401 -389h-286v1413h286v-592q0 -117 34 -162t106 -45q109 0 175 74t64 188v537h287v-1024h-242l-34 145q-113 -166 -277 -165q-59 0 -113 22v-391z" />
    <glyph glyph-name="paragraph" unicode="&#xb6;" horiz-adv-x="1388" 
d="M135 967q0 182 130 311t313 129h757v-1638h-286v1392h-185v-1392h-286v757q-182 0 -313 129q-130 130 -130 312z" />
    <glyph glyph-name="periodcentered" unicode="&#xb7;" horiz-adv-x="475" 
d="M90 348v287h295v-287h-295z" />
    <glyph glyph-name="cedilla" unicode="&#xb8;" horiz-adv-x="784" 
d="M600 -242q0 -66 -52 -116t-158 -52q-106 0 -206 41v127q94 -45 164 -45t70 47q0 61 -99 62q-43 0 -86 -6l95 184h131l-45 -80q186 0 186 -162z" />
    <glyph glyph-name="onesuperior" unicode="&#xb9;" horiz-adv-x="534" 
d="M424 1495v-811h-205v504h-188v174h82q106 0 106 133h205z" />
    <glyph glyph-name="ordmasculine" unicode="&#xba;" horiz-adv-x="786" 
d="M431 1421q175 0 273 -96t99 -276q0 -181 -98 -277q-99 -96 -273 -96t-278 97t-104 275t102 275q104 98 279 98zM426 1245q-166 -1 -166 -197t166 -196t166 196t-166 197z" />
    <glyph glyph-name="guillemotright" unicode="&#xbb;" horiz-adv-x="1249" 
d="M877 516l-324 449h272l322 -449l-322 -455h-272zM426 516l-324 449h273l321 -449l-321 -455h-273z" />
    <glyph glyph-name="onequarter" unicode="&#xbc;" horiz-adv-x="1581" 
d="M1106 1495l141 -82l-860 -1495l-141 82zM424 1495v-811h-205v504h-188v174h82q106 0 106 133h205zM1225 365v147l-133 -147h133zM1430 0h-205v188h-373v181l373 442h205v-446h133v-177h-133v-188z" />
    <glyph glyph-name="onehalf" unicode="&#xbd;" horiz-adv-x="1579" 
d="M1063 1495l141 -82l-860 -1495l-141 82zM1206 799q143 0 221 -71t78 -172t-73 -194q-74 -92 -244 -223h330v-176h-611v187q238 162 313 244t74 141q0 88 -84 88t-84 -113h-211q10 289 291 289zM424 1495v-811h-205v504h-188v174h82q106 0 106 133h205z" />
    <glyph glyph-name="threequarters" unicode="&#xbe;" horiz-adv-x="1699" 
d="M1251 1495l142 -82l-861 -1495l-141 82zM141 1495h516v-176l-155 -123q66 0 138 -62t71 -190q0 -128 -89 -201q-89 -71 -214 -71t-222 65q-96 66 -102 187h211q7 -76 107 -76t100 86t-105 86h-118v176l114 123h-252v176zM1343 365v147l-133 -147h133zM1548 0h-205v188
h-372v181l372 442h205v-446h133v-177h-133v-188z" />
    <glyph glyph-name="questiondown" unicode="&#xbf;" horiz-adv-x="1157" 
d="M719 1024v-287h-287v287h287zM541 -410q-211 0 -325 106t-114 275q0 130 53 203t127 134t112 122t38 170h287q0 -188 -55 -271t-118 -142q-64 -57 -86 -79t-42 -60t-20 -92t43 -86q44 -34 123 -34t126 44t47 108h287q0 -136 -110 -260q-54 -62 -151 -100t-222 -38z" />
    <glyph glyph-name="Agrave" unicode="&#xc0;" horiz-adv-x="1396" 
d="M403 1823h328l131 -267h-229zM686 1110l-188 -561h376zM846 1413l518 -1413h-305l-88 262h-570l-86 -262h-282l518 1413h295z" />
    <glyph glyph-name="Aacute" unicode="&#xc1;" horiz-adv-x="1396" 
d="M629 1823h327l-229 -267h-229zM686 1110l-188 -561h376zM846 1413l518 -1413h-305l-88 262h-570l-86 -262h-282l518 1413h295z" />
    <glyph glyph-name="Acircumflex" unicode="&#xc2;" horiz-adv-x="1396" 
d="M815 1823l209 -267h-199l-149 148l-150 -148h-198l207 267h280zM686 1110l-188 -561h376zM846 1413l518 -1413h-305l-88 262h-570l-86 -262h-282l518 1413h295z" />
    <glyph glyph-name="Atilde" unicode="&#xc3;" horiz-adv-x="1396" 
d="M557 1640q-78 0 -80 -84h-176q0 185 101 239q52 28 126 28t154 -43q78 -43 113 -43q35 1 55 25t20 61h177q-1 -267 -234 -267q-63 0 -142 42t-114 42zM686 1110l-188 -561h376zM846 1413l518 -1413h-305l-88 262h-570l-86 -262h-282l518 1413h295z" />
    <glyph glyph-name="Adieresis" unicode="&#xc4;" horiz-adv-x="1396" 
d="M295 1577v246h287v-246h-287zM766 1577v246h287v-246h-287zM686 1110l-188 -561h376zM846 1413l518 -1413h-305l-88 262h-570l-86 -262h-282l518 1413h295z" />
    <glyph glyph-name="Aring" unicode="&#xc5;" horiz-adv-x="1396" 
d="M674 2120q116 0 196 -81t80 -196t-81 -195t-195 -81q-114 0 -194 81q-81 82 -81 196t80 195t195 81zM575 1843q0 -41 30 -69t70 -29q39 0 69 29q30 30 30 70t-30 69t-70 29t-70 -29q-29 -29 -29 -70zM686 1110l-188 -561h376zM846 1413l518 -1413h-305l-88 262h-570
l-86 -262h-282l518 1413h295z" />
    <glyph glyph-name="AE" unicode="&#xc6;" horiz-adv-x="2121" 
d="M1059 549v432l-301 -432h301zM2040 1413v-246h-694v-317h573v-246h-573v-358h694v-246h-981v262h-510l-197 -262h-319l1026 1413h981z" />
    <glyph glyph-name="Ccedilla" unicode="&#xc7;" horiz-adv-x="1478" 
d="M98 713q0 335 186 528t476 193t450 -140t195 -352h-293q-57 246 -334 246q-94 0 -166 -34t-112 -84t-74 -142q-33 -92 -33 -226q0 -477 385 -477q158 0 239 81t107 196h293q-35 -212 -181 -358t-398 -162l-35 -62q186 0 186 -162q0 -66 -52 -116q-53 -50 -159 -52
q-106 0 -205 41v127q94 -45 164 -45t70 47q0 61 -98 62q-43 0 -86 -6l84 168q-276 20 -443 207q-166 187 -166 522z" />
    <glyph glyph-name="Egrave" unicode="&#xc8;" horiz-adv-x="1226" 
d="M299 1823h328l131 -267h-230zM1145 1413v-246h-694v-317h573v-246h-573v-358h694v-246h-981v1413h981z" />
    <glyph glyph-name="Eacute" unicode="&#xc9;" horiz-adv-x="1226" 
d="M627 1823h327l-229 -267h-229zM1145 1413v-246h-694v-317h573v-246h-573v-358h694v-246h-981v1413h981z" />
    <glyph glyph-name="Ecircumflex" unicode="&#xca;" horiz-adv-x="1226" 
d="M825 1823l209 -267h-198l-150 148l-149 -148h-199l207 267h280zM1145 1413v-246h-694v-317h573v-246h-573v-358h694v-246h-981v1413h981z" />
    <glyph glyph-name="Edieresis" unicode="&#xcb;" horiz-adv-x="1226" 
d="M307 1577v246h287v-246h-287zM778 1577v246h287v-246h-287zM1145 1413v-246h-694v-317h573v-246h-573v-358h694v-246h-981v1413h981z" />
    <glyph glyph-name="Igrave" unicode="&#xcc;" horiz-adv-x="655" 
d="M-53 1823h327l132 -267h-230zM451 0h-287v1413h287v-1413z" />
    <glyph glyph-name="Iacute" unicode="&#xcd;" horiz-adv-x="655" 
d="M303 1823h328l-230 -267h-229zM451 0h-287v1413h287v-1413z" />
    <glyph glyph-name="Icircumflex" unicode="&#xce;" horiz-adv-x="655" 
d="M473 1823l209 -267h-199l-149 148l-150 -148h-198l207 267h280zM451 0h-287v1413h287v-1413z" />
    <glyph glyph-name="Idieresis" unicode="&#xcf;" horiz-adv-x="655" 
d="M-43 1577v246h287v-246h-287zM428 1577v246h287v-246h-287zM451 0h-287v1413h287v-1413z" />
    <glyph glyph-name="Eth" unicode="&#xd0;" horiz-adv-x="1417" 
d="M440 1161v-317h236v-283h-236v-315h207q188 0 301 112t113 348t-113 346t-301 109h-207zM0 561v283h154v563h514q92 0 173 -12q81 -13 180 -57t169 -116t118 -204q48 -133 48 -311q0 -177 -48 -311t-118 -208t-168 -118t-180 -56q-82 -14 -174 -14h-514v561h-154z" />
    <glyph glyph-name="Ntilde" unicode="&#xd1;" horiz-adv-x="1536" 
d="M686 1640q-78 0 -80 -84h-176q0 185 101 239q53 28 127 28t152 -43t114 -43q35 1 55 25t20 61h177q-1 -267 -234 -267q-63 0 -142 42t-114 42zM1372 1413v-1413h-328l-593 969v-969h-287v1413h348l573 -930v930h287z" />
    <glyph glyph-name="Ograve" unicode="&#xd2;" horiz-adv-x="1581" 
d="M524 1823h328l131 -267h-229zM1483 704q-1 -346 -189 -535t-503 -189t-504 189t-189 535t188 538t504 192t504 -192t189 -538zM792 225q192 0 294 122q102 123 102 363t-108 359t-298 119t-289 -126t-99 -363t102 -355q104 -118 296 -119z" />
    <glyph glyph-name="Oacute" unicode="&#xd3;" horiz-adv-x="1581" 
d="M762 1823h328l-230 -267h-229zM1483 704q-1 -346 -189 -535t-503 -189t-504 189t-189 535t188 538t504 192t504 -192t189 -538zM792 225q192 0 294 122q102 123 102 363t-108 359t-298 119t-289 -126t-99 -363t102 -355q104 -118 296 -119z" />
    <glyph glyph-name="Ocircumflex" unicode="&#xd4;" horiz-adv-x="1581" 
d="M924 1823l209 -267h-199l-150 148l-149 -148h-199l207 267h281zM1483 704q-1 -346 -189 -535t-503 -189t-504 189t-189 535t188 538t504 192t504 -192t189 -538zM792 225q192 0 294 122q102 123 102 363t-108 359t-298 119t-289 -126t-99 -363t102 -355
q104 -118 296 -119z" />
    <glyph glyph-name="Otilde" unicode="&#xd5;" horiz-adv-x="1581" 
d="M674 1640q-80 0 -80 -84h-176q0 186 101 239q52 28 126 28t153 -43q80 -43 114 -43t55 24q20 25 20 62h176q0 -267 -233 -267q-62 0 -142 42t-114 42zM1483 704q-1 -346 -189 -535t-503 -189t-504 189t-189 535t188 538t504 192t504 -192t189 -538zM792 225
q192 0 294 122q102 123 102 363t-108 359t-298 119t-289 -126t-99 -363t102 -355q104 -118 296 -119z" />
    <glyph glyph-name="Odieresis" unicode="&#xd6;" horiz-adv-x="1581" 
d="M412 1577v246h286v-246h-286zM883 1577v246h286v-246h-286zM1483 704q-1 -346 -189 -535t-503 -189t-504 189t-189 535t188 538t504 192t504 -192t189 -538zM792 225q192 0 294 122q102 123 102 363t-108 359t-298 119t-289 -126t-99 -363t102 -355q104 -118 296 -119z
" />
    <glyph glyph-name="multiply" unicode="&#xd7;" horiz-adv-x="1198" 
d="M215 788l174 175l258 -258l258 260l174 -174l-258 -261l258 -258l-174 -174l-258 260l-258 -258l-174 174l258 256z" />
    <glyph glyph-name="Oslash" unicode="&#xd8;" horiz-adv-x="1581" 
d="M1188 702q0 207 -70 324l-530 -758q80 -43 203 -43q397 0 397 477zM791 1188q-398 0 -398 -468q0 -224 70 -339l532 762q-83 45 -204 45zM1483 711q-1 -353 -189 -542t-503 -189q-201 0 -353 77l-108 -153l-133 96l106 152q-205 194 -205 546t188 544t505 192
q203 0 352 -80l108 153l138 -94l-109 -156q203 -193 203 -546z" />
    <glyph glyph-name="Ugrave" unicode="&#xd9;" horiz-adv-x="1445" 
d="M408 1823h327l131 -267h-229zM1290 1413v-932q0 -231 -148 -366t-418 -135t-420 135q-148 135 -148 366v932h286v-956q0 -231 281 -231t281 231v956h286z" />
    <glyph glyph-name="Uacute" unicode="&#xda;" horiz-adv-x="1445" 
d="M705 1823h327l-229 -267h-230zM1290 1413v-932q0 -231 -148 -366t-418 -135t-420 135q-148 135 -148 366v932h286v-956q0 -231 281 -231t281 231v956h286z" />
    <glyph glyph-name="Ucircumflex" unicode="&#xdb;" horiz-adv-x="1445" 
d="M846 1823l209 -267h-199l-149 148l-150 -148h-199l207 267h281zM1290 1413v-932q0 -231 -148 -366t-418 -135t-420 135q-148 135 -148 366v932h286v-956q0 -231 281 -231t281 231v956h286z" />
    <glyph glyph-name="Udieresis" unicode="&#xdc;" horiz-adv-x="1445" 
d="M344 1577v246h287v-246h-287zM815 1577v246h287v-246h-287zM1290 1413v-932q0 -231 -148 -366t-418 -135t-420 135q-148 135 -148 366v932h286v-956q0 -231 281 -231t281 231v956h286z" />
    <glyph glyph-name="Yacute" unicode="&#xdd;" horiz-adv-x="1306" 
d="M627 1823h327l-229 -267h-229zM510 0v532l-477 881h325l308 -631l305 631h303l-477 -881v-532h-287z" />
    <glyph glyph-name="Thorn" unicode="&#xde;" horiz-adv-x="1308" 
d="M731 508q176 0 176 194t-176 193h-262v-387h262zM748 1157q184 0 314 -92q148 -105 148 -353q0 -247 -134 -357t-320 -109h-287v-246h-305v1407h305v-250h279z" />
    <glyph glyph-name="germandbls" unicode="&#xdf;" horiz-adv-x="1165" 
d="M758 0h-158v233h158q45 1 89 25q83 46 84 177q1 132 -61 173t-196 41v234q90 0 119 43q29 42 29 112t-42 116q-41 46 -123 46t-133 -39t-51 -123v-1038h-276v1032q0 158 94 271q49 59 140 95t215 36t215 -34t140 -91q97 -113 97 -260q0 -109 -40 -179t-91 -96
q27 0 76 -26t81 -58t58 -102q27 -68 26 -156q0 -208 -118 -320t-332 -112z" />
    <glyph glyph-name="agrave" unicode="&#xe0;" horiz-adv-x="1114" 
d="M305 1413h328l131 -266h-229zM522 209q92 0 152 57q59 57 59 166v37l-117 -18q-231 -37 -231 -146q0 -96 137 -96zM580 1044q440 0 440 -421v-623h-244l-33 139q-98 -160 -303 -159q-137 0 -239 72q-103 72 -103 217q0 147 113 241t397 131l125 16v21q1 137 -151 137
t-164 -117h-287q16 121 109 233q93 113 340 113z" />
    <glyph glyph-name="aacute" unicode="&#xe1;" horiz-adv-x="1114" 
d="M561 1413h328l-230 -266h-229zM522 209q92 0 152 57q59 57 59 166v37l-117 -18q-231 -37 -231 -146q0 -96 137 -96zM580 1044q440 0 440 -421v-623h-244l-33 139q-98 -160 -303 -159q-137 0 -239 72q-103 72 -103 217q0 147 113 241t397 131l125 16v21q1 137 -151 137
t-164 -117h-287q16 121 109 233q93 113 340 113z" />
    <glyph glyph-name="acircumflex" unicode="&#xe2;" horiz-adv-x="1114" 
d="M696 1413l209 -266h-198l-150 147l-149 -147h-199l207 266h280zM522 209q92 0 152 57q59 57 59 166v37l-117 -18q-231 -37 -231 -146q0 -96 137 -96zM580 1044q440 0 440 -421v-623h-244l-33 139q-98 -160 -303 -159q-137 0 -239 72q-103 72 -103 217q0 147 113 241
t397 131l125 16v21q1 137 -151 137t-164 -117h-287q16 121 109 233q93 113 340 113z" />
    <glyph glyph-name="atilde" unicode="&#xe3;" horiz-adv-x="1114" 
d="M692 1147q-63 0 -142 42t-117 42t-57 -25t-20 -59h-176q0 186 102 238q52 28 126 28t152 -43t114 -43q35 0 55 25t21 61h176q-1 -266 -234 -266zM522 209q92 0 152 57q59 57 59 166v37l-117 -18q-231 -37 -231 -146q0 -96 137 -96zM580 1044q440 0 440 -421v-623h-244
l-33 139q-98 -160 -303 -159q-137 0 -239 72q-103 72 -103 217q0 147 113 241t397 131l125 16v21q1 137 -151 137t-164 -117h-287q16 121 109 233q93 113 340 113z" />
    <glyph glyph-name="adieresis" unicode="&#xe4;" horiz-adv-x="1114" 
d="M180 1167v246h287v-246h-287zM651 1167v246h287v-246h-287zM522 209q92 0 152 57q59 57 59 166v37l-117 -18q-231 -37 -231 -146q0 -96 137 -96zM580 1044q440 0 440 -421v-623h-244l-33 139q-98 -160 -303 -159q-137 0 -239 72q-103 72 -103 217q0 147 113 241t397 131
l125 16v21q1 137 -151 137t-164 -117h-287q16 121 109 233q93 113 340 113z" />
    <glyph glyph-name="aring" unicode="&#xe5;" horiz-adv-x="1114" 
d="M555 1710q115 0 196 -81t81 -195t-82 -196q-80 -81 -194 -81t-195 81t-80 196q-1 116 79 196t195 80zM556 1335q40 0 70 29t29 70q1 42 -29 70t-71 28t-70 -29t-29 -69t30 -70q30 -29 70 -29zM522 209q92 0 152 57q59 57 59 166v37l-117 -18q-231 -37 -231 -146
q0 -96 137 -96zM580 1044q440 0 440 -421v-623h-244l-33 139q-98 -160 -303 -159q-137 0 -239 72q-103 72 -103 217q0 147 113 241t397 131l125 16v21q1 137 -151 137t-164 -117h-287q16 121 109 233q93 113 340 113z" />
    <glyph glyph-name="ae" unicode="&#xe6;" horiz-adv-x="1869" 
d="M1284 815q-158 0 -211 -180h424q-10 84 -66 132q-57 48 -147 48zM502 209q96 0 155 57t60 166v37l-117 -18q-231 -37 -231 -146q0 -96 133 -96zM82 269q0 147 113 241t397 131l125 16v21q1 137 -151 137t-165 -117h-286q16 123 100 225q103 123 343 122q239 -1 357 -164
q145 163 365 163t364 -137t144 -389v-74h-727q8 -102 66 -169t165 -66q138 -1 189 108h297q-102 -338 -471 -337q-192 0 -318 90q-76 54 -108 141q-53 -90 -170 -161q-117 -70 -272 -70t-256 70t-101 219z" />
    <glyph glyph-name="ccedilla" unicode="&#xe7;" horiz-adv-x="1148" 
d="M604 799q-103 0 -165 -76t-62 -213q1 -137 65 -211t161 -74t148 28q50 28 64 107h293q-23 -158 -128 -262t-310 -116l-35 -62q186 0 186 -162q0 -66 -52 -116q-53 -50 -159 -52q-106 0 -204 41v127q94 -45 164 -45t69 47q0 61 -98 62q-43 0 -86 -6l84 168
q-215 20 -336 161t-121 375t142 379t378 145t359 -117q121 -118 135 -282h-291q-10 59 -54 107t-147 47z" />
    <glyph glyph-name="egrave" unicode="&#xe8;" horiz-adv-x="1189" 
d="M330 1413h327l131 -266h-229zM604 815q-160 0 -211 -180h424q-10 84 -66 132q-57 48 -147 48zM621 -20q-244 0 -392 139q-147 139 -147 390t147 393t369 142t366 -137t144 -389v-74h-727q6 -102 65 -169t170 -66q134 -1 185 108h297q-64 -203 -211 -274
q-126 -63 -266 -63z" />
    <glyph glyph-name="eacute" unicode="&#xe9;" horiz-adv-x="1189" 
d="M567 1413h328l-229 -266h-230zM604 815q-160 0 -211 -180h424q-10 84 -66 132q-57 48 -147 48zM621 -20q-244 0 -392 139q-147 139 -147 390t147 393t369 142t366 -137t144 -389v-74h-727q6 -102 65 -169t170 -66q134 -1 185 108h297q-64 -203 -211 -274
q-126 -63 -266 -63z" />
    <glyph glyph-name="ecircumflex" unicode="&#xea;" horiz-adv-x="1189" 
d="M733 1413l209 -266h-199l-149 147l-150 -147h-198l207 266h280zM604 815q-160 0 -211 -180h424q-10 84 -66 132q-57 48 -147 48zM621 -20q-244 0 -392 139q-147 139 -147 390t147 393t369 142t366 -137t144 -389v-74h-727q6 -102 65 -169t170 -66q134 -1 185 108h297
q-64 -203 -211 -274q-126 -63 -266 -63z" />
    <glyph glyph-name="edieresis" unicode="&#xeb;" horiz-adv-x="1189" 
d="M217 1167v246h287v-246h-287zM688 1167v246h287v-246h-287zM604 815q-160 0 -211 -180h424q-10 84 -66 132q-57 48 -147 48zM621 -20q-244 0 -392 139q-147 139 -147 390t147 393t369 142t366 -137t144 -389v-74h-727q6 -102 65 -169t170 -66q134 -1 185 108h297
q-64 -203 -211 -274q-126 -63 -266 -63z" />
    <glyph glyph-name="igrave" unicode="&#xec;" horiz-adv-x="548" 
d="M-43 1413h328l131 -266h-230zM418 0h-287v1024h287v-1024z" />
    <glyph glyph-name="iacute" unicode="&#xed;" horiz-adv-x="550" 
d="M242 1413h327l-229 -266h-229zM418 0h-287v1024h287v-1024z" />
    <glyph glyph-name="icircumflex" unicode="&#xee;" horiz-adv-x="548" 
d="M414 1413l209 -266h-199l-150 147l-149 -147h-199l207 266h281zM418 0h-287v1024h287v-1024z" />
    <glyph glyph-name="idieresis" unicode="&#xef;" horiz-adv-x="548" 
d="M-104 1167v246h286v-246h-286zM367 1167v246h286v-246h-286zM418 0h-287v1024h287v-1024z" />
    <glyph glyph-name="eth" unicode="&#xf0;" horiz-adv-x="1241" 
d="M608 197q119 0 184 84t64 231q0 51 -10 106q-47 209 -238 209q-120 0 -184 -85t-64 -231t64 -230t184 -84zM1159 704q0 -146 -13 -238q-49 -342 -307 -451q-99 -42 -231 -42q-236 1 -381 143t-145 396t136 387t339 133q82 0 171 -31t138 -102q-78 258 -299 336l-78 -166
l-153 74l59 129q-59 8 -143 8l33 250q119 0 223 -19l67 146l154 -74l-53 -117q168 -61 278 -184q110 -124 158 -278q47 -154 47 -300z" />
    <glyph glyph-name="ntilde" unicode="&#xf1;" horiz-adv-x="1216" 
d="M772 1147q-63 0 -142 42t-117 42t-57 -25t-20 -59h-176q0 186 101 238q53 28 127 28t152 -43t114 -43q35 0 55 25t20 61h177q-1 -266 -234 -266zM770 1044q180 0 256 -112t76 -320v-612h-287v582q0 217 -156 217q-106 0 -174 -82t-67 -244v-473h-287v1024h242l35 -164
q135 184 362 184z" />
    <glyph glyph-name="ograve" unicode="&#xf2;" horiz-adv-x="1236" 
d="M354 1413h328l131 -266h-229zM626 1044q248 0 388 -138t141 -395q0 -257 -140 -394q-141 -137 -389 -137t-396 139t-148 391t148 393t396 141zM618 799q-242 0 -242 -287t242 -287t242 287t-242 287z" />
    <glyph glyph-name="oacute" unicode="&#xf3;" horiz-adv-x="1236" 
d="M582 1413h327l-229 -266h-229zM626 1044q248 0 388 -138t141 -395q0 -257 -140 -394q-141 -137 -389 -137t-396 139t-148 391t148 393t396 141zM618 799q-242 0 -242 -287t242 -287t242 287t-242 287z" />
    <glyph glyph-name="ocircumflex" unicode="&#xf4;" horiz-adv-x="1236" 
d="M758 1413l209 -266h-199l-150 147l-149 -147h-199l207 266h281zM626 1044q248 0 388 -138t141 -395q0 -257 -140 -394q-141 -137 -389 -137t-396 139t-148 391t148 393t396 141zM618 799q-242 0 -242 -287t242 -287t242 287t-242 287z" />
    <glyph glyph-name="otilde" unicode="&#xf5;" horiz-adv-x="1236" 
d="M756 1147q-62 0 -142 42t-118 42t-56 -25q-20 -25 -20 -59h-176q0 187 101 238q52 28 126 28t153 -43q80 -43 114 -43t55 25q20 25 20 61h176q0 -266 -233 -266zM626 1044q248 0 388 -138t141 -395q0 -257 -140 -394q-141 -137 -389 -137t-396 139t-148 391t148 393
t396 141zM618 799q-242 0 -242 -287t242 -287t242 287t-242 287z" />
    <glyph glyph-name="odieresis" unicode="&#xf6;" horiz-adv-x="1236" 
d="M236 1167v246h286v-246h-286zM707 1167v246h286v-246h-286zM626 1044q248 0 388 -138t141 -395q0 -257 -140 -394q-141 -137 -389 -137t-396 139t-148 391t148 393t396 141zM618 799q-242 0 -242 -287t242 -287t242 287t-242 287z" />
    <glyph glyph-name="divide" unicode="&#xf7;" horiz-adv-x="1198" 
d="M1092 836v-261h-891v261h891zM510 143v281h281v-281h-281zM510 987v281h283v-281h-283z" />
    <glyph glyph-name="oslash" unicode="&#xf8;" horiz-adv-x="1236" 
d="M618 799q-242 0 -241 -291q0 -84 20 -146l299 426q-33 11 -78 11zM860 518q0 98 -37 168l-309 -446q39 -14 116 -15t153 52q77 51 77 241zM618 1044q131 0 230 -36l92 131l133 -95l-82 -116q164 -138 164 -406t-140 -405t-397 -137q-133 0 -251 49l-88 -125l-134 96
l84 121q-147 137 -147 389t148 393t388 141z" />
    <glyph glyph-name="ugrave" unicode="&#xf9;" horiz-adv-x="1198" 
d="M270 1413h328l131 -266h-229zM436 -20q-322 0 -321 428v616h286v-575q0 -223 150 -224q102 0 166 86q63 86 63 240v473h287v-1024h-242l-34 164q-130 -184 -355 -184z" />
    <glyph glyph-name="uacute" unicode="&#xfa;" horiz-adv-x="1198" 
d="M578 1413h327l-229 -266h-230zM436 -20q-322 0 -321 428v616h286v-575q0 -223 150 -224q102 0 166 86q63 86 63 240v473h287v-1024h-242l-34 164q-130 -184 -355 -184z" />
    <glyph glyph-name="ucircumflex" unicode="&#xfb;" horiz-adv-x="1198" 
d="M721 1413l209 -266h-199l-149 147l-150 -147h-199l207 266h281zM436 -20q-322 0 -321 428v616h286v-575q0 -223 150 -224q102 0 166 86q63 86 63 240v473h287v-1024h-242l-34 164q-130 -184 -355 -184z" />
    <glyph glyph-name="udieresis" unicode="&#xfc;" horiz-adv-x="1198" 
d="M209 1167v246h287v-246h-287zM680 1167v246h287v-246h-287zM436 -20q-322 0 -321 428v616h286v-575q0 -223 150 -224q102 0 166 86q63 86 63 240v473h287v-1024h-242l-34 164q-130 -184 -355 -184z" />
    <glyph glyph-name="yacute" unicode="&#xfd;" horiz-adv-x="1095" 
d="M504 1413h327l-229 -266h-229zM291 -410h-144v246h93q78 0 112 31t66 125l20 61l-413 971h303l241 -666l230 666h272l-455 -1231q-81 -203 -325 -203z" />
    <glyph glyph-name="thorn" unicode="&#xfe;" horiz-adv-x="1261" 
d="M643 225q219 0 219 287t-219 287q-109 0 -167 -74t-58 -213t58 -213t167 -74zM131 1413h287v-524q104 155 303 155t317 -141t119 -398q0 -257 -118 -391q-119 -134 -321 -134t-308 155v-524h-279v1802z" />
    <glyph glyph-name="ydieresis" unicode="&#xff;" horiz-adv-x="1095" 
d="M195 1167v246h286v-246h-286zM666 1167v246h286v-246h-286zM291 -410h-144v246h93q78 0 112 31t66 125l20 61l-413 971h303l241 -666l230 666h272l-455 -1231q-81 -203 -325 -203z" />
    <glyph glyph-name="dotlessi" unicode="&#x131;" horiz-adv-x="458" 
d="M369 0h-279v1024h279v-1024z" />
    <glyph glyph-name="Lslash" unicode="&#x141;" horiz-adv-x="1150" 
d="M451 246h651v-246h-938v496l-164 -101v314l164 100v598h287v-418l358 223v-313l-358 -223v-430z" />
    <glyph glyph-name="lslash" unicode="&#x142;" horiz-adv-x="647" 
d="M461 -12q-131 0 -231 81q-99 81 -99 218v276l-131 -78v263l131 79v607h287v-428l164 104v-264l-164 -103v-397q0 -53 39 -83t92 -30l33 3v-236q-62 -12 -121 -12z" />
    <glyph glyph-name="OE" unicode="&#x152;" horiz-adv-x="2256" 
d="M792 225q192 0 294 122q102 123 102 363t-108 359t-298 119t-289 -126t-99 -363t102 -355q104 -118 296 -119zM2175 1413v-246h-694v-317h573v-246h-573v-358h694v-246h-981v106q-174 -127 -403 -126q-315 0 -504 189t-189 535t188 538t505 192q233 0 403 -129v108h981z
" />
    <glyph glyph-name="oe" unicode="&#x153;" horiz-adv-x="1986" 
d="M1384 815q-164 0 -213 -180h424q-10 84 -66 132q-57 48 -145 48zM614 799q-125 0 -181 -81t-56 -212q-1 -281 241 -281t242 283q0 127 -60 209q-61 82 -186 82zM612 -20q-236 0 -383 140t-147 392t147 392t383 140q270 0 400 -176q139 176 381 176q205 0 349 -134
t144 -388v-78h-727q5 -102 65 -169t167 -66q137 -1 188 108h297q-31 -102 -89 -173q-58 -70 -129 -104q-126 -60 -255 -60t-231 49t-162 125q-52 -72 -152 -123t-246 -51z" />
    <glyph glyph-name="Scaron" unicode="&#x160;" horiz-adv-x="1337" 
d="M520 1577l-207 266h199l150 -147l149 147h199l-209 -266h-281zM664 1198q-231 0 -232 -154q0 -72 56 -111q56 -38 129 -57q73 -18 135 -32t104 -25q170 -47 274 -139t105 -268q0 -213 -158 -323q-158 -109 -424 -109t-401 128t-150 338h295q20 -231 279 -231
q120 0 192 47t72 132t-54 128q-54 42 -125 60t-162 38q-195 42 -316 116q-146 91 -146 285q0 195 134 304q135 109 407 109t385 -122t125 -288h-295q-8 84 -58 129t-171 45z" />
    <glyph glyph-name="scaron" unicode="&#x161;" horiz-adv-x="1054" 
d="M381 1167l-207 267h199l149 -148l150 148h198l-208 -267h-281zM532 1044q196 0 309 -95q112 -95 126 -251h-285q-16 117 -148 117t-133 -88q-1 -41 23 -57q50 -34 129 -45t123 -19q145 -28 231 -92t86 -220t-126 -236q-126 -79 -324 -78q-418 0 -461 344h287
q12 -61 55 -88t131 -27q143 0 143 84q0 66 -75 90q-49 16 -131 26q-82 11 -111 17q-274 57 -275 297q0 157 115 239t311 82z" />
    <glyph glyph-name="Ydieresis" unicode="&#x178;" horiz-adv-x="1306" 
d="M303 1577v246h287v-246h-287zM774 1577v246h287v-246h-287zM510 0v532l-477 881h325l308 -631l305 631h303l-477 -881v-532h-287z" />
    <glyph glyph-name="Zcaron" unicode="&#x17d;" horiz-adv-x="1255" 
d="M526 1577l-207 266h199l150 -147l149 147h199l-209 -266h-281zM1190 1413v-246l-787 -921h787v-246h-1124v246l778 921h-756v246h1102z" />
    <glyph glyph-name="zcaron" unicode="&#x17e;" horiz-adv-x="1013" 
d="M403 1167l-206 267h198l150 -148l149 148h199l-209 -267h-281zM944 1024v-246l-528 -532h549v-246h-916v246l529 532h-508v246h874z" />
    <glyph glyph-name="florin" unicode="&#x192;" horiz-adv-x="1198" 
d="M238 -184q44 0 89 28q44 29 52 80l149 850h-145l39 223h145q27 162 54 220q45 96 141 149t192 54t156 -27l-37 -211q-27 16 -69 16t-88 -29q-44 -29 -54 -79l-18 -93h196l-39 -223h-194q-27 -147 -79 -444q-52 -298 -70 -394t-37 -139q-45 -96 -141 -149
q-96 -52 -194 -54q-96 -2 -155 27l37 211q26 -16 70 -16z" />
    <glyph glyph-name="circumflex" unicode="&#x2c6;" horiz-adv-x="1146" 
d="M713 1413l209 -266h-199l-150 147l-149 -147h-199l207 266h281z" />
    <glyph glyph-name="caron" unicode="&#x2c7;" horiz-adv-x="1146" 
d="M432 1167l-207 267h199l149 -148l150 148h199l-209 -267h-281z" />
    <glyph glyph-name="breve" unicode="&#x2d8;" horiz-adv-x="983" 
d="M492 1333q42 0 70 24t28 56h147q1 -86 -65 -157q-66 -70 -180 -70t-181 70q-66 70 -65 157h145q0 -33 30 -57t71 -23z" />
    <glyph glyph-name="dotaccent" unicode="&#x2d9;" horiz-adv-x="487" 
d="M90 1188v246h307v-246h-307z" />
    <glyph glyph-name="ring" unicode="&#x2da;" horiz-adv-x="919" 
d="M459 1710q115 0 195 -81t81 -195q0 -114 -81 -196q-80 -81 -194 -81t-195 81t-81 196q0 116 80 196t195 80zM459 1335q41 0 71 29t29 70q0 42 -30 70q-31 28 -71 28t-69 -29t-29 -69t29 -70q29 -29 70 -29z" />
    <glyph glyph-name="ogonek" unicode="&#x2db;" horiz-adv-x="921" 
d="M389 -205q0 -63 36 -93t74 -30q39 0 71 16t46 33l15 15l45 -55q-25 -51 -128 -80q-36 -10 -77 -11q-105 0 -165 56t-60 139q0 178 225 215h123q-205 -51 -205 -205z" />
    <glyph glyph-name="tilde" unicode="&#x2dc;" horiz-adv-x="1032" 
d="M655 1147q-63 0 -142 42t-117 42t-57 -25t-20 -59h-176q0 186 102 238q52 28 126 28q75 0 153 -43t113 -43t55 25t21 61h176q-1 -266 -234 -266z" />
    <glyph glyph-name="hungarumlaut" unicode="&#x2dd;" horiz-adv-x="1175" 
 />
    <glyph glyph-name="pi" unicode="&#x3c0;" horiz-adv-x="1028" 
d="M1114 1055v-230h-166v-825h-278v825h-207v-825h-279v825h-161v230h1091z" />
    <glyph glyph-name="endash" unicode="&#x2013;" horiz-adv-x="1138" 
d="M82 502v280h975v-280h-975z" />
    <glyph glyph-name="emdash" unicode="&#x2014;" horiz-adv-x="2144" 
d="M82 502v280h1980v-280h-1980z" />
    <glyph glyph-name="quoteleft" unicode="&#x2018;" horiz-adv-x="522" 
d="M92 819v287q18 96 88 178t156 129h104q-12 -8 -43 -44q-100 -116 -100 -243v-20h90v-287h-295z" />
    <glyph glyph-name="quoteright" unicode="&#x2019;" horiz-adv-x="561" 
d="M438 1413v-287q-18 -96 -88 -178t-155 -129h-105q9 6 41 43q102 115 102 244v20h-90v287h295z" />
    <glyph glyph-name="quotesinglbase" unicode="&#x201a;" horiz-adv-x="561" 
d="M438 287v-287q-18 -96 -88 -178t-155 -129h-105q12 8 43 44q100 116 100 243v20h-90v287h295z" />
    <glyph glyph-name="quotedblleft" unicode="&#x201c;" horiz-adv-x="972" 
d="M543 819v287q18 96 88 178t155 129h105q-12 -8 -43 -44q-100 -116 -100 -243v-20h90v-287h-295zM92 819v287q18 96 88 178t156 129h104q-12 -8 -43 -44q-100 -116 -100 -243v-20h90v-287h-295z" />
    <glyph glyph-name="quotedblright" unicode="&#x201d;" horiz-adv-x="991" 
d="M868 1413v-287q-18 -96 -88 -178t-155 -129h-105q12 8 43 44q98 114 101 243v20h-91v287h295zM438 1413v-287q-18 -96 -88 -178t-155 -129h-105q9 6 41 43q102 115 102 244v20h-90v287h295z" />
    <glyph glyph-name="quotedblbase" unicode="&#x201e;" horiz-adv-x="991" 
d="M868 287v-287q-18 -96 -88 -178t-155 -129h-105q15 10 45 45q97 115 99 242v20h-91v287h295zM438 287v-287q-18 -96 -88 -178t-155 -129h-105q12 8 43 44q100 116 100 243v20h-90v287h295z" />
    <glyph glyph-name="dagger" unicode="&#x2020;" horiz-adv-x="1030" 
d="M965 1051v-224h-310v-1058h-278v1058h-311v224h311v356h278v-356h310z" />
    <glyph glyph-name="daggerdbl" unicode="&#x2021;" horiz-adv-x="1189" 
d="M1071 1055v-224h-309v-481h309v-223h-309v-358h-279v358h-311v223h311v481h-311v224h311v352h279v-352h309z" />
    <glyph glyph-name="bullet" unicode="&#x2022;" horiz-adv-x="802" 
d="M672 514q0 -114 -79 -192t-192 -78t-191 79t-79 191q0 112 79 192q80 78 192 78t191 -78t79 -192z" />
    <glyph glyph-name="perthousand" unicode="&#x2030;" horiz-adv-x="2566" 
d="M2185 827q338 0 338 -424t-338 -423q-338 0 -338 424t338 423zM2185 651q-67 0 -97 -52q-30 -51 -30 -195t31 -196t97 -52t96 52t30 195t-30 195t-97 53zM1384 827q338 0 338 -424t-338 -423q-338 0 -338 424t338 423zM1384 651q-66 0 -96 -52q-30 -51 -31 -195
q0 -144 31 -196q30 -52 96 -52t97 52t30 195q0 143 -30 196q-31 52 -97 52zM381 1393q338 0 338 -424t-338 -424t-338 424t338 424zM381 1217q-67 -1 -97 -53t-30 -195t31 -195t97 -53q66 0 96 52q30 51 30 195t-30 196t-97 53zM1260 1495l141 -82l-860 -1495l-142 82z" />
    <glyph glyph-name="guilsinglleft" unicode="&#x2039;" horiz-adv-x="798" 
d="M696 965l-323 -449l323 -455h-272l-322 455l322 449h272z" />
    <glyph glyph-name="guilsinglright" unicode="&#x203a;" horiz-adv-x="798" 
d="M426 516l-324 449h273l321 -449l-321 -455h-273z" />
    <glyph glyph-name="fraction" unicode="&#x2044;" horiz-adv-x="137" 
d="M428 1495l141 -82l-860 -1495l-141 82z" />
    <glyph glyph-name="Euro" unicode="&#x20ac;" horiz-adv-x="1198" 
d="M27 451v170h774l-92 -168h-197q70 -207 264 -207t275 157l217 -202q-86 -113 -198 -168t-308 -55t-350 124q-154 125 -211 349h-174zM27 750v170h168q47 248 197 380t392 134q332 0 486 -240l-221 -190q-74 162 -265 161q-223 0 -282 -245h467l-95 -170h-847z" />
    <glyph glyph-name="trademark" unicode="&#x2122;" horiz-adv-x="1673" 
d="M1581 1407v-789h-158v605l-178 -605h-164l-184 605v-605h-160v789h252l174 -594l176 594h242zM66 1407h598v-147h-213v-642h-170v642h-215v147z" />
    <glyph glyph-name="Omega" unicode="&#x2126;" horiz-adv-x="1513" 
d="M1491 756q0 -338 -301 -527h246v-229h-518v233q295 172 294 523q0 212 -112 330t-296 118q-183 0 -297 -118t-114 -330q0 -350 295 -523v-233h-518v229h246q-301 188 -301 527q0 307 189 492q190 186 498 186t498 -184t191 -494z" />
    <glyph glyph-name="arrowleft" unicode="&#x2190;" horiz-adv-x="1505" 
d="M1456 827v-260h-887l424 -407h-405l-539 538l539 539h405l-424 -410h887z" />
    <glyph glyph-name="arrowup" unicode="&#x2191;" horiz-adv-x="1505" 
d="M881 0h-260v887l-408 -424v405l539 539l538 -539v-405l-409 424v-887z" />
    <glyph glyph-name="arrowright" unicode="&#x2192;" horiz-adv-x="1505" 
d="M49 567v260h887l-424 410h406l538 -539l-538 -538h-406l424 407h-887z" />
    <glyph glyph-name="arrowdown" unicode="&#x2193;" horiz-adv-x="1505" 
d="M623 1407h260v-887l407 424v-405l-538 -539l-539 539v405l410 -424v887z" />
    <glyph glyph-name="arrowboth" unicode="&#x2194;" horiz-adv-x="2545" 
d="M1976 827l-424 408h406l539 -539l-539 -538h-406l424 409h-1407l424 -407h-405l-539 538l539 539h405l-424 -410h1407z" />
    <glyph glyph-name="arrowrightdown" unicode="&#x21b4;" horiz-adv-x="1505" 
d="M1294 172h-762l-286 287l590 -10l-627 624l182 187l617 -629v590l286 -287v-762z" />
    <glyph glyph-name="partialdiff" unicode="&#x2202;" horiz-adv-x="1210" 
d="M600 920q150 0 250 -67q102 -67 117 -196q33 171 0 329q-17 85 -81 138q-64 54 -152 54q-167 1 -175 -152l-287 49q12 173 117 265t281 94q334 0 466 -207t81 -561q-35 -243 -116 -414q-136 -279 -453 -279q-234 0 -380 130q-72 65 -102 173t-8 244q29 184 160 292
q132 108 282 108zM679 662q-97 0 -159 -50t-78 -156q-16 -104 43 -168t151 -65q92 0 152 51q62 52 76 142t-37 168t-148 78z" />
    <glyph glyph-name="Delta" unicode="&#x2206;" horiz-adv-x="1265" 
d="M745 1174l-417 -938h825zM1409 0h-1337v236l542 1177h265l530 -1177v-236z" />
    <glyph glyph-name="product" unicode="&#x220f;" horiz-adv-x="1308" 
d="M1456 1407v-270h-215v-1137h-305v1137h-356v-1137h-306v1137h-215v270h1397z" />
    <glyph glyph-name="summation" unicode="&#x2211;" horiz-adv-x="1026" 
d="M1016 1407v-268h-553l518 -543l-518 -543h553v-268h-965v250l533 561l-533 559v252h965z" />
    <glyph glyph-name="minus" unicode="&#x2212;" horiz-adv-x="1275" 
d="M1087 825v-245h-915v245h915z" />
    <glyph glyph-name="radical" unicode="&#x221a;" horiz-adv-x="1198" 
d="M61 614v232h412l193 -537l323 1127h240l-434 -1436h-232l-248 614h-254z" />
    <glyph glyph-name="infinity" unicode="&#x221e;" horiz-adv-x="1433" 
d="M977 1073q90 0 158 -33q67 -33 103 -89q68 -108 70 -261q1 -154 -79 -264t-243 -111q-163 0 -251 140q-88 -139 -241 -140q-88 0 -156 33t-105 89q-71 107 -71 257t71 257q37 56 105 89t156 33q154 0 241 -139q88 139 242 139zM506 594q68 0 96 26t33 74q-8 46 -31 73
q-23 26 -98 28q-115 -1 -115 -101t115 -100zM965 594q115 0 114 100q0 100 -114 101q-68 0 -96 -26t-33 -75q8 -46 24 -65q31 -35 105 -35z" />
    <glyph glyph-name="integral" unicode="&#x222b;" horiz-adv-x="534" 
d="M500 1075v-1184q0 -167 -147 -245q-81 -43 -171 -44t-155 27v211q29 -16 73 -16t83 29q38 29 38 79v1184q0 168 147 246q81 43 171 44t155 -28v-211q-30 17 -74 17t-82 -29t-38 -80z" />
    <glyph glyph-name="approxequal" unicode="&#x2248;" horiz-adv-x="874" 
d="M596 410q78 0 80 84h176q0 -264 -234 -265q-63 0 -142 41t-114 41q-79 0 -79 -82h-177q0 136 54 200t180 65q68 0 146 -42t110 -42zM359 639q-38 0 -57 -24t-19 -58h-177q0 136 55 200t179 64q68 0 146 -42t114 -42q35 0 55 24t21 60h176q0 -264 -234 -264q-63 0 -142 41
t-117 41z" />
    <glyph glyph-name="notequal" unicode="&#x2260;" horiz-adv-x="1198" 
d="M221 739v232h477l82 141h252l-82 -141h97v-232h-230l-100 -174h330v-231h-465l-99 -170h-256l101 170h-107v231h242l100 174h-342z" />
    <glyph glyph-name="lessequal" unicode="&#x2264;" horiz-adv-x="1198" 
d="M1106 258v-258h-944v258h944zM1106 455l-944 387v178l944 387v-264l-668 -213l668 -211v-264z" />
    <glyph glyph-name="greaterequal" unicode="&#x2265;" horiz-adv-x="1198" 
d="M1085 842l-944 -387v264l668 211l-668 213v264l944 -387v-178zM1085 258v-258h-944v258h944z" />
    <glyph glyph-name="lozenge" unicode="&#x25ca;" horiz-adv-x="1368" 
d="M963 707l-256 460l-267 -467l256 -462zM557 0l-430 700l442 707h277l430 -700l-442 -707h-277z" />
    <glyph glyph-name="CR" horiz-adv-x="1337" 
 />
    <glyph glyph-name="l.ss06" horiz-adv-x="548" 
d="M418 1434v-1434h-287v1434h287z" />
    <glyph glyph-name="y.ss02" horiz-adv-x="1292" 
d="M1161 1024l-526 -1413h-270l165 442l-415 971h303l241 -666l230 666h272z" />
    <glyph glyph-name="g.ss03" horiz-adv-x="1226" 
d="M588 799q-117 0 -170 -74t-53 -197q0 -262 225 -262q113 0 166 74t53 188t-52 192q-52 79 -169 79zM1096 1024v-954q0 -479 -486 -480q-436 0 -495 347h286q25 -137 207 -138q100 1 150 55t51 140v184q-94 -158 -297 -158t-323 138q-119 138 -119 382t114 374t320 130
q207 0 315 -159l33 139h244z" />
    <glyph glyph-name="G.ss04" horiz-adv-x="1566" 
d="M799 225q328 0 356 271h-346v245h643v-84q0 -337 -178 -507t-484 -170t-499 188t-193 534t193 539t508 193q252 0 426 -119t215 -373h-295q-25 131 -108 188t-238 58q-195 0 -300 -124t-105 -361t104 -357q106 -120 301 -121z" />
    <glyph glyph-name="ydieresis.neogrotesk" horiz-adv-x="1107" 
d="M199 1167v246h286v-246h-286zM670 1167v246h286v-246h-286zM1077 1024l-526 -1413h-270l165 442l-415 971h303l241 -666l230 666h272z" />
    <glyph glyph-name="ampersand.ss05" horiz-adv-x="1392" 
d="M741 1063q0 135 -114 135q-53 0 -88 -35t-35 -107t69 -163q49 6 109 49q59 43 59 121zM633 205q92 0 182 45l-313 354q-139 -49 -140 -188q1 -211 271 -211zM1038 1064q0 -114 -76 -210t-225 -143l248 -273q23 68 23 158h297q-7 -78 -44 -185q-37 -106 -90 -182l205 -229
h-344l-51 57q-133 -78 -348 -77q-567 0 -567 436q0 150 64 242t196 153q-119 106 -119 283q1 140 113 240t286 100t293 -74q139 -86 139 -296z" />
    <glyph glyph-name="a.ss01" horiz-adv-x="1239" 
d="M594 225q104 0 166 72q61 72 61 213q0 74 -15 132q-14 58 -68 108t-140 49q-221 0 -221 -287t217 -287zM1108 1024v-1024h-244l-33 139q-102 -160 -325 -159q-192 0 -308 130t-116 390t119 402t321 142t301 -157l39 137h246z" />
    <glyph glyph-name="yacute.neogrotesk" horiz-adv-x="1107" 
d="M508 1413h328l-230 -266h-229zM291 -410h-144v246h93q78 0 112 31t66 125l20 61l-413 971h303l241 -666l230 666h272l-455 -1231q-81 -203 -325 -203z" />
    <glyph glyph-name="fl.ss06" horiz-adv-x="1253" 
d="M475 1087v-63h361v410h286v-1434h-286v778h-361v-778h-287v778h-155v246h155v82q0 166 102 253t261 87q55 0 121 -10v-246q-57 10 -97 10t-70 -24t-30 -89z" />
    <glyph glyph-name="ffl.ss06" horiz-adv-x="1982" 
d="M475 1087v-63h399v82q0 166 102 253t261 87q55 0 121 -10v-246q-57 10 -97 10t-70 -24t-30 -89v-63h404v389h286v-1413h-286v778h-404v-778h-287v778h-399v-778h-287v778h-155v246h155v82q0 166 102 253t261 87q55 0 121 -10v-246q-57 10 -97 10t-70 -24t-30 -89z" />
    <glyph glyph-name="arrowleftup" horiz-adv-x="1505" 
d="M209 1192h762l286 -287l-589 10l626 -624l-182 -187l-616 629v-590l-287 287v762z" />
    <glyph glyph-name="arrowrightup" horiz-adv-x="1505" 
d="M1294 1214v-761l-286 -287l10 590l-625 -627l-186 182l629 617h-590l286 286h762z" />
    <glyph glyph-name="arrowleftdown" horiz-adv-x="1505" 
d="M209 154v761l287 287l-11 -590l627 627l184 -182l-628 -617h589l-286 -286h-762z" />
    <glyph glyph-name="agrave.ss01" horiz-adv-x="1239" 
d="M270 1413h328l131 -266h-229zM594 225q104 0 166 72q61 72 61 213q0 74 -15 132q-14 58 -68 108t-140 49q-221 0 -221 -287t217 -287zM1108 1024v-1024h-244l-33 139q-102 -160 -325 -159q-192 0 -308 130t-116 390t119 402t321 142t301 -157l39 137h246z" />
    <glyph glyph-name="aacute.ss01" horiz-adv-x="1239" 
d="M575 1413h328l-229 -266h-230zM594 225q104 0 166 72q61 72 61 213q0 74 -15 132q-14 58 -68 108t-140 49q-221 0 -221 -287t217 -287zM1108 1024v-1024h-244l-33 139q-102 -160 -325 -159q-192 0 -308 130t-116 390t119 402t321 142t301 -157l39 137h246z" />
    <glyph glyph-name="acircumflex.ss01" horiz-adv-x="1239" 
d="M760 1413l209 -266h-199l-149 147l-150 -147h-199l207 266h281zM594 225q104 0 166 72q61 72 61 213q0 74 -15 132q-14 58 -68 108t-140 49q-221 0 -221 -287t217 -287zM1108 1024v-1024h-244l-33 139q-102 -160 -325 -159q-192 0 -308 130t-116 390t119 402t321 142
t301 -157l39 137h246z" />
    <glyph glyph-name="atilde.ss01" horiz-adv-x="1239" 
d="M745 1147q-63 0 -142 42t-117 42t-57 -25t-19 -59h-177q0 186 102 238q52 28 126 28q75 0 153 -43t113 -43t55 25t21 61h176q-1 -266 -234 -266zM594 225q104 0 166 72q61 72 61 213q0 74 -15 132q-14 58 -68 108t-140 49q-221 0 -221 -287t217 -287zM1108 1024v-1024
h-244l-33 139q-102 -160 -325 -159q-192 0 -308 130t-116 390t119 402t321 142t301 -157l39 137h246z" />
    <glyph glyph-name="adieresis.ss01" horiz-adv-x="1239" 
d="M244 1167v246h286v-246h-286zM715 1167v246h286v-246h-286zM594 225q104 0 166 72q61 72 61 213q0 74 -15 132q-14 58 -68 108t-140 49q-221 0 -221 -287t217 -287zM1108 1024v-1024h-244l-33 139q-102 -160 -325 -159q-192 0 -308 130t-116 390t119 402t321 142
t301 -157l39 137h246z" />
    <glyph glyph-name="aring.ss01" horiz-adv-x="1239" 
d="M602 1710q115 0 196 -81t81 -195t-81 -196q-81 -81 -195 -81q-115 0 -195 81t-80 196q0 116 80 196t194 80zM602 1335q41 0 71 29t29 70q0 42 -30 70t-70 28q-41 0 -70 -29q-28 -29 -28 -69t28 -70q28 -29 70 -29zM594 225q104 0 166 72q61 72 61 213q0 74 -15 132
q-14 58 -68 108t-140 49q-221 0 -221 -287t217 -287zM1108 1024v-1024h-244l-33 139q-102 -160 -325 -159q-192 0 -308 130t-116 390t119 402t321 142t301 -157l39 137h246z" />
    <glyph glyph-name="one.osf" horiz-adv-x="1064" 
d="M676 1147v-901h287v-246h-861v246h287v448h-266v244h90q176 0 176 209h287z" />
    <glyph glyph-name="two.osf" horiz-adv-x="1159" 
d="M586 1167q231 1 345 -111t113 -294q0 -371 -509 -516h522v-246h-975v266q425 137 553 246q68 57 91 106q24 49 24 113q0 190 -170 191q-92 0 -136 -56t-49 -135h-295q18 199 136 317t350 119z" />
    <glyph glyph-name="zero.osf" horiz-adv-x="1200" 
d="M600 1167q321 0 457 -272q71 -146 71 -341t-112 -374q-57 -90 -165 -145t-251 -55t-251 55t-165 145q-114 180 -113 375t72 340q82 168 248 235q92 37 209 37zM600 922q-233 0 -233 -348t233 -349q233 1 233 349t-233 348z" />
    <glyph glyph-name="three.osf" horiz-adv-x="1103" 
d="M125 1167h838v-245l-295 -291q127 0 246 -94q58 -47 96 -131t37 -193q1 -219 -141 -349t-353 -130t-361 114t-161 324h295q8 -98 69 -145t157 -47t147 58q52 58 53 157q0 190 -215 190h-181v246l246 291h-477v245z" />
    <glyph glyph-name="four.osf" horiz-adv-x="1220" 
d="M692 246v502l-307 -502h307zM979 -246h-287v246h-643v250l643 917h287v-921h209v-246h-209v-246z" />
    <glyph glyph-name="five.osf" horiz-adv-x="1153" 
d="M1008 1147v-246h-566l-45 -348q55 55 109 80t141 24q184 -1 309 -121t125 -338t-144 -341t-355 -123t-344 106t-146 320h295q4 -78 57 -129q52 -51 144 -51t145 60t53 159q0 233 -202 233q-66 0 -110 -31t-56 -61l-12 -33l-285 105l80 735h807z" />
    <glyph glyph-name="six.osf" horiz-adv-x="1230" 
d="M634 225q108 1 159 57t51 136q0 231 -217 231q-109 1 -167 -71t-59 -132q8 -102 66 -162q59 -60 167 -59zM690 874q319 0 413 -241q36 -92 36 -181q-1 -90 -15 -146t-51 -116t-92 -105q-55 -46 -147 -76q-92 -29 -226 -29t-242 53t-166 152q-108 184 -108 485
q0 300 112 501q58 105 166 163t257 59q217 -1 341 -103t136 -276h-287q-16 133 -190 133q-143 0 -197 -113t-53 -301q119 141 313 141z" />
    <glyph glyph-name="seven.osf" horiz-adv-x="1040" 
d="M958 1147v-246l-493 -1147h-289l502 1147h-658v246h938z" />
    <glyph glyph-name="eight.osf" horiz-adv-x="1236" 
d="M788 1002q0 74 -50 110t-121 35q-71 0 -119 -36q-48 -35 -49 -111t47 -113t120 -37t122 39t50 113zM618 225q98 0 165 50q67 49 67 143t-66 140t-166 46t-166 -46t-65 -139t67 -143t164 -51zM1083 1012q0 -86 -44 -163t-115 -120q221 -105 221 -315q-1 -210 -149 -322
t-385 -112t-378 112t-141 311q0 230 225 326q-163 91 -163 277t129 286t337 100t335 -102q128 -104 128 -278z" />
    <glyph glyph-name="nine.osf" horiz-adv-x="1224" 
d="M602 918q-106 0 -162 -52t-57 -150q0 -96 50 -157t157 -61t166 68t61 126q-12 104 -61 165q-48 61 -154 61zM524 272q-182 0 -307 112t-125 345q0 146 108 284q54 69 153 111t231 43q374 0 486 -297q61 -159 62 -438t-113 -477q-60 -105 -172 -163t-265 -58
q-207 0 -328 105t-133 280h291q6 -55 52 -95t122 -40q154 0 209 131q45 105 47 299q-55 -68 -128 -105t-190 -37z" />
    <glyph glyph-name="zero.tf" 
d="M614 1434q549 0 549 -727t-549 -727t-549 727t549 727zM614 1188q-82 0 -136 -40q-90 -66 -109 -266q-32 -296 31 -503q49 -154 215 -154t213 154q40 127 40 278q0 152 -8 225q-22 200 -109 266q-55 40 -137 40z" />
    <glyph glyph-name="zero.zero.tf" 
d="M868 676q0 74 -4 160l-463 -463q57 -147 213 -148q82 0 137 39q117 85 117 412zM608 1188q-160 0 -208 -157q-38 -122 -39 -270t4 -192l462 463q-59 156 -219 156zM614 1434q549 0 549 -727t-549 -727t-549 727t549 727z" />
    <glyph glyph-name="one.tf" 
d="M801 1413v-1167h368v-246h-1024v246h369v715h-266v243h90q176 0 176 209h287z" />
    <glyph glyph-name="two.tf" 
d="M606 1434q226 0 354 -117t128 -295t-132 -347q-131 -169 -450 -429h604v-246h-991v260q287 214 441 362t194 222q39 74 39 149q0 195 -179 195q-104 0 -142 -62t-44 -165h-295q10 225 128 349t345 124z" />
    <glyph glyph-name="three.tf" 
d="M211 1413h838v-246l-295 -290q129 0 246 -95q58 -47 96 -131t37 -192q1 -219 -141 -349t-353 -130t-361 114t-161 324h295q8 -98 69 -146t157 -47t147 59q52 58 53 156q0 190 -215 191h-181v246l240 290h-471v246z" />
    <glyph glyph-name="four.tf" 
d="M696 608v385l-307 -385h307zM983 0h-287v362h-643v250l643 801h287v-805h209v-246h-209v-362z" />
    <glyph glyph-name="five.tf" 
d="M1040 1413v-246h-565l-45 -360q104 109 271 109t290 -118t123 -339t-144 -350t-354 -129t-346 108q-135 108 -145 326h295q4 -80 60 -134t146 -54t142 62q51 62 51 166t-52 159q-52 57 -131 57t-125 -28t-60 -54l-13 -27l-284 105l79 747h807z" />
    <glyph glyph-name="six.tf" 
d="M614 225q108 0 160 65q51 65 51 156q0 231 -217 232q-109 0 -167 -72t-58 -131q7 -115 65 -183t166 -67zM670 903q319 0 414 -241q36 -92 36 -184t-14 -150q-32 -135 -143 -236q-127 -112 -375 -112q-134 0 -242 55t-165 159q-109 194 -107 506q0 556 320 694
q93 40 214 40q217 0 341 -106t136 -286h-286q-16 145 -191 146q-143 0 -196 -116t-54 -310q118 141 312 141z" />
    <glyph glyph-name="seven.tf" 
d="M1102 1413v-246l-494 -1167h-289l502 1167h-657v246h938z" />
    <glyph glyph-name="eight.tf" 
d="M613 1188q-71 0 -119 -39t-50 -119q0 -80 49 -120t120 -40t121 42t50 120t-50 117t-121 39zM614 225q100 0 166 49q66 48 66 148t-66 151t-166 51t-166 -50q-66 -52 -65 -151q-1 -99 65 -149t166 -49zM1079 1032q0 -86 -44 -163t-115 -119q221 -106 221 -322
q-1 -216 -149 -332t-385 -116t-378 114t-141 338q0 222 225 318q-163 92 -163 281t130 295t336 108q206 0 335 -110q128 -110 128 -292z" />
    <glyph glyph-name="nine.tf" 
d="M618 1184q-98 0 -153 -54t-55 -155q0 -103 52 -163t156 -60t164 68q59 68 62 126q-25 238 -226 238zM558 526q-196 0 -318 116t-121 307q0 191 108 330q55 71 157 113t237 42q539 0 538 -709q0 -745 -549 -745q-210 0 -330 104t-133 281h291q8 -55 51 -95t123 -41
q80 0 132 35q124 83 124 404q-114 -142 -310 -142z" />
    <glyph glyph-name="zero.zero" horiz-adv-x="1241" 
d="M870 815l-458 -459q59 -131 216 -131t207 148q39 117 39 237t-4 205zM367 684q0 -70 6 -135l458 461q-58 137 -218 137t-206 -150q-40 -123 -40 -313zM621 1393q549 0 549 -707t-549 -706q-549 0 -549 706t549 707z" />
    <glyph glyph-name="yacute.ss02" horiz-adv-x="1292" 
d="M600 1413h328l-230 -266h-229zM1161 1024l-526 -1413h-270l165 442l-415 971h303l241 -666l230 666h272z" />
    <glyph glyph-name="ydieresis.ss02" horiz-adv-x="1292" 
d="M281 1167v246h286v-246h-286zM752 1167v246h286v-246h-286zM1161 1024l-526 -1413h-270l165 442l-415 971h303l241 -666l230 666h272z" />
    <glyph glyph-name="parenleft.case" horiz-adv-x="735" 
d="M393 694q0 -488 225 -878h-278q-242 397 -242 878t242 883h278q-225 -395 -225 -883z" />
    <glyph glyph-name="parenright.case" horiz-adv-x="735" 
d="M258 698q0 487 -225 879h278q242 -397 242 -879t-242 -882h-278q225 395 225 882z" />
    <glyph glyph-name="bracketleft.case" horiz-adv-x="718" 
d="M115 -184v1761h503v-246h-217v-1270h217v-245h-503z" />
    <glyph glyph-name="bracketright.case" horiz-adv-x="718" 
d="M553 1577v-1761h-504v245h217v1270h-217v246h504z" />
    <glyph glyph-name="braceleft.case" horiz-adv-x="845" 
d="M115 819q174 0 174 133v336q0 160 102 224t309 65h45v-246h-30q-70 1 -105 -29t-35 -104v-317q0 -135 -110 -185q111 -53 110 -184v-317q0 -74 35 -104t105 -30h30v-245h-45q-207 0 -309 64t-102 224v336q4 135 -174 133v246z" />
    <glyph glyph-name="braceright.case" horiz-adv-x="845" 
d="M680 573q-178 0 -174 -133v-336q0 -160 -102 -224t-310 -64h-45v245h31q70 0 104 30t35 104v317q0 131 111 184q-111 49 -111 185v317q0 74 -35 104t-104 29h-31v246h45q207 0 309 -65t103 -224v-336q0 -133 174 -133v-246z" />
    <glyph glyph-name="questiondown.case" horiz-adv-x="1157" 
d="M719 1413v-287h-287v287h287zM541 -20q-211 0 -325 105t-114 275q0 130 53 203t127 134t112 122t38 170h287q0 -188 -55 -271t-118 -142q-64 -58 -86 -80t-42 -59t-20 -91t43 -88q44 -34 123 -33q79 0 126 44t47 108h287q0 -136 -110 -260q-54 -61 -151 -99t-222 -38z
" />
    <glyph glyph-name="guillemotleft.case" horiz-adv-x="1208" 
d="M1106 1128l-324 -448l324 -455h-272l-322 455l322 448h272zM696 1128l-323 -448l323 -455h-272l-322 455l322 448h272z" />
    <glyph glyph-name="guillemotright.case" horiz-adv-x="1208" 
d="M836 680l-324 448h272l322 -448l-322 -455h-272zM426 680l-324 448h273l321 -448l-321 -455h-273z" />
    <glyph glyph-name="guilsinglleft.case" horiz-adv-x="798" 
d="M696 1128l-323 -448l323 -455h-272l-322 455l322 448h272z" />
    <glyph glyph-name="guilsinglright.case" horiz-adv-x="798" 
d="M426 680l-324 448h273l321 -448l-321 -455h-273z" />
    <glyph glyph-name="exclamdown.case" horiz-adv-x="655" 
d="M190 0l41 989h193l41 -989h-275zM184 1126v287h287v-287h-287z" />
    <glyph glyph-name="underscore.case" horiz-adv-x="974" 
d="M0 -250v103h975v-103h-975z" />
    <glyph glyph-name="bullet.case" horiz-adv-x="802" 
d="M672 678q0 -113 -79 -192q-79 -78 -192 -78t-191 78t-79 192q0 114 79 192q80 78 192 78t191 -78t79 -192z" />
    <glyph glyph-name="periodcentered.case" horiz-adv-x="475" 
d="M90 512v287h295v-287h-295z" />
    <glyph glyph-name="hyphen.case" horiz-adv-x="784" 
d="M702 637v-246h-620v246h620z" />
    <glyph glyph-name="endash.case" horiz-adv-x="1138" 
d="M82 502v280h975v-280h-975z" />
    <glyph glyph-name="emdash.case" horiz-adv-x="2144" 
d="M82 502v280h1980v-280h-1980z" />
    <glyph glyph-name="bar.case" horiz-adv-x="552" 
d="M197 -184v1761h286v-1761h-286z" />
    <glyph glyph-name="brokenbar.case" horiz-adv-x="552" 
d="M133 -184v757h287v-757h-287zM133 819v758h287v-758h-287z" />
    <glyph glyph-name="I.ss07" horiz-adv-x="786" 
d="M66 0v246h184v921h-184v246h655v-246h-184v-921h184v-246h-655z" />
    <glyph glyph-name="zero.tosf" 
d="M600 1167q321 0 457 -272q71 -146 71 -341t-112 -374q-57 -90 -165 -145t-251 -55t-251 55t-165 145q-114 180 -113 375t72 340q82 168 248 235q92 37 209 37zM600 922q-233 0 -233 -348t233 -349q233 1 233 349t-233 348z" />
    <glyph glyph-name="one.tosf" 
d="M809 1147v-901h369v-246h-1024v246h368v448h-266v244h90q176 0 176 209h287z" />
    <glyph glyph-name="two.tosf" 
d="M627 1167q231 1 345 -111t113 -294q0 -371 -510 -516h523v-246h-975v266q425 137 553 246q68 57 91 106q24 49 24 113q0 190 -170 191q-91 0 -135 -56t-50 -135h-295q19 199 137 317t349 119z" />
    <glyph glyph-name="three.tosf" 
d="M197 1167h837v-245l-295 -291q126 0 247 -94q58 -47 95 -131t37 -193q0 -219 -141 -349t-353 -130t-360 114q-150 114 -162 324h295q7 -98 69 -145t157 -47t148 58q52 58 52 157q0 190 -215 190h-180v246l248 291h-479v245z" />
    <glyph glyph-name="four.tosf" 
d="M715 246v502l-307 -502h307zM1001 -246h-286v246h-643v250l643 917h286v-921h209v-246h-209v-246z" />
    <glyph glyph-name="five.tosf" 
d="M1038 1147v-246h-565l-45 -348q56 55 110 80t140 24q184 -1 309 -121t125 -338t-144 -341t-356 -123t-344 106q-133 106 -145 320h295q4 -78 57 -129t144 -51t145 60q53 60 53 159q0 233 -203 233q-66 0 -110 -31t-55 -61l-13 -33l-284 105l79 735h807z" />
    <glyph glyph-name="six.tosf" 
d="M614 225q108 0 160 65q51 65 51 156q0 231 -217 232q-109 0 -167 -72t-58 -131q7 -115 65 -183t166 -67zM670 903q319 0 414 -241q36 -92 36 -184t-14 -150q-32 -135 -143 -236q-127 -112 -375 -112q-134 0 -242 55t-165 159q-109 194 -107 506q0 556 320 694
q93 40 214 40q217 0 341 -106t136 -286h-286q-16 145 -191 146q-143 0 -196 -116t-54 -310q118 141 312 141z" />
    <glyph glyph-name="seven.tosf" 
d="M1081 1147v-246l-493 -1147h-289l502 1147h-658v246h938z" />
    <glyph glyph-name="eight.tosf" 
d="M609 870q71 0 121 42t50 120t-50 117t-121 39t-120 -39t-49 -119t49 -120t120 -40zM610 225q100 0 166 49q66 48 66 148t-66 151t-166 51t-166 -50q-66 -52 -66 -151t66 -149q66 -49 166 -49zM145 1031q0 189 130 295t337 108q207 0 335 -110t128 -292q0 -86 -44 -163
t-116 -119q221 -106 221 -322t-148 -332t-385 -116t-378 114t-141 338q0 222 225 318q-164 92 -164 281z" />
    <glyph glyph-name="nine.tosf" 
d="M604 918q-106 0 -162 -52t-57 -150q0 -96 50 -157t157 -61t166 68t61 126q-12 104 -61 165q-48 61 -154 61zM526 272q-182 0 -307 112t-125 345q0 146 108 284q54 69 153 111t231 43q374 0 486 -297q61 -159 62 -438t-113 -477q-60 -105 -172 -163t-265 -58
q-207 0 -328 105t-133 280h291q6 -55 52 -95t122 -40q154 0 209 131q47 110 47 299q-55 -68 -128 -105t-190 -37z" />
    <glyph glyph-name="numbersign.tf" 
d="M567 840l-90 -338h180l93 338h-183zM23 264v238h172l90 338h-201v245h268l90 328h283l-92 -328h182l90 328h279l-97 -328h121v-245h-186l-90 -338h215v-238h-279l-71 -264h-275l72 264h-180l-72 -264h-283l72 264h-108z" />
    <glyph glyph-name="dollar.tf" 
d="M381 1048q0 -108 133 -155v295q-133 -32 -133 -140zM889 399q0 129 -174 181v-357q174 31 174 176zM715 1579v-152q393 -41 422 -403h-295q-14 131 -127 162v-344l90 -23q377 -94 379 -407q0 -194 -129 -302t-340 -126v-154h-201v156q-227 22 -339 146t-124 314h295
q14 -178 168 -219v400q-212 53 -320 137t-108 259t109 279t319 125v152h201z" />
    <glyph glyph-name="plus.tf" 
d="M492 1020h245v-365h367v-245h-367v-367h-245v367h-365v245h365v365z" />
    <glyph glyph-name="less.tf" 
d="M1087 55l-944 389v179l944 387v-287l-593 -191l593 -190v-287z" />
    <glyph glyph-name="equal.tf" 
d="M156 350v246h915v-246h-915zM156 756v245h915v-245h-915z" />
    <glyph glyph-name="greater.tf" 
d="M143 1010l944 -389v-179l-944 -387v287l594 190l-594 191v287z" />
    <glyph glyph-name="asciitilde.tf" 
d="M754 537q-63 0 -142 42t-117 42q-37 0 -57 -25t-20 -59h-176q0 185 101 238q52 28 126 28t153 -42q80 -42 114 -42t55 23q20 24 20 61h176q0 -266 -233 -266z" />
    <glyph glyph-name="cent.tf" 
d="M624 430q97 0 147 28t65 107h292q-24 -162 -132 -266t-318 -115v-184h-105v186q-221 18 -346 160t-125 368q0 228 125 370t346 163v160h105v-160q204 -13 314 -127t124 -270h-291q-10 59 -54 106q-45 48 -147 48t-164 -76t-62 -213t64 -211q65 -74 162 -74z" />
    <glyph glyph-name="sterling.tf" 
d="M645 1413q436 0 436 -383h-305q0 121 -131 121q-51 0 -88 -29t-37 -92v-278h318v-222h-318v-118q0 -119 -82 -150h371q84 0 84 109h305q0 -192 -92 -284q-37 -35 -107 -61t-163 -26h-793v262q120 0 152 59q20 40 20 87v122h-170v222h170v278q0 129 85 247q44 60 133 98
t212 38z" />
    <glyph glyph-name="currency.tf" 
d="M615 0q-153 0 -275 80l-178 -178l-158 157l178 179q-80 127 -80 274t80 274l-178 179l158 157l178 -178q128 80 276 80t275 -80l178 178l158 -157l-178 -179q79 -127 79 -274t-79 -274l178 -179l-158 -157l-178 178q-123 -80 -276 -80zM614 223q123 0 207 86t84 205
t-86 203t-204 84q-117 0 -203 -85t-86 -203t82 -204t206 -86z" />
    <glyph glyph-name="yen.tf" 
d="M1079 692v-170h-321v-129h321v-170h-321v-223h-287v223h-334v170h334v129h-334v170h246l-369 721h326l287 -631l284 631h303l-370 -721h235z" />
    <glyph glyph-name="section.tf" 
d="M793 622q1 68 -47 94t-133 34t-103 14q-53 -23 -53 -94q0 -45 36 -73q35 -28 75 -35t100 -14t82 -11q43 17 43 85zM607 1434q312 0 411 -171q45 -78 45 -178h-295q0 68 -38 94t-116 25q-158 0 -157 -102q0 -55 47 -86t117 -39q71 -7 153 -25t152 -42t116 -86t48 -155
q0 -93 -34 -141t-100 -94q54 -34 94 -100t40 -156t-46 -156t-122 -97q-139 -58 -292 -58q-289 0 -400 125q-93 106 -93 233h295q0 -63 40 -96t142 -33q180 0 181 88q0 49 -47 79t-117 40q-179 26 -305 73q-70 26 -117 89t-47 153t37 158t88 96q-51 25 -88 91t-37 133
q0 68 22 122t70 104q49 50 141 81t212 31z" />
    <glyph glyph-name="logicalnot.tf" 
d="M115 494v229h997v-565h-281v336h-716z" />
    <glyph glyph-name="plusminus.tf" 
d="M483 1407h260v-352h355v-260h-355v-361h-260v361h-352v260h352v352zM1098 231v-231h-965v231h965z" />
    <glyph glyph-name="multiply.tf" 
d="M182 788l174 175l258 -258l258 260l175 -174l-259 -261l259 -258l-175 -174l-258 260l-258 -258l-174 174l258 256z" />
    <glyph glyph-name="divide.tf" 
d="M1061 836v-261h-891v261h891zM479 143v281h281v-281h-281zM479 987v281h283v-281h-283z" />
    <glyph glyph-name="florin.tf" 
d="M238 -184q44 0 89 28q44 29 52 80l149 850h-145l39 223h145q27 162 54 220q45 96 141 149t192 54t156 -27l-37 -211q-27 16 -69 16t-88 -29q-44 -29 -54 -79l-18 -93h196l-39 -223h-194q-27 -147 -79 -444q-52 -298 -70 -394t-37 -139q-45 -96 -141 -149
q-96 -52 -194 -54q-96 -2 -155 27l37 211q26 -16 70 -16z" />
    <glyph glyph-name="Euro.tf" 
d="M45 451v170h713l-92 -168h-136q57 -207 223 -207t234 157l217 -202q-80 -113 -182 -168t-282 -55t-325 124q-144 125 -196 349h-174zM45 750v170h168q43 248 183 380t364 134q305 0 446 -240l-221 -190q-63 162 -225 161q-188 0 -240 -245h406l-95 -170h-786z" />
    <glyph glyph-name="minus.tf" 
d="M1071 825v-245h-915v245h915z" />
    <glyph glyph-name="zero.zero.osf" horiz-adv-x="1241" 
d="M618 922q-231 0 -231 -359q0 -57 8 -106l387 393q-58 72 -164 72zM854 588q0 27 -6 92l-387 -387q53 -68 160 -68q233 1 233 363zM621 1167q322 0 456 -271q72 -146 72 -341t-113 -375q-57 -90 -165 -145q-109 -55 -251 -55t-250 55t-165 145q-113 178 -113 374t72 342
q83 168 248 234q92 37 209 37z" />
    <glyph glyph-name="zero.zero.tosf" horiz-adv-x="1241" 
d="M618 922q-231 0 -231 -359q0 -57 8 -106l387 393q-58 72 -164 72zM854 588q0 27 -6 92l-387 -387q53 -68 160 -68q233 1 233 363zM621 1167q322 0 456 -271q72 -146 72 -341t-113 -375q-57 -90 -165 -145q-109 -55 -251 -55t-250 55t-165 145q-113 178 -113 374t72 342
q83 168 248 234q92 37 209 37z" />
    <glyph glyph-name="arrowleft.ss08" horiz-adv-x="1505" 
d="M352 596h1116v-123h-1116v-231l-291 293l291 292v-231z" />
    <glyph glyph-name="arrowright.ss08" horiz-adv-x="1505" 
d="M1178 596v231l290 -292l-290 -293v231h-1117v123h1117z" />
    <glyph glyph-name="arrowup.ss08" horiz-adv-x="1505" 
d="M702 1116h-231l293 291l293 -291h-232v-1116h-123v1116z" />
    <glyph glyph-name="arrowdown.ss08" horiz-adv-x="1505" 
d="M702 291v1116h123v-1116h232l-293 -291l-293 291h231z" />
    <glyph glyph-name="arrowboth.ss08" horiz-adv-x="2545" 
d="M352 596h1116v231l291 -292l-291 -293v231h-1116v-231l-291 293l291 292v-231z" />
    <glyph glyph-name="arrowleftup.ss08" horiz-adv-x="1505" 
d="M268 1024h412l-164 -162l791 -790l-88 -86l-789 788l-162 -164v414z" />
    <glyph glyph-name="arrowrightup.ss08" horiz-adv-x="1505" 
d="M1307 1024v-414l-162 164l-789 -788l-88 86l791 790l-164 162h412z" />
    <glyph glyph-name="arrowleftdown.ss08" horiz-adv-x="1505" 
d="M268 0v414l162 -164l789 788l88 -86l-791 -790l164 -162h-412z" />
    <glyph glyph-name="arrowrightdown.ss08" horiz-adv-x="1505" 
d="M1307 0h-412l164 162l-791 790l88 86l789 -788l162 164v-414z" />
    </font>
</defs>
</svg>
