<?xml version="1.0" standalone="no"?>
<!DOCTYPE svg PUBLIC "-//W3C//DTD SVG 1.1//EN" "http://www.w3.org/Graphics/SVG/1.1/DTD/svg11.dtd" >
<svg xmlns="http://www.w3.org/2000/svg">
<metadata>
Created by FontPrep 20130207 at Tue Sep  8 17:39:22 2015
 By Marcos Dopico Castro
Copyright (c) 201332015 by Marcos Dopico // MaisTypes. All rights reserved.
</metadata>
<defs>
<font id="efbd9f78c4fc55deec2c0c628035c680" horiz-adv-x='1024' >
  <font-face 
    font-family="MaisGrotesk"
    font-weight="400"
    font-stretch="normal"
    units-per-em="2048"
    panose-1="0 0 0 0 0 0 0 0 0 0"
    ascent="1536"
    descent="-512"
    x-height="1024"
    cap-height="1413"
    bbox="-428 -410 2390 1993"
    underline-thickness="102"
    underline-position="-102"
    unicode-range="U+0020-FB04"
  />
<missing-glyph horiz-adv-x="829" 
d="M475 735l244 -524v1051zM414 606l-232 -497h465zM182 1364l232 -498l233 498h-465zM354 735l-245 531v-1059zM829 1473v-1473h-829v1473h829z" />
    <glyph glyph-name="ellipsis" unicode="&#x2e;&#x2e;&#x2e;" horiz-adv-x="1331" 
d="M952 0v225h230v-225h-230zM549 0v225h229v-225h-229zM145 0v225h230v-225h-230z" />
    <glyph glyph-name="ff" unicode="ff" horiz-adv-x="1325" 
d="M1057 1147v-123h198v-174h-198v-850h-205v850h-457v-850h-205v850h-153v174h153v133q0 149 92 219t228 70q29 0 98 -8v-174q-49 8 -82 8q-131 0 -131 -125v-123h457v133q0 149 91 219t228 70q31 0 101 -8v-174q-49 8 -84 8q-131 0 -131 -125z" />
    <glyph glyph-name="fi" unicode="fi" horiz-adv-x="1150" 
d="M1004 1413v-205h-205v205h205zM395 1147v-123h609v-1024h-205v850h-404v-850h-205v850h-153v174h153v133q0 149 92 219t228 70q29 0 98 -8v-174q-49 8 -82 8q-131 0 -131 -125z" />
    <glyph glyph-name="fl" unicode="fl" horiz-adv-x="1222" 
d="M395 1147v-123h404v389h205v-1149q0 -63 27 -83q28 -19 97 -19h21v-168q-61 -6 -94 -6q-256 0 -256 258v604h-404v-850h-205v850h-153v174h153v133q0 149 92 219t228 70q29 0 98 -8v-174q-49 8 -82 8q-131 0 -131 -125z" />
    <glyph glyph-name="ffi" unicode="ffi" horiz-adv-x="1814" 
d="M1462 1208v205h205v-205h-205zM395 1147v-123h430v133q0 149 91 219t229 70q29 0 98 -8v-174q-49 8 -82 8q-131 0 -131 -125v-123h637v-1024h-205v850h-432v-850h-205v850h-430v-850h-205v850h-153v174h153v133q0 149 92 219t228 70q29 0 98 -8v-174q-49 8 -82 8
q-131 0 -131 -125z" />
    <glyph glyph-name="ffl" unicode="ffl" horiz-adv-x="1886" 
d="M1667 1413v-1149q0 -62 28 -82t97 -20h20v-168q-61 -6 -94 -6q-256 0 -256 258v604h-432v-850h-205v850h-430v-850h-205v850h-153v174h153v133q0 149 92 219t228 70q29 0 98 -8v-174q-49 8 -82 8q-131 0 -131 -125v-123h430v133q0 149 91 219t229 70q29 0 98 -8v-174
q-49 8 -82 8q-131 0 -131 -125v-123h432v389h205z" />
    <glyph glyph-name="ft" unicode="ft" horiz-adv-x="1298" 
d="M1090 -10q-131 0 -211 82t-80 229v549h-404v-850h-205v850h-153v174h153v129q0 168 83 229t227 62q16 0 108 -6v-168h-84q-129 0 -129 -117v-129h404v268l205 62v-330h221v-174h-221v-563q0 -57 40 -90t90 -33q48 0 91 6v-164q-82 -16 -135 -16z" />
    <glyph glyph-name="fj" unicode="fj" horiz-adv-x="1110" 
d="M799 1208v205h205v-205h-205zM395 1147v-123h609v-1157q0 -143 -84 -205t-201 -61q-68 0 -135 6v170h80q57 1 96 29t39 88v956h-404v-850h-205v850h-153v174h153v133q0 149 92 219t228 70q29 0 98 -8v-174q-49 8 -82 8q-131 0 -131 -125z" />
    <glyph glyph-name="ffj" unicode="ffj" horiz-adv-x="1773" 
d="M1462 1208v205h205v-205h-205zM395 1147v-123h430v133q0 149 91 219t229 70q29 0 98 -8v-174q-49 8 -82 8q-131 0 -131 -125v-123h637v-1159q0 -129 -87 -200t-198 -71q-66 0 -135 17v164q35 -6 76 -6q139 0 139 174v907h-432v-850h-205v850h-430v-850h-205v850h-153v174
h153v133q0 149 92 219t228 70q29 0 98 -8v-174q-49 8 -82 8q-131 0 -131 -125z" />
    <glyph glyph-name="fft" unicode="fft" horiz-adv-x="1982" 
d="M395 1147v-123h430v133q0 149 91 219t229 70q29 0 98 -8v-174q-49 8 -82 8q-131 0 -131 -125v-123h432v268l205 62v-330h201v-174h-201v-588q0 -109 139 -108q57 0 103 10v-164q-61 -20 -178 -20t-193 61t-76 190v619h-432v-850h-205v850h-430v-850h-205v850h-153v174
h153v133q0 149 92 219t228 70q29 0 98 -8v-174q-49 8 -82 8q-131 0 -131 -125z" />
    <glyph glyph-name=".notdef" horiz-adv-x="829" 
d="M475 735l244 -524v1051zM414 606l-232 -497h465zM182 1364l232 -498l233 498h-465zM354 735l-245 531v-1059zM829 1473v-1473h-829v1473h829z" />
    <glyph glyph-name=".null" horiz-adv-x="0" 
 />
    <glyph glyph-name="nonmarkingreturn" horiz-adv-x="681" 
 />
    <glyph glyph-name="space" unicode=" " horiz-adv-x="495" 
 />
    <glyph glyph-name="exclam" unicode="!" horiz-adv-x="643" 
d="M213 0v225h215v-225h-215zM252 362l-35 1072h209l-37 -1072h-137z" />
    <glyph glyph-name="quotedbl" unicode="&#x22;" horiz-adv-x="827" 
d="M496 870v553h184v-553h-184zM147 870v553h185v-553h-185z" />
    <glyph glyph-name="numbersign" unicode="#" horiz-adv-x="1312" 
d="M578 881l-107 -400h258l109 400h-260zM74 311v170h196l107 400h-242v174h289l100 358h201l-100 -358h258l100 358h199l-103 -358h160v-174h-207l-106 -400h252v-170h-297l-84 -311h-197l84 311h-258l-84 -311h-201l84 311h-151z" />
    <glyph glyph-name="dollar" unicode="$" horiz-adv-x="1366" 
d="M385 1057q0 -90 57 -135t166 -74v409q-223 -24 -223 -200zM1020 387q0 105 -64 155t-196 83v-473q260 22 260 235zM760 1579v-149q391 -33 424 -390h-211q-9 94 -59 150t-154 67v-444l71 -18q292 -68 368 -237q32 -71 32 -163q0 -186 -125 -294t-346 -119v-150h-152v152
q-225 18 -341 134t-128 300h211q16 -229 258 -262v503q-214 47 -324 131t-110 250t110 270t324 120v149h152z" />
    <glyph glyph-name="percent" unicode="%" horiz-adv-x="1669" 
d="M970 404q0 424 325 423q325 0 325 -424t-326 -423q-324 0 -324 424zM1294 696q-92 0 -129 -74t-37 -220q0 -148 37 -220t129 -72t130 72t38 219t-38 221t-130 74zM374 1393q324 0 324 -424t-324 -424t-325 424q0 424 325 424zM373 1262q-92 0 -129 -74t-37 -221t37 -219
t129 -72t130 72t38 219t-38 221t-130 74zM1223 1477l110 -64l-850 -1476l-110 63z" />
    <glyph glyph-name="ampersand" unicode="&#x26;" horiz-adv-x="1286" 
d="M874 174v469h-286q-270 0 -271 -242q0 -227 271 -227h286zM383 725q-238 91 -238 343q0 144 110 244q110 101 316 101h240v-174h-223q-121 0 -176 -61q-56 -60 -56 -148t52 -150t180 -63h286v199h205v-199h166v-174h-166v-643h-508q-231 0 -348 97t-117 265t82 254
q82 88 195 109z" />
    <glyph glyph-name="quotesingle" unicode="'" horiz-adv-x="479" 
d="M147 870v553h185v-553h-185z" />
    <glyph glyph-name="parenleft" unicode="(" horiz-adv-x="575" 
d="M322 530q0 -480 217 -878h-191q-238 401 -238 878t238 883h191q-217 -403 -217 -883z" />
    <glyph glyph-name="parenright" unicode=")" horiz-adv-x="575" 
d="M254 534q0 479 -217 879h190q238 -401 238 -879t-238 -882h-190q217 403 217 882z" />
    <glyph glyph-name="asterisk" unicode="*" horiz-adv-x="999" 
d="M567 1419l-20 -209l194 82l43 -129l-206 -45l139 -157l-109 -80l-108 180l-109 -180l-106 77l137 162l-207 45l43 127l195 -82l-21 209h135z" />
    <glyph glyph-name="plus" unicode="+" horiz-adv-x="1198" 
d="M526 1001h174v-393h394v-174h-394v-391h-174v391h-393v174h393v393z" />
    <glyph glyph-name="comma" unicode="," horiz-adv-x="479" 
d="M367 225v-225q-29 -158 -183 -256h-84q12 10 30 30t49 80q30 62 30 126v20h-72v225h230z" />
    <glyph glyph-name="hyphen" unicode="-" horiz-adv-x="817" 
d="M707 573v-174h-596v174h596z" />
    <glyph glyph-name="period" unicode="." horiz-adv-x="432" 
d="M100 0v225h230v-225h-230z" />
    <glyph glyph-name="slash" unicode="/" horiz-adv-x="743" 
d="M733 1413l-514 -1413h-201l514 1413h201z" />
    <glyph glyph-name="zero" unicode="0" horiz-adv-x="1220" 
d="M610 1393q528 -1 528 -707t-528 -706t-528 706t528 707zM610 1219q-199 0 -263 -171q-54 -140 -54 -366q0 -386 152 -485q67 -43 165 -43q199 0 263 167q53 134 55 361q0 391 -153 493q-67 44 -165 44z" />
    <glyph glyph-name="one" unicode="1" horiz-adv-x="753" 
d="M545 1352v-1352h-205v989h-279v174h101q178 0 178 189h205z" />
    <glyph glyph-name="two" unicode="2" horiz-adv-x="1155" 
d="M564 1393q208 0 332 -109t124 -286t-143 -354t-517 -470h682v-174h-950v186q305 233 468 389t206 236q43 79 43 179t-61 164q-62 64 -184 65q-122 0 -179 -69t-68 -196h-211q12 215 131 327t327 112z" />
    <glyph glyph-name="three" unicode="3" horiz-adv-x="1093" 
d="M137 1352h803v-174l-348 -344q184 0 304 -106t120 -302t-130 -322t-346 -124q-216 0 -348 99t-147 288h209q10 -105 84 -159t200 -54t196 68q71 68 71 181q0 256 -279 256h-153v175l313 344h-549v174z" />
    <glyph glyph-name="four" unicode="4" horiz-adv-x="1138" 
d="M709 520v529l-435 -529h435zM913 0h-204v346h-674v176l674 830h204v-832h191v-174h-191v-346z" />
    <glyph glyph-name="five" unicode="5" horiz-adv-x="1132" 
d="M977 1352v-174h-592l-57 -430q117 126 303 126t303 -118t117 -322q1 -205 -139 -330q-140 -124 -340 -124t-328 96t-142 289h211q8 -109 80 -160q71 -51 187 -51t188 78t72 202q0 125 -69 196t-200 70q-82 0 -140 -36t-77 -74l-18 -35l-205 74l82 723h764z" />
    <glyph glyph-name="six" unicode="6" horiz-adv-x="1208" 
d="M623 154q133 0 203 74t69 202q0 129 -71 202t-199 73q-87 0 -151 -37t-92 -90q-52 -98 -52 -160q12 -120 86 -192t207 -72zM668 868q190 0 314 -112t124 -336q0 -184 -124 -312t-357 -128q-305 0 -420 206q-103 187 -103 503q0 315 130 509t393 195q207 1 321 -105
t127 -254h-205q-31 184 -243 185q-330 0 -320 -553q107 202 363 202z" />
    <glyph glyph-name="seven" unicode="7" horiz-adv-x="1017" 
d="M926 1352v-174l-523 -1178h-206l528 1178h-705v174h906z" />
    <glyph glyph-name="eight" unicode="8" horiz-adv-x="1216" 
d="M607 1219q-85 0 -159 -43t-73 -153t69 -158t163 -48t165 50t70 158t-75 151t-160 43zM581 154q322 0 322 237q0 125 -86 189t-210 63q-124 0 -209 -63t-85 -189q0 -141 125 -203q67 -34 143 -34zM164 1028q0 162 116 263t328 101t329 -102q116 -104 116 -262
q1 -102 -53 -179t-134 -120q248 -106 248 -342q0 -193 -137 -301t-372 -106q-235 0 -369 106t-134 301q0 240 250 342q-188 96 -188 299z" />
    <glyph glyph-name="nine" unicode="9" horiz-adv-x="1204" 
d="M584 1217q-133 0 -205 -71t-72 -194q0 -122 70 -192t196 -70q187 0 266 154q31 64 31 114q-12 109 -82 184t-204 75zM547 526q-190 0 -318 109q-127 109 -127 309t123 324q123 125 357 125q520 0 520 -686q0 -197 -44 -343t-120 -228q-148 -159 -359 -157
q-211 1 -323 103t-125 248h205q33 -174 235 -174q342 0 324 563q-106 -193 -348 -193z" />
    <glyph glyph-name="colon" unicode=":" horiz-adv-x="432" 
d="M100 799v225h230v-225h-230zM100 0v225h230v-225h-230z" />
    <glyph glyph-name="semicolon" unicode=";" horiz-adv-x="479" 
d="M131 799v225h229v-225h-229zM367 225v-225q-29 -158 -183 -256h-84q12 10 30 30t49 80q30 62 30 126v20h-72v225h230z" />
    <glyph glyph-name="less" unicode="&#x3c;" horiz-adv-x="1198" 
d="M1071 57l-909 387v156l909 387v-205l-680 -260l680 -260v-205z" />
    <glyph glyph-name="equal" unicode="=" horiz-adv-x="1183" 
d="M143 395v174h897v-174h-897zM143 782v174h897v-174h-897z" />
    <glyph glyph-name="greater" unicode="&#x3e;" horiz-adv-x="1198" 
d="M162 985l909 -387v-154l-909 -387v205l678 260l-678 260v203z" />
    <glyph glyph-name="question" unicode="?" horiz-adv-x="1136" 
d="M428 0v225h215v-225h-215zM555 1434q213 0 323 -102t110 -270q0 -169 -163 -308q-113 -94 -151 -165t-37 -227h-205q0 186 42 276t130 173q88 82 130 133t42 130t-54 132q-54 54 -170 54t-174 -68t-59 -154h-206q0 150 114 273q115 123 328 123z" />
    <glyph glyph-name="at" unicode="@" horiz-adv-x="1998" 
d="M1112 1581q367 0 587 -219t220 -578q0 -289 -139 -472t-381 -183q-125 0 -188 56t-54 165q-117 -143 -303 -143q-141 0 -224 82q-83 83 -83 237t51 282t161 217t253 89q184 0 250 -139l20 115h172l-121 -693q-23 -123 99 -123q108 0 184 82q134 146 135 435
q0 373 -283 550q-146 93 -376 93t-428 -131t-297 -331q-100 -200 -101 -421q0 -287 172 -460t463 -173q221 0 404 111l-29 -179q-184 -82 -370 -82t-326 51q-308 109 -427 388q-65 149 -65 343t74 381q157 396 530 563q195 87 420 87zM907 354q152 0 230 120t77 269
q0 221 -184 222q-141 0 -220 -123t-79 -277q0 -211 176 -211z" />
    <glyph glyph-name="A" unicode="A" horiz-adv-x="1343" 
d="M664 1210l-256 -721h510zM784 1413l523 -1413h-220l-104 295h-643l-104 -295h-199l522 1413h225z" />
    <glyph glyph-name="B" unicode="B" horiz-adv-x="1339" 
d="M389 813h383q88 0 146 53q57 53 57 158t-56 160t-147 55h-383v-426zM389 174h395q111 0 172 60q62 60 62 172t-60 172t-174 61h-395v-465zM1186 1040q0 -227 -242 -317q93 -12 180 -79q47 -36 76 -102t29 -155q0 -179 -114 -283t-314 -104h-617v1413h617q161 0 273 -94
t112 -279z" />
    <glyph glyph-name="C" unicode="C" horiz-adv-x="1460" 
d="M111 706q0 346 181 536q180 192 462 192t436 -134t186 -344h-211q-55 303 -395 304q-158 0 -261 -81q-187 -147 -187 -474q0 -268 116 -410q117 -141 332 -141q180 0 283 92q102 92 127 243h211q-35 -225 -192 -367t-441 -142t-466 190q-181 190 -181 536z" />
    <glyph glyph-name="D" unicode="D" horiz-adv-x="1431" 
d="M184 1413h500q90 0 169 -14q79 -15 169 -61t153 -119q62 -74 104 -206t42 -305q0 -172 -42 -304t-104 -206q-61 -74 -151 -121q-150 -77 -342 -77h-498v1413zM389 1239v-1065h273q220 0 334 127t114 407t-114 406t-332 125h-275z" />
    <glyph glyph-name="E" unicode="E" horiz-adv-x="1202" 
d="M1110 1413v-174h-721v-424h600v-174h-600v-467h721v-174h-926v1413h926z" />
    <glyph glyph-name="F" unicode="F" horiz-adv-x="1167" 
d="M1122 1413v-174h-733v-448h653v-175h-653v-616h-205v1413h938z" />
    <glyph glyph-name="G" unicode="G" horiz-adv-x="1560" 
d="M790 -20q-310 0 -494 189q-185 189 -185 534t185 538t497 193q237 0 409 -122t213 -356h-211q-76 303 -407 304q-233 0 -355 -144t-120 -414q0 -268 120 -408t336 -140q214 0 322 108t121 291h-375v174h586v-727h-162l-29 211q-141 -231 -451 -231z" />
    <glyph glyph-name="H" unicode="H" horiz-adv-x="1454" 
d="M1270 1413v-1413h-205v635h-676v-635h-205v1413h205v-604h676v604h205z" />
    <glyph glyph-name="I" unicode="I" horiz-adv-x="573" 
d="M389 0h-205v1413h205v-1413z" />
    <glyph glyph-name="J" unicode="J" horiz-adv-x="1206" 
d="M825 1413h205v-909q0 -254 -127 -389t-367 -135t-370 132q-129 132 -129 361h205q0 -319 293 -319q155 0 223 91t67 232v936z" />
    <glyph glyph-name="K" unicode="K" horiz-adv-x="1341" 
d="M389 0h-205v1413h205v-684l576 684h254l-449 -508l553 -905h-242l-444 760l-248 -283v-477z" />
    <glyph glyph-name="L" unicode="L" horiz-adv-x="1126" 
d="M389 174h682v-174h-887v1413h205v-1239z" />
    <glyph glyph-name="M" unicode="M" horiz-adv-x="1800" 
d="M1616 1413v-1413h-205v1157l-395 -1157h-225l-402 1157v-1157h-205v1413h324l397 -1190l400 1190h311z" />
    <glyph glyph-name="N" unicode="N" horiz-adv-x="1523" 
d="M1339 1413v-1413h-235l-715 1110v-1110h-205v1413h256l695 -1083v1083h204z" />
    <glyph glyph-name="O" unicode="O" horiz-adv-x="1564" 
d="M1454 702q0 -346 -183 -534t-489 -188t-488 188q-183 188 -183 534t183 539t488 193q304 0 488 -193t184 -539zM1243 710q0 272 -125 410q-125 140 -344 140t-336 -146q-116 -146 -116 -414t120 -407t343 -139q224 0 341 142t117 414z" />
    <glyph glyph-name="P" unicode="P" horiz-adv-x="1265" 
d="M184 1413h588q180 1 300 -107t120 -330t-119 -324t-301 -103h-383v-549h-205v1413zM389 723h363q229 0 229 250q0 123 -57 195t-172 71h-363v-516z" />
    <glyph glyph-name="Q" unicode="Q" horiz-adv-x="1564" 
d="M782 154q111 0 187 41l-185 239l166 121l185 -254q109 143 109 413t-124 408q-123 138 -345 138t-338 -146q-115 -146 -115 -416t118 -407t342 -137zM782 1434q304 0 488 -193t184 -543t-205 -548l146 -187l-166 -123l-150 205q-137 -66 -297 -65q-305 0 -488 188
t-183 534t183 539t488 193z" />
    <glyph glyph-name="R" unicode="R" horiz-adv-x="1304" 
d="M389 1239v-477h385q104 0 162 59q57 59 57 175t-56 180t-163 63h-385zM389 588v-588h-205v1413h611q165 0 287 -99t122 -323q0 -160 -78 -256t-204 -127l290 -608h-225l-272 588h-326z" />
    <glyph glyph-name="S" unicode="S" horiz-adv-x="1316" 
d="M651 1434q473 0 506 -394h-211q-12 111 -77 167q-65 57 -207 57t-223 -50t-81 -157q0 -134 143 -186q66 -24 211 -54q243 -51 368 -143q124 -92 124 -285t-144 -301t-402 -108t-395 118q-136 119 -150 320h211q20 -270 344 -270t323 239q0 96 -68 161q-52 48 -238 89
q-185 41 -253 63t-140 65q-144 84 -145 269q0 186 127 293t377 107z" />
    <glyph glyph-name="T" unicode="T" horiz-adv-x="1179" 
d="M1124 1413v-174h-432v-1239h-205v1239h-432v174h1069z" />
    <glyph glyph-name="U" unicode="U" horiz-adv-x="1425" 
d="M1249 1413v-942q0 -223 -135 -357t-401 -134t-403 135q-136 135 -136 356v942h205v-964q0 -295 334 -295q170 0 251 78t80 217v964h205z" />
    <glyph glyph-name="V" unicode="V" horiz-adv-x="1306" 
d="M1270 1413l-512 -1413h-205l-516 1413h217l410 -1202l405 1202h201z" />
    <glyph glyph-name="W" unicode="W" horiz-adv-x="1867" 
d="M1831 1413l-393 -1413h-207l-293 1149l-297 -1149h-209l-395 1413h215l293 -1198l291 1198h215l292 -1198l291 1198h197z" />
    <glyph glyph-name="X" unicode="X" horiz-adv-x="1284" 
d="M1212 1413l-456 -680l491 -733h-241l-365 582l-373 -582h-231l506 741l-447 672h242l319 -524l322 524h233z" />
    <glyph glyph-name="Y" unicode="Y" horiz-adv-x="1232" 
d="M514 0v563l-477 850h233l357 -674l352 674h217l-477 -850v-563h-205z" />
    <glyph glyph-name="Z" unicode="Z" horiz-adv-x="1232" 
d="M1157 1413v-174q-78 -105 -426 -537t-420 -528h848v-174h-1085v174q72 96 416 528q345 432 423 537h-817v174h1061z" />
    <glyph glyph-name="bracketleft" unicode="[" horiz-adv-x="606" 
d="M129 -348v1761h422v-174h-217v-1413h217v-174h-422z" />
    <glyph glyph-name="backslash" unicode="\" horiz-adv-x="739" 
d="M522 0l-512 1413h201l514 -1413h-203z" />
    <glyph glyph-name="bracketright" unicode="]" horiz-adv-x="606" 
d="M477 1413v-1761h-422v174h217v1413h-217v174h422z" />
    <glyph glyph-name="asciicircum" unicode="^" horiz-adv-x="1370" 
d="M772 1409l469 -795h-221l-338 605l-340 -605h-213l465 795h178z" />
    <glyph glyph-name="underscore" unicode="_" horiz-adv-x="974" 
d="M0 -250v103h975v-103h-975z" />
    <glyph glyph-name="grave" unicode="`" horiz-adv-x="694" 
d="M164 1413h246l141 -266h-168z" />
    <glyph glyph-name="a" unicode="a" horiz-adv-x="1089" 
d="M297 289q1 -144 195 -144q104 0 184 78t80 197v82l-166 -23q-156 -20 -224 -66t-69 -124zM549 1044q412 0 412 -419v-625h-175l-22 160q-106 -180 -332 -180q-147 0 -245 76q-97 77 -97 217q0 139 111 229t385 125l170 20v29q0 203 -213 203q-195 0 -213 -164h-207
q53 329 426 329z" />
    <glyph glyph-name="b" unicode="b" horiz-adv-x="1202" 
d="M626 154q134 0 204 94t69 263q0 169 -68 264q-69 95 -203 95t-205 -97t-71 -265t70 -261t204 -93zM147 1413h205v-551q106 182 326 182q190 0 311 -141t121 -396t-120 -391t-324 -136t-322 182l-22 -162h-175v1413z" />
    <glyph glyph-name="c" unicode="c" horiz-adv-x="1140" 
d="M588 870q-122 0 -204 -90q-81 -90 -81 -271t83 -268t220 -87q215 0 258 196h211q-29 -160 -147 -265t-340 -105t-359 141t-137 389t137 391t359 143t342 -114q119 -114 133 -275h-209q-12 95 -78 155t-188 60z" />
    <glyph glyph-name="d" unicode="d" horiz-adv-x="1202" 
d="M573 870q-135 0 -203 -95t-67 -264q-1 -169 69 -263t204 -94t204 93t70 261t-71 265t-206 97zM850 1413h205v-1413h-174l-23 162q-117 -182 -322 -182q-204 0 -324 136t-120 391t121 396t311 141q219 0 326 -182v551z" />
    <glyph glyph-name="e" unicode="e" horiz-adv-x="1169" 
d="M597 879q-126 0 -196 -74t-90 -197h555q-6 115 -74 193q-69 78 -195 78zM604 -20q-233 0 -373 138q-139 138 -139 391t139 394t361 141t353 -138q132 -138 132 -380v-65h-774q10 -147 86 -231q75 -84 195 -85q120 0 186 48t82 116h213q-41 -157 -166 -243t-295 -86z" />
    <glyph glyph-name="f" unicode="f" horiz-adv-x="663" 
d="M395 1147v-123h197v-174h-197v-850h-205v850h-153v174h153v133q0 149 92 219t228 70q29 0 98 -8v-174q-49 8 -82 8q-131 0 -131 -125z" />
    <glyph glyph-name="g" unicode="g" horiz-adv-x="1112" 
d="M569 870q-211 0 -211 -171t213 -171q96 0 159 41q62 41 62 130t-62 130q-63 41 -161 41zM600 33q-59 0 -156 10q-16 -2 -40 -7t-62 -40t-39 -92q0 -148 299 -148t299 138t-301 139zM1059 1130v-174q-67 0 -91 -10t-40 -41q76 -76 76 -199q0 -122 -69 -204
q-125 -148 -353 -148q-106 0 -179 33q-65 -23 -65 -75q1 -97 196 -104t377 -51q86 -22 144 -87q57 -66 57 -174t-77 -182q-77 -72 -185 -98t-248 -26q-302 0 -434 120q-76 69 -76 164q0 94 50 154t132 87q-66 20 -106 66t-41 104q0 127 154 170q-133 86 -134 254
q0 251 276 318q71 17 178 17t204 -49q37 135 254 135z" />
    <glyph glyph-name="h" unicode="h" horiz-adv-x="1185" 
d="M721 1044q336 0 336 -411v-633h-205v608q0 131 -47 197q-47 65 -166 65t-203 -96t-84 -256v-518h-205v1413h205v-571q136 202 369 202z" />
    <glyph glyph-name="i" unicode="i" horiz-adv-x="499" 
d="M352 1413v-205h-205v205h205zM352 0h-205v1024h205v-1024z" />
    <glyph glyph-name="j" unicode="j" horiz-adv-x="458" 
d="M147 1208v205h205v-205h-205zM147 -104v1128h205v-1137q0 -147 -91 -217t-228 -69q-51 0 -101 8v174q53 -8 84 -8q131 0 131 121z" />
    <glyph glyph-name="k" unicode="k" horiz-adv-x="1110" 
d="M352 1413v-866l410 477h252l-357 -401l435 -623h-248l-314 475l-178 -201v-274h-205v1413h205z" />
    <glyph glyph-name="l" unicode="l" horiz-adv-x="571" 
d="M352 1413v-1149q0 -62 28 -82t97 -20h21v-168q-61 -6 -95 -6q-256 0 -256 258v1167h205z" />
    <glyph glyph-name="m" unicode="m" horiz-adv-x="1767" 
d="M1333 1044q305 0 305 -405v-639h-204v610q0 260 -172 260q-115 0 -191 -96t-76 -254v-520h-204v610q0 74 -11 125q-10 51 -51 93t-113 42q-116 0 -190 -97t-74 -255v-518h-205v1024h172l25 -195q127 215 340 215q233 0 293 -231q120 231 356 231z" />
    <glyph glyph-name="n" unicode="n" horiz-adv-x="1185" 
d="M721 1044q336 0 336 -411v-633h-205v608q0 138 -49 200t-168 62t-201 -97t-82 -255v-518h-205v1024h172l25 -195q129 215 377 215z" />
    <glyph glyph-name="o" unicode="o" horiz-adv-x="1216" 
d="M612 1044q238 0 375 -139t137 -394t-137 -393t-375 -138t-379 139t-141 392t141 393t379 140zM608 870q-152 0 -228 -97t-77 -263q0 -166 76 -261q77 -95 229 -95t229 95t76 261q0 166 -76 263q-77 97 -229 97z" />
    <glyph glyph-name="p" unicode="p" horiz-adv-x="1202" 
d="M899 512q1 168 -69 263t-204 95t-204 -94t-70 -262t70 -264t206 -96t204 95t67 263zM352 -389h-205v1413h175l22 -164q117 184 322 184q204 0 324 -137t120 -391t-121 -395t-311 -141q-219 0 -326 182v-551z" />
    <glyph glyph-name="q" unicode="q" horiz-adv-x="1202" 
d="M576 870q-134 0 -204 -95t-69 -263q0 -168 68 -263q67 -95 203 -95t206 96t70 264t-70 262t-204 94zM1055 -389h-205v551q-106 -182 -326 -182q-190 0 -311 141t-121 395t120 391t324 137t322 -184l23 164h174v-1413z" />
    <glyph glyph-name="r" unicode="r" horiz-adv-x="778" 
d="M668 1034q45 0 92 -10v-178q-49 14 -107 14q-149 0 -225 -94t-76 -260v-506h-205v1024h172l25 -205q102 215 324 215z" />
    <glyph glyph-name="s" unicode="s" horiz-adv-x="1046" 
d="M520 1044q190 0 291 -94q102 -94 117 -235h-203q-23 164 -207 164q-94 0 -141 -36q-47 -35 -47 -87t19 -80q39 -55 219 -77q113 -14 168 -33q56 -19 108 -51q111 -68 111 -227q-1 -159 -119 -234q-118 -74 -311 -74q-191 0 -303 87t-128 244h205q23 -166 234 -166
t210 138q0 66 -42 100q-43 34 -99 44q-56 9 -110 16t-72 10q-301 49 -301 290q0 139 105 221q106 80 296 80z" />
    <glyph glyph-name="t" unicode="t" horiz-adv-x="722" 
d="M471 -20q-117 0 -193 61t-75 190v619h-146v174h146v268l205 62v-330h200v-174h-200v-588q0 -109 139 -108q57 0 102 10v-164q-61 -20 -178 -20z" />
    <glyph glyph-name="u" unicode="u" horiz-adv-x="1161" 
d="M459 -20q-326 0 -326 409v635h205v-606q0 -127 39 -196q39 -68 159 -68t202 98q81 98 81 256v516h205v-1024h-172l-25 195q-126 -215 -368 -215z" />
    <glyph glyph-name="v" unicode="v" horiz-adv-x="1083" 
d="M1057 1024l-412 -1024h-207l-411 1024h221l303 -829l303 829h203z" />
    <glyph glyph-name="w" unicode="w" horiz-adv-x="1501" 
d="M1475 1024l-310 -1024h-204l-205 805l-215 -805h-205l-309 1024h217l205 -811l200 811h221l201 -811l203 811h201z" />
    <glyph glyph-name="x" unicode="x" horiz-adv-x="1034" 
d="M979 1024l-346 -494l383 -530h-242l-262 393l-272 -393h-222l394 532l-355 492h244l225 -350l232 350h221z" />
    <glyph glyph-name="y" unicode="y" horiz-adv-x="1013" 
d="M240 -406h-117v175h86q67 -1 101 29t63 108l51 137l-397 981h217l276 -764l268 764h197l-459 -1233q-77 -197 -286 -197z" />
    <glyph glyph-name="z" unicode="z" horiz-adv-x="995" 
d="M909 1024v-174l-594 -676h625v-174h-885v174l592 676h-571v174h833z" />
    <glyph glyph-name="braceleft" unicode="{" horiz-adv-x="733" 
d="M303 313q0 131 -174 131v174q174 0 174 134v344q0 178 80 248t264 69h31v-174h-25q-77 0 -111 -42t-34 -150v-312q0 -80 -22 -126t-74 -77q52 -32 74 -78t22 -126v-371q0 -131 145 -131h25v-174h-31q-184 0 -264 68t-80 247v346z" />
    <glyph glyph-name="bar" unicode="|" horiz-adv-x="647" 
d="M221 -348v1761h205v-1761h-205z" />
    <glyph glyph-name="braceright" unicode="}" horiz-adv-x="733" 
d="M430 -33q0 -178 -81 -247t-263 -68h-31v174h23q147 0 147 131v371q0 80 21 127q20 47 73 77q-53 31 -73 77t-21 126v312q0 109 -36 151t-111 41h-23v174h31q182 0 263 -70t81 -247v-344q0 -133 174 -134v-174q-178 0 -174 -131v-346z" />
    <glyph glyph-name="asciitilde" unicode="~" horiz-adv-x="1015" 
d="M379 565q-82 0 -82 -90h-139q0 233 209 234q73 0 155 -45t119 -46q78 0 78 91h139q0 -233 -207 -234q-71 0 -151 45t-121 45z" />
    <glyph glyph-name="exclamdown" unicode="&#xa1;" horiz-adv-x="643" 
d="M217 -389l35 1051h137l37 -1051h-209zM213 799v225h215v-225h-215z" />
    <glyph glyph-name="cent" unicode="&#xa2;" horiz-adv-x="1146" 
d="M578 1075q-122 0 -204 -90q-81 -90 -81 -271q0 -180 83 -268t216 -88q223 0 262 197h211q-27 -154 -132 -256t-298 -115v-184h-103v186q-210 16 -330 156t-120 372t121 373t329 160v162h103v-162q193 -13 299 -125t119 -262h-209q-12 94 -78 154t-188 61z" />
    <glyph glyph-name="sterling" unicode="&#xa3;" horiz-adv-x="1198" 
d="M643 1413q412 0 412 -383h-213q0 115 -52 158t-142 43t-142 -45q-53 -45 -53 -137v-344h358v-162h-358v-219q0 -102 -82 -142h426q113 4 141 67q21 48 23 122h215q0 -191 -90 -279t-277 -92h-741v182q123 0 148 51q24 51 24 89v221h-170v162h170v344q0 127 78 235
q42 57 126 93t199 36z" />
    <glyph glyph-name="currency" unicode="&#xa4;" horiz-adv-x="1198" 
d="M614 -14q-170 0 -307 100l-147 -149l-119 118l147 150q-100 137 -100 307t100 307l-147 148l119 118l147 -147q135 98 307 98t308 -98l149 147l119 -118l-150 -148q100 -137 100 -307t-100 -307l150 -150l-119 -118l-149 149q-138 -100 -308 -100zM615 160q146 0 250 103
q103 103 103 249t-106 250q-104 102 -248 102t-247 -103q-105 -103 -105 -249t104 -248q104 -104 249 -104z" />
    <glyph glyph-name="yen" unicode="&#xa5;" horiz-adv-x="1198" 
d="M1077 686v-137h-336v-162h336v-137h-336v-250h-206v250h-347v137h347v162h-347v137h273l-402 727h232l356 -680l352 680h220l-406 -727h264z" />
    <glyph glyph-name="brokenbar" unicode="&#xa6;" horiz-adv-x="501" 
d="M147 -348v741h205v-741h-205zM147 672v741h205v-741h-205z" />
    <glyph glyph-name="section" unicode="&#xa7;" horiz-adv-x="1054" 
d="M745 651q0 66 -45 105t-87 49t-92 17t-55 8q-4 1 -34 -5t-70 -43t-40 -94t18 -88q36 -63 218 -91q58 -9 85 -15q100 28 102 157zM121 1133q0 119 93 210t301 91t304 -96t111 -234h-203q-25 164 -213 164q-92 0 -137 -37t-45 -94t40 -88t81 -40t98 -17t67 -11
q154 -23 246 -87t92 -210q0 -178 -147 -242q61 -27 104 -89t43 -156t-42 -160q-66 -103 -250 -137q-66 -12 -140 -13q-403 0 -428 332h207q10 -78 58 -122t176 -44q209 0 208 135q0 63 -39 94t-96 43q-57 13 -110 22q-203 34 -291 104t-88 194q0 86 48 154t118 94
q-63 23 -115 88q-51 66 -51 152z" />
    <glyph glyph-name="dieresis" unicode="&#xa8;" horiz-adv-x="1075" 
d="M246 1208v205h215v-205h-215zM614 1208v205h215v-205h-215z" />
    <glyph glyph-name="copyright" unicode="&#xa9;" horiz-adv-x="1507" 
d="M762 295q-150 0 -250 106t-100 300t101 303t263 108q92 0 162 -30t104 -76q65 -86 74 -160h-121q-10 72 -66 115t-163 43t-170 -80q-64 -80 -64 -224t64 -221q64 -78 170 -78q106 -1 164 49t69 132h121q-24 -143 -116 -215t-242 -72zM769 125q241 0 410 169t169 410
q0 240 -169 410t-410 170t-411 -170t-170 -410t170 -410q170 -169 411 -169zM768 -12q-299 0 -507 211t-208 507t212 505q212 208 503 208q256 1 452 -165t236 -414q27 -125 8 -252q-36 -260 -236 -430t-460 -170z" />
    <glyph glyph-name="ordfeminine" unicode="&#xaa;" horiz-adv-x="724" 
d="M326 805q76 0 135 43t59 121v59l-110 -14q-195 -26 -195 -123q0 -86 111 -86zM381 1423q297 0 297 -295v-436h-129l-21 94q-82 -109 -233 -108q-104 0 -172 49t-68 150q0 207 351 247l114 13v37q0 120 -135 120t-147 -104h-158q10 98 80 166t221 67z" />
    <glyph glyph-name="guillemotleft" unicode="&#xab;" horiz-adv-x="1232" 
d="M1100 965l-326 -449l326 -455h-207l-320 455l320 449h207zM659 965l-325 -449l325 -455h-206l-320 455l320 449h206z" />
    <glyph glyph-name="logicalnot" unicode="&#xac;" horiz-adv-x="1198" 
d="M121 545v166h975v-545h-201v379h-774z" />
    <glyph glyph-name="registered" unicode="&#xae;" horiz-adv-x="1507" 
d="M772 1417q295 0 503 -212t208 -509q0 -296 -212 -502t-507 -206t-503 211t-208 507t212 504q212 207 507 207zM188 702q0 -240 170 -410t411 -169q241 0 410 170q169 169 169 409t-169 410t-410 170t-411 -170t-170 -410zM489 1096h328q162 0 221 -123q23 -47 23 -123
t-53 -144t-156 -73l221 -324h-135l-207 322h-121v-322h-121v787zM610 987v-250h205q125 0 125 125t-127 125h-203z" />
    <glyph glyph-name="macron" unicode="&#xaf;" horiz-adv-x="1015" 
d="M797 1382v-172h-578v172h578z" />
    <glyph glyph-name="degree" unicode="&#xb0;" horiz-adv-x="843" 
d="M477 1470q100 0 170 -70t70 -171q0 -100 -70 -170t-170 -70t-171 70t-70 170q0 100 70 171q71 70 171 70zM476 1104q52 0 89 37t37 89t-37 89t-89 37t-89 -37t-37 -89t37 -89t89 -37z" />
    <glyph glyph-name="plusminus" unicode="&#xb1;" horiz-adv-x="1198" 
d="M514 1264h182v-365h365v-182h-365v-367h-182v367h-362v182h362v365zM1061 166v-166h-909v166h909z" />
    <glyph glyph-name="twosuperior" unicode="&#xb2;" horiz-adv-x="704" 
d="M343 1516q132 0 207 -68t75 -172t-82 -206t-285 -259h379v-131h-584v139q254 187 334 279t80 162q0 125 -123 124q-113 0 -125 -141h-158q6 131 78 202t204 71z" />
    <glyph glyph-name="threesuperior" unicode="&#xb3;" horiz-adv-x="671" 
d="M82 1495h496v-131l-189 -176q94 0 166 -64t72 -184q0 -121 -83 -195q-83 -73 -210 -73t-213 61t-94 178h157q12 -109 146 -108q70 0 104 34t35 93q0 127 -143 127h-103v131l160 176h-301v131z" />
    <glyph glyph-name="acute" unicode="&#xb4;" horiz-adv-x="956" 
d="M436 1413h246l-219 -266h-168z" />
    <glyph glyph-name="mu" unicode="&#xb5;" horiz-adv-x="1171" 
d="M338 -389h-205v1413h205v-614q0 -144 42 -200t158 -56t199 90q82 90 82 227v553h205v-1024h-172l-25 174q-119 -195 -325 -194q-100 0 -164 49v-418z" />
    <glyph glyph-name="paragraph" unicode="&#xb6;" horiz-adv-x="1388" 
d="M135 997q0 170 121 290t291 120h655v-1638h-205v1464h-245v-1464h-205v819q-170 0 -291 120t-121 289z" />
    <glyph glyph-name="periodcentered" unicode="&#xb7;" horiz-adv-x="432" 
d="M100 379v225h230v-225h-230z" />
    <glyph glyph-name="cedilla" unicode="&#xb8;" horiz-adv-x="903" 
d="M643 -250q0 -66 -49 -112q-48 -46 -150 -48q-102 0 -184 41v117q80 -47 157 -47t77 49q0 63 -103 64q-27 0 -80 -4l92 190h107l-47 -90q180 0 180 -160z" />
    <glyph glyph-name="onesuperior" unicode="&#xb9;" horiz-adv-x="491" 
d="M365 1495v-811h-154v559h-174v131h67q106 0 107 121h154z" />
    <glyph glyph-name="ordmasculine" unicode="&#xba;" horiz-adv-x="786" 
d="M423 1421q169 0 265 -97t96 -276q0 -180 -96 -276t-265 -96t-268 97t-99 275t98 275q100 98 269 98zM420 1286q-201 0 -201 -238t202 -237q202 0 202 236q-1 117 -53 178t-150 61z" />
    <glyph glyph-name="guillemotright" unicode="&#xbb;" horiz-adv-x="1222" 
d="M887 516l-324 449h205l322 -449l-322 -455h-205zM457 516l-324 449h205l321 -449l-321 -455h-205z" />
    <glyph glyph-name="onequarter" unicode="&#xbc;" horiz-adv-x="1462" 
d="M1055 1477l110 -64l-850 -1476l-110 63zM365 1495v-811h-154v559h-174v131h67q106 0 107 121h154zM1165 332v252l-213 -252h213zM1319 0h-154v201h-391v133l391 477h154v-479h121v-131h-121v-201z" />
    <glyph glyph-name="onehalf" unicode="&#xbd;" horiz-adv-x="1474" 
d="M995 1477l111 -64l-850 -1476l-111 63zM1111 817q132 1 207 -67t75 -172t-82 -206q-82 -101 -285 -259h379v-131h-584v139q254 186 334 278t80 162q0 125 -123 125q-113 0 -125 -141h-158q6 131 78 201t204 71zM365 1495v-811h-154v559h-174v131h67q106 0 107 121h154z
" />
    <glyph glyph-name="threequarters" unicode="&#xbe;" horiz-adv-x="1605" 
d="M1239 1477l111 -64l-850 -1476l-111 63zM166 1495h496v-131l-189 -176q94 0 166 -64t72 -184q0 -121 -83 -195q-83 -73 -210 -73t-213 61t-94 178h157q12 -109 146 -108q70 0 104 34t35 93q0 127 -143 127h-103v131l160 176h-301v131zM1311 332v252l-213 -252h213z
M1464 0h-153v201h-393v133l393 477h153v-479h121v-131h-121v-201z" />
    <glyph glyph-name="questiondown" unicode="&#xbf;" horiz-adv-x="1136" 
d="M672 1024v-225h-215v225h215zM530 -410q-198 0 -308 100t-110 270q0 169 162 308q115 96 152 167t37 227h205q0 -188 -42 -278t-121 -162t-106 -101q-77 -82 -76 -167t55 -137q54 -53 170 -53t174 68t58 152h207q0 -141 -102 -259q-51 -59 -143 -97t-212 -38z" />
    <glyph glyph-name="Agrave" unicode="&#xc0;" horiz-adv-x="1343" 
d="M420 1823h246l141 -267h-168zM664 1210l-256 -721h510zM784 1413l523 -1413h-220l-104 295h-643l-104 -295h-199l522 1413h225z" />
    <glyph glyph-name="Aacute" unicode="&#xc1;" horiz-adv-x="1343" 
d="M657 1823h246l-219 -267h-168zM664 1210l-256 -721h510zM784 1413l523 -1413h-220l-104 295h-643l-104 -295h-199l522 1413h225z" />
    <glyph glyph-name="Acircumflex" unicode="&#xc2;" horiz-adv-x="1343" 
d="M752 1823l209 -267h-150l-158 166l-159 -166h-148l207 267h199zM664 1210l-256 -721h510zM784 1413l523 -1413h-220l-104 295h-643l-104 -295h-199l522 1413h225z" />
    <glyph glyph-name="Atilde" unicode="&#xc3;" horiz-adv-x="1343" 
d="M788 1581q-68 0 -146 52t-122 53q-80 0 -80 -87h-139q0 223 213 224q70 1 148 -53t118 -54q76 0 82 86h139q0 -88 -46 -154t-167 -67zM664 1210l-256 -721h510zM784 1413l523 -1413h-220l-104 295h-643l-104 -295h-199l522 1413h225z" />
    <glyph glyph-name="Adieresis" unicode="&#xc4;" horiz-adv-x="1343" 
d="M360 1618v205h215v-205h-215zM729 1618v205h215v-205h-215zM664 1210l-256 -721h510zM784 1413l523 -1413h-220l-104 295h-643l-104 -295h-199l522 1413h225z" />
    <glyph glyph-name="Aring" unicode="&#xc5;" horiz-adv-x="1343" 
d="M651 1993q92 0 157 -65q64 -64 64 -156t-64 -158t-157 -66t-157 66t-64 158t64 156t157 65zM651 1677q39 0 67 28t27 67q1 38 -27 66t-67 28t-67 -28t-29 -66q1 -38 29 -67q28 -28 67 -28zM664 1210l-256 -721h510zM784 1413l523 -1413h-220l-104 295h-643l-104 -295
h-199l522 1413h225z" />
    <glyph glyph-name="AE" unicode="&#xc6;" horiz-adv-x="2062" 
d="M1042 489v619l-426 -619h426zM1970 1413v-174h-723v-424h602v-174h-602v-467h723v-174h-928v295h-565l-213 -295h-227l1005 1413h928z" />
    <glyph glyph-name="Ccedilla" unicode="&#xc7;" horiz-adv-x="1460" 
d="M111 716q0 336 181 526q182 192 464 192t436 -134t184 -344h-209q-25 144 -127 224t-263 80t-265 -81q-190 -148 -190 -474q0 -268 122 -410q123 -141 338 -141q338 0 398 335h209q-33 -215 -173 -356t-391 -153l-37 -70q180 0 181 -160q0 -66 -49 -112q-48 -46 -150 -48
q-102 0 -184 41v117q80 -47 157 -47t76 49q0 63 -102 64q-27 0 -80 -4l84 172q-272 18 -441 208t-169 526z" />
    <glyph glyph-name="Egrave" unicode="&#xc8;" horiz-adv-x="1202" 
d="M340 1823h246l141 -267h-168zM1110 1413v-174h-721v-424h600v-174h-600v-467h721v-174h-926v1413h926z" />
    <glyph glyph-name="Eacute" unicode="&#xc9;" horiz-adv-x="1202" 
d="M666 1823h245l-219 -267h-168zM1110 1413v-174h-721v-424h600v-174h-600v-467h721v-174h-926v1413h926z" />
    <glyph glyph-name="Ecircumflex" unicode="&#xca;" horiz-adv-x="1202" 
d="M764 1823l209 -267h-150l-157 166l-160 -166h-148l207 267h199zM1110 1413v-174h-721v-424h600v-174h-600v-467h721v-174h-926v1413h926z" />
    <glyph glyph-name="Edieresis" unicode="&#xcb;" horiz-adv-x="1202" 
d="M383 1618v205h215v-205h-215zM752 1618v205h215v-205h-215zM1110 1413v-174h-721v-424h600v-174h-600v-467h721v-174h-926v1413h926z" />
    <glyph glyph-name="Igrave" unicode="&#xcc;" horiz-adv-x="624" 
d="M-33 1823h246l141 -267h-168zM389 0h-205v1413h205v-1413z" />
    <glyph glyph-name="Iacute" unicode="&#xcd;" horiz-adv-x="624" 
d="M328 1823h245l-219 -267h-168zM389 0h-205v1413h205v-1413z" />
    <glyph glyph-name="Icircumflex" unicode="&#xce;" horiz-adv-x="624" 
d="M414 1823l209 -267h-150l-158 166l-159 -166h-148l207 267h199zM389 0h-205v1413h205v-1413z" />
    <glyph glyph-name="Idieresis" unicode="&#xcf;" horiz-adv-x="624" 
d="M25 1618v205h215v-205h-215zM393 1618v205h215v-205h-215zM389 0h-205v1413h205v-1413z" />
    <glyph glyph-name="Eth" unicode="&#xd0;" horiz-adv-x="1386" 
d="M377 1235v-428h266v-193h-266v-440h246q471 0 471 530t-471 531h-246zM20 614v193h152v602h471q86 0 161 -11q75 -10 172 -54t165 -116q67 -72 115 -206t48 -290q1 -391 -178 -562q-180 -170 -483 -170h-471v614h-152z" />
    <glyph glyph-name="Ntilde" unicode="&#xd1;" horiz-adv-x="1523" 
d="M936 1581q-68 0 -146 52t-122 53q-80 0 -80 -87h-139q0 223 213 224q70 1 148 -53t118 -54q76 0 82 86h139q0 -88 -46 -154t-167 -67zM1339 1413v-1413h-235l-715 1110v-1110h-205v1413h256l695 -1083v1083h204z" />
    <glyph glyph-name="Ograve" unicode="&#xd2;" horiz-adv-x="1564" 
d="M567 1823h246l141 -267h-168zM1454 702q0 -346 -183 -534t-489 -188t-488 188q-183 188 -183 534t183 539t488 193q304 0 488 -193t184 -539zM1243 710q0 272 -125 410q-125 140 -344 140t-336 -146q-116 -146 -116 -414t120 -407t343 -139q224 0 341 142t117 414z" />
    <glyph glyph-name="Oacute" unicode="&#xd3;" horiz-adv-x="1564" 
d="M793 1823h245l-219 -267h-168zM1454 702q0 -346 -183 -534t-489 -188t-488 188q-183 188 -183 534t183 539t488 193q304 0 488 -193t184 -539zM1243 710q0 272 -125 410q-125 140 -344 140t-336 -146q-116 -146 -116 -414t120 -407t343 -139q224 0 341 142t117 414z" />
    <glyph glyph-name="Ocircumflex" unicode="&#xd4;" horiz-adv-x="1564" 
d="M872 1823l209 -267h-149l-158 166l-160 -166h-147l207 267h198zM1454 702q0 -346 -183 -534t-489 -188t-488 188q-183 188 -183 534t183 539t488 193q304 0 488 -193t184 -539zM1243 710q0 272 -125 410q-125 140 -344 140t-336 -146q-116 -146 -116 -414t120 -407
t343 -139q224 0 341 142t117 414z" />
    <glyph glyph-name="Otilde" unicode="&#xd5;" horiz-adv-x="1564" 
d="M920 1581q-68 0 -146 52t-123 53q-80 0 -80 -87h-139q0 223 213 224q70 1 148 -53t118 -54q76 0 82 86h140q0 -88 -46 -154t-167 -67zM1454 702q0 -346 -183 -534t-489 -188t-488 188q-183 188 -183 534t183 539t488 193q304 0 488 -193t184 -539zM1243 710
q0 272 -125 410q-125 140 -344 140t-336 -146q-116 -146 -116 -414t120 -407t343 -139q224 0 341 142t117 414z" />
    <glyph glyph-name="Odieresis" unicode="&#xd6;" horiz-adv-x="1564" 
d="M489 1618v205h216v-205h-216zM858 1618v205h215v-205h-215zM1454 702q0 -346 -183 -534t-489 -188t-488 188q-183 188 -183 534t183 539t488 193q304 0 488 -193t184 -539zM1243 710q0 272 -125 410q-125 140 -344 140t-336 -146q-116 -146 -116 -414t120 -407t343 -139
q224 0 341 142t117 414z" />
    <glyph glyph-name="multiply" unicode="&#xd7;" horiz-adv-x="1198" 
d="M223 797l123 123l277 -277l276 279l123 -123l-277 -279l277 -276l-123 -123l-276 276l-277 -274l-123 123l277 274z" />
    <glyph glyph-name="Oslash" unicode="&#xd8;" horiz-adv-x="1564" 
d="M1243 691q0 259 -98 399l-617 -873q98 -63 254 -63q229 0 345 139t116 398zM782 1260q-231 0 -346 -146q-114 -146 -114 -406t104 -399l616 879q-102 72 -260 72zM1454 707q0 -351 -183 -539t-489 -188q-209 0 -360 88l-105 -148l-110 80l106 150q-203 198 -203 548
t184 543q183 193 488 193q207 0 367 -97l108 154l113 -78l-110 -160q194 -195 194 -546z" />
    <glyph glyph-name="Ugrave" unicode="&#xd9;" horiz-adv-x="1425" 
d="M451 1823h245l142 -267h-168zM1249 1413v-942q0 -223 -135 -357t-401 -134t-403 135q-136 135 -136 356v942h205v-964q0 -295 334 -295q170 0 251 78t80 217v964h205z" />
    <glyph glyph-name="Uacute" unicode="&#xda;" horiz-adv-x="1425" 
d="M727 1823h246l-219 -267h-168zM1249 1413v-942q0 -223 -135 -357t-401 -134t-403 135q-136 135 -136 356v942h205v-964q0 -295 334 -295q170 0 251 78t80 217v964h205z" />
    <glyph glyph-name="Ucircumflex" unicode="&#xdb;" horiz-adv-x="1425" 
d="M799 1823l209 -267h-150l-158 166l-159 -166h-148l207 267h199zM1249 1413v-942q0 -223 -135 -357t-401 -134t-403 135q-136 135 -136 356v942h205v-964q0 -295 334 -295q170 0 251 78t80 217v964h205z" />
    <glyph glyph-name="Udieresis" unicode="&#xdc;" horiz-adv-x="1425" 
d="M420 1618v205h215v-205h-215zM788 1618v205h216v-205h-216zM1249 1413v-942q0 -223 -135 -357t-401 -134t-403 135q-136 135 -136 356v942h205v-964q0 -295 334 -295q170 0 251 78t80 217v964h205z" />
    <glyph glyph-name="Yacute" unicode="&#xdd;" horiz-adv-x="1232" 
d="M614 1823h246l-219 -267h-168zM514 0v563l-477 850h233l357 -674l352 674h217l-477 -850v-563h-205z" />
    <glyph glyph-name="Thorn" unicode="&#xde;" horiz-adv-x="1282" 
d="M733 473q109 0 166 59t57 170t-57 170t-166 60h-336v-459h336zM748 1114q178 0 301 -99t123 -311t-124 -313q-122 -100 -296 -100h-355v-291h-213v1409h213v-295h351z" />
    <glyph glyph-name="germandbls" unicode="&#xdf;" horiz-adv-x="1165" 
d="M1143 418q0 -205 -121 -313t-332 -105h-178v168h178q76 0 136 31q116 61 116 233t-105 223q-53 25 -97 32t-109 7v168q140 0 170 66t30 142q0 77 -54 136q-55 60 -151 60t-164 -45t-67 -158v-1063h-198v1061q0 138 86 246q45 57 131 92t190 35q269 0 375 -168
q53 -84 53 -195q0 -215 -133 -287q27 0 77 -26t82 -60t58 -108t27 -172z" />
    <glyph glyph-name="agrave" unicode="&#xe0;" horiz-adv-x="1089" 
d="M317 1413h246l142 -266h-168zM307 289q1 -144 195 -144q104 0 184 78t80 197v82l-166 -23q-156 -20 -224 -66t-69 -124zM559 1044q412 0 412 -419v-625h-174l-23 160q-106 -180 -332 -180q-147 0 -244 76q-98 76 -98 217q0 139 111 229t385 125l170 20v29q0 203 -213 203
q-195 0 -213 -164h-207q53 329 426 329z" />
    <glyph glyph-name="aacute" unicode="&#xe1;" horiz-adv-x="1089" 
d="M569 1413h246l-219 -266h-168zM307 289q1 -144 195 -144q104 0 184 78t80 197v82l-166 -23q-156 -20 -224 -66t-69 -124zM559 1044q412 0 412 -419v-625h-174l-23 160q-106 -180 -332 -180q-147 0 -244 76q-98 76 -98 217q0 139 111 229t385 125l170 20v29
q0 203 -213 203q-195 0 -213 -164h-207q53 329 426 329z" />
    <glyph glyph-name="acircumflex" unicode="&#xe2;" horiz-adv-x="1089" 
d="M639 1413l209 -266h-150l-157 166l-160 -166h-148l207 266h199zM307 289q1 -144 195 -144q104 0 184 78t80 197v82l-166 -23q-156 -20 -224 -66t-69 -124zM559 1044q412 0 412 -419v-625h-174l-23 160q-106 -180 -332 -180q-147 0 -244 76q-98 76 -98 217q0 139 111 229
t385 125l170 20v29q0 203 -213 203q-195 0 -213 -164h-207q53 329 426 329z" />
    <glyph glyph-name="atilde" unicode="&#xe3;" horiz-adv-x="1089" 
d="M674 1171q-68 1 -146 53t-122 52q-80 0 -80 -86h-140q0 223 213 223q70 0 148 -53t119 -53q76 0 82 86h139q0 -88 -46 -155t-167 -67zM307 289q1 -144 195 -144q104 0 184 78t80 197v82l-166 -23q-156 -20 -224 -66t-69 -124zM559 1044q412 0 412 -419v-625h-174l-23 160
q-106 -180 -332 -180q-147 0 -244 76q-98 76 -98 217q0 139 111 229t385 125l170 20v29q0 203 -213 203q-195 0 -213 -164h-207q53 329 426 329z" />
    <glyph glyph-name="adieresis" unicode="&#xe4;" horiz-adv-x="1089" 
d="M248 1208v205h215v-205h-215zM616 1208v205h215v-205h-215zM307 289q1 -144 195 -144q104 0 184 78t80 197v82l-166 -23q-156 -20 -224 -66t-69 -124zM559 1044q412 0 412 -419v-625h-174l-23 160q-106 -180 -332 -180q-147 0 -244 76q-98 76 -98 217q0 139 111 229
t385 125l170 20v29q0 203 -213 203q-195 0 -213 -164h-207q53 329 426 329z" />
    <glyph glyph-name="aring" unicode="&#xe5;" horiz-adv-x="1089" 
d="M537 1583q93 -1 157 -65t64 -156t-65 -158t-157 -66t-156 66q-65 66 -65 158t65 156t157 65zM537 1268q39 0 67 28t27 66q0 38 -28 66q-29 28 -67 28t-67 -28t-29 -66t29 -66t68 -28zM307 289q1 -144 195 -144q104 0 184 78t80 197v82l-166 -23q-156 -20 -224 -66
t-69 -124zM559 1044q412 0 412 -419v-625h-174l-23 160q-106 -180 -332 -180q-147 0 -244 76q-98 76 -98 217q0 139 111 229t385 125l170 20v29q0 203 -213 203q-195 0 -213 -164h-207q53 329 426 329z" />
    <glyph glyph-name="ae" unicode="&#xe6;" horiz-adv-x="1869" 
d="M1296 879q-128 0 -196 -74t-88 -197h555q-6 115 -75 193t-196 78zM309 289q1 -144 195 -144q106 0 185 77t79 198v82l-172 -23q-152 -20 -220 -65t-67 -125zM1307 -20q-141 0 -258 62t-168 185q-53 -104 -161 -176q-108 -71 -266 -71t-255 76t-97 215q0 141 110 231
t380 125l176 20v29q0 203 -213 203q-195 0 -213 -164h-207q21 141 121 235t299 94q254 0 356 -194q129 195 389 194q214 0 346 -139t132 -379v-65h-774q10 -145 86 -231t208 -85q94 0 163 43q68 43 91 121h213q-64 -256 -320 -314q-67 -15 -138 -15z" />
    <glyph glyph-name="ccedilla" unicode="&#xe7;" horiz-adv-x="1140" 
d="M588 870q-122 0 -204 -90q-81 -90 -81 -271t83 -268t216 -87q223 0 262 196h211q-27 -154 -132 -256t-298 -112l-37 -72q180 0 180 -160q0 -66 -49 -112t-150 -48q-101 0 -183 41v117q80 -47 156 -47t77 49q0 63 -102 64q-27 0 -80 -4l82 172q-207 18 -327 157t-120 379
t137 383t361 143t341 -114q118 -114 132 -275h-209q-12 95 -78 155t-188 60z" />
    <glyph glyph-name="egrave" unicode="&#xe8;" horiz-adv-x="1169" 
d="M362 1413h246l142 -266h-168zM597 879q-126 0 -196 -74t-90 -197h555q-6 115 -74 193q-69 78 -195 78zM604 -20q-233 0 -373 138q-139 138 -139 391t139 394t361 141t353 -138q132 -138 132 -380v-65h-774q10 -147 86 -231q75 -84 195 -85q120 0 186 48t82 116h213
q-41 -157 -166 -243t-295 -86z" />
    <glyph glyph-name="eacute" unicode="&#xe9;" horiz-adv-x="1169" 
d="M592 1413h246l-220 -266h-167zM597 879q-126 0 -196 -74t-90 -197h555q-6 115 -74 193q-69 78 -195 78zM604 -20q-233 0 -373 138q-139 138 -139 391t139 394t361 141t353 -138q132 -138 132 -380v-65h-774q10 -147 86 -231q75 -84 195 -85q120 0 186 48t82 116h213
q-41 -157 -166 -243t-295 -86z" />
    <glyph glyph-name="ecircumflex" unicode="&#xea;" horiz-adv-x="1169" 
d="M682 1413l209 -266h-150l-157 166l-160 -166h-148l207 266h199zM597 879q-126 0 -196 -74t-90 -197h555q-6 115 -74 193q-69 78 -195 78zM604 -20q-233 0 -373 138q-139 138 -139 391t139 394t361 141t353 -138q132 -138 132 -380v-65h-774q10 -147 86 -231
q75 -84 195 -85q120 0 186 48t82 116h213q-41 -157 -166 -243t-295 -86z" />
    <glyph glyph-name="edieresis" unicode="&#xeb;" horiz-adv-x="1169" 
d="M295 1208v205h215v-205h-215zM664 1208v205h215v-205h-215zM597 879q-126 0 -196 -74t-90 -197h555q-6 115 -74 193q-69 78 -195 78zM604 -20q-233 0 -373 138q-139 138 -139 391t139 394t361 141t353 -138q132 -138 132 -380v-65h-774q10 -147 86 -231q75 -84 195 -85
q120 0 186 48t82 116h213q-41 -157 -166 -243t-295 -86z" />
    <glyph glyph-name="igrave" unicode="&#xec;" horiz-adv-x="499" 
d="M-37 1413h246l141 -266h-168zM352 0h-205v1024h205v-1024z" />
    <glyph glyph-name="iacute" unicode="&#xed;" horiz-adv-x="499" 
d="M268 1413h246l-219 -266h-168zM352 0h-205v1024h205v-1024z" />
    <glyph glyph-name="icircumflex" unicode="&#xee;" horiz-adv-x="499" 
d="M348 1413l209 -266h-149l-158 166l-160 -166h-147l207 266h198zM352 0h-205v1024h205v-1024z" />
    <glyph glyph-name="idieresis" unicode="&#xef;" horiz-adv-x="499" 
d="M-43 1208v205h215v-205h-215zM326 1208v205h215v-205h-215zM352 0h-205v1024h205v-1024z" />
    <glyph glyph-name="eth" unicode="&#xf0;" horiz-adv-x="1220" 
d="M295 510q0 -182 80 -278q79 -96 231 -97q152 0 230 116t77 300q0 41 -4 74q-37 143 -123 203t-184 61q-154 0 -230 -98q-76 -99 -77 -281zM1128 674q0 -700 -530 -701q-230 -1 -368 141t-138 398t133 392t346 136q99 0 197 -39t152 -137q-27 143 -114 259t-228 175
l-84 -180l-132 62l74 157q-72 16 -172 17l23 176q111 0 227 -29l72 156l129 -62l-62 -135q221 -86 348 -286t127 -500z" />
    <glyph glyph-name="ntilde" unicode="&#xf1;" horiz-adv-x="1185" 
d="M752 1171q-68 1 -146 53t-123 52q-80 0 -80 -86h-139q0 223 213 223q70 0 148 -53t118 -53q76 0 82 86h140q0 -88 -46 -155t-167 -67zM721 1044q336 0 336 -411v-633h-205v608q0 138 -49 200t-168 62t-201 -97t-82 -255v-518h-205v1024h172l25 -195q129 215 377 215z" />
    <glyph glyph-name="ograve" unicode="&#xf2;" horiz-adv-x="1216" 
d="M387 1413h246l141 -266h-168zM612 1044q238 0 375 -139t137 -394t-137 -393t-375 -138t-379 139t-141 392t141 393t379 140zM608 870q-152 0 -228 -97t-77 -263q0 -166 76 -261q77 -95 229 -95t229 95t76 261q0 166 -76 263q-77 97 -229 97z" />
    <glyph glyph-name="oacute" unicode="&#xf3;" horiz-adv-x="1216" 
d="M606 1413h246l-219 -266h-168zM612 1044q238 0 375 -139t137 -394t-137 -393t-375 -138t-379 139t-141 392t141 393t379 140zM608 870q-152 0 -228 -97t-77 -263q0 -166 76 -261q77 -95 229 -95t229 95t76 261q0 166 -76 263q-77 97 -229 97z" />
    <glyph glyph-name="ocircumflex" unicode="&#xf4;" horiz-adv-x="1216" 
d="M702 1413l209 -266h-149l-158 166l-160 -166h-147l207 266h198zM612 1044q238 0 375 -139t137 -394t-137 -393t-375 -138t-379 139t-141 392t141 393t379 140zM608 870q-152 0 -228 -97t-77 -263q0 -166 76 -261q77 -95 229 -95t229 95t76 261q0 166 -76 263
q-77 97 -229 97z" />
    <glyph glyph-name="otilde" unicode="&#xf5;" horiz-adv-x="1216" 
d="M743 1171q-67 1 -145 53t-123 52q-80 0 -80 -86h-139q0 223 213 223q69 0 147 -53t119 -53q76 0 82 86h139q0 -88 -46 -155t-167 -67zM612 1044q238 0 375 -139t137 -394t-137 -393t-375 -138t-379 139t-141 392t141 393t379 140zM608 870q-152 0 -228 -97t-77 -263
q0 -166 76 -261q77 -95 229 -95t229 95t76 261q0 166 -76 263q-77 97 -229 97z" />
    <glyph glyph-name="odieresis" unicode="&#xf6;" horiz-adv-x="1216" 
d="M311 1208v205h215v-205h-215zM680 1208v205h215v-205h-215zM612 1044q238 0 375 -139t137 -394t-137 -393t-375 -138t-379 139t-141 392t141 393t379 140zM608 870q-152 0 -228 -97t-77 -263q0 -166 76 -261q77 -95 229 -95t229 95t76 261q0 166 -76 263q-77 97 -229 97z
" />
    <glyph glyph-name="divide" unicode="&#xf7;" horiz-adv-x="1198" 
d="M1065 698v-180h-887v180h887zM520 137v223h211v-223h-211zM520 856v223h213v-223h-213z" />
    <glyph glyph-name="oslash" unicode="&#xf8;" horiz-adv-x="1216" 
d="M608 870q-137 0 -221 -89t-84 -249t49 -241l389 551q-61 28 -133 28zM913 492q0 164 -63 260l-397 -564q61 -35 155 -34q137 0 221 87t84 251zM608 1044q137 0 242 -49l84 119l113 -80l-78 -112q155 -138 155 -402t-137 -402t-379 -138q-147 0 -262 57l-84 -119l-115 82
l84 119q-139 143 -139 394t141 391q142 140 375 140z" />
    <glyph glyph-name="ugrave" unicode="&#xf9;" horiz-adv-x="1171" 
d="M307 1413h246l141 -266h-168zM459 -20q-326 0 -326 409v635h205v-606q0 -127 39 -196q39 -68 159 -68t202 98q81 98 81 256v516h205v-1024h-172l-25 195q-126 -215 -368 -215z" />
    <glyph glyph-name="uacute" unicode="&#xfa;" horiz-adv-x="1171" 
d="M600 1413h246l-219 -266h-168zM459 -20q-326 0 -326 409v635h205v-606q0 -127 39 -196q39 -68 159 -68t202 98q81 98 81 256v516h205v-1024h-172l-25 195q-126 -215 -368 -215z" />
    <glyph glyph-name="ucircumflex" unicode="&#xfb;" horiz-adv-x="1171" 
d="M668 1413l209 -266h-150l-158 166l-159 -166h-148l207 266h199zM459 -20q-326 0 -326 409v635h205v-606q0 -127 39 -196q39 -68 159 -68t202 98q81 98 81 256v516h205v-1024h-172l-25 195q-126 -215 -368 -215z" />
    <glyph glyph-name="udieresis" unicode="&#xfc;" horiz-adv-x="1171" 
d="M283 1208v205h215v-205h-215zM651 1208v205h215v-205h-215zM459 -20q-326 0 -326 409v635h205v-606q0 -127 39 -196q39 -68 159 -68t202 98q81 98 81 256v516h205v-1024h-172l-25 195q-126 -215 -368 -215z" />
    <glyph glyph-name="yacute" unicode="&#xfd;" horiz-adv-x="1013" 
d="M502 1413h246l-220 -266h-168zM240 -406h-117v175h86q67 -1 101 29t63 108l51 137l-397 981h217l276 -764l268 764h197l-459 -1233q-77 -197 -286 -197z" />
    <glyph glyph-name="thorn" unicode="&#xfe;" horiz-adv-x="1214" 
d="M626 154q134 0 204 94t69 263q0 169 -69 264q-70 95 -204 95t-204 -96t-70 -264t70 -262t204 -94zM147 1413h205v-551q109 182 328 182q188 0 309 -142t121 -396t-120 -390t-310 -136q-223 0 -332 180v-549h-201v1802z" />
    <glyph glyph-name="ydieresis" unicode="&#xff;" horiz-adv-x="1013" 
d="M233 1208v205h216v-205h-216zM602 1208v205h215v-205h-215zM240 -406h-117v175h86q67 -1 101 29t63 108l51 137l-397 981h217l276 -764l268 764h197l-459 -1233q-77 -197 -286 -197z" />
    <glyph glyph-name="dotlessi" unicode="&#x131;" horiz-adv-x="413" 
d="M307 0h-201v1024h201v-1024z" />
    <glyph glyph-name="Lslash" unicode="&#x141;" horiz-adv-x="1126" 
d="M389 174h682v-174h-887v535l-170 -105v225l170 105v649h205v-520l397 248v-226l-397 -247v-490z" />
    <glyph glyph-name="lslash" unicode="&#x142;" horiz-adv-x="602" 
d="M430 -14q-113 0 -198 72t-85 198v344l-147 -86v191l147 88v630h203v-508l178 107v-191l-178 -106v-438q0 -55 41 -89t98 -34l39 2v-170q-47 -10 -98 -10z" />
    <glyph glyph-name="OE" unicode="&#x152;" horiz-adv-x="2267" 
d="M1243 710q0 272 -125 410q-125 140 -344 140t-336 -146q-116 -146 -116 -414t120 -407t343 -139q224 0 341 142t117 414zM2175 1413v-174h-721v-424h600v-174h-600v-467h721v-174h-926v182q-168 -202 -470 -202t-485 188t-183 534t183 539t488 193q146 0 268 -54
t199 -155v188h926z" />
    <glyph glyph-name="oe" unicode="&#x153;" horiz-adv-x="1998" 
d="M1419 879q-123 0 -195 -72t-91 -199h555q-6 115 -76 193t-193 78zM606 870q-150 0 -226 -98t-77 -263q0 -165 76 -260q77 -95 229 -95t229 95t77 260t-79 263t-229 98zM604 -20q-229 0 -371 140q-141 140 -141 391t140 392t370 141q158 0 264 -64t154 -165
q52 105 158 167t245 62q209 0 342 -137t133 -379v-67h-772q6 -150 85 -233t191 -83t181 44q70 44 90 120h213q-45 -174 -176 -252q-132 -77 -280 -77t-253 62t-159 165q-113 -227 -414 -227z" />
    <glyph glyph-name="Scaron" unicode="&#x160;" horiz-adv-x="1316" 
d="M551 1577l-186 266h147l139 -168l137 168h150l-188 -266h-199zM651 1434q473 0 506 -394h-211q-12 111 -77 167q-65 57 -207 57t-223 -50t-81 -157q0 -134 143 -186q66 -24 211 -54q243 -51 368 -143q124 -92 124 -285t-144 -301t-402 -108t-395 118q-136 119 -150 320
h211q20 -270 344 -270t323 239q0 96 -68 161q-52 48 -238 89q-185 41 -253 63t-140 65q-144 84 -145 269q0 186 127 293t377 107z" />
    <glyph glyph-name="scaron" unicode="&#x161;" horiz-adv-x="1036" 
d="M416 1167l-187 267h148l139 -168l137 168h150l-189 -267h-198zM520 1044q190 0 291 -94q102 -94 117 -235h-203q-23 164 -207 164q-94 0 -141 -36q-47 -35 -47 -87t19 -80q39 -55 219 -77q113 -14 168 -33q56 -19 108 -51q111 -68 111 -227q-1 -159 -119 -234
q-118 -74 -311 -74q-191 0 -303 87t-128 244h205q23 -166 234 -166t210 138q0 66 -42 100q-43 34 -99 44q-56 9 -110 16t-72 10q-301 49 -301 290q0 139 105 221q106 80 296 80z" />
    <glyph glyph-name="Ydieresis" unicode="&#x178;" horiz-adv-x="1232" 
d="M352 1618v205h215v-205h-215zM721 1618v205h215v-205h-215zM514 0v563l-477 850h233l357 -674l352 674h217l-477 -850v-563h-205z" />
    <glyph glyph-name="Zcaron" unicode="&#x17d;" horiz-adv-x="1232" 
d="M555 1577l-186 266h147l139 -168l138 168h149l-188 -266h-199zM1157 1413v-174q-78 -105 -426 -537t-420 -528h848v-174h-1085v174q72 96 416 528q345 432 423 537h-817v174h1061z" />
    <glyph glyph-name="zcaron" unicode="&#x17e;" horiz-adv-x="995" 
d="M412 1167l-187 267h148l139 -168l137 168h150l-189 -267h-198zM909 1024v-174l-594 -676h625v-174h-885v174l592 676h-571v174h833z" />
    <glyph glyph-name="florin" unicode="&#x192;" horiz-adv-x="1198" 
d="M964 1257q-46 0 -94 -29q-47 -30 -57 -85l-31 -164h215l-28 -162h-213q-122 -684 -146 -819t-41 -193q-31 -98 -119 -155q-88 -58 -180 -58q-90 0 -139 25l27 154q87 -42 175 14q48 31 56 84l168 948h-149l28 162h150q37 193 47 227q31 98 120 156t176 58q87 1 142 -23
l-27 -156q-34 16 -80 16z" />
    <glyph glyph-name="circumflex" unicode="&#x2c6;" horiz-adv-x="1126" 
d="M662 1413l208 -266h-149l-158 166l-160 -166h-147l207 266h199z" />
    <glyph glyph-name="caron" unicode="&#x2c7;" horiz-adv-x="1085" 
d="M442 1167l-186 267h147l140 -168l137 168h149l-188 -267h-199z" />
    <glyph glyph-name="breve" unicode="&#x2d8;" horiz-adv-x="1003" 
d="M401 1413q0 -39 28 -65t72 -25q43 0 71 26t28 64h117q-1 -82 -59 -144q-58 -63 -156 -63t-156 62t-59 145h114z" />
    <glyph glyph-name="dotaccent" unicode="&#x2d9;" horiz-adv-x="428" 
d="M100 1229v205h226v-205h-226z" />
    <glyph glyph-name="ring" unicode="&#x2da;" horiz-adv-x="970" 
d="M485 1583q92 -1 157 -65t65 -156t-65 -158t-157 -66q-93 0 -157 66t-64 158t64 156t157 65zM485 1268q39 0 67 28t28 66t-28 66t-67 28t-67 -28t-29 -66q1 -38 29 -66t67 -28z" />
    <glyph glyph-name="ogonek" unicode="&#x2db;" horiz-adv-x="972" 
d="M414 -211q0 -67 38 -97t91 -30t100 47l37 -43q-21 -28 -71 -52q-51 -24 -123 -24t-134 52t-61 142q1 88 63 144t162 72h113q-215 -53 -215 -211z" />
    <glyph glyph-name="tilde" unicode="&#x2dc;" horiz-adv-x="1028" 
d="M651 1171q-67 1 -145 53t-123 52q-80 0 -80 -86h-139q0 223 213 223q69 0 147 -53t119 -53q76 0 82 86h139q0 -88 -46 -155t-167 -67z" />
    <glyph glyph-name="hungarumlaut" unicode="&#x2dd;" horiz-adv-x="1083" 
 />
    <glyph glyph-name="pi" unicode="&#x3c0;" horiz-adv-x="1028" 
d="M1049 1038v-168h-144v-870h-198v870h-345v-870h-200v870h-139v168h1026z" />
    <glyph glyph-name="endash" unicode="&#x2013;" horiz-adv-x="1159" 
d="M92 457v192h975v-192h-975z" />
    <glyph glyph-name="emdash" unicode="&#x2014;" horiz-adv-x="2164" 
d="M92 457v192h1981v-192h-1981z" />
    <glyph glyph-name="quoteleft" unicode="&#x2018;" horiz-adv-x="454" 
d="M102 932v225q29 158 183 256h84q-42 -35 -76 -103q-33 -68 -33 -132v-21h72v-225h-230z" />
    <glyph glyph-name="quoteright" unicode="&#x2019;" horiz-adv-x="479" 
d="M367 1413v-225q-29 -158 -183 -256h-84q42 35 76 103q33 68 33 132v21h-72v225h230z" />
    <glyph glyph-name="quotesinglbase" unicode="&#x201a;" horiz-adv-x="479" 
d="M367 225v-225q-29 -158 -183 -256h-84q12 10 30 30t49 80q30 62 30 126v20h-72v225h230z" />
    <glyph glyph-name="quotedblleft" unicode="&#x201c;" horiz-adv-x="833" 
d="M481 932v225q29 158 183 256h84q-42 -35 -76 -103q-33 -68 -33 -132v-21h72v-225h-230zM102 932v225q29 158 183 256h84q-42 -35 -76 -103q-33 -68 -33 -132v-21h72v-225h-230z" />
    <glyph glyph-name="quotedblright" unicode="&#x201d;" horiz-adv-x="847" 
d="M735 1413v-225q-29 -158 -182 -256h-84q42 35 76 103q33 68 33 132v21h-72v225h229zM367 1413v-225q-29 -158 -183 -256h-84q42 35 76 103q33 68 33 132v21h-72v225h230z" />
    <glyph glyph-name="quotedblbase" unicode="&#x201e;" horiz-adv-x="847" 
d="M735 225v-225q-29 -158 -182 -256h-84q13 10 31 30t48 80q30 62 30 126v20h-72v225h229zM367 225v-225q-29 -158 -183 -256h-84q12 10 30 30t49 80q30 62 30 126v20h-72v225h230z" />
    <glyph glyph-name="dagger" unicode="&#x2020;" horiz-adv-x="1026" 
d="M952 1036v-162h-340v-1189h-200v1189h-338v162h338v371h200v-371h340z" />
    <glyph glyph-name="daggerdbl" unicode="&#x2021;" horiz-adv-x="1189" 
d="M1044 1053v-164h-335v-600h333v-164h-333v-356h-201v356h-336v164h336v600h-336v164h336v354h201v-354h335z" />
    <glyph glyph-name="bullet" unicode="&#x2022;" horiz-adv-x="835" 
d="M688 514q0 -114 -79 -192t-191 -78t-192 79q-79 79 -79 191t79 192q79 78 192 78q114 0 192 -78t78 -192z" />
    <glyph glyph-name="perthousand" unicode="&#x2030;" horiz-adv-x="2439" 
d="M2064 827q326 0 326 -424t-326 -423q-326 0 -326 424t326 423zM2064 696q-92 0 -129 -72t-37 -222q0 -148 37 -220t129 -72t129 72t37 220t-37 222q-37 72 -129 72zM970 404q0 424 325 423q325 0 325 -424t-326 -423q-324 0 -324 424zM1294 696q-92 0 -129 -74t-37 -220
q0 -148 37 -220t129 -72t130 72t38 219t-38 221t-130 74zM374 1393q324 0 324 -424t-324 -424t-325 424q0 424 325 424zM373 1262q-92 0 -129 -74t-37 -221t37 -219t129 -72t130 72t38 219t-38 221t-130 74zM1223 1477l110 -64l-850 -1476l-110 63z" />
    <glyph glyph-name="guilsinglleft" unicode="&#x2039;" horiz-adv-x="792" 
d="M659 965l-325 -449l325 -455h-206l-320 455l320 449h206z" />
    <glyph glyph-name="guilsinglright" unicode="&#x203a;" horiz-adv-x="792" 
d="M457 516l-324 449h205l321 -449l-321 -455h-205z" />
    <glyph glyph-name="fraction" unicode="&#x2044;" horiz-adv-x="104" 
d="M422 1477l110 -64l-849 -1476l-111 63z" />
    <glyph glyph-name="Euro" unicode="&#x20ac;" horiz-adv-x="1198" 
d="M770 -23q-221 0 -376 128t-204 372h-163v135h749l-76 -135h-290q66 -307 360 -307q199 0 299 158l150 -144q-158 -207 -449 -207zM27 776v135h163q45 250 198 386t382 137q297 0 449 -220l-154 -139q-92 166 -295 166q-158 0 -245 -93t-117 -237h536l-76 -135h-841z" />
    <glyph glyph-name="trademark" unicode="&#x2122;" horiz-adv-x="1673" 
d="M1538 1407v-789h-113v652l-221 -652h-127l-225 652v-652h-115v789h178l228 -659l223 659h172zM66 1407h598v-107h-240v-682h-119v682h-239v107z" />
    <glyph glyph-name="Omega" unicode="&#x2126;" horiz-adv-x="1513" 
d="M1444 735q0 -367 -299 -567h246v-168h-467v172q315 172 315 563q0 256 -126 392q-126 137 -334 137t-335 -138t-127 -391q0 -391 318 -563v-172h-467v168h246q-299 199 -299 567q0 324 182 511q182 188 481 188q298 0 482 -188t184 -511z" />
    <glyph glyph-name="arrowleft" unicode="&#x2190;" horiz-adv-x="1517" 
d="M1462 793v-191h-1036l457 -442h-291l-537 538l537 539h291l-457 -444h1036z" />
    <glyph glyph-name="arrowup" unicode="&#x2191;" horiz-adv-x="1517" 
d="M858 0h-192v1036l-443 -456v288l539 539l538 -539v-288l-442 456v-1036z" />
    <glyph glyph-name="arrowright" unicode="&#x2192;" horiz-adv-x="1517" 
d="M55 602v191h1037l-457 444h289l538 -539l-538 -538h-289l457 442h-1037z" />
    <glyph glyph-name="arrowdown" unicode="&#x2193;" horiz-adv-x="1517" 
d="M668 1407h190v-1036l442 456v-290l-538 -537l-539 537v290l445 -456v1036z" />
    <glyph glyph-name="arrowboth" unicode="&#x2194;" horiz-adv-x="2347" 
d="M1919 793l-457 442h289l539 -539l-539 -538h-289l457 444h-1491l457 -442h-289l-539 538l539 539h289l-457 -444h1491z" />
    <glyph glyph-name="arrowrightdown" unicode="&#x21b4;" horiz-adv-x="1517" 
d="M1288 195h-762l-204 204l639 -8l-734 731l133 135l725 -735l-2 639l205 -205v-761z" />
    <glyph glyph-name="partialdiff" unicode="&#x2202;" horiz-adv-x="1210" 
d="M610 -27q-227 0 -365 124t-116 366q16 195 142 319t309 125q138 -1 246 -67t139 -197q31 167 14 283q-16 116 -49 180t-101 105q-69 42 -163 42t-148 -53t-57 -153l-203 34q12 167 112 259t269 94q287 0 414 -178t102 -500q-39 -289 -74 -376q-88 -219 -172 -293
q-51 -46 -129 -80t-170 -34zM825 630q-74 93 -200 94q-125 1 -205 -80t-88 -212t68 -207q76 -75 192 -75t195 76t95 193q16 118 -57 211z" />
    <glyph glyph-name="Delta" unicode="&#x2206;" horiz-adv-x="1265" 
d="M686 1237l-424 -1061h846zM1300 0h-1228v176l506 1233h219l503 -1233v-176z" />
    <glyph glyph-name="product" unicode="&#x220f;" horiz-adv-x="1308" 
d="M1354 1407v-195h-187v-1212h-215v1212h-493v-1212h-215v1212h-185v195h1295z" />
    <glyph glyph-name="summation" unicode="&#x2211;" horiz-adv-x="1026" 
d="M995 1407v-193h-659l522 -618l-522 -619h659v-192h-944v178l533 633l-533 631v180h944z" />
    <glyph glyph-name="minus" unicode="&#x2212;" horiz-adv-x="1275" 
d="M1081 786v-174h-897v174h897z" />
    <glyph glyph-name="radical" unicode="&#x221a;" horiz-adv-x="1198" 
d="M61 651v174h351l233 -618l361 1227h182l-434 -1434h-203l-258 651h-232z" />
    <glyph glyph-name="infinity" unicode="&#x221e;" horiz-adv-x="1433" 
d="M973 956q94 0 161 -36q66 -36 98 -94q58 -107 58 -223t-58 -223q-32 -58 -98 -94t-157 -36q-162 0 -252 153q-86 -154 -248 -153q-245 0 -302 244q-13 55 -13 110q0 56 13 110q35 147 142 207q66 36 158 35q162 0 250 -151q90 151 248 151zM479 766q-141 0 -141 -163
t141 -163t170 164q-29 162 -170 162zM969 440q145 0 145 163t-145 163q-139 0 -168 -162q29 -164 168 -164z" />
    <glyph glyph-name="integral" unicode="&#x222b;" horiz-adv-x="534" 
d="M440 1128v-1208q0 -70 -14 -125q-20 -88 -97 -141t-162 -53t-140 24v156q29 -14 79 -14t93 29q41 30 41 83v1208q0 68 14 123q18 90 95 142t159 54q82 1 145 -24v-157q-37 16 -83 16t-88 -30t-42 -83z" />
    <glyph glyph-name="approxequal" unicode="&#x2248;" horiz-adv-x="1036" 
d="M410 328q-82 0 -82 -88h-140q0 231 209 231q72 0 155 -45t120 -45q78 0 78 90h139q0 -231 -207 -231q-70 0 -150 44t-122 44zM410 655q-82 0 -82 -88h-140q0 231 209 232q72 0 155 -45t120 -45q78 0 78 90h139q0 -231 -207 -232q-70 0 -150 44t-122 44z" />
    <glyph glyph-name="notequal" unicode="&#x2260;" horiz-adv-x="1198" 
d="M188 692v166h496l102 178l175 -28l-87 -150h168v-166h-264l-125 -221h389v-166h-487l-111 -192l-176 28l94 164h-174v166h271l127 221h-398z" />
    <glyph glyph-name="lessequal" unicode="&#x2264;" horiz-adv-x="1198" 
d="M1071 180v-180h-911v180h911zM1071 356l-911 383v156l911 385v-197l-721 -264l721 -262v-201z" />
    <glyph glyph-name="greaterequal" unicode="&#x2265;" horiz-adv-x="1198" 
d="M1061 739l-911 -383v201l720 262l-720 264v197l911 -385v-156zM1061 180v-180h-911v180h911z" />
    <glyph glyph-name="lozenge" unicode="&#x25ca;" horiz-adv-x="1368" 
d="M1036 707l-342 540l-346 -540l342 -545zM590 0l-463 707l469 702h199l462 -702l-469 -707h-198z" />
    <glyph glyph-name="CR" horiz-adv-x="1337" 
 />
    <glyph glyph-name="l.ss06" horiz-adv-x="499" 
d="M352 1434v-1434h-205v1434h205z" />
    <glyph glyph-name="y.ss02" horiz-adv-x="1112" 
d="M1030 1024l-528 -1413h-195l162 432l-397 981h217l276 -764l269 764h196z" />
    <glyph glyph-name="g.ss03" horiz-adv-x="1196" 
d="M568 870q-134 0 -202 -89t-69 -251q0 -336 281 -335q130 0 198 89q68 90 68 246t-71 248t-205 92zM1049 1024v-967q0 -467 -457 -467q-406 0 -457 328h207q10 -82 77 -127t179 -45t178 65q68 65 68 187v205q-96 -183 -306 -183t-332 136q-120 136 -120 383q0 245 119 375
t319 130q106 0 192 -49t134 -133l24 162h175z" />
    <glyph glyph-name="G.ss04" horiz-adv-x="1556" 
d="M784 154q217 0 321 108q103 109 109 295h-368v174h581v-67q0 -332 -169 -508t-471 -176t-489 189t-187 534t186 538t489 193q214 0 385 -97q89 -51 153 -148t87 -233h-211q-61 303 -414 304q-221 0 -343 -146q-121 -146 -121 -412t122 -407t340 -141z" />
    <glyph glyph-name="ydieresis.neogrotesk" horiz-adv-x="1030" 
d="M238 1208v205h215v-205h-215zM606 1208v205h215v-205h-215zM993 1024l-528 -1413h-195l162 432l-397 981h217l276 -764l269 764h196z" />
    <glyph glyph-name="ampersand.ss05" horiz-adv-x="1363" 
d="M618 1264q-76 0 -116 -48q-41 -48 -41 -124q0 -109 102 -218q62 13 114 45q105 65 103 177q0 76 -43 122t-119 46zM630 143q157 0 263 84l-389 437q-197 -76 -197 -248q0 -125 83 -199t240 -74zM248 1112q0 134 100 228t262 94t272 -80t109 -248q0 -270 -311 -365
l336 -370q39 78 45 198h211q-12 -195 -123 -350l197 -219h-254l-78 88q-143 -108 -389 -108t-387 112t-142 324q0 270 281 395q-129 125 -129 301z" />
    <glyph glyph-name="a.ss01" horiz-adv-x="1202" 
d="M303 504q-1 -164 69 -257t197 -93t204 87t77 267q0 124 -46 230q-26 60 -83 96t-141 36q-145 0 -211 -101t-66 -265zM1055 1024v-1024h-174l-23 162q-111 -182 -336 -182q-194 0 -312 134t-118 389t121 398t311 143q225 0 328 -180l29 160h174z" />
    <glyph glyph-name="yacute.neogrotesk" horiz-adv-x="1030" 
d="M508 1413h246l-219 -266h-168zM240 -406h-117v175h86q67 -1 101 29t63 108l51 137l-397 981h217l276 -764l268 764h197l-459 -1233q-77 -197 -286 -197z" />
    <glyph glyph-name="fl.ss06" horiz-adv-x="1150" 
d="M395 1147v-123h404v410h205v-1434h-205v850h-404v-850h-205v850h-153v174h153v133q0 149 92 219t228 70q29 0 98 -8v-174q-49 8 -82 8q-131 0 -131 -125z" />
    <glyph glyph-name="ffl.ss06" horiz-adv-x="1814" 
d="M395 1147v-123h430v133q0 149 91 219t229 70q29 0 98 -8v-174q-49 8 -82 8q-131 0 -131 -125v-123h432v389h205v-1413h-205v850h-432v-850h-205v850h-430v-850h-205v850h-153v174h153v133q0 149 92 219t228 70q29 0 98 -8v-174q-49 8 -82 8q-131 0 -131 -125z" />
    <glyph glyph-name="arrowleftup" horiz-adv-x="1517" 
d="M227 1194h762l205 -205l-639 8l733 -729l-133 -135l-725 735l2 -641l-205 205v762z" />
    <glyph glyph-name="arrowrightup" horiz-adv-x="1517" 
d="M1288 1202v-762l-205 -204l9 638l-730 -735l-137 135l736 725l-639 -2l204 205h762z" />
    <glyph glyph-name="arrowleftdown" horiz-adv-x="1515" 
d="M227 188v762l205 205l-8 -639l731 733l133 -131l-735 -727l641 2l-205 -205h-762z" />
    <glyph glyph-name="agrave.ss01" horiz-adv-x="1202" 
d="M328 1413h245l142 -266h-168zM303 504q-1 -164 69 -257t197 -93t204 87t77 267q0 124 -46 230q-26 60 -83 96t-141 36q-145 0 -211 -101t-66 -265zM1055 1024v-1024h-174l-23 162q-111 -182 -336 -182q-194 0 -312 134t-118 389t121 398t311 143q225 0 328 -180l29 160
h174z" />
    <glyph glyph-name="aacute.ss01" horiz-adv-x="1202" 
d="M602 1413h246l-219 -266h-168zM303 504q-1 -164 69 -257t197 -93t204 87t77 267q0 124 -46 230q-26 60 -83 96t-141 36q-145 0 -211 -101t-66 -265zM1055 1024v-1024h-174l-23 162q-111 -182 -336 -182q-194 0 -312 134t-118 389t121 398t311 143q225 0 328 -180l29 160
h174z" />
    <glyph glyph-name="acircumflex.ss01" horiz-adv-x="1202" 
d="M692 1413l209 -266h-149l-158 166l-160 -166h-147l207 266h198zM303 504q-1 -164 69 -257t197 -93t204 87t77 267q0 124 -46 230q-26 60 -83 96t-141 36q-145 0 -211 -101t-66 -265zM1055 1024v-1024h-174l-23 162q-111 -182 -336 -182q-194 0 -312 134t-118 389t121 398
t311 143q225 0 328 -180l29 160h174z" />
    <glyph glyph-name="atilde.ss01" horiz-adv-x="1202" 
d="M727 1171q-67 1 -145 53t-123 52q-80 0 -80 -86h-139q0 223 213 223q69 0 147 -53t119 -53q76 0 82 86h139q0 -88 -46 -155t-167 -67zM303 504q-1 -164 69 -257t197 -93t204 87t77 267q0 124 -46 230q-26 60 -83 96t-141 36q-145 0 -211 -101t-66 -265zM1055 1024v-1024
h-174l-23 162q-111 -182 -336 -182q-194 0 -312 134t-118 389t121 398t311 143q225 0 328 -180l29 160h174z" />
    <glyph glyph-name="adieresis.ss01" horiz-adv-x="1202" 
d="M301 1208v205h215v-205h-215zM670 1208v205h215v-205h-215zM303 504q-1 -164 69 -257t197 -93t204 87t77 267q0 124 -46 230q-26 60 -83 96t-141 36q-145 0 -211 -101t-66 -265zM1055 1024v-1024h-174l-23 162q-111 -182 -336 -182q-194 0 -312 134t-118 389t121 398
t311 143q225 0 328 -180l29 160h174z" />
    <glyph glyph-name="aring.ss01" horiz-adv-x="1202" 
d="M592 1583q92 -1 157 -65t65 -156t-66 -158q-64 -66 -156 -66t-157 66t-64 158q0 92 64 157q65 64 157 64zM592 1268q38 0 66 28t28 66t-28 66t-66 28t-68 -28q-28 -28 -28 -66t28 -67q29 -27 68 -27zM303 504q-1 -164 69 -257t197 -93t204 87t77 267q0 124 -46 230
q-26 60 -83 96t-141 36q-145 0 -211 -101t-66 -265zM1055 1024v-1024h-174l-23 162q-111 -182 -336 -182q-194 0 -312 134t-118 389t121 398t311 143q225 0 328 -180l29 160h174z" />
    <glyph glyph-name="one.osf" horiz-adv-x="962" 
d="M584 1147v-973h286v-174h-778v174h287v610h-262v174h84q178 0 178 189h205z" />
    <glyph glyph-name="two.osf" horiz-adv-x="1126" 
d="M571 1167q215 0 321 -109q105 -110 105 -285t-128 -318t-457 -281h602v-174h-922v188q447 194 581 327q69 69 91 121q23 52 22 118q0 240 -223 239q-223 0 -241 -239h-211q17 197 131 305t329 108z" />
    <glyph glyph-name="zero.osf" horiz-adv-x="1179" 
d="M590 1167q133 0 234 -51q178 -90 245 -328q29 -102 29 -216t-29 -215q-108 -377 -479 -377q-132 0 -234 51t-159 138q-115 176 -115 403q0 228 115 406q57 87 159 138t234 51zM590 993q-147 1 -222 -113t-75 -309t74 -307q73 -112 223 -110q150 0 224 112t73 306
q0 194 -75 308t-222 113z" />
    <glyph glyph-name="three.osf" horiz-adv-x="1071" 
d="M135 1167h803v-174l-348 -372q182 0 303 -113t121 -315q0 -203 -130 -331t-346 -128t-348 108q-133 108 -147 310h209q10 -124 84 -184t200 -60t196 73q71 73 71 203t-75 196q-75 67 -204 66h-153v175l315 372h-551v174z" />
    <glyph glyph-name="four.osf" horiz-adv-x="1159" 
d="M729 174v690l-434 -690h434zM934 -246h-205v246h-674v176l674 991h205v-993h188v-174h-188v-246z" />
    <glyph glyph-name="five.osf" horiz-adv-x="1132" 
d="M977 1147v-174h-592l-57 -449q113 125 298 125t305 -128t120 -336q-1 -207 -139 -329t-340 -122t-330 103t-140 304h211q8 -117 81 -175q72 -58 188 -58t187 77t71 205t-69 212q-69 83 -189 83t-173 -49q-52 -49 -73 -104l-205 74l82 741h764z" />
    <glyph glyph-name="six.osf" horiz-adv-x="1208" 
d="M623 154q133 0 203 74t69 202q0 129 -71 202t-199 73q-87 0 -151 -37t-92 -90q-52 -98 -52 -160q12 -120 86 -192t207 -72zM668 868q190 0 314 -112t124 -336q0 -184 -124 -312t-357 -128q-305 0 -420 206q-103 187 -103 503q0 315 130 509t393 195q207 1 321 -105
t127 -254h-205q-31 184 -243 185q-330 0 -320 -553q107 202 363 202z" />
    <glyph glyph-name="seven.osf" horiz-adv-x="1017" 
d="M926 1147v-174l-523 -1219h-206l528 1219h-705v174h906z" />
    <glyph glyph-name="eight.osf" horiz-adv-x="1216" 
d="M607 1219q-85 0 -159 -43t-73 -153t69 -158t163 -48t165 50t70 158t-75 151t-160 43zM581 154q322 0 322 237q0 125 -86 189t-210 63q-124 0 -209 -63t-85 -189q0 -141 125 -203q67 -34 143 -34zM164 1028q0 162 116 263t328 101t329 -102q116 -104 116 -262
q1 -102 -53 -179t-134 -120q248 -106 248 -342q0 -193 -137 -301t-372 -106q-235 0 -369 106t-134 301q0 240 250 342q-188 96 -188 299z" />
    <glyph glyph-name="nine.osf" horiz-adv-x="1204" 
d="M569 991q-119 1 -191 -69t-71 -196q0 -126 70 -201t176 -75t171 34q66 34 94 84q52 92 52 151q-33 272 -301 272zM541 287q-186 0 -313 113q-126 114 -126 314t124 326q124 127 343 127q127 0 223 -39t155 -102q155 -168 155 -577q0 -189 -45 -333q-81 -259 -290 -344
q-91 -38 -198 -38q-201 0 -315 108t-123 258h205q14 -92 76 -141t157 -49q344 0 326 569q-108 -192 -354 -192z" />
    <glyph glyph-name="zero.tf" 
d="M606 1434q528 0 528 -730t-528 -729q-528 -1 -528 729t528 730zM606 1260q-198 0 -263 -178q-54 -143 -54 -380q0 -236 54 -378q66 -174 264 -174t262 174q53 139 55 378q0 404 -153 511q-67 47 -165 47z" />
    <glyph glyph-name="zero.zero.tf" 
d="M924 698q0 113 -13 211l-573 -571q72 -184 268 -184q98 0 165 45q153 103 153 499zM289 702q0 -131 14 -206l571 573q-73 191 -270 191t-261 -178q-54 -143 -54 -380zM606 1434q528 0 528 -728t-528 -726q-528 0 -528 727t528 727z" />
    <glyph glyph-name="one.tf" 
d="M750 1413v-1239h368v-174h-942v174h369v877h-262v174h84q178 0 178 188h205z" />
    <glyph glyph-name="two.tf" 
d="M604 1434q207 0 332 -112t125 -293t-143 -365t-517 -490h682v-174h-950v186q466 372 599 546q70 92 94 152t24 148t-56 158t-186 70q-229 0 -250 -273h-211q12 219 131 333t326 114z" />
    <glyph glyph-name="three.tf" 
d="M346 397q20 -243 284 -243q126 0 196 78t71 202q0 256 -279 256h-153v174l313 375h-549v174h803v-174l-348 -375q184 0 304 -106t120 -310t-130 -336t-345 -132t-348 108t-148 309h209z" />
    <glyph glyph-name="four.tf" 
d="M754 557v553l-435 -553h435zM958 0h-204v383h-674v176l674 854h204v-856h189v-174h-189v-383z" />
    <glyph glyph-name="five.tf" 
d="M614 731q-178 0 -241 -147l-205 75l80 754h764v-174h-592l-55 -463q115 129 301 129t303 -122q117 -121 117 -331t-139 -341t-339 -131t-329 104t-142 311h211q8 -121 83 -181t189 -60t184 83t70 213t-68 206t-192 75z" />
    <glyph glyph-name="six.tf" 
d="M614 154q133 0 203 82t70 217t-71 207t-200 73q-88 0 -151 -37t-91 -90q-52 -98 -52 -160q12 -132 86 -212t206 -80zM659 897q191 0 315 -112q124 -111 124 -321t-124 -347t-358 -137q-306 0 -419 215q-103 195 -103 519t130 522t392 198q207 0 322 -110t127 -261h-205
q-31 197 -244 197q-330 0 -319 -566q106 203 362 203z" />
    <glyph glyph-name="seven.tf" 
d="M1061 1413v-174l-522 -1239h-207l528 1239h-704v174h905z" />
    <glyph glyph-name="eight.tf" 
d="M605 838q95 0 165 51t70 160q0 63 -25 108q-55 99 -209 103q-73 0 -128 -28q-107 -55 -106 -175q2 -119 70 -169t163 -50zM901 408q0 124 -86 190t-208 66t-209 -67t-87 -189q0 -78 29 -132t77 -80q85 -46 189 -46t190 46q105 57 105 212zM162 1049q0 169 116 277
t330 108t328 -109q115 -109 115 -276q1 -101 -53 -179t-134 -120q248 -104 248 -342q0 -205 -137 -319t-372 -114t-369 113t-134 320q0 240 250 342q-188 96 -188 299z" />
    <glyph glyph-name="nine.tf" 
d="M605 1257q-132 -1 -204 -71q-71 -70 -71 -200t70 -205t198 -74q214 0 282 204q13 39 11 64q-10 119 -82 201t-204 81zM569 543q-197 -1 -321 115t-125 317q0 201 124 330t357 129q518 0 518 -711q0 -203 -43 -353t-119 -232q-148 -163 -359 -163q-212 0 -325 109
t-124 258h206q14 -92 76 -141t160 -49q338 0 324 583q-109 -192 -349 -192z" />
    <glyph glyph-name="zero.zero" horiz-adv-x="1220" 
d="M928 672q0 102 -15 217l-567 -567q74 -168 264 -168q98 0 165 43q153 99 153 475zM293 682q0 -131 14 -207l567 572q-78 172 -271 172t-256 -171q-54 -140 -54 -366zM610 1393q528 -1 528 -707t-528 -706t-528 706t528 707z" />
    <glyph glyph-name="yacute.ss02" horiz-adv-x="1112" 
d="M563 1413h246l-219 -266h-168zM1030 1024l-528 -1413h-195l162 432l-397 981h217l276 -764l269 764h196z" />
    <glyph glyph-name="ydieresis.ss02" horiz-adv-x="1112" 
d="M274 1208v205h215v-205h-215zM643 1208v205h215v-205h-215zM1030 1024l-528 -1413h-195l162 432l-397 981h217l276 -764l269 764h196z" />
    <glyph glyph-name="parenleft.case" horiz-adv-x="669" 
d="M322 694q0 -480 217 -878h-191q-238 401 -238 878t238 883h191q-217 -403 -217 -883z" />
    <glyph glyph-name="parenright.case" horiz-adv-x="669" 
d="M254 698q0 479 -217 879h190q238 -401 238 -879t-238 -882h-190q217 403 217 882z" />
    <glyph glyph-name="bracketleft.case" horiz-adv-x="661" 
d="M129 -184v1761h422v-174h-217v-1413h217v-174h-422z" />
    <glyph glyph-name="bracketright.case" horiz-adv-x="661" 
d="M477 1577v-1761h-422v174h217v1413h-217v174h422z" />
    <glyph glyph-name="braceleft.case" horiz-adv-x="788" 
d="M303 477q0 131 -174 131v174q174 0 174 133v345q0 178 80 248t264 69h31v-174h-25q-77 0 -111 -42t-34 -151v-311q0 -80 -22 -126t-74 -77q52 -33 74 -79t22 -125v-371q0 -131 145 -131h25v-174h-31q-184 0 -264 68t-80 247v346z" />
    <glyph glyph-name="braceright.case" horiz-adv-x="788" 
d="M430 131q0 -178 -81 -247t-263 -68h-31v174h23q147 0 147 131v371q1 80 21 126t73 78q-53 31 -73 77t-21 126v311q0 109 -36 151t-111 42h-23v174h31q182 0 263 -70t81 -247v-345q0 -133 174 -133v-174q-178 0 -174 -131v-346z" />
    <glyph glyph-name="questiondown.case" horiz-adv-x="1136" 
d="M672 1413v-225h-215v225h215zM530 -20q-198 0 -308 100t-110 269t162 308q115 96 152 167t37 227h205q0 -189 -42 -279t-121 -162t-106 -100q-77 -82 -76 -167t55 -137t170 -52t174 68t58 151h207q0 -139 -102 -259q-51 -60 -143 -97t-212 -37z" />
    <glyph glyph-name="guillemotleft.case" horiz-adv-x="1202" 
d="M1069 1128l-326 -448l326 -455h-207l-319 455l319 448h207zM659 1128l-325 -448l325 -455h-206l-320 455l320 448h206z" />
    <glyph glyph-name="guillemotright.case" horiz-adv-x="1202" 
d="M866 680l-323 448h205l321 -448l-321 -455h-205zM457 680l-324 448h205l321 -448l-321 -455h-205z" />
    <glyph glyph-name="guilsinglleft.case" horiz-adv-x="792" 
d="M659 1128l-325 -448l325 -455h-206l-320 455l320 448h206z" />
    <glyph glyph-name="guilsinglright.case" horiz-adv-x="792" 
d="M457 680l-324 448h205l321 -448l-321 -455h-205z" />
    <glyph glyph-name="exclamdown.case" horiz-adv-x="643" 
d="M217 0l35 1051h137l37 -1051h-209zM213 1188v225h215v-225h-215z" />
    <glyph glyph-name="underscore.case" horiz-adv-x="974" 
d="M0 -250v103h975v-103h-975z" />
    <glyph glyph-name="bullet.case" horiz-adv-x="835" 
d="M688 678q0 -113 -79 -192q-79 -78 -191 -78t-192 78q-79 78 -79 192t79 192t192 78q114 0 192 -78t78 -192z" />
    <glyph glyph-name="periodcentered.case" horiz-adv-x="432" 
d="M100 543v225h230v-225h-230z" />
    <glyph glyph-name="hyphen.case" horiz-adv-x="780" 
d="M688 573v-174h-596v174h596z" />
    <glyph glyph-name="endash.case" horiz-adv-x="1159" 
d="M92 457v192h975v-192h-975z" />
    <glyph glyph-name="emdash.case" horiz-adv-x="2164" 
d="M92 457v192h1981v-192h-1981z" />
    <glyph glyph-name="bar.case" horiz-adv-x="501" 
d="M221 -184v1761h205v-1761h-205z" />
    <glyph glyph-name="brokenbar.case" horiz-adv-x="501" 
d="M147 -184v741h205v-741h-205zM147 836v741h205v-741h-205z" />
    <glyph glyph-name="I.ss07" horiz-adv-x="700" 
d="M74 0v174h174v1065h-174v174h553v-174h-174v-1065h174v-174h-553z" />
    <glyph glyph-name="zero.tosf" 
d="M590 1167q133 0 234 -51q178 -90 245 -328q29 -102 29 -216t-29 -215q-108 -377 -479 -377q-132 0 -234 51t-159 138q-115 176 -115 403q0 228 115 406q57 87 159 138t234 51zM590 993q-147 1 -222 -113t-75 -309t74 -307q73 -112 223 -110q150 0 224 112t73 306
q0 194 -75 308t-222 113z" />
    <glyph glyph-name="one.tosf" 
d="M741 1147v-973h369v-174h-942v174h369v610h-263v174h84q178 0 179 189h204z" />
    <glyph glyph-name="two.tosf" 
d="M612 1167q215 0 321 -109q105 -110 105 -285t-128 -318t-457 -281h602v-174h-922v188q447 194 581 327q69 69 91 121q23 52 22 118q0 240 -223 239q-223 0 -242 -239h-210q18 197 132 305t328 108z" />
    <glyph glyph-name="three.tosf" 
d="M201 1167h803v-174l-349 -372q182 0 303 -113t121 -315q0 -203 -130 -331t-345 -128t-348 108t-147 310h208q10 -124 84 -184t200 -60t197 73q70 73 70 203t-74 196q-75 67 -204 66h-154v175l318 372h-553v174z" />
    <glyph glyph-name="four.tosf" 
d="M766 174v690l-434 -690h434zM971 -246h-205v246h-674v176l674 991h205v-993h188v-174h-188v-246z" />
    <glyph glyph-name="five.tosf" 
d="M1012 1147v-174h-592l-55 -449q109 125 295 125t306 -128t120 -336q0 -207 -139 -329q-138 -122 -339 -122q-202 0 -330 103t-141 304h211q8 -117 81 -175t189 -58t186 77t70 205t-68 212q-69 83 -188 83t-176 -53t-69 -100l-205 74l80 741h764z" />
    <glyph glyph-name="six.tosf" 
d="M619 154q133 0 203 82t69 217q0 135 -71 207t-199 73q-87 0 -151 -37t-92 -90q-52 -98 -52 -160q12 -132 86 -212t207 -80zM664 897q190 0 314 -112q124 -111 124 -321t-124 -347t-357 -137q-307 0 -420 215q-103 195 -103 519t130 522t393 198q207 0 321 -110t127 -261
h-205q-31 197 -243 197q-330 0 -320 -566q107 203 363 203z" />
    <glyph glyph-name="seven.tosf" 
d="M1059 1147v-174l-522 -1219h-207l528 1219h-704v174h905z" />
    <glyph glyph-name="eight.tosf" 
d="M605 838q95 0 165 52t70 159q0 63 -25 108q-55 99 -209 103q-73 0 -128 -28q-107 -55 -106 -175q2 -119 70 -169t163 -50zM901 408q0 124 -87 190t-209 66t-208 -67t-86 -189q0 -78 29 -132t77 -80q85 -46 189 -46t190 46q105 57 105 212zM162 1049q0 169 116 277
t328 108t329 -110q116 -110 116 -275q1 -101 -53 -179t-134 -120q248 -106 248 -342q0 -205 -137 -319t-372 -114t-369 113t-134 320q0 240 250 342q-188 96 -188 299z" />
    <glyph glyph-name="nine.tosf" 
d="M573 991q-119 1 -191 -69t-71 -196q0 -126 70 -201t176 -75t171 34q66 34 94 84q52 92 52 151q-33 272 -301 272zM545 287q-186 0 -313 113q-126 114 -126 314t124 326q124 127 343 127q127 0 223 -39t155 -102q155 -168 155 -577q0 -189 -45 -333q-81 -259 -290 -344
q-91 -38 -198 -38q-201 0 -315 108t-123 258h205q14 -92 76 -141t157 -49q344 0 326 569q-108 -192 -354 -192z" />
    <glyph glyph-name="numbersign.tf" 
d="M528 881l-106 -400h258l108 400h-260zM45 311v170h176l107 400h-222v174h269l100 358h201l-101 -358h259l100 358h199l-103 -358h139v-174h-186l-106 -400h231v-170h-277l-83 -311h-197l84 311h-258l-84 -311h-201l84 311h-131z" />
    <glyph glyph-name="dollar.tf" 
d="M309 1057q-1 -90 57 -135t166 -74v409q-223 -24 -223 -200zM944 387q0 105 -63 155t-197 83v-473q260 22 260 235zM684 1579v-149q391 -33 424 -390h-211q-10 94 -59 150t-154 67v-444l72 -18q291 -68 367 -237q32 -71 32 -163q0 -186 -125 -294t-346 -119v-150h-152v152
q-225 18 -341 134t-128 300h211q16 -229 258 -262v503q-214 47 -324 131t-110 250t110 270t324 120v149h152z" />
    <glyph glyph-name="plus.tf" 
d="M520 1001h174v-393h393v-174h-393v-391h-174v391h-393v174h393v393z" />
    <glyph glyph-name="less.tf" 
d="M1061 57l-909 387v156l909 387v-205l-678 -260l678 -260v-205z" />
    <glyph glyph-name="equal.tf" 
d="M156 395v174h899v-174h-899zM156 782v174h899v-174h-899z" />
    <glyph glyph-name="greater.tf" 
d="M152 985l909 -387v-154l-909 -387v205l679 260l-679 260v203z" />
    <glyph glyph-name="asciitilde.tf" 
d="M477 565q-82 0 -82 -90h-139q0 233 209 234q72 0 155 -45t119 -46q78 0 78 91h139q0 -233 -206 -234q-70 0 -151 45t-122 45z" />
    <glyph glyph-name="cent.tf" 
d="M610 1075q-122 0 -203 -90t-81 -271q0 -180 84 -268t217 -88q223 0 262 197h209q-27 -154 -131 -256t-297 -115v-184h-105v186q-209 16 -329 156t-121 372q0 232 121 373t329 160v162h105v-162q190 -15 296 -125t121 -262h-208q-12 94 -79 154q-68 60 -190 61z" />
    <glyph glyph-name="sterling.tf" 
d="M631 1413q412 0 411 -383h-213q0 115 -52 158t-141 43t-142 -45t-54 -137v-344h359v-162h-359v-219q0 -102 -82 -142h426q115 4 142 67q22 50 22 122h215q0 -190 -90 -279t-276 -92h-742v182q124 0 151 56q21 44 21 84v221h-170v162h170v344q0 126 79 235q42 57 126 93
t199 36z" />
    <glyph glyph-name="currency.tf" 
d="M606 -14q-170 0 -307 100l-147 -149l-119 118l147 150q-100 137 -100 307t100 307l-147 148l119 118l147 -147q135 98 307 98t307 -98l150 147l119 -118l-150 -148q100 -137 100 -307t-100 -307l150 -150l-119 -118l-150 149q-137 -100 -307 -100zM607 160q146 0 250 103
q103 103 103 249t-106 250q-104 102 -248 102t-248 -103t-104 -249t103 -249q104 -103 250 -103z" />
    <glyph glyph-name="yen.tf" 
d="M1044 686v-137h-335v-162h335v-137h-335v-250h-207v250h-346v137h346v162h-346v137h272l-381 727h232l335 -684l332 684h219l-385 -727h264z" />
    <glyph glyph-name="section.tf" 
d="M401 684q0 -89 83 -121q57 -22 144 -33q86 -12 115 -18q89 24 91 137q0 84 -75 114q-50 20 -130 33t-105 19q-123 -23 -123 -131zM604 1434q334 0 402 -226q14 -49 14 -106h-211q0 76 -42 121t-163 45q-203 0 -203 -138q0 -133 229 -164q95 -14 189 -34t161 -86t67 -182
q0 -154 -142 -224q59 -29 101 -93q41 -65 41 -157q-1 -92 -45 -156t-116 -94q-124 -50 -267 -52q-142 -1 -233 30q-150 51 -201 192q-19 54 -19 117h211q0 -174 229 -174t230 142q0 71 -67 107t-161 52t-189 39t-162 89t-67 180q0 74 38 140t100 93q-57 23 -98 88
q-40 66 -40 147q0 120 96 212t318 92z" />
    <glyph glyph-name="logicalnot.tf" 
d="M119 545v166h975v-545h-201v379h-774z" />
    <glyph glyph-name="plusminus.tf" 
d="M514 1264h182v-365h365v-182h-365v-367h-182v367h-362v182h362v365zM1061 166v-166h-909v166h909z" />
    <glyph glyph-name="multiply.tf" 
d="M207 797l123 123l276 -277l277 279l123 -123l-277 -279l277 -276l-123 -123l-277 276l-276 -274l-123 123l276 274z" />
    <glyph glyph-name="divide.tf" 
d="M1051 698v-180h-887v180h887zM506 137v223h211v-223h-211zM506 856v223h213v-223h-213z" />
    <glyph glyph-name="florin.tf" 
d="M973 1257q-47 1 -94 -29t-58 -85l-30 -164h215l-29 -162h-213q-122 -684 -146 -819t-40 -193q-31 -98 -120 -155q-90 -58 -180 -58t-139 25l27 154q88 -42 175 14q48 31 56 84l168 948h-149l28 162h150q37 193 47 227q31 98 120 156t176 58q87 1 142 -23l-26 -156
q-33 16 -80 16z" />
    <glyph glyph-name="Euro.tf" 
d="M758 -23q-203 0 -345 128t-188 372h-166v135h697l-76 -135h-238q59 -307 316 -307q176 0 262 158l151 -144q-145 -207 -413 -207zM59 776v135h164q43 250 183 386t352 137q272 0 413 -220l-153 -139q-84 166 -260 166q-252 0 -318 -330h484l-76 -135h-789z" />
    <glyph glyph-name="minus.tf" 
d="M1055 786v-174h-899v174h899z" />
    <glyph glyph-name="zero.zero.osf" horiz-adv-x="1220" 
d="M606 993q-145 -1 -219 -115t-74 -311q0 -100 23 -178l491 498q-76 106 -221 106zM907 580q0 86 -22 170l-492 -494q75 -102 221 -102t220 112q73 113 73 314zM610 1167q132 0 234 -51q178 -90 242 -314q64 -225 4 -444q-107 -378 -480 -378q-133 0 -234 51
q-178 90 -245 327q-29 102 -29 215q0 227 115 405q57 87 159 138t234 51z" />
    <glyph glyph-name="zero.zero.tosf" horiz-adv-x="1220" 
d="M606 993q-145 -1 -219 -115t-74 -311q0 -100 23 -178l491 498q-76 106 -221 106zM907 580q0 86 -22 170l-492 -494q75 -102 221 -102t220 112q73 113 73 314zM610 1167q132 0 234 -51q178 -90 242 -314q64 -225 4 -444q-107 -378 -480 -378q-133 0 -234 51
q-178 90 -245 327q-29 102 -29 215q0 227 115 405q57 87 159 138t234 51z" />
    <glyph glyph-name="arrowleft.ss08" horiz-adv-x="1517" 
d="M352 596h1116v-123h-1116v-231l-291 293l291 292v-231z" />
    <glyph glyph-name="arrowright.ss08" horiz-adv-x="1517" 
d="M1178 596v231l290 -292l-290 -293v231h-1117v123h1117z" />
    <glyph glyph-name="arrowup.ss08" horiz-adv-x="1515" 
d="M702 1116h-231l293 291l293 -291h-232v-1116h-123v1116z" />
    <glyph glyph-name="arrowdown.ss08" horiz-adv-x="1517" 
d="M702 291v1116h123v-1116h232l-293 -291l-293 291h231z" />
    <glyph glyph-name="arrowboth.ss08" horiz-adv-x="2183" 
d="M352 596h1116v231l291 -292l-291 -293v231h-1116v-231l-291 293l291 292v-231z" />
    <glyph glyph-name="arrowleftup.ss08" horiz-adv-x="1517" 
d="M268 1024h412l-164 -162l791 -790l-88 -86l-789 788l-162 -164v414z" />
    <glyph glyph-name="arrowrightup.ss08" horiz-adv-x="1517" 
d="M1307 1024v-414l-162 164l-789 -788l-88 86l791 790l-164 162h412z" />
    <glyph glyph-name="arrowleftdown.ss08" horiz-adv-x="1515" 
d="M268 0v414l162 -164l789 788l88 -86l-791 -790l164 -162h-412z" />
    <glyph glyph-name="arrowrightdown.ss08" horiz-adv-x="1517" 
d="M1307 0h-412l164 162l-791 790l88 86l789 -788l162 164v-414z" />
    </font>
</defs>
</svg>
