<?xml version="1.0" standalone="no"?>
<!DOCTYPE svg PUBLIC "-//W3C//DTD SVG 1.1//EN" "http://www.w3.org/Graphics/SVG/1.1/DTD/svg11.dtd" >
<svg xmlns="http://www.w3.org/2000/svg">
<metadata>
Created by FontPrep 20130207 at Tue Sep  8 17:39:25 2015
 By Marcos Dopico Castro
Copyright (c) 201332015 by Marcos Dopico // MaisTypes. All rights reserved.
</metadata>
<defs>
<font id="b3da55f968c2b20d95b3cd2a41f050cf" horiz-adv-x='1024' >
  <font-face 
    font-family="MaisGrotesk-Book"
    font-weight="400"
    font-stretch="normal"
    units-per-em="2048"
    panose-1="0 0 0 0 0 0 0 0 0 0"
    ascent="1536"
    descent="-512"
    x-height="1024"
    cap-height="1413"
    bbox="-424 -410 2322 1931"
    underline-thickness="102"
    underline-position="-102"
    unicode-range="U+0020-FB04"
  />
<missing-glyph horiz-adv-x="829" 
d="M475 735l244 -524v1051zM414 606l-232 -497h465zM182 1364l232 -498l233 498h-465zM354 735l-245 531v-1059zM829 1473v-1473h-829v1473h829z" />
    <glyph glyph-name="ellipsis" unicode="&#x2e;&#x2e;&#x2e;" horiz-adv-x="1239" 
d="M887 0v195h196v-195h-196zM520 0v195h197v-195h-197zM156 0v195h196v-195h-196z" />
    <glyph glyph-name="ff" unicode="ff" horiz-adv-x="1261" 
d="M985 1178v-154h203v-139h-203v-885h-164v885h-467v-885h-164v885h-151v139h151v158q0 141 86 202t213 62q45 0 89 -8v-138q-37 6 -84 7q-139 0 -140 -129v-154h467v158q0 141 86 202t213 62q45 0 88 -8v-138q-41 6 -84 7q-139 0 -139 -129z" />
    <glyph glyph-name="fi" unicode="fi" horiz-adv-x="1099" 
d="M944 1413v-184h-164v184h164zM354 1178v-154h590v-1024h-164v885h-426v-885h-164v885h-151v139h151v158q0 141 86 202t213 62q23 0 89 -8v-138q-37 6 -84 7q-140 0 -140 -129z" />
    <glyph glyph-name="fl" unicode="fl" horiz-adv-x="1169" 
d="M354 1178v-154h426v389h164v-1175q0 -68 30 -90t97 -21h21v-133q-37 -4 -78 -4q-233 0 -234 239v656h-426v-885h-164v885h-151v139h151v158q0 141 86 202t213 62q23 0 89 -8v-138q-37 6 -84 7q-140 0 -140 -129z" />
    <glyph glyph-name="ffi" unicode="ffi" horiz-adv-x="1730" 
d="M1411 1229v184h164v-184h-164zM354 1178v-154h447v158q0 141 85 202t212 62q47 0 90 -8v-138q-39 6 -84 7q-139 0 -139 -129v-154h610v-1024h-164v885h-446v-885h-164v885h-447v-885h-164v885h-151v139h151v158q0 141 86 202t213 62q45 0 89 -8v-138q-37 6 -84 7
q-140 0 -140 -129z" />
    <glyph glyph-name="ffl" unicode="ffl" horiz-adv-x="1800" 
d="M1575 1413v-1175q0 -68 30 -90t97 -21h20v-133q-37 -4 -77 -4q-233 0 -234 239v656h-446v-885h-164v885h-447v-885h-164v885h-151v139h151v158q0 141 86 202t213 62q45 0 89 -8v-138q-37 6 -84 7q-139 0 -140 -129v-154h447v158q0 141 85 202t212 62q47 0 90 -8v-138
q-39 6 -84 7q-139 0 -139 -129v-154h446v389h164z" />
    <glyph glyph-name="ft" unicode="ft" horiz-adv-x="1247" 
d="M1042 -10q-126 0 -194 82t-68 235v578h-426v-885h-164v885h-151v139h151v129q0 174 81 232t221 59q43 0 86 -6v-133h-84q-139 0 -140 -119v-162h426v270l164 52v-322h225v-139h-225v-627q0 -59 41 -95t102 -36q21 0 82 6v-129q-68 -14 -127 -14z" />
    <glyph glyph-name="fj" unicode="fj" horiz-adv-x="1058" 
d="M780 1229v184h164v-184h-164zM354 1178v-154h590v-1169q0 -135 -81 -195t-170 -59q-89 0 -136 4v135h82q59 0 100 31t41 90v1024h-426v-885h-164v885h-151v139h151v158q0 141 86 202t213 62q23 0 89 -8v-138q-37 6 -84 7q-140 0 -140 -129z" />
    <glyph glyph-name="ffj" unicode="ffj" horiz-adv-x="1689" 
d="M1411 1229v184h164v-184h-164zM354 1178v-154h447v158q0 141 85 202t212 62q47 0 90 -8v-138q-39 6 -84 7q-139 0 -139 -129v-154h610v-1169q0 -129 -82 -193t-163 -63q-81 0 -144 14v129q39 -6 84 -6q82 0 112 48t29 155v946h-446v-885h-164v885h-447v-885h-164v885
h-151v139h151v158q0 141 86 202t213 62q45 0 89 -8v-138q-37 6 -84 7q-140 0 -140 -129z" />
    <glyph glyph-name="fft" unicode="fft" horiz-adv-x="1898" 
d="M354 1178v-154h447v158q0 141 85 202t212 62q47 0 90 -8v-138q-39 6 -84 7q-139 0 -139 -129v-154h446v270l164 52v-322h205v-139h-205v-652q0 -117 139 -116q49 0 107 12v-129q-61 -20 -167 -20t-174 58t-69 177v670h-446v-885h-164v885h-447v-885h-164v885h-151v139
h151v158q0 141 86 202t213 62q45 0 89 -8v-138q-37 6 -84 7q-140 0 -140 -129z" />
    <glyph glyph-name=".notdef" horiz-adv-x="829" 
d="M475 735l244 -524v1051zM414 606l-232 -497h465zM182 1364l232 -498l233 498h-465zM354 735l-245 531v-1059zM829 1473v-1473h-829v1473h829z" />
    <glyph glyph-name=".null" horiz-adv-x="0" 
 />
    <glyph glyph-name="nonmarkingreturn" horiz-adv-x="681" 
 />
    <glyph glyph-name="space" unicode=" " horiz-adv-x="524" 
 />
    <glyph glyph-name="exclam" unicode="!" horiz-adv-x="636" 
d="M229 0v195h179v-195h-179zM264 332l-35 1102h177l-33 -1102h-109z" />
    <glyph glyph-name="quotedbl" unicode="&#x22;" horiz-adv-x="772" 
d="M463 874v553h153v-553h-153zM156 874v553h153v-553h-153z" />
    <glyph glyph-name="numbersign" unicode="#" horiz-adv-x="1269" 
d="M543 901l-117 -430h299l115 430h-297zM78 334v137h190l115 430h-244v137h281l102 375h160l-104 -375h299l102 375h160l-107 -375h160v-137h-195l-114 -430h247v-137h-284l-92 -334h-156l90 334h-299l-90 -334h-158l90 334h-153z" />
    <glyph glyph-name="dollar" unicode="$" horiz-adv-x="1363" 
d="M352 1062q0 -104 68 -154t198 -81v467q-126 -10 -196 -68t-70 -164zM1049 381q0 119 -73 174t-231 94v-532q304 16 304 264zM745 1579v-149q393 -27 426 -381h-167q-12 113 -70 173t-189 70v-493l64 -15q190 -45 300 -133t110 -267t-123 -287t-351 -117v-146h-127v148
q-224 18 -340 130t-131 294h170q16 -258 301 -287v559q-216 41 -326 125t-110 247t110 265t326 115v149h127z" />
    <glyph glyph-name="percent" unicode="%" horiz-adv-x="1622" 
d="M1251 827q319 0 319 -424t-319 -423q-319 0 -319 424t319 423zM1251 719q-106 0 -146 -83t-40 -235q0 -153 40 -233t146 -80t147 81q40 81 40 233t-40 234q-41 83 -147 83zM371 1393q319 0 319 -424t-319 -424t-319 424t319 424zM371 1284q-107 0 -147 -83t-40 -235
t40 -232q40 -81 146 -81t147 81q40 81 40 233q0 153 -40 235t-146 82zM1206 1466l92 -53l-843 -1466l-95 53z" />
    <glyph glyph-name="ampersand" unicode="&#x26;" horiz-adv-x="1236" 
d="M868 137v525h-282q-307 0 -307 -271q0 -254 307 -254h282zM1202 799v-137h-170v-662h-461q-225 0 -344 97t-118 276q0 147 77 238q78 91 203 116q-240 90 -239 324q0 152 103 257t318 105h230v-139h-215q-140 0 -204 -68t-64 -167t58 -170t210 -70h282v200h164v-200h170z
" />
    <glyph glyph-name="quotesingle" unicode="'" horiz-adv-x="464" 
d="M156 874v553h153v-553h-153z" />
    <glyph glyph-name="parenleft" unicode="(" horiz-adv-x="538" 
d="M285 530q0 -477 215 -878h-146q-238 401 -238 878t238 883h146q-215 -406 -215 -883z" />
    <glyph glyph-name="parenright" unicode=")" horiz-adv-x="538" 
d="M254 534q0 476 -215 879h145q238 -401 238 -879t-238 -882h-145q215 406 215 882z" />
    <glyph glyph-name="asterisk" unicode="*" horiz-adv-x="1001" 
d="M557 1427l-18 -219l200 84l37 -108l-213 -49l144 -166l-93 -68l-114 186l-113 -186l-92 68l141 166l-213 49l37 108l203 -84l-21 219h115z" />
    <glyph glyph-name="plus" unicode="+" horiz-adv-x="1198" 
d="M537 993h137v-407h407v-137h-407v-406h-137v406h-406v137h406v407z" />
    <glyph glyph-name="comma" unicode="," horiz-adv-x="440" 
d="M332 195v-195q-25 -137 -154 -231h-72q35 28 63 90q28 63 28 121v20h-62v195h197z" />
    <glyph glyph-name="hyphen" unicode="-" horiz-adv-x="817" 
d="M700 543v-137h-583v137h583z" />
    <glyph glyph-name="period" unicode="." horiz-adv-x="409" 
d="M106 0v195h197v-195h-197z" />
    <glyph glyph-name="slash" unicode="/" horiz-adv-x="704" 
d="M692 1413l-512 -1413h-162l514 1413h160z" />
    <glyph glyph-name="zero" unicode="0" horiz-adv-x="1210" 
d="M604 1393q518 -1 518 -707t-518 -706q-274 0 -396 191t-122 511q0 711 518 711zM604 1253q-106 0 -179 -47t-108 -134t-48 -178t-13 -212t13 -211t48 -176t108 -132t179 -46q213 0 288 178q62 148 62 387q0 414 -171 524q-73 47 -179 47z" />
    <glyph glyph-name="one" unicode="1" horiz-adv-x="720" 
d="M498 1352v-1352h-164v1036h-268v138h90q178 0 178 178h164z" />
    <glyph glyph-name="two" unicode="2" horiz-adv-x="1144" 
d="M561 1393q199 1 321 -105t122 -286t-150 -365q-150 -184 -549 -500h721v-137h-930v150q480 376 617 550q75 94 99 154t24 129q0 127 -69 199t-205 72t-203 -74q-67 -72 -78 -213h-170q15 211 133 319t317 107z" />
    <glyph glyph-name="three" unicode="3" horiz-adv-x="1081" 
d="M219 356q21 -239 311 -239q142 0 223 79t81 203q0 291 -314 291h-139v139l352 383h-590v140h785v-140l-375 -383q207 -1 328 -109t120 -317q-1 -172 -125 -298q-124 -125 -340 -125t-342 96t-141 280h166z" />
    <glyph glyph-name="four" unicode="4" horiz-adv-x="1110" 
d="M727 494v612l-498 -612h498zM891 0h-164v354h-688v140l688 858h164v-858h180v-140h-180v-354z" />
    <glyph glyph-name="five" unicode="5" horiz-adv-x="1122" 
d="M276 356q20 -239 302 -239q126 0 207 88t81 225t-76 220q-77 83 -226 83t-228 -106q-18 -25 -25 -41l-8 -19l-166 60l82 725h742v-140h-605l-61 -479q121 137 317 137t309 -120t113 -321q0 -200 -136 -325q-136 -124 -330 -124t-321 94q-126 94 -141 282h170z" />
    <glyph glyph-name="six" unicode="6" horiz-adv-x="1198" 
d="M620 117q144 0 223 83q79 82 79 228t-79 226t-218 79q-83 0 -147 -31q-144 -70 -178 -245q-5 -31 -5 -51q12 -129 96 -209q85 -80 229 -80zM645 866q197 0 322 -112t125 -320q0 -207 -126 -331t-341 -123q-347 0 -457 287q-60 156 -62 407q0 338 134 528t385 191
q201 -1 313 -107t119 -239h-162q-37 207 -270 206q-371 0 -357 -622q109 235 377 235z" />
    <glyph glyph-name="seven" unicode="7" horiz-adv-x="1007" 
d="M911 1352v-140l-538 -1212h-164l541 1212h-730v140h891z" />
    <glyph glyph-name="eight" unicode="8" 
d="M602 801q109 0 188 55t78 178q0 154 -140 200q-58 19 -107 19t-77 -3q-134 -14 -186 -116q-20 -42 -20 -100q0 -123 78 -178t186 -55zM502 126q48 -9 127 -9q78 0 177 43q56 25 90 82t34 139q0 135 -96 208t-232 73t-230 -73q-95 -73 -96 -208q0 -82 34 -139t89 -82
t103 -34zM168 1036q0 152 110 254t326 102t324 -102q109 -102 108 -254q0 -114 -57 -190t-141 -117q260 -104 260 -350q0 -187 -132 -293t-366 -106t-364 104t-130 295q1 246 263 350q-201 102 -201 307z" />
    <glyph glyph-name="nine" unicode="9" horiz-adv-x="1193" 
d="M574 1255q-146 -1 -225 -77t-79 -215t80 -219t219 -78q100 0 172 41t103 97q58 105 53 167q-12 119 -95 201q-82 82 -228 83zM557 532q-195 0 -323 114t-128 313t125 317t344 117q510 0 510 -686q1 -179 -35 -315t-89 -212t-127 -124t-136 -62t-125 -14q-207 0 -315 102
t-123 237h164q37 -201 262 -200q117 0 197 59q80 60 114 162q59 179 52 414q-109 -222 -367 -222z" />
    <glyph glyph-name="colon" unicode=":" horiz-adv-x="409" 
d="M106 829v195h197v-195h-197zM106 0v195h197v-195h-197z" />
    <glyph glyph-name="semicolon" unicode=";" horiz-adv-x="440" 
d="M133 829v195h197v-195h-197zM332 195v-195q-25 -137 -154 -231h-72q35 28 63 90q28 63 28 121v20h-62v195h197z" />
    <glyph glyph-name="less" unicode="&#x3c;" horiz-adv-x="1198" 
d="M1053 59l-891 387v142l891 387v-164l-721 -295l721 -295v-162z" />
    <glyph glyph-name="equal" unicode="=" horiz-adv-x="1196" 
d="M154 418v137h888v-137h-888zM154 795v139h888v-139h-888z" />
    <glyph glyph-name="greater" unicode="&#x3e;" horiz-adv-x="1198" 
d="M162 975l891 -387v-144l-891 -387v164l721 295l-721 295v164z" />
    <glyph glyph-name="question" unicode="?" horiz-adv-x="1126" 
d="M438 0v195h178v-195h-178zM547 1434q207 0 315 -98t109 -265q0 -166 -162 -303q-125 -108 -162 -182t-37 -254h-164q0 199 38 290t143 185q63 57 92 88q82 89 82 205q-1 72 -59 132q-58 62 -193 62t-200 -79t-64 -175h-168q0 150 111 272q112 122 319 122z" />
    <glyph glyph-name="at" unicode="@" horiz-adv-x="1998" 
d="M1167 354q-113 -147 -331 -147q-122 0 -205 84q-84 85 -84 235t51 279t162 219t254 90q186 0 256 -139l20 115h137l-124 -711q-23 -133 110 -133q123 0 207 86q152 156 152 453t-180 487t-488 190q-188 0 -354 -78q-320 -150 -456 -499q-65 -164 -65 -336
q1 -293 177 -476t468 -184q227 0 408 117l-22 -147q-184 -88 -364 -88t-318 49q-302 108 -421 387q-65 150 -65 336q0 270 125 506t358 383q234 147 525 147q354 0 580 -213t227 -575q-1 -287 -137 -473t-368 -187q-232 0 -237 178q0 31 2 45zM889 324q90 0 159 42
q116 71 159 247q17 71 18 141q0 244 -201 243q-152 0 -241 -138t-89 -308q0 -227 195 -227z" />
    <glyph glyph-name="A" unicode="A" horiz-adv-x="1316" 
d="M651 1260l-289 -799h576zM754 1413l524 -1413h-174l-113 313h-680l-116 -313h-156l526 1413h189z" />
    <glyph glyph-name="B" unicode="B" horiz-adv-x="1329" 
d="M358 797h406q110 0 174 58t64 178t-64 180q-63 60 -174 61h-406v-477zM358 137h412q274 0 274 258q0 264 -274 264h-412v-522zM195 1413h589q160 0 273 -94t112 -281q1 -133 -75 -208t-166 -103q112 -14 198 -97t86 -254t-114 -274q-115 -102 -314 -102h-589v1413z" />
    <glyph glyph-name="C" unicode="C" horiz-adv-x="1449" 
d="M117 706q0 344 179 536q178 192 456 192t429 -131t181 -338h-168q-57 330 -428 329q-236 0 -358 -160t-123 -436q0 -274 126 -428t355 -153q190 0 303 97t137 269h170q-34 -223 -188 -363t-434 -140t-458 191q-179 191 -179 535z" />
    <glyph glyph-name="D" unicode="D" horiz-adv-x="1411" 
d="M195 1413h462q84 0 159 -12t167 -56t157 -117q66 -73 110 -207t44 -313q0 -178 -44 -312t-108 -208t-156 -118q-91 -44 -167 -56q-76 -14 -162 -14h-462v1413zM358 1274v-1137h279q248 0 368 137q119 138 119 434t-119 431q-120 135 -368 135h-279z" />
    <glyph glyph-name="E" unicode="E" horiz-adv-x="1191" 
d="M1094 1413v-139h-736v-477h615v-138h-615v-522h736v-137h-899v1413h899z" />
    <glyph glyph-name="F" unicode="F" horiz-adv-x="1169" 
d="M1120 1413v-139h-762v-494h662v-139h-662v-641h-163v1413h925z" />
    <glyph glyph-name="G" unicode="G" horiz-adv-x="1552" 
d="M780 -20q-299 0 -481 188t-182 533t183 539t486 194q140 0 262 -42t222 -152t131 -275h-170q-78 330 -443 329q-248 0 -376 -156t-127 -438q0 -284 129 -434t364 -150t348 127q113 126 121 341h-383v137h553v-721h-129l-22 240q-150 -260 -486 -260z" />
    <glyph glyph-name="H" unicode="H" horiz-adv-x="1441" 
d="M1247 1413v-1413h-164v653h-725v-653h-163v1413h163v-620h725v620h164z" />
    <glyph glyph-name="I" unicode="I" horiz-adv-x="552" 
d="M358 0h-163v1413h163v-1413z" />
    <glyph glyph-name="J" unicode="J" horiz-adv-x="1198" 
d="M850 1413h164v-905q0 -254 -125 -391t-362 -137t-363 132t-125 363h164q0 -358 323 -358q172 0 248 103t76 257v936z" />
    <glyph glyph-name="K" unicode="K" horiz-adv-x="1308" 
d="M358 0h-163v1413h163v-723l617 723h203l-441 -498l551 -915h-190l-467 799l-273 -310v-489z" />
    <glyph glyph-name="L" unicode="L" horiz-adv-x="1114" 
d="M358 137h697v-137h-860v1413h163v-1276z" />
    <glyph glyph-name="M" unicode="M" horiz-adv-x="1781" 
d="M1587 1413v-1413h-164v1202l-434 -1202h-192l-439 1202v-1202h-163v1413h256l446 -1257l449 1257h241z" />
    <glyph glyph-name="N" unicode="N" horiz-adv-x="1517" 
d="M1323 1413v-1413h-190l-775 1182v-1182h-163v1413h208l756 -1161v1161h164z" />
    <glyph glyph-name="O" unicode="O" horiz-adv-x="1556" 
d="M778 1434q298 0 480 -192t182 -538q0 -344 -180 -534t-480 -190t-482 189q-181 189 -181 535t181 538t480 192zM772 1294q-234 0 -360 -156t-127 -438q0 -280 129 -432q128 -152 368 -152t364 154t124 441t-132 435t-366 148z" />
    <glyph glyph-name="P" unicode="P" horiz-adv-x="1261" 
d="M195 1413h585q172 0 288 -106q116 -107 116 -321t-116 -314t-288 -101h-422v-571h-163v1413zM358 709h402q256 0 256 276q0 135 -64 212t-192 77h-402v-565z" />
    <glyph glyph-name="Q" unicode="Q" horiz-adv-x="1556" 
d="M778 117q152 0 246 61l-195 250l134 96l186 -254q121 152 121 441t-132 436t-367 147t-361 -156t-125 -438q-1 -284 127 -434t366 -149zM778 1434q298 0 480 -192t182 -543q0 -350 -201 -547l156 -199l-131 -98l-156 208q-145 -84 -330 -83q-299 0 -480 189t-181 535
t181 538t480 192z" />
    <glyph glyph-name="R" unicode="R" horiz-adv-x="1288" 
d="M358 1274v-522h410q118 0 184 63t66 193t-66 198t-184 68h-410zM358 614v-614h-163v1413h593q156 0 268 -86q60 -45 95 -128t35 -195q0 -166 -82 -255t-205 -118l291 -631h-180l-279 614h-373z" />
    <glyph glyph-name="S" unicode="S" horiz-adv-x="1306" 
d="M647 1434q461 0 494 -385h-168q-12 125 -85 187t-232 62q-334 0 -334 -235q0 -148 147 -201q76 -28 177 -48q100 -21 132 -30q194 -45 302 -133q108 -89 108 -273t-137 -292t-391 -106q-254 0 -391 114q-136 115 -152 312h170q19 -291 375 -291t356 266q0 89 -26 120
q-26 32 -40 50q-48 60 -240 100t-245 56q-154 47 -223 112q-94 89 -92 234q0 173 124 277t371 104z" />
    <glyph glyph-name="T" unicode="T" horiz-adv-x="1185" 
d="M1126 1413v-139h-452v-1274h-164v1274h-453v139h1069z" />
    <glyph glyph-name="U" unicode="U" horiz-adv-x="1415" 
d="M1231 1413v-946q0 -219 -130 -353t-394 -134t-394 134q-129 134 -129 353v946h164v-967q0 -156 89 -242t269 -87q180 0 271 87q90 87 90 242v967h164z" />
    <glyph glyph-name="V" unicode="V" horiz-adv-x="1277" 
d="M1239 1413l-514 -1413h-168l-518 1413h174l434 -1249l432 1249h160z" />
    <glyph glyph-name="W" unicode="W" horiz-adv-x="1837" 
d="M1798 1413l-391 -1413h-172l-313 1210l-316 -1210h-172l-395 1413h174l313 -1245l314 1245h172l315 -1245l313 1245h158z" />
    <glyph glyph-name="X" unicode="X" horiz-adv-x="1239" 
d="M1165 1413l-452 -678l487 -735h-194l-388 614l-397 -614h-182l502 741l-445 672h195l342 -555l348 555h184z" />
    <glyph glyph-name="Y" unicode="Y" horiz-adv-x="1198" 
d="M516 0v578l-477 835h186l381 -696l379 696h174l-479 -835v-578h-164z" />
    <glyph glyph-name="Z" unicode="Z" horiz-adv-x="1222" 
d="M1141 1413v-139q-109 -143 -433 -561t-442 -576h879v-137h-1067v137q123 166 449 588q327 422 423 549h-850v139h1041z" />
    <glyph glyph-name="bracketleft" unicode="[" horiz-adv-x="575" 
d="M135 -348v1761h381v-139h-217v-1485h217v-137h-381z" />
    <glyph glyph-name="backslash" unicode="\" horiz-adv-x="696" 
d="M524 0l-514 1413h162l512 -1413h-160z" />
    <glyph glyph-name="bracketright" unicode="]" horiz-adv-x="575" 
d="M438 1413v-1761h-381v137h217v1485h-217v139h381z" />
    <glyph glyph-name="asciicircum" unicode="^" horiz-adv-x="1361" 
d="M758 1409l467 -795h-183l-366 648l-367 -648h-174l467 795h156z" />
    <glyph glyph-name="underscore" unicode="_" horiz-adv-x="974" 
d="M0 -250v103h975v-103h-975z" />
    <glyph glyph-name="grave" unicode="`" horiz-adv-x="686" 
d="M180 1413h205l147 -266h-137z" />
    <glyph glyph-name="a" unicode="a" horiz-adv-x="1077" 
d="M461 113q135 0 225 88t90 215v104l-190 -24q-172 -23 -248 -73t-76 -133t52 -130t147 -47zM543 1044q397 0 397 -419v-625h-137l-19 172q-106 -193 -346 -192q-154 0 -248 78t-94 216q0 136 111 224t377 120l192 25v33q0 233 -237 233q-217 0 -244 -184h-164
q52 319 412 319z" />
    <glyph glyph-name="b" unicode="b" horiz-adv-x="1185" 
d="M618 117q147 0 225 105q77 106 77 288t-75 288t-225 107q-150 -1 -225 -109q-76 -108 -76 -289t76 -285t223 -105zM156 1413h163v-565q111 197 338 196q187 0 309 -142t122 -395t-122 -390q-120 -137 -311 -137q-225 0 -342 194l-18 -174h-139v1413z" />
    <glyph glyph-name="c" unicode="c" horiz-adv-x="1138" 
d="M266 508q0 -203 92 -297t240 -94q244 0 293 229h168q-31 -158 -146 -262t-331 -104t-351 140t-135 391t135 392t351 141t335 -112q118 -112 132 -273h-168q-14 113 -91 180t-210 67q-134 0 -224 -98q-90 -97 -90 -300z" />
    <glyph glyph-name="d" unicode="d" horiz-adv-x="1185" 
d="M565 117q147 0 225 104q76 103 76 285t-75 291t-225 109t-225 -107t-75 -289t76 -288t223 -105zM866 1413h164v-1413h-139l-21 174q-113 -195 -342 -194q-188 0 -310 138t-122 390t122 394t310 142q227 0 338 -196v565z" />
    <glyph glyph-name="e" unicode="e" horiz-adv-x="1159" 
d="M592 909q-146 0 -225 -86q-80 -86 -97 -229h623q-7 131 -81 223t-220 92zM598 -20q-229 0 -366 138q-136 138 -136 391t136 394t356 141t347 -138q126 -138 126 -374v-61h-795q10 -170 95 -264t217 -94t207 55q76 55 94 137h172q-35 -145 -155 -235t-298 -90z" />
    <glyph glyph-name="f" unicode="f" horiz-adv-x="630" 
d="M354 1178v-154h205v-139h-205v-885h-164v885h-151v139h151v158q0 141 86 202t213 62q45 0 89 -8v-138q-37 6 -84 7q-140 0 -140 -129z" />
    <glyph glyph-name="g" unicode="g" horiz-adv-x="1095" 
d="M563 905q-242 0 -241 -200q0 -113 70 -159t176 -46t178 49t73 155q-1 106 -73 153q-72 48 -183 48zM596 61q-63 -1 -109 3q-147 11 -201 -88q-19 -34 -20 -78q0 -174 331 -174t331 172q0 165 -332 165zM1034 1118v-139q-63 0 -89 -11t-40 -46q82 -82 82 -215
q0 -92 -40 -163q-101 -180 -399 -182q-94 0 -167 37q-80 -25 -80 -84q0 -108 201 -114t388 -47q89 -20 147 -85q59 -65 59 -161q1 -185 -164 -256q-138 -60 -333 -61t-339 60q-76 32 -120 93t-44 146q0 84 54 146t147 89q-66 14 -115 60t-49 106q0 119 150 166
q-129 86 -129 254q0 254 278 318q66 15 137 15q141 0 240 -53q41 127 225 127z" />
    <glyph glyph-name="h" unicode="h" horiz-adv-x="1169" 
d="M696 1044q338 0 338 -401v-643h-164v623q0 141 -51 212t-184 71t-224 -104q-91 -103 -92 -270v-532h-163v1413h163v-586q131 217 377 217z" />
    <glyph glyph-name="i" unicode="i" horiz-adv-x="475" 
d="M319 1413v-184h-163v184h163zM319 0h-163v1024h163v-1024z" />
    <glyph glyph-name="j" unicode="j" horiz-adv-x="438" 
d="M160 1229v184h164v-184h-164zM160 -137v1161h164v-1161q0 -139 -85 -201t-214 -61q-33 0 -88 6v139q53 -8 83 -8q140 0 140 125z" />
    <glyph glyph-name="k" unicode="k" horiz-adv-x="1062" 
d="M319 1413v-907l455 518h203l-356 -395l423 -629h-198l-328 510l-199 -219v-291h-163v1413h163z" />
    <glyph glyph-name="l" unicode="l" horiz-adv-x="544" 
d="M319 1413v-1175q0 -68 30 -90t97 -21h21v-133q-37 -4 -78 -4q-233 0 -233 239v1184h163z" />
    <glyph glyph-name="m" unicode="m" horiz-adv-x="1740" 
d="M1303 1044q297 0 303 -393v-651h-164v625q0 281 -189 280q-121 0 -205 -98t-85 -262v-545h-164v625q0 204 -89 257q-40 24 -100 23q-127 0 -209 -103t-82 -261v-541h-163v1024h137l18 -209q123 229 344 229q125 0 198 -68t95 -171q115 239 355 239z" />
    <glyph glyph-name="n" unicode="n" horiz-adv-x="1169" 
d="M696 1044q338 0 338 -401v-643h-164v623q0 151 -54 217t-186 66t-221 -105q-89 -104 -90 -260v-541h-163v1024h137l18 -211q131 231 385 231z" />
    <glyph glyph-name="o" unicode="o" 
d="M606 1044q232 0 367 -140t135 -393t-135 -392t-367 -139t-372 140q-138 140 -138 392t138 392q140 140 372 140zM940 510q0 184 -87 290t-250 105q-163 0 -250 -105q-87 -104 -87 -288t87 -290t250 -105q163 0 250 105q87 104 87 288z" />
    <glyph glyph-name="p" unicode="p" horiz-adv-x="1185" 
d="M618 905q-147 0 -223 -103q-76 -104 -76 -286t76 -291t226 -109q151 0 225 107q74 105 74 289t-77 289q-78 104 -225 104zM319 -389h-163v1413h139l18 -174q117 195 342 194q189 0 311 -138t122 -391t-122 -394q-120 -141 -309 -141q-229 0 -338 194v-563z" />
    <glyph glyph-name="q" unicode="q" horiz-adv-x="1185" 
d="M565 905q-147 0 -223 -104q-76 -103 -76 -287t75 -290t225 -107q150 1 225 109q76 108 75 290q0 182 -76 286q-78 103 -225 103zM1030 -389h-164v563q-109 -195 -338 -194q-190 0 -311 141t-121 394t122 391t310 138q229 0 342 -194l21 174h139v-1413z" />
    <glyph glyph-name="r" unicode="r" horiz-adv-x="751" 
d="M659 1034q37 0 72 -6v-143q-33 10 -88 10q-160 0 -242 -102t-82 -281v-512h-163v1024h135l20 -219q104 229 348 229z" />
    <glyph glyph-name="s" unicode="s" horiz-adv-x="1034" 
d="M513 1044q187 0 285 -92t111 -227h-164q-27 184 -239 184t-211 -155q0 -102 117 -140q44 -12 146 -26t156 -30t108 -49q114 -68 114 -226t-116 -231q-116 -72 -302 -72t-296 89q-108 89 -120 238h164q8 -92 76 -143t188 -51q238 0 238 166q0 73 -40 106q-22 17 -40 29
t-57 21l-59 13q-24 5 -134 19q-311 45 -311 287q0 131 99 211q100 79 287 79z" />
    <glyph glyph-name="t" unicode="t" horiz-adv-x="698" 
d="M454 -20q-106 0 -176 58t-69 177v670h-150v139h150v270l164 52v-322h207v-139h-207v-652q0 -117 141 -116q46 0 107 12v-129q-61 -20 -167 -20z" />
    <glyph glyph-name="u" unicode="u" horiz-adv-x="1155" 
d="M471 -20q-328 0 -328 399v645h164v-623q0 -209 95 -261q44 -24 114 -23q145 0 235 105q89 105 89 263v539h164v-1024h-138l-18 209q-131 -229 -377 -229z" />
    <glyph glyph-name="v" unicode="v" horiz-adv-x="1048" 
d="M1020 1024l-416 -1024h-160l-415 1024h178l323 -864l328 864h162z" />
    <glyph glyph-name="w" unicode="w" horiz-adv-x="1468" 
d="M1440 1024l-314 -1024h-157l-230 854l-237 -854h-160l-313 1024h174l225 -850l225 850h178l224 -850l227 850h158z" />
    <glyph glyph-name="x" unicode="x" horiz-adv-x="987" 
d="M942 1024l-354 -496l381 -528h-197l-283 418l-288 -418h-183l390 526l-359 498h197l256 -387l260 387h180z" />
    <glyph glyph-name="y" unicode="y" horiz-adv-x="972" 
d="M215 -401h-104v137h82q61 0 96 28t61 101l66 174l-387 985h174l293 -811l288 811h160l-463 -1235q-73 -190 -266 -190z" />
    <glyph glyph-name="z" unicode="z" horiz-adv-x="985" 
d="M891 1024v-139l-625 -748h662v-137h-871v137l627 748h-606v139h813z" />
    <glyph glyph-name="braceleft" unicode="{" horiz-adv-x="702" 
d="M135 463v139q174 0 174 131v350q0 188 70 259t242 71h22v-139h-18q-78 0 -115 -48t-37 -173v-308q0 -88 -18 -134t-68 -79q49 -36 67 -80t19 -133v-397q0 -133 152 -133h18v-137h-22q-172 0 -242 70t-70 260v350q4 131 -174 131z" />
    <glyph glyph-name="bar" unicode="|" horiz-adv-x="630" 
d="M233 -348v1761h164v-1761h-164z" />
    <glyph glyph-name="braceright" unicode="}" horiz-adv-x="702" 
d="M391 332v-350q0 -188 -68 -260q-69 -71 -241 -70h-25v137h21q150 0 149 133v397q1 87 19 133t69 80q-51 33 -69 80t-19 133v308q0 125 -36 173t-113 48h-21v139h25q172 0 241 -71t68 -259v-350q0 -131 174 -131v-139q-174 0 -174 -131z" />
    <glyph glyph-name="asciitilde" unicode="~" horiz-adv-x="1036" 
d="M381 539q-80 0 -80 -93h-121q0 215 197 216q72 0 157 -48t123 -47q80 0 80 95h121q0 -215 -196 -216q-72 0 -154 46t-127 47z" />
    <glyph glyph-name="exclamdown" unicode="&#xa1;" horiz-adv-x="636" 
d="M229 -389l35 1081h109l33 -1081h-177zM229 829v195h179v-195h-179z" />
    <glyph glyph-name="cent" unicode="&#xa2;" horiz-adv-x="1134" 
d="M568 1110q-134 0 -222 -97q-90 -97 -90 -300t92 -297t238 -94q248 0 295 229h168q-29 -150 -133 -251t-285 -114v-186h-105v186q-204 16 -322 156t-118 372q0 234 119 374t321 159v164h105v-164q181 -14 287 -125t120 -258h-168q-14 114 -91 180t-211 66z" />
    <glyph glyph-name="sterling" unicode="&#xa3;" horiz-adv-x="1198" 
d="M626 1413q106 1 184 -25q77 -26 118 -64q102 -95 102 -294h-168q0 136 -60 188t-166 52t-166 -52q-62 -52 -62 -159v-377h376v-131h-376v-270q0 -96 -84 -140h454q157 6 191 113q14 49 14 117h168q0 -192 -91 -279q-91 -88 -276 -92h-716v141q123 0 148 51q24 51 24 89
v270h-170v131h170v377q0 123 77 228q41 56 122 91t187 35z" />
    <glyph glyph-name="currency" unicode="&#xa4;" horiz-adv-x="1198" 
d="M1139 514q0 -180 -109 -324l135 -135l-100 -100l-135 135q-140 -110 -322 -110t-323 110l-135 -135l-99 100l133 135q-110 144 -110 322t110 324l-133 133l99 100l135 -135q141 110 322 110t323 -110l135 135l100 -100l-135 -133q109 -142 109 -322zM608 127
q158 0 272 113q114 112 112 272t-114 272q-114 112 -271 111q-157 0 -271 -112q-114 -111 -113 -271q-1 -160 113 -272t272 -113z" />
    <glyph glyph-name="yen" unicode="&#xa5;" horiz-adv-x="1198" 
d="M1044 682v-119h-344v-180h344v-119h-344v-264h-165v264h-355v119h355v180h-355v119h289l-410 731h187l379 -702l374 702h179l-414 -731h280z" />
    <glyph glyph-name="brokenbar" unicode="&#xa6;" horiz-adv-x="475" 
d="M156 -348v733h163v-733h-163zM156 680v733h163v-733h-163z" />
    <glyph glyph-name="section" unicode="&#xa7;" horiz-adv-x="1044" 
d="M293 700q0 -64 20 -96q40 -66 242 -98q63 -10 94 -17q119 35 121 166q0 84 -50 124q-50 41 -122 52t-141 19q-66 -10 -115 -48t-49 -102zM509 1434q200 0 294 -92t110 -228h-163q-27 184 -242 184q-106 0 -158 -43t-51 -115q0 -72 53 -109q35 -26 105 -37t135 -19
q156 -20 252 -86t96 -211q0 -178 -149 -232q150 -66 149 -245q0 -94 -42 -159q-42 -66 -113 -94q-126 -51 -267 -50q-401 0 -414 327h168q7 -140 124 -177q54 -17 134 -17q240 0 240 164q0 67 -37 97q-20 18 -40 32q-29 21 -266 68q-109 22 -204 81q-94 58 -94 191
q0 82 47 150t121 91q-68 20 -118 86t-50 150q0 117 90 205t290 88z" />
    <glyph glyph-name="dieresis" unicode="&#xa8;" horiz-adv-x="1048" 
d="M276 1229v184h179v-184h-179zM594 1229v184h178v-184h-178z" />
    <glyph glyph-name="copyright" unicode="&#xa9;" horiz-adv-x="1507" 
d="M756 295q-144 0 -242 105t-98 300t98 304q98 108 256 108t240 -80t94 -182h-98q-10 74 -68 125t-175 51t-185 -86t-68 -239t70 -237t186 -83q116 0 175 55q60 55 73 142h94q-23 -143 -116 -213q-92 -70 -236 -70zM761 102q249 0 425 176t176 426q0 248 -176 424t-424 176
t-425 -176t-177 -424t176 -426q176 -176 425 -176zM746 -4q-284 0 -488 211q-205 211 -205 504t211 497t496 203q236 -1 422 -143t245 -361q41 -131 33 -262q-18 -281 -224 -465t-490 -184z" />
    <glyph glyph-name="ordfeminine" unicode="&#xaa;" horiz-adv-x="724" 
d="M197 887q-1 -99 139 -99q72 0 135 50t64 131v73l-123 -18q-115 -14 -165 -46t-50 -91zM379 1423q293 0 293 -293v-438h-111l-18 99q-84 -113 -238 -113q-111 0 -179 52t-67 151q0 203 349 241l127 17v30q1 143 -149 143t-167 -118h-135q10 98 81 164t214 65z" />
    <glyph glyph-name="guillemotleft" unicode="&#xab;" horiz-adv-x="1214" 
d="M1065 965l-326 -449l326 -455h-172l-322 455l322 449h172zM641 965l-326 -449l326 -455h-172l-322 455l322 449h172z" />
    <glyph glyph-name="logicalnot" unicode="&#xac;" horiz-adv-x="1198" 
d="M121 569v136h964v-535h-161v399h-803z" />
    <glyph glyph-name="registered" unicode="&#xae;" horiz-adv-x="1507" 
d="M768 1411q293 0 497 -212q203 -212 203 -506q0 -295 -211 -497t-503 -202t-496 211q-205 211 -205 503t211 498q211 205 504 205zM762 102q250 0 425 176t175 426q0 248 -176 424t-425 176t-425 -176q-176 -178 -176 -426t176 -424t426 -176zM498 1096h309q104 0 171 -50
q28 -22 50 -69t23 -95t-9 -78q-10 -32 -30 -70t-66 -62t-112 -25l227 -338h-109l-217 336h-143v-336h-94v787zM592 1010v-279h229q74 0 105 41q30 41 30 92q-1 104 -65 128q-47 18 -72 18h-227z" />
    <glyph glyph-name="macron" unicode="&#xaf;" horiz-adv-x="1019" 
d="M782 1366v-143h-544v143h544z" />
    <glyph glyph-name="degree" unicode="&#xb0;" horiz-adv-x="843" 
d="M449 1440q88 0 151 -62q64 -62 64 -152t-64 -152t-151 -62q-88 0 -151 62q-62 62 -62 150t62 152t151 64zM449 1112q47 0 79 33t33 80q0 47 -33 81q-34 34 -80 34t-80 -34t-34 -80t34 -80t81 -34z" />
    <glyph glyph-name="plusminus" unicode="&#xb1;" horiz-adv-x="1198" 
d="M526 1192h142v-371h370v-141h-370v-373h-142v373h-370v141h370v371zM1038 135v-135h-880v135h880z" />
    <glyph glyph-name="twosuperior" unicode="&#xb2;" horiz-adv-x="700" 
d="M340 1516q127 0 202 -66q74 -66 74 -172t-86 -212t-305 -278h404v-108h-572v117q264 201 345 297t81 172q0 141 -137 141t-147 -156h-133q16 265 274 265z" />
    <glyph glyph-name="threesuperior" unicode="&#xb3;" horiz-adv-x="665" 
d="M86 1495h483v-109l-204 -200q109 0 181 -65t70 -183q0 -118 -78 -192t-207 -74q-128 0 -209 60t-89 173h131q4 -61 47 -93t117 -32t116 40t41 106q0 152 -163 151h-95v109l185 200h-326v109z" />
    <glyph glyph-name="acute" unicode="&#xb4;" horiz-adv-x="921" 
d="M436 1413h205l-213 -266h-137z" />
    <glyph glyph-name="mu" unicode="&#xb5;" horiz-adv-x="1159" 
d="M307 -389h-164v1413h164v-627q0 -154 46 -217t176 -63t221 99q90 99 90 247v561h164v-1024h-138l-18 190q-125 -211 -350 -210q-119 0 -191 63v-432z" />
    <glyph glyph-name="paragraph" unicode="&#xb6;" horiz-adv-x="1388" 
d="M530 618q-164 0 -280 116t-115 279q0 163 116 279t279 115h605v-1638h-164v1499h-277v-1499h-164v849z" />
    <glyph glyph-name="periodcentered" unicode="&#xb7;" horiz-adv-x="409" 
d="M106 393v195h197v-195h-197z" />
    <glyph glyph-name="cedilla" unicode="&#xb8;" horiz-adv-x="964" 
d="M664 -251q0 -69 -48 -114t-131 -45q-84 0 -110 10q-27 10 -39 13q-12 4 -24 11t-13 7v111q74 -45 154 -45t79 49q0 66 -106 66q-37 0 -74 -7l90 195h93l-46 -94q87 0 131 -44t44 -113z" />
    <glyph glyph-name="onesuperior" unicode="&#xb9;" horiz-adv-x="468" 
d="M336 1495v-811h-127v588h-170v108h63q106 0 107 115h127z" />
    <glyph glyph-name="ordmasculine" unicode="&#xba;" horiz-adv-x="786" 
d="M420 1421q166 0 261 -97t95 -275q0 -177 -95 -275t-261 -98t-264 98t-98 274t98 275q98 98 264 98zM637 1048q-1 126 -59 192t-161 67q-103 0 -161 -67q-58 -66 -57 -192q0 -126 57 -192q56 -66 160 -66t163 66q58 66 58 192z" />
    <glyph glyph-name="guillemotright" unicode="&#xbb;" horiz-adv-x="1208" 
d="M893 516l-326 449h174l320 -449l-320 -455h-174zM473 516l-326 449h175l319 -449l-319 -455h-175z" />
    <glyph glyph-name="onequarter" unicode="&#xbc;" horiz-adv-x="1402" 
d="M1030 1466l94 -53l-845 -1466l-93 53zM336 1495v-811h-127v588h-170v108h63q106 0 107 115h127zM1137 315v306l-252 -306h252zM1266 0h-129v207h-402v108l402 496h129v-496h114v-108h-114v-207z" />
    <glyph glyph-name="onehalf" unicode="&#xbd;" horiz-adv-x="1421" 
d="M965 1466l94 -53l-846 -1466l-92 53zM1063 825q127 1 202 -65t75 -172t-87 -212q-86 -106 -305 -278h404v-108h-572v116q264 201 345 297t81 172q0 141 -139 142q-135 0 -145 -156h-134q17 264 275 264zM336 1495v-811h-127v588h-170v108h63q106 0 107 115h127z" />
    <glyph glyph-name="threequarters" unicode="&#xbe;" horiz-adv-x="1560" 
d="M1233 1466l94 -53l-846 -1466l-92 53zM180 1495h484v-109l-205 -200q109 0 181 -65t71 -183q0 -118 -79 -192t-207 -74t-209 60t-89 173h131q4 -61 47 -93t117 -32t116 40t42 106q0 152 -164 151h-94v109l184 200h-326v109zM1294 315v306l-254 -306h254zM1421 0h-127v207
h-401v108l401 496h127v-496h115v-108h-115v-207z" />
    <glyph glyph-name="questiondown" unicode="&#xbf;" horiz-adv-x="1126" 
d="M649 1024v-195h-178v195h178zM540 -410q-208 0 -316 98t-108 265q0 166 163 303q125 108 161 182t37 254h164q0 -199 -38 -290q-37 -90 -121 -166t-113 -107t-56 -82t-26 -106q0 -89 58 -151t193 -62t200 80t65 176h168q0 -152 -112 -273t-319 -121z" />
    <glyph glyph-name="Agrave" unicode="&#xc0;" horiz-adv-x="1316" 
d="M426 1823h205l147 -267h-137zM651 1260l-289 -799h576zM754 1413l524 -1413h-174l-113 313h-680l-116 -313h-156l526 1413h189z" />
    <glyph glyph-name="Aacute" unicode="&#xc1;" horiz-adv-x="1316" 
d="M672 1823h205l-213 -267h-138zM651 1260l-289 -799h576zM754 1413l524 -1413h-174l-113 313h-680l-116 -313h-156l526 1413h189z" />
    <glyph glyph-name="Acircumflex" unicode="&#xc2;" horiz-adv-x="1316" 
d="M721 1823l207 -267h-123l-164 177l-162 -177h-125l207 267h160zM651 1260l-289 -799h576zM754 1413l524 -1413h-174l-113 313h-680l-116 -313h-156l526 1413h189z" />
    <glyph glyph-name="Atilde" unicode="&#xc3;" horiz-adv-x="1316" 
d="M774 1593q-66 -1 -144 57t-124 58q-76 0 -82 -86h-121q0 92 48 145q45 54 155 56q72 1 150 -57t113 -58q72 0 87 59q2 8 4 27h121q0 -62 -33 -123q-41 -78 -174 -78zM651 1260l-289 -799h576zM754 1413l524 -1413h-174l-113 313h-680l-116 -313h-156l526 1413h189z" />
    <glyph glyph-name="Adieresis" unicode="&#xc4;" horiz-adv-x="1316" 
d="M393 1638v185h178v-185h-178zM711 1638v185h178v-185h-178zM651 1260l-289 -799h576zM754 1413l524 -1413h-174l-113 313h-680l-116 -313h-156l526 1413h189z" />
    <glyph glyph-name="Aring" unicode="&#xc5;" horiz-adv-x="1316" 
d="M642 1931q81 0 138 -57q58 -57 58 -138q0 -80 -58 -138t-138 -58q-81 0 -138 57q-58 57 -58 139t58 138q58 57 138 57zM642 1829q-38 0 -66 -28q-28 -27 -27 -65q-1 -38 27 -66t66 -28t66 28t28 66t-28 66t-66 27zM651 1260l-289 -799h576zM754 1413l524 -1413h-174
l-113 313h-680l-116 -313h-156l526 1413h189z" />
    <glyph glyph-name="AE" unicode="&#xc6;" horiz-adv-x="2031" 
d="M1036 461v713l-489 -713h489zM1935 1413v-139h-735v-477h615v-138h-615v-522h735v-137h-899v313h-596l-221 -313h-180l997 1413h899z" />
    <glyph glyph-name="Ccedilla" unicode="&#xc7;" horiz-adv-x="1449" 
d="M117 716q0 336 179 526q178 192 456 192t430 -131t180 -338h-168q-24 161 -134 245t-294 84q-233 0 -357 -162t-124 -434t134 -427t365 -154q365 0 422 366h168q-31 -217 -169 -355t-386 -148l-37 -74q90 0 133 -44t43 -113t-47 -114t-131 -45t-110 10t-38 13
q-12 4 -24 11t-14 7v111q70 -45 152 -45t81 49q0 66 -106 66q-37 0 -76 -7l82 177q-270 18 -440 208t-170 526z" />
    <glyph glyph-name="Egrave" unicode="&#xc8;" horiz-adv-x="1191" 
d="M360 1823h205l148 -267h-138zM1094 1413v-139h-736v-477h615v-138h-615v-522h736v-137h-899v1413h899z" />
    <glyph glyph-name="Eacute" unicode="&#xc9;" horiz-adv-x="1191" 
d="M686 1823h205l-213 -267h-137zM1094 1413v-139h-736v-477h615v-138h-615v-522h736v-137h-899v1413h899z" />
    <glyph glyph-name="Ecircumflex" unicode="&#xca;" horiz-adv-x="1191" 
d="M735 1823l207 -267h-123l-164 177l-161 -177h-125l206 267h160zM1094 1413v-139h-736v-477h615v-138h-615v-522h736v-137h-899v1413h899z" />
    <glyph glyph-name="Edieresis" unicode="&#xcb;" horiz-adv-x="1191" 
d="M422 1638v185h178v-185h-178zM739 1638v185h179v-185h-179zM1094 1413v-139h-736v-477h615v-138h-615v-522h736v-137h-899v1413h899z" />
    <glyph glyph-name="Igrave" unicode="&#xcc;" horiz-adv-x="608" 
d="M-23 1823h205l148 -267h-137zM358 0h-163v1413h163v-1413z" />
    <glyph glyph-name="Iacute" unicode="&#xcd;" horiz-adv-x="608" 
d="M338 1823h205l-213 -267h-137zM358 0h-163v1413h163v-1413z" />
    <glyph glyph-name="Icircumflex" unicode="&#xce;" horiz-adv-x="608" 
d="M385 1823l207 -267h-123l-164 177l-162 -177h-125l207 267h160zM358 0h-163v1413h163v-1413z" />
    <glyph glyph-name="Idieresis" unicode="&#xcf;" horiz-adv-x="608" 
d="M59 1638v185h179v-185h-179zM377 1638v185h178v-185h-178zM358 0h-163v1413h163v-1413z" />
    <glyph glyph-name="Eth" unicode="&#xd0;" horiz-adv-x="1372" 
d="M346 1274v-486h283v-147h-283v-504h264q254 0 378 139q124 140 124 432t-124 429t-376 137h-266zM31 641v147h151v623h451q81 0 153 -10t168 -53t163 -115t115 -207t48 -318q0 -182 -47 -318t-115 -209t-163 -115t-169 -54t-155 -12h-449v641h-151z" />
    <glyph glyph-name="Ntilde" unicode="&#xd1;" horiz-adv-x="1517" 
d="M659 1708q-76 0 -81 -86h-121q0 92 48 145q45 54 154 56q72 1 150 -57t126 -58t63 30q14 30 16 56h121q0 -31 -8 -59q-35 -142 -199 -142q-66 -1 -144 57t-125 58zM1323 1413v-1413h-190l-775 1182v-1182h-163v1413h208l756 -1161v1161h164z" />
    <glyph glyph-name="Ograve" unicode="&#xd2;" horiz-adv-x="1556" 
d="M588 1823h205l147 -267h-137zM778 1434q298 0 480 -192t182 -538q0 -344 -180 -534t-480 -190t-482 189q-181 189 -181 535t181 538t480 192zM772 1294q-234 0 -360 -156t-127 -438q0 -280 129 -432q128 -152 368 -152t364 154t124 441t-132 435t-366 148z" />
    <glyph glyph-name="Oacute" unicode="&#xd3;" horiz-adv-x="1556" 
d="M807 1823h205l-213 -267h-137zM778 1434q298 0 480 -192t182 -538q0 -344 -180 -534t-480 -190t-482 189q-181 189 -181 535t181 538t480 192zM772 1294q-234 0 -360 -156t-127 -438q0 -280 129 -432q128 -152 368 -152t364 154t124 441t-132 435t-366 148z" />
    <glyph glyph-name="Ocircumflex" unicode="&#xd4;" horiz-adv-x="1556" 
d="M850 1823l207 -267h-123l-164 177l-162 -177h-125l207 267h160zM778 1434q298 0 480 -192t182 -538q0 -344 -180 -534t-480 -190t-482 189q-181 189 -181 535t181 538t480 192zM772 1294q-234 0 -360 -156t-127 -438q0 -280 129 -432q128 -152 368 -152t364 154t124 441
t-132 435t-366 148z" />
    <glyph glyph-name="Otilde" unicode="&#xd5;" horiz-adv-x="1556" 
d="M643 1708q-76 0 -82 -86h-121q0 197 203 201q72 1 150 -57q77 -58 113 -58q72 0 87 59q2 8 4 27h121q0 -62 -33 -123q-39 -78 -173 -78q-66 -1 -144 57t-125 58zM778 1434q298 0 480 -192t182 -538q0 -344 -180 -534t-480 -190t-482 189q-181 189 -181 535t181 538
t480 192zM772 1294q-234 0 -360 -156t-127 -438q0 -280 129 -432q128 -152 368 -152t364 154t124 441t-132 435t-366 148z" />
    <glyph glyph-name="Odieresis" unicode="&#xd6;" horiz-adv-x="1556" 
d="M530 1638v185h179v-185h-179zM848 1638v185h178v-185h-178zM778 1434q298 0 480 -192t182 -538q0 -344 -180 -534t-480 -190t-482 189q-181 189 -181 535t181 538t480 192zM772 1294q-234 0 -360 -156t-127 -438q0 -280 129 -432q128 -152 368 -152t364 154t124 441
t-132 435t-366 148z" />
    <glyph glyph-name="multiply" unicode="&#xd7;" horiz-adv-x="1198" 
d="M227 803l97 96l286 -285l287 285l98 -96l-286 -287l284 -285l-98 -98l-285 285l-284 -285l-97 98l283 285z" />
    <glyph glyph-name="Oslash" unicode="&#xd8;" horiz-adv-x="1556" 
d="M1270 696q0 278 -113 426l-657 -932q115 -74 278 -73q244 0 368 151q124 150 124 428zM778 1294q-242 0 -368 -156t-125 -432q0 -276 123 -432l659 938q-115 82 -289 82zM1440 704q0 -352 -182 -538t-480 -186q-213 0 -362 92l-103 -144l-102 72l106 147
q-201 197 -201 548t182 545q181 194 480 194q215 0 373 -105l109 154l102 -70l-113 -160q191 -197 191 -549z" />
    <glyph glyph-name="Ugrave" unicode="&#xd9;" horiz-adv-x="1415" 
d="M473 1823h205l147 -267h-137zM1231 1413v-946q0 -219 -130 -353t-394 -134t-394 134q-129 134 -129 353v946h164v-967q0 -156 89 -242t269 -87q180 0 271 87q90 87 90 242v967h164z" />
    <glyph glyph-name="Uacute" unicode="&#xda;" horiz-adv-x="1415" 
d="M739 1823h205l-213 -267h-137zM1231 1413v-946q0 -219 -130 -353t-394 -134t-394 134q-129 134 -129 353v946h164v-967q0 -156 89 -242t269 -87q180 0 271 87q90 87 90 242v967h164z" />
    <glyph glyph-name="Ucircumflex" unicode="&#xdb;" horiz-adv-x="1415" 
d="M778 1823l207 -267h-123l-164 177l-161 -177h-125l206 267h160zM1231 1413v-946q0 -219 -130 -353t-394 -134t-394 134q-129 134 -129 353v946h164v-967q0 -156 89 -242t269 -87q180 0 271 87q90 87 90 242v967h164z" />
    <glyph glyph-name="Udieresis" unicode="&#xdc;" horiz-adv-x="1415" 
d="M457 1638v185h178v-185h-178zM774 1638v185h178v-185h-178zM1231 1413v-946q0 -219 -130 -353t-394 -134t-394 134q-129 134 -129 353v946h164v-967q0 -156 89 -242t269 -87q180 0 271 87q90 87 90 242v967h164z" />
    <glyph glyph-name="Yacute" unicode="&#xdd;" horiz-adv-x="1198" 
d="M606 1823h205l-213 -267h-137zM516 0v578l-477 835h186l381 -696l379 696h174l-479 -835v-578h-164z" />
    <glyph glyph-name="Thorn" unicode="&#xde;" horiz-adv-x="1269" 
d="M733 455q119 0 183 62t67 185q-2 124 -67 186t-183 62h-371v-495h371zM750 1092q168 0 286 -96t117 -293q0 -197 -118 -293t-283 -97h-390v-313h-167v1411h167v-319h388z" />
    <glyph glyph-name="germandbls" unicode="&#xdf;" horiz-adv-x="1165" 
d="M1112 410q0 -204 -123 -308t-334 -102h-188v135h188q201 0 268 151q23 54 23 133q-1 229 -163 276q-76 22 -175 22v135q161 0 200 83q19 42 23 70t5 74q0 86 -62 153q-62 66 -156 66q-95 0 -153 -30q-107 -55 -107 -191v-1077h-161v1075q0 126 84 235q43 56 127 90
t194 34t194 -35q139 -58 186 -203q19 -57 19 -115q0 -218 -137 -290q29 0 79 -26t83 -63q34 -38 60 -114t26 -178z" />
    <glyph glyph-name="agrave" unicode="&#xe0;" horiz-adv-x="1077" 
d="M322 1413h204l148 -266h-137zM465 113q135 0 225 88t90 215v104l-190 -24q-172 -23 -248 -73t-76 -133t52 -130t147 -47zM547 1044q397 0 397 -419v-625h-137l-19 172q-106 -193 -346 -192q-154 0 -248 78t-94 216q0 136 111 224t377 120l192 25v33q0 233 -237 233
q-217 0 -244 -184h-164q52 319 412 319z" />
    <glyph glyph-name="aacute" unicode="&#xe1;" horiz-adv-x="1077" 
d="M571 1413h205l-213 -266h-137zM465 113q135 0 225 88t90 215v104l-190 -24q-172 -23 -248 -73t-76 -133t52 -130t147 -47zM547 1044q397 0 397 -419v-625h-137l-19 172q-106 -193 -346 -192q-154 0 -248 78t-94 216q0 136 111 224t377 120l192 25v33q0 233 -237 233
q-217 0 -244 -184h-164q52 319 412 319z" />
    <glyph glyph-name="acircumflex" unicode="&#xe2;" horiz-adv-x="1077" 
d="M610 1413l207 -266h-123l-164 176l-161 -176h-125l207 266h159zM465 113q135 0 225 88t90 215v104l-190 -24q-172 -23 -248 -73t-76 -133t52 -130t147 -47zM547 1044q397 0 397 -419v-625h-137l-19 172q-106 -193 -346 -192q-154 0 -248 78t-94 216q0 136 111 224
t377 120l192 25v33q0 233 -237 233q-217 0 -244 -184h-164q52 319 412 319z" />
    <glyph glyph-name="atilde" unicode="&#xe3;" horiz-adv-x="1077" 
d="M391 1298q-76 0 -82 -86h-121q0 92 49 146q45 55 136 55q90 0 168 -57q78 -58 114 -58t52 8q31 17 38 78h121q0 -62 -32 -122q-40 -78 -174 -78q-66 0 -144 57t-125 57zM465 113q135 0 225 88t90 215v104l-190 -24q-172 -23 -248 -73t-76 -133t52 -130t147 -47zM547 1044
q397 0 397 -419v-625h-137l-19 172q-106 -193 -346 -192q-154 0 -248 78t-94 216q0 136 111 224t377 120l192 25v33q0 233 -237 233q-217 0 -244 -184h-164q52 319 412 319z" />
    <glyph glyph-name="adieresis" unicode="&#xe4;" horiz-adv-x="1077" 
d="M281 1229v184h178v-184h-178zM598 1229v184h178v-184h-178zM465 113q135 0 225 88t90 215v104l-190 -24q-172 -23 -248 -73t-76 -133t52 -130t147 -47zM547 1044q397 0 397 -419v-625h-137l-19 172q-106 -193 -346 -192q-154 0 -248 78t-94 216q0 136 111 224t377 120
l192 25v33q0 233 -237 233q-217 0 -244 -184h-164q52 319 412 319z" />
    <glyph glyph-name="aring" unicode="&#xe5;" horiz-adv-x="1077" 
d="M332 1326q0 80 57 138t138 58t139 -58t57 -138q0 -81 -57 -138q-56 -58 -138 -58t-139 58t-57 138zM434 1326q0 -38 28 -66t65 -27q38 0 66 28q28 27 28 65t-28 66t-66 28q-37 0 -65 -28t-28 -66zM465 113q135 0 225 88t90 215v104l-190 -24q-172 -23 -248 -73t-76 -133
t52 -130t147 -47zM547 1044q397 0 397 -419v-625h-137l-19 172q-106 -193 -346 -192q-154 0 -248 78t-94 216q0 136 111 224t377 120l192 25v33q0 233 -237 233q-217 0 -244 -184h-164q52 319 412 319z" />
    <glyph glyph-name="ae" unicode="&#xe6;" horiz-adv-x="1869" 
d="M1302 909q-146 0 -225 -87q-80 -87 -96 -228h623q-6 131 -81 223t-221 92zM479 113q135 0 224 88t90 215v104l-197 -24q-164 -23 -241 -73t-77 -133t52 -130q51 -47 149 -47zM463 -20q-162 0 -256 78t-94 214q0 137 108 227q109 89 373 119l199 25v33q0 233 -238 233
q-217 0 -244 -184h-164q23 143 121 231t285 88q262 0 356 -208q57 98 159 153t237 55q213 0 340 -138t127 -374v-61h-795q8 -166 93 -262t230 -96q106 0 187 49q79 49 102 143h172q-39 -170 -167 -248q-128 -77 -280 -77t-266 66t-165 190q-129 -256 -420 -256z" />
    <glyph glyph-name="ccedilla" unicode="&#xe7;" horiz-adv-x="1138" 
d="M266 508q0 -203 92 -297t238 -94q248 0 295 229h168q-29 -152 -133 -253t-293 -111l-37 -76q90 0 133 -44t43 -113t-47 -114t-132 -45t-110 10q-27 10 -39 13q-12 4 -23 11t-13 7v111q70 -45 152 -45t81 49q0 66 -106 66q-35 0 -76 -7l82 177q-205 16 -325 154t-120 382
t135 385t351 141t335 -112q118 -112 132 -273h-168q-14 113 -91 180t-211 67q-133 0 -223 -98q-90 -97 -90 -300z" />
    <glyph glyph-name="egrave" unicode="&#xe8;" horiz-adv-x="1159" 
d="M377 1413h205l147 -266h-137zM592 909q-146 0 -225 -86q-80 -86 -97 -229h623q-7 131 -81 223t-220 92zM598 -20q-229 0 -366 138q-136 138 -136 391t136 394t356 141t347 -138q126 -138 126 -374v-61h-795q10 -170 95 -264t217 -94t207 55q76 55 94 137h172
q-35 -145 -155 -235t-298 -90z" />
    <glyph glyph-name="eacute" unicode="&#xe9;" horiz-adv-x="1159" 
d="M604 1413h205l-213 -266h-137zM592 909q-146 0 -225 -86q-80 -86 -97 -229h623q-7 131 -81 223t-220 92zM598 -20q-229 0 -366 138q-136 138 -136 391t136 394t356 141t347 -138q126 -138 126 -374v-61h-795q10 -170 95 -264t217 -94t207 55q76 55 94 137h172
q-35 -145 -155 -235t-298 -90z" />
    <glyph glyph-name="ecircumflex" unicode="&#xea;" horiz-adv-x="1159" 
d="M659 1413l207 -266h-123l-163 176l-162 -176h-125l207 266h159zM592 909q-146 0 -225 -86q-80 -86 -97 -229h623q-7 131 -81 223t-220 92zM598 -20q-229 0 -366 138q-136 138 -136 391t136 394t356 141t347 -138q126 -138 126 -374v-61h-795q10 -170 95 -264t217 -94
t207 55q76 55 94 137h172q-35 -145 -155 -235t-298 -90z" />
    <glyph glyph-name="edieresis" unicode="&#xeb;" horiz-adv-x="1159" 
d="M334 1229v184h178v-184h-178zM651 1229v184h178v-184h-178zM592 909q-146 0 -225 -86q-80 -86 -97 -229h623q-7 131 -81 223t-220 92zM598 -20q-229 0 -366 138q-136 138 -136 391t136 394t356 141t347 -138q126 -138 126 -374v-61h-795q10 -170 95 -264t217 -94t207 55
q76 55 94 137h172q-35 -145 -155 -235t-298 -90z" />
    <glyph glyph-name="igrave" unicode="&#xec;" horiz-adv-x="475" 
d="M-33 1413h205l147 -266h-137zM319 0h-163v1024h163v-1024z" />
    <glyph glyph-name="iacute" unicode="&#xed;" horiz-adv-x="475" 
d="M281 1413h204l-213 -266h-137zM319 0h-163v1024h163v-1024z" />
    <glyph glyph-name="icircumflex" unicode="&#xee;" horiz-adv-x="475" 
d="M315 1413l207 -266h-123l-163 176l-162 -176h-125l207 266h159zM319 0h-163v1024h163v-1024z" />
    <glyph glyph-name="idieresis" unicode="&#xef;" horiz-adv-x="475" 
d="M-10 1229v184h178v-184h-178zM307 1229v184h178v-184h-178zM319 0h-163v1024h163v-1024z" />
    <glyph glyph-name="eth" unicode="&#xf0;" horiz-adv-x="1212" 
d="M262 513q0 -407 343 -407q169 0 254 130t85 335q0 91 -44 165q-44 73 -79 104q-86 76 -223 80q-336 0 -336 -407zM1114 682q0 -709 -522 -709q-224 -1 -360 141t-136 399t133 395t351 139q104 1 207 -45t159 -154q-18 145 -110 279t-252 204l-88 -188l-119 55l82 174
q-96 20 -187 21l17 137q106 0 227 -33l74 160l119 -55l-68 -146q209 -84 341 -275t132 -499z" />
    <glyph glyph-name="ntilde" unicode="&#xf1;" horiz-adv-x="1169" 
d="M268 1212q0 201 212 201q64 0 141 -57q77 -58 113 -58q73 -1 87 60q2 8 4 26h121q0 -63 -33 -122q-39 -78 -173 -78q-66 0 -144 57t-125 57q-76 0 -82 -86h-121zM696 1044q338 0 338 -401v-643h-164v623q0 151 -54 217t-186 66t-221 -105q-89 -104 -90 -260v-541h-163
v1024h137l18 -211q131 231 385 231z" />
    <glyph glyph-name="ograve" unicode="&#xf2;" 
d="M401 1413h205l148 -266h-138zM606 1044q232 0 367 -140t135 -393t-135 -392t-367 -139t-372 140q-138 140 -138 392t138 392q140 140 372 140zM940 510q0 184 -87 290t-250 105q-163 0 -250 -105q-87 -104 -87 -288t87 -290t250 -105q163 0 250 105q87 104 87 288z" />
    <glyph glyph-name="oacute" unicode="&#xf3;" 
d="M616 1413h205l-213 -266h-137zM606 1044q232 0 367 -140t135 -393t-135 -392t-367 -139t-372 140q-138 140 -138 392t138 392q140 140 372 140zM940 510q0 184 -87 290t-250 105q-163 0 -250 -105q-87 -104 -87 -288t87 -290t250 -105q163 0 250 105q87 104 87 288z" />
    <glyph glyph-name="ocircumflex" unicode="&#xf4;" 
d="M676 1413l207 -266h-123l-164 176l-162 -176h-125l207 266h160zM606 1044q232 0 367 -140t135 -393t-135 -392t-367 -139t-372 140q-138 140 -138 392t138 392q140 140 372 140zM940 510q0 184 -87 290t-250 105q-163 0 -250 -105q-87 -104 -87 -288t87 -290t250 -105
q163 0 250 105q87 104 87 288z" />
    <glyph glyph-name="otilde" unicode="&#xf5;" 
d="M262 1212q0 201 212 201q64 0 140 -57q78 -58 114 -58q74 -1 87 60q2 8 4 26h121q0 -63 -33 -122q-39 -78 -173 -78q-66 0 -144 57t-125 57q-76 0 -82 -86h-121zM606 1044q232 0 367 -140t135 -393t-135 -392t-367 -139t-372 140q-138 140 -138 392t138 392
q140 140 372 140zM940 510q0 184 -87 290t-250 105q-163 0 -250 -105q-87 -104 -87 -288t87 -290t250 -105q163 0 250 105q87 104 87 288z" />
    <glyph glyph-name="odieresis" unicode="&#xf6;" 
d="M350 1229v184h178v-184h-178zM668 1229v184h178v-184h-178zM606 1044q232 0 367 -140t135 -393t-135 -392t-367 -139t-372 140q-138 140 -138 392t138 392q140 140 372 140zM940 510q0 184 -87 290t-250 105q-163 0 -250 -105q-87 -104 -87 -288t87 -290t250 -105
q163 0 250 105q87 104 87 288z" />
    <glyph glyph-name="divide" unicode="&#xf7;" horiz-adv-x="1198" 
d="M1051 631v-142h-883v142h883zM524 135v193h178v-193h-178zM524 793v192h178v-192h-178z" />
    <glyph glyph-name="oslash" unicode="&#xf8;" 
d="M602 905q-156 0 -246 -101q-90 -100 -90 -276t64 -274l436 614q-70 37 -164 37zM940 498q0 182 -78 288l-440 -624q72 -45 180 -45q158 0 248 100q90 99 90 281zM602 1044q141 0 248 -53l80 111l104 -74l-78 -108q152 -138 152 -400t-135 -401t-371 -139q-154 0 -266 63
l-82 -117l-104 74l83 119q-137 143 -137 394t138 391q139 140 368 140z" />
    <glyph glyph-name="ugrave" unicode="&#xf9;" horiz-adv-x="1159" 
d="M326 1413h204l148 -266h-137zM471 -20q-328 0 -328 399v645h164v-623q0 -209 95 -261q44 -24 114 -23q145 0 235 105q89 105 89 263v539h164v-1024h-138l-18 209q-131 -229 -377 -229z" />
    <glyph glyph-name="uacute" unicode="&#xfa;" horiz-adv-x="1159" 
d="M612 1413h205l-213 -266h-137zM471 -20q-328 0 -328 399v645h164v-623q0 -209 95 -261q44 -24 114 -23q145 0 235 105q89 105 89 263v539h164v-1024h-138l-18 209q-131 -229 -377 -229z" />
    <glyph glyph-name="ucircumflex" unicode="&#xfb;" horiz-adv-x="1159" 
d="M641 1413l207 -266h-123l-164 176l-162 -176h-125l207 266h160zM471 -20q-328 0 -328 399v645h164v-623q0 -209 95 -261q44 -24 114 -23q145 0 235 105q89 105 89 263v539h164v-1024h-138l-18 209q-131 -229 -377 -229z" />
    <glyph glyph-name="udieresis" unicode="&#xfc;" horiz-adv-x="1159" 
d="M319 1229v184h179v-184h-179zM637 1229v184h178v-184h-178zM471 -20q-328 0 -328 399v645h164v-623q0 -209 95 -261q44 -24 114 -23q145 0 235 105q89 105 89 263v539h164v-1024h-138l-18 209q-131 -229 -377 -229z" />
    <glyph glyph-name="yacute" unicode="&#xfd;" horiz-adv-x="972" 
d="M502 1413h205l-213 -266h-138zM215 -401h-104v137h82q61 0 96 28t61 101l66 174l-387 985h174l293 -811l288 811h160l-463 -1235q-73 -190 -266 -190z" />
    <glyph glyph-name="thorn" unicode="&#xfe;" horiz-adv-x="1189" 
d="M618 905q-152 1 -226 -107t-73 -289q0 -181 75 -287q76 -106 224 -105q148 0 225 105q77 104 77 288t-75 290t-227 105zM156 1413h163v-565q111 197 338 196q187 0 309 -142t122 -394t-122 -390q-120 -138 -309 -138q-233 0 -340 194v-563h-161v1802z" />
    <glyph glyph-name="ydieresis" unicode="&#xff;" horiz-adv-x="972" 
d="M254 1229v184h178v-184h-178zM571 1229v184h179v-184h-179zM215 -401h-104v137h82q61 0 96 28t61 101l66 174l-387 985h174l293 -811l288 811h160l-463 -1235q-73 -190 -266 -190z" />
    <glyph glyph-name="dotlessi" unicode="&#x131;" horiz-adv-x="391" 
d="M276 0h-161v1024h161v-1024z" />
    <glyph glyph-name="Lslash" unicode="&#x141;" horiz-adv-x="1114" 
d="M358 137h697v-137h-860v555l-172 -106v180l172 106v676h163v-573l418 262v-180l-418 -263v-520z" />
    <glyph glyph-name="lslash" unicode="&#x142;" horiz-adv-x="579" 
d="M414 -14q-104 0 -182 68q-77 69 -76 188v379l-156 -91v152l156 92v643h161v-547l185 109v-156l-185 -108v-459q0 -57 42 -92t100 -35l43 2v-137q-57 -8 -88 -8z" />
    <glyph glyph-name="OE" unicode="&#x152;" horiz-adv-x="2273" 
d="M772 1294q-234 0 -360 -156t-127 -438q0 -280 129 -432q128 -152 368 -152t364 154t124 441t-132 435t-366 148zM2177 1413v-139h-737v-477h616v-138h-616v-522h737v-137h-901v221q-164 -242 -498 -241q-299 0 -480 189t-181 535t181 538t480 192q160 0 291 -65t207 -183
v227h901z" />
    <glyph glyph-name="oe" unicode="&#x153;" horiz-adv-x="2007" 
d="M1436 909q-142 0 -224 -84t-100 -231h623q-6 133 -82 224t-217 91zM940 510q0 182 -87 288t-250 107q-163 0 -250 -105q-87 -104 -87 -288t87 -290t250 -105q163 0 250 105q87 106 87 288zM96 512q0 252 138 392t364 140q158 0 268 -68t160 -185q52 119 158 187t254 66
q213 0 340 -138t127 -374v-61h-795q6 -176 96 -267t230 -91q100 0 182 49q81 49 104 143h170q-39 -168 -167 -247q-127 -80 -283 -78t-264 70t-154 183q-117 -254 -422 -253q-229 0 -368 140q-138 140 -138 392z" />
    <glyph glyph-name="Scaron" unicode="&#x160;" horiz-adv-x="1306" 
d="M567 1577l-176 266h125l131 -176l133 176h123l-176 -266h-160zM647 1434q461 0 494 -385h-168q-12 125 -85 187t-232 62q-334 0 -334 -235q0 -148 147 -201q76 -28 177 -48q100 -21 132 -30q194 -45 302 -133q108 -89 108 -273t-137 -292t-391 -106q-254 0 -391 114
q-136 115 -152 312h170q19 -291 375 -291t356 266q0 89 -26 120q-26 32 -40 50q-48 60 -240 100t-245 56q-154 47 -223 112q-94 89 -92 234q0 173 124 277t371 104z" />
    <glyph glyph-name="scaron" unicode="&#x161;" horiz-adv-x="1028" 
d="M434 1167l-176 267h125l131 -177l133 177h123l-176 -267h-160zM513 1044q187 0 285 -92t111 -227h-164q-27 184 -239 184t-211 -155q0 -102 117 -140q44 -12 146 -26t156 -30t108 -49q114 -68 114 -226t-116 -231q-116 -72 -302 -72t-296 89q-108 89 -120 238h164
q8 -92 76 -143t188 -51q238 0 238 166q0 73 -40 106q-22 17 -40 29t-57 21l-59 13q-24 5 -134 19q-311 45 -311 287q0 131 99 211q100 79 287 79z" />
    <glyph glyph-name="Ydieresis" unicode="&#x178;" horiz-adv-x="1198" 
d="M379 1638v185h178v-185h-178zM696 1638v185h178v-185h-178zM516 0v578l-477 835h186l381 -696l379 696h174l-479 -835v-578h-164z" />
    <glyph glyph-name="Zcaron" unicode="&#x17d;" horiz-adv-x="1222" 
d="M567 1577l-176 266h125l131 -176l133 176h123l-176 -266h-160zM1141 1413v-139q-109 -143 -433 -561t-442 -576h879v-137h-1067v137q123 166 449 588q327 422 423 549h-850v139h1041z" />
    <glyph glyph-name="zcaron" unicode="&#x17e;" horiz-adv-x="985" 
d="M416 1167l-176 267h125l131 -177l133 177h123l-177 -267h-159zM891 1024v-139l-625 -748h662v-137h-871v137l627 748h-606v139h813z" />
    <glyph glyph-name="florin" unicode="&#x192;" horiz-adv-x="1198" 
d="M236 -274q50 0 100 30t59 86l176 996h-149l22 133h150q8 35 22 113t23 116q25 100 111 160t171 61q85 0 132 -22l-23 -127q-33 16 -83 16t-99 -31t-60 -88l-34 -198h223l-23 -133h-225q-28 -162 -85 -482q-57 -319 -81 -458l-18 -86q-25 -100 -111 -160t-171 -60t-132 23
l23 127q32 -16 82 -16z" />
    <glyph glyph-name="circumflex" unicode="&#x2c6;" horiz-adv-x="1116" 
d="M637 1413l207 -266h-123l-164 176l-162 -176h-125l207 266h160z" />
    <glyph glyph-name="caron" unicode="&#x2c7;" horiz-adv-x="1054" 
d="M446 1167l-176 267h125l131 -177l133 177h123l-176 -267h-160z" />
    <glyph glyph-name="breve" unicode="&#x2d8;" horiz-adv-x="1013" 
d="M506 1317q45 0 72 28t26 68h103q-1 -80 -55 -138t-145 -58t-146 58q-54 58 -54 138h99q0 -41 28 -69t72 -27z" />
    <glyph glyph-name="dotaccent" unicode="&#x2d9;" horiz-adv-x="397" 
d="M106 1249v185h185v-185h-185z" />
    <glyph glyph-name="ring" unicode="&#x2da;" horiz-adv-x="997" 
d="M303 1326q-1 80 57 138t139 58t138 -58t57 -138q0 -81 -57 -138q-57 -58 -138 -58t-139 58t-57 138zM499 1233q37 0 65 28q28 27 28 65t-28 66t-66 28t-65 -28t-27 -66t28 -66t65 -27z" />
    <glyph glyph-name="ogonek" unicode="&#x2db;" horiz-adv-x="997" 
d="M428 -213q0 -71 38 -101t91 -30t92 39l35 -37q-48 -68 -148 -68t-160 50t-60 139t63 147q64 58 162 74h106q-219 -55 -219 -213z" />
    <glyph glyph-name="tilde" unicode="&#x2dc;" horiz-adv-x="1026" 
d="M646 1184q-66 0 -144 57t-125 57q-76 0 -82 -86h-121q0 93 48 146q45 55 136 55q90 0 168 -57q78 -58 114 -58q74 -1 87 60q2 8 4 26h121q0 -63 -33 -122q-40 -78 -173 -78z" />
    <glyph glyph-name="hungarumlaut" unicode="&#x2dd;" horiz-adv-x="1036" 
 />
    <glyph glyph-name="pi" unicode="&#x3c0;" horiz-adv-x="1028" 
d="M1016 1032v-139h-131v-893h-160v893h-414v-893h-159v893h-129v139h993z" />
    <glyph glyph-name="endash" unicode="&#x2013;" horiz-adv-x="1169" 
d="M96 436v146h975v-146h-975z" />
    <glyph glyph-name="emdash" unicode="&#x2014;" horiz-adv-x="2174" 
d="M96 436v146h1981v-146h-1981z" />
    <glyph glyph-name="quoteleft" unicode="&#x2018;" horiz-adv-x="421" 
d="M106 987v195q29 139 154 231h72q-32 -25 -60 -89q-29 -64 -28 -122v-20h59v-195h-197z" />
    <glyph glyph-name="quoteright" unicode="&#x2019;" horiz-adv-x="440" 
d="M332 1413v-194q-25 -137 -154 -232h-72q34 27 62 90q29 63 29 121v21h-62v194h197z" />
    <glyph glyph-name="quotesinglbase" unicode="&#x201a;" horiz-adv-x="440" 
d="M332 195v-195q-25 -137 -154 -231h-72q35 28 63 90q28 63 28 121v20h-62v195h197z" />
    <glyph glyph-name="quotedblleft" unicode="&#x201c;" horiz-adv-x="765" 
d="M451 987v195q25 137 153 231h72q-35 -28 -63 -90q-28 -63 -27 -121v-20h61v-195h-196zM106 987v195q29 139 154 231h72q-32 -25 -60 -89q-29 -64 -28 -122v-20h59v-195h-197z" />
    <glyph glyph-name="quotedblright" unicode="&#x201d;" horiz-adv-x="778" 
d="M670 1413v-194q-25 -137 -154 -232h-72q34 27 62 90q29 63 29 121v21h-62v194h197zM332 1413v-194q-25 -137 -154 -232h-72q34 27 62 90q29 63 29 121v21h-62v194h197z" />
    <glyph glyph-name="quotedblbase" unicode="&#x201e;" horiz-adv-x="778" 
d="M670 195v-195q-25 -137 -154 -231h-72q35 28 63 90q28 63 28 121v20h-62v195h197zM332 195v-195q-25 -137 -154 -231h-72q35 28 63 90q28 63 28 121v20h-62v195h197z" />
    <glyph glyph-name="dagger" unicode="&#x2020;" horiz-adv-x="1024" 
d="M946 1030v-133h-354v-1255h-162v1255h-352v133h352v377h162v-377h354z" />
    <glyph glyph-name="daggerdbl" unicode="&#x2021;" horiz-adv-x="1189" 
d="M1030 1051v-131h-346v-662h346v-133h-346v-356h-162v356h-348v133h348v662h-350v131h350v356h162v-356h346z" />
    <glyph glyph-name="bullet" unicode="&#x2022;" horiz-adv-x="851" 
d="M696 514q0 -114 -79 -192t-191 -78t-192 79q-78 79 -78 191t78 192q79 78 192 78q114 0 192 -78t78 -192z" />
    <glyph glyph-name="perthousand" unicode="&#x2030;" horiz-adv-x="2375" 
d="M1686 404q0 424 318 423q318 0 318 -424t-319 -423q-317 0 -317 424zM2004 719q-105 0 -145 -83t-40 -234q0 -150 39 -232t145 -82t147 82t41 232t-41 234q-41 83 -146 83zM1251 827q319 0 319 -424t-319 -423q-319 0 -319 424t319 423zM1251 719q-106 0 -146 -83
t-40 -235q0 -153 40 -233t146 -80t147 81q40 81 40 233t-40 234q-41 83 -147 83zM371 1393q319 0 319 -424t-319 -424t-319 424t319 424zM371 1284q-107 0 -147 -83t-40 -235t40 -232q40 -81 146 -81t147 81q40 81 40 233q0 153 -40 235t-146 82zM1206 1466l92 -53
l-843 -1466l-95 53z" />
    <glyph glyph-name="guilsinglleft" unicode="&#x2039;" horiz-adv-x="788" 
d="M641 965l-326 -449l326 -455h-172l-322 455l322 449h172z" />
    <glyph glyph-name="guilsinglright" unicode="&#x203a;" horiz-adv-x="788" 
d="M473 516l-326 449h175l319 -449l-319 -455h-175z" />
    <glyph glyph-name="fraction" unicode="&#x2044;" horiz-adv-x="90" 
d="M420 1466l94 -53l-846 -1466l-92 53z" />
    <glyph glyph-name="Euro" unicode="&#x20ac;" horiz-adv-x="1198" 
d="M27 489v121h737l-66 -118h-340q68 -358 404 -359q209 0 315 158l119 -115q-152 -197 -434 -196q-223 0 -376 129t-200 380h-159zM27 788v121h161q47 252 199 388t375 137q279 0 432 -209l-119 -113q-106 166 -313 166q-176 0 -272 -106t-130 -263h572l-68 -121h-837z" />
    <glyph glyph-name="trademark" unicode="&#x2122;" horiz-adv-x="1673" 
d="M1518 1407v-786h-93v673l-241 -673h-109l-244 673v-673h-92v786h142l252 -692l247 692h138zM66 1407h598v-86h-252v-700h-95v700h-251v86z" />
    <glyph glyph-name="Omega" unicode="&#x2126;" horiz-adv-x="1513" 
d="M1419 725q0 -381 -297 -586h246v-139h-442v143q328 170 327 582q0 277 -133 423t-353 146t-353 -146t-133 -423q0 -412 327 -582v-143h-442v139h246q-297 205 -297 586q0 332 179 520q179 189 473 189t473 -188t179 -521z" />
    <glyph glyph-name="arrowleft" unicode="&#x2190;" horiz-adv-x="1523" 
d="M1464 776v-158h-1110l473 -458h-231l-539 538l539 539h231l-473 -461h1110z" />
    <glyph glyph-name="arrowup" unicode="&#x2191;" horiz-adv-x="1523" 
d="M846 0h-156v1110l-461 -473v233l539 537l539 -537v-233l-461 473v-1110z" />
    <glyph glyph-name="arrowright" unicode="&#x2192;" horiz-adv-x="1523" 
d="M57 618v158h1112l-473 461h232l536 -539l-536 -538h-232l473 458h-1112z" />
    <glyph glyph-name="arrowdown" unicode="&#x2193;" horiz-adv-x="1523" 
d="M690 1407h158v-1112l459 473v-231l-539 -537l-539 537v231l461 -473v1112z" />
    <glyph glyph-name="arrowboth" unicode="&#x2194;" horiz-adv-x="2248" 
d="M1890 776l-473 461h232l536 -539l-536 -538h-232l473 458h-1532l473 -458h-231l-537 538l537 539h231l-473 -461h1532z" />
    <glyph glyph-name="arrowrightdown" unicode="&#x21b4;" horiz-adv-x="1523" 
d="M1286 207h-764l-164 164l666 -6l-788 782l108 108l782 -788l-4 666l164 -164v-762z" />
    <glyph glyph-name="partialdiff" unicode="&#x2202;" horiz-adv-x="1210" 
d="M625 1434q262 0 387 -164t112 -469q-25 -242 -55 -355q-125 -473 -479 -473q-215 0 -351 118t-124 345q8 199 133 332t315 133q141 -1 252 -67t148 -199q42 222 -9 421q-27 105 -107 171q-81 65 -197 65t-174 -60q-60 -60 -62 -173l-162 26q10 169 110 259t263 90z
M572 113q130 0 216 88t104 220t-68 233q-85 100 -226 102q-142 2 -230 -94t-92 -242q-4 -145 81 -226t215 -81z" />
    <glyph glyph-name="Delta" unicode="&#x2206;" horiz-adv-x="1265" 
d="M657 1268l-426 -1121h856zM1247 0h-1175v147l489 1262h195l491 -1262v-147z" />
    <glyph glyph-name="product" unicode="&#x220f;" horiz-adv-x="1308" 
d="M1303 1407v-156h-170v-1251h-170v1251h-566v-1251h-170v1251h-168v156h1244z" />
    <glyph glyph-name="summation" unicode="&#x2211;" horiz-adv-x="1026" 
d="M985 1407v-156h-711l523 -655l-523 -657h711v-154h-934v141l533 670l-533 668v143h934z" />
    <glyph glyph-name="minus" unicode="&#x2212;" horiz-adv-x="1275" 
d="M1079 766v-137h-889v137h889z" />
    <glyph glyph-name="radical" unicode="&#x221a;" horiz-adv-x="1198" 
d="M61 670v147h322l254 -659l377 1276h153l-434 -1434h-186l-266 670h-220z" />
    <glyph glyph-name="infinity" unicode="&#x221e;" horiz-adv-x="1433" 
d="M971 899q245 0 298 -242q11 -49 11 -98q0 -101 -51 -207q-29 -59 -95 -97t-157 -38q-164 0 -256 160q-86 -160 -252 -160q-242 0 -296 244q-11 49 -11 92q0 158 79 252t234 94q156 0 246 -158q90 158 250 158zM465 362q154 0 192 197q-35 195 -192 195q-76 0 -115 -52
t-39 -143q0 -89 39 -143t115 -54zM973 362q158 0 157 195q0 90 -39 143q-40 53 -118 54q-156 0 -189 -195q16 -97 70 -147t119 -50z" />
    <glyph glyph-name="integral" unicode="&#x222b;" horiz-adv-x="534" 
d="M410 1155v-1221q0 -66 -7 -122q-8 -94 -84 -152t-159 -59q-83 0 -133 22v129q31 -14 83 -14t96 31t44 84v1220q0 66 6 123q10 94 84 152t157 59q83 0 136 -23v-129q-31 15 -83 15t-96 -31t-44 -84z" />
    <glyph glyph-name="approxequal" unicode="&#x2248;" horiz-adv-x="1116" 
d="M432 338q-80 0 -80 -94h-121q0 215 197 215q72 0 157 -46t124 -46q80 0 79 92h121q0 -87 -43 -151t-153 -64q-72 0 -154 47t-127 47zM432 666q-80 0 -80 -95h-121q0 215 197 215q72 0 157 -46t124 -46q80 0 79 92h121q0 -88 -43 -151t-153 -64q-72 -1 -154 47t-127 48z
" />
    <glyph glyph-name="notequal" unicode="&#x2260;" horiz-adv-x="1198" 
d="M174 668v135h502l112 194l138 -43l-88 -151h202v-135h-280l-139 -242h419v-135h-497l-117 -203l-137 41l92 162h-207v135h285l139 242h-424z" />
    <glyph glyph-name="lessequal" unicode="&#x2264;" horiz-adv-x="1198" 
d="M1055 141v-141h-897v141h897zM1055 307l-897 383v141l897 386v-164l-748 -289l748 -287v-170z" />
    <glyph glyph-name="greaterequal" unicode="&#x2265;" horiz-adv-x="1198" 
d="M1051 690l-897 -383v170l747 287l-747 289v164l897 -386v-141zM1051 141v-141h-897v141h897z" />
    <glyph glyph-name="lozenge" unicode="&#x25ca;" horiz-adv-x="1368" 
d="M1075 707l-385 579l-389 -577l385 -586zM608 0l-481 709l483 702h158l481 -704l-483 -707h-158z" />
    <glyph glyph-name="CR" horiz-adv-x="1337" 
 />
    <glyph glyph-name="l.ss06" horiz-adv-x="475" 
d="M319 1434v-1434h-163v1434h163z" />
    <glyph glyph-name="y.ss02" horiz-adv-x="1021" 
d="M967 1024l-531 -1413h-157l161 428l-389 985h174l293 -811l289 811h160z" />
    <glyph glyph-name="g.ss03" horiz-adv-x="1181" 
d="M862 531q0 179 -80 277t-222 97q-142 0 -220 -96t-78 -277q0 -375 311 -374q135 0 212 97t77 276zM1026 1024v-971q0 -463 -444 -463q-186 0 -300 80t-135 240h166q10 -88 83 -139t194 -51q120 0 196 69q76 70 76 211v215q-102 -195 -330 -195q-198 0 -318 136t-120 382
t122 376t319 130q109 0 197 -53t134 -141l21 174h139z" />
    <glyph glyph-name="G.ss04" horiz-adv-x="1550" 
d="M285 700q0 -278 132 -431q131 -153 365 -153t346 128q112 127 117 344h-381v137h551v-57q0 -330 -165 -509t-465 -179t-484 189t-184 533t183 538t480 194q397 0 552 -274q48 -85 67 -195h-170q-68 330 -449 329q-236 0 -366 -158t-129 -436z" />
    <glyph glyph-name="ydieresis.neogrotesk" horiz-adv-x="991" 
d="M256 1229v184h178v-184h-178zM573 1229v184h179v-184h-179zM952 1024l-530 -1413h-158l162 428l-389 985h174l293 -811l289 811h159z" />
    <glyph glyph-name="ampersand.ss05" horiz-adv-x="1351" 
d="M799 1119q0 71 -47 124t-136 53q-90 0 -134 -54t-44 -130q0 -127 119 -248q70 19 138 58q104 59 104 197zM639 113q184 0 293 102l-426 479q-225 -86 -225 -278q0 -131 87 -217t271 -86zM270 1120q0 130 94 222t246 92t254 -78q104 -78 105 -238q0 -268 -316 -362
l377 -418q51 86 57 219h170q-12 -193 -118 -342l192 -215h-209l-92 104q-143 -124 -393 -124t-388 114t-138 322q0 264 292 395q-133 133 -133 309z" />
    <glyph glyph-name="a.ss01" horiz-adv-x="1185" 
d="M569 905q-155 1 -229 -109t-74 -289t77 -285t216 -105q139 0 223 95t84 294q0 135 -49 250q-29 68 -92 108t-156 41zM1030 1024v-1024h-139l-21 174q-115 -195 -340 -194q-190 0 -312 136t-122 390t122 396t312 142q227 0 336 -192l25 172h139z" />
    <glyph glyph-name="yacute.neogrotesk" horiz-adv-x="991" 
d="M506 1413h205l-213 -266h-138zM215 -401h-104v137h82q61 0 96 28t61 101l66 174l-387 985h174l293 -811l288 811h160l-463 -1235q-73 -190 -266 -190z" />
    <glyph glyph-name="fl.ss06" horiz-adv-x="1099" 
d="M354 1178v-154h426v410h164v-1434h-164v885h-426v-885h-164v885h-151v139h151v158q0 141 86 202t213 62q45 0 89 -8v-138q-37 6 -84 7q-140 0 -140 -129z" />
    <glyph glyph-name="ffl.ss06" horiz-adv-x="1730" 
d="M354 1178v-154h447v158q0 141 85 202t212 62q47 0 90 -8v-138q-39 6 -84 7q-139 0 -139 -129v-154h446v389h164v-1413h-164v885h-446v-885h-164v885h-447v-885h-164v885h-151v139h151v158q0 141 86 202t213 62q45 0 89 -8v-138q-37 6 -84 7q-140 0 -140 -129z" />
    <glyph glyph-name="arrowleftup" horiz-adv-x="1523" 
d="M236 1196h763l164 -164l-665 6l788 -782l-108 -109l-781 789l2 -666l-163 164v762z" />
    <glyph glyph-name="arrowrightup" horiz-adv-x="1523" 
d="M1286 1196v-762l-164 -164l8 664l-784 -789l-110 111l788 780l-664 -4l164 164h762z" />
    <glyph glyph-name="arrowleftdown" horiz-adv-x="1521" 
d="M236 205v764l163 164l-4 -666l783 788l108 -106l-788 -782l663 2l-164 -164h-761z" />
    <glyph glyph-name="agrave.ss01" horiz-adv-x="1185" 
d="M354 1413h205l148 -266h-138zM569 905q-155 1 -229 -109t-74 -289t77 -285t216 -105q139 0 223 95t84 294q0 135 -49 250q-29 68 -92 108t-156 41zM1030 1024v-1024h-139l-21 174q-115 -195 -340 -194q-190 0 -312 136t-122 390t122 396t312 142q227 0 336 -192l25 172
h139z" />
    <glyph glyph-name="aacute.ss01" horiz-adv-x="1185" 
d="M616 1413h205l-213 -266h-137zM569 905q-155 1 -229 -109t-74 -289t77 -285t216 -105q139 0 223 95t84 294q0 135 -49 250q-29 68 -92 108t-156 41zM1030 1024v-1024h-139l-21 174q-115 -195 -340 -194q-190 0 -312 136t-122 390t122 396t312 142q227 0 336 -192l25 172
h139z" />
    <glyph glyph-name="acircumflex.ss01" horiz-adv-x="1185" 
d="M662 1413l206 -266h-123l-163 176l-162 -176h-125l207 266h160zM569 905q-155 1 -229 -109t-74 -289t77 -285t216 -105q139 0 223 95t84 294q0 135 -49 250q-29 68 -92 108t-156 41zM1030 1024v-1024h-139l-21 174q-115 -195 -340 -194q-190 0 -312 136t-122 390t122 396
t312 142q227 0 336 -192l25 172h139z" />
    <glyph glyph-name="atilde.ss01" horiz-adv-x="1185" 
d="M716 1184q-66 0 -145 57q-78 57 -125 57q-76 0 -81 -86h-121q0 93 48 146q45 55 136 55q90 0 168 -57q78 -58 114 -58t52 8q32 17 39 78h121q0 -60 -33 -122q-40 -78 -173 -78zM569 905q-155 1 -229 -109t-74 -289t77 -285t216 -105q139 0 223 95t84 294q0 135 -49 250
q-29 68 -92 108t-156 41zM1030 1024v-1024h-139l-21 174q-115 -195 -340 -194q-190 0 -312 136t-122 390t122 396t312 142q227 0 336 -192l25 172h139z" />
    <glyph glyph-name="adieresis.ss01" horiz-adv-x="1185" 
d="M332 1229v184h178v-184h-178zM649 1229v184h178v-184h-178zM569 905q-155 1 -229 -109t-74 -289t77 -285t216 -105q139 0 223 95t84 294q0 135 -49 250q-29 68 -92 108t-156 41zM1030 1024v-1024h-139l-21 174q-115 -195 -340 -194q-190 0 -312 136t-122 390t122 396
t312 142q227 0 336 -192l25 172h139z" />
    <glyph glyph-name="aring.ss01" horiz-adv-x="1185" 
d="M589 1522q81 0 138 -58t57 -138q0 -81 -57 -138q-57 -58 -138 -58t-138 58t-57 138t56 138q58 58 139 58zM589 1233q37 0 65 28q28 27 28 65t-28 66t-66 28t-65 -28t-27 -66t28 -66t65 -27zM569 905q-155 1 -229 -109t-74 -289t77 -285t216 -105q139 0 223 95t84 294
q0 135 -49 250q-29 68 -92 108t-156 41zM1030 1024v-1024h-139l-21 174q-115 -195 -340 -194q-190 0 -312 136t-122 390t122 396t312 142q227 0 336 -192l25 172h139z" />
    <glyph glyph-name="one.osf" horiz-adv-x="911" 
d="M537 1147v-1010h286v-137h-737v137h287v694h-260v138h82q178 0 178 178h164z" />
    <glyph glyph-name="two.osf" horiz-adv-x="1112" 
d="M564 1167q208 1 309 -107t101 -283t-133 -323q-134 -148 -491 -317h643v-137h-897v150q532 261 645 421q41 57 53 99t13 96q0 262 -251 262t-271 -264h-170q17 197 129 300t320 103z" />
    <glyph glyph-name="zero.osf" horiz-adv-x="1169" 
d="M584 1167q170 0 286 -88q212 -161 211 -508q0 -236 -114 -406q-57 -85 -155 -135t-228 -50q-248 0 -373 172t-125 420t125 422q125 173 373 173zM584 1028q-170 0 -249 -130t-79 -327t79 -325t249 -129q170 0 250 129q80 130 80 326t-80 326t-250 130z" />
    <glyph glyph-name="three.osf" horiz-adv-x="1056" 
d="M139 1167h787v-139l-375 -414q205 0 327 -116t122 -312t-126 -324q-125 -128 -342 -128t-342 104t-139 305h166q20 -272 303 -272q150 0 230 81t80 223t-82 222t-230 80h-141v137l352 414h-590v139z" />
    <glyph glyph-name="four.osf" horiz-adv-x="1130" 
d="M748 137v785l-498 -785h498zM911 -246h-163v246h-691v139l691 1028h163v-1030h181v-137h-181v-246z" />
    <glyph glyph-name="five.osf" horiz-adv-x="1122" 
d="M961 1147v-139h-605l-61 -498q117 137 313 137t311 -132t115 -336q0 -205 -134 -325t-331 -120t-323 102t-140 297h170q8 -137 92 -199t210 -63q128 0 208 85t80 227q0 143 -78 237t-211 94t-192 -55q-60 -55 -82 -115l-166 59l82 744h742z" />
    <glyph glyph-name="six.osf" horiz-adv-x="1198" 
d="M620 117q144 0 223 83q79 82 79 228t-79 226t-218 79q-83 0 -147 -31q-144 -70 -178 -245q-5 -31 -5 -51q12 -129 96 -209q85 -80 229 -80zM645 866q197 0 322 -112t125 -320q0 -207 -126 -331t-341 -123q-347 0 -457 287q-60 156 -62 407q0 338 134 528t385 191
q201 -1 313 -107t119 -239h-162q-37 207 -270 206q-371 0 -357 -622q109 235 377 235z" />
    <glyph glyph-name="seven.osf" horiz-adv-x="1007" 
d="M911 1147v-139l-538 -1254h-164l541 1254h-730v139h891z" />
    <glyph glyph-name="eight.osf" 
d="M602 801q109 0 188 55t78 178q0 154 -140 200q-58 19 -107 19t-77 -3q-134 -14 -186 -116q-20 -42 -20 -100q0 -123 78 -178t186 -55zM502 126q48 -9 127 -9q78 0 177 43q56 25 90 82t34 139q0 135 -96 208t-232 73t-230 -73q-95 -73 -96 -208q0 -82 34 -139t89 -82
t103 -34zM168 1036q0 152 110 254t326 102t324 -102q109 -102 108 -254q0 -114 -57 -190t-141 -117q260 -104 260 -350q0 -187 -132 -293t-366 -106t-364 104t-130 295q1 246 263 350q-201 102 -201 307z" />
    <glyph glyph-name="nine.osf" horiz-adv-x="1193" 
d="M574 1030q-144 0 -224 -79t-80 -220t80 -223t215 -82q84 0 149 29q64 29 98 67q84 95 85 209q-14 129 -96 214q-83 85 -227 85zM551 293q-190 0 -318 116q-127 116 -127 315q0 200 125 322t334 121q352 0 461 -300q59 -160 59 -376q0 -382 -128 -559q-54 -76 -128 -122
q-124 -76 -264 -76q-199 0 -309 110t-121 246h164q18 -111 90 -164q73 -53 183 -53q369 0 352 641q-113 -221 -373 -221z" />
    <glyph glyph-name="zero.tf" 
d="M604 1434q518 0 518 -730t-518 -729q-518 -1 -518 729t518 730zM604 1294q-213 0 -288 -188q-62 -155 -62 -404q0 -429 171 -541q73 -48 179 -48q214 0 287 185q61 155 61 404q0 430 -169 543q-73 49 -179 49z" />
    <glyph glyph-name="zero.zero.tf" 
d="M952 712q0 135 -18 236l-627 -629q80 -203 296 -203t288 186q61 155 61 410zM604 1294q-213 0 -288 -188q-62 -155 -62 -404q0 -147 18 -241l627 626q-82 207 -295 207zM604 1434q518 0 518 -728t-518 -726q-518 0 -518 727t518 727z" />
    <glyph glyph-name="one.tf" 
d="M723 1413v-1276h369v-137h-902v137h369v961h-260v137h82q178 0 178 178h164z" />
    <glyph glyph-name="two.tf" 
d="M604 1434q199 0 321 -108t122 -293t-151 -378t-548 -518h721v-137h-930v150q476 387 618 575q75 97 99 161t23 134q0 125 -66 200t-209 74q-254 0 -280 -293h-170q14 215 132 324t318 109z" />
    <glyph glyph-name="three.tf" 
d="M238 1413h786v-139l-375 -414q207 0 328 -108t121 -306q0 -196 -125 -331t-343 -135t-342 104t-138 303h165q20 -273 309 -271q141 0 223 89q81 88 81 225q0 291 -312 291h-141v139l350 414h-587v139z" />
    <glyph glyph-name="four.tf" 
d="M782 530v637l-497 -637h497zM946 0h-164v393h-690v139l690 881h164v-883h180v-137h-180v-393z" />
    <glyph glyph-name="five.tf" 
d="M999 1413v-139h-606l-61 -512q120 137 316 137t310 -122q114 -121 115 -327q0 -206 -136 -338q-135 -132 -331 -132t-322 103t-139 302h168q9 -141 93 -205t210 -63q126 0 206 93q81 94 81 238t-77 229t-223 85t-231 -107q-22 -29 -32 -59l-166 59l82 758h743z" />
    <glyph glyph-name="six.tf" 
d="M616 117q146 0 225 91t79 243q0 151 -79 231t-218 80q-83 0 -147 -31q-143 -70 -178 -246q-5 -31 -5 -51q12 -141 95 -229q82 -88 228 -88zM643 895q197 0 321 -113q124 -114 124 -326t-126 -344t-339 -132q-304 0 -418 216q-101 193 -101 521q0 329 134 523t385 194
q137 0 236 -60q182 -110 196 -299h-162q-37 219 -270 219q-371 0 -357 -635q105 236 377 236z" />
    <glyph glyph-name="seven.tf" 
d="M1042 1413v-139l-538 -1274h-164l541 1274h-729v139h890z" />
    <glyph glyph-name="eight.tf" 
d="M624 1294q-286 0 -286 -237q0 -123 78 -179t186 -57q108 1 188 57t78 179q0 153 -104 199q-81 38 -140 38zM930 399q0 135 -96 209t-230 74t-231 -74q-96 -74 -97 -209q0 -90 34 -152q73 -134 294 -134q107 0 202 45q56 27 90 89t34 152zM170 1057q0 161 109 269t325 108
t326 -109q109 -109 108 -268q0 -207 -200 -307q262 -106 262 -351q0 -201 -132 -313t-366 -111q-234 0 -364 112t-129 312q0 247 262 351q-201 100 -201 307z" />
    <glyph glyph-name="nine.tf" 
d="M596 1296q-144 0 -226 -81q-81 -81 -81 -224t80 -225t221 -82q80 0 143 28q104 46 146 140q42 93 36 137q-11 127 -93 217t-226 90zM575 551q-197 0 -323 117q-126 116 -125 318q0 202 126 325t343 123q510 0 510 -711q0 -181 -36 -321t-89 -219t-127 -128t-136 -64
t-130 -16q-205 0 -315 111t-117 246h161q37 -217 265 -217q160 0 242 109t102 252q20 142 16 294q-113 -219 -367 -219z" />
    <glyph glyph-name="zero.zero" horiz-adv-x="1210" 
d="M954 690q0 127 -20 238l-621 -625q80 -186 292 -186t287 178q62 148 62 395zM256 682q0 -147 18 -242l621 625q-80 188 -293 188t-285 -181q-61 -152 -61 -390zM604 1393q518 -1 518 -707t-518 -706q-286 0 -402 198t-116 504q0 711 518 711z" />
    <glyph glyph-name="yacute.ss02" horiz-adv-x="1021" 
d="M543 1413h205l-213 -266h-138zM967 1024l-531 -1413h-157l161 428l-389 985h174l293 -811l289 811h160z" />
    <glyph glyph-name="ydieresis.ss02" horiz-adv-x="1021" 
d="M270 1229v184h179v-184h-179zM588 1229v184h178v-184h-178zM967 1024l-531 -1413h-157l161 428l-389 985h174l293 -811l289 811h160z" />
    <glyph glyph-name="parenleft.case" horiz-adv-x="636" 
d="M285 694q0 -477 215 -878h-146q-238 401 -238 878t238 883h146q-215 -406 -215 -883z" />
    <glyph glyph-name="parenright.case" horiz-adv-x="636" 
d="M254 698q0 476 -215 879h145q238 -401 238 -879t-238 -882h-145q215 406 215 882z" />
    <glyph glyph-name="bracketleft.case" horiz-adv-x="634" 
d="M135 -184v1761h381v-139h-217v-1485h217v-137h-381z" />
    <glyph glyph-name="bracketright.case" horiz-adv-x="634" 
d="M438 1577v-1761h-381v137h217v1485h-217v139h381z" />
    <glyph glyph-name="braceleft.case" horiz-adv-x="761" 
d="M135 627v139q174 0 174 131v350q0 188 70 259t242 71h22v-139h-18q-78 0 -115 -48t-37 -173v-308q0 -88 -18 -134t-68 -79q49 -35 67 -80t19 -133v-397q0 -133 152 -133h18v-137h-22q-172 0 -242 70t-70 259v351q4 131 -174 131z" />
    <glyph glyph-name="braceright.case" horiz-adv-x="761" 
d="M391 496v-351q-1 -188 -69 -259t-240 -70h-25v137h21q150 0 149 133v397q0 86 19 132q18 46 69 81q-51 33 -69 80t-19 133v308q0 125 -36 173t-113 48h-21v139h25q172 0 241 -71t68 -259v-350q0 -131 174 -131v-139q-174 0 -174 -131z" />
    <glyph glyph-name="questiondown.case" horiz-adv-x="1126" 
d="M649 1413v-194h-178v194h178zM971 373q0 -153 -112 -273t-319 -120q-208 0 -316 98t-108 264t163 303q125 109 161 183t37 253h164q0 -199 -38 -289q-37 -90 -121 -167q-84 -76 -113 -107t-56 -82t-26 -106q0 -90 58 -152t193 -61q135 0 200 80t65 176h168z" />
    <glyph glyph-name="guillemotleft.case" horiz-adv-x="1198" 
d="M1051 1128l-326 -448l326 -455h-172l-322 455l322 448h172zM641 1128l-326 -448l326 -455h-172l-322 455l322 448h172z" />
    <glyph glyph-name="guillemotright.case" horiz-adv-x="1198" 
d="M883 680l-326 448h174l320 -448l-320 -455h-174zM473 680l-326 448h175l319 -448l-319 -455h-175z" />
    <glyph glyph-name="guilsinglleft.case" horiz-adv-x="788" 
d="M641 1128l-326 -448l326 -455h-172l-322 455l322 448h172z" />
    <glyph glyph-name="guilsinglright.case" horiz-adv-x="788" 
d="M473 680l-326 448h175l319 -448l-319 -455h-175z" />
    <glyph glyph-name="exclamdown.case" horiz-adv-x="636" 
d="M229 0l35 1081h109l33 -1081h-177zM229 1219v194h179v-194h-179z" />
    <glyph glyph-name="underscore.case" horiz-adv-x="974" 
d="M0 -250v103h975v-103h-975z" />
    <glyph glyph-name="bullet.case" horiz-adv-x="851" 
d="M696 678q0 -113 -79 -192q-79 -78 -191 -78t-192 78q-79 78 -78 192q0 114 78 192t192 78t192 -78t78 -192z" />
    <glyph glyph-name="periodcentered.case" horiz-adv-x="409" 
d="M106 557v195h197v-195h-197z" />
    <glyph glyph-name="hyphen.case" horiz-adv-x="778" 
d="M680 543v-137h-584v137h584z" />
    <glyph glyph-name="endash.case" horiz-adv-x="1169" 
d="M96 436v146h975v-146h-975z" />
    <glyph glyph-name="emdash.case" horiz-adv-x="2174" 
d="M96 436v146h1981v-146h-1981z" />
    <glyph glyph-name="bar.case" horiz-adv-x="475" 
d="M233 -184v1761h164v-1761h-164z" />
    <glyph glyph-name="brokenbar.case" horiz-adv-x="475" 
d="M156 -184v733h163v-733h-163zM156 844v733h163v-733h-163z" />
    <glyph glyph-name="I.ss07" horiz-adv-x="657" 
d="M78 0v137h168v1137h-168v139h502v-139h-170v-1137h170v-137h-502z" />
    <glyph glyph-name="zero.tosf" 
d="M584 1167q170 0 286 -88q212 -161 211 -508q0 -236 -114 -406q-57 -85 -155 -135t-228 -50q-248 0 -373 172t-125 420t125 422q125 173 373 173zM584 1028q-170 0 -249 -130t-79 -327t79 -325t249 -129q170 0 250 129q80 130 80 326t-80 326t-250 130z" />
    <glyph glyph-name="one.tosf" 
d="M709 1147v-1010h368v-137h-901v137h369v694h-260v138h82q178 0 178 178h164z" />
    <glyph glyph-name="two.tosf" 
d="M605 1167q208 1 309 -107q102 -108 102 -283t-134 -323t-491 -317h643v-137h-897v150q532 261 645 421q42 57 54 99t12 96q0 262 -251 262t-271 -264h-170q16 197 128 300t321 103z" />
    <glyph glyph-name="three.tosf" 
d="M279 143q21 -272 311 -272q142 0 222 81t81 223q0 142 -82 222t-231 80h-140v137l353 414h-590v139h784v-139l-375 -414q205 0 327 -114t122 -312t-124 -326t-341 -128t-343 104t-140 305h166z" />
    <glyph glyph-name="four.tosf" 
d="M791 137v785l-498 -785h498zM954 -246h-163v246h-689v139l689 1028h163v-1030h181v-137h-181v-246z" />
    <glyph glyph-name="five.tosf" 
d="M999 1147v-139h-604l-63 -498q118 137 314 137t312 -132t115 -335q0 -202 -135 -324t-332 -122q-196 0 -322 102t-139 297h170q7 -137 91 -199t212 -63q128 0 207 85q80 85 80 227q0 143 -78 237t-210 94t-193 -55t-84 -115l-164 59l82 744h741z" />
    <glyph glyph-name="six.tosf" 
d="M622 117q146 0 225 91t79 243q0 151 -79 231t-218 80q-83 0 -147 -31q-143 -70 -178 -246q-5 -31 -5 -51q12 -141 95 -229q82 -88 228 -88zM649 895q197 0 321 -113q124 -114 124 -326t-126 -344t-339 -132q-304 0 -418 216q-102 195 -101 522q1 328 134 522t385 194
q199 0 311 -111t121 -248h-162q-37 219 -270 219q-371 0 -357 -635q105 236 377 236z" />
    <glyph glyph-name="seven.tosf" 
d="M1049 1147v-139l-539 -1254h-164l543 1254h-731v139h891z" />
    <glyph glyph-name="eight.tosf" 
d="M624 1294q-286 0 -286 -237q0 -123 78 -179t188 -57q109 1 187 57t77 179q0 153 -104 199q-81 38 -140 38zM598 113q47 0 84 5t85 22t82 46t57 84q24 55 24 129q0 135 -96 209t-230 74t-230 -74q-97 -74 -98 -209q0 -90 34 -152t90 -89t104 -36t94 -9zM170 1057
q0 161 109 269t325 108t326 -109q109 -109 108 -268q0 -207 -200 -307q262 -104 262 -351q0 -201 -132 -313t-366 -111q-234 0 -364 112t-129 312q0 247 262 351q-201 100 -201 307z" />
    <glyph glyph-name="nine.tosf" 
d="M580 1030q-146 0 -225 -79t-79 -219t79 -223t214 -83q84 0 149 28q64 28 98 68t63 99q29 60 22 110q-12 127 -94 213q-81 86 -227 86zM555 293q-190 0 -316 116q-126 117 -126 317t125 321t331 120q242 0 362 -134t148 -360q37 -309 -24 -532q-37 -133 -92 -209
t-129 -122q-124 -77 -265 -76q-199 0 -309 110t-119 246h164q37 -217 264 -217q94 0 164 42t108 107q101 173 87 492q-111 -221 -373 -221z" />
    <glyph glyph-name="numbersign.tf" 
d="M510 901l-117 -430h299l115 430h-297zM55 334v137h181l114 430h-233v137h270l105 375h159l-104 -375h297l104 375h158l-105 -375h148v-137h-184l-115 -430h237v-137h-272l-92 -334h-156l90 334h-299l-90 -334h-157l90 334h-146z" />
    <glyph glyph-name="dollar.tf" 
d="M274 1062q0 -104 68 -154t199 -81v467q-127 -10 -197 -68t-70 -164zM971 381q0 119 -73 174t-230 94v-532q303 16 303 264zM668 1579v-149q391 -25 428 -381h-170q-12 113 -70 173t-188 70v-493l65 -15q190 -45 299 -133t110 -267t-123 -287t-351 -117v-146h-127v148
q-221 18 -339 130t-130 294h168q20 -258 301 -287v559q-213 41 -324 125t-111 247t109 265t326 115v149h127z" />
    <glyph glyph-name="plus.tf" 
d="M535 993h137v-407h407v-137h-407v-406h-137v406h-406v137h406v407z" />
    <glyph glyph-name="less.tf" 
d="M1049 59l-891 387v142l891 387v-164l-721 -295l721 -295v-162z" />
    <glyph glyph-name="equal.tf" 
d="M158 418v137h889v-137h-889zM158 795v139h889v-139h-889z" />
    <glyph glyph-name="greater.tf" 
d="M158 975l891 -387v-144l-891 -387v164l721 295l-721 295v164z" />
    <glyph glyph-name="asciitilde.tf" 
d="M467 539q-82 0 -82 -93h-121q0 52 11 94t59 82t123 40t161 -48t125 -47q78 0 78 95h121q0 -215 -194 -216q-72 0 -155 46t-126 47z" />
    <glyph glyph-name="cent.tf" 
d="M604 1110q-133 0 -223 -97t-90 -300t92 -297t238 -94q248 0 294 229h168q-29 -150 -132 -251t-285 -114v-186h-103v186q-205 16 -323 156t-117 372q0 234 119 374t321 159v164h103v-164q182 -14 288 -125t119 -258h-168q-14 114 -91 180t-210 66z" />
    <glyph glyph-name="sterling.tf" 
d="M620 1413q106 1 184 -25q77 -26 118 -64q102 -95 102 -294h-168q0 136 -60 188t-166 52t-166 -52q-62 -52 -63 -159v-377h377v-131h-377v-270q0 -96 -84 -140h455q157 6 191 113q14 49 14 117h168q0 -192 -91 -279q-91 -88 -276 -92h-717v141q124 0 151 56q21 44 21 84
v270h-170v131h170v377q0 121 78 228q41 56 122 91t187 35z" />
    <glyph glyph-name="currency.tf" 
d="M1135 514q0 -180 -109 -324l135 -135l-100 -100l-135 135q-140 -110 -322 -110t-323 110l-136 -135l-98 100l133 135q-110 144 -110 322t110 324l-133 133l98 100l136 -135q141 110 322 110t323 -110l135 135l100 -100l-135 -133q109 -142 109 -322zM604 127
q158 0 272 113q114 112 112 272t-115 272q-115 112 -271 111q-156 0 -270 -112q-114 -111 -113 -271q-1 -160 113 -272t272 -113z" />
    <glyph glyph-name="yen.tf" 
d="M1028 682v-119h-344v-180h344v-119h-344v-264h-166v264h-354v119h354v180h-354v119h289l-390 731h187l358 -711l355 711h178l-393 -731h280z" />
    <glyph glyph-name="section.tf" 
d="M856 657q0 71 -44 107t-100 46q-55 9 -108 17t-74 13q-158 -18 -157 -150q0 -96 87 -130q62 -24 155 -38q94 -14 126 -22q109 32 115 157zM598 1434q399 0 399 -324h-168q0 135 -104 171q-49 17 -127 17q-225 0 -225 -153q0 -144 230 -178q95 -13 191 -33t162 -86
q68 -66 68 -182q0 -164 -145 -222q145 -66 145 -245q0 -240 -292 -290q-65 -11 -134 -11q-231 0 -325 96q-93 96 -93 233h168q0 -197 254 -197t254 169q0 77 -68 117t-162 58t-190 40t-164 88t-67 178q0 68 39 134t104 91q-61 25 -102 88t-41 164t91 189t302 88z" />
    <glyph glyph-name="logicalnot.tf" 
d="M121 569v136h964v-535h-161v399h-803z" />
    <glyph glyph-name="plusminus.tf" 
d="M530 1192h142v-371h372v-141h-372v-373h-142v373h-368v141h368v371zM1044 135v-135h-882v135h882z" />
    <glyph glyph-name="multiply.tf" 
d="M219 803l96 96l287 -285l287 285l98 -96l-287 -287l285 -285l-98 -98l-285 285l-285 -285l-96 98l283 285z" />
    <glyph glyph-name="divide.tf" 
d="M1044 631v-142h-882v142h882zM518 135v193h178v-193h-178zM518 793v192h178v-192h-178z" />
    <glyph glyph-name="florin.tf" 
d="M249 -274q50 0 99 30t60 86l176 996h-150l23 133h149q8 35 22 113t23 116q25 100 111 160t171 61q85 0 132 -22l-23 -127q-32 16 -82 16t-100 -31t-59 -88l-35 -198h223l-22 -133h-226q-18 -104 -52 -296q-33 -192 -61 -348q-28 -157 -53 -296l-18 -86
q-25 -100 -111 -160t-171 -60t-132 23l23 127q33 -16 83 -16z" />
    <glyph glyph-name="Euro.tf" 
d="M68 489v121h686l-66 -118h-289q59 -358 359 -359q184 0 280 158l117 -115q-139 -197 -397 -196q-205 0 -346 129t-185 380h-159zM68 788v121h161q43 252 183 388t346 137q254 0 395 -209l-119 -113q-92 166 -276 166q-156 0 -242 -106t-115 -263h521l-66 -121h-788z" />
    <glyph glyph-name="minus.tf" 
d="M1047 766v-137h-889v137h889z" />
    <glyph glyph-name="zero.zero.osf" horiz-adv-x="1210" 
d="M600 1028q-166 0 -245 -130t-79 -329q0 -119 29 -213l545 549q-84 123 -250 123zM934 575q0 109 -29 209l-545 -546q82 -121 249 -121q167 1 246 129t79 329zM604 1167q129 0 227 -50q97 -50 155 -135q116 -171 116 -408t-115 -409q-57 -85 -155 -135t-228 -50
q-248 0 -373 172t-125 422t125 421q125 172 373 172z" />
    <glyph glyph-name="zero.zero.tosf" horiz-adv-x="1210" 
d="M600 1028q-166 0 -245 -130t-79 -329q0 -119 29 -213l545 549q-84 123 -250 123zM934 575q0 109 -29 209l-545 -546q82 -121 249 -121q167 1 246 129t79 329zM604 1167q129 0 227 -50q97 -50 155 -135q116 -171 116 -408t-115 -409q-57 -85 -155 -135t-228 -50
q-248 0 -373 172t-125 422t125 421q125 172 373 172z" />
    <glyph glyph-name="arrowleft.ss08" horiz-adv-x="1523" 
d="M352 596h1116v-123h-1116v-231l-291 293l291 292v-231z" />
    <glyph glyph-name="arrowright.ss08" horiz-adv-x="1523" 
d="M1178 596v231l290 -292l-290 -293v231h-1117v123h1117z" />
    <glyph glyph-name="arrowup.ss08" horiz-adv-x="1521" 
d="M702 1116h-231l293 291l293 -291h-232v-1116h-123v1116z" />
    <glyph glyph-name="arrowdown.ss08" horiz-adv-x="1523" 
d="M702 291v1116h123v-1116h232l-293 -291l-293 291h231z" />
    <glyph glyph-name="arrowboth.ss08" horiz-adv-x="2000" 
d="M352 596h1116v231l291 -292l-291 -293v231h-1116v-231l-291 293l291 292v-231z" />
    <glyph glyph-name="arrowleftup.ss08" horiz-adv-x="1523" 
d="M268 1024h412l-164 -162l791 -790l-88 -86l-789 788l-162 -164v414z" />
    <glyph glyph-name="arrowrightup.ss08" horiz-adv-x="1523" 
d="M1307 1024v-414l-162 164l-789 -788l-88 86l791 790l-164 162h412z" />
    <glyph glyph-name="arrowleftdown.ss08" horiz-adv-x="1521" 
d="M268 0v414l162 -164l789 788l88 -86l-791 -790l164 -162h-412z" />
    <glyph glyph-name="arrowrightdown.ss08" horiz-adv-x="1523" 
d="M1307 0h-412l164 162l-791 790l88 86l789 -788l162 164v-414z" />
    </font>
</defs>
</svg>
